ply
format ascii 1.0
comment bbox 24.661240  26.324783 -0.344283  0.612068 -21.434929  -8.031221 
element vertex 17
property double x
property double y
property double z
element face 9
property list uchar int vertex_index
end_header
24.946704864499999 -0.068532496690799999 -12.5007429123  24.890237808199998 0.058219898492099999 -12.413391113299999  25.1522302628 -0.069797750562449995 -12.37503957745  24.7837352753 0.017675299197400001 -8.1306638717700004  24.920795440700001 -0.048187799751800001 -8.0312213897699998  25.034814834599999 0.0078229997307100001 -8.1305704116800008  25.026092529300001 -0.0178500991315 -8.0790271759000003  25.033206939700001 0.111661702394 -21.390594482400001  24.937541008 -0.15609419904674998 -21.35630607605  24.661239624 0.034708499908399998 -21.434928893999999  25.186037063600001 -0.070784896612199999 -21.3226985931  25.2126140594 -0.34428319335000002 -21.274181366000001  26.07762527465 0.1471291482448 -21.229760169999999  25.737288475050001 0.2458072528245 -21.261656761200001  25.9618186951 0.32173544168449997 -21.248044967650003  26.324782689399996 0.19437136749436665 -21.225068410233334  26.246015548700001 0.61206781864199999 -21.2528114319  3 1 2 0  3 3 4 5  3 6 5 4  3 7 9 8  3 10 7 8  3 10 8 11  3 13 12 14  3 12 15 16  3 14 12 16  
