ply
format ascii 1.0
comment bbox -26.063494  -20.028698 -9.607737  -2.831210 13.842662  26.039089 
element vertex 77
property double x
property double y
property double z
element face 61
property list uchar int vertex_index
end_header
-20.761489868200002 -6.2144694328299996 15.168438911399999  -20.796792984 -6.0265982150999999 15.2342529297  -20.951908111599998 -6.2390012741099996 15.41734457015  -20.979351043699999 -2.998723268505 15.501924037950001  -20.8401155472 -2.96395778656 15.3265180588  -20.999032974199999 -2.8312101364100002 15.4240550995  -20.088302612299998 -8.2370386123649997 13.877600669850001  -20.358808517450001 -8.1727981567400008 14.31241321565  -20.17506154376667 -8.3536176681533334 13.964273770666665  -24.9612178802 -9.4806318283100008 24.934751510600002  -24.838550567599999 -9.2060556411699999 25.026311874400001  -24.979069709800001 -9.4818825721749995 25.169281959549998  -24.555398941050001 -6.6409955024750005 23.855382919299998  -24.430315017700003 -6.6693336963649994 23.569998741150002  -24.512732505800003 -6.4625830650299996 23.579097747799999  -24.768743515000001 -7.0109472274766667 24.395940144866671  -24.650185267133335 -6.8366888364166662 24.126578648900004  -24.794391632100002 -6.7252950668300002 24.319101333599999  -24.4743493398 -6.9426039059966662 23.801696777333333  -24.961177825899998 -9.4635934829699995 24.891223907499999  -24.450595855700001 -9.3586339950599999 23.285625457799998  -24.517671585066665 -9.5644264221200004 23.259548187266663  -24.569913864099998 -9.4960241317699996 23.429803848300001  -24.381782531749998 -9.1964316368100008 23.118388176  -24.471208572366663 -9.0828987757366662 23.307943979899999  -25.031915664700001 -9.6077365875199998 25.076347351100001  -24.673142433175002 -8.1653971672049988 24.233470439900003  -24.665733337399999 -7.8674323558800001 24.3223495483  -24.64130338033333 -7.8795671463000003 24.078147888200004  -20.544614156066668 -8.0754143397 14.606067657500001  -20.635473251299999 -8.0029802322400005 14.758974075299999  -20.622409820550001 -8.1729278564449999 14.690720558199999  -24.392975807199999 -6.6932220458950002 23.405776977549998  -24.379078547166667 -6.9755617777499994 23.336044311533332  -24.414779663049998 -7.0954952240000004 23.4662942886  -24.597169876100001 -7.11590957642 24.088859558100001  -24.487237930300001 -7.15493917465 23.758274078399999  -24.908003807100002 -6.7451417446099997 24.529829978949998  -24.893560409500001 -6.8254628181500001 24.58070755  -20.661520004300002 -6.0352954864499999 15.0491027832  -24.639337539700001 -6.4806442260699999 23.8203697205  -20.66543388365 -5.9982929229700002 15.056624412550001  -20.547666549700001 -5.9757788181300002 14.874218940750001  -20.459886550900002 -5.8955333232899996 14.7377848625  -20.386267852779998 -8.0129336357100005 14.393805122379998  -20.234826405833331 -8.0100196202599996 14.170989672366666  -20.536643346166667 -7.8274439175933326 14.630735079433334  -20.6814212799 -7.8213030497233333 14.840569178300001  -20.61117744445 -6.1756553649899999 14.947996616400001  -24.8037586212 -8.9675350189199996 24.754844665499999  -24.877545038866668 -9.2458321253499989 24.755075454733333  -24.779521942100001 -8.95908069611 24.8639545441  -20.996328353900001 -3.2045612335200002 15.5731019974  -20.028697967500001 -8.0470113754299994 13.8426618576  -20.120876312275001 -8.0025016069425003 13.996453762025  -24.86892604825 -6.97945928574 24.794635772699998  -24.961333274849999 -6.716671705245 24.797544479400003  -24.37057590485 -9.4529066085800011 22.970032691949999  -24.689330101000003 -8.4937658309949988 24.896956443800001  -24.724293708800001 -8.3930139541649993 24.62181949615  -24.668787002599998 -8.2588100433299996 24.868206024199999  -24.7240066528 -7.7327013015699997 24.7594413757  -24.687723159800001 -7.9424719810499997 24.864194869999999  -24.716326395666666 -7.8543155988066671 24.636912663766669  -20.790575027500001 -3.205641031266667 15.321797053033334  -20.908388137799999 -3.2381973266599999 15.4708929062  -20.693861007700001 -3.1625473499299996 15.167298793800001  -24.726678848300001 -8.6980619430499999 24.865686416599999  -24.686670303300001 -8.6959142684900002 25.1363220215  -24.740385055499999 -8.8639955520600004 24.974384307899999  -25.473955154399999 -8.7049674987800003 26.039089202900001  -26.063493728600001 -8.2667007446300005 25.940065383899999  -24.757413864099998 -8.9529495239300001 25.141712188700001  -20.703030586250001 -3.3503777980849998 15.1752257347  -24.757413864099998 -8.9529495239300001 25.141712188700001  -24.847833633400001 -9.20542144775 25.155124664300001  -24.838550567599999 -9.2060556411699999 25.026311874400001  3 0 1 2  3 5 3 4  3 6 7 8  3 10 11 9  3 12 13 14  3 15 16 17  3 13 12 18  3 10 9 19  3 20 22 21  3 20 23 24  3 25 9 11  3 26 28 27  3 29 30 31  3 32 13 18  3 18 33 32  3 34 33 18  3 16 35 18  3 35 36 18  3 35 16 15  3 37 38 17  3 12 17 16  3 1 0 39  3 40 12 14  3 43 41 42  3 29 7 44  3 39 42 41  3 45 44 7  3 1 39 41  3 46 47 30  3 48 39 0  3 49 10 50  3 10 49 51  3 4 3 52  3 6 53 45  3 45 53 54  3 44 30 29  3 46 30 44  3 31 7 29  3 7 6 45  3 10 19 50  3 38 56 55  3 25 19 9  3 57 20 21  3 23 20 57  3 58 59 60  3 61 62 63  3 16 18 12  3 64 52 65  3 64 66 4  3 4 52 64  3 67 58 68  3 69 67 68  3 70 58 71  3 69 72 51  3 51 72 10  3 58 70 68  3 69 68 72  3 66 64 73  3 36 34 18  3 42 39 48  3 74 75 76  
