ply
format ascii 1.0
comment bbox -12.503898  10.802725 15.504835  28.268215 -25.048674  -14.494150 
element vertex 91
property double x
property double y
property double z
element face 88
property list uchar int vertex_index
end_header
0.65157349904366668 16.827945073433334 -15.158581097933334  0.81434458494150008 16.729496002200001 -15.012889385199999  0.8269385993485 16.82188892365 -15.186253547650001  4.223487854 15.781318664600001 -14.6131858826  4.0063762664800002 15.848389625499999 -14.6061687469  4.1653876304599997 15.874587059 -14.7187433243  3.0245118141199998 16.242183685299999 -14.7929096222  3.0876886844600002 16.303188324000001 -14.918138504  2.8187048435199999 16.2926197052 -14.8061676025  1.10054576397 16.6362991333 -14.918499946600001  1.16035139561 16.666131973300001 -14.985527038600001  1.0117123127000001 16.690380096399998 -14.9926719666  10.8027248383 15.5565052032 -22.833467483500002  10.7043299675 15.5754404068 -22.683753967249999  10.796035766599999 15.5048351288 -22.595617294299998  1.2407388687149998 16.66217803955 -14.998012542750001  0.87636047601699996 16.7461776733 -15.059385299700001  5.1614336967499996 15.5848026276 -14.9573965073  5.2669672965999998 15.596966743499999 -15.107391357399999  4.8467779159499997 15.7842340469 -15.057509422300001  2.81869363785 16.286567688000002 -14.795908927899999  5.0051999092099999 15.634397506700001 -14.9071202278  4.75106716156 15.719124794000001 -14.8371152878  4.5255999565099998 15.7988624573 -14.813561439500001  4.4717392921399997 15.777295112599999 -14.7419471741  4.3081727027900003 15.9034881592 -14.8415975571  4.6147265434250002 15.792433261900001 -14.86579036715  3.8504972457900002 15.8034248352 -14.4941501617  4.1878757476799997 15.709867954250001 -14.500749111200001  4.4434089660599998 15.710047721900001 -14.6254482269  4.33044290543 15.748805046099999 -14.618273735000001  4.1848964691199999 15.8744602203 -14.729239463800001  0.26263099908799997 16.592941284199998 -14.7943325043  0.35419309139299998 16.701688766499998 -14.9134464264  0.161833494902 16.733961105300001 -14.949231147800001  3.3196420669549997 16.268306732150002 -14.9908390045  3.1055524349199999 16.329156875599999 -14.981271743800001  3.1424341201799999 16.293256759599998 -14.9294157028  2.7513053417200002 16.179449081400001 -14.653255462600001  2.9569602012599998 16.128955841100002 -14.639733314500001  2.8121707439399999 16.218391418500001 -14.710659980799999  0.74587988853499998 16.623760223400001 -14.8594770432  0.54883378744099998 16.6650047302 -14.8834695816  0.49185869097700002 16.654275894200001 -14.865541458099999  0.68482348322850006 16.515389442450001 -14.7358980179  0.94345301389699998 16.582122802699999 -14.8358564377  0.27734729647599998 16.7700862885 -14.9980010986  0.45916131138799998 16.777021408100001 -15.023735046400001  1.14193463326 16.539289474499999 -14.8136806488  1.08158802986 16.4138202667 -14.679670333900001  0.423294901848 16.807033538799999 -15.073419570900001  0.23041540384299999 16.840127944900001 -15.1078891754  0.45439204573600001 16.885051727299999 -15.222164154049999  0.102888599038 16.606296539300001 -14.819586753799999  0.046768799424200001 16.472145080600001 -14.6984806061  0.4693311452865 16.502637863149999 -14.7163825035  0.69593650102600002 16.705158233599999 -14.954159736599999  2.7543509801233337 16.401833852133333 -14.974806467699999  2.6139152050000001 16.3418693542 -14.820818901100001  2.49101042747 16.4754905701 -15.026272773700001  2.91469180584 16.394845008849998 -15.023764610299999  3.1034121513400001 16.147710800199999 -14.701004982000001  9.65051746368 16.363012313799999 -24.540466308599999  9.5270910263099999 16.436651229900001 -24.451601028399999  9.5965118408199999 16.392948150599999 -24.554264068599998  10.0104999542 16.1356487274 -23.869577407800001  9.8535118103000006 16.246227264400002 -24.070882797199999  9.85516738892 16.221120834400001 -23.857234954799999  6.6514210700999996 17.810123443599998 -22.758901596099999  6.5889115333600001 17.8502025604 -22.795892715499999  6.6607685089100004 17.791885376 -22.6880912781  0.204122304916 16.3970413208 -14.622377395599999  2.5490500926999999 16.223960876500001 -14.674515724200001  2.6169435977900002 16.167661666899999 -14.623097419700001  4.8306498527499997 15.7167949677 -14.9055519104  4.6150503158599996 15.874645233200001 -15.019389152500001  -6.0578002929699997 25.159988403300002 -23.593164443999999  -6.2529020309399996 25.300731658899998 -23.693050384500001  -6.2159209251399998 25.247066497799999 -23.580785751299999  -5.8340389728549997 25.155572891249999 -24.774600028950001  -5.8020577430699998 25.143842697099998 -24.656486511200001  -5.6030049324000002 25.009117126500001 -25.0486736298  -5.8138365745499998 25.155317306499999 -24.556428909299999  -11.8326978683 27.791982650800001 -22.814905166599999  -12.5038976669 28.268215179399999 -22.885925293  -12.1228542328 27.804935455300001 -22.7412700653  -5.97950458527 25.177099227900001 -23.826297759999999  -6.0709590911849993 25.199293136599998 -23.709699630700001  -6.4307408332799998 25.2536754608 -23.210550308199998  -5.8954966862999996 25.179136912000001 -24.313371658333335  -5.6862607002300001 25.069171905499999 -24.465431213399999  3 2 0 1  3 3 5 4  3 6 7 8  3 9 10 11  3 12 13 14  3 15 16 10  3 19 17 18  3 6 8 20  3 21 17 19  3 24 22 23  3 24 23 25  3 26 23 22  3 4 27 28  3 30 29 24  3 24 25 30  3 25 31 30  3 5 3 30  3 30 31 5  3 3 28 30  3 32 33 34  3 35 36 37  3 38 39 40  3 5 31 25  3 41 42 43  3 43 44 41  3 1 11 16  3 1 9 11  3 32 43 33  3 10 9 15  3 44 45 41  3 33 47 46  3 48 44 49  3 45 44 48  3 51 50 52  3 46 47 51  3 47 50 51  3 33 42 47  3 43 42 33  3 32 53 54  3 34 53 32  3 55 44 32  3 44 43 32  3 10 16 11  3 48 9 45  3 42 9 56  3 9 42 41  3 46 34 33  3 0 47 1  3 47 56 1  3 34 46 51  3 56 47 42  3 47 0 52  3 52 50 47  3 58 57 59  3 7 57 8  3 57 7 60  3 61 6 39  3 6 40 39  3 40 6 20  3 37 36 7  3 62 64 63  3 65 66 67  3 68 69 70  3 41 45 9  3 32 54 71  3 72 38 58  3 38 72 73  3 38 40 58  3 8 57 58  3 56 9 1  3 8 58 20  3 74 75 22  3 19 75 74  3 22 75 26  3 25 26 75  3 23 26 25  3 19 74 21  3 20 58 40  3 4 28 3  3 76 77 78  3 79 80 81  3 80 82 81  3 85 83 84  3 77 87 86  3 78 88 76  3 77 76 87  3 82 89 90  3 87 76 86  
