ply
format ascii 1.0
comment bbox -25.058710  0.128452 -1.935400  4.940602 -25.777630  -25.406818 
element vertex 501
property double x
property double y
property double z
element face 511
property list uchar int vertex_index
end_header
-15.572427749599999 -0.052349299192400001 -25.575128555300001  -15.722684860199999 0.054910600185399998 -25.578584671000002  -15.8601379395 -0.098316296935099995 -25.577306747400002  -20.150262832599999 2.1933138370499998 -25.695919036900001  -19.830450058 1.56738674641 -25.677968978900001  -19.153264045749999 1.52055090666 -25.673461914050002  -16.05357170105 0.067649200558649994 -25.5885477066  -16.0158081055 -0.088851101696499998 -25.579784393299999  -1.6266392469399999 0.71145230531699999 -25.4907779694  -2.1282836198799999 0.27892115712150001 -25.470106124899999  -1.6087682247199999 -0.071016497910000004 -25.458318710299999  -21.096512603779999 2.6180354118340001 -25.710971069339998  -21.77452278136667 3.7264444828033336 -25.743611017866666  -21.223465347279998 3.5565305233000002 -25.73720245362  -21.75143280028 3.2030041694640006 -25.728539276139998  -10.3697347641 0.042151801288099998 -25.5096702576  -10.5335817337 0.21160569787 -25.517753601100001  -10.510070800799999 -0.107532799244 -25.505239486699999  -8.79460811615 0.10487490147350001 -25.486476898200003  -8.9153718948366674 -0.049221600095433332 -25.485239028933336  -8.7088618278549994 -0.045330550521599997 -25.4800901413  -8.5568380355800002 -0.070595897734199997 -25.481388092  -20.593295415266667 2.4594101905833337 -25.704874674466669  -24.549148559599999 -0.0257839001715 -25.6348838806  -24.029964447000001 0.094877898693099996 -25.638864517199998  -24.105726242100001 -0.13633020222200001 -25.6320075989  -19.409379959100001 -0.19910299778000001 -25.629535675  -19.861897468549998 0.20583489537249999 -25.6426916122  -19.9382820129 -0.092493802309000006 -25.6348114014  -19.474672317500001 0.19118399918099999 -25.6397209167  -20.942656517025 2.0459794402125002 -25.694808006300001  -21.613666057574999 2.7053164839749999 -25.714144229874996  -20.511299133266668 3.0888115564966667 -25.720977783199999  -20.470403671300001 2.8196432590499998 -25.713893890400001  -19.979019165049998 1.3493751883499998 -25.67337608335  -17.868869781499999 -0.141775503755 -25.612701416  -17.572711944600002 0.00039309999556299998 -25.615360259999999  -18.024364471399998 -0.13367210328599999 -25.617759704600001  -18.4966373444 -0.104875996709 -25.624725341800001  -18.221220016499998 0.201746806502 -25.6304264069  -18.340242385900002 -0.113481402397 -25.620552063000002  -20.275281906099998 1.9766728877999999 -25.690916061399999  -20.436650276149997 1.41714030504 -25.6766805649  -17.705583572400002 -0.14499130100000002 -25.608846664449999  -19.68337726595 0.7404784560205 -25.6554450989  -20.151222228999998 0.81332451105100001 -25.6598415375  -18.795389175399997 0.40052525699149999 -25.641989707950003  -18.935533523533334 0.8301714062690001 -25.653803507466666  -14.39011383055 0.3023730963465 -25.567031860349999  -14.41976881025 0.13545770198099999 -25.56338500975  -14.4827299118 -0.019713599234800001 -25.5563278198  -14.5346851349 0.34051629900949998 -25.569946289050002  -21.235304832499999 0.96744021773349997 -25.66554546355  -20.926826477100001 0.91371619701399998 -25.663854599  -20.97653083802 1.4927928924580001 -25.679518127440002  -10.358137130699999 -0.117194898427 -25.503412246700002  -12.061356544500001 0.30886349081999998 -25.5384578705  -12.2011604309 0.15778850018999999 -25.534849166899999  -12.048806190500001 0.14915679395199999 -25.530824661299999  -13.8790941238 0.10243289917700001 -25.554206848100002  -14.0411272049 0.0098965000361200001 -25.5535869598  -14.049241066 0.27372860908500002 -25.5617179871  -21.465758641533331 1.6598802804933335 -25.684560139966663  -21.661254882800002 1.0989338159599999 -25.669580459599999  -21.495947519933335 4.6089154879233325 -25.767166773499998  -21.6381149292 4.1432266235400004 -25.755041122400002  -15.253742217999999 0.023865599185199999 -25.575756073000001  -15.39246177675 0.1821106001735 -25.580749511699999  -15.2708568573 0.18609760701700001 -25.580478668200001  -22.911254882833333 0.46977597475066668 -25.650677363099998  -23.500247955300001 0.21780450642099999 -25.642967224100001  -23.124061584500001 -0.13145799934899999 -25.633563995399999  -7.992997964223334 -0.10523329923533332 -25.467434565233333  -7.9661774635300002 0.051313098520000003 -25.476848602299999  -8.2619891166649992 -0.13549285009504999 -25.472629547099999  -12.835082531000001 0.02647185046225 -25.539682388350002  -12.074199676499999 0.46915760636300002 -25.5455493927  -12.479361534100001 -0.144949197769 -25.5296096802  -13.941315650949999 -0.053586350753900003 -25.549161910999999  -13.630979537950001 -0.074593450874099992 -25.54820442195  -23.040462493900002 0.106517098844 -25.640102386500001  -7.7323060035699998 -0.120829399675 -25.466483116150002  -15.412241935699999 0.036462899297499997 -25.5725460052  -15.662170887 0.2123666480185 -25.582466125499998  -15.8933353424 0.22429369390000001 -25.5907020569  -14.8047981262 0.15705999732000001 -25.573688507100002  -14.6525344849 0.15026700496699999 -25.566171646099999  -14.712531089799999 -0.0078810001723600004 -25.564408302300002  -22.058938026433335 4.9406015078233336 -25.777629852299999  -18.04868888855 0.17592309415349999 -25.623791694649999  -18.164314269999998 -0.037096500396699997 -25.620281219500001  -18.045996983833334 0.030768733471633333 -25.61970583596667  -20.752851009375 3.4877433776875 -25.732665538799999  -18.557880401599999 0.385572493076 -25.638833999599999  -0.591730713844 -0.14225980639499999 -25.4553432465  -0.59374088048899998 0.011607299558800001 -25.4646720886  -0.44605159759500002 -0.15449920296700001 -25.458814620999998  -4.1195225715600001 0.425992190838 -25.465044021600001  -4.7139678001399998 0.46969088912000001 -25.463922500599999  -4.5342988967900002 -0.32742279767999999 -25.431640625  -3.4838662147499999 -0.031742498278599998 -25.443168640100001  -3.3970049222299998 0.14345149695896667 -25.453395207733333  -3.2294578552200002 0.20879310369500001 -25.450790405300001  -0.73811447620399995 0.020259600132699999 -25.468000411999999  -0.94760010639800007 -0.10550549874730002 -25.458816528333333  -1.1714100837700001 -0.103290103376 -25.4601745605  -5.6616790294650006 0.064831949770450009 -25.445939064000001  -5.7428145408600004 0.22684019804 -25.454574585  -5.5054795742050002 -0.10326739773140001 -25.4394893646  -5.2956171035799997 0.195521593094 -25.453252792400001  -5.2961435318000003 -0.11686465144149999 -25.437276840199999  -6.7770323753400001 0.13365200161900001 -25.46616745  -7.0772280693100003 0.154566705227 -25.467000961299998  -7.0689129829399997 -0.0034405998885599998 -25.460098266599999  -7.4424030780799999 0.019495299551599999 -25.4667901993  -21.070411682149999 4.1912163496024997 -25.75325202945  -18.833187103299998 0.078008197247999997 -25.63347435  -11.360085487349998 0.10519425198400001 -25.522287368800001  -11.143115997300001 0.250263601542 -25.5262947083  -11.117460250900001 -0.070627503097100003 -25.515933990499999  -0.16093480587 0.13472099602199999 -25.473014831499999  -0.0137275997549 -0.031852699816200002 -25.4678554535  -0.30357620120000001 -0.0098965000361200001 -25.465812683100001  -10.8382148743 0.23104549944399999 -25.521791458100001  -10.738140583050001 -0.093104451894750001 -25.5081319809  -13.3851671219 -0.080733750015500011 -25.540880203249998  -12.9535665512 0.043797601014400001 -25.5426311493  -13.3861856461 -0.24837219715100001 -25.537208557100001  -9.7642803192100001 0.00534320017323 -25.498573303200001  -9.7533931732199992 -0.15354269743000001 -25.491983413700002  -9.9043207168599992 -0.144575804472 -25.495040893599999  -14.24947547915 -0.035301849246049996 -25.555211067199998  -8.4277229309100008 0.239943102002 -25.4875469208  -8.2767791747999997 0.22984409332299999 -25.486322402999999  -8.5775728225699996 0.24840560555499999 -25.491775512699999  -21.443160057050001 0.31644239276649999 -25.647881507849998  -21.9314346313 0.35816758871100002 -25.648792266800001  -21.5395717621 -0.000666900014039 -25.6391563416  -22.021955490100002 0.113306201994 -25.642223358199999  -0.736050784588 -0.13352079689499999 -25.4583911896  -16.2055110931 0.24363680183899999 -25.5954608917  -16.157567977900001 -0.047181401401800001 -25.585748672499999  -16.498144149800002 0.098623499274300003 -25.5983562469  -10.976580142949999 0.23855520039799999 -25.519965171799999  -13.584712982199999 0.243716403842 -25.5566635132  -9.1710414886499994 0.12759639322800001 -25.493989944500001  -9.3227939605699994 0.13796070218100001 -25.494680404699999  -9.2358183860800001 -0.027029550634350002 -25.489365577699999  -8.4073495864899996 -0.078826501965500007 -25.476972580000002  -11.8964271545 0.14038190245599999 -25.5270767212  -11.6037988663 0.28197398781799998 -25.527914047199999  -11.806320667249999 -0.025198200717550003 -25.521033287049999  -16.337868690500002 0.7381179332729999 -25.611538887000002  -17.141883850100001 0.29898789525000002 -25.6149806976  -16.771600723300001 -0.209059596062 -25.597276687600001  -13.17183732985 -0.10033575072879999 -25.5362215042  -18.696707725549999 -0.062302150763550002 -25.62648773195  -18.814874649 -0.083280302584199994 -25.625020980799999  -10.966170311000001 -0.079002797603600003 -25.511663436900001  -2.7074803113949999 0.010433250106870001 -25.452941894550001  -2.4038648605300001 0.0044518001377600001 -25.4529418945  -2.4885647296900002 -0.00303400005214 -25.448722839399998  -7.5259232521100001 0.1823477 -25.474954605099999  -7.7089605331449995 0.18704645335699999 -25.475788116449998  -2.04737401009 -0.038483001291799997 -25.4561367035  -2.2670321464550001 -0.0223889499903 -25.455424308750001  -19.053510665899999 0.13007919490299999 -25.635063171399999  -19.298730850199998 0.059715099632699997 -25.635505676299999  -20.028381347700002 -0.31152200698900001 -25.6301269531  -20.490159988400002 -0.2532282024625 -25.632498741150002  -20.457572936999998 0.0138986995444 -25.639785766599999  -6.10018825531 -0.064378801733250002 -25.445550918599999  -6.3309192657500004 0.10728040337600001 -25.455850601200002  -6.1892437934900002 0.25527089834200001 -25.4613227844  -17.4186439514 -0.00663679977879 -25.608249664300001  -3.2190389633200001 -0.10544089973 -25.439340591400001  -4.9925923347500003 0.018969299271700001 -25.442630767800001  -6.4802603721600001 0.11719260364799999 -25.4572143555  -6.4721026420600003 -0.041111201047900003 -25.451383590700001  -9.538749217985 -0.0071167502319550002 -25.491994857800002  -4.2575359344499999 0.124457798898 -25.447048187299998  -4.1034288406400004 -0.043608501553499997 -25.441377639799999  -2.68037295341 -0.018686499446599999 -25.449813842800001  -2.9452686309799998 -0.0153050003573 -25.447828292800001  -1.1811747551 0.36516469717 -25.4786815643  -22.623609542800001 -0.055739851202690004 -25.635888099699997  -12.86424970625 -0.11965695023550001 -25.532303810150001  -9.9284296035799997 0.17616890370800001 -25.503561019900001  -20.9612884521 0.12554049491899999 -25.6435890198  -21.053314209 -0.118847101927 -25.6364631653  -20.812564849899999 -0.23787440359600001 -25.632915496799999  -3.9554080963099998 -0.054488800466100003 -25.442062377900001  -3.5179398059799998 0.070652201771699993 -25.4487094879  -3.6296831369399998 -0.10263900458825 -25.440343856799998  -12.3409194946 0.0069836000911900004 -25.531036377  -12.111823558800001 -0.0066144500160649992 -25.526370048499999  -12.280298550933333 -0.13191966712466666 -25.524080276533336  -8.9548559188850003 0.27248634398000005 -25.497072219849997  -16.638622283899998 -0.051915001124100003 -25.5915527344  -22.082467397066665 -0.21597909430666665 -25.632693608600004  -21.629735946699999 -0.24309170246100001 -25.632301330600001  -11.66495847705 0.12364824488749999 -25.528032302900002  -11.49919462205 -0.046163750812399998 -25.520157814050002  -12.65666770935 -0.1487132012845 -25.531298637350002  -8.1257514953599994 0.21946689486500001 -25.485624313399999  -17.04571342465 0.13214520364999999 -25.607062339750001  -17.104860305799999 -0.026067400351200001 -25.603958129900001  -6.0405626297000001 0.246168196201 -25.458374023400001  -5.8028182983400001 -0.083487898111350003 -25.441866874700001  -9.9916505813449987 0.019785900600249998 -25.501529693599998  -17.259468078600001 -0.0183668006212 -25.6098060608  -22.132273674025001 4.292671322825 -25.759754657750001  -3.52287554741 0.22703190147899999 -25.4563102722  -9.48433876038 0.30639320611999998 -25.5042915344  -2.2638826370249996 -0.17641314864149998 -25.445224762000002  -20.770666122450002 0.35329660773250005 -25.64903736115  -17.435588836699999 0.15420539677100001 -25.6168384552  -17.420097351100001 0.089454799890499995 -25.610988616899999  -9.7001476287850004 0.1606107503175 -25.50245761875  -7.8257946968100001 0.20115180313600001 -25.479812622099999  -23.579580307000001 -0.017071699723599999 -25.636157989499999  -8.1924810409550002 0.0668849013746 -25.477654457100002  -7.4335935115799998 -0.138650402427 -25.4603443146  -20.322978973399998 0.28005939722049999 -25.646450042749997  -17.908559799199999 0.184452697635 -25.621799468999999  -7.2185440063500002 0.0061975000426200003 -25.461906433100001  -8.7285366058299996 0.25822779536200002 -25.493534088099999  -14.204671859699999 0.28409659862499997 -25.562772750899999  -22.308555602999999 -0.12803520262199999 -25.634283065799998  -5.1276798248300004 -0.285122692585 -25.430355072000001  -4.9873747825599999 -0.136003896594 -25.4319896698  -11.271589279200001 -0.0590669997036 -25.514329910299999  -23.031473159800001 -0.077051997184800006 -25.6346721649  -10.981410026600001 0.084274500608399999 -25.511240005499999  -1.879797577855 0.065128152258700001 -25.4597349167  -1.8286035656949999 -0.053357301279950003 -25.454632759100001  -24.437194824199999 0.32120859622949999 -25.644966125450001  -0.81936770677600002 0.49373491108400003 -25.48732566835  -11.115572929400001 -0.054484501481099998 -25.513149261500001  -18.857158660900001 0.24443779885799999 -25.6330928802  -25.058710098300001 -0.14482830464800001 -25.6311149597  -6.9195013046299998 -0.012921799905600001 -25.458013534500001  -6.0333847999600003 0.088703997433199996 -25.450874328600001  -10.1315069199 -0.130407549441 -25.4983253479  -6.6208057403599998 -0.032192800193999997 -25.4544620514  -3.2225329875900002 0.048291601240600002 -25.451040267900002  -2.9976105689999999 -0.1228604018685 -25.442568778999998  -4.6902995109600001 -0.15745529532399999 -25.4328937531  -4.3257749080700005 -0.027178100310249999 -25.44018363955  -2.8595882654149998 0.17873059958249998 -25.457288742099998  -10.2268543243 0.145158201456 -25.508272171000002  -6.77105951309 -0.0211302991956 -25.4535923004  -3.07994556427 0.19396190345299999 -25.458515167200002  -2.79405975342 0.48497599363299998 -25.4747447968  -0.020692599937300001 0.43627679347999998 -25.485069274899999  0.12845210731000001 0.113797001541 -25.4729003906  -6.3695406913800001 0.17506180703599999 -25.457370758100001  -6.3244156837499999 -0.048642199486499997 -25.445751190199999  -4.8387775421099999 -0.146724000573 -25.4324226379  -16.4812507629 -0.062546402215999997 -25.59116745  -15.098801612899999 0.0146268000826 -25.572803497300001  -15.238160133399999 -0.13659930229200001 -25.5683364868  -14.9307479858 -0.15289489924899999 -25.558670043900001  -15.07604646685 -0.15345650166250002 -25.563217163099999  -14.813385963449999 -0.1786981523035 -25.559882164000001  -15.3927774429 -0.12771099805800001 -25.571819305399998  -14.0033464432 -0.20945610106000001 -25.544256210299999  -9.4502935409499997 -0.17345710098700001 -25.4895935059  -9.7412843704200007 -0.313685387373 -25.4882831573  -9.7533931732199992 -0.15354269743000001 -25.491983413700002  -18.814874649 -0.083280302584199994 -25.625020980799999  -18.8245611191 -0.27325860410949998 -25.624730110149997  -18.696707725549999 -0.062302150763550002 -25.62648773195  -9.6194686889650001 -0.19827084988400001 -25.488464355449999  -2.9976105689999999 -0.1228604018685 -25.442568778999998  -2.9452686309799998 -0.0153050003573 -25.447828292800001  -2.7748724222150001 -0.21691679954499998 -25.440025329599997  -9.538749217985 -0.0071167502319550002 -25.491994857800002  -18.4966373444 -0.104875996709 -25.624725341800001  -18.475826263399998 -0.26814109086999999 -25.620794296300001  -13.3861856461 -0.24837219715100001 -25.537208557100001  -13.079422314966665 -0.26668297251066669 -25.531646728499997  -13.3701057434 -0.41003429889699999 -25.534208297700001  -17.104860305799999 -0.026067400351200001 -25.603958129900001  -16.771600723300001 -0.209059596062 -25.597276687600001  -17.259468078600001 -0.0183668006212 -25.6098060608  -14.662369251249999 -0.49261994659899999 -25.5514678955  -14.1217212677 -0.52599430084200005 -25.544769287099999  -14.4482555389 -0.34445020556400002 -25.5504207611  -15.238160133399999 -0.13659930229200001 -25.5683364868  -15.14304113385 -0.30350120365599997 -25.563508033750001  -15.07604646685 -0.15345650166250002 -25.563217163099999  -12.86424970625 -0.11965695023550001 -25.532303810150001  -12.7723731995 -0.28569710254699998 -25.527448654200001  -12.65666770935 -0.1487132012845 -25.531298637350002  -21.17331027985 -0.28690789639949998 -25.632038116449998  -20.5664424896 -0.83459502458599999 -25.617914199800001  -20.901385307349997 -0.8865544497965 -25.616283416750001  -12.617394447300001 -0.296980291605 -25.528688430799999  -15.3927774429 -0.12771099805800001 -25.571819305399998  -15.375169754 -0.28979751467699999 -25.567834854099999  -3.2190389633200001 -0.10544089973 -25.439340591400001  -3.2127885818499999 -0.26411399245299999 -25.437322616599999  -3.3655288219499999 -0.096269100904499999 -25.4417419434  -0.94760010639800007 -0.10550549874730002 -25.458816528333333  -0.87815749645200003 -0.27869489789000002 -25.452442169200001  -1.1714100837700001 -0.103290103376 -25.4601745605  -13.630979537950001 -0.074593450874099992 -25.54820442195  -10.966170311000001 -0.079002797603600003 -25.511663436900001  -11.1071252823 -0.22776970267300001 -25.505443573000001  -10.8032827377 -0.24630190432099999 -25.500476837200001  -18.340242385900002 -0.113481402397 -25.620552063000002  -18.170463562000002 -0.12030280008899999 -25.620227813700001  -0.58781552314800001 -0.30036270618400002 -25.454412460299999  -0.591730713844 -0.14225980639499999 -25.4553432465  -0.736050784588 -0.13352079689499999 -25.4583911896  -0.73313498496999996 -0.28903830051399998 -25.452501297000001  -7.4335935115799998 -0.138650402427 -25.4603443146  -7.6460328102100004 -0.29842439293849998 -25.455313682549999  -7.7323060035699998 -0.120829399675 -25.466483116150002  -14.4827299118 -0.019713599234800001 -25.5563278198  -14.712531089799999 -0.0078810001723600004 -25.564408302300002  -22.082467397066665 -0.21597909430666665 -25.632693608600004  -22.623609542800001 -0.055739851202690004 -25.635888099699997  -22.308555602999999 -0.12803520262199999 -25.634283065799998  -9.2358183860800001 -0.027029550634350002 -25.489365577699999  -9.3015089035000003 -0.18011060357100001 -25.482280731199999  -22.660352706899999 -0.245622694492 -25.630643844600002  -2.2638826370249996 -0.17641314864149998 -25.445224762000002  -2.04737401009 -0.038483001291799997 -25.4561367035  -2.2670321464550001 -0.0223889499903 -25.455424308750001  -14.155079841599999 -0.202619194984 -25.5514316559  -24.105726242100001 -0.13633020222200001 -25.6320075989  -23.700529098499999 -0.36889070272449997 -25.626507759100001  -24.221798896750002 -0.48316903412349999 -25.622351646399999  -18.024364471399998 -0.13367210328599999 -25.617759704600001  -18.164314269999998 -0.037096500396699997 -25.620281219500001  -7.0798830985999999 -0.180544652045 -25.4528121948  -6.9195013046299998 -0.012921799905600001 -25.458013534500001  -6.9113574028000002 -0.17055030167099999 -25.451066970799999  -10.738140583050001 -0.093104451894750001 -25.5081319809  -10.649939537 -0.25745400786400002 -25.5015335083  -17.828193664600001 -0.467749506235 -25.605495452900001  -17.5552377701 -0.1757197529075 -25.608609199500002  -17.514644622799999 -0.48677259683599999 -25.6012001038  -17.4186439514 -0.00663679977879 -25.608249664300001  -17.399299621600001 -0.16937260329699999 -25.6036987305  -4.9051122665399998 -0.30070309340950002 -25.430279731749998  -4.6902995109600001 -0.15745529532399999 -25.4328937531  -4.5342988967900002 -0.32742279767999999 -25.431640625  -12.0013113022 -0.21265019476399999 -25.521422386200001  -12.111823558800001 -0.0066144500160649992 -25.526370048499999  -12.280298550933333 -0.13191966712466666 -25.524080276533336  -2.68037295341 -0.018686499446599999 -25.449813842800001  -2.5562295913649997 -0.15651324391350002 -25.446938514700001  -11.832499980950001 -0.18283069878800001 -25.518214225800001  -11.806320667249999 -0.025198200717550003 -25.521033287049999  -11.7164344788 -0.190367907286 -25.514932632400001  -7.5554852485650006 -0.60362356901149994 -25.4458808899  -7.415593624115 -0.45470325648800003 -25.448619842550002  -7.2581267356849999 -0.62059497833249999 -25.438938140849999  -2.4885647296900002 -0.00303400005214 -25.448722839399998  -10.510070800799999 -0.107532799244 -25.505239486699999  -19.571952819849997 -0.40923079848249999 -25.625667572049998  -19.409379959100001 -0.19910299778000001 -25.629535675  -19.9382820129 -0.092493802309000006 -25.6348114014  -20.028381347700002 -0.31152200698900001 -25.6301269531  -9.8920192718499997 -0.30484059453000001 -25.491437911999999  -20.654762268100001 -0.48317140340800002 -25.6267223358  -21.053314209 -0.118847101927 -25.6364631653  -20.812564849899999 -0.23787440359600001 -25.632915496799999  -11.115572929400001 -0.054484501481099998 -25.513149261500001  -11.271589279200001 -0.0590669997036 -25.514329910299999  -20.490159988400002 -0.2532282024625 -25.632498741150002  -8.3967008590700001 -0.238429293036 -25.4729232788  -8.2619891166649992 -0.13549285009504999 -25.472629547099999  -8.4073495864899996 -0.078826501965500007 -25.476972580000002  -10.386278152499999 -0.145363897085 -25.5009040833  -10.195993423499999 -0.28449639677999999 -25.492835998499999  -10.1315069199 -0.130407549441 -25.4983253479  -10.422699451450001 -0.271169900894 -25.497532844550001  -21.721984863300001 -0.486122995615 -25.625888824499999  -21.629735946699999 -0.24309170246100001 -25.632301330600001  -21.5395717621 -0.000666900014039 -25.6391563416  -24.549148559599999 -0.0257839001715 -25.6348838806  -23.124061584500001 -0.13145799934899999 -25.633563995399999  -7.0689129829399997 -0.0034405998885599998 -25.460098266599999  -13.3851671219 -0.080733750015500011 -25.540880203249998  -17.729827880849999 -0.6347639262675 -25.600419998150002  -15.528175354 -0.28247261047400002 -25.574113845799999  -15.9193415642 -0.2563780993225 -25.57538223265  -15.8601379395 -0.098316296935099995 -25.577306747400002  -16.0158081055 -0.088851101696499998 -25.579784393299999  -16.150588989300001 -0.244282394648 -25.582815170300002  -18.179054260299999 -0.76940080523450005 -25.604434967000003  -2.9926435947399996 -0.27937985956700001 -25.436768531799999  -2.7673857212100001 -0.45189881324800002 -25.432575225800001  -3.51310944557 -0.085282698273699997 -25.440793991100001  -3.6296831369399998 -0.10263900458825 -25.440343856799998  -3.4838662147499999 -0.031742498278599998 -25.443168640100001  -5.4241633415199999 -0.26550039649000001 -25.432668685900001  -5.1276798248300004 -0.285122692585 -25.430355072000001  -5.11293792725 -0.60055899620099995 -25.4216918945  -4.0260162353500002 -0.038676399737600002 -25.4397544861  -4.1034288406400004 -0.043608501553499997 -25.441377639799999  -4.2459464073199999 -0.18908159434800001 -25.4333515167  -14.981173197433334 -0.47534647583966666 -25.556525548299998  -14.9118442535 -0.31651040911700001 -25.557914733899999  -15.572427749599999 -0.052349299192400001 -25.575128555300001  -5.2961435318000003 -0.11686465144149999 -25.437276840199999  -5.5054795742050002 -0.10326739773140001 -25.4394893646  -13.140633583050001 -0.42321704328050003 -25.529199600250003  -14.24947547915 -0.035301849246049996 -25.555211067199998  -14.0033464432 -0.20945610106000001 -25.544256210299999  -7.7983183860800001 -0.273831993341 -25.460508346600001  -6.6783809661849993 -0.34390985965699999 -25.444784164449999  -7.2754633426700002 -0.30574613809600004 -25.45158958435  -3.8758640289299997 -0.21659780293700001 -25.4360141754  -4.8387775421099999 -0.146724000573 -25.4324226379  -4.3257749080700005 -0.027178100310249999 -25.44018363955  -4.5650870800050001 -0.018583599478 -25.439947128299998  -4.3942117691 -0.178071692586 -25.432310104399999  -0.73007422685599999 -0.44462761282899999 -25.447273254399999  -3.9554080963099998 -0.054488800466100003 -25.442062377900001  -5.8028182983400001 -0.083487898111350003 -25.441866874700001  -5.6476554870599998 -0.24950199574199999 -25.432054519650002  -4.5430474281300004 -0.16631039977100001 -25.429889678999999  -7.9470772743199998 -0.26591140031799998 -25.465326309200002  -8.3124675750750008 -0.40051969885850003 -25.46430778505  -9.0749826431250007 -0.19462480396050003 -25.479767799400001  -8.9153718948366674 -0.049221600095433332 -25.485239028933336  -6.77105951309 -0.0211302991956 -25.4535923004  -6.7628498077400003 -0.17899079620800001 -25.4471950531  -17.338304519699999 -0.65852212905899998 -25.595397949199999  -4.9873747825599999 -0.136003896594 -25.4319896698  -23.579580307000001 -0.017071699723599999 -25.636157989499999  -10.358137130699999 -0.117194898427 -25.503412246700002  -17.705583572400002 -0.14499130100000002 -25.608846664449999  -8.5312018394500004 -1.6408707499499999 -25.425250053399999  -8.7220964431749994 -1.5370130836975 -25.431301116949999  -8.8090152740449987 -1.9354003667850002 -25.418524742149998  -0.44605159759500002 -0.15449920296700001 -25.458814620999998  -6.3244156837499999 -0.048642199486499997 -25.445751190199999  -6.10018825531 -0.064378801733250002 -25.445550918599999  -6.4721026420600003 -0.041111201047900003 -25.451383590700001  -9.9043207168599992 -0.144575804472 -25.495040893599999  -17.475103378299998 -0.81089127063800004 -25.593481063799999  -14.813385963449999 -0.1786981523035 -25.559882164000001  -13.17183732985 -0.10033575072879999 -25.5362215042  -1.6087682247199999 -0.071016497910000004 -25.458318710299999  -1.679546415805 -0.21841494739049999 -25.446092605600001  -1.3908766508100001 -0.085143499076349993 -25.455505371050002  -16.157567977900001 -0.047181401401800001 -25.585748672499999  -17.868869781499999 -0.141775503755 -25.612701416  -11.49919462205 -0.046163750812399998 -25.520157814050002  -7.5661044120799996 -1.6953392028800001 -25.4068183899  -7.6492972373950003 -1.53542870283 -25.414093971250001  -7.2136461734750004 -1.40477889776 -25.411274910000003  -9.4605956077600002 -1.1173835992800001 -25.455095291100001  -9.7496070861799993 -1.25731396675 -25.454871177699999  -9.4711780548100002 -0.96027871966350009 -25.461559295649998  -20.190919876100001 -0.77744344870233328 -25.618613561  0.076217100024199999 0.049440298229500003 -25.4693756104  -0.0137275997549 -0.031852699816200002 -25.4678554535  0.12845210731000001 0.113797001541 -25.4729003906  -7.3536014556874996 -0.77711403369900001 -25.4344520569  -7.3892993926999999 -0.92584633827200002 -25.429545402549998  -6.877047538756667 -0.80104116598766673 -25.428603490166665  -7.992997964223334 -0.10523329923533332 -25.467434565233333  -1.8286035656949999 -0.053357301279950003 -25.454632759100001  -13.3535070419 -0.57195067405699995 -25.532289505000001  -25.058710098300001 -0.14482830464800001 -25.6311149597  -24.621973037699998 -0.25388419628100001 -25.6280536652  -7.4992365837100001 -0.29226359725000001 -25.4557533264  -11.5358219147 -0.52123951911900002 -25.5058727264  -11.590495300280001 -0.7864141106603999 -25.4974342346  -11.7641682625 -0.50742185115799998 -25.509450912449999  -8.4288339614866672 -0.90858773390433323 -25.448174158733334  -8.5668621063200003 -1.0921037495124999 -25.443795204175  -8.7318620681750012 -0.84706968069050004 -25.454464912399999  -8.3281917572000008 -1.3403143088033334 -25.431149164833332  -8.3925590515150006 -1.49276953936 -25.4274196625  -8.9033021926866667 -0.70649832487100006 -25.461323420199999  -8.6019721031149992 -0.54090735316249994 -25.464352607750001  -8.8395894368466674 -1.1018145481766666 -25.446802775066669  -23.031473159800001 -0.077051997184800006 -25.6346721649  -12.1594791412 -0.32398399710699999 -25.519731521600001  -12.479361534100001 -0.144949197769 -25.5296096802  -13.1841716766 -0.74227190017699995 -25.527181625400001  -13.695473671 -0.22794020175900001 -25.538888931300001  -13.941315650949999 -0.053586350753900003 -25.549161910999999  -14.9307479858 -0.15289489924899999 -25.558670043900001  -16.539196014399998 -0.221657946706 -25.590694427500001  -16.4812507629 -0.062546402215999997 -25.59116745  -16.302505493150001 -0.2813642024995 -25.58353710175  -16.638622283899998 -0.051915001124100003 -25.5915527344  -19.634254455600001 -0.71561551094099995 -25.618591308599999  -6.6208057403599998 -0.032192800193999997 -25.4544620514  -11.77800178525 -0.34719811379900001 -25.513698577850001  -11.117460250900001 -0.070627503097100003 -25.515933990499999  -6.0923776626550001 -0.22223585098949999 -25.439758300800001  3 0 2 1  3 3 5 4  3 6 2 7  3 8 10 9  3 13 11 12  3 11 14 12  3 16 15 17  3 18 20 19  3 20 18 21  3 22 11 13  3 23 24 25  3 27 26 28  3 26 27 29  3 31 11 30  3 13 32 33  3 4 34 3  3 36 35 37  3 39 40 38  3 42 41 34  3 35 36 43  3 41 3 34  3 45 34 44  3 42 34 45  3 46 44 47  3 49 50 48  3 50 51 48  3 54 53 52  3 17 15 55  3 57 56 58  3 59 60 61  3 52 62 54  3 11 31 14  3 63 62 52  3 64 13 65  3 68 66 67  3 69 71 70  3 72 74 73  3 75 76 77  3 76 57 77  3 59 78 60  3 78 59 79  3 69 80 71  3 81 72 73  3 0 67 82  3 11 22 30  3 83 0 84  3 0 83 67  3 42 30 41  3 87 85 86  3 65 88 64  3 89 90 39  3 90 89 91  3 44 34 5  3 34 4 5  3 31 30 62  3 92 32 13  3 33 3 22  3 38 93 39  3 95 96 94  3 98 97 99  3 5 47 44  3 100 101 102  3 103 104 105  3 106 107 108  3 107 109 108  3 109 110 108  3 111 113 112  3 112 113 114  3 13 115 92  3 93 116 46  3 117 118 119  3 40 39 90  3 22 13 33  3 120 121 122  3 123 16 124  3 127 125 126  3 129 130 128  3 49 131 50  3 133 21 132  3 21 134 132  3 135 137 136  3 136 137 138  3 30 54 62  3 103 139 104  3 57 76 56  3 6 141 140  3 141 142 140  3 118 143 119  3 126 79 144  3 147 146 145  3 133 148 21  3 37 90 91  3 27 45 44  3 151 149 150  3 153 152 154  3 154 152 142  3 127 126 155  3 157 116 156  3 124 158 123  3 79 126 125  3 159 160 161  3 163 162 81  3 9 164 165  3 86 51 50  3 0 1 84  3 166 157 167  3 168 169 170  3 171 172 173  3 65 13 12  3 36 174 43  3 175 100 102  3 176 109 99  3 109 98 99  3 41 30 22  3 177 178 111  3 146 147 179  3 180 99 97  3 181 180 97  3 145 19 147  3 159 182 183  3 184 105 10  3 59 61 79  3 95 94 139  3 80 69 185  3 186 155 126  3 130 187 128  3 95 122 96  3 189 188 190  3 191 192 193  3 194 195 196  3 145 197 19  3 13 64 115  3 142 198 154  3 199 138 200  3 79 61 144  3 150 202 201  3 202 150 117  3 77 203 75  3 73 74 204  3 205 154 206  3 208 207 107  3 95 103 122  3 130 209 187  3 153 205 210  3 185 69 138  3 84 1 2  3 194 77 57  3 12 211 65  3 191 212 192  3 179 213 146  3 160 165 214  3 215 170 188  3 36 216 174  3 174 216 217  3 216 210 217  3 217 210 174  3 154 205 153  3 151 150 201  3 26 29 167  3 179 128 218  3 37 91 89  3 149 151 195  3 75 203 186  3 73 219 81  3 220 70 71  3 204 74 221  3 221 74 148  3 148 204 221  3 210 205 206  3 137 188 189  3 25 24 220  3 81 219 163  3 114 222 81  3 70 220 24  3 218 213 179  3 27 168 223  3 170 169 188  3 159 161 182  3 37 224 36  3 168 27 28  3 225 222 114  3 222 225 113  3 113 225 114  3 224 37 89  3 188 137 135  3 21 18 226  3 226 18 19  3 61 131 227  3 227 131 49  3 228 138 199  3 86 50 87  3 153 210 216  3 212 101 192  3 229 176 230  3 228 185 138  3 194 196 77  3 117 119 231  3 157 26 167  3 71 80 232  3 143 158 233  3 119 143 233  3 234 10 235  3 134 21 226  3 24 23 236  3 192 100 193  3 105 237 103  3 238 119 233  3 195 58 149  3 38 156 116  3 116 157 239  3 157 166 239  3 236 23 240  3 95 139 103  3 65 211 88  3 223 170 215  3 128 179 129  3 41 22 3  3 143 123 158  3 81 162 114  3 185 232 80  3 133 204 148  3 241 113 111  3 38 116 93  3 242 173 208  3 208 173 207  3 242 208 171  3 173 242 171  3 107 106 208  3 15 243 55  3 209 130 243  3 226 19 197  3 186 126 75  3 231 202 117  3 131 61 60  3 110 109 229  3 106 108 208  3 178 244 111  3 109 176 229  3 175 102 245  3 17 124 16  3 138 137 200  3 246 245 183  3 247 176 99  3 248 99 180  3 180 181 248  3 100 192 101  3 249 159 183  3 188 169 190  3 202 151 201  3 250 209 243  3 250 243 15  3 111 251 241  3 168 170 223  3 57 58 195  3 195 194 57  3 233 158 238  3 249 183 252  3 191 181 97  3 97 212 191  3 235 164 234  3 165 159 253  3 165 253 9  3 160 159 165  3 237 105 184  3 9 10 234  3 164 9 234  3 184 10 8  3 120 254 121  3 254 255 121  3 103 120 122  3 246 175 245  3 214 161 160  3 111 244 251  3 257 256 172  3 177 257 178  3 257 177 256  3 252 183 245  3 258 176 247  3 171 257 172  3 176 258 230  3 2 6 84  3 259 142 141  3 260 261 66  3 142 259 198  3 7 141 6  3 260 262 263  3 87 264 85  3 85 264 260  3 262 260 264  3 263 261 260  3 261 265 66  3 66 265 67  3 67 265 82  3 82 265 0  3 60 78 266  3 266 131 60  3 267 268 269  3 271 270 272  3 269 273 267  3 274 275 276  3 267 273 277  3 278 279 271  3 280 281 282  3 285 283 284  3 286 288 287  3 290 289 291  3 292 294 293  3 295 296 297  3 281 293 298  3 299 289 300  3 303 301 302  3 306 304 305  3 307 280 282  3 310 309 308  3 278 311 312  3 312 279 278  3 314 313 315  3 315 313 316  3 278 271 272  3 318 319 317  3 320 288 321  3 322 323 324  3 325 326 277  3 322 327 323  3 328 330 329  3 288 331 287  3 332 333 334  3 335 312 336  3 337 338 339  3 340 341 310  3 344 342 343  3 346 345 285  3 347 348 349  3 350 352 351  3 293 294 298  3 313 305 316  3 275 353 276  3 276 353 354  3 355 356 357  3 358 359 360  3 328 354 361  3 362 341 340  3 363 364 271  3 363 366 365  3 269 268 367  3 346 285 343  3 368 369 370  3 309 372 371  3 315 305 304  3 373 368 370  3 277 273 269  3 374 376 375  3 343 285 344  3 377 379 378  3 362 380 341  3 381 382 383  3 334 384 332  3 327 385 323  3 386 338 337  3 307 387 280  3 343 345 346  3 342 344 388  3 389 390 391  3 392 390 393  3 394 312 335  3 292 293 281  3 302 395 396  3 356 355 350  3 397 398 399  3 274 276 395  3 400 401 402  3 274 395 302  3 403 405 404  3 321 288 286  3 406 290 407  3 391 408 389  3 389 299 300  3 409 400 410  3 411 281 298  3 413 331 412  3 414 319 318  3 380 362 377  3 337 415 416  3 417 398 302  3 347 418 348  3 381 322 382  3 405 419 404  3 420 419 421  3 305 313 422  3 417 423 398  3 396 395 276  3 361 354 353  3 276 354 396  3 369 295 383  3 410 425 424  3 426 420 421  3 428 374 427  3 397 399 303  3 325 430 429  3 270 271 364  3 431 432 339  3 315 316 305  3 416 317 386  3 344 285 433  3 418 347 434  3 435 385 333  3 377 362 436  3 345 343 437  3 440 439 438  3 388 335 342  3 314 441 313  3 347 401 434  3 442 443 444  3 445 367 379  3 302 398 303  3 388 446 335  3 447 286 407  3 280 448 281  3 449 451 450  3 449 306 451  3 383 295 381  3 368 296 295  3 391 390 392  3 452 392 393  3 445 269 367  3 447 407 291  3 343 335 453  3 355 357 454  3 453 437 343  3 455 456 457  3 459 460 458  3 446 394 335  3 394 279 312  3 373 461 296  3 433 388 344  3 342 335 343  3 463 464 462  3 302 301 274  3 446 388 433  3 305 422 306  3 368 295 369  3 465 467 466  3 377 436 379  3 356 454 357  3 427 375 468  3 319 427 468  3 374 375 427  3 447 321 286  3 281 448 292  3 303 399 301  3 416 386 337  3 397 303 398  3 449 450 469  3 282 281 470  3 461 373 366  3 296 368 373  3 365 364 363  3 471 384 472  3 406 407 286  3 358 473 359  3 416 359 473  3 475 476 474  3 477 478 479  3 481 478 480  3 317 416 473  3 483 479 482  3 478 484 479  3 385 485 323  3 333 332 435  3 320 412 288  3 486 352 350  3 288 412 331  3 486 487 352  3 289 290 300  3 300 290 389  3 470 411 488  3 489 490 307  3 406 389 290  3 447 291 491  3 290 291 407  3 488 411 298  3 350 351 356  3 299 389 408  3 282 470 307  3 281 411 470  3 492 493 494  3 494 452 393  3 494 493 452  3 294 487 298  3 495 493 492  3 284 495 492  3 496 366 363  3 311 336 312  3 401 400 409  3 497 444 415  3 349 419 420  3 350 355 498  3 498 355 454  3 371 372 499  3 340 310 308  3 309 371 308  3 337 339 415  3 402 347 349  3 401 347 402  3 497 415 339  3 431 339 338  3 497 432 431  3 497 339 432  3 403 404 423  3 500 444 443  3 444 500 415  
