ply
format ascii 1.0
comment bbox 2.995027  34.513950 -4.955447  15.566384 -25.113176  -0.889800 
element vertex 380
property double x
property double y
property double z
element face 358
property list uchar int vertex_index
end_header
5.6686851978300004 15.18140411375 -14.860286712650002  5.4380865097050002 15.3104248047 -14.787470340700001  5.5811214447033324 15.162730216966667 -14.759671529133334  8.9529170990000004 4.0601325035099993 -7.8888990879050001  9.2294960021999994 3.9752945899999999 -7.9541864395099999  9.0881524085999992 3.923944830895 -7.8466110229500003  9.1147232055699998 4.1188445091199997 -8.0138063430800006  4.5123093128200003 0.59979209303850001 -3.411721944805  4.7598676681500001 0.64075672626500002 -3.4871799945799999  4.6735405921900002 0.701775372028 -3.4426581859600001  5.1832398176200005 15.087191104875 -14.406877040875001  5.2973529497766663 15.0379625956 -14.447907129966666  5.4611365795099998 15.072947740575 -14.595185041450002  4.4747080802900001 15.11759471895 -14.096678257000001  4.4038643837000002 15.249581337 -14.177855491600001  4.8713331222500003 15.1933498383 -14.309594154399999  24.889957427999999 0.089410200715100002 -8.2462005615200002  24.940324783299999 0.17192989587800001 -8.3917016983000003  25.012722015400001 0.13016310334200001 -8.3286371231099992  8.5402164459224998 4.0809273719775003 -7.7236319780350007  8.7665548324599989 4.0631150007250003 -7.807119131084999  8.9080622990933325 4.214424133303333 -8.0102047920233321  5.4598560333300004 15.4287929535 -14.9728441238  5.3117647171 15.454476356500001 -14.8671302795  5.6108191808066676 15.352425575233333 -15.008763313333333  9.713417053223333 4.4734622637466677 -8.6909462610899997  9.7469161351533344 4.6122897466033335 -8.8530213038133336  9.5366406440749998 4.4455716609950002 -8.56374168396  24.737194061266663 0.58016854524633332 -11.817996342999999  24.932428359999999 0.47523429989799998 -11.836964607200001  24.688742637600001 0.445581808686 -12.070081710850001  24.600591659533336 0.88320064544666665 -11.182537078833334  24.771647135400002 0.78446332613600001 -11.3040383657  24.769052505499999 0.83818694949149997 -11.1063661575  21.0147323608 8.1396141052199997 -22.5570716858  21.105312347400002 8.00807189941 -22.415416717500001  20.9529418945 8.1482677459699993 -22.431165695200001  5.2171881198900003 15.4189887047 -14.7509651184  5.0427880287200004 15.566384315500001 -14.8176641464  5.2581825256366672 15.259822209699999 -14.609280904133334  5.0504231452949995 15.369225025150001 -14.588691234600001  3.0302189588550004 1.298698067665 -2.9564247131350001  3.14646339417 1.0991101265000001 -2.97085380554  2.9950274229049998 1.09362763166 -2.9176738262199997  6.9676983356450002 1.1133573651300002 -4.567361831665  6.94821834564 0.92508211731900003 -4.4600138664249993  6.8595700264000001 0.99405974149500009 -4.4424932002999995  7.119545698165 0.92479825019799999 -4.5614326000199998  4.8104448318450004 1.0597018003500001 -3.5392389297499998  4.6560406684866669 0.88234583536800004 -3.4534043471033331  4.8870096206699998 0.79922378063199995 -3.5491313934300002  4.7697474956499999 1.20458650589 -3.56600916386  4.7320095698066673 1.3608808914833332 -3.6633394559199997  4.9703397750900002 1.2809295654299999 -3.7082846164699999  4.8835711479199997 1.4028449058549999 -3.7695806026450001  24.902091980000002 0.078638203442099999 -8.2257595062300002  24.8396720886 0.058681201189799997 -8.1924381256099998  23.407436370799999 0.49373671412499998 -8.5411367416400008  23.491366958619999 0.39336001276979998 -8.4072784423819993  23.666175365449998 0.46639612317125001 -8.5474319457999997  5.1988446712450003 14.95371341705 -14.323111057249999  4.9799874623600004 15.054738362633332 -14.262345949833332  4.8745956420900001 14.9565553665 -14.1429243088  6.9886326789900002 15.038352012600001 -16.199968338000001  6.7844529151900002 15.178505897499999 -16.102666854900001  6.8862562179550002 15.17312192915 -16.219535827599998  6.7263979911799998 15.289025306699999 -16.203924179099999  5.421334028245 15.47263240815 -15.006318569199999  5.7741208076500001 15.375157038366666 -15.239569664033333  6.9975054264100001 15.18632507325 -16.38726139065  6.7604660987900003 15.3294963837 -16.325098037699998  6.9580960273699999 15.2988643646 -16.5547218323  4.6096798181525003 14.977037906650001 -14.0414569378  4.3801785707500001 14.989553928375001 -13.96389722825  23.643772125200002 5.1580328941299998 -22.119380950899998  23.832656860349999 5.01996970177 -22.173190116900003  23.964698791499998 4.8392210006699994 -22.090353965750001  7.0967906316099993 15.040948549933333 -16.344170888266664  4.806762456895 15.001749515549999 -14.140712738049999  5.77066874504 15.2178025246 -15.007696628600002  5.8953690528900005 15.240392208100001 -15.181009292600001  4.9920907020599996 15.224030494699999 -14.405145645099999  4.1236336231199999 15.544130802150001 -14.3118839264  24.841594696000001 0.79676938056900004 -11.1444540024  24.933948516850002 0.698688238859 -11.379113197300001  25.026069641100001 0.68694621324500005 -11.2915725708  23.277558008833335 0.43920282522833337 -8.4413045247399996  21.071912765499999 8.1050243377700006 -22.668119430499999  21.181558609 8.0030393600499998 -22.691297531099998  21.166309356700001 7.9963550567599997 -22.539634704600001  24.890237808199998 0.058219898492099999 -12.413391113299999  25.0270519257 0.054693400859799998 -12.3278141022  25.1522302628 -0.069797750562449995 -12.37503957745  21.216820716850002 7.9580528736149994 -23.2358188629  21.127248764000001 8.0603971481300007 -22.7732830048  21.110569953949998 8.0692439079299998 -23.039679527300002  24.287877082850002 0.38138370215899997 -21.461399078349999  24.439919471750002 0.71619352698350003 -21.462339401249999  24.460975647000001 0.32722720503800001 -21.464685440099998  20.978324890100001 8.0455379486100007 -22.275516509999999  21.037704467800001 7.9819321632399998 -22.269477844200001  25.034814834599999 0.0078229997307100001 -8.1305704116800008  24.017305374100001 4.8366971015900004 -22.2033920288  23.917497634899998 5.0028653144800002 -22.360515594500001  9.4349250793500001 4.2241959571849996 -8.29169082642  8.7122168540950007 3.9293813705450003 -7.6716954708100005  9.0377063751200009 3.7810921669000002 -7.7135515213000003  24.493624687200001 0.55102911591550008 -12.051618099200001  24.571170806849999 0.63552629947650008 -11.8522014618  23.893266677900002 4.7459154128999996 -21.892099380499999  24.034141540499999 4.6429629325899997 -21.940881729099999  24.421564102199998 0.16969270010766668 -12.565597534166665  24.6964435577 0.180260196328 -12.406173706100001  24.684613227850001 0.057424901053349998 -12.5377049446  24.873451232899999 0.56603872775999997 -11.7250423431  24.9501972198 0.63416349887800005 -11.513890266400001  25.039028167700003 0.50349979102599995 -11.685930252049999  24.966088294949998 0.755478322506 -11.153135776500001  24.924282073999997 0.812034010887 -10.98036623  24.526301383949999 0.84077271819099997 -9.9934902191250004  24.7309252421 0.79665686686799997 -10.038689931233334  24.685314178500001 0.77836549282099998 -9.9142341613799996  24.80452537535 0.233137756586 -12.27228975295  24.610170364349997 0.34740979969499997 -12.259876728049999  24.883473396300001 0.33579295873600001 -12.085567951200002  24.356582641599999 0.55210113525399995 -12.135622501349999  24.375194549550002 0.73259535431849998 -11.827846050249999  23.860496520974998 0.41387458145625 -8.5112917423249996  23.912815093999999 0.30498048663100003 -8.3744421005199996  24.0894504547 0.37897407412540002 -8.5227777481080018  24.977043151899998 0.82140642404599995 -10.771473884600001  25.039659500100001 0.78022778034200002 -10.9200649261  24.6487178802 0.086913399398300006 -8.2277297973600003  24.7837352753 0.017675299197400001 -8.1306638717700004  24.5273780823 0.023011999204800002 -8.1347150802599995  24.562485694899998 0.10945995152 -8.248754501345001  24.990936279300001 0.37834709882700002 -11.944583892800001  24.436676661166668 0.32425342996900003 -12.384038925133332  24.27773189545 0.44908054172949996 -12.322216510800001  24.360955238350002 0.13994590193049999 -8.2537031173700015  24.281482696499999 0.043322298675800001 -8.1258745193500008  24.4814109802 0.75912737846400002 -11.6754407883  24.19813251495 0.33646009862399995 -12.5022587776  24.7540416718 0.73000049591100002 -11.4884462357  24.8139686584 0.65056848526 -11.608619689899999  23.850170135500001 0.52722209691999999 -8.6866149902350003  24.636360168500001 0.33934989571599999 -21.462770462000002  24.084364573133332 0.24542313317433331 -8.3350400924700008  25.049085617100001 0.27672559022900001 -12.0488710403  25.156166076650003 0.31248261034500002 -11.90324926375  25.091178894033334 0.79090758164700004 -10.650773366266668  25.1381216049 0.75946259498599999 -10.812534809100001  24.978452682499999 3.9360682964299998 -24.935663223300001  24.953603744500001 3.9358081817600001 -25.0714244843  24.898178100599999 4.1487541198700004 -25.113176345799999  24.919883727999999 4.1515455246000004 -24.977993011500001  24.969942092899998 0.17183910310299999 -12.2340946198  8.7492561340333328 3.7662500540399999 -7.5714241663599999  25.179462432866668 0.64079636335366674 -11.241775194799999  25.115953445400002 0.57187268137949998 -11.474924564349999  25.119962692249999 0.72937959432599997 -11.02928161625  25.106740951500001 0.16790470480899999 -12.148221015900001  28.486818313600001 -0.81023579835899995 -7.4082832336399997  28.361862182599999 -0.74817949533500006 -7.5021662712100001  28.544960022000001 -0.78753662109400002 -7.5423107147200001  25.176498413099999 -0.050853800028600002 -8.0254497528099993  25.062669754000002 -0.10711880028200001 -7.9263887405400002  25.026092529300001 -0.0178500991315 -8.0790271759000003  31.326622009299999 -2.0131714343999998 -6.9656949043300003  31.1593093872 -1.91185414791 -7.2143111228899999  31.161449432400001 -1.9285281896599999 -6.8975949287400002  28.141231536900001 -0.37703540921200002 -9.4883880615200002  28.1894397736 -0.40002039074899998 -9.3855981826800008  28.021997451800001 -0.32129549980200001 -9.5398111343400007  26.449309825900002 -0.13804734870800001 -8.0308166742325007  26.2823219299 -0.16865390539200001 -7.9419102668799999  26.022048950199999 -0.032959401607500001 -8.1319169998199996  27.450622558599999 -0.093676097691099997 -10.1114940643  27.390461921700002 -0.059710249304799998 -9.9875826835800012  27.116809844999999 0.050884298980199999 -10.2035732269  30.722675323499999 -1.68841195107 -7.6373448371899997  30.755118370049999 -1.7071243524549999 -7.8062779903399999  30.8497524261 -1.7524509429899999 -7.7239542007399997  27.874370575 -0.26283070445099999 -9.4302949905400002  27.821166356433334 -0.23897343377266667 -9.6736408869433337  27.335515976 -0.038595698773899997 -9.85751819611  28.0187492371 -0.32847641408450001 -9.7663359641999996  27.744356155399998 -0.22302199900149999 -9.997544288644999  27.681640625 -0.18301327526549999 -9.8249907493575002  28.173621495566664 -0.42583803335833331 -9.8460582097366665  28.179250717150001 -0.46346960961850003 -10.031696796399999  27.925418853733333 -0.30203263958299997 -9.9016771316499987  27.858903884900002 -0.30340644717249998 -10.1033391953  27.636777877824997 -0.18358734622599998 -10.092201471340001  27.513626098650001 -0.1487208008765 -9.3495497703550008  27.829725901266666 -0.27380056182533336 -9.250740687053332  28.40413951875 -0.51825526356699991 -9.6428871154800007  28.338407516499998 -0.47714149951899998 -9.5124559402499997  28.485231399550003 -0.54761517047899999 -9.3664016723650008  29.636064529399999 -1.3934825658800001 -6.7439179420500004  29.549950599700001 -1.40738093853 -6.6443870067600006  29.707969665500002 -1.4616048336033334 -6.6203660964966673  27.161762237533335 -0.23673360049733336 -8.2317549387633324  27.0399665833 -0.18131290376199999 -8.3220520019500004  27.102449417100001 -0.16113789379599999 -8.5228996276900002  28.238171577499998 -0.44500695168999999 -9.1592845916750001  28.424923578899996 -0.52230413754766669 -9.2049194971699979  28.297483444249998 -0.45579235255700001 -9.3216385841400005  28.110301971399998 -0.36410579085400002 -9.6521806716899992  28.003335952800001 -0.324603497982 -9.3300447464000005  30.62119007115 -1.642874896525 -7.926112651825  32.621109008799998 -3.0327961444899998 -5.0979547500600004  32.560916900659997 -3.057309770586 -4.9105904579139992  32.592967987100003 -3.1120448112500001 -4.7614703178399997  30.863185882549999 -1.771062612535 -7.9246077537549997  30.817283630399999 -1.7648011446 -8.1531391143800001  30.9123287201 -1.8135090470299999 -8.083214759825001  32.7759838104 -3.1122537851300001 -5.1656634807550006  32.884021758999999 -3.18549132347 -5.0926666259799998  31.377935409500001 -2.0719025135 -6.7390918731699996  31.4012374878 -2.0880525112199999 -6.7224631309499996  31.39076423645 -2.0520780086499997 -7.2563235759750002  31.3063144684 -1.9985909462 -7.0637545585600003  31.482824325599999 -2.1119589805599999 -7.0450506210299997  30.576620737699997 -1.8239306211499999 -6.3463899294533332  30.766794204699998 -1.8625639080999998 -6.4138243198399998  30.865605036433333 -1.9472059011466667 -6.2532920837399999  30.9690628052 -1.8130176067349999 -7.3178768158  30.840345382700001 -1.7531374692949999 -7.3207376003249998  30.9889068604 -1.8550843000399999 -6.8384056091299996  30.972160339399998 -1.8181219100949999 -7.2052574157700002  34.235334396349998 -4.2939717769649999 -6.1119716167450004  34.400566101099997 -4.5493869781500003 -6.08591032028  34.273477554300001 -4.4930002689399995 -6.352536201475  31.082897186299999 -1.9300266504300001 -6.5997281074499998  31.20640659335 -1.9808049798049998 -6.6871483325950001  30.751993179300001 -1.96269464493 -6.0997223854099998  32.976734161400003 -3.2267146110499998 -5.1816239357000002  33.035520553599994 -3.2951461076749999 -4.9850506782549999  30.939838409433332 -1.9213332732500001 -6.4286712010733327  26.8554096222 -0.099299296736700002 -8.4533462524399994  26.9884643555 -0.159649804235 -8.3524360656700001  26.2180156708 -0.17495299875699999 -7.9212317466700002  26.386395454400002 -0.23194605112049999 -7.8507845401750007  26.542294502299999 -0.30702903866749998 -7.75240969658  26.609607060766667 -0.25466979046666666 -7.8562078475933346  28.229780197099998 -0.75776737928399995 -7.3891940116899999  30.785725593549998 -1.7419336438199999 -7.1539947986599994  31.1518764496 -1.9061770439100001 -7.2922902107200001  30.551971435566667 -1.6294441223133334 -8.2470146814966672  30.707665761333335 -1.6932142972933333 -8.0496006011966657  30.967636108400001 -1.8117694854699999 -7.63205575943  31.051302909850001 -1.8537409305599999 -7.4539124965649997  31.084540049233336 -1.9015777905766666 -7.9399929046633337  31.141328811649998 -1.904214799405 -7.4979271888749999  31.35971546175 -2.0552786588650003 -7.6936140060399998  25.163961410500001 0.052415698766699999 -12.243059158299999  25.1522302628 -0.069797750562449995 -12.37503957745  25.0270519257 0.054693400859799998 -12.3278141022  30.7604751587 -1.80717849731 -6.6004343032800001  30.514984130866665 -1.5929501454033332 -7.6035691897066675  30.273427963300001 -1.50809061527 -7.3915486335800002  31.265441894533335 -1.9765279690433335 -7.424652894336667  31.465776443500001 -2.1038274764999998 -7.4505014419600002  30.994613647449999 -1.8369861841200001 -7.8089666366550006  31.100105285600002 -1.88491630554 -7.1374917030300002  31.2603163719 -2.0375107526749998 -8.0267885923374998  34.2796707153 -4.2346625328099998 -5.8136100768999999  34.304649353000002 -4.3226709365799998 -5.95011377335  34.194953918499998 -4.1347289085399996 -5.8654537200899997  32.734680175800001 -3.0561153888699999 -5.3842287063600001  30.939710617100001 -2.01174426079 -6.1410198211699996  31.053793907149998 -2.0101499557499998 -6.277780532835  31.084192276 -1.9869735240899999 -6.3961386680599999  33.242298126199998 -3.4176847934699999 -5.0211081504799999  33.1421813965 -3.3440418243400001 -5.0921640396100001  33.353660583500002 -3.4446196556099999 -5.3083758354199997  33.298091888400002 -3.4309105873100001 -5.1645250320400002  26.6464977264 -0.048293098807299997 -8.4181642532299996  26.558496475199998 -0.00181120005436 -8.5264625549299993  28.10897541045 -0.72457465529450005 -7.4156136512750006  27.91195201875 -0.67722213268249998 -7.44156718254  26.614662170399999 -0.14798529446100001 -8.0616245269799993  26.288093566899999 -0.036820501089099997 -8.2128343582200003  30.6229991913 -3.2584607601200002 -3.04128861427  30.623262405399998 -3.1152606010400001 -3.2018151283299998  30.5074272156 -3.19953656197 -3.1229639053299998  30.683366775500001 -3.1792776584600002 -3.1236655712100001  30.4277935028 -3.277233839035 -3.06949007511  33.983386993400003 -3.8940823078200002 -5.8057031631499996  34.078397750850002 -3.9947261810299999 -5.7691504955300008  34.091875076299999 -4.0268633365650004 -5.9140770435350003  25.4508686066 0.19375079870199999 -21.3054580688  25.198181152299998 -0.053597901016499999 -21.3197193146  25.190364837600001 0.2270296067 -21.374534606899999  34.185436248800002 -4.4504013061499998 -6.5109691619900003  34.411851882950003 -4.7346086502049998 -6.378177165985  34.085342407200002 -4.7423558235199996 -1.0794336795799999  34.101454734800001 -4.8517807722100006 -0.9203521609305001  33.902786254900001 -4.8586335182199996 -0.88980031013500005  33.8671283722 -4.7641894817350003 -1.033935308455  31.334396362299998 -2.0744112730049999 -6.5628671646100001  30.022956848149999 -1.4306121468550002 -7.1724770069100003  29.943693160999999 -1.43345828851 -6.9718848864233331  30.1674427986 -1.5124725699449999 -7.0193662643425005  28.385784149199999 -0.83174079656599997 -7.2829413413999999  26.697694778399999 -0.067975699901600004 -8.3915529251100001  26.149324417100001 0.040438700467299998 -8.3566045761099996  26.118173599199999 0.0029132999479799999 -8.2465438842799994  34.137405395499997 -4.2437038421600004 -6.2687978744499997  29.815645853666666 -1.3652880589166667 -7.0813481012999988  29.889942169199998 -1.4999307096025001 -6.6609804630274994  29.727497100833332 -1.3722568353 -6.8977611859633328  26.9142932892 -0.168042600155 -8.2154207229599994  27.1421833038 -0.0029362998902800002 -10.435865402199999  27.1760349274 -0.00035799999022899999 -10.345335006699999  27.329536437949997 -0.076656950637799995 -10.340991497049998  26.172489166249999 -0.23728135228200001 -7.81076550484  34.5139503479 -4.9554465611766672 -6.4547284444199997  26.625962273154769 -0.118297912984587 -24.21217710922992  25.939823150666669 1.2454824447633335 -24.241315841666665  25.842494010900001 1.487531244755 -24.230050087000002  25.921175003050003 1.4652559757249999 -23.959078788749999  26.6331501007 -0.111095800996 -8.1725301742600003  28.790992736850001 -0.92196720838549995 -7.3734230995149996  26.4335231781 -0.00129459996242 -8.3865089416499998  26.897505760199998 -0.31945372372850001 -7.8223052024825002  28.666337013250001 -0.6565442979335 -9.4135169982899995  28.908538818349999 -0.80295678973200002 -9.4101619720449996  25.946174621600001 -0.0100883003324 -8.1599702835100008  26.701673507700001 -0.122812397778 -8.1845979690600004  27.509376525899999 -0.14912609756 -10.2503709793  28.567553838133335 -0.88330837090766667 -7.2821896870933331  33.397750854500003 -3.5047543048900001 -5.0937104225200001  33.341987609900002 -3.4915308952299999 -4.9504861831699998  28.087480544999998 -0.67616242170300001 -7.5370354652399998  30.387075424199999 -3.1476244926499999 -3.2098557949100002  28.045817375150001 -0.370806142688 -9.1104083061200001  27.678722381566661 -0.22962289551899998 -9.2021077473933346  27.411674499499998 -0.13826610147999999 -9.1989908218400007  28.66230297085 -0.80212444066999999 -7.7081224918350006  28.476312001533334 -0.74068484703699999 -7.7003162701933334  28.370759964000001 -0.51521545648550005 -9.0409603118849997  28.488673210150001 -0.58530136942849997 -8.8797068595899997  28.6273021698 -0.65062600374199997 -8.8517007827800001  28.920919799799996 -0.81710243225099999 -8.5077522277820012  28.862362861625002 -0.76449014246474989 -8.7978229522699998  28.10927009585 -0.38384075462799999 -9.2098278999299996  27.876997629800002 -0.31486269831666663 -9.1045885086033334  25.1400108337 -0.19979749620000001 -12.5019235611  25.127400398300001 -0.33598175644849998 -12.6248598099  25.002901077299999 -0.19983179867299999 -12.585165977500001  25.403785705600001 0.0619419999421 -8.2221193313600001  25.150552749599999 0.066244699060899997 -8.2274208068799997  27.313205718999999 -0.046992700546999999 -10.2285070419  25.033206939700001 0.111661702394 -21.390594482400001  28.6165466309 -0.61845928430550001 -9.2500824928299998  28.810113906875003 -0.72857245802899995 -9.2506659030899989  29.464999198900003 -1.0874658823000001 -9.0248346328749989  29.6380672455 -1.1654274463700001 -8.6742944717399997  29.682317733800001 -1.1988999843599999 -8.8438148498500002  29.938749949133335 -1.32992974917 -8.6738255818700001  25.034814834599999 0.0078229997307100001 -8.1305704116800008  25.0922889709 0.010588100180000001 -8.13676071167  25.7310600281 -0.0324647016823 -8.0990829467799994  25.857398986825004 -0.12346837669614999 -7.9625821113575004  29.706003189050001 -1.2298887968050001 -9.0227012634249988  29.476160049400001 -1.1172497272499999 -9.2130479812600008  29.880978902166671 -1.3157510757433333 -8.8809687296566668  31.508829116800001 -2.1298534870100001 -7.0676450729400004  33.840812683099998 -3.7837355136899999 -5.71632671356  33.940395355200003 -3.8560090064999999 -5.6440830230700003  33.795795440699997 -3.7497746944400001 -5.55768632889  26.805486679099999 0.80199062824199996 -21.519268035900001  26.3960399628 1.33751475811 -22.277551651  26.163310050949999 1.1787917017949998 -23.497664451599999  26.105808258100001 1.1944704055799999 -23.699258804300001  26.456694925147154 0.60584269453562922 -23.379214082095434  25.4238529205 -0.062015999108599999 -8.0270395278900004  25.693929672199999 0.035787798464299997 -8.2178087234500001  3 2 0 1  3 4 3 5  3 3 4 6  3 9 7 8  3 10 11 12  3 13 15 14  3 17 16 18  3 19 20 21  3 22 23 24  3 23 1 24  3 25 26 27  3 28 29 30  3 31 33 32  3 34 36 35  3 23 38 37  3 39 10 12  3 40 39 37  3 42 41 43  3 45 44 46  3 47 44 45  3 0 24 1  3 48 49 9  3 9 50 48  3 51 53 52  3 53 54 52  3 16 56 55  3 57 58 59  3 60 61 62  3 64 63 65  3 65 66 64  3 68 67 24  3 67 22 24  3 66 69 70  3 65 69 66  3 71 70 69  3 13 73 72  3 75 74 76  3 65 63 77  3 77 69 65  3 15 78 61  3 67 23 22  3 24 79 80  3 62 78 72  3 61 60 10  3 10 60 11  3 1 23 37  3 12 2 39  3 39 2 1  3 1 37 39  3 10 15 61  3 15 10 81  3 15 82 14  3 62 61 78  3 82 13 14  3 72 78 15  3 72 15 13  3 84 83 85  3 57 86 58  3 87 89 88  3 90 91 92  3 93 95 94  3 35 89 34  3 89 87 34  3 97 96 98  3 99 100 35  3 87 88 94  3 101 55 56  3 102 103 75  3 20 3 6  3 6 21 20  3 104 27 6  3 106 5 105  3 5 3 105  3 32 83 84  3 107 108 30  3 108 28 30  3 32 33 83  3 75 76 102  3 76 109 110  3 112 113 111  3 114 115 116  3 117 85 83  3 90 113 112  3 83 118 117  3 121 120 119  3 122 123 30  3 30 124 122  3 126 107 125  3 58 127 59  3 127 128 129  3 131 118 130  3 56 132 133  3 135 134 132  3 114 29 28  3 124 29 136  3 29 124 30  3 137 138 125  3 29 114 116  3 139 140 134  3 126 141 108  3 123 107 30  3 137 111 142  3 112 111 137  3 137 123 112  3 142 138 137  3 123 122 112  3 108 107 126  3 144 143 115  3 28 144 114  3 59 127 145  3 56 133 101  3 146 97 98  3 129 128 147  3 3 20 105  3 148 136 149  3 81 10 39  3 114 144 115  3 24 0 79  3 130 150 151  3 152 153 154  3 154 155 152  3 91 90 156  3 124 136 148  3 105 157 106  3 19 105 20  3 81 39 40  3 130 151 131  3 117 158 85  3 116 115 159  3 117 160 158  3 156 148 161  3 161 91 156  3 162 164 163  3 166 165 167  3 170 168 169  3 172 171 173  3 175 174 176  3 177 179 178  3 180 182 181  3 183 184 185  3 186 187 177  3 177 188 186  3 189 190 191  3 187 191 192  3 187 193 177  3 183 194 195  3 198 196 197  3 199 200 201  3 202 204 203  3 172 205 206  3 206 207 172  3 173 208 186  3 172 183 209  3 181 210 180  3 211 212 213  3 214 216 215  3 218 217 211  3 219 220 168  3 223 221 222  3 224 226 225  3 227 180 228  3 229 170 230  3 231 232 233  3 234 235 170  3 236 226 224  3 238 237 218  3 225 226 239  3 204 240 241  3 176 242 175  3 175 243 174  3 244 245 243  3 162 163 246  3 229 234 170  3 229 230 247  3 169 222 248  3 249 250 215  3 251 180 252  3 255 253 254  3 252 254 251  3 248 227 169  3 169 227 230  3 257 258 256  3 234 259 239  3 250 181 182  3 182 214 250  3 260 261 247  3 260 247 228  3 263 262 221  3 254 253 264  3 221 262 222  3 262 248 222  3 254 264 251  3 265 169 230  3 266 253 255  3 263 255 262  3 262 255 254  3 267 268 269  3 265 170 169  3 168 223 222  3 168 222 169  3 235 219 168  3 265 230 170  3 234 229 259  3 270 218 237  3 218 270 217  3 248 254 252  3 226 236 271  3 225 239 259  3 272 273 239  3 248 252 227  3 217 270 211  3 238 274 275  3 237 238 275  3 270 237 276  3 275 277 237  3 277 276 237  3 278 240 279  3 246 280 281  3 282 283 174  3 284 285 286  3 287 285 284  3 286 288 284  3 290 269 289  3 269 291 289  3 292 294 293  3 295 233 296  3 298 297 299  3 299 297 300  3 219 235 301  3 245 282 174  3 302 303 304  3 305 246 281  3 204 241 203  3 278 306 240  3 308 283 307  3 291 231 309  3 303 302 310  3 311 312 199  3 202 203 313  3 272 239 226  3 196 186 208  3 314 315 316  3 242 317 243  3 243 175 242  3 295 296 318  3 296 233 232  3 319 320 321  3 321 322 319  3 282 323 283  3 164 162 324  3 313 306 325  3 291 269 231  3 326 282 245  3 313 203 241  3 311 199 201  3 306 313 240  3 306 278 325  3 271 272 226  3 232 231 268  3 268 231 269  3 327 328 196  3 187 186 191  3 176 308 329  3 325 330 313  3 331 177 193  3 174 243 245  3 323 307 283  3 332 162 305  3 333 274 334  3 163 335 246  3 286 336 288  3 325 323 330  3 330 323 282  3 274 333 277  3 246 305 162  3 313 241 240  3 195 337 183  3 337 195 338  3 194 338 195  3 194 339 338  3 340 341 164  3 277 275 274  3 337 343 342  3 342 343 206  3 344 206 343  3 345 344 343  3 228 247 230  3 345 346 344  3 346 206 344  3 342 206 205  3 172 209 205  3 209 183 337  3 209 337 347  3 347 337 342  3 347 342 205  3 205 209 347  3 337 338 348  3 349 350 351  3 165 352 353  3 315 179 354  3 283 308 174  3 323 325 307  3 308 176 174  3 327 196 198  3 235 168 170  3 273 234 239  3 293 294 355  3 250 214 215  3 214 264 216  3 264 253 216  3 228 180 260  3 228 230 227  3 189 186 196  3 186 189 191  3 191 190 192  3 171 208 173  3 197 196 208  3 171 198 197  3 171 172 198  3 207 198 172  3 198 207 206  3 356 198 206  3 357 198 356  3 210 181 250  3 227 252 180  3 358 359 360  3 358 360 361  3 357 327 198  3 346 356 206  3 197 208 171  3 363 362 167  3 329 364 365  3 173 186 184  3 184 186 188  3 358 366 367  3 358 368 366  3 358 361 368  3 315 354 316  3 187 192 193  3 183 172 173  3 183 173 184  3 254 248 262  3 223 263 221  3 369 263 223  3 370 371 289  3 372 371 370  3 319 374 373  3 375 319 376  3 319 375 377  3 319 322 376  3 319 377 374  3 167 165 353  3 353 363 167  3 177 354 179  3 378 352 165  3 364 352 378  3 329 379 352  3 352 364 329  
