ply
format ascii 1.0
comment bbox -22.242918  -5.289863 12.430234  27.727339 -25.988999  -24.662529 
element vertex 198
property double x
property double y
property double z
element face 216
property list uchar int vertex_index
end_header
-9.8469429016099994 26.3850803375 -25.984106063799999  -11.8186817169 19.6305561066 -25.926866531400002  -11.611045837400001 19.3521671295 -25.928958892800001  -11.767896652200001 20.7149143219 -25.920023918150001  -12.1474561691 20.644689559949999 -25.919911384599999  -12.155990600599999 22.296522140499999 -25.915042877200001  -5.8121380805999996 24.638652801500001 -25.7893161774  -5.8180532455399998 24.757654190099998 -25.740495681799999  -5.6693224906899999 24.6686553955 -25.748933792100001  -18.354721069299998 24.470836639400002 -25.474447250400001  -17.733879089399998 24.9579734802 -25.396644592299999  -16.993734359699999 25.478294372600001 -25.5922889709  -17.810075759899998 24.938001632700001 -25.214263916  -17.8386135101 24.922008514400002 -25.121154785200002  -17.728338241599999 25.002990722700002 -25.1762371063  -17.756437301599998 24.986785888699998 -25.082942962600001  -8.4667320251499998 23.325534820600001 -25.908267974899999  -8.3915214538599994 24.260053634599998 -25.9079265594  -8.1768279075650003 23.812875747700001 -25.901724815350001  -8.7011823654199993 24.06327342985 -25.9119977951  -12.3133878708 23.005878448499999 -25.91587638855  -12.466140747050002 22.675632476800001 -25.915015220599997  -13.058283329 24.858735084549998 -25.924408912650001  -12.819073041266668 23.614449183133331 -25.915996551500001  -12.8268127441 25.066034317 -25.927066802999999  -16.727937088627812 25.224591510467423 -25.984493693481003  -11.740423202550001 20.107716560349999 -25.923771858199999  -9.9801630973699993 18.756344318375003 -25.9361152649  -11.005355835 19.135076522799999 -25.9313755035  -12.487519582099999 23.887364069633335 -25.9174187978  -12.4899101257 25.157777786299999 -25.928888320900001  -17.671581268299999 25.050111770600001 -25.044193267800001  -17.6667118073 25.0624275208 -24.723070144699999  -8.3536332448300001 22.701960881566666 -25.904905319233333  -12.326275825500002 20.3103342056 -25.921921730000001  -9.9361009597799992 18.326023101800001 -25.938751220699999  -12.023222923300001 19.9049720764 -25.9247684479  -17.7766094208 24.950881958 -25.306335449199999  -17.697320938099999 25.017341613799999 -25.268848419200001  -17.659114837600001 25.0272083282 -25.360044479399999  -5.5061674117999999 24.920219421399999 -25.329303741499999  -5.5884280204800003 24.937999725299999 -25.407201767  -5.6666688919099997 25.000133514400002 -25.313507080099999  -8.8888187408466663 19.831061045333332 -25.915553410833336  -8.9287848472599993 21.989212512975001 -25.9111866951  -11.9929453532 19.080017089833333 -25.930428822833335  -12.169706344600002 18.524745305366668 -25.934089024866665  -5.8556437492400004 25.016355514499999 -25.453908920300002  -5.7886619567900004 24.9453372955 -25.5403308868  -5.7588768005400004 25.0100460052 -25.3851737976  -12.506510734599999 19.975245475800001 -25.924042701749997  -12.205347061199999 19.5660800934 -25.926998138399998  -10.0850057602 26.614751815799998 -25.986120224  -12.0767359734 24.23155975345 -25.920006751999999  -11.708908081100001 24.775188446000001 -25.926204681400002  -12.0114130974 23.662646293649999 -25.917785644550001  -12.1623702049 23.335204124500002 -25.916876792899998  -6.3260207176199996 24.413669586200001 -25.8551540375  -5.9592256546 25.017341613799999 -25.518373489399998  -11.5870571136 25.1084804535 -25.9306163788  -19.032686233500002 23.912425994900001 -25.585796356199999  -18.902069091800001 23.977964401200001 -25.636543273899999  -16.9399261475 25.478584289600001 -25.6808719635  -5.5872201919600002 24.9801425934 -25.233667373700001  -5.3710465431200003 24.7797164917 -25.503307342500001  -5.46406316757 24.789012908899998 -25.574237823499999  -5.5197901725799996 24.8685359955 -25.494789123499999  -5.4603729247999997 24.9144821167 -25.052865982099998  -5.2898626327500002 24.8013629913 -25.2501945496  -5.6558017730700003 25.0510482788 -24.6625289917  -5.6030049324000002 25.009117126500001 -25.0486736298  -5.5201816558800001 24.950260162399999 -25.145729064899999  -12.6908016205 16.923475265499999 -25.950609207199999  -14.18039608 16.701816558800001 -25.955295562700002  -16.298094749450001 12.430233716949999 -25.98899888995  -15.97996854785 12.63604450225 -25.98745536805  -16.20035820008 12.941737747179999 -25.986652374280006  -16.685096740725001 12.856462955475001 -25.988100051850004  -11.29394865035 18.926892280600001 -25.932180404650001  -11.9316921234 25.014757156400002 -25.928562164300001  -8.7924103736900001 24.650533676149998 -25.9131793976  -8.7837419509900005 25.117071151699999 -25.916759491000001  -9.0846204757700004 25.386821746799999 -25.925266265899999  -8.3223471641499991 21.890842437749999 -25.901890754699998  -5.4347066879300003 24.8529701233 -25.418794632000001  -5.4207539558400004 24.699680328399999 -25.645908355700001  -5.5725283622699999 24.786033630399999 -25.635480880700001  -5.5365762710600004 24.690841674800001 -25.702594757100002  -5.68312358856 24.9459285736 -25.4771671295  -5.6194410324100001 24.872539520299998 -25.5615596771  -5.5782718658399997 24.847442627 -25.571691513099999  -9.6020858287824993 19.26983594895 -25.931952953325002  -5.6895828247100004 24.776300430300001 -25.691446304300001  -21.032033920300002 22.0019760132 -25.755677223199999  -20.088331222499999 22.962076187099999 -25.686235427900002  -18.958190918 23.8983306885 -25.669635772700001  -16.997631073000001 25.3984127045 -25.7144470215  -17.0425834656 25.3106536865 -25.745937347400002  -19.986512502066667 21.245143254599999 -25.8733189901  -20.920089721699998 21.231065750100001 -25.860910415599999  -19.115484237699999 16.678113937399999 -25.964694976800001  -19.05994510655 17.924075126649999 -25.9521780014  -19.406796455349998 16.9130811691 -25.961956977850001  -19.031052589449999 18.649344444299999 -25.9417600632  -5.7136490344999995 25.045923233049997 -25.174366951  -17.6128978729 25.032114028900001 -25.449748992899998  -19.040561675999999 19.3148269653 -25.9325447083  -19.4611501694 20.812700271600001 -25.894347190849999  -19.253294944749999 20.390505790700001 -25.908094406099998  -21.4650745392 21.087942123400001 -25.856874465899999  -22.0135059357 20.956790924100002 -25.855070114099998  -16.55159568785 15.989197731000001 -25.96231842045  -18.405394554099999 16.498221397400002 -25.962932586649998  -7.6037502288800001 24.782869339000001 -25.889104843150001  -7.8801283836399998 25.246126174899999 -25.902545928999999  -21.517854690549999 21.5673236847 -25.787571907050001  -9.5806875228866648 18.193208694499997 -25.937356313066669  -8.0364437103299995 24.912174224899999 -25.902641296399999  -8.3857393264799995 25.205593109100001 -25.9161224365  -18.307050705000002 24.474872589099999 -25.563423156700001  -22.242918014499999 20.981756210299999 -25.824110031099998  -22.2165660858 21.084405899 -25.796964645399999  -22.010773658750001 21.142254829399999 -25.821064949049997  -19.0348119736 19.954553604099999 -25.921054840099998  -5.3901014327999999 24.6002120972 -25.709699630700001  -5.5215482711800004 24.5788955688 -25.756782531700001  -5.89189720154 24.9465427399 -25.604921340899999  -5.3761968612700004 24.487176895099999 -25.763120651200001  -6.6125874519299996 24.6788043976 -25.858390808100001  -6.1048197746300001 25.058032989499999 -25.523153305099999  -17.0601863861 25.403327941899999 -25.627334594699999  -5.7309131622300002 24.867240905799999 -25.620977401699999  -20.189332962000002 23.077617645299998 -25.488571167  -20.067213058499998 23.147054672199999 -25.540184021000002  -20.136598587000002 23.0780544281 -25.575611114499999  -18.277967452999999 24.537733077999999 -25.4375705719  -18.963491439799999 23.983160018900001 -25.550369262699999  -6.9906642437000004 25.1757698059 -25.826703071600001  -16.993734359699999 25.478294372600001 -25.5922889709  -16.9399261475 25.478584289600001 -25.6808719635  -17.0601863861 25.403327941899999 -25.627334594699999  -16.943538665799998 25.5469274521 -25.511098861649998  -17.659114837600001 25.0272083282 -25.360044479399999  -16.871547699000001 25.618855476349999 -25.475048065199999  -16.997631073000001 25.3984127045 -25.7144470215  -16.850469589199999 25.457857132000001 -25.763687133800001  -17.0425834656 25.3106536865 -25.745937347400002  -16.8726978302 25.553192138699998 -25.6457157135  -16.8046760559 25.6274261475 -25.6104106903  -17.697320938099999 25.017341613799999 -25.268848419200001  -17.580858230600001 25.0944499969 -25.322793960599999  -16.796343803399999 25.6890335083 -25.438418388400002  -16.7991657257 25.541929244999999 -25.7311325073  -17.728338241599999 25.002990722700002 -25.1762371063  -17.615776061999998 25.082592010500001 -25.230916976900001  -16.637600898750001 25.825028419500001 -25.363638877850001  -5.7588768005400004 25.0100460052 -25.3851737976  -5.8413953781099996 25.069145202600001 -25.288854599  -5.8556437492400004 25.016355514499999 -25.453908920300002  -5.9358367919899999 25.077316284199998 -25.359197616599999  -16.727937088627812 25.224591510467423 -25.984493693481003  -17.6128978729 25.032114028900001 -25.449748992899998  -6.1256074905400002 25.135082244900001 -25.325412750200002  -6.1048197746300001 25.058032989499999 -25.523153305099999  -6.0372519493099999 25.080057144200001 -25.4251422882  -16.587394714399998 25.843118667599999 -25.502151489300001  -7.901136398316666 25.844263712566669 -25.442648569733336  -7.6862565676366659 25.773227055866666 -25.117421468100002  -7.8801283836399998 25.246126174899999 -25.902545928999999  -15.092370986900001 27.036670684800001 -25.554847717299999  -12.8268127441 25.066034317 -25.927066802999999  -12.4899101257 25.157777786299999 -25.928888320900001  -10.0850057602 26.614751815799998 -25.986120224  -14.2342567444 27.601795196499999 -25.82347679135  -15.432103157 26.739356994600001 -25.609298706099999  -14.0592660904 27.708663940400001 -25.857463836699999  -17.671581268299999 25.050111770600001 -25.044193267800001  -17.5604629517 25.130863189700001 -25.099252700800001  -17.586618423499999 25.113590240499999 -25.005378723100002  -14.152852058400001 27.727338790899999 -25.7734851837  -15.3802947998 26.740894317599999 -25.698932647700001  -8.3857393264799995 25.205593109100001 -25.9161224365  -8.7837419509900005 25.117071151699999 -25.916759491000001  -9.8469429016099994 26.3850803375 -25.984106063799999  -5.9266023635899998 25.1264438629 -25.190748214700001  -5.9592256546 25.017341613799999 -25.518373489399998  -6.0722997188549996 25.156862258899999 -25.206829071050002  -6.2259340286300002 25.181272506700001 -25.2181224823  -6.9475334167479996 25.445721435559999 -25.330582427960003  -6.9906642437000004 25.1757698059 -25.826703071600001  -11.9316921234 25.014757156400002 -25.928562164300001  -11.5870571136 25.1084804535 -25.9306163788  -9.0846204757700004 25.386821746799999 -25.925266265899999  -17.645397186299999 25.067436218299999 -25.1379489899  -5.6030049324000002 25.009117126500001 -25.0486736298  -5.7136490344999995 25.045923233049997 -25.174366951  -5.7632722854600003 25.089960098300001 -25.033241272000001  -15.3132677078 26.817276001 -25.663728714000001  3 2 1 0  3 3 4 0  3 4 5 0  3 6 7 8  3 11 9 10  3 12 13 14  3 13 15 14  3 16 17 18  3 19 17 16  3 0 21 20  3 22 24 23  3 24 22 25  3 25 22 23  3 3 0 26  3 28 0 27  3 29 24 30  3 31 15 32  3 16 33 0  3 34 25 4  3 0 35 27  3 26 36 34  3 37 38 39  3 42 40 41  3 43 0 44  3 45 46 25  3 48 47 49  3 36 51 50  3 54 52 53  3 52 55 53  3 0 5 21  3 56 55 0  3 6 57 58  3 52 54 59  3 45 25 51  3 10 9 39  3 61 60 62  3 16 0 19  3 63 40 42  3 64 65 66  3 0 55 52  3 67 69 68  3 69 67 70  3 70 67 68  3 68 71 70  3 46 72 25  3 36 50 34  3 72 73 25  3 74 76 75  3 74 77 76  3 78 2 0  3 53 79 54  3 26 1 36  3 1 26 0  3 81 80 82  3 78 45 2  3 1 51 36  3 78 0 28  3 51 1 45  3 33 83 0  3 0 83 44  3 84 64 66  3 7 47 48  3 85 86 65  3 87 86 85  3 59 54 79  3 41 66 88  3 66 90 89  3 56 23 29  3 24 29 23  3 91 0 43  3 92 86 87  3 12 14 38  3 38 37 12  3 2 45 1  3 56 29 55  3 55 29 53  3 14 15 31  3 94 25 93  3 95 61 96  3 96 97 95  3 25 23 56  3 99 25 98  3 56 0 20  3 101 25 100  3 100 102 101  3 103 25 101  3 104 70 63  3 10 105 11  3 20 25 56  3 103 106 25  3 107 25 108  3 110 25 109  3 109 25 99  3 51 25 50  3 98 25 107  3 111 112 25  3 20 21 25  3 112 100 25  3 25 73 111  3 18 114 113  3 115 93 25  3 0 116 35  3 117 118 114  3 0 91 116  3 62 60 119  3 120 121 122  3 25 122 115  3 25 94 95  3 110 122 25  3 49 42 88  3 25 106 123  3 5 4 25  3 5 25 21  3 34 50 25  3 123 108 25  3 90 66 65  3 87 85 124  3 87 124 125  3 7 126 47  3 126 7 6  3 90 65 86  3 88 66 89  3 127 125 124  3 128 129 57  3 17 19 118  3 19 80 118  3 80 81 118  3 18 118 117  3 114 18 117  3 39 105 10  3 130 62 119  3 11 130 119  3 80 0 82  3 97 25 95  3 61 62 96  3 119 9 11  3 128 57 114  3 57 113 114  3 0 80 19  3 29 30 53  3 53 30 79  3 17 118 18  3 87 125 8  3 131 89 90  3 90 86 131  3 132 133 134  3 39 135 37  3 39 9 135  3 60 136 119  3 48 49 88  3 42 41 88  3 128 137 129  3 129 58 57  3 126 6 58  3 58 47 126  3 114 137 128  3 63 42 104  3 70 71 63  3 140 138 139  3 143 141 142  3 146 144 145  3 147 138 148  3 150 149 151  3 138 142 141  3 152 145 144  3 147 139 138  3 153 155 154  3 156 158 157  3 157 158 159  3 153 154 149  3 142 150 151  3 151 143 142  3 146 145 160  3 150 142 149  3 161 142 138  3 155 149 154  3 162 164 163  3 148 138 143  3 138 141 143  3 165 143 151  3 167 168 166  3 165 151 169  3 171 170 172  3 145 152 173  3 174 165 169  3 173 175 145  3 175 160 145  3 176 178 177  3 152 144 179  3 179 144 139  3 179 173 152  3 139 180 179  3 170 160 172  3 183 181 182  3 159 164 162  3 157 159 184  3 159 158 185  3 185 164 159  3 159 162 186  3 186 184 159  3 163 187 162  3 187 186 162  3 188 189 168  3 190 171 172  3 172 191 190  3 182 192 183  3 153 176 193  3 169 149 155  3 194 195 196  3 179 180 197  3 151 149 169  3 176 177 193  3 143 165 148  3 189 188 187  3 163 189 187  3 164 185 163  
