ply
format ascii 1.0
comment bbox -31.207239  -21.389116 -0.144828  19.233063 -26.062549  -21.817271 
element vertex 232
property double x
property double y
property double z
element face 260
property list uchar int vertex_index
end_header
-25.366323471050002 16.089715480799999 -25.832960128750003  -24.150724410999999 16.682840347300001 -25.829925537099999  -25.069585800200002 16.100352287299998 -25.827057838449999  -25.080152511600001 18.8397483826 -25.733169555700002  -24.897102356000001 18.969705581700001 -25.748998642  -24.878925323499999 19.082897186299999 -25.724483490000001  -24.81980896 13.0337743759 -25.962787628200001  -25.0299129486 12.7507448196 -25.970096588099999  -25.136541366549999 13.12196063995 -25.957464218150001  -23.042201995799999 11.4555091858 -25.995374679600001  -22.923915863000001 11.876650810199999 -26.006772994999999  -22.741796493500001 11.4936666489 -25.9980335236  -25.052652359 2.8998222351099998 -25.716768264799999  -24.3881797791 1.9711499214199999 -25.691747665400001  -25.1989059448 2.4138062000299998 -25.7026042938  -24.9590978622 19.189311027549998 -25.267339706400001  -24.941640853900001 19.223997116100001 -25.097604751599999  -25.007610321000001 19.159027099599999 -25.132686615000001  -25.677886232959793 6.998254851278336 -21.817270816098635  -24.900941848799999 3.39642548561 -25.730625152599998  -24.958559989899999 3.196499824525 -25.724548339799998  -25.0107898712 19.0325870514 -25.677253723100002  -25.053506851200002 18.944505691500002 -25.706926345799999  -25.0131397247 19.113489151 -25.5612697601  -25.0537090302 19.101779937700002 -25.4738864899  -24.948688507100002 19.1794090271 -25.526847839399998  -24.2023143768 12.015563011199999 -25.992647171000002  -24.7611732483 11.9261388779 -25.985754013099999  -24.8658618927 12.2221126556 -25.983335494999999  -23.930078506450002 11.7119708061 -25.993132591249999  -23.054109573400002 12.1947689056 -26.0061397552  -23.361214637750003 11.808968543999999 -26.001420021050002  -23.633331298800002 12.105018615700001 -25.999429702800001  -23.391139030449999 12.28598260875 -25.999255180349998  -24.82583141325 15.0885381699 -25.886322975150001  -23.2348594666 16.240092277500001 -25.895472526550002  -25.164680480949997 15.272167205799999 -25.877273559549998  -23.8926620483 16.677721977250002 -25.845007896399999  -23.715810775800001 16.902433395399999 -25.854148864700001  -23.601895332349997 16.569508552549998 -25.865560531650001  -24.91912555695 14.382892608600001 -25.9153995514  -25.059415817249999 13.873978137950001 -25.93160152435  -25.197074890149999 14.346970081350001 -25.915117263799999  -24.923750877350002 13.397534370400001 -25.949366569550001  -25.200278282200003 5.21566057205 -25.78071403505  -24.728637695300002 5.2199759483300001 -25.7815971375  -25.224939346300001 5.6925067901600004 -25.7942123413  -26.226684570300002 8.9697923660299992 -25.905412674000001  -24.351102828999998 11.6400318146 -25.986976623499999  -24.743562698400002 11.1695976257 -25.970060348499999  -24.763239860550001 11.5645103455 -25.980197906500003  -24.3270730972 11.24204397205 -25.976616859450001  -22.897557258600003 12.641305923499999 -25.997465133650003  -24.982536315899999 1.59205126762 -25.680152893100001  -25.131063461299998 1.1172137260399999 -25.666934967  -25.055887222300001 1.3549740314500001 -25.673337936399999  -24.869385719299999 1.953189015385 -25.690155982949999  -25.30820560455 2.0529550909999998 -25.6922826767  -24.953771591199999 12.494761467 -25.977790832499998  -25.143196106000001 12.181324958799999 -25.9806404114  -23.727243423499999 12.3808250427 -25.993099212600001  -23.227339426700002 12.7207775116 -25.989343643200002  -22.023939132700001 14.480988025649999 -25.972195625299999  -21.842266082800002 14.8033008575 -25.970471382150002  -22.168170928999999 14.861852645900001 -25.9614467621  -24.995836257899999 4.2465605735800001 -25.754175186200001  -25.10985660555 4.6163945198049996 -25.763875961300002  -23.083684921249997 15.789730548850001 -25.9130449295  -22.970552444500001 16.237207412699998 -25.9118900299  -22.846747398350001 15.8897590637 -25.923664092999999  -21.9205131531 13.686788241066667 -25.986690521233331  -22.752536773700001 12.2302789688 -26.0079669952  -25.196497599299999 3.826732476553333 -25.741591135666667  -24.667298634833333 14.528106053666667 -25.910169601466666  -25.015296935999999 14.7239141464 -25.901550293  -23.475386619600002 11.383551120749999 -25.989051818850001  -24.057873725900002 12.472857952150001 -25.986917495699998  -24.313692092899998 13.3384866714 -25.954265594500001  -24.567529678349999 13.18595409395 -25.9586172104  -24.744681040433335 13.790394783033333 -25.936639150000001  -25.039989471399998 18.6654338837 -25.745191574100001  -24.164160043101809 19.039807166749274 -25.855104637732182  -25.116688728299998 18.221525192249999 -25.73738479615  -23.903974533100001 11.312292099 -25.982788085900001  -25.9759712219 9.8290357589700008 -25.930311202999999  -21.3891162872 14.463850975 -25.982828140300001  -21.645351886724999 14.122375249875001 -25.983710289000001  -22.487406730650001 14.916439533249999 -25.952103614799999  -22.298069000249999 14.41003990175 -25.9660396576  -22.702863693233329 14.7114795049 -25.948226928699999  -22.671959876999999 15.411353588099999 -25.938308715799998  -25.048377990700001 19.147314071699999 -25.044744491599999  -24.978311538700002 19.208158492999999 -25.008611679099999  -25.0142650604 19.1915302277 -24.919326782199999  -23.805761337300002 12.636180877699999 -25.9840373993  -23.554188728349999 12.80143213275 -25.981489181550003  -24.3851394653 12.5654277802 -25.9809780121  -24.70942497255 12.6581425667 -25.97546958925  -22.359166463200001 15.361887931833332 -25.947921752933336  -24.3006381989 12.3000135422 -25.9880504608  -24.587678909299999 12.2650127411 -25.986337661699999  -24.712177276599999 19.098449707 -25.764549255399999  -25.27400779725 13.60592365265 -25.940392494200001  -24.460632324199999 12.818014144899999 -25.972356796300001  -25.0057353973 15.8106107712 -25.846302032499999  -24.769296646133331 16.038285255433333 -25.832012812299997  -24.5324344635 19.2330627441 -25.781301498400001  -24.982421875 19.160785675 -25.437870025599999  -25.033933639499999 11.87758255 -25.981660842899998  -25.724467277499997 16.29762840275 -25.83154296875  -23.571961734243963 19.020781261523229 -25.953021823584692  -26.077483177200001 16.503656387349999 -25.83055305485  -25.0131034851 19.138980865499999 -25.348058700599999  -25.061907768250002 19.108942031849999 -25.213678360000003  -26.303426742599999 17.3949871063 -25.7885169983  -25.1417369843 10.7055969238 -25.9541950226  -23.792682647700001 17.123558044399999 -25.8470153809  -25.078542709400001 14.948394775400001 -25.892408370999998  -23.870162487024999 4.7230472564700001 -25.769000530249997  -22.91679382325 5.1531046628950001 -25.782710552225002  -24.571425437924997 4.2616837024674998 -25.754985809324999  -24.5134147644 4.7597219467160006 -25.768938827520003  -24.290407180799999 10.822065353399999 -25.963550567599999  -25.683910369900001 9.8439750671400006 -25.930311202999999  -25.812751769999998 9.4211406707799998 -25.918870925899999  -24.0905399323 1.38757574558 -25.675262451199998  -24.455097834266667 1.6301103035600002 -25.681650797566665  -24.245315551766666 0.91036071380066674 -25.661609649666669  -24.206089973449998 12.972190856899999 -25.9683303833  -24.913024902299998 19.221900939899999 -25.4022483826  -24.959146499599999 19.1114997864 -25.6456623077  -24.835910797099999 19.170671463000001 -25.694713592500001  -25.830610911033336 16.774664560966666 -25.802277247100005  -24.823589325 3.6481702327700001 -25.737527847300001  -25.172122955300001 11.4908847809 -25.973663330099999  -25.018699646000002 11.1221885681 -25.965793609599999  -24.232131958 2.46129608154 -25.705600738499999  -25.453789710999999 1.575867652895 -25.67892551425  -24.456557591733333 13.820150375366666 -25.936294555699998  -24.874476432800002 0.43179675936700002 -25.647236824049997  -25.2014160156 0.88545507192600004 -25.659910201999999  -24.806875228900001 3.7432713508600002 -25.739948272700001  -24.9013900757 19.184228897099999 -25.612741470300001  -25.2713842392 15.690145015700001 -25.856005668600002  -24.932990074149998 15.507890701299999 -25.864101409900002  -26.884831428550001 17.047868728649998 -25.85602283475  -25.272509574849998 12.588466167450001 -25.972561836250001  -24.618310928300001 3.2366766929600002 -25.7263069153  -25.058710098300001 -0.14482830464800001 -25.6311149597  -25.2725791931 0.65400397777599995 -25.653135299700001  -24.437194824199999 0.32120859622949999 -25.644966125450001  -23.423843383800001 16.795148213699999 -25.874788284299999  -26.226684570300002 8.9697923660299992 -25.905412674000001  -25.927785873400001 8.9729442596400002 -25.904134750400001  -25.812751769999998 9.4211406707799998 -25.918870925899999  -25.061907768250002 19.108942031849999 -25.213678360000003  -25.048377990700001 19.147314071699999 -25.044744491599999  -25.007610321000001 19.159027099599999 -25.132686615000001  -25.27400779725 13.60592365265 -25.940392494200001  -25.136541366549999 13.12196063995 -25.957464218150001  -27.597399542042861 16.193099018498323 -25.974605839652028  -27.239446640000001 17.199785232499998 -25.8701515198  -29.244750976599999 15.479894638099999 -25.980798721300001  -29.224023818999999 15.597805023199999 -25.957208633400001  -26.357162475549998 17.662367820749999 -25.7704439163  -25.116688728299998 18.221525192249999 -25.73738479615  -26.303426742599999 17.3949871063 -25.7885169983  -30.935230255099999 13.9060554504 -26.060226440400001  -25.172122955300001 11.4908847809 -25.973663330099999  -25.7046928406 10.6389093399 -25.949518203699999  -26.807758331300001 16.746208190899999 -25.8686733246  -26.884831428550001 17.047868728649998 -25.85602283475  -25.830610911033336 16.774664560966666 -25.802277247100005  -25.033933639499999 11.87758255 -25.981660842899998  -25.366323471050002 16.089715480799999 -25.832960128750003  -25.724467277499997 16.29762840275 -25.83154296875  -25.594455083233331 15.785385449700001 -25.856768290233333  -26.077483177200001 16.503656387349999 -25.83055305485  -25.039989471399998 18.6654338837 -25.745191574100001  -25.080152511600001 18.8397483826 -25.733169555700002  -25.018699646000002 11.1221885681 -25.965793609599999  -25.0299129486 12.7507448196 -25.970096588099999  -25.9759712219 9.8290357589700008 -25.930311202999999  -25.979145050050001 10.219985961900001 -25.938833236699999  -25.272509574849998 12.588466167450001 -25.972561836250001  -25.143196106000001 12.181324958799999 -25.9806404114  -25.510763168299999 12.4225797653 -25.9742240906  -25.164680480949997 15.272167205799999 -25.877273559549998  -25.078542709400001 14.948394775400001 -25.892408370999998  -25.2725791931 0.65400397777599995 -25.653135299700001  -25.131063461299998 1.1172137260399999 -25.666934967  -25.2014160156 0.88545507192600004 -25.659910201999999  -25.552997589150003 12.118484973899999 -25.976273536649998  -31.207239151 14.02482366565 -26.062548637399999  -25.0131397247 19.113489151 -25.5612697601  -25.122655868500001 19.040575027500001 -25.509349823000001  -25.0537090302 19.101779937700002 -25.4738864899  -25.975658416750001 16.098320007350001 -25.850028038049999  -25.2713842392 15.690145015700001 -25.856005668600002  -25.1417369843 10.7055969238 -25.9541950226  -27.150613784800001 17.370908737200001 -25.810806274400001  -27.2762432098 17.3209972382 -25.763761520399999  -27.2176895142 17.389595031700001 -25.730840683  -25.053506851200002 18.944505691500002 -25.706926345799999  -25.0107898712 19.0325870514 -25.677253723100002  -25.216022491449998 18.8602809906 -25.676653861950001  -25.069585800200002 16.100352287299998 -25.827057838449999  -25.0057353973 15.8106107712 -25.846302032499999  -25.105685234100001 19.010628700250003 -25.611960411049999  -25.317472457899999 18.845516204799999 -25.6129207611  -25.257135391199999 18.915164947499999 -25.5794391632  -26.676948547399999 9.3736553192100001 -25.917736053500001  -25.193426132199999 18.981430053699999 -25.545192718500001  -25.085559844999999 19.081104278600002 -25.384431839000001  -25.0131034851 19.138980865499999 -25.348058700599999  -26.331167221099999 8.5005445480299997 -25.887863159199998  -25.988128662099999 8.0307693481399998 -25.868893623350001  -25.224939346300001 5.6925067901600004 -25.7942123413  -25.399976730366671 6.1567405064900003 -25.806845982866665  -25.162485122700001 19.028036117599999 -25.421787261999999  -25.270732879600001 6.6236429214500001 -25.8202648163  -26.252430915799998 9.4045147895800003 -25.9193763733  -25.052652359 2.8998222351099998 -25.716768264799999  -25.102220535299999 2.6951491832750003 -25.710454940799998  -25.1989059448 2.4138062000299998 -25.7026042938  -29.953032950236764 14.39091202903985 -26.022927561744709  -25.059415817249999 13.873978137950001 -25.93160152435  -25.197074890149999 14.346970081350001 -25.915117263799999  -25.329049110450001 14.8073205948 -25.898297309850001  -25.015296935999999 14.7239141464 -25.901550293  -25.118171691899999 19.061124801599998 -25.295001983599999  -25.683910369900001 9.8439750671400006 -25.930311202999999  3 1 2 0  3 3 5 4  3 7 8 6  3 9 10 11  3 13 14 12  3 16 15 17  3 18 19 20  3 22 21 5  3 23 24 25  3 26 27 28  3 26 29 27  3 30 31 32  3 32 33 30  3 35 34 36  3 37 38 39  3 41 42 40  3 43 6 8  3 44 46 45  3 45 46 47  3 12 20 19  3 50 48 49  3 48 51 49  3 30 33 52  3 53 54 55  3 57 56 53  3 58 28 59  3 61 52 60  3 64 63 62  3 18 66 65  3 67 68 69  3 70 52 62  3 30 52 71  3 65 72 18  3 28 27 59  3 74 73 40  3 75 29 31  3 60 76 61  3 78 79 77  3 80 81 82  3 29 48 27  3 51 83 84  3 85 86 62  3 64 88 87  3 89 90 87  3 91 93 92  3 94 95 61  3 58 97 96  3 80 3 4  3 87 90 98  3 76 99 100  3 101 81 4  3 43 102 79  3 94 103 95  3 80 4 81  3 104 2 105  3 79 78 43  3 106 81 101  3 24 107 25  3 62 63 85  3 6 103 97  3 79 102 41  3 100 96 76  3 108 27 50  3 110 109 111  3 98 64 87  3 112 113 15  3 81 110 114  3 61 88 62  3 15 113 17  3 115 49 51  3 57 14 56  3 0 109 116  3 117 36 34  3 32 31 26  3 75 31 9  3 110 116 109  3 118 47 119  3 71 10 30  3 29 83 48  3 48 83 51  3 30 10 31  3 65 66 120  3 66 121 120  3 96 103 76  3 52 61 62  3 61 95 88  3 33 60 52  3 29 26 31  3 62 86 70  3 94 76 103  3 60 99 76  3 26 100 32  3 123 122 124  3 105 1 104  3 61 76 94  3 100 26 28  3 126 125 54  3 54 125 127  3 95 103 128  3 121 47 118  3 12 18 20  3 32 60 33  3 5 3 22  3 40 42 74  3 13 56 14  3 129 112 15  3 21 130 131  3 132 110 111  3 102 43 8  3 119 47 11  3 50 27 48  3 19 72 133  3 134 50 135  3 13 12 136  3 57 53 137  3 128 103 78  3 41 40 79  3 40 138 79  3 126 54 13  3 7 6 97  3 58 96 100  3 140 54 139  3 34 67 74  3 74 67 73  3 24 112 107  3 141 133 72  3 124 122 75  3 7 97 58  3 142 130 23  3 23 25 142  3 128 78 77  3 6 78 103  3 130 21 23  3 143 104 144  3 35 36 144  3 0 38 1  3 1 38 37  3 114 82 81  3 132 145 110  3 135 49 115  3 146 7 58  3 16 17 91  3 91 92 16  3 112 129 107  3 19 18 72  3 131 5 21  3 47 9 11  3 39 144 104  3 74 117 34  3 123 75 122  3 2 1 105  3 84 83 123  3 37 39 104  3 58 59 146  3 38 0 116  3 1 37 104  3 83 75 123  3 59 27 108  3 143 144 36  3 115 51 84  3 9 47 124  3 28 58 100  3 45 121 66  3 43 78 6  3 147 12 19  3 9 124 75  3 65 141 72  3 66 44 45  3 75 83 29  3 136 12 147  3 31 10 9  3 108 50 134  3 50 49 135  3 103 96 97  3 47 121 45  3 88 64 62  3 139 148 149  3 54 150 139  3 54 53 13  3 151 39 38  3 55 137 53  3 150 54 127  3 110 145 114  3 139 149 140  3 153 154 152  3 157 155 156  3 158 159 160  3 161 162 163  3 164 165 166  3 169 167 168  3 170 171 172  3 168 167 173  3 174 176 175  3 170 172 177  3 179 178 164  3 169 168 180  3 181 160 159  3 183 182 167  3 184 185 186  3 177 175 170  3 160 187 188  3 167 186 185  3 191 189 190  3 185 192 167  3 160 167 193  3 194 195 196  3 197 176 160  3 176 198 160  3 169 180 199  3 200 201 202  3 175 160 170  3 203 205 204  3 174 206 207  3 160 181 184  3 210 208 209  3 162 160 193  3 164 166 171  3 164 171 161  3 161 160 162  3 167 182 211  3 165 164 178  3 204 209 208  3 209 204 205  3 208 212 194  3 196 213 214  3 161 171 160  3 207 176 174  3 160 171 170  3 215 217 216  3 216 217 218  3 194 204 208  3 219 213 196  3 176 197 175  3 197 160 175  3 182 183 199  3 216 218 220  3 198 176 207  3 182 221 211  3 185 173 192  3 222 224 223  3 225 160 186  3 215 152 217  3 173 167 192  3 183 169 199  3 167 169 183  3 158 160 226  3 228 227 160  3 229 160 188  3 228 160 229  3 187 160 198  3 160 225 167  3 160 184 186  3 160 227 226  3 167 225 186  3 155 214 230  3 228 229 227  3 214 213 230  3 213 219 230  3 182 231 154  3 154 221 182  
