ply
format ascii 1.0
comment bbox -23.555759  0.102889 6.089320  27.432688 -25.250195  -3.290405 
element vertex 543
property double x
property double y
property double z
element face 575
property list uchar int vertex_index
end_header
-22.022068023700001 6.4473164081599998 -3.8891404867150001  -22.297195434549998 6.5159018039699994 -4.0033712387099998  -22.418376922600004 6.4814518292766676 -3.7799131075566663  -13.959996541366666 25.107633590700001 -22.637884140033332  -13.935977617866667 24.845329920466668 -22.621732076000001  -13.851853370700001 24.736038208 -22.617006301899998  -15.39766359325 24.87627506255 -22.572076797499999  -15.248414516450001 24.807513237000002 -22.569194793699999  -15.2979602814 25.0371227264 -22.567953109699999  -15.2075595856 24.950922012300001 -22.567930221600001  -23.254659016933331 6.3340697288500003 -3.6197696526833334  -23.0009059906 6.3663728237150004 -3.5631291866300003  -23.104785919200001 6.4730353355399997 -3.85805463791  -18.1735496521 24.761260986300002 -23.003618240400002  -17.2100200653 25.4531726837 -22.8763484955  -17.303880691500002 25.3916492462 -22.919765472400002  -17.929449081400001 24.949028015100001 -23.214693069500001  -18.353078842199999 24.638029098499999 -23.088315963700001  -17.817083358800001 25.031555175800001 -23.270683288600001  -17.272183418250002 24.837075233450001 -22.632071495049999  -17.133346557599999 24.845220565799998 -22.6365470886  -17.080127716100002 25.021730423000001 -22.635747909500001  -17.1780490875 24.962339401200001 -22.637804031400002  -22.4941158295 6.5519051551800001 -4.0277371406600002  -22.558356285050003 6.5207991600049997 -3.869465231895  -0.084523901343299998 16.628078460699999 -14.8695755005  -0.141701698303 16.496343612699999 -14.745424270599999  -0.325617909431 16.510503768900001 -14.8056974411  -0.25839525461199997 16.630490303000002 -14.917356491100001  -16.038121700250002 24.268327712999998 -22.59731578825  -16.206405957566666 24.150941212983337 -22.601638476066668  -16.234666188566667 24.456176439933333 -22.607581456483331  -16.0210170746 24.476992607100001 -22.5921049118  -15.4044508934 24.6845769882 -22.570943832400001  -16.208177566500002 25.017988205000002 -22.6170330048  -16.095434188799999 24.813034057599999 -22.598066330000002  -16.260023117100001 24.843208313000002 -22.6134109497  -5.5552434921299998 24.9637966156 -24.4611911774  -5.51495885849 24.911880493200002 -24.3532619476  -5.4406242370599998 24.887171745300002 -24.51314258575  -22.168546676649999 6.4919514656100006 -3.9864491224250003  -22.070536295566665 6.4912970860800003 -4.1737696329766658  -22.342660903899997 6.5477773348500001 -4.2097562154133339  -5.7764225006099998 24.832210540799998 -23.132410049400001  -5.9660539627100002 24.980821609500001 -23.2393398285  -5.9212064743050004 25.01620674135 -23.450328826899998  -5.85223770142 24.942293167100001 -23.360561370799999  -17.939955711400003 24.92376613615 -23.495574951149997  -17.873657226599999 24.983089447000001 -23.407897949199999  -17.8137550354 25.014377593999999 -23.599472045900001  -16.53038978575 25.078163146999998 -22.629042625399997  -16.2725448608 24.920219421399999 -22.615768432599999  -16.325802803050003 25.107494354250001 -22.62902069095  -16.424646377599998 24.877935409500001 -22.620027542100001  -16.639790058150002 23.805106639875 -22.615788936624998  -16.478122983657144 23.988778795514285 -22.611631938371428  -16.818363507583332 23.957921346033334 -22.627812385550001  -16.728066921250001 23.591735363025002 -22.609643936174997  -17.897651672399999 24.948947906499999 -23.639673233  -17.9642686844 24.875869750949999 -24.053380966150002  -17.728673934900002 25.063865661600001 -23.886728286699999  -15.208183526975001 24.605216503125 -22.568555831925003  -14.964877367 24.480539798749998 -22.55983400345  -15.11416034698 24.267293548600001 -22.558635711680001  -17.000971317299999 24.166140079525 -22.645281314875  -16.727853775000003 24.254996617616666 -22.636441866550001  -17.785476684599999 25.030979156499999 -23.6954078674  -17.179471969600002 24.652709960949998 -22.639872551  -17.350486755399999 24.708057403600002 -22.634176254300002  -5.7079205513 24.8434944153 -23.363113403300002  -5.7211763858799998 24.887054443349999 -23.489562034599999  -6.5649137496899996 24.7894096375 -22.647609710699999  -7.0768332481399998 24.9935359955 -22.6546096802  -7.3764972686799997 25.031789779699999 -22.633378982499998  -6.4674642086 24.583660125750001 -22.6144294739  -15.451638221733333 24.429215749116665 -22.575305938716667  -15.685400433022222 24.059426201722225 -22.582413991288888  -15.713587045675 24.419889450075001 -22.578295707725001  -15.365899658180002 24.243876647959997 -22.571664810180003  -5.5448803901649999 24.731779098499999 -23.380867958100001  -5.64842844009 25.015787124599999 -24.3561439514  -5.6173038482699997 25.005081176800001 -24.430791854900001  -7.1951584816 24.6771316528 -22.622364044200001  -7.3326463699350004 24.7149372101 -22.621019363400002  -7.0293180942550002 24.613069534299999 -22.619839668299999  -17.871091206833331 24.916339874266665 -24.568213144933335  -17.8922405243 24.9164466858 -24.290426254300002  -17.752552032499999 25.014316558800001 -24.440448760999999  -16.494626522049998 24.300432205174999 -22.623877048474998  -16.760680389379999 24.542845535280001 -22.64089660646  -5.6654691696199997 24.9610080719 -24.030519485500001  -5.79538631439 25.0262718201 -23.801643371600001  -5.7619242668200004 25.011432647700001 -23.922473907499999  -5.5992646217299997 25.012462616000001 -24.5661621094  -6.7810130119299998 25.134372711200001 -22.753597259500001  -6.3255438804599997 24.826967239399998 -22.716691970799999  -5.9386675357800005 24.734529495250001 -22.79296875  -17.8267536163 25.018560409500001 -23.3370857239  -17.787443160999999 25.047412872300001 -23.366893768299999  -16.9388895035 24.417589187600001 -22.643891334549998  -21.919180870049999 6.3620944023149999 -3.684735178945  -22.133796691900002 6.4200398922000002 -3.7239887714400002  -22.437761306799999 6.4167842865000004 -3.6080787181899998  -22.282183647149999 6.3562452793100004 -3.52854013443  -22.440150260900001 6.3534846305850001 -3.4905003309250002  -22.714303970300001 6.5343255996699998 -3.8861515521999999  -22.626206398000001 6.4450981616950003 -3.6469300985349999  -22.853082656849999 6.474766254425 -3.7444546222700001  -16.022747039799999 24.7687683105 -22.597162246700002  -16.029872894299999 25.012468338000001 -22.611680984500001  -22.329750060999999 6.2889242172199999 -3.4136667251600001  -16.503083229075003 24.5850725174 -22.630804061875001  -17.494001865375001 24.528117656700001 -22.638260364525003  -17.483714421583333 24.261371930449997 -22.647668520616666  -17.235136032100002 24.523689269999998 -22.636639595049999  -18.253795623800002 24.711057662950001 -23.095530509950002  -18.3686561584 24.612550735500001 -22.9882564545  -17.106804847716667 23.897485097249998 -22.642074902849998  -15.9613161087 24.970264434850002 -22.599257469149997  -15.830544471750001 25.08549022675 -22.60146427155  -15.770965576149997 24.839594841024997 -22.582991123199999  -15.89208984375 24.757128715500002 -22.5849018097  -17.950551986699999 24.522291183499998 -22.651805877699999  -17.840886116050001 24.774272918699999 -22.68697738645  -17.4052276611 25.0793781281 -22.669816970799999  -17.782930374100001 24.941436767599999 -22.742084503200001  -22.717588424700001 6.2712469101000003 -3.3486061096199999  -22.883762359599999 6.29042768478 -3.40672755241  -22.743043899549999 6.3777115344999995 -3.5237060785300001  -5.7810196876499997 24.955219268800001 -23.591279983500002  -5.8125858306899998 25.014436721799999 -23.7078533173  -5.8649582862900003 25.030773162799999 -23.600570678699999  -16.588846206700001 24.911182403600002 -22.629297256499999  -16.700695037799999 25.127855300899999 -22.6241779327  -21.794544855733335 6.4203459421766667 -4.1004732449833332  -5.6995213031750005 25.008607864399998 -24.181643485999999  -5.74534034729 25.016920089700001 -24.018663406400002  -22.053936640433335 6.2105967203799999 -3.3652646541566664  -15.9815292358 24.6005153656 -22.591022491499999  -15.789820988966667 24.6039835612 -22.581265131633334  -17.107028961200001 24.619609832799998 -22.630912780799999  -16.764303207400001 24.976814269999998 -22.634099960299999  -17.023452758800001 25.115203857400001 -22.6310539246  -5.7976229190800002 24.8808889389 -23.27731132505  -14.8812580109 24.739805221600001 -22.5633468628  -14.8855657578 24.9008235931 -22.568319320699999  -14.9996509552 24.709423065199999 -22.57012557985  -0.59594263633133338 16.515057245866668 -14.915011405966666  -0.62333741784050001 16.656994819650002 -15.1195483208  -0.91802857319499998 16.426972707133334 -14.967919667533332  -8.257093429566666 24.887936909966665 -22.62874794006667  -7.9880585670500004 24.804738998400001 -22.622138977100001  -8.2405843734750004 25.18861103055 -22.642742157000001  -9.5929632186900005 24.942794799800001 -22.651130676299999  -9.6092945734666664 24.686122258500003 -22.646516799933334  -9.23121643066 25.0097541809 -22.6370429993  -9.3536475499499989 24.784917831399998 -22.645020802800001  -23.259907722450002 6.4590606689449999 -3.9074710607549998  -15.028248786900001 24.92894363405 -22.5683889389  -15.0485248566 24.776847839399998 -22.5662994385  -22.08440017705 6.3618211746249997 -3.5979679822900001  -21.742771148700001 6.2742388248449998 -3.594590067865  -21.875993092866668 6.2504426638300004 -3.4828791618333335  -22.893777847300001 6.5436162948599996 -3.9861142635349998  -23.050357818599998 6.30274009705 -3.4707369804399999  -21.742742538433333 6.0893200238533334 -3.2904051144933333  -12.061282157899999 24.829322814899999 -22.671653747600001  -12.07004451755 25.042970657350001 -22.683647155800003  -11.750774701433334 25.11921628313333 -22.683124542233333  -11.7240085602 24.901755332899999 -22.679970741250003  -13.373453140300001 25.043848037700002 -22.6809835434  -13.0197210312 24.987207412699998 -22.6875133514  -12.861689567599999 25.057193756099998 -22.688004493699999  -5.60501337051 24.797254562399999 -23.476902008100001  -16.186851501500001 24.793935775800001 -22.604932784999999  -15.550524075833332 24.696702957166668 -22.573005040466668  -16.249561786650002 24.684423923500002 -22.608774185175001  -16.701776504533331 24.718754450466665 -22.641410191866669  -0.023960199207099998 16.752031326299999 -15.0040597916  0.034931000322100003 16.703838348400001 -14.935885429400001  -14.5661935806 24.853206634500001 -22.573303222700002  -14.621026992799999 25.031608581499999 -22.566829681400002  -15.85727357865 24.396335601800001 -22.587279319750003  -14.7706279755 24.7481765747 -22.561124801599998  -15.926663875574999 24.0920982361 -22.592421054850004  -7.2149336338049999 24.477010726949999 -22.612328529350002  -14.801072438566665 24.534934997600001 -22.557178497299997  -16.218503952014284 23.82242257252857 -22.598449707028571  -16.752609252900001 24.942399978600001 -22.642271041899999  -16.82909870145 24.8386363983 -22.642936706550003  -17.159791310616665 24.346749305716667 -22.6458384196  -17.004147529600001 24.64200782775 -22.639112472500003  -15.535449028 24.972085952800001 -22.568667411850001  -17.497346242266666 24.706862131766666 -22.640963236499999  -7.6392087936399999 24.991409301800001 -22.6455917358  -7.8833589553800003 25.0393390656 -22.640466690099998  -7.5894458293899998 24.84202480315 -22.632395744299998  -13.611809730533333 24.737993876100003 -22.641105651833332  -13.7257715861 24.470503489199999 -22.602398554499999  -18.152528762799999 24.782993316700001 -23.102342605600001  -17.8414459229 25.0123691559 -23.173021316500002  -17.040940602611112 23.597722159500002 -22.628578397955554  -17.852749824549999 24.957609176649999 -24.108924865699997  -17.727397918699999 25.047760009800001 -24.212055206300001  -7.8762731552099998 24.780580520600001 -22.6311149597  -7.9660844802900002 24.934202194200001 -22.637493133500001  -15.552989006000001 25.187177658100001 -22.5831623077  -5.6609709262849996 24.884486198449999 -23.700803756700001  -5.54937648773 24.799249649 -23.696979522700001  -17.4593791962 24.912649154699999 -22.652944564799999  -17.258815765400001 25.0262126923 -22.6399841309  -10.464119911199999 25.184864997849999 -22.663029670699999  -10.157760620099999 24.993024825999999 -22.652519226100001  -10.179768880199999 25.187130610133334 -22.660661697366663  -17.780469894399999 24.9977436066 -24.345783233599999  -5.5747628212000002 24.906440734899999 -24.134607315099998  -5.61126470566 24.961545944200001 -24.245870590199999  -17.866083145099999 24.905294418299999 -25.027688980099999  -7.6821484565700002 24.758525848400001 -22.6276741028  -18.747783660900001 24.295587539700001 -22.907823562600001  -6.0945000648500001 25.008560180700002 -23.107917785600002  -17.7789726257 24.988740921000002 -22.824668884299999  -14.244581222500001 24.957689285299999 -22.594671249400001  -14.265287081433334 25.143829345699999 -22.601119359333335  -5.1303885777799998 24.452774683633333 -23.406635920199999  -4.8854217529274999 24.289843559274999 -23.424010753649998  -5.0121544837940002 24.398596572880002 -23.586885452280001  -17.538982391400001 25.0518417358 -22.712713241599999  -5.9060950279200002 24.8585414886 -22.999469757100002  -6.0699381828299996 24.9435024261 -22.9841308594  -8.75803565979 24.9800243378 -22.6262550354  -8.4603576660200002 24.830204009999999 -22.628704071000001  -8.6794881820699992 25.008291244500001 -22.631515502900001  -5.5716638565099998 24.994565963700001 -24.6522483826  -5.3711519241300003 24.859090805099999 -24.669418335  -5.6474843025199997 24.848752975499998 -23.586919784500001  -18.211050033599999 24.736577987699999 -23.240446090700001  -22.684054056766669 6.5819619496633335 -4.1130549112933332  -8.91610622406 24.953567504900001 -22.6240959167  -8.6892662048350005 24.77300167085 -22.628259658799998  -14.1287136078 24.483215332 -22.566467285200002  -13.974033546440001 24.073509597779999 -22.538567352299999  -14.194351434725 24.140239715600003 -22.529878139499999  -13.740532398199999 24.307205200200002 -22.584301948549999  -14.242504755666667 24.446444829333331 -22.557233174633335  -7.9099040031433345 24.519842147833334 -22.623154958099999  -7.5583262443549994 24.619720458949999 -22.626068115199999  -8.7458453178400006 25.217778205849999 -22.635517120399999  -13.946229219425001 24.508476734174998 -22.590287208550002  -9.0423879623399994 24.8763961792 -22.620908737200001  -9.0102310180699998 24.951349258400001 -22.620771408100001  -8.9661691188824992 24.645182132725001 -22.62835741045  -9.2307844162000006 24.689874649 -22.6392650604  -8.3465318679799996 25.0659141541 -22.638698577900001  -5.3524589538600003 24.8271665573 -24.546772956849999  -10.782866954799999 24.812557220499997 -22.65757179265  -10.9119777679 25.0233535767 -22.665369033800001  -10.708856582599999 25.049617767299999 -22.666427612300001  -13.43538236615 24.5703420639 -22.644189834599999  -13.362473010999999 24.751296997099999 -22.6634759903  -13.090567588833332 24.651961644466667 -22.668271382666671  -11.7616934776 24.7235488892 -22.67987442015  -21.795384089166664 6.3844156265266667 -3.8558737436899997  -14.239654541 24.7089138031 -22.577825546300001  -13.655823389699998 25.153076807666668 -22.673721313466668  -11.224039554600001 24.583626747149999 -22.67104911805  -10.8871860504 24.544075012199997 -22.660490989700001  -11.039300441750001 24.691383361850001 -22.667677879300001  -11.2512192726 24.806280136150001 -22.674043655399998  -17.753669738799999 25.076089859 -23.131362915  -17.666286468500001 25.133225441 -23.072520255999997  -17.565965652500001 25.0711174011 -22.757307052600002  -5.6558017730700003 25.0510482788 -24.6625289917  -0.56347090005900002 21.9426088333 -24.244963645950001  -0.417836010456 21.862659454300001 -24.247865676899998  -0.380154103041 21.875223159800001 -24.463607788099999  -0.48882839828725005 21.929138183599999 -24.455142974850006  -9.0538482666049998 25.137151718150001 -22.626904487600001  -10.473514238966667 24.893892288200004 -22.656296412166668  -10.549350738499999 25.085372924800001 -22.6624469757  -5.4442543983450005 24.668721199 -23.420884132399998  -5.4835250377650002 24.729618072499999 -23.590763092  -0.23711889982200002 16.773065567 -15.1013536453  -6.7199490070349999 24.95818805695 -22.681901931749998  -6.2051501274099996 24.6581325531 -22.6539363861  -0.55858689546600004 16.7555217743 -15.2368650436  -0.75615990161899993 16.6468467712 -15.201349258400001  -6.0264768600499998 25.032471656799999 -23.295094490050001  -11.2990207672 24.955923080400002 -22.683891296399999  -11.1195850372 25.005334854099999 -22.675247192400001  -6.2885293960600004 24.902446746799999 -22.789793014499999  -6.4023509025600003 25.110176086399999 -22.950384140000001  -6.6056394576999997 25.1554870605 -22.872819900500001  -0.44631278514900002 16.6427440643 -15.0082063675  -0.743153274059 16.390012741100001 -14.8249101639  -17.758703231799998 25.063774108899999 -23.4631576538  -7.30244779587 25.051156997700001 -22.644212722799999  -9.375906944275 25.057582855250001 -22.644539833049997  -6.7609052658066666 24.520476659133333 -22.615158716833335  -6.4178414344750001 24.467671394349999 -22.609656333899999  -6.4123040835066663 24.241720835366667 -22.610743840533331  -6.7331542968774993 24.241804599775001 -22.606988906849999  -23.5557594299 6.2711052894600003 -3.7221717834499999  -23.4440689087 6.1914367675799999 -3.4866015911099999  -6.1309223174999996 24.853498458899999 -22.8196983337  -6.1564331054699997 25.023853301999999 -23.063520431499999  -7.0309720039399997 25.0953063965 -22.6912822723  -15.046773910500001 25.134105682400001 -22.5703239441  -17.72359371185 24.6059541702 -22.647624969500001  -17.954127311699999 24.470624923700001 -22.647840499899999  -5.5455350875900002 24.845243453999998 -24.017911910999999  -14.5789861679 24.8288097382 -22.561702728299998  -14.247559070599999 24.849144935600002 -22.5962715149  -14.78647995 24.9861335754 -22.560251235999999  -14.84259557725 25.226597785949998 -22.565009117100001  -12.751662731150001 24.923076629600001 -22.683236122149999  -17.4037647247 25.272842407199999 -22.835781097400002  -10.975194931000001 24.954250335699999 -22.673440933199998  -5.2898626327500002 24.8013629913 -25.2501945496  -10.12602329255 24.748999595600001 -22.6485261917  -9.8274736404399992 25.209140777599998 -22.652818679799999  -12.348085403400001 25.2024288177 -22.682094574000001  -6.23620462418 24.9664497375 -22.8872737885  -6.2911906242400004 25.0123233795 -22.913860321000001  -6.2464084625199998 25.018875122099999 -22.960176467899998  -0.42555065453050001 16.740698814399998 -15.14187955855  -12.6072273254 25.107536315899999 -22.688077926599998  -0.0305560491979005 16.518884658849998 -14.7500882149  -12.5960836411 24.8608360291 -22.6821975708  -12.674856503800001 24.641434351599997 -22.670125325499999  -13.6692537069375 24.036202669137502 -22.567641019824997  -11.4699234962 24.745399475100001 -22.675649642949999  -11.4314317703 25.051017761200001 -22.6671867371  0.102888599038 16.606296539300001 -14.819586753799999  0.046768799424200001 16.472145080600001 -14.6984806061  0.043244801461699997 16.861043930099999 -15.158752441400001  -0.019245700910699999 16.835012435900001 -15.122789382900001  0.0111828995869 16.865320205700002 -15.1683654785  -11.590290069566668 25.740657170600002 -22.688794453933337  -11.34578323365 25.574801444999999 -22.684115409850001  -11.547249794000001 25.503293991100001 -22.688108444200001  -11.401863575 25.3637371063 -22.674429893499997  -5.88859367371 25.121799468999999 -23.930608749400001  -5.79538631439 25.0262718201 -23.801643371600001  -5.74534034729 25.016920089700001 -24.018663406400002  -17.364001750949999 25.368345737475 -23.328777313224997  -17.138875484474998 25.533941268924998 -23.441062927250002  -17.308047485339998 25.399455642720003 -23.554886627199998  -17.817083358800001 25.031555175800001 -23.270683288600001  -17.787443160999999 25.047412872300001 -23.366893768299999  -17.7035198212 25.113368988000001 -23.326398849499999  -17.5711174011 25.199962616000001 -23.0461997986  -17.479043960599999 25.2618026733 -23.003356933599999  -17.303880691500002 25.3916492462 -22.919765472400002  -17.645048141499998 25.161231994600001 -23.188425064099999  -17.60474967955 25.187357902550001 -23.33398818965  -14.271555900599999 25.4406604767 -22.600383758500001  -13.9774208069 25.319185257000001 -22.639484405499999  -14.265287081433334 25.143829345699999 -22.601119359333335  -17.127125740049998 25.545264244050003 -23.106865882849998  -17.28142356875 25.428151130700002 -23.070737838749999  -17.198127746600001 25.4792613983 -22.977977752699999  -6.9669246673600007 25.2954950333 -22.847750663749999  -6.7628302574150005 25.329600334150001 -23.0083761215  -6.7464056015000002 25.268686294599998 -22.909006118800001  -8.6240272521999994 25.570425033599999 -22.670101165799998  -8.8453321456899996 25.565655390433335 -22.663567225133335  -8.7810821533199999 25.387651443500001 -22.650014877299999  -11.062309265133335 25.654633839900001 -22.681542714433334  -10.771367073033332 25.92986742656667 -22.686255137100002  -10.740385055533332 25.605210622133331 -22.673247019433333  -11.079189777349999 25.966969490049998 -22.686024665849999  -10.210887591066667 25.509675979600001 -22.666727701833334  -10.511096954325 25.518540382400001 -22.67223882675  -10.464119911199999 25.184864997849999 -22.663029670699999  -17.4037647247 25.272842407199999 -22.835781097400002  -17.227935791 25.339393615700001 -22.729890823400002  -17.2100200653 25.4531726837 -22.8763484955  -14.544908841466667 25.201759338399999 -22.578207651766665  -14.2682323456 25.4694824219 -22.600204467800001  -14.566572189350001 25.540348052950002 -22.579195976299999  -17.165992259974999 25.499077796924997 -23.673949718475001  -15.830544471750001 25.08549022675 -22.60146427155  -16.029872894299999 25.012468338000001 -22.611680984500001  -16.116996765149999 25.198366165149999 -22.633116722099999  -17.8414459229 25.0123691559 -23.173021316500002  -17.675790786699999 25.130287170399999 -23.423007965099998  -17.630722999549999 25.137552261350002 -23.894608497649998  -17.785476684599999 25.030979156499999 -23.6954078674  -17.8137550354 25.014377593999999 -23.599472045900001  -17.715707778899997 25.088277816800002 -23.60725307465  -17.728673934900002 25.063865661600001 -23.886728286699999  -17.727397918699999 25.047760009800001 -24.212055206300001  -17.504343509649999 25.219393253324995 -24.160826683074998  -17.189392089799998 25.223373413099999 -22.6573505402  -17.258815765400001 25.0262126923 -22.6399841309  -17.027143478399999 25.198041915899999 -22.634010314899999  -16.549692153900001 25.294179916400001 -22.612604141199999  -16.208177566500002 25.017988205000002 -22.6170330048  -17.666286468500001 25.133225441 -23.072520255999997  -17.753669738799999 25.076089859 -23.131362915  -17.559574127200001 25.2267341614 -23.147369384800001  -17.350427627599998 25.2267932892 -22.722494125400001  -17.4052276611 25.0793781281 -22.669816970799999  -17.538982391400001 25.0518417358 -22.712713241599999  -17.565965652500001 25.0711174011 -22.757307052600002  -16.966632843025 25.665709495550001 -23.359284400924999  -17.164566421500002 25.521791076660001 -23.244423294059999  -15.2979602814 25.0371227264 -22.567953109699999  -15.26356601715 25.277213096600001 -22.569634437600001  -15.552989006000001 25.187177658100001 -22.5831623077  -14.84259557725 25.226597785949998 -22.565009117100001  -15.046773910500001 25.134105682400001 -22.5703239441  -17.2389087677 25.294286727900001 -22.703176498400001  -16.53038978575 25.078163146999998 -22.629042625399997  -16.700695037799999 25.127855300899999 -22.6241779327  -17.023452758800001 25.115203857400001 -22.6310539246  -17.023277282700001 25.364622116100001 -22.6591663361  -17.080127716100002 25.021730423000001 -22.635747909500001  -16.325802803050003 25.107494354250001 -22.62902069095  -11.00335741045 25.431447029099999 -22.677110671999998  -10.974764823899999 25.20893383025 -22.670724868800001  -11.1952447891 25.342682838450003 -22.681677818299999  -14.4134683609 27.3484668732 -22.568122863799999  -14.296836853 27.4326877594 -22.584678649899999  -14.134782791099999 27.216976165799998 -22.581422805799999  -14.4005947113 27.104825973499999 -22.5641021729  -12.080740928599999 25.303728103600001 -22.686878204300001  -12.07004451755 25.042970657350001 -22.683647155800003  -11.727390289300001 25.2930164337 -22.677007675199999  -10.179768880199999 25.187130610133334 -22.660661697366663  -9.9112858772300001 25.59544086455 -22.660851478550001  -9.8274736404399992 25.209140777599998 -22.652818679799999  -10.763544559450001 25.285843849149998 -22.666644096349998  -10.708856582599999 25.049617767299999 -22.666427612300001  -10.9119777679 25.0233535767 -22.665369033800001  -13.959996541366666 25.107633590700001 -22.637884140033332  -14.2846107483 25.682853698700001 -22.603979110699999  -11.38457870485 26.358209610000003 -22.6974020004  -11.444422086066666 26.043632507366667 -22.689113616933337  -11.586812973000001 26.246706008899999 -22.694849014300001  -11.1001601219 26.677851676899998 -22.709933280950001  -11.859993616733334 27.034406026200003 -22.705370585133334  -11.3290739059 26.599811553999999 -22.700540542599999  -17.758703231799998 25.063774108899999 -23.4631576538  -5.9466466903699997 25.119752883899999 -23.711473465000001  -5.9147624969499999 25.0612926483 -23.595396041899999  -6.0578002929699997 25.159988403300002 -23.593164443999999  -6.8195300102249998 25.417124748200003 -23.207616805999997  -6.999784231185 25.409151077250002 -23.042753219600002  -11.820778528833332 26.046833038333336 -22.698924382533335  -17.8267536163 25.018560409500001 -23.3370857239  -11.5359582901 25.254304885900002 -22.682973861699999  -5.7427482605 25.067255020099999 -24.250221252399999  -5.8195621967299997 25.091264724749998 -24.088037490849999  -11.793970584850001 25.494373321525 -22.68673944475  -6.3862266540533339 25.344212849933331 -23.631100336700001  -6.4731941223150002 25.344243049600003 -23.45585823055  -6.5899477005050002 25.4184064865 -23.586100578349999  -12.094018459299999 25.808542251599999 -22.697954177850001  -5.5992646217299997 25.012462616000001 -24.5661621094  -5.6862607002300001 25.069171905499999 -24.465431213399999  -5.6173038482699997 25.005081176800001 -24.430791854900001  -11.1195850372 25.005334854099999 -22.675247192400001  -11.69000673295 26.619541168200001 -22.69738864895  -8.7458453178400006 25.217778205849999 -22.635517120399999  -11.323073387100001 25.156726837200001 -22.6745262146  -11.075584411633335 26.3241888682 -22.697448094666665  -10.7748451233 26.818214416499998 -22.7196331024  -10.798817634599999 26.575946807850002 -22.703434944150001  -6.2464084625199998 25.018875122099999 -22.960176467899998  -6.4023509025600003 25.110176086399999 -22.950384140000001  -6.2911906242400004 25.0123233795 -22.913860321000001  -9.598202705384999 26.130029678349999 -22.678776741050001  -9.6133699417099994 25.8436565399 -22.669406890899999  -9.3467779159499997 25.804609298700001 -22.6664485931  -9.3507642745999995 26.0643348694 -22.681295394900001  -7.30244779587 25.051156997700001 -22.644212722799999  -7.1716694831799996 25.2605705261 -22.769361495999998  -7.0309720039399997 25.0953063965 -22.6912822723  -10.792484283449999 26.284211158749997 -22.695147514350001  -6.1944646835350001 25.155903816199999 -23.349214553849997  -6.0264768600499998 25.032471656799999 -23.295094490050001  -12.348085403400001 25.2024288177 -22.682094574000001  -5.6995213031750005 25.008607864399998 -24.181643485999999  -10.549350738499999 25.085372924800001 -22.6624469757  -11.257637023899999 25.103376388499999 -22.675979614300001  -11.4314317703 25.051017761200001 -22.6671867371  -6.7810130119299998 25.134372711200001 -22.753597259500001  -13.655823389699998 25.153076807666668 -22.673721313466668  -6.6056394576999997 25.1554870605 -22.872819900500001  -12.388882637 25.2125530243 -22.688982009899998  -12.4817943573 25.1668376923 -22.689641952500001  -11.750774701433334 25.11921628313333 -22.683124542233333  -10.595255851699999 25.279582977299999 -22.668663024899999  -12.6072273254 25.107536315899999 -22.688077926599998  -9.0538482666049998 25.137151718150001 -22.626904487600001  -9.375906944275 25.057582855250001 -22.644539833049997  -9.23121643066 25.0097541809 -22.6370429993  -5.8138365745499998 25.155317306499999 -24.556428909299999  -5.6558017730700003 25.0510482788 -24.6625289917  -12.0776576996 25.489734649700001 -22.694110870399999  -12.158102035500001 25.424880981400001 -22.696645736699999  -9.576712131499999 25.13599967955 -22.662898063649997  -12.3548707962 25.4537162781 -22.694711685200001  -8.8979997634900005 25.762298584 -22.680192947399998  -8.9916687011699992 25.3388738632 -22.64506244655  -8.3465318679799996 25.0659141541 -22.638698577900001  -8.6794881820699992 25.008291244500001 -22.631515502900001  -7.3955483436599998 25.2283325195 -22.6855010986  -7.3764972686799997 25.031789779699999 -22.633378982499998  -7.6597048441566669 25.138254165633331 -22.657531102500002  -5.9276993274700001 25.1710100174 -24.08256721495  -7.8833589553800003 25.0393390656 -22.640466690099998  -8.0109174251550002 25.13169193265 -22.652714729300001  -8.2405843734750004 25.18861103055 -22.642742157000001  -6.1564331054699997 25.023853301999999 -23.063520431499999  -6.4488549232499999 25.1721515656 -23.005920410200002  -6.2562127113299999 25.094781875599999 -23.093891143800001  -6.5608701705900003 25.1995449066 -22.938844680799999  -6.5653910636899999 25.278259277299998 -23.075613021900001  -6.41084051132 25.1864871979 -23.084724426299999  -6.4307408332799998 25.2536754608 -23.210550308199998  -5.8125858306899998 25.014436721799999 -23.7078533173  -5.8649582862900003 25.030773162799999 -23.600570678699999  -13.2708883286 25.2429561615 -22.6929512024  -12.861689567599999 25.057193756099998 -22.688004493699999  -13.373453140300001 25.043848037700002 -22.6809835434  -6.0945000648500001 25.008560180700002 -23.107917785600002  -6.3076853752149997 25.1686782837 -23.194223403900001  -6.1253623962399999 25.0683574677 -23.2267284393  -11.290293693500001 25.853193283100001 -22.692869186399999  -17.752552032499999 25.014316558800001 -24.440448760999999  -17.697353363000001 25.063011169399999 -24.306537628200001  -5.7619242668200004 25.011432647700001 -23.922473907499999  -6.0343089103700001 25.0951709747 -23.4710521698  -5.9212064743050004 25.01620674135 -23.450328826899998  -5.64842844009 25.015787124599999 -24.3561439514  -5.6030049324000002 25.009117126500001 -25.0486736298  -17.668251037600001 25.078792572000001 -24.4010639191  -17.353054809579998 25.339021301280003 -24.056861877439996  -5.97950458527 25.177099227900001 -23.826297759999999  -14.621026992799999 25.031608581499999 -22.566829681400002  3 0 1 2  3 3 4 5  3 6 7 8  3 7 9 8  3 10 11 12  3 13 14 15  3 17 16 18  3 19 20 21  3 21 22 19  3 1 23 2  3 23 24 2  3 26 25 27  3 27 25 28  3 29 31 30  3 31 29 32  3 6 33 7  3 34 36 35  3 37 38 39  3 40 41 42  3 42 1 40  3 44 43 45  3 45 43 46  3 49 47 48  3 52 50 51  3 50 53 51  3 55 56 54  3 56 57 54  3 59 58 60  3 36 34 51  3 61 63 62  3 64 56 65  3 66 60 58  3 67 19 68  3 69 70 46  3 65 56 55  3 71 72 73  3 73 74 71  3 77 76 75  3 75 76 78  3 61 75 78  3 78 63 61  3 79 69 43  3 38 37 80  3 37 81 80  3 82 73 83  3 73 82 84  3 85 86 87  3 88 89 65  3 91 90 92  3 93 37 39  3 94 95 96  3 18 97 48  3 48 97 98  3 65 99 64  3 100 0 101  3 102 104 103  3 2 102 101  3 24 105 106  3 106 105 107  3 35 108 109  3 103 104 110  3 111 89 88  3 112 113 114  3 115 17 13  3 17 116 13  3 64 117 56  3 118 119 109  3 41 40 0  3 118 121 120  3 123 122 124  3 124 125 123  3 126 128 127  3 70 130 129  3 129 130 131  3 132 53 133  3 53 50 133  3 18 48 17  3 0 134 41  3 90 135 136  3 118 108 121  3 137 103 110  3 31 111 88  3 138 139 121  3 140 141 142  3 142 20 140  3 143 46 43  3 11 127 128  3 145 146 144  3 149 147 148  3 151 152 150  3 153 154 155  3 154 156 155  3 12 157 10  3 99 65 89  3 0 40 1  3 158 9 7  3 7 159 158  3 0 2 101  3 102 160 101  3 160 102 103  3 162 161 160  3 161 100 160  3 106 128 104  3 67 20 19  3 128 126 104  3 159 146 158  3 158 146 145  3 33 61 7  3 163 107 105  3 137 162 160  3 164 127 11  3 106 2 24  3 137 165 162  3 167 166 168  3 168 166 169  3 171 172 170  3 173 130 70  3 66 58 49  3 35 36 174  3 175 139 77  3 35 174 176  3 36 176 174  3 111 177 89  3 175 75 33  3 179 178 25  3 181 145 180  3 77 139 182  3 180 145 183  3 61 146 7  3 146 159 7  3 175 77 75  3 76 77 182  3 182 184 76  3 83 185 82  3 185 84 82  3 145 144 183  3 62 146 61  3 144 146 186  3 186 146 62  3 138 121 108  3 30 184 29  3 29 182 32  3 182 29 184  3 30 55 187  3 33 75 61  3 189 177 188  3 67 114 190  3 176 111 31  3 191 190 99  3 118 120 192  3 55 88 65  3 30 31 88  3 88 55 30  3 46 143 69  3 89 191 99  3 17 115 16  3 68 193 112  3 73 84 74  3 64 99 190  3 194 73 195  3 73 194 196  3 196 194 195  3 5 198 197  3 16 199 200  3 201 56 117  3 203 202 60  3 151 204 195  3 195 205 151  3 57 56 201  3 114 68 112  3 68 114 67  3 118 206 119  3 206 118 192  3 91 207 208  3 6 8 192  3 79 173 70  3 199 115 13  3 209 122 210  3 199 16 115  3 213 211 212  3 24 23 105  3 86 214 87  3 8 206 192  3 214 203 87  3 203 214 86  3 58 47 49  3 203 86 202  3 215 216 135  3 60 202 59  3 217 85 87  3 79 70 69  3 218 196 195  3 14 116 219  3 43 44 220  3 90 91 208  3 219 221 14  3 142 21 20  3 222 223 181  3 224 225 226  3 16 200 18  3 125 124 227  3 229 228 220  3 204 218 195  3 230 231 232  3 234 233 93  3 208 207 235  3 23 1 42  3 17 48 236  3 141 133 142  3 23 237 105  3 221 219 125  3 238 239 230  3 241 240 242  3 243 240 241  3 240 244 242  3 245 246 218  3 247 230 232  3 198 5 248  3 238 250 249  3 249 252 251  3 253 232 150  3 232 231 150  3 39 38 254  3 257 256 255  3 259 197 258  3 258 197 198  3 259 258 260  3 261 169 166  3 0 100 262  3 170 259 171  3 222 181 263  3 5 170 264  3 265 266 267  3 267 268 265  3 270 269 13  3 216 38 80  3 125 227 271  3 233 272 93  3 273 274 275  3 275 276 273  3 135 216 80  3 234 39 254  3 238 230 277  3 230 247 277  3 238 277 250  3 83 73 218  3 218 73 196  3 278 211 279  3 280 173 79  3 281 173 280  3 69 143 43  3 282 28 178  3 28 25 178  3 93 39 234  3 94 283 284  3 263 181 244  3 81 37 93  3 45 129 131  3 285 286 148  3 151 205 152  3 45 287 44  3 289 288 268  3 291 292 290  3 28 293 147  3 27 28 294  3 28 147 294  3 34 52 51  3 295 49 48  3 73 72 296  3 155 297 153  3 298 299 74  3 300 299 301  3 70 129 45  3 45 46 70  3 133 141 188  3 106 104 102  3 303 10 302  3 304 229 305  3 283 306 72  3 158 145 307  3 269 200 199  3 90 136 92  3 86 85 217  3 193 210 308  3 308 210 309  3 199 13 269  3 235 130 173  3 207 91 130  3 207 130 235  3 90 310 135  3 215 135 310  3 228 43 220  3 170 5 197  3 193 19 210  3 15 270 13  3 311 244 181  3 14 13 116  3 312 3 222  3 3 312 4  3 170 197 259  3 181 313 145  3 313 181 314  3 118 109 108  3 180 311 181  3 210 124 209  3 124 122 209  3 122 309 210  3 34 35 109  3 19 22 210  3 22 21 210  3 307 313 314  3 133 188 132  3 264 3 5  3 3 223 222  3 307 9 158  3 8 9 307  3 313 307 145  3 259 172 171  3 172 259 260  3 260 315 172  3 295 48 98  3 125 271 316  3 316 221 125  3 221 316 14  3 267 289 268  3 317 289 267  3 289 317 256  3 256 317 267  3 318 272 233  3 155 156 252  3 320 212 319  3 155 252 249  3 255 278 279  3 279 257 255  3 321 166 167  3 253 150 152  3 322 291 290  3 305 322 304  3 323 322 324  3 94 290 292  3 229 220 305  3 322 323 291  3 322 305 324  3 44 287 220  3 290 94 96  3 284 95 94  3 283 94 306  3 155 249 277  3 249 250 277  3 325 148 293  3 293 282 325  3 315 326 172  3 327 25 26  3 328 321 326  3 326 315 328  3 213 212 320  3 72 306 296  3 212 211 278  3 329 321 328  3 329 166 321  3 241 330 243  3 331 265 332  3 332 265 268  3 168 169 332  3 268 288 332  3 288 289 332  3 256 267 255  3 261 332 169  3 331 332 261  3 320 154 153  3 320 319 154  3 320 153 297  3 327 333 25  3 327 26 334  3 333 327 334  3 337 336 335  3 148 325 285  3 149 294 147  3 152 205 195  3 178 336 282  3 282 293 28  3 147 293 148  3 11 128 107  3 107 128 106  3 107 12 11  3 164 11 10  3 134 0 262  3 106 102 2  3 137 160 103  3 160 100 101  3 338 340 339  3 339 340 341  3 342 343 344  3 345 346 347  3 348 350 349  3 353 352 351  3 354 355 350  3 356 358 357  3 359 360 361  3 364 363 362  3 367 365 366  3 368 370 369  3 371 368 369  3 374 372 373  3 377 375 376  3 379 378 356  3 378 379 380  3 381 347 346  3 383 382 384  3 385 354 348  3 349 350 386  3 386 387 388  3 355 386 350  3 388 389 390  3 391 387 392  3 387 393 392  3 394 395 396  3 397 398 384  3 400 399 401  3 403 402 404  3 404 402 405  3 385 400 401  3 401 354 385  3 346 407 406  3 408 409 410  3 411 408 412  3 409 408 411  3 376 375 402  3 402 413 376  3 375 405 402  3 403 413 402  3 413 403 394  3 415 414 397  3 383 384 398  3 396 395 416  3 417 394 396  3 395 418 416  3 416 415 397  3 403 395 394  3 397 419 398  3 397 414 419  3 399 353 351  3 359 407 360  3 422 421 420  3 361 360 353  3 345 407 346  3 423 425 424  3 423 426 425  3 429 427 428  3 431 430 432  3 434 433 435  3 435 433 421  3 422 339 341  3 357 358 436  3 358 356 378  3 379 437 380  3 438 440 439  3 443 441 442  3 390 389 444  3 445 447 446  3 449 363 448  3 439 450 338  3 349 451 348  3 390 444 386  3 340 452 341  3 452 340 429  3 368 420 370  3 453 454 344  3 455 340 338  3 458 457 456  3 338 450 459  3 460 461 462  3 463 435 421  3 449 362 363  3 464 443 442  3 465 365 367  3 422 341 466  3 440 450 439  3 371 467 439  3 467 438 439  3 468 441 469  3 470 471 472  3 438 443 464  3 441 443 469  3 473 474 475  3 476 473 475  3 455 429 340  3 341 452 466  3 477 479 478  3 469 443 480  3 443 467 480  3 447 481 482  3 483 428 427  3 387 386 393  3 344 484 453  3 485 433 434  3 486 466 487  3 362 479 488  3 357 436 489  3 490 364 488  3 492 483 491  3 493 429 428  3 494 373 370  3 433 494 370  3 492 495 483  3 498 496 497  3 499 461 460  3 460 500 499  3 429 455 427  3 459 455 338  3 388 387 391  3 455 501 427  3 427 501 502  3 388 390 386  3 466 486 422  3 503 432 497  3 504 491 502  3 433 420 421  3 433 370 420  3 505 366 365  3 506 496 465  3 465 508 507  3 509 511 510  3 362 488 364  3 493 487 429  3 430 372 374  3 512 342 454  3 511 513 510  3 515 513 514  3 487 463 486  3 471 470 516  3 509 510 477  3 517 471 516  3 516 518 517  3 471 517 519  3 519 490 471  3 517 520 519  3 520 517 521  3 520 521 522  3 521 517 518  3 446 524 523  3 525 527 526  3 521 516 528  3 518 516 521  3 529 522 528  3 528 522 521  3 530 529 528  3 531 371 439  3 523 445 446  3 532 392 533  3 534 344 343  3 344 454 342  3 482 535 447  3 535 536 447  3 446 536 524  3 447 522 481  3 453 484 537  3 481 522 529  3 538 499 500  3 537 462 461  3 481 529 530  3 528 482 530  3 506 465 367  3 482 536 535  3 533 539 532  3 467 443 438  3 393 386 540  3 481 530 482  3 447 445 541  3 372 430 431  3 397 396 416  3 444 349 386  3 371 480 467  3 394 417 413  3 542 358 378  
