ply
format ascii 1.0
comment bbox -25.734742  -20.766233 0.194596  22.586962 -25.957464  -20.223450 
element vertex 196
property double x
property double y
property double z
element face 185
property list uchar int vertex_index
end_header
-25.453789710999999 1.575867652895 -25.67892551425  -24.982536315899999 1.59205126762 -25.680152893100001  -25.30820560455 2.0529550909999998 -25.6922826767  -24.551620483400001 19.461418151899998 -25.647706985500001  -24.491540908800001 19.5322742462 -25.614273071300001  -24.634542465199999 19.426792144749999 -25.579621315000001  -23.709971427950002 20.229265212999998 -25.267437934900002  -23.688224792500002 20.2640323639 -25.096218109100001  -23.761051177999999 20.2034626007 -25.1328125  -23.738759517649999 20.189100265524999 -25.415413856499999  -23.530072212225001 20.34403181075 -25.445064544675002  -23.897064209000003 20.070452372233333 -25.379117965700001  -23.675070762650002 20.2151174545 -25.5708398819  -24.227079391499998 19.793268203699999 -25.475172042800001  -24.120567321799999 19.870250701900002 -25.528118133500001  -24.1886062622 19.806531906099998 -25.563299179099999  -24.55158233645 19.514335632350001 -25.482769012449999  -24.708763122600001 19.383501052900002 -25.509664535500001  -24.670426686633334 19.424026489233331 -25.384317398066667  -24.860915501899999 19.27431551616667 -25.234547297133332  -24.852654457100002 19.292262077349999 -25.1058654785  -24.941640853900001 19.223997116100001 -25.097604751599999  -24.3630752563 19.666152954099999 -25.545578002900001  -24.295066833500002 19.729619979900001 -25.510385513300001  -24.256288528399999 19.742624282800001 -25.5983772278  -24.806875228900001 3.7432713508600002 -25.739948272700001  -24.617080688449999 3.8219488859199999 -25.742963790899999  -24.823589325 3.6481702327700001 -25.737527847300001  -24.995836257899999 4.2465605735800001 -25.754175186200001  -24.9590978622 19.189311027549998 -25.267339706400001  -24.524095535299999 19.5678749084 -25.096811294599998  -24.628347396900001 19.488273620600001 -25.0431880951  -24.57619285585 19.514360427850001 -25.177386283849998  -22.6906013489 21.082555770900001 -25.020374298099998  -22.6575164795 21.099689483599999 -25.110937118500001  -22.7276687622 21.0348320007 -25.146873474100001  -23.253974437700002 1.0605071336035001 -25.666680336025003  -23.025828679399996 1.5625102519966667 -25.680828730266668  -23.512234210974999 1.6347712278374997 -25.682919025425001  -24.232131958 2.46129608154 -25.705600738499999  -24.121543884300003 2.7087212800950002 -25.712294578600002  -23.738145828233332 2.5601277351366662 -25.708258310966666  -23.833445231133336 20.142662684133331 -25.169236501066667  -24.399583816500002 19.650850296000002 -25.457061767599999  -22.760084152200001 21.017055511500001 -25.056241989099998  -25.677886232959793 6.998254851278336 -21.817270816098635  -24.900941848799999 3.39642548561 -25.730625152599998  -24.958559989899999 3.196499824525 -25.724548339799998  -24.111099243200002 19.919179916400001 -25.097459793100001  -24.0406417847 19.9813499451 -25.061349868800001  -23.992509841900002 20.010384559649999 -25.19667053225  -24.062869071999998 19.948217392 -25.232637405399998  -23.888845443699999 20.090793609599999 -25.25053596495  -23.938060760500001 20.062982559200002 -25.1155490875  -24.813331603999998 19.305158615100002 -25.456504821799999  -24.776128768900001 19.320112228399999 -25.544734954799999  -24.880762100199998 19.241952896099999 -25.4916324615  -24.133805274949999 19.886779785150001 -25.26870059965  -21.3606643677 22.192945480300001 -25.204111099199999  -21.2525806427 22.271825790400001 -25.258008956899999  -21.189791679400003 22.323861122099999 -25.174922943150001  -21.59639930725 21.992004394550001 -25.2679862976  -21.567497253399999 22.027793884299999 -25.0943889618  -21.757118225100001 21.854541778600002 -25.295095443699999  -24.629489898700001 19.4622650146 -25.258132934599999  -24.733081817599999 19.382383346600001 -25.204517364499999  -24.948688507100002 19.1794090271 -25.526847839399998  -24.982421875 19.160785675 -25.437870025599999  -25.0537090302 19.101779937700002 -25.4738864899  -24.559301376299999 19.550943374599999 -25.0073280334  -23.851634979250001 20.075251579300001 -25.553333282499999  -23.743986129749999 20.151486396800003 -25.606165885899998  -23.997425079350002 19.985609054599998 -25.412140846250001  -23.9400691986 20.005643844600002 -25.5446548462  -24.2242193222 3.7738735675849999 -25.741929054300002  -23.625758171074999 3.7007145285599998 -25.740445613875  -23.676921844500001 3.420174479485 -25.732439994850001  -24.0062904358 3.1308326721200004 -25.724072138466667  -22.608561515799998 21.125844001800001 -25.2466506958  -24.274572372450002 19.763390541050001 -25.3405008316  -24.188991546600001 19.835557937600001 -25.349737167400001  -21.3282318115 22.209257125899999 -25.294889450100001  -24.9013900757 19.184228897099999 -25.612741470300001  -25.0131397247 19.113489151 -25.5612697601  -23.10508728025 20.680737495399999 -25.497977256799999  -23.051364898700001 20.7357368469 -25.417394638099999  -22.909996032700001 20.8297634125 -25.560277938799999  -21.292097091700001 22.2225990295 -25.384798049899999  -21.435888290400001 22.130176544200001 -25.240962982199999  -24.978311538700002 19.208158492999999 -25.008611679099999  -25.0142650604 19.1915302277 -24.919326782199999  -25.048377990700001 19.147314071699999 -25.044744491599999  -24.121674537650001 19.885784149199999 -25.42155265805  -24.913024902299998 19.221900939899999 -25.4022483826  -22.998185157800002 20.75857448575 -25.551316261300002  -23.0501289368 20.7020301819 -25.631359100299999  -21.464183807400001 22.110464096099999 -25.149276733400001  -21.416303634599998 22.1528358459 -25.020189285299999  -22.3408546448 21.3750247955 -25.057006835900001  -22.500310897849999 21.238049507150002 -25.084192276  -22.380411148066671 21.328509012866665 -25.183986028066666  -24.368028640766667 3.3652986685433333 -25.729954401633336  -24.618310928300001 3.2366766929600002 -25.7263069153  -21.523695945749999 22.056458473199999 -25.231665611299999  -22.063005447399998 21.604404449499999 -25.1302070618  -22.015676498399998 21.63099861145 -25.266457557700001  -25.0131034851 19.138980865499999 -25.348058700599999  -25.061907768250002 19.108942031849999 -25.213678360000003  -22.050297737099999 21.579724311850001 -25.392029762249997  -22.260617256149999 21.41893100735 -25.283763885500001  -22.189638137800003 21.4836769104 -25.247783660899998  -22.2372913361 21.4570674896 -25.1116199493  -22.435385704049999 21.2728919983 -25.2653398514  -21.388412475599999 22.172870635999999 -25.112218856799998  -21.514767646800003 22.011559486399999 -25.44573688505  -21.243446350100001 22.226066589399998 -25.472150802600002  -21.219793319699999 22.2877502441 -25.348672866800001  -21.234264373799999 22.296218872099999 -25.037454605099999  -24.869385719299999 1.953189015385 -25.690155982949999  -25.1989059448 2.4138062000299998 -25.7026042938  -24.82583141325 15.0885381699 -25.886322975150001  -25.078542709400001 14.948394775400001 -25.892408370999998  -25.164680480949997 15.272167205799999 -25.877273559549998  -24.5982952118 19.483127593999999 -25.348102569600002  -21.7192420959 21.866785049400001 -25.3845005035  -21.638385772700001 21.905667305000001 -25.4544210434  -24.571425437924997 4.2616837024674998 -25.754985809324999  -24.5134147644 4.7597219467160006 -25.768938827520003  -25.10985660555 4.6163945198049996 -25.763875961300002  -22.093908309900002 21.586050033599999 -25.0390377045  -24.756899833649999 19.353432655299997 -25.375425338749999  -22.5550022125 21.1823387146 -25.165628433199998  -23.513856887800003 3.9315148592 -25.74730968475  -23.646054585766667 4.3235947291066665 -25.757735570233333  -24.123274485266666 4.2065455118833333 -25.754201253266668  -23.583951314299998 3.0660919348400006 -25.722424825033332  -23.9714241028 20.044868469200001 -25.025499343900002  -25.052652359 2.8998222351099998 -25.716768264799999  -24.3881797791 1.9711499214199999 -25.691747665400001  -24.26597690585 2.2017378807100001 -25.69764041905  -23.932054519699999 1.8735837936399999 -25.688938140899999  -24.026056289700001 1.64971339703 -25.6829319  -23.231333923340003 2.581284236908 -25.70952758788  -25.196497599299999 3.826732476553333 -25.741591135666667  -25.055887222300001 1.3549740314500001 -25.673337936399999  -20.766233444200001 22.5869617462 -25.5601959229  -20.882726669299998 22.514411926299999 -25.507852554300001  -20.8162708282 22.584585189799999 -25.4729576111  -25.200278282200003 5.21566057205 -25.78071403505  -24.728637695300002 5.2199759483300001 -25.7815971375  -23.669048309324999 2.1170630454999997 -25.6959757805  -24.4683990479 19.588289260900002 -25.492477417  -24.51445007325 19.556579589849999 -25.357627868649999  -25.136541366549999 13.12196063995 -25.957464218150001  -24.923750877350002 13.397534370400001 -25.949366569550001  -25.27400779725 13.60592365265 -25.940392494200001  -23.061532974249999 2.0306134819999997 -25.694146156350001  -24.839210510299999 19.2525691986 -25.578844070399999  -24.7275371552 19.323617935200001 -25.6304035187  -23.870162487024999 4.7230472564700001 -25.769000530249997  -24.8416423798 19.281200408899998 -25.3661518097  -23.795917510999999 20.186933517500002 -25.043073654200001  -23.062722206125002 3.17634999752 -25.726517200500002  -23.171734809850001 4.2540631294275002 -25.756814002974998  -24.6788825989 19.4333925247 -25.1234779358  -22.710702896133331 2.5840531190199996 -25.709702173900002  -25.2713842392 15.690145015700001 -25.856005668600002  -24.932990074149998 15.507890701299999 -25.864101409900002  -22.962500572250001 20.806427001949999 -25.426160812399999  -23.6128368378 20.2302494049 -25.702236175500001  -24.455097834266667 1.6301103035600002 -25.681650797566665  -25.2725791931 0.65400397777599995 -25.653135299700001  -24.874476432800002 0.43179675936700002 -25.647236824049997  -25.2014160156 0.88545507192600004 -25.659910201999999  -25.313983917199998 15.461726188650001 -22.66414928435  -25.261901855466665 15.751515388499998 -22.687613169333332  -25.0492954254 15.4144496918 -22.654315948499999  -25.131063461299998 1.1172137260399999 -25.666934967  -25.734742382558533 6.6888841252993192 -20.223450136554288  -25.2014160156 0.88545507192600004 -25.659910201999999  -25.2725791931 0.65400397777599995 -25.653135299700001  -25.4147605896 0.194596096873 -25.6399402618  -25.341753006000001 0.42564740776999999 -25.646173477200001  -25.055887222300001 1.3549740314500001 -25.673337936399999  -25.453789710999999 1.575867652895 -25.67892551425  -25.224939346300001 5.6925067901600004 -25.7942123413  -25.677886232959793 6.998254851278336 -21.817270816098635  -25.399976730366671 6.1567405064900003 -25.806845982866665  -25.200278282200003 5.21566057205 -25.78071403505  -25.30820560455 2.0529550909999998 -25.6922826767  -25.1989059448 2.4138062000299998 -25.7026042938  -25.270732879600001 6.6236429214500001 -25.8202648163  -25.292930603049999 7.0798609256749998 -25.833054542500001  -25.102220535299999 2.6951491832750003 -25.710454940799998  -25.10985660555 4.6163945198049996 -25.763875961300002  -25.052652359 2.8998222351099998 -25.716768264799999  3 2 1 0  3 4 3 5  3 7 6 8  3 9 6 10  3 11 9 12  3 13 14 15  3 18 16 17  3 21 20 19  3 22 23 24  3 26 27 25  3 25 28 26  3 23 15 24  3 15 23 13  3 19 29 21  3 31 30 32  3 34 35 33  3 36 38 37  3 39 40 41  3 8 6 42  3 43 23 22  3 33 35 44  3 45 46 47  3 48 49 50  3 50 51 48  3 42 52 53  3 54 55 56  3 57 48 51  3 58 60 59  3 11 6 9  3 62 61 63  3 65 64 18  3 68 67 66  3 30 31 69  3 12 71 70  3 50 52 72  3 52 11 72  3 11 12 70  3 72 70 73  3 74 75 76  3 76 77 74  3 35 34 78  3 13 79 80  3 6 52 42  3 59 81 58  3 82 83 66  3 84 85 86  3 87 61 88  3 72 11 70  3 89 91 90  3 14 92 72  3 56 67 93  3 86 95 94  3 62 97 96  3 99 98 100  3 102 27 101  3 51 50 92  3 103 88 61  3 105 104 63  3 106 107 29  3 108 109 105  3 109 110 105  3 104 105 110  3 110 111 104  3 100 109 112  3 96 113 58  3 58 88 96  3 114 87 115  3 58 81 88  3 87 88 81  3 87 81 116  3 81 59 116  3 58 117 60  3 62 96 88  3 2 119 118  3 121 122 120  3 123 18 64  3 125 124 114  3 128 127 126  3 111 129 104  3 130 18 54  3 131 78 34  3 132 134 133  3 84 86 94  3 77 135 41  3 49 136 50  3 137 45 47  3 29 93 106  3 140 138 139  3 141 138 140  3 142 41 135  3 62 88 103  3 25 143 28  3 143 25 27  3 14 13 92  3 1 144 0  3 146 147 145  3 149 128 148  3 21 91 89  3 126 28 128  3 28 45 128  3 41 150 139  3 152 151 16  3 155 154 153  3 50 136 53  3 55 54 17  3 77 101 74  3 54 18 17  3 127 134 126  3 46 143 27  3 99 112 131  3 102 46 27  3 18 130 65  3 41 40 77  3 63 108 105  3 80 92 13  3 12 9 10  3 156 38 150  3 50 72 92  3 157 55 158  3 156 150 142  3 94 95 84  3 139 39 41  3 57 51 92  3 80 57 92  3 159 133 134  3 19 65 130  3 160 130 54  3 159 134 127  3 150 140 139  3 67 56 66  3 106 93 67  3 46 45 143  3 52 50 53  3 37 38 156  3 53 136 161  3 135 162 142  3 26 101 27  3 132 133 163  3 134 132 75  3 150 41 142  3 75 74 134  3 82 66 157  3 130 160 19  3 164 64 65  3 26 74 101  3 142 162 165  3 11 52 6  3 166 167 122  3 131 112 78  3 149 127 128  3 42 161 8  3 8 161 7  3 168 86 85  3 162 135 76  3 135 77 76  3 169 71 12  3 45 28 143  3 98 129 111  3 28 126 26  3 1 2 118  3 100 98 111  3 110 100 111  3 138 141 170  3 112 99 100  3 42 53 161  3 100 110 109  3 97 113 96  3 61 62 103  3 172 171 173  3 174 176 175  3 179 178 177  3 180 178 179  3 181 178 182  3 183 177 178  3 184 183 178  3 186 187 185  3 185 188 186  3 178 189 184  3 190 189 178  3 191 187 186  3 192 191 186  3 193 190 178  3 194 186 188  3 178 195 193  3 186 195 178  
