ply
format ascii 1.0
comment bbox 24.222843  26.373285 -0.123017  3.939305 -25.803804  -24.230050 
element vertex 30
property double x
property double y
property double z
element face 28
property list uchar int vertex_index
end_header
25.8121738434 0.91236597299599997 -24.9718856812  24.963418960599999 3.3456575870499998 -25.5032424927  25.6164484024 1.5647178888300002 -24.91759204865  24.718137741100001 1.2249987125399999 -25.774440765400001  24.912310600250002 3.9385679960250002 -25.27624607085  24.953603744500001 3.9358081817600001 -25.0714244843  25.214357376100001 2.8964252471899998 -24.869319915799998  26.373285293599999 -0.123016700149 -24.709581375100001  24.873594284100001 3.9393045902299999 -25.480335235599998  25.3280792236 2.4605693817100001 -24.9129924774  25.465272903399999 2.01113581657 -24.948957443200001  25.103092193599998 3.3247396945999999 -24.88795280455  25.014537811299999 3.7390305995899999 -24.8999176025  24.222843170200001 2.3041610717799998 -25.8038043976  25.399212519300004 2.4441525141400002 -24.640012741099998  25.354874293033333 2.6615025202433333 -24.550667444833334  25.522459665900001 2.2055260340366667 -24.454531351733333  25.540784835833335 1.9913824001933333 -24.676276524866665  25.450456619299999 2.22265625 -24.726778030399998  25.214357376100001 2.8964252471899998 -24.869319915799998  25.3280792236 2.4605693817100001 -24.9129924774  25.412849426299999 2.2324130535100002 -24.863477706899999  25.19664764405 3.1049301624300001 -24.708543777499997  25.103092193599998 3.3247396945999999 -24.88795280455  25.8121738434 0.91236597299599997 -24.9718856812  25.6164484024 1.5647178888300002 -24.91759204865  26.126985549899999 0.55968302488300004 -24.6097106934  25.939823150666669 1.2454824447633335 -24.241315841666665  25.842494010900001 1.487531244755 -24.230050087000002  25.465272903399999 2.01113581657 -24.948957443200001  3 2 0 1  3 0 3 1  3 4 5 6  3 3 0 7  3 4 9 8  3 4 6 9  3 9 10 8  3 10 1 8  3 5 12 11  3 1 3 13  3 1 10 2  3 5 11 6  3 14 15 16  3 18 16 17  3 19 15 14  3 18 19 14  3 14 16 18  3 18 21 20  3 22 19 23  3 24 25 26  3 19 22 15  3 17 16 27  3 20 19 18  3 16 28 27  3 21 18 29  3 20 21 29  3 29 26 25  3 29 18 17  
