ply
format ascii 1.0
comment bbox -26.419862  -25.054020 0.118377  0.779109 -3.772341  -3.306989 
element vertex 24
property double x
property double y
property double z
element face 25
property list uchar int vertex_index
end_header
-25.584163665799998 0.45876860618600002 -3.5563588142400002  -25.405244827299999 0.55068039894099996 -3.5735890865300002  -25.504033088699998 0.733871936798 -3.4098422527299999  -25.8768177032 0.35327398777000002 -3.5447316169700001  -25.709209442100001 0.18057450652099999 -3.7224080562599999  -25.769741058299999 0.387677997351 -3.54229354858  -26.304658889799999 0.42108580470099999 -3.4381701946300001  -25.956855773899999 0.48491460084900001 -3.4309384822800002  -26.221870422400002 0.58801048994099991 -3.349246263505  -25.966905593900002 0.35110598802600002 -3.53346657753  -26.1168251038 0.14894630014900001 -3.71097540855  -26.0538768768 0.32055601477599999 -3.5444135665899998  -26.372228622400002 0.310860991478 -3.5208060741399998  -25.1683998108 0.44004881382 -3.7723414897900001  -25.2300605774 0.65523982047999996 -3.5927464962000002  -25.054019927999999 0.75897389650299996 -3.61178803444  -25.654767990100002 0.69706511497500001 -3.3796503543899998  -26.149637222300001 0.38915659487249998 -3.4801200628300002  -26.419861793499997 0.1183766536415 -3.7013479471200004  -25.342304229700002 0.33335271477700001 -3.7525672912600001  -25.521131515499999 0.24280740320700001 -3.7352974414800002  -25.9116249084 0.16062469780399999 -3.7160525322  -25.854019165066664 0.779108583927 -3.30698935191  -26.042601267500004 0.66328523556399999 -3.32969522476  3 2 0 1  3 5 3 4  3 6 7 8  3 7 9 3  3 10 11 12  3 13 15 14  3 0 16 5  3 7 3 5  3 16 7 5  3 17 7 6  3 10 12 18  3 12 11 17  3 6 12 17  3 20 19 0  3 21 4 3  3 17 11 7  3 11 9 7  3 0 2 16  3 22 23 7  3 8 7 23  3 11 10 21  3 22 7 16  3 19 1 0  3 1 19 13  3 13 14 1  
