ply
format ascii 1.0
comment bbox -14.110651  -13.801636 -5.418961  -5.034977 6.546495  6.907239 
element vertex 7
property double x
property double y
property double z
element face 4
property list uchar int vertex_index
end_header
-13.9404277802 -5.0349774360700001 6.8033580779999996  -13.929700851450001 -5.2407755851750002 6.7572927474949998  -14.054355144500001 -5.2054362297050005 6.8930320739750002  -14.1106505394 -5.3466358184799994 6.9072394370999994  -13.969598770099999 -5.4189610481299999 6.7081627845799998  -13.8016357422 -5.2245109081300001 6.5995862483999996  -13.840701103200001 -5.3929505348199998 6.5464949607799996  3 0 2 1  3 1 3 4  3 6 5 4  3 4 5 1  
