ply
format ascii 1.0
comment bbox -28.163979  -27.381210 -0.547659  -0.044198 -3.399260  -3.212118 
element vertex 18
property double x
property double y
property double z
element face 20
property list uchar int vertex_index
end_header
-27.786703109699999 -0.20884150266599999 -3.21556091309  -27.952785491899999 -0.23873789608500001 -3.21804308891  -27.762269973799999 -0.35997879505199998 -3.23906350136  -27.469623565700001 -0.077453702688199996 -3.2784764766699999  -27.578131675750001 -0.4587229937315 -3.3460749387749997  -27.7471637726 -0.174751892686 -3.2169432640100002  -27.925077438399999 -0.38805139064799998 -3.2473394870800001  -27.841798146566664 -0.54765945672999994 -3.348282575606667  -28.113201141400001 -0.26629859209099999 -3.2291193008399999  -27.506330490100002 -0.044197801500600001 -3.2689673900599998  -28.084465026899998 -0.414802908897 -3.2603287696800001  -28.1639785767 -0.29759278893500002 -3.2378678321800001  -27.859210967999999 -0.16579939425000001 -3.2121179103899999  -27.9593334198 -0.079928502440499996 -3.2256755828900001  -27.791419982899999 -0.048855599015999999 -3.2262697219800001  -28.119150161699999 -0.107539303601 -3.2379078865099999  -27.909618377699999 -0.078962497413199995 -3.2222828865099999  -27.3812103271 -0.362737298012 -3.3992595672600001  3 0 1 2  3 3 2 4  3 2 3 5  3 6 7 2  3 1 8 6  3 3 9 5  3 8 11 10  3 12 13 1  3 14 12 5  3 15 8 13  3 13 8 1  3 2 1 6  3 0 5 12  3 6 8 10  3 5 0 2  3 7 4 2  3 12 1 0  3 16 13 12  3 3 4 17  3 14 16 12  
