ply
format ascii 1.0
comment bbox -31.807188  -25.058710 -13.079882  1.179465 -25.666935  -25.573542 
element vertex 40
property double x
property double y
property double z
element face 36
property list uchar int vertex_index
end_header
-28.861892700199999 0.0262589007616 -25.614334106400001  -28.937392234800001 -0.28489975631199999 -25.604164123549999  -28.441097259500001 0.11873859912199999 -25.620956420900001  -27.155251503000002 0.30438905954350004 -25.636970519999998  -26.758288383450001 0.18968949466925 -25.635992050150001  -31.387126818768778 -13.079882075124633 -25.622786189147796  -28.485832214399998 -0.083216696977599994 -25.61277771  -28.063331603999998 0.0043509998358800001 -25.620149612399999  -28.538394927999999 -0.292674809694 -25.6060619354  -31.5438632965 -2.6394333839400002 -25.573541641199999  -29.1919975281 0.33402240276299999 -25.6240577698  -29.722815513649998 -0.27552499622100002 -25.601344108599999  -29.234544754000002 0.133284196258 -25.6160564423  -31.807188034100001 -2.31110024452 -25.5760993958  -25.4147605896 0.194596096873 -25.6399402618  -25.058710098300001 -0.14482830464800001 -25.6311149597  -25.2725791931 0.65400397777599995 -25.653135299700001  -25.8428211212 0.29893940687199999 -25.643007278399999  -30.200897216800001 -0.67685180902499997 -25.5875434875  -27.573380788133335 0.31244566291566667 -25.634058634466669  -26.3209877014 0.18782100081399999 -25.6378192902  -28.441097259500001 0.11873859912199999 -25.620956420900001  -27.930807113650001 0.53406830132000005 -25.638195991499998  -28.009660720799999 0.216165199876 -25.6271724701  -28.063331603999998 0.0043509998358800001 -25.620149612399999  -27.573380788133335 0.31244566291566667 -25.634058634466669  -28.183925628666668 1.1794652342776668 -25.657552083333332  -28.336297353099997 0.54241013526933335 -25.634977340700001  -28.791553497350002 0.33412509411550001 -25.625656127950002  -27.825508117649999 0.96136775612750003 -25.653206825249999  -25.131063461299998 1.1172137260399999 -25.666934967  -25.597543716449998 1.1052905321115001 -25.66579437255  -25.738510131799998 0.64210146665599999 -25.65272521975  -25.2725791931 0.65400397777599995 -25.653135299700001  -25.8428211212 0.29893940687199999 -25.643007278399999  -27.406893412266669 0.96038931608333333 -25.656047185233334  -29.234544754000002 0.133284196258 -25.6160564423  -29.1919975281 0.33402240276299999 -25.6240577698  -28.861892700199999 0.0262589007616 -25.614334106400001  -25.4147605896 0.194596096873 -25.6399402618  3 1 0 2  3 3 4 5  3 6 2 7  3 2 6 8  3 8 6 7  3 9 8 7  3 11 12 10  3 9 13 10  3 14 16 15  3 17 14 15  3 9 2 8  3 10 1 9  3 9 1 2  3 13 18 10  3 18 11 10  3 1 10 0  3 3 5 9  3 19 3 9  3 9 7 19  3 15 5 17  3 20 17 5  3 5 4 20  3 21 22 23  3 23 25 24  3 21 23 24  3 26 22 27  3 28 27 22  3 29 22 26  3 22 29 25  3 30 32 31  3 32 33 34  3 25 29 35  3 36 38 37  3 30 33 32  3 22 21 28  3 33 39 34  
