ply
format ascii 1.0
comment bbox -21.541430  3.108318 -5.240776  16.592941 -14.794333  15.368439 
element vertex 31
property double x
property double y
property double z
element face 19
property list uchar int vertex_index
end_header
1.1773085594199999 1.5180138349500001 -2.3857095241500001  1.11709058285 1.3388888835899999 -2.3223524093600001  1.14749801159 1.28166234493 -2.3183250427200002  2.90754544735 0.41758339107050002 -3.0378149747850003  3.1083178520199999 0.46203100681300002 -3.0675163268999999  3.0502111117033333 0.60866258541766671 -2.9726317723600002  0.204122304916 16.3970413208 -14.622377395599999  0.4693311452865 16.502637863149999 -14.7163825035  0.26263099908799997 16.592941284199998 -14.7943325043  -21.2031002045 -2.3715131282800002 15.1127300262  -21.287649154649998 -2.3396230936049998 15.140897274  -21.229732513399998 -2.4414253234899999 15.262467384300001  -20.693861007700001 -3.1625473499299996 15.167298793800001  -20.8401155472 -2.96395778656 15.3265180588  -20.735001881900001 -2.9783375263233332 15.165879249566666  -21.444067955000001 -2.390246629715 15.36843919755  -21.541429519699999 -2.27565121651 15.1934890747  -21.385097503699999 -2.34153747559 15.235362052899999  -21.390876769999998 -2.36736536026 15.290725708  -21.331466674800001 -2.28989577293 15.0852832794  -21.087940216100002 -2.5079646110499998 15.2122831345  -21.089551925649999 -2.5894660949699997 15.302165031449999  -20.966732978850001 -2.7045034170150002 15.287754058800001  -20.938072204600001 -2.61582636833 15.157986640900001  -13.836906909949999 -4.9783923625950006 6.6927814483599999  -13.9404277802 -5.0349774360700001 6.8033580779999996  -13.929700851450001 -5.2407755851750002 6.7572927474949998  -13.8016357422 -5.2245109081300001 6.5995862483999996  -13.711198488866666 -4.96657212575 6.5271035830166673  -13.7182149887 -5.1916167736050003 6.4939286708799999  -13.962697029099999 -4.8261141777000001 6.7908339500399997  3 0 1 2  3 3 4 5  3 6 7 8  3 9 10 11  3 13 12 14  3 16 15 17  3 17 15 18  3 17 18 10  3 10 18 11  3 16 17 19  3 10 9 19  3 17 10 19  3 20 21 22  3 23 20 22  3 24 25 26  3 27 24 26  3 24 27 28  3 27 29 28  3 25 24 30  
