ply
format ascii 1.0
comment bbox -10.549351  -5.603005 24.893892  25.184865 -25.174367  -22.656296 
element vertex 6
property double x
property double y
property double z
element face 2
property list uchar int vertex_index
end_header
-10.464119911199999 25.184864997849999 -22.663029670699999  -10.473514238966667 24.893892288200004 -22.656296412166668  -10.549350738499999 25.085372924800001 -22.6624469757  -5.6030049324000002 25.009117126500001 -25.0486736298  -5.7136490344999995 25.045923233049997 -25.174366951  -5.7632722854600003 25.089960098300001 -25.033241272000001  3 1 0 2  3 3 4 5  
