ply
format ascii 1.0
comment bbox -25.362858  36.735851 -9.148781  -6.280932 0.648462  25.942041 
element vertex 14
property double x
property double y
property double z
element face 7
property list uchar int vertex_index
end_header
-25.362857818599998 -9.0692806243900002 25.942041397099999  -25.0618591309 -9.14878082275 25.703216552699999  -25.118085861200001 -8.8496837615999997 25.865083694500001  36.243778228799997 -6.9155893325799997 1.16511559486  36.205604553199997 -7.1161937713599999 1.31180608273  36.517589569099997 -6.97429561615 1.22879946232  36.1046981812 -6.2809324264499997 0.64846158027599998  36.578090667700003 -6.8006319999700002 1.0653630495099999  36.7169799805 -7.2239470481900003 1.2165975570700001  36.679485321000001 -7.4574422836299998 1.2114565372499999  36.735851287800003 -7.3678059577899999 1.19738566875  36.308372497599997 -7.5853595733599999 1.34264314175  36.455432891800001 -7.5585284233100003 1.28866744041  36.582340240500002 -7.5182576179499998 1.2435171604199999  3 0 1 2  3 5 3 4  3 7 6 5  3 10 8 9  3 8 11 12  3 13 8 12  3 13 9 8  
