ply
format ascii 1.0
comment bbox -25.975971  -24.669035 9.421141  19.108942 -25.981661  -22.610582 
element vertex 44
property double x
property double y
property double z
element face 31
property list uchar int vertex_index
end_header
-24.851193428049999 16.046802520749999 -22.737669944749999  -24.804646492 15.761581420900001 -22.711971283  -25.120227813700001 16.084976196300001 -22.728286743200002  -24.935319900500001 13.487430572499999 -22.617009162900001  -24.960929870649998 13.770101070399999 -22.61836719515  -25.268426895099999 13.532839775099999 -22.6163768768  -25.2876014709 13.8516139984 -22.622724533100001  -24.9798660278 13.9897136688 -22.6105823517  -24.669034957899999 14.725718498199999 -22.624399185200001  -24.9881744385 14.4486522675 -22.627325058  -25.04494285585 14.7528181076 -22.626750946049999  -24.966478347799999 14.126967430100001 -22.615741729700002  -25.030181884800001 14.365198135349999 -22.615654945350002  -25.302799224899999 14.168045043899999 -22.621641159100001  -25.261901855466665 15.751515388499998 -22.687613169333332  -25.272509574849998 12.588466167450001 -25.972561836250001  -25.143196106000001 12.181324958799999 -25.9806404114  -25.510763168299999 12.4225797653 -25.9742240906  -25.189327240000001 19.027027130099999 -25.117118835399999  -25.151071548499999 19.041358947799999 -25.205493926999999  -25.117362976100001 19.085550308199998 -25.080589294399999  -25.061907768250002 19.108942031849999 -25.213678360000003  -25.279012680050002 18.960049629250001 -25.109084129300001  -25.208401680000001 18.994860649100001 -25.287036895749999  -25.482391357400001 18.800519943200001 -25.2641639709  -25.374240875200002 18.8747329712 -25.3163337708  -25.408290863000001 18.8559360504 -25.227254867599999  -25.448913574199999 18.8199615479 -25.353277206400001  -25.28310489655 18.9396657944 -25.324007034300003  -25.352471351600002 18.903483390799998 -25.145957946799999  -25.226581573499999 19.011606216400001 -25.028396606400001  -25.033933639499999 11.87758255 -25.981660842899998  -25.552997589150003 12.118484973899999 -25.976273536649998  -25.6924829483 18.657259941100001 -25.0513629913  -25.66019535065 18.678282737750003 -25.14104270935  -25.549821853600001 18.761899948100002 -25.0856342316  -25.441146850599999 18.8358135223 -25.137752533  -25.118171691899999 19.061124801599998 -25.295001983599999  -25.55212211605 18.7525463104 -25.193209648150003  -25.4780483246 18.819852828999998 -25.0490932465  -25.404407501200001 18.876068115199999 -25.012063980099999  -25.9759712219 9.8290357589700008 -25.930311202999999  -25.812751769999998 9.4211406707799998 -25.918870925899999  -25.683910369900001 9.8439750671400006 -25.930311202999999  3 1 0 2  3 3 4 5  3 6 5 4  3 4 7 6  3 10 9 8  3 12 13 11  3 1 2 14  3 15 16 17  3 18 20 19  3 20 21 19  3 22 18 19  3 23 22 19  3 24 26 25  3 27 24 25  3 25 26 28  3 28 26 29  3 18 22 30  3 16 31 32  3 33 35 34  3 36 26 24  3 37 23 19  3 38 36 24  3 21 37 19  3 35 38 34  3 38 35 36  3 36 35 39  3 36 39 40  3 26 36 29  3 40 29 36  3 29 40 22  3 41 43 42  
