ply
format ascii 1.0
comment bbox -0.011972  27.515486 -8.199573  9.389198 -25.865364  -24.147544 
element vertex 497
property double x
property double y
property double z
element face 489
property list uchar int vertex_index
end_header
1.71208655834 -0.0030823999550200001 -25.476762771600001  1.85624730587 -0.169305697083 -25.4730510712  1.42544615269 0.017587199807199999 -25.4769821167  7.9119544029200002 -0.0011690000537800001 -25.504600524899999  8.0453872680699998 -0.161980107427 -25.4958133698  7.7734708786000004 0.0104647995904 -25.5020122528  0.20274650305500003 -0.046867448836600004 -25.466750144949998  0.076217100024199999 0.049440298229500003 -25.4693756104  0.27240899205199998 0.104786500335 -25.470199585  13.57887601855 0.012312399689100001 -25.55655384065  13.43559741975 -0.12854045257000002 -25.552511215199999  13.311083316800001 0.033360799774550004 -25.5549707413  8.1883621215800009 -0.0217030998319 -25.504785537699998  8.0548248290999993 0.14281509816599999 -25.507211685200001  16.396532058750001 0.23484165221449999 -25.60005664825  16.36147212985 -0.21238484978700001 -25.58389949795  16.192553202300001 -0.39935280879366669 -25.577505111700003  21.169250488300001 -0.31249040365250003 -25.653845787049999  21.580833435100001 -0.64395147561999999 -25.653566360500001  21.59791374205 0.095569048077049995 -25.674662590049998  17.550977706899999 -0.159339502454 -25.600968360899998  17.29009628295 -0.13793195039 -25.598027229300001  17.367906570399999 0.0053924000821999997 -25.6038398743  17.498062133800001 -0.0066033001057799997 -25.607549667400001  2.4269716739699998 -0.36358928680399999 -25.465419769299999  2.6402915716150002 -0.069952648133049994 -25.475935935999999  2.7832151651400001 0.228258296847 -25.488904953000002  2.64026415348 -0.22433019429450002 -25.470273017849998  1.28394031525 -0.28098478913300001 -25.463907241800001  1.5698481798199999 -0.29994460940399997 -25.461025238000001  7.4837112426800001 -0.42661538720100001 -25.486230850199998  6.9332098960900002 -0.233508497477 -25.490793228099999  7.4964623451200003 0.0297577995807 -25.504211425800001  2.2840037345900002 -0.044614300131799997 -25.4768772125  9.4882316589400002 -0.011284300126100001 -25.515472412099999  9.4264898300199995 -0.116776101291 -25.511352539099999  9.3637742996249997 0.040280601009699997 -25.516697883600003  15.2411384583 -0.123052000999 -25.574954986600002  14.75689411165 -0.38380885124200004 -25.558778762800003  14.854437828066665 0.059746466577033329 -25.574535369900001  6.6620469093299999 0.093979001045200003 -25.499509811399999  6.8014125824000002 0.083320498466499998 -25.500169754000002  6.6550564765900004 -0.21228189766399999 -25.489055633500001  20.611480712900001 -0.116328902543 -25.649240493800001  20.866985321000001 -0.13751280307800001 -25.652036666899999  20.690686225899999 0.025822649709899999 -25.65469646455  12.78277873995 0.22604234516600002 -25.557881355299997  13.091864267966665 -0.25205143292733334 -25.544262568133334  13.109863281200001 0.048558898270100001 -25.554904937700002  12.9401483536 -0.541800022125 -25.533649444600002  3.2085134983049999 -0.26523745060000004 -25.470211029049999  3.35185313225 0.031771848909599998 -25.483474731450002  3.1385550498999999 0.048281300813 -25.481704711900001  3.4913686513900002 -0.44017419219050002 -25.466183662399999  3.5649328231799999 0.0151166003197 -25.485548019399999  15.384762764 0.018023500219 -25.5772666931  15.185988426200002 0.0331425499171 -25.577181816100001  9.0148620605499996 -0.085381798446200002 -25.509565353399999  5.6751990318300001 -0.29203158617000002 -25.479724883999999  5.607948064805 -0.13442440331 -25.486359596249997  5.8203043937699999 0.0058090998791199997 -25.487705230700001  16.581964492800001 0.069426901638500002 -25.5965366364  17.08766269685 -0.19703662022924998 -25.594981193549998  16.844444274899999 0.048181701451499998 -25.598724365199999  5.8802949905380002 -0.38668255805980001 -25.477104949939996  5.8879284858699998 -0.15587065368899999 -25.488261222799999  2.9314378499999996 -0.18741037137799998 -25.471812248225  2.9499702453599999 0.030697999522099999 -25.481042861900001  -0.0119719002396 -0.185949400067 -25.459543228099999  12.49645280835 -0.053895499557250003 -25.5445890427  21.772769927999999 -0.066827401518799998 -25.670753478999998  21.819398880000001 -0.22009710222450002 -25.668924331649997  1.28226196766 -0.124687097967 -25.466836929300001  8.2666912078900001 0.0442536994815 -25.507286071799999  8.1931657791100001 0.131349802017 -25.509372711200001  21.915233612066668 0.068208001553999989 -25.679412205999999  22.294890085866665 0.035026565815000001 -25.685879389433335  7.8382287025449999 -0.14843419939300001 -25.498932838450003  7.5798606872600001 0.035589400678899999 -25.5029773712  7.63494348526 0.0210414994508 -25.501388549800001  1.9981161355999999 -0.176335901022 -25.4669799805  1.9902274608599999 0.0109246997163 -25.475891113300001  2.069445788865 -0.028086699545350001 -25.475044250499998  23.827352523799998 -1.36768424511 -25.665216445900001  23.448261260999999 -0.94681751728100005 -25.6780834198  24.2788772583 0.79731708764999998 -25.7596359253  23.454500198350001 -0.36278380453600001 -25.69953536985  4.6229765415149995 -0.215794444084 -25.4798460007  4.83392095566 -0.23085750639399999 -25.479404449499999  4.8970732688899998 0.0207442995161 -25.488672256499999  4.6245772838599999 -0.061421651393150006 -25.484045982350001  6.4462332725550002 -0.1973077505825 -25.48955631255  6.3098933696750006 -0.032790650613600002 -25.492627143900002  6.2301573753400001 0.020687000826000002 -25.4947929382  8.8665981292700007 -0.37834200263000001 -25.4977931976  8.8140039443999996 0.082306548953050007 -25.514628410349999  4.7672169208500002 0.082362998276949997 -25.489201545699999  8.4643907547000001 -0.043940100818899999 -25.508180618299999  17.2371501923 0.015869600698399999 -25.602941513099999  21.707164764400002 -0.65477812290199999 -25.655944824199999  24.718137741100001 1.2249987125399999 -25.774440765400001  24.5872745514 -0.58855372667299999 -25.7000236511  23.47188949585 -0.21720064431449998 -25.704648971600001  23.599996566800002 0.057015800848600001 -25.715954780600001  2.4975970387424997 0.17278465256082501 -25.484119415275003  23.753496169999998 -4.3084859847999999 -25.5937023163  20.5354480743 -0.850364089012 -25.6262683868  20.119387626649999 -0.51941052079200001 -25.6273269653  20.370622634899998 0.0526308007538 -25.6510047913  8.3264017105099999 -0.032139398157600002 -25.505214691199999  17.0412759781 0.033220400102449997 -25.598620414750002  20.9316158295 -0.73672521114300005 -25.638425826999999  24.391340255700001 -6.09769248962 -25.5618476868  24.6042842865 -7.14364528656 -25.531780242899998  6.2434058189400004 0.124673902988 -25.499980926500001  16.537725067139998 -0.34903951585300003 -25.58207702636  16.695248603849997 -0.16472730413074999 -25.590159416200002  0.49122379720200005 -0.067489348351950001 -25.466442108149998  0.42063760757399998 -0.21641619503500001 -25.4585895538  24.8075466156 -8.1995725631699994 -25.502191543599999  13.721966743499999 -0.90263658761999999 -25.5309581757  14.009101867633333 -0.19196289777733333 -25.555589675899999  13.855579376249999 0.14016109705000002 -25.566081047049998  20.882608413700002 0.010194499976899999 -25.656116485599998  21.073469162000002 -0.0070927999331850001 -25.66062641145  21.089655876150001 0.14156419783849999 -25.663228034950002  22.547992706300001 0.0139578999951 -25.688335418699999  22.3961830139 -0.195997647941 -25.681066513049998  3.6348457336399997 -0.14401414990399999 -25.47960662845  27.515486477294139 -4.5061276870729996 -24.147544264800484  24.274438858049997 -4.0795452594750001 -25.599200248750002  24.2701835632 -5.1301136016799997 -25.584709167500002  15.516607284499999 0.0057673999108400001 -25.581350326500001  19.185169219999999 -0.144500494003 -25.624019622799999  19.071239471399998 0.0172620993108 -25.621866226200002  19.200258255000001 0.0061178999021599999 -25.624076843299999  0.27679648995400002 -0.206890001893 -25.460062026999999  8.4693088531500003 0.11154510080799999 -25.508008956899999  16.0328063965 -0.18626320362099999 -25.581430435200001  18.381313323975 -0.22942915186274998 -25.608938693974999  17.952064514149999 -0.30925869941700002 -25.601716995250001  18.16938781735 0.16411545500169999 -25.619534492500001  12.050736745233335 -0.3719955583413333 -25.529851913466668  11.476078987099999 -0.12590339779900001 -25.533330917400001  11.965177059150001 0.139428503811 -25.546503067050001  15.648703575100001 -0.0049164001829900003 -25.582557678200001  15.703555107149999 -0.1594740971925 -25.577828407249999  12.3028526306 0.113646797836 -25.5471172333  0.85185188055000005 -0.095164299011199993 -25.469665527299998  1.2820817232099999 0.0275324992836 -25.477834701500001  7.0798478126499997 0.061397701501800003 -25.5026512146  18.409681320200001 -0.078828997910000004 -25.6123409271  18.470698038733335 0.11517130086803333 -25.620127995800001  23.4436969757 0.079571999609499997 -25.715003967299999  8.9834108352649995 0.066324099898350003 -25.513572692849998  9.6258430480949997 -0.28392800688700004 -25.506739616400001  9.8432836532600003 0.00257920008153 -25.520429611200001  23.9817485809 0.43068191409099998 -25.736335754399999  19.971551895099999 -0.061354100704199999 -25.638811111500001  10.1165962219 -0.019983999431099998 -25.524536132800002  10.035512924195 -0.3160554617645 -25.510538101199998  19.213811874399997 0.15311306715 -25.631292978933331  11.130046367649999 -0.24937415868000001 -25.5236997604  10.9265899658 -0.234018996358 -25.523117065400001  11.212549209566667 0.047404834379766669 -25.535125096633333  15.6048326492 0.30003015697000002 -25.592197418250002  0.63690239191050002 -0.2326354533435 -25.460005760200001  0.70800930261600004 -0.084928296506400006 -25.469907760600002  0.70574140548700004 0.072070702910400006 -25.4726448059  20.9944324493 -0.14838230609899999 -25.6539726257  22.627039909400001 0.153617747128 -25.697184562650001  10.654913902300001 -0.213021695614 -25.521423339799998  10.872945785500001 0.074526749551299995 -25.53202342985  9.9800119400000007 -0.0080583002418299996 -25.521286010699999  9.9179716110200005 0.15104150027050001 -25.522848129300002  6.0974202156099997 -0.17066170275199999 -25.487323760999999  11.069590568500001 -0.092259198427199998 -25.5270633698  5.8935601711299999 0.1513752490285 -25.498427391050001  4.2705793380700001 -0.18939790129699999 -25.478252410900001  4.2449507713300001 0.019609000533799999 -25.4855232239  4.4130396843000002 -0.045446399599299997 -25.4830379486  4.2734541892999998 0.118609003723 -25.4892463684  8.6073083877599998 0.099463999271399997 -25.511350631700001  1.7040155529950001 0.093528999015450004 -25.478225708  1.8547228574800001 0.14114630222300001 -25.483272552500001  1.56828606129 0.0088782003149400004 -25.473865508999999  11.692004203799998 0.17507880429433334 -25.54289309186667  9.1578302383400008 0.056841399520600001 -25.514415741000001  16.147558848066666 0.15563776840766666 -25.593026479100001  10.7356987 0.110535599291 -25.531764984100001  2.1406276225999998 0.121210798621 -25.481523513799999  19.421403884900002 0.28431084752050001 -25.6401987076  18.63095760345 0.20114485174399999 -25.625967979449999  14.24602270125 -0.041873600333900002 -25.563680648800002  14.189320564300001 0.113483898342 -25.568561553999999  15.85800695415 0.1289768964055 -25.58879184725  18.885389327999999 -0.56641852855700003 -25.607122421300001  19.457525253299998 -0.017173800617499999 -25.630395889300001  19.536643028249998 0.12642735242850001 -25.634387969949998  18.941305160500001 0.026317000389099999 -25.623512268100001  18.89022541045 0.17958495020849999 -25.628681182899999  20.178621292099997 0.069671351462600006 -25.6470890045  19.7934961319 0.10298340022565 -25.64077568055  19.764571189850002 -0.19221224635849998 -25.63031196595  19.571807861300002 -0.17606790363800001 -25.627731323199999  21.344163894650002 0.1188450492915 -25.668401718150001  17.511419296300001 0.14442679285999999 -25.6086521149  17.707057952850001 0.12781370058649999 -25.6114940643  6.8993740081799997 0.02906389907 -25.498983383199999  10.60069179535 0.096031051129099987 -25.529973983749997  10.525722503700001 -0.050836600363299997 -25.5252971649  4.1281328201300003 -0.33268851041800002 -25.472488403300002  4.0629837513 0.28712689876550002 -25.497646331799999  6.4528088569649995 0.10958360135549999 -25.499257087700002  0.99393469095200004 0.050456300377800002 -25.473999023400001  10.227979024233333 0.12910829981166666 -25.527739206966668  10.253107070900001 -0.029438100755200002 -25.5232429504  10.396188735999999 0.111731901765 -25.5292625427  11.4876155853 0.10209975298485 -25.539019584649999  5.5936417579633329 0.019240566218899999 -25.492138544733333  2.78269279003 0.074731003493050008 -25.480808258050001  0.84996068477599995 0.061095200479000002 -25.473623275800001  2.3026480674750003 0.070488899946399994 -25.480151176450001  4.9784240722700002 0.066755600273600002 -25.4893760681  4.9764595031700001 -0.087472297251199996 -25.484739303600001  4.4851951599149995 0.10325264930725001 -25.488878250150002  0.47627380490299998 0.036806900054200002 -25.470479965199999  5.3998560905500002 0.036436699330800001 -25.4881858826  5.4650654792799997 -0.27561315894150001 -25.4774932861  5.1849234104150002 -0.2562066912655 -25.4792089462  5.2595028877300001 0.046489298343699997 -25.4886646271  4.9504587650299996 -0.2247382476925 -25.47803878785  5.11904430389 0.056498400866999997 -25.489240646399999  12.576685428600001 0.168032448739 -25.551254272450002  12.437884330699999 0.104820996523 -25.544664382899999  15.594084739700001 0.15154214948400002 -25.584430694550001  18.2818775177 0.13774860153570001 -25.617851893099999  16.450729370099999 0.080698102712600001 -25.594276428200001  7.9258513450599999 0.456566601992 -25.523258209200002  8.3314266204800003 0.118991203606 -25.513191223100002  7.91660022736 0.150849401951 -25.5113582611  0.84996068477599995 0.061095200479000002 -25.473623275800001  0.70467770099600002 0.22604820132299999 -25.4814586639  0.99276167154299999 0.205258503556 -25.4810142517  9.9179716110200005 0.15104150027050001 -25.522848129300002  9.9242696762099989 0.30179814994300003 -25.530878067000003  10.197955131499999 0.28026039898400001 -25.532544136049999  19.680358886733334 0.24481513599533331 -25.642204284633333  19.536643028249998 0.12642735242850001 -25.634387969949998  19.421403884900002 0.28431084752050001 -25.6401987076  8.0596187909433326 0.2940692106883333 -25.515736261966666  8.0548248290999993 0.14281509816599999 -25.507211685200001  9.3637742996249997 0.040280601009699997 -25.516697883600003  9.4382753372200003 0.18709769844999999 -25.522592544599998  8.9571123123150009 0.22413549572250002 -25.52074241635  0.99393469095200004 0.050456300377800002 -25.473999023400001  1.2820817232099999 0.0275324992836 -25.477834701500001  0.41765150427800002 0.092098698019999994 -25.474275589000001  0.27240899205199998 0.104786500335 -25.470199585  0.47627380490299998 0.036806900054200002 -25.470479965199999  0.56231391429900002 0.080579303204999994 -25.476221084599999  8.4921703338649994 0.23117329925300001 -25.517017364499999  8.8140039443999996 0.082306548953050007 -25.514628410349999  8.6073083877599998 0.099463999271399997 -25.511350631700001  0.59973937273 3.3957573175449998 -25.61153793335  0.96768711010566666 3.2050839265200004 -25.604459126799998  1.2583791017499999 3.5014760494199999 -25.619131088300001  5.4727795124049994 0.18332869559550002 -25.496858596799999  5.19200897217 0.20270860195149998 -25.499411582900002  5.6834659576400002 0.16643969714599999 -25.499294281000001  5.4780449867250001 0.49000109732149999 -25.510908126799997  7.5798606872600001 0.035589400678899999 -25.5029773712  7.7087042331699998 0.16760195046699999 -25.5089902878  7.4964623451200003 0.0297577995807 -25.504211425800001  2.9499702453599999 0.030697999522099999 -25.481042861900001  2.9960827827499998 0.059681098908200003 -25.479824066199999  3.1385550498999999 0.048281300813 -25.481704711900001  7.7734708786000004 0.0104647995904 -25.5020122528  7.63494348526 0.0210414994508 -25.501388549800001  1.56755328178 0.163538306952 -25.480581283599999  1.8547228574800001 0.14114630222300001 -25.483272552500001  1.7040155529950001 0.093528999015450004 -25.478225708  1.5670022964500001 0.31790569424600001 -25.4883270264  17.315258026099997 0.16033095121349999 -25.607146263099999  17.465024471275001 0.37365327775500001 -25.615684509275003  17.175415039100002 0.33214253187166665 -25.612198511766668  0.41402420401599999 0.40333971381200001 -25.4869441986  20.849546432499999 0.31092870235449999 -25.665151596050002  21.0413894653 0.294610798359 -25.667451858500002  20.834427833550002 0.16378960013400001 -25.659023284900002  2.7832151651400001 0.228258296847 -25.488904953000002  3.0722899436933333 0.18671653171399996 -25.489067077666665  4.8080687522899996 9.1281604766799997 -25.856294632000001  5.28035616875 8.6525480747224996 -25.840128421750002  4.7865986824025004 8.6979997158074998 -25.840435981750002  19.133625984200002 7.1746091842649999 -25.856193542450001  19.089970588650001 6.6934003829949997 -25.839767456049998  18.977238178275002 6.9484759569175001 -25.845994949325  0.70574140548700004 0.072070702910400006 -25.4726448059  12.4163417816 0.24764235317700001 -25.55255889895  12.78277873995 0.22604234516600002 -25.557881355299997  12.576685428600001 0.168032448739 -25.551254272450002  2.6406416893000002 0.3938663452865 -25.494700431849999  2.4975970387424997 0.17278465256082501 -25.484119415275003  9.8432836532600003 0.00257920008153 -25.520429611200001  9.6356471379599995 0.094671031460099989 -25.520829518633331  16.844444274899999 0.048181701451499998 -25.598724365199999  16.581964492800001 0.069426901638500002 -25.5965366364  16.987694422400001 0.18668629725766664 -25.604994455966665  17.707057952850001 0.12781370058649999 -25.6114940643  17.511419296300001 0.14442679285999999 -25.6086521149  13.855579376249999 0.14016109705000002 -25.566081047049998  13.597661972000001 0.31333979964250003 -25.567422866850002  13.521295547500001 0.16810790201033332 -25.561381657933335  15.185988426200002 0.0331425499171 -25.577181816100001  14.854437828066665 0.059746466577033329 -25.574535369900001  15.1965312958 0.18211960047449999 -25.583993911749999  19.200258255000001 0.0061178999021599999 -25.624076843299999  19.071239471399998 0.0172620993108 -25.621866226200002  19.213811874399997 0.15311306715 -25.631292978933331  21.349390029899997 0.36682002743100001 -25.676034291566666  20.992739677400003 0.44743689894649996 -25.672677040099998  21.1405477524 0.2898757010695 -25.669482231099998  13.311083316800001 0.033360799774550004 -25.5549707413  13.57887601855 0.012312399689100001 -25.55655384065  18.941305160500001 0.026317000389099999 -25.623512268100001  0.12845210731000001 0.113797001541 -25.4729003906  15.6048326492 0.30003015697000002 -25.592197418250002  16.396532058750001 0.23484165221449999 -25.60005664825  15.85800695415 0.1289768964055 -25.58879184725  15.997517903633332 0.43923773368199998 -25.601023991899996  13.14873576165 0.25518395006649996 -25.561357021324998  1.42544615269 0.017587199807199999 -25.4769821167  0.19486109912399999 0.57574826478950003 -25.4927148819  4.9104115962999995 0.22409480065100001 -25.498357772799999  4.5577583312966672 0.25059746702500002 -25.497556686399999  4.5634174346899998 0.712350487709 -25.5188446045  10.402895927399999 0.263247996569 -25.5354003906  10.2110829353 0.58519649505650007 -25.5432538986  15.384762764 0.018023500219 -25.5772666931  15.516607284499999 0.0057673999108400001 -25.581350326500001  23.3186264038 0.091374002397100001 -25.711465835599999  23.202524185199998 0.17730455100549999 -25.708926200899999  23.067665100100001 0.114177398384 -25.705904007000001  12.319461186700002 0.41592769821466669 -25.558334986366663  12.3028526306 0.113646797836 -25.5471172333  11.965177059150001 0.139428503811 -25.546503067050001  21.089655876150001 0.14156419783849999 -25.663228034950002  5.11904430389 0.056498400866999997 -25.489240646399999  4.9784240722700002 0.066755600273600002 -25.4893760681  5.1449146270800004 0.112282700837 -25.493036270099999  7.0798478126499997 0.061397701501800003 -25.5026512146  7.251002073285 0.056492948904649995 -25.502132415799998  0.087523803114900003 3.2759513855 -25.606788635299999  0.23040969669799999 3.5869567394300002 -25.619007110599998  2.7129850387549999 0.77511575818050005 -25.513581275949999  2.7124240398400001 0.54297751188300003 -25.5022678375  2.1398904323600001 0.74053508043299998 -25.509826660200002  5.1490001678499997 2.07160973549 -25.574577331499999  5.3669161796600005 2.3695892095550004 -25.585953712449999  5.2982139587399999 2.5330481529200002 -25.592008590700001  0.076217100024199999 0.049440298229500003 -25.4693756104  14.6302471161 1.3454025586433334 -25.614020029699997  14.856249809274999 1.0460505783559999 -25.606624603249998  14.877370834324999 1.350040107965 -25.616860389725002  3.5649328231799999 0.0151166003197 -25.485548019399999  4.0629837513 0.28712689876550002 -25.497646331799999  3.7084929943099998 0.31401759386099998 -25.496377944900001  6.2434058189400004 0.124673902988 -25.499980926500001  6.3932099342299997 0.57370638847400002 -25.520244598400001  6.1097974777199999 0.44193801283799999 -25.5123004913  4.7672169208500002 0.082362998276949997 -25.489201545699999  6.9407200813300003 0.072109103202800007 -25.501861572300001  6.6620469093299999 0.093979001045200003 -25.499509811399999  6.8014125824000002 0.083320498466499998 -25.500169754000002  5.5936374664324999 0.70494608581074991 -25.520393371574997  5.97258710861 0.60638771454499996 -25.518448511733329  6.4528088569649995 0.10958360135549999 -25.499257087700002  6.5296363830599997 0.40972858667399997 -25.5137176514  8.1931657791100001 0.131349802017 -25.509372711200001  8.2666912078900001 0.0442536994815 -25.507286071799999  6.8993740081799997 0.02906389907 -25.498983383199999  5.2595028877300001 0.046489298343699997 -25.4886646271  16.147558848066666 0.15563776840766666 -25.593026479100001  5.1988224983249998 0.66567561030400002 -25.51665687565  5.3998560905500002 0.036436699330800001 -25.4881858826  4.8970732688899998 0.0207442995161 -25.488672256499999  4.4851951599149995 0.10325264930725001 -25.488878250150002  4.2734541892999998 0.118609003723 -25.4892463684  2.2038288116466664 0.28829223910966667 -25.488259633400002  2.3026480674750003 0.070488899946399994 -25.480151176450001  2.1406276225999998 0.121210798621 -25.481523513799999  1.5655932426500001 0.62835717201200003 -25.502166748  2.8549447059599999 0.37724441289900001 -25.496145248400001  2.78269279003 0.074731003493050008 -25.480808258050001  17.191396077499999 0.52129483222966666 -25.618353525800003  5.1659989357000002 8.2453479766850002 -25.824945449849999  7.30985355377 9.0471696853600001 -25.857645034800001  7.3182039260899998 9.3891983032200006 -25.8653640747  7.6014471054066668 9.0179640452066661 -25.856935501099997  4.5821895599350002 8.8109855651849998 -25.843627929699998  4.6580734252899996 8.9731578826899998 -25.850032806400002  4.6599397659299999 9.14329528809 -25.856147766100001  5.8935601711299999 0.1513752490285 -25.498427391050001  5.8203043937699999 0.0058090998791199997 -25.487705230700001  11.4876155853 0.10209975298485 -25.539019584649999  11.221843004225001 0.23721360415199999 -25.541115283975003  11.499050140366668 0.32941687107066664 -25.546969731633329  6.5958659648900007 0.251949198544 -25.506132125900002  17.7328300476 0.42629134655000001 -25.621306419349999  18.16938781735 0.16411545500169999 -25.619534492500001  19.7934961319 0.10298340022565 -25.64077568055  8.4693088531500003 0.11154510080799999 -25.508008956899999  12.437884330699999 0.104820996523 -25.544664382899999  10.632614135733332 0.29618980487200003 -25.538299560533332  10.60069179535 0.096031051129099987 -25.529973983749997  5.5936417579633329 0.019240566218899999 -25.492138544733333  13.146074295033335 0.65391713380799998 -25.574480692533331  12.691572189350001 0.9966903030855 -25.581638336200001  13.308240254700001 1.0988998810466668 -25.591356277466662  21.59791374205 0.095569048077049995 -25.674662590049998  21.344163894650002 0.1188450492915 -25.668401718150001  9.1578302383400008 0.056841399520600001 -25.514415741000001  18.202442169200001 0.53661537170399998 -25.632495880099999  10.227979024233333 0.12910829981166666 -25.527739206966668  15.594084739700001 0.15154214948400002 -25.584430694550001  1.92431247234 0.75735935568800006 -25.508577346800003  15.63825798035 0.75142276287099996 -25.607542037949997  15.715893745400001 0.89718508720400003 -25.612659454300001  15.888854662533333 0.83179348707199985 -25.6130212148  13.109863281200001 0.048558898270100001 -25.554904937700002  16.450729370099999 0.080698102712600001 -25.594276428200001  17.771519660949998 0.87550008296949999 -25.6368665695  17.530837631219999 0.62308683395359998 -25.625053405780005  23.4436969757 0.079571999609499997 -25.715003967299999  16.366020202600001 0.69067871570600003 -25.6142349243  16.839452743499997 0.8024818897249999 -25.62359428405  22.627039909400001 0.153617747128 -25.697184562650001  22.547992706300001 0.0139578999951 -25.688335418699999  22.294890085866665 0.035026565815000001 -25.685879389433335  19.579036712650002 0.57015943527200008 -25.652709007249999  19.162811279300001 0.30585320293899998 -25.637660026550002  19.848866144799999 0.44682954748499998 -25.653292338066667  12.471481005366668 0.70867753028866665 -25.569792429633335  14.189320564300001 0.113483898342 -25.568561553999999  14.3807144165 0.123658001423 -25.569959640499999  14.7423820496 0.37080138921700001 -25.5840682983  11.692004203799998 0.17507880429433334 -25.54289309186667  11.718163013449999 0.61681026220349999 -25.559412956199999  9.3300323486300005 0.96081382036200003 -25.5530586243  20.690686225899999 0.025822649709899999 -25.65469646455  20.6082448959 0.48005799949149996 -25.668563842799998  9.7433700561500007 0.928776621819 -25.553241729700002  18.89022541045 0.17958495020849999 -25.628681182899999  2.8557212352799999 0.68694472312900001 -25.5098133087  17.2371501923 0.015869600698399999 -25.602941513099999  24.718137741100001 1.2249987125399999 -25.774440765400001  26.373285293599999 -0.123016700149 -24.709581375100001  25.8121738434 0.91236597299599997 -24.9718856812  8.9834108352649995 0.066324099898350003 -25.513572692849998  18.63095760345 0.20114485174399999 -25.625967979449999  18.6715555191 0.64734750986099998 -25.642661094650002  20.882608413700002 0.010194499976899999 -25.656116485599998  20.178621292099997 0.069671351462600006 -25.6470890045  19.929730415350001 0.16695115342719999 -25.643468856799998  21.915233612066668 0.068208001553999989 -25.679412205999999  22.238480885833329 0.28808139761299995 -25.691588083900001  22.003771781925003 0.28478297591224999 -25.685466766349997  18.819119135533331 1.5421061515833336 -25.674790700299997  18.402084350580001 1.9452554464339999 -25.680425262459998  18.954599380499999 2.2947283983249998 -25.699860572799999  1.56828606129 0.0088782003149400004 -25.473865508999999  4.7971026897449995 2.4154590368299997 -25.586087226899998  0.654462993145 5.3397278785699998 -25.695541381799998  0.13238155283030001 5.5502972602799998 -25.70286750795  0.73017594218250004 5.1689348220799998 -25.688750267  26.514175415 -0.37869960069699998 -24.644386291499998  1.99745774269 0.132055804133 -25.4807815552  1.9902274608599999 0.0109246997163 -25.475891113300001  26.617906570399999 -0.60672068595899997 -24.590211868299999  10.396188735999999 0.111731901765 -25.5292625427  9.37588596344 7.8332240581499999 -25.819620132449998  9.7402791976900005 7.9642186164900002 -25.824899673499999  9.5067167282099998 7.4877796173100002 -25.807990074199999  17.367906570399999 0.0053924000821999997 -25.6038398743  6.8126940727200003 0.54113090038300005 -25.5220050812  3.3524415493050004 0.18655245006100002 -25.488704681400002  3.35185313225 0.031771848909599998 -25.483474731450002  11.212549209566667 0.047404834379766669 -25.535125096633333  10.7356987 0.110535599291 -25.531764984100001  10.917204221099999 0.20608063538866669 -25.536133448266668  10.872945785500001 0.074526749551299995 -25.53202342985  18.470698038733335 0.11517130086803333 -25.620127995800001  18.2818775177 0.13774860153570001 -25.617851893099999  20.370622634899998 0.0526308007538 -25.6510047913  17.0412759781 0.033220400102449997 -25.598620414750002  21.741351127649999 0.23246774822499999 -25.680407524149999  3 2 0 1  3 5 3 4  3 6 7 8  3 10 11 9  3 12 4 13  3 14 15 16  3 17 19 18  3 21 22 20  3 22 23 20  3 26 25 24  3 24 25 27  3 29 28 2  3 31 32 30  3 26 24 33  3 34 35 36  3 37 38 39  3 40 41 42  3 44 43 45  3 48 47 46  3 46 47 49  3 52 51 50  3 50 54 53  3 37 56 55  3 36 35 57  3 60 58 59  3 61 63 62  3 58 60 64  3 64 60 65  3 66 27 67  3 7 6 68  3 69 46 49  3 70 71 19  3 2 28 72  3 29 2 1  3 74 73 12  3 71 75 76  3 77 78 79  3 1 81 80  3 81 82 80  3 83 84 85  3 84 86 85  3 4 77 5  3 61 16 15  3 88 87 89  3 89 87 90  3 27 25 67  3 77 30 32  3 91 93 92  3 94 95 57  3 78 77 32  3 96 89 90  3 97 95 94  3 98 21 62  3 99 18 19  3 100 101 85  3 5 13 3  3 47 48 10  3 86 102 103  3 104 26 33  3 105 83 85  3 108 106 107  3 109 12 73  3 62 110 98  3 111 106 108  3 113 112 100  3 93 114 92  3 16 61 115  3 115 61 116  3 117 118 8  3 113 100 119  3 122 121 120  3 124 123 125  3 79 5 77  3 76 126 127  3 71 99 19  3 128 53 54  3 99 71 76  3 119 100 129  3 130 85 101  3 101 131 130  3 44 45 123  3 105 85 130  3 131 105 130  3 55 132 37  3 61 62 116  3 135 133 134  3 136 8 118  3 8 136 6  3 137 97 109  3 16 138 14  3 139 140 141  3 144 142 143  3 132 145 146  3 142 144 69  3 37 39 56  3 147 69 144  3 149 28 148  3 70 75 71  3 32 31 150  3 131 101 100  3 72 28 149  3 112 131 100  3 151 152 139  3 141 151 139  3 99 153 86  3 37 132 146  3 154 57 95  3 13 4 3  3 155 35 156  3 156 35 34  3 157 85 86  3 86 103 157  3 158 108 107  3 156 159 160  3 161 133 135  3 102 153 103  3 163 164 162  3 164 143 162  3 98 22 21  3 16 165 138  3 74 12 13  3 155 156 160  3 102 86 153  3 166 168 167  3 168 166 117  3 124 169 123  3 127 126 170  3 171 172 163  3 174 173 156  3 65 175 64  3 164 176 172  3 163 172 176  3 164 163 176  3 16 145 165  3 65 177 114  3 169 44 123  3 179 87 178  3 51 54 50  3 180 179 181  3 182 97 137  3 0 183 184  3 0 185 183  3 60 177 65  3 186 144 143  3 187 36 57  3 14 138 188  3 171 189 172  3 149 2 72  3 82 81 190  3 133 161 191  3 152 192 139  3 193 194 39  3 39 38 193  3 121 122 194  3 195 188 138  3 196 139 192  3 191 197 133  3 140 23 141  3 191 198 197  3 199 133 200  3 199 134 133  3 158 202 201  3 201 108 158  3 197 198 202  3 202 203 204  3 158 203 202  3 202 204 133  3 197 202 133  3 124 125 205  3 19 124 205  3 108 43 17  3 43 108 45  3 17 111 108  3 19 17 124  3 170 153 127  3 76 127 99  3 99 127 153  3 154 187 57  3 23 206 207  3 138 165 195  3 31 42 208  3 173 159 156  3 210 209 189  3 41 208 42  3 212 211 128  3 185 0 2  3 42 91 40  3 91 92 114  3 114 213 91  3 214 149 148  3 114 93 175  3 93 91 175  3 73 137 109  3 159 174 215  3 159 173 174  3 210 216 217  3 216 159 217  3 159 215 217  3 164 218 143  3 210 217 209  3 189 171 210  3 218 186 143  3 59 219 60  3 156 34 36  3 67 25 220  3 65 114 175  3 148 221 214  3 190 33 82  3 1 184 81  3 184 1 0  3 168 221 167  3 167 221 148  3 104 33 222  3 223 224 89  3 225 96 90  3 33 190 222  3 225 90 180  3 180 90 87  3 225 180 181  3 117 8 226  3 212 128 54  3 178 211 212  3 59 227 219  3 228 227 59  3 230 227 229  3 229 231 232  3 231 224 232  3 233 46 69  3 69 234 233  3 147 234 69  3 122 120 10  3 10 9 122  3 121 194 193  3 145 132 235  3 165 145 235  3 196 192 133  3 192 200 133  3 206 23 22  3 207 141 23  3 236 152 151  3 141 236 151  3 10 48 11  3 179 180 87  3 212 179 178  3 117 226 168  3 52 66 67  3 50 66 52  3 220 25 26  3 229 227 228  3 232 224 223  3 230 229 232  3 89 224 88  3 150 31 208  3 14 237 15  3 15 237 61  3 62 63 110  3 75 70 19  3 213 40 91  3 182 95 97  3 238 239 240  3 241 242 243  3 244 245 246  3 247 248 249  3 251 240 250  3 253 252 254  3 243 256 255  3 257 259 258  3 259 257 260  3 263 261 262  3 264 266 265  3 267 268 269  3 268 270 269  3 272 271 273  3 274 275 276  3 271 277 278  3 272 277 271  3 281 279 280  3 279 282 280  3 284 283 285  3 260 257 286  3 287 288 289  3 274 290 291  3 292 293 294  3 295 296 297  3 259 260 298  3 301 299 300  3 302 290 303  3 304 305 245  3 308 306 307  3 309 310 284  3 312 311 313  3 316 314 315  3 319 317 318  3 320 322 321  3 323 313 324  3 319 318 325  3 326 257 258  3 329 327 328  3 327 330 328  3 331 312 313  3 332 280 282  3 311 324 313  3 333 286 326  3 334 335 336  3 337 246 338  3 339 316 340  3 341 343 342  3 344 345 346  3 347 288 322  3 348 349 350  3 351 352 273  3 354 264 353  3 277 240 251  3 355 356 357  3 359 358 360  3 361 326 258  3 364 363 362  3 365 367 366  3 286 257 326  3 368 370 369  3 371 335 334  3 372 374 373  3 270 375 269  3 375 376 269  3 368 378 377  3 379 239 380  3 372 381 374  3 350 268 382  3 328 383 329  3 349 334 268  3 384 375 268  3 250 239 379  3 385 268 267  3 378 368 369  3 386 371 334  3 256 280 332  3 335 387 388  3 348 350 382  3 387 335 371  3 389 390 391  3 389 280 357  3 242 241 298  3 390 389 302  3 392 357 280  3 291 290 393  3 392 280 256  3 298 260 242  3 356 393 302  3 391 280 389  3 274 394 290  3 357 302 389  3 357 356 302  3 284 285 395  3 293 396 294  3 399 397 398  3 400 401 294  3 402 292 401  3 299 345 344  3 403 404 269  3 405 406 407  3 408 372 373  3 409 410 309  3 377 408 373  3 411 247 249  3 380 239 412  3 299 301 413  3 289 288 347  3 414 415 337  3 267 416 385  3 417 418 419  3 332 282 279  3 320 420 421  3 307 328 308  3 250 379 251  3 393 290 302  3 252 422 254  3 410 409 423  3 337 424 246  3 425 340 327  3 357 392 426  3 427 428 429  3 323 430 313  3 431 328 307  3 423 409 432  3 409 433 432  3 320 421 322  3 321 322 288  3 263 412 261  3 434 343 341  3 409 284 433  3 328 435 436  3 437 438 439  3 245 244 304  3 441 440 442  3 372 351 381  3 304 252 305  3 443 300 344  3 424 244 246  3 308 328 436  3 445 315 444  3 316 315 446  3 285 308 436  3 299 344 300  3 346 447 407  3 436 395 285  3 252 253 305  3 245 305 253  3 313 430 331  3 448 346 407  3 284 310 283  3 356 355 393  3 292 294 401  3 253 449 245  3 450 451 287  3 245 449 452  3 245 338 246  3 245 452 338  3 453 441 325  3 441 319 325  3 454 393 355  3 308 285 455  3 285 283 455  3 456 458 457  3 309 284 409  3 254 459 262  3 395 432 433  3 436 432 395  3 395 433 284  3 287 451 321  3 460 441 453  3 441 460 461  3 287 462 450  3 289 462 287  3 321 288 287  3 463 411 464  3 289 347 462  3 439 465 466  3 465 467 466  3 343 434 437  3 470 468 469  3 279 281 471  3 360 358 472  3 269 416 267  3 475 474 473  3 332 279 471  3 457 476 456  3 477 280 391  3 478 280 477  3 411 248 247  3 407 447 405  3 269 404 416  3 476 479 456  3 322 421 347  3 337 480 424  3 408 378 372  3 386 334 349  3 349 268 350  3 403 370 368  3 391 478 477  3 302 303 390  3 268 375 270  3 268 385 382  3 272 240 277  3 481 482 483  3 339 314 316  3 310 484 283  3 455 283 484  3 378 408 377  3 337 415 480  3 240 239 250  3 255 241 243  3 378 485 372  3 239 261 412  3 403 269 370  3 486 487 276  3 405 488 406  3 345 299 413  3 414 489 415  3 422 459 254  3 488 491 490  3 410 492 493  3 327 340 316  3 450 494 451  3 306 308 495  3 455 495 308  3 411 249 441  3 441 249 319  3 441 442 411  3 496 465 420  
