ply
format ascii 1.0
comment bbox 3.815067  19.364894 -2.726719  0.168032 -25.620128  -25.400246 
element vertex 355
property double x
property double y
property double z
element face 375
property list uchar int vertex_index
end_header
7.0408682823199999 -1.4509809017199999 -25.439073562600001  7.1059012413050002 -1.6059914231299999 -25.433647155750002  7.2768368720999987 -1.4559949636466667 -25.441370010366668  11.757681846600001 -0.80006166299199999 -25.509909311933331  11.489507913600001 -0.58834885060800002 -25.515305042274999  11.53933525085 -0.88337038457424988 -25.504470348350001  8.5931301116899999 -2.306346058845 -25.414875984200002  8.5880661010750003 -2.4553827047350003 -25.411281585700003  8.754499197007501 -2.5520194768925002 -25.408606529225004  10.7090024948 -0.51831585168850003 -25.5081367493  10.702033996600001 -0.66923850774750004 -25.503715515149999  10.437405109449999 -0.49769495427600002 -25.506636619600002  5.38025331497 -1.18252599239 -25.440797805799999  5.2430338859600001 -1.0207753181500001 -25.445714950599999  5.24090051651 -1.17326307297 -25.4416866302  5.411841392515 -1.0308686494849999 -25.447636604300001  7.5806515216800001 -1.86285471916 -25.4241132736  7.3768827915199999 -1.774076223375 -25.426877021799999  7.6558325290700004 -1.6449066996549999 -25.435814857499999  7.1668395996100003 -1.9097380638100001 -25.421581268299999  7.3002185821500003 -2.0689930915799999 -25.417339325  8.2380472819000001 -1.3370945056266665 -25.453422546400002  8.0079307556200003 -1.3702776431999999 -25.449783325199999  8.0811977386500011 -1.224982976915 -25.4555454254  7.0331535339400002 -1.7504131794 -25.426521301299999  7.1069650649999998 -1.7536735534700001 -25.427799224899999  7.5914870897900002 -1.49050283432 -25.441830952966665  7.5513833363866674 -1.28686153889 -25.448994318633336  7.8706188201899998 -1.35952365398 -25.4474601746  12.050736745233335 -0.3719955583413333 -25.529851913466668  12.198311567325 -0.55824708193525008 -25.522962093324999  12.3451476097 -0.3438273072245 -25.532273292550002  17.498062133800001 -0.0066033001057799997 -25.607549667400001  17.550977706899999 -0.159339502454 -25.600968360899998  17.367906570399999 0.0053924000821999997 -25.6038398743  8.0548248290999993 0.14281509816599999 -25.507211685200001  8.1883621215800009 -0.0217030998319 -25.504785537699998  8.1931657791100001 0.131349802017 -25.509372711200001  9.0010309219349995 -0.46337054669850003 -25.493853569050003  9.2205985387166667 -0.38410600026433334 -25.498167037966667  9.0779199600200009 -0.24165289849049998 -25.502956390350001  8.8665981292700007 -0.37834200263000001 -25.4977931976  8.0453872680699998 -0.161980107427 -25.4958133698  8.1786549886066666 -0.32561569412533337 -25.493064880399999  8.0294227600100001 -0.46451380848899998 -25.485668182400001  7.9119544029200002 -0.0011690000537800001 -25.504600524899999  7.7734708786000004 0.0104647995904 -25.5020122528  7.6371366182966662 -1.0685037771866668 -25.459569295233333  7.8065390586849999 -1.2058818340299999 -25.455884933500002  7.9485006332400001 -1.0646408200300002 -25.460728645350002  8.7069040934233328 -2.7267189025866667 -25.400245666499998  7.5058374404950001 -2.0829548835749998 -25.417547225949999  7.7840516567249995 -1.952548682685 -25.423447608949999  8.9382038116500002 -2.1835582256300001 -25.425796508800001  9.00060606003 -2.3361178636549997 -25.419983863799999  8.7970552444500001 -2.3221499919899999 -25.419284820600001  5.79786396027 -1.21158242226 -25.440687179600001  5.9397811889599996 -1.0703123807899999 -25.446966171300001  5.80066680908 -1.0604130029700001 -25.446699142500002  8.0482664108250006 -2.2686853408800003 -25.41244983675  7.8108633756649999 -2.1847839951524999 -25.413963317850005  7.9072461128199993 -2.4080073833449998 -25.406930923499999  7.9847130775500004 -2.1162176132199999 -25.419549942  7.8154644966150002 -0.90387719869600003 -25.46590709685  8.2427358627300009 -0.48252819478499998 -25.4878797531  8.1001229286199994 -0.621966958046 -25.478418350200002  10.0844125748 -0.77328419685399996 -25.494325637799999  10.0780162811 -0.92275077104600001 -25.487491607700001  10.220339775099999 -0.78315222263299999 -25.4944667816  10.28165483475 -0.93854933977150001 -25.48983478545  8.7343487739549985 -2.1689565181699999 -25.424046516400001  4.4456253051760006 -0.79632750749600001 -25.451918792720001  4.6138210296650009 -0.97791165113449996 -25.448240280149999  4.6116294860850005 -1.1278505325300001 -25.43865013125  4.3329563140899996 -0.95669725537299999 -25.445302009599999  6.0003786087050006 -1.5278106331850001 -25.4293909073  5.7255129814150001 -1.3572812676399999 -25.433902740500002  5.6533956527700004 -1.5036971966433335 -25.4289004008  6.0034353733050008 -1.3778094053299998 -25.4364414215  10.552801132199999 -0.95871573686599998 -25.491287231450002  10.441236495949999 -0.74699753522875001 -25.498100757575003  5.6301527023300002 -0.88569577534999999 -25.454857508333333  5.317623615265 -0.72214615344999999 -25.457981109599999  5.6097665786739999 -0.67715846300140003 -25.463730621339998  5.3853135108899997 -0.88037770986599995 -25.4545326233  7.0941383838649994 -2.0534716844550003 -25.414021492  13.57887601855 0.012312399689100001 -25.55655384065  13.43559741975 -0.12854045257000002 -25.552511215199999  13.311083316800001 0.033360799774550004 -25.5549707413  6.5750186443349996 -0.66332161426550007 -25.470836639399998  6.6478600502000003 -0.51564431190500004 -25.475194931000001  6.4393684864049998 -0.50077585875999997 -25.475483894349999  4.6495472590133327 -0.52250274022400001 -25.464010874433331  4.8978197574599998 -0.69291239976899999 -25.459173202500001  4.6172592639900003 -0.67283713817599999 -25.4589319229  4.1941359043100004 -0.79539579153099993 -25.452916145350002  7.3411097526600004 -0.56713718175899996 -25.478139877299999  7.1946015358000004 -0.85850727558100004 -25.4635543823  7.4060494899750005 -0.72325560450549997 -25.471701621999998  5.6586475372300002 -1.20115852356 -25.439273834200002  5.5221514701799999 -1.04097568989 -25.446910858199999  4.9998910427050003 -0.85660415887800001 -25.453526496849999  4.9637279510500001 -1.00200891495 -25.447343826299999  4.8237628936799997 -0.99191921949399997 -25.446823120099999  5.1849234104150002 -0.2562066912655 -25.4792089462  5.0422832965849995 -0.39815850555900001 -25.471746444699999  5.2525806426999999 -0.41335138678599997 -25.471826553300001  4.7558372020749999 -0.83586639165900001 -25.454449653650002  6.5759431521099998 -1.6184858878433335 -25.429428736333335  6.5574877262099998 -1.41645383835 -25.43698883055  6.8338623046850007 -1.4360834956150001 -25.437961578399999  17.760175704950001 -0.77136105299000002 -25.58273887635  17.517700195299998 -0.80239661534633333 -25.580247243233334  17.721322377499998 -0.96644488970566667 -25.577039082866666  8.2528381347700002 -2.2830896377599998 -25.413902282700001  8.2480386098233343 -2.4322973092400004 -25.410295486433331  8.1895122528049988 -2.1308104991950003 -25.4211540222  13.082959175099999 -0.401868492365 -25.538757324199999  13.283669948549999 -0.41680230200299995 -25.53893470765  13.091864267966665 -0.25205143292733334 -25.544262568133334  16.814208348566666 -0.32529446482666668 -25.586270650233331  16.986418406166667 -0.36275209983199996 -25.587364832600002  17.08766269685 -0.19703662022924998 -25.594981193549998  5.1755146980299997 -0.86436259746550004 -25.452216148349997  5.0311653614049998 -1.1569344401350001 -25.438329696650001  17.578548908249999 -0.61778427660500002 -25.585830688449999  17.850590388000001 -0.48197356859833329 -25.594369888333336  17.902437210099997 -0.63519915938400007 -25.590766906749998  8.9496536254866665 -0.6820924282073334 -25.484165191666666  8.7679201761899996 -0.57188274463033328 -25.487457911166668  8.7818903923049998 -0.82487034797650005 -25.477708816499998  8.3308100700349996 -1.9918999075900001 -25.427985191349997  8.2673899332699996 -1.8378991683333332 -25.432856241833335  8.5799374580399999 -1.7578376233599999 -25.439464569075  9.7936944961566663 -0.7111540039380001 -25.491928736366663  9.9483909606900003 -0.76183539628999997 -25.491186142  10.022772312160001 -0.61664569377900003 -25.497407913250001  9.0500898361200015 -0.99510025978049998 -25.472518920900001  9.3173980712900004 -1.1659217476850001 -25.46961212155  9.0445704460099989 -1.14570093155 -25.4677734375  8.2232007980350001 -1.084397256375 -25.46140956875  8.4729814529433352 -0.81572077671666676 -25.474763234466668  8.1593786875400003 -0.9296243786809999 -25.468397140500002  10.71598052975 -0.3671840429305 -25.51267433165  10.654913902300001 -0.213021695614 -25.521423339799998  10.49662303925 -0.21710295230150001 -25.51737976075  10.512157440199999 -0.351944714785 -25.5121746063  17.234984715766668 -0.53215956687933341 -25.585555394500002  17.525373458849998 -0.45657935738599997 -25.592459678650002  11.786779085833336 -1.1026843388866665 -25.500593185433331  18.997523307800002 -0.75903981924075004 -25.59951257705  18.709269841533334 -0.60040779908499997 -25.60141118366667  18.760209401433332 -0.87203792731000007 -25.591550191233335  18.885389327999999 -0.56641852855700003 -25.607122421300001  8.0961670875549991 -1.9726504683499999 -25.425565719600002  8.2038702964799999 -1.68341386318 -25.437428474400001  11.054978688566669 -0.39487539728466664 -25.517880757633336  11.130046367649999 -0.24937415868000001 -25.5236997604  10.9265899658 -0.234018996358 -25.523117065400001  17.382139841699999 -0.3446591297786667 -25.592515945433334  17.587286949149998 -0.29668100178250001 -25.596211433450001  5.8732192516299992 -0.91478115320200004 -25.4544095993  5.8092770576500001 -0.60641652345700003 -25.4668216705  18.542931556699997 -0.75995801389199991 -25.593994617475001  18.393714904749999 -0.970253676176 -25.585642814650001  18.5803976059 -1.058826982974 -25.585280418349999  11.728985071175 -0.48479959368699999 -25.521658420550001  12.583952665325 -0.88877207040774997 -25.516543865199999  12.624792098999999 -0.5664755503336667 -25.527684529633333  12.462160682660002 -0.62551919817899992 -25.523523712139998  12.9401483536 -0.541800022125 -25.533649444600002  13.0740213394 -0.55149728059799996 -25.533393859899999  12.931394259133333 -0.69052288929633343 -25.526934305833333  9.9063561757433334 -0.90588577588399988 -25.484849929800003  9.8431361516300004 -1.1051615079266666 -25.477605183933335  10.071630477899999 -1.0719858408 -25.480701446499999  6.0063827037850004 -1.226846277715 -25.442117691050001  18.498968124400001 -0.53277868032499998 -25.598505020099999  18.303909937566665 -0.7655949393906667 -25.590709050499999  8.0032092730199995 -1.5196631352099998 -25.443114598600001  17.29009628295 -0.13793195039 -25.598027229300001  7.7885622978200004 -1.80405306816 -25.43058872225  8.52292203903 -0.35012839734599999 -25.491912841800001  8.2931094169649988 -0.159576393664 -25.499887466449998  8.5280928611750006 -0.19961154460899999 -25.499871253950001  7.1826143264766671 -1.3104517459866667 -25.445278167733335  7.8336408138250002 -0.299755752087 -25.491788864149999  7.8382287025449999 -0.14843419939300001 -25.498932838450003  9.4882316589400002 -0.011284300126100001 -25.515472412099999  9.4264898300199995 -0.116776101291 -25.511352539099999  9.3637742996249997 0.040280601009699997 -25.516697883600003  6.2178387641899997 -1.09132099152 -25.449888229399999  6.3645598093666669 -0.87154867251733326 -25.459498087566669  6.1514670848849997 -0.93488100171050004 -25.455270767249999  12.383103847499999 -0.87303695082699995 -25.514238357499998  19.1719226837 -0.29023671150199998 -25.615409851100001  19.36489391325 -0.30671045184150003 -25.618740081799999  19.350829124450001 -0.45383940637100001 -25.613389015199999  4.8216056823700004 -1.1427048444700001 -25.439075469999999  18.018873214700001 -0.79332217574100006 -25.587998390199999  6.7793788909900004 -0.82841062545800004 -25.462453842199999  6.8480710029600003 -0.60407630205160001 -25.4732410431  7.3935396671299998 -1.1754593253149999 -25.453073501550001  7.3976855278050007 -1.024837434295 -25.458996772799999  15.384762764 0.018023500219 -25.5772666931  15.2411384583 -0.123052000999 -25.574954986600002  15.185988426200002 0.0331425499171 -25.577181816100001  7.9311577081699998 -1.7264418602 -25.43433761595  6.1585144996599999 -1.5462163686799999 -25.430355072000001  6.2050099372899998 -1.6919827461200001 -25.422813415499999  8.5390761693333328 -0.55521242817233329 -25.487278620400001  8.3507569630933336 -0.69130923350633333 -25.478071212766665  12.8514623642 -0.90890616178525008 -25.518062591549999  5.6751990318300001 -0.29203158617000002 -25.479724883999999  5.607948064805 -0.13442440331 -25.486359596249997  5.8203043937699999 0.0058090998791199997 -25.487705230700001  13.1229262352 -0.85502836108199998 -25.523076057400001  8.7553863525400004 -1.574138343335 -25.447841644299999  9.0279941558800001 -1.5933142304399999 -25.4484319687  8.8289670944199994 -1.4304764270799999 -25.455608367899998  10.9800682068 -0.53998854756350001 -25.511685371399999  4.1954622268700001 -0.64238685369499993 -25.45805168155  4.4079909324599997 -0.50430518388699996 -25.463352203399999  5.8802949905380002 -0.38668255805980001 -25.477104949939996  11.882741292300002 -0.62993967533133333 -25.518427530899999  5.5813956260649995 -1.6497343182549999 -25.423535346999998  5.3727250099199999 -1.6340192556399999 -25.420610427900002  17.733495712300002 -0.32365190982800002 -25.5982475281  12.118804613766665 -0.77812339862200008 -25.515340805033333  5.1874210039799999 -1.3275271654133334 -25.434227625533335  7.3811566829649999 -1.62600940466 -25.43580913545  9.0335283279449996 -1.4449524283400002 -25.4560317993  19.085583686825004 -0.53445787727850003 -25.60804605485  19.3365831375 -0.60122528672250009 -25.608997344949998  9.079794168474999 -0.80119737982750006 -25.48130607605  7.1176033020049996 -1.1551672816299998 -25.451261520350002  8.2666912078900001 0.0442536994815 -25.507286071799999  7.6384670734399993 -2.2410898208600001 -25.412117958049997  5.3058068752300001 -1.4799347519900001 -25.429193496700002  5.4475412368750007 -1.3391879200950001 -25.436191558849998  9.5335553487133335 -0.88113111257566656 -25.482418696099998  9.6205795288079994 -1.135478162768 -25.473862457299997  8.3791373570733327 -2.58851146698 -25.403166453066671  6.8598465919500002 -0.37919364869600003 -25.482104301450001  5.4627456665050005 -0.42945660650749995 -25.473660469049999  5.4650654792799997 -0.27561315894150001 -25.4774932861  5.7663060426725004 -1.7616143226625001 -25.417626857750001  8.8342367808033337 -1.2798519929233334 -25.45949681596667  8.7722248077400007 -1.0408918499938 -25.468587875339999  6.34980201721 -1.40094232559 -25.434753418  8.6034331321700002 -2.01067304611 -25.428535461399999  7.98929977417 -1.9669845104200001 -25.424472808800001  8.9544296264633338 -1.7378007968266667 -25.442926406833333  8.9951725006099998 -2.48441016674 -25.415324211150001  7.4289422035200001 -2.3748114109 -25.4040546417  7.36464071274 -2.2221349477750003 -25.410840988149999  8.4621310234099987 -2.1493055820449998 -25.421397209200002  12.6391366323 -0.31637030343200001 -25.536027272566667  3.916281342505 -0.31683464348349999 -25.471364974949999  3.8150668144250002 -0.40503539145 -25.4664297104  3.9857532978100001 -0.47559711337100002 -25.4662532806  5.67249917984 -0.444615393877 -25.4737510681  4.7611863613149996 -0.37634375691450001 -25.468771934500001  4.4801120758049997 -0.35699124634250001 -25.470480918900002  6.0185856819150008 -0.62272220849999993 -25.469358444200001  4.9504587650299996 -0.2247382476925 -25.47803878785  5.8762485981000001 -0.76411050558100002 -25.462301254300002  5.3903079032900001 -0.57674801349600002 -25.4674358368  5.1802370548249996 -0.56092524528499998 -25.465928077699999  17.2371501923 0.015869600698399999 -25.602941513099999  7.1797792911550005 -1.762578964235 -25.4279537201  10.376104354900001 -0.342335194349 -25.512891769399999  10.3146724701 -0.18552634865049999 -25.517080307000001  3.9827604293799999 -0.77913492918000005 -25.450336456300001  8.0954427719100011 -0.77407038211799994 -25.47451782225  7.7884186506249993 -0.78813987970374999 -25.471719741824998  13.205298105866666 -0.61911781628933327 -25.531412124633334  7.8980612754799999 -0.45565021038100001 -25.4843177795  9.0487203598049994 -2.1952487230299997 -25.426197051999999  8.3481206893924984 -1.6103893816474999 -25.443513393425  8.8076629638699995 -2.0260736942299999 -25.431648254399999  9.997378826144999 -1.2174730300900001 -25.47643470765  12.5712342262 -1.111986875535 -25.508139610249998  12.264606237400001 -1.041591763497 -25.507548332224999  6.9066343307500002 -1.29070436954 -25.444278717  9.3231763839700008 -1.0171739459 -25.477636337299998  5.9973740577700001 -1.67785614729 -25.422933578449999  9.5157601038599999 -1.3304218053833334 -25.464854558333332  7.5398116111800002 -0.88370895385750003 -25.4648141861  9.9609667460066671 -0.46117183566099995 -25.503348668433333  9.8554272651649999 -1.3556700348850002 -25.46761131285  8.5025644302399996 -0.95488962531050003 -25.470058441150002  9.2836246490499992 -0.25716888904599999 -25.503713607800002  10.227772076933334 -0.561726629734 -25.502499898266667  11.373340606699999 -0.36872097849833335 -25.521249771099999  11.53615903855 -0.28072519600400003 -25.526162147500003  7.1295297145849998 -0.70353996753699999 -25.47184848785  8.1834726333599992 -0.172926098108 -25.4973125458  9.1753907203700003 -1.3049060106299999 -25.461670875549999  4.9764595031700001 -0.087472297251199996 -25.484739303600001  5.11904430389 0.056498400866999997 -25.489240646399999  11.976402282733332 -0.91752074162166675 -25.509410858133336  7.1335225105249993 -0.55252858996400001 -25.478799819949998  7.6174058914199998 -0.58572900295300001 -25.475639343299999  7.6910312175750004 -0.44155535101900001 -25.486052513099999  6.4918670654300001 -1.26206851006 -25.4448280334  6.6302151680000003 -1.27145636082 -25.4443225861  6.5814633369433331 -0.84634409348166662 -25.460981368999999  6.6355264186900005 -1.0456098616105001 -25.454043388350001  7.8245708942399999 -0.60278844833400003 -25.4797000885  13.373568534833332 -0.77401171127966661 -25.527663548766668  13.3411846161 -0.57252967357600004 -25.536022186299999  13.541330337550001 -0.58769243955649997 -25.53688144685  14.088386535624998 -0.4048696756365 -25.54829740525  14.009101867633333 -0.19196289777733333 -25.555589675899999  14.236224174499998 -0.190988600254 -25.557090759250002  14.282784144100001 -0.4952694873016667 -25.547632853166665  18.57687282565 -0.39103990793249999 -25.605233192450001  19.322417259200002 -0.74821209907550001 -25.6043376923  17.952064514149999 -0.30925869941700002 -25.601716995250001  18.252990722666667 -0.36526666084933335 -25.602743148766667  18.144657770766667 -0.60426183541633349 -25.593418757133332  17.8635482788 -0.334067195654 -25.5993671417  12.9717068672 -1.1427479386349999 -25.512154579200001  11.166727638240001 -0.72399688959120001 -25.506982040399997  10.905287742600001 -0.684096813202 -25.5039405823  12.031560897824999 -1.145728468895 -25.500931739824999  13.180578231833332 -1.0091044108073335 -25.518600463866665  8.3264017105099999 -0.032139398157600002 -25.505214691199999  17.0412759781 0.033220400102449997 -25.598620414750002  8.4693088531500003 0.11154510080799999 -25.508008956899999  4.4851951599149995 0.10325264930725001 -25.488878250150002  4.6245772838599999 -0.061421651393150006 -25.484045982350001  4.7672169208500002 0.082362998276949997 -25.489201545699999  5.3998560905500002 0.036436699330800001 -25.4881858826  9.1578302383400008 0.056841399520600001 -25.514415741000001  9.0148620605499996 -0.085381798446200002 -25.509565353399999  8.9834108352649995 0.066324099898350003 -25.513572692849998  4.4130396843000002 -0.045446399599299997 -25.4830379486  9.8432836532600003 0.00257920008153 -25.520429611200001  9.9800119400000007 -0.0080583002418299996 -25.521286010699999  9.9179716110200005 0.15104150027050001 -25.522848129300002  4.2734541892999998 0.118609003723 -25.4892463684  17.511419296300001 0.14442679285999999 -25.6086521149  18.409681320200001 -0.078828997910000004 -25.6123409271  18.2818775177 0.13774860153570001 -25.617851893099999  18.470698038733335 0.11517130086803333 -25.620127995800001  4.2449507713300001 0.019609000533799999 -25.4855232239  5.2595028877300001 0.046489298343699997 -25.4886646271  12.437884330699999 0.104820996523 -25.544664382899999  12.49645280835 -0.053895499557250003 -25.5445890427  12.576685428600001 0.168032448739 -25.551254272450002  15.648703575100001 -0.0049164001829900003 -25.582557678200001  15.516607284499999 0.0057673999108400001 -25.581350326500001  15.594084739700001 0.15154214948400002 -25.584430694550001  3 2 1 0  3 3 5 4  3 8 7 6  3 9 10 11  3 12 14 13  3 15 12 13  3 18 16 17  3 19 17 20  3 21 22 23  3 24 1 25  3 26 27 28  3 29 31 30  3 34 32 33  3 36 35 37  3 38 40 39  3 40 38 41  3 44 42 43  3 46 45 42  3 48 47 49  3 8 50 7  3 16 52 51  3 53 54 55  3 56 58 57  3 59 61 60  3 62 59 60  3 49 47 63  3 64 65 44  3 66 68 67  3 67 68 69  3 18 26 28  3 6 70 55  3 72 73 71  3 73 74 71  3 75 77 76  3 78 75 76  3 80 79 69  3 82 83 81  3 81 84 82  3 19 85 24  3 87 88 86  3 89 91 90  3 36 42 35  3 23 22 28  3 93 94 92  3 95 71 74  3 96 98 97  3 99 100 58  3 101 102 103  3 104 106 105  3 103 107 93  3 101 103 93  3 108 109 110  3 113 112 111  3 114 115 59  3 59 116 114  3 117 119 118  3 122 121 120  3 102 123 124  3 125 126 111  3 111 126 127  3 129 128 130  3 131 132 133  3 134 136 135  3 135 136 66  3 138 139 137  3 141 140 142  3 143 145 144  3 145 143 146  3 147 148 125  3 112 147 125  3 149 5 3  3 150 152 151  3 153 150 151  3 132 154 155  3 156 158 157  3 160 148 159  3 159 33 160  3 81 162 161  3 165 164 163  3 107 71 94  3 43 64 44  3 3 4 166  3 80 69 68  3 169 168 167  3 170 171 172  3 174 173 175  3 57 176 56  3 107 103 72  3 177 163 178  3 179 21 155  3 180 34 33  3 16 181 52  3 182 183 184  3 59 62 116  3 185 2 0  3 186 187 42  3 188 189 190  3 191 193 192  3 194 30 169  3 197 195 196  3 147 122 159  3 116 154 131  3 198 73 103  3 127 199 111  3 200 90 201  3 159 180 33  3 203 47 202  3 205 206 204  3 207 181 18  3 208 209 75  3 211 210 141  3 212 168 172  3 215 213 214  3 172 216 212  3 217 219 218  3 220 9 143  3 56 76 99  3 222 71 221  3 213 215 223  3 51 20 16  3 3 166 224  3 225 226 77  3 160 227 148  3 228 224 30  3 124 14 229  3 26 17 230  3 179 22 21  3 76 56 78  3 231 218 219  3 67 69 175  3 232 197 233  3 234 130 128  3 203 235 97  3 37 236 36  3 51 52 60  3 60 237 51  3 226 238 239  3 240 241 138  3 114 6 242  3 242 6 7  3 122 147 121  3 202 27 2  3 64 43 182  3 154 132 131  3 28 179 18  3 243 201 90  3 116 62 154  3 245 244 106  3 75 246 77  3 2 27 26  3 99 239 12  3 22 179 28  3 1 2 230  3 183 182 43  3 248 139 247  3 185 202 2  3 208 249 209  3 250 70 6  3 42 187 46  3 60 52 251  3 251 62 60  3 6 55 8  3 114 242 115  3 252 217 218  3 54 253 8  3 8 55 54  3 51 237 254  3 255 51 254  3 246 225 77  3 84 100 15  3 25 19 24  3 256 114 116  3 77 239 76  3 58 56 99  3 168 31 257  3 52 181 207  3 255 20 51  3 17 16 20  3 81 100 84  3 259 258 260  3 83 244 261  3 92 263 262  3 223 162 261  3 162 223 264  3 104 105 265  3 124 123 13  3 162 266 161  3 73 72 103  3 83 82 267  3 99 76 239  3 226 239 77  3 106 268 105  3 71 107 72  3 93 107 94  3 58 100 81  3 180 269 34  3 222 92 94  3 19 270 17  3 245 106 104  3 272 145 271  3 273 260 221  3 264 266 162  3 71 222 94  3 63 275 274  3 49 63 274  3 6 114 256  3 118 276 171  3 214 213 245  3 62 251 154  3 141 210 129  3 92 222 263  3 92 262 93  3 223 261 213  3 244 83 267  3 81 83 162  3 83 261 162  3 244 267 106  3 95 221 71  3 239 229 12  3 229 14 12  3 142 49 274  3 58 81 161  3 12 15 100  3 57 58 161  3 84 15 13  3 78 56 176  3 42 44 277  3 186 42 277  3 12 100 99  3 123 102 101  3 239 238 229  3 13 14 124  3 18 179 207  3 19 20 85  3 25 270 19  3 278 54 53  3 52 207 251  3 70 53 55  3 207 179 155  3 155 279 132  3 133 250 131  3 270 25 1  3 256 250 6  3 116 131 256  3 256 131 250  3 280 70 250  3 202 235 203  3 174 175 281  3 283 194 282  3 194 167 282  3 284 185 0  3 1 230 17  3 270 1 17  3 128 129 38  3 67 173 135  3 66 67 135  3 240 138 285  3 286 75 209  3 287 138 241  3 16 18 181  3 182 211 64  3 211 182 210  3 18 17 26  3 48 28 27  3 97 288 203  3 26 230 2  3 155 21 279  3 146 11 271  3 145 146 271  3 134 289 136  3 47 27 202  3 27 47 48  3 64 211 65  3 65 211 274  3 290 241 174  3 140 141 291  3 130 141 129  3 40 292 39  3 293 68 136  3 136 68 66  3 293 136 289  3 143 9 146  3 146 9 11  3 49 23 28  3 294 295 4  3 203 288 47  3 296 96 97  3 43 42 297  3 298 139 138  3 299 300 265  3 300 104 265  3 43 297 183  3 42 36 297  3 135 173 134  3 98 288 97  3 67 175 173  3 301 228 283  3 296 302 96  3 49 28 48  3 303 98 96  3 186 277 304  3 247 231 219  3 305 306 109  3 90 307 89  3 307 90 200  3 308 307 200  3 141 142 211  3 211 142 274  3 130 234 137  3 291 130 248  3 291 141 130  3 274 275 65  3 275 309 65  3 202 185 235  3 311 312 310  3 314 315 313  3 315 316 313  3 165 163 152  3 159 148 147  3 269 180 122  3 163 177 151  3 177 317 151  3 164 178 163  3 232 150 153  3 197 232 195  3 318 232 233  3 151 152 163  3 112 125 111  3 320 321 319  3 321 199 127  3 321 178 199  3 319 126 322  3 126 227 322  3 127 126 321  3 321 126 319  3 180 159 122  3 125 148 227  3 126 125 227  3 30 224 29  3 46 35 45  3 216 323 212  3 171 117 118  3 118 311 276  3 194 283 228  3 224 228 301  3 169 31 168  3 4 295 166  3 324 325 220  3 31 169 30  3 326 149 301  3 167 194 169  3 30 194 228  3 168 212 167  3 149 3 301  3 301 3 224  3 216 327 323  3 283 326 301  3 328 36 236  3 122 329 269  3 328 236 330  3 35 42 45  3 332 331 333  3 214 245 334  3 337 335 336  3 332 338 331  3 341 340 339  3 331 338 342  3 32 34 343  3 344 345 346  3 347 342 338  3 348 334 104  3 350 349 351  3 352 353 354  3 104 334 245  3 348 104 300  
