ply
format ascii 1.0
comment bbox -26.226685  -21.613666 -0.144828  11.493667 -25.998034  -25.631115 
element vertex 55
property double x
property double y
property double z
element face 54
property list uchar int vertex_index
end_header
-25.052652359 2.8998222351099998 -25.716768264799999  -24.3881797791 1.9711499214199999 -25.691747665400001  -25.1989059448 2.4138062000299998 -25.7026042938  -24.437194824199999 0.32120859622949999 -25.644966125450001  -24.874476432800002 0.43179675936700002 -25.647236824049997  -25.058710098300001 -0.14482830464800001 -25.6311149597  -22.91679382325 5.1531046628950001 -25.782710552225002  -22.558884811420004 5.5169751167299994 -25.793560791020003  -22.741796493500001 11.4936666489 -25.9980335236  -24.0905399323 1.38757574558 -25.675262451199998  -24.245315551766666 0.91036071380066674 -25.661609649666669  -25.131063461299998 1.1172137260399999 -25.666934967  -25.2725791931 0.65400397777599995 -25.653135299700001  -22.464792633040002 3.1838981151580001 -25.727752685559999  -22.186772918720003 2.5998055458060003 -25.710983276360004  -21.75143280028 3.2030041694640006 -25.728539276139998  -23.757097244299999 0.92059031128649993 -25.662757873549999  -24.549148559599999 -0.0257839001715 -25.6348838806  -24.029964447000001 0.094877898693099996 -25.638864517199998  -23.171734809850001 4.2540631294275002 -25.756814002974998  -22.517028172833335 4.7237110137933334 -25.771199544266665  -24.900941848799999 3.39642548561 -25.730625152599998  -24.618310928300001 3.2366766929600002 -25.7263069153  -22.675941467300003 4.2016836802166662 -25.756161371866668  -22.284468650824998 3.7712372541425001 -25.744724273700001  -23.513856887800003 3.9315148592 -25.74730968475  -24.123274485266666 4.2065455118833333 -25.754201253266668  -24.2242193222 3.7738735675849999 -25.741929054300002  -24.617080688449999 3.8219488859199999 -25.742963790899999  -24.571425437924997 4.2616837024674998 -25.754985809324999  -24.026056289700001 1.64971339703 -25.6829319  -23.512234210974999 1.6347712278374997 -25.682919025425001  -23.607101440400001 0.53113651275600005 -25.651733398400001  -23.500247955300001 0.21780450642099999 -25.642967224100001  -24.982536315899999 1.59205126762 -25.680152893100001  -24.869385719299999 1.953189015385 -25.690155982949999  -24.455097834266667 1.6301103035600002 -25.681650797566665  -23.669048309324999 2.1170630454999997 -25.6959757805  -23.336909612033335 0.55233905712766662 -25.6524143219  -22.911254882833333 0.46977597475066668 -25.650677363099998  -23.124061584500001 -0.13145799934899999 -25.633563995399999  -23.062722206125002 3.17634999752 -25.726517200500002  -23.870162487024999 4.7230472564700001 -25.769000530249997  -24.232131958 2.46129608154 -25.705600738499999  -24.5134147644 4.7597219467160006 -25.768938827520003  -26.226684570300002 8.9697923660299992 -25.905412674000001  -23.042201995799999 11.4555091858 -25.995374679600001  -22.058938026433335 4.9406015078233336 -25.777629852299999  -22.132273674025001 4.292671322825 -25.759754657750001  -21.77452278136667 3.7264444828033336 -25.743611017866666  -21.613666057574999 2.7053164839749999 -25.714144229874996  -24.995836257899999 4.2465605735800001 -25.754175186200001  -25.4147605896 0.194596096873 -25.6399402618  -25.058710098300001 -0.14482830464800001 -25.6311149597  -25.2725791931 0.65400397777599995 -25.653135299700001  3 1 2 0  3 4 3 5  3 7 6 8  3 10 11 9  3 12 4 5  3 13 15 14  3 3 10 16  3 10 9 16  3 17 3 18  3 20 19 6  3 3 4 11  3 21 22 0  3 23 24 25  3 26 27 28  3 28 29 26  3 16 30 31  3 3 16 32  3 33 18 32  3 3 32 18  3 9 30 16  3 35 1 34  3 30 9 36  3 31 30 37  3 16 38 32  3 39 40 33  3 20 23 19  3 41 24 13  3 42 6 19  3 43 1 0  3 6 7 20  3 35 2 1  3 45 42 44  3 46 8 45  3 45 8 6  3 47 48 20  3 24 49 15  3 48 24 23  3 50 14 15  3 24 15 13  3 6 42 45  3 26 44 42  3 44 26 29  3 51 29 28  3 43 0 22  3 48 23 20  3 1 30 36  3 49 24 48  3 25 19 23  3 3 17 5  3 1 36 11  3 11 34 1  3 11 36 9  3 3 11 10  3 52 54 53  
