ply
format ascii 1.0
comment bbox 15.708262  17.940212 -27.186930  -25.083433 -24.725985  -24.676497 
element vertex 6
property double x
property double y
property double z
element face 2
property list uchar int vertex_index
end_header
15.819139480600001 -25.083433151200001 -24.722820282000001  15.8110837936 -25.192426681499999 -24.7077407837  15.708262443500001 -25.083858490000001 -24.7106590271  17.727880477900001 -27.104028701800001 -24.690259933499998  17.940212249799998 -27.100086212200001 -24.725984573400002  17.775915145900001 -27.186929702800001 -24.676496505700001  3 0 1 2  3 3 4 5  
