ply
format ascii 1.0
comment bbox -36.841137  -25.006350 -6.461928  4.955091 -7.433744  21.057556 
element vertex 48
property double x
property double y
property double z
element face 32
property list uchar int vertex_index
end_header
-36.841136932399998 -6.4619278907800002 20.984287261999999  -36.412544250499998 -6.1876482963599999 20.855279922499999  -36.6776390076 -6.3522596359300003 21.057556152299998  -25.384443283100001 -2.11239361763 4.7199249267600001  -25.628793716400001 -2.34737920761 4.70544862747  -25.338983535800001 -2.1352591514600001 4.4998784065199997  -25.6743831635 -2.3312456607800001 4.9205870628400001  -25.457336425800001 -2.1257672309900002 5.0191979408250003  -25.351608276349999 -2.2202783823000001 4.3000497818000003  -25.1753959656 -2.0675430297899999 4.2432050705000002  -25.253252029399999 -2.2371218204500001 4.02200889587  -25.006349563600001 -1.9822970628700001 4.0495963096600001  -25.250853538500003 -1.9927713870999999 4.8872833251949999  -25.680138587949997 -2.2985430955849999 5.1150155067449994  -25.122027397149999 -1.9279537200900001 4.6008501052900002  -25.0497112274 -1.9301272630699999 4.2897515296900002  -28.553667068500001 1.39860260487 -3.25106716156  -28.409164428699999 1.4220713377 -3.21363949776  -28.571422576900002 1.55212283134 -3.23920226097  -28.4223957062 1.5781905651100001 -3.2097969055200002  -28.255517959599999 1.4500457048399999 -3.1913883686100002  -31.037378311200001 3.7663397788999999 -5.5239968299899997  -30.510147094699999 4.6499252319300002 -5.8394575119000001  -30.748184204099999 3.9935207366899999 -5.49948453903  -27.985359191899999 3.0233356952700001 -3.5472853183700002  -27.9310312271 2.8595587015149997 -3.4748080968849999  -27.70888614655 2.9231233596799999 -3.4279967546499996  -30.523769378699999 4.2516903877300001 -5.5627145767200004  -28.539237022400002 1.6969266533849998 -3.2489734888099999  -29.1639919281 1.8748259544400001 -3.3899765014600001  -29.1828956604 1.76170229912 -3.3592953681900002  -29.012810707100002 1.809862077235 -3.3506609201449997  -30.1927433014 4.8281989097600002 -5.8525671958899999  -30.337087631199999 4.95509052277 -6.0749630928  -28.415153503399999 1.74511635303 -3.2422845363600001  -31.8847293854 3.1811735630000002 -5.9680433273300002  -33.4985389709 1.46609282494 -7.4337439536999996  -33.478137969999999 1.2084684371900001 -7.2877559661899998  -29.171087265000001 1.6059781312900001 -3.3602941036199998  -29.325311660800001 1.73772895336 -3.3957076072699999  -29.254114151 1.59423518181 -3.38454532623  -29.307935714700001 1.5852249860800001 -3.4068739414200002  -29.457220077500001 1.7192853689200001 -3.4505875110600002  -29.4265155792 1.5966277122500001 -3.4596543312099999  -29.0230998993 1.6324990987800001 -3.3331105709100002  -28.419290542599999 1.3590157032000001 -3.2236986160300001  -31.607021331799999 2.8041150569900002 -5.6347742080699996  -31.227005004900001 3.2414791583999998 -5.4517459869399998  3 1 0 2  3 4 3 5  3 3 4 6  3 7 3 6  3 5 9 8  3 10 9 11  3 12 3 7  3 6 13 7  3 12 14 3  3 9 10 8  3 15 11 9  3 16 17 18  3 17 19 18  3 20 19 17  3 21 23 22  3 24 25 26  3 23 27 22  3 19 28 18  3 29 30 31  3 32 33 22  3 34 28 19  3 35 36 37  3 38 39 40  3 30 39 38  3 41 40 39  3 41 39 42  3 43 41 42  3 38 44 30  3 45 17 16  3 46 47 35  3 21 35 47  3 21 22 35  
