ply
format ascii 1.0
comment bbox -1.383606  1.496035 -11.694555  0.113797 -25.472900  -25.000546 
element vertex 356
property double x
property double y
property double z
element face 390
property list uchar int vertex_index
end_header
0.82258540391900004 -11.5367746353 -25.0016880035  0.68642288446400002 -11.3958520889 -25.007164001500001  0.82105320692100003 -11.400756835899999 -25.0063438416  0.15667874738585 -7.470102071765 -25.147927284249999  0.086118496954400006 -7.3250932693499999 -25.156978607199999  -0.050317898392699997 -7.4611926078800002 -25.1517410278  1.22649645805 -11.5527734756 -25.004455566400001  0.95964741706800005 -11.6791505814 -25.002647399899999  1.36258530617 -11.6945552826 -25.003993988000001  0.00516019994393 -11.094924926799999 -25.010509491000001  0.0036180999595699999 -10.958804130600001 -25.018407821699999  0.140133500099 -11.0993690491 -25.007654190099998  0.0012145000509900001 -10.8212690353 -25.022275924700001  -0.13591290265299999 -10.7470049858 -25.0243844986  -0.20060385763650002 -10.95012378695 -25.016156196600001  1.49453777075 -11.360976219200001 -25.017623901349999  1.35971200466 -11.354991436000001 -25.014688491850002  1.3613840341600001 -11.558830261200001 -25.007972717299999  0.048340100795 -4.5685133934 -25.274280548099998  0.094423599541199998 -4.5376439094499998 -25.275299072300001  -0.094853401184100003 -4.4124460220300001 -25.280021667500002  0.11517440341434999 -4.2781271934500005 -25.288520812950001  0.247372493148 -9.0292596816999993 -25.088678359999999  0.24523440003399999 -8.88867759705 -25.093038559  0.17741850018499999 -9.0553884506200006 -25.087430953999998  0.15944309532600001 -2.3364152908300002 -25.3655471802  0.0196812003851 -2.4800848960900002 -25.3629665375  -0.12547640502499999 -2.3189799785599998 -25.367900848400001  0.134347498417 -0.35079619288399999 -25.4526405334  0.27990138530699998 -0.51422697305700005 -25.4438800812  -0.079837048426119994 -0.49017231166349995 -25.44651699065  -0.084755349904300004 -4.8324522972100006 -25.26153182985  0.0505889989436 -4.7162675857499998 -25.269096374499998  0.052209798246599999 -4.8624982833899999 -25.2609863281  -0.08742470294245 -9.572323799134999 -25.0651464462  0.11839380115299999 -9.5820293426499994 -25.067564010600002  0.116523601115 -9.4429149627700006 -25.0736637115  0.14059489965399999 -0.81394642591499999 -25.4342937469  0.2147377431395 -0.97339376807199995 -25.42940711975  -0.00134129996877 -0.95722460746799998 -25.427021026599999  0.090699300169899993 -7.6113924980199998 -25.148035049400001  0.16149215400220002 -7.7565014362299998 -25.140717506400001  0.227485194802 -7.6154637336700004 -25.140604019200001  1.1672656238074999 -11.336308240875001 -25.014278888699998  1.49603545666 -11.5647096634 -25.010879516599999  0.243992105126 -8.7493486404399992 -25.101741790799998  0.38277670741100001 -8.8955106735200005 -25.094764709500001  0.45048420131199995 -8.7598333358750011 -25.104728698750002  0.80216951171566675 -10.920042355833333 -25.025024096166664  1.1541759967774998 -10.937831640275 -25.028133392325  0.82188700636216672 -10.656207243583333 -25.034735043816664  0.95665961503999997 -11.4072656631 -25.011156082199999  -0.034271400421900002 -3.2305402755700001 -25.330757141100001  0.031777400523400001 -3.3806166648899998 -25.3234367371  -0.18152430653599999 -3.3666062355050004 -25.321674346949997  0.077696099877400004 -6.7509613037099996 -25.178678512600001  0.075473897159099995 -6.6066203117400004 -25.1836185455  -0.062667250633250002 -6.67148756981 -25.1810131073  0.13294570148000001 -10.5517644882 -25.0325183868  0.33711710572249998 -10.56055974965 -25.03425502775  0.267604291439 -10.420536994900001 -25.040882110599998  -0.093186497688299993 -4.5590825080900004 -25.271539688099999  0.076217100024199999 0.049440298229500003 -25.4693756104  0.20274650305500003 -0.046867448836600004 -25.466750144949998  -0.0119719002396 -0.185949400067 -25.459543228099999  0.27759505808399998 -11.17440891265 -25.010128021249997  0.14337569475199999 -11.237727165200001 -25.008399963399999  0.21204413970333333 -11.362380345666667 -25.003648757933334  -0.082415401935599999 -5.2936329841600003 -25.240831375100001  0.056434899568599997 -5.1562418937699999 -25.2494678497  -0.079969100654099998 -5.4403905868500004 -25.236127853399999  -0.084384903311699996 -5.1475682258599997 -25.247776031499999  0.18904689699400001 -10.951867580449999 -25.018559455850003  0.073932997882400001 -6.4633111953700002 -25.1918029785  0.072138302028199999 -6.3193025588999996 -25.198812484699999  -0.092090498656150002 -6.4042842388150003 -25.194129943850001  1.2189429657799999 -10.598500387985712 -25.041757038657142  0.49087550044060002 -10.789796447759997 -25.027804183939999  0.122435003519 -9.8600521087599997 -25.056873321499999  0.120267398655 -9.7209281921400006 -25.061506271399999  0.32549165189249996 -9.7303204536449996 -25.063302040099998  -0.097345300018799999 -4.2638807296800003 -25.284708023099999  -0.099044099450099995 -4.1167101859999997 -25.293094634999999  0.062318198382900002 -5.5941514968900004 -25.230251312299998  -0.078213401138800001 -5.5855674743700003 -25.228244781499999  0.13049405440670001 -5.4524881839749995 -25.237021446250001  0.28328400850300001 -11.5164995193 -25.001943588300001  0.41511774063100004 -11.316689491249999 -25.007192611699999  0.148993998766 -1.42801868916 -25.410545349100001  0.151102304459 -1.5809115171400001 -25.404718399  -0.13586519658599999 -1.5607937574399999 -25.403142929099999  0.31813349574799998 -9.1729030609150009 -25.085048675549999  0.52190713087699991 -9.042518615723333 -25.091349919633331  0.113775998354 -9.30219173431 -25.0756149292  0.31988039612749997 -9.3124532699550002 -25.079141616800001  0.32191365957250001 -9.4522299766499991 -25.07462978365  0.47207351773975004 -11.076866149900001 -25.017047405225  0.63934997717533337 -11.212498029066666 -25.014037450166665  0.255507588387 -9.5885887146000002 -25.069469451900002  0.27151390910099998 -10.695855140700001 -25.030954360999999  0.13579349964850002 -10.757715225249999 -25.023879051199998  0.60884985327749996 -10.5720934868 -25.035984039300001  0.47121085226549997 -10.428576469399999 -25.039871215799998  1.0510888874536999 -10.289062404629998 -25.050347518910005  0.74213801324374995 -10.371293306349999 -25.043974399574999  0.469439417124 -10.290692329400001 -25.044952392599999  0.78915878136933326 -10.073471546166667 -25.054599444066668  0.10956639796500001 -9.02206897736 -25.085708618200002  0.1017674505713 -8.8721289634700007 -25.093284606899999  0.112316802144 -9.1632738113399999 -25.0837173462  0.88752496242549994 -11.26801204685 -25.014134407050001  0.95325627922950007 -11.100275993350001 -25.020759105674998  -0.14027039706700001 -1.2551920414 -25.416288375899999  0.28859388828299998 -1.1320910453799999 -25.4237575531  -0.0101760001853 -0.33989891409900003 -25.451444625899999  0.31945604085899998 -10.925680160533332 -25.020478566500003  0.093897297978400004 -7.8943486213699998 -25.132642745999998  0.23130619525900001 -7.8998131752000003 -25.1292667389  0.0108334003016 -1.87295091152 -25.386203765899999  -0.12959380447900001 -2.01653528214 -25.3820896149  -0.13152930140499999 -1.86522614956 -25.389793396000002  0.55310219526299997 -11.526581764199999 -25.0015907288  0.551206290722 -11.3902511597 -25.005563735999999  0.097565896809099995 -8.1772251129200004 -25.119579315199999  0.23426370322699999 -8.0434551238999994 -25.128671646099999  0.1060428470375 -8.0701284408599996 -25.125528335550001  0.37031090259600002 -7.9082651138299997 -25.1341247559  0.43773271143449999 -7.7700462341299996 -25.140840530399998  0.44117429852449996 -8.0536556243900002 -25.129423141449998  0.36651119589800002 -7.62369155884 -25.144426345799999  0.26497718691799999 -8.6128425598099998 -25.105556488000001  0.44811265170600001 -8.6181879043599992 -25.1070957184  -0.13869969546800001 -1.4066379070299999 -25.4067955017  0.0044669001363199998 -1.4155564308199999 -25.405183792100001  0.105856701732 -8.7418432235699992 -25.098278045699999  0.240179598331 -8.4678163528399999 -25.112819671600001  0.24161280691600001 -8.6079044342 -25.104990005499999  0.377569288015 -8.4740142822299998 -25.1121501923  0.364721089602 -7.4812512397799997 -25.1501483917  0.611527764797 -9.2778488159180004 -25.084121704099999  0.081695400178400004 -7.0381164550799999 -25.166774749799998  0.034075800329399997 -7.1470308303800003 -25.162984848000001  0.083472698926899999 -7.1809444427500004 -25.1598091125  -0.052652098238499999 -7.3179912567100001 -25.1565876007  0.0139706004411 -2.0272607803299998 -25.384675979600001  -0.128129795194 -2.1665313243900002 -25.3722419739  0.24850829690699999 -3.6927477121349996 -25.312569618200001  0.034037098288500003 -3.53037261963 -25.318084716800001  -0.105342701077 -3.6712670326199999 -25.3128490448  0.19897209852949999 -7.3425459861749998 -25.15451812745  0.102160699666 -8.4607448577900009 -25.111009597799999  0.16873529553424998 -8.3223381042500009 -25.115235328650002  -0.18744266529866668 -3.5144683519999997 -25.318159103400003  -0.016327800229199999 -9.7152290344200001 -25.062074661299999  0.27679648995400002 -0.206890001893 -25.460062026999999  0.068440899252900006 -6.0303897857699997 -25.2123985291  0.065940000116799999 -5.88432836533 -25.216154098499999  -0.0717592015862 -6.0219769477799998 -25.210268020600001  0.155613899231 -2.0337829589799998 -25.3787994385  -0.034184999764000003 -8.5941267013499996 -25.102045059200002  -0.122817896307 -2.4711763858800002 -25.363615035999999  0.19702379405499998 -10.27889060975 -25.043198585550002  0.13119789958 -10.414394378700001 -25.039030075100001  0.52509356041749999 -9.602738857268335 -25.069374084466663  0.19321779906700001 -4.8714628219599998 -25.263025283800001  0.054175898432700001 -5.0091962814300004 -25.254524231000001  -0.086357198655600001 -5.0012636184700003 -25.254734039300001  -0.01414919970558 -10.3099527359 -25.03861045835  0.00090280000586099999 -1.11099362373 -25.421150207499998  -0.14318859577199999 -1.1003116369199999 -25.419614791899999  0.38035020232200001 -9.8697519302349992 -25.059852123275  0.46665157377725003 -10.083192348475 -25.051915168725003  0.80424274007466667 -9.8217776616400005 -25.065747261033334  -0.013856999576099999 -9.8546934127799997 -25.0583152771  -0.0120066003874 -9.9929990768400003 -25.051668167100001  0.0073267999105199998 -11.231691360499999 -25.005575180099999  -0.19741302728675003 -11.155199527724999 -25.007263660425  -0.0098318001255400002 -10.1315660477 -25.0465717316  0.30499694496399998 -8.188215255734999 -25.122789382900002  0.061379849910700002 -6.1318871974900002 -25.206328392  -0.0700789503753 -6.1753156185150004 -25.205202102649999  0.21023729443600001 -6.1832780838000003 -25.2076835632  1.3115079104899998 -11.109978437425001 -25.023417949675  0.20001593728866665 -10.000091234843334 -25.052369435599999  0.0166951008141 -1.6116911172899999 -25.399599075299999  -0.067693501710899995 -6.3112893104600003 -25.1973133087  0.13858340680600001 -0.65999978780699997 -25.440717697099998  -0.0053520998917500002 -0.65007907152199995 -25.4410686493  0.46014773100600004 -8.3074142932899999 -25.118354320525  -0.075836502015599994 -5.7317070961000001 -25.2232723236  -0.073456503450900004 -5.8776082992600003 -25.218343734699999  0.203932598233 -5.7469043731699996 -25.222879409800001  0.18205860257100001 -3.9865255355799998 -25.3019657135  0.17223119735699999 -3.2412447929399999 -25.332616806000001  0.030448399484200001 -3.2326521873499998 -25.333177566500002  -0.040344301611199999 -8.1707983016999997 -25.119976043699999  -0.038076799362900003 -8.3124904632599996 -25.114976882899999  0.038138899952200003 -3.8282370567299999 -25.305507659900002  -0.101461201906 -3.9678072929399999 -25.298181533800001  -0.044444598257500002 -7.8874492645299998 -25.132087707499998  -0.11557945050295 -7.74229168892 -25.1388435364  0.18162579834466666 -10.129278182966667 -25.047784805300001  -0.0028663000557599999 -10.546547889699999 -25.0335044861  -0.0062559000216399997 -10.406906127899999 -25.032815933199998  -0.12598359584800001 -11.3630361557 -25.0005455017  -0.0017144000157699999 -10.682758331300001 -25.023698806799999  -0.036198399961000001 -8.4533100128199994 -25.108182907100002  -0.022794200107499999 -9.2968988418599992 -25.077945709200002  0.0029464000835999998 -7.6106505393999999 -25.143535614000001  0.021920800208999999 -2.63129496574 -25.357357025100001  -0.120710201561 -2.6218843460099999 -25.3568172455  -0.103735797107 -3.81895303726 -25.303958892800001  -0.021740999771274999 -0.80061489343650005 -25.4326581955  -0.11609510332300001 -2.9234385490400001 -25.345149993900002  -0.089487701654300006 -9.4330687522900014 -25.071123123149999  -0.11161620356165 -8.0257329940800002 -25.125505447400002  -0.050425451248900001 -9.1339979171749999 -25.083465576149997  -0.026779599487799999 -9.0173921585100008 -25.0901813507  -0.030141400173300002 -8.8751115799000004 -25.089925766  -0.20528005808599997 -1.7085814475999999 -25.396941184999999  0.14929239824394999 -6.8984696865099995 -25.173338890099998  -0.058643698692300003 -6.8887743949900004 -25.176002502399999  -0.0483634993434 -7.6034989357000002 -25.145149231000001  -0.054264400154399997 -7.1758303642300003 -25.164829254200001  0.20617889861266667 -2.9461836020133334 -25.343162536633333  -0.11210899800099999 -3.2226252555800001 -25.3306922913  0.169875606894 -3.0905718803400002 -25.336969375599999  0.82335111498833324 -9.4984154701199994 -25.077132542933331  -0.51098901033400002 -4.8306531906099996 -25.262283325199999  -0.29706399142750001 -4.9899792671199998 -25.256514549249999  -0.50599020719499999 -5.1245636939999999 -25.249885559100001  -0.86424490809450005 -4.810124874115 -25.26177597045  -0.71774131059650004 -5.1119987964650004 -25.248497962950001  -0.86365637183200006 -5.1491491794600002 -25.2458105087  -0.28827310353549995 -5.5745499134100003 -25.229738235500001  -0.079969100654099998 -5.4403905868500004 -25.236127853399999  -0.21555450558700001 -5.7247371673599998 -25.2250175476  -0.101461201906 -3.9678072929399999 -25.298181533800001  -0.099044099450099995 -4.1167101859999997 -25.293094634999999  -0.24033139646099999 -4.1085257530200003 -25.293676376299999  -0.18744266529866668 -3.5144683519999997 -25.318159103400003  -0.38243710994750002 -3.452400565145 -25.319976806650001  -0.31814759969700002 -3.65810906887 -25.312479972849999  -0.00134129996877 -0.95722460746799998 -25.427021026599999  -0.35831324756149996 -1.0872396826749999 -25.423054695099999  -0.147164598107 -0.79419767856599999 -25.4349060059  -0.0119719002396 -0.185949400067 -25.459543228099999  -0.105897597969 -0.252528101206 -25.4561901093  -0.0137275997549 -0.031852699816200002 -25.4678554535  -0.72948521375666664 -5.7447900772133336 -25.222289403266668  -0.8507694900035 -5.54302310944 -25.228723526  -0.57600030302999994 -5.5773539543166661 -25.228837331133334  -0.217341557145 -0.942005157471 -25.4265022278  -0.71513947844500003 -5.2585697174049999 -25.242031097400002  -0.72860446572299997 -4.5225310325599999 -25.272835731500003  -1.012070059777 -4.5056543350249996 -25.27207279205  -0.97295705477333339 -4.3319813410433339 -25.27971522013333  -0.078213401138800001 -5.5855674743700003 -25.228244781499999  -0.075836502015599994 -5.7317070961000001 -25.2232723236  -0.74741938710225009 -4.2895287275299996 -25.282675266275  -0.12959380447900001 -2.01653528214 -25.3820896149  -0.128129795194 -2.1665313243900002 -25.3722419739  -0.30293090641499998 -2.1747010946300001 -25.3758516312  -0.30357620120000001 -0.0098965000361200001 -25.465812683100001  -1.0882582068450002 -0.65033333003524996 -25.436014175425001  -1.2961889902766666 -0.6466381351153333 -25.435533523566665  -1.1714100837700001 -0.103290103376 -25.4601745605  -0.18152430653599999 -3.3666062355050004 -25.321674346949997  -0.034271400421900002 -3.2305402755700001 -25.330757141100001  -0.11210899800099999 -3.2226252555800001 -25.3306922913  -0.58781552314800001 -0.30036270618400002 -25.454412460299999  -0.28874234855199998 -0.51189303398100006 -25.444515228250001  -0.25411841273300001 -3.2140474319500001 -25.331315994299999  -0.273243099451 -2.0059187412299999 -25.3797397614  -0.159251302481 -1.9011529684099999 -25.3864994049  -0.405575305223 -2.60469841957 -25.359176635699999  -0.122817896307 -2.4711763858800002 -25.363615035999999  -0.120710201561 -2.6218843460099999 -25.3568172455  -0.26092201471299997 -2.7636830806699999 -25.350931167599999  -0.23575599491599999 -4.4046893119800004 -25.2812633514  -0.45030145347100003 -4.2439842224149995 -25.287078857449998  -0.0101760001853 -0.33989891409900003 -25.451444625899999  -0.14944800734499999 -0.64005339145700002 -25.441238403300002  -0.079837048426119994 -0.49017231166349995 -25.44651699065  -0.28495389223099998 -1.24319636822 -25.412054061900001  -0.14027039706700001 -1.2551920414 -25.416288375899999  -0.13869969546800001 -1.4066379070299999 -25.4067955017  -0.13586519658599999 -1.5607937574399999 -25.403142929099999  -0.35155834257599999 -1.54540729523 -25.401418685899998  -0.43815630674400002 -0.61962097883199996 -25.44090271  -1.3836061954500001 -0.39721764624099998 -25.444862365700001  -0.20528005808599997 -1.7085814475999999 -25.396941184999999  -0.0053520998917500002 -0.65007907152199995 -25.4410686493  -0.021740999771274999 -0.80061489343650005 -25.4326581955  -0.44605159759500002 -0.15449920296700001 -25.458814620999998  -0.14318859577199999 -1.1003116369199999 -25.419614791899999  -0.12687235325564999 -7.0272705554949999 -25.166213035599998  -0.058643698692300003 -6.8887743949900004 -25.176002502399999  -0.054264400154399997 -7.1758303642300003 -25.164829254200001  -0.73007422685599999 -0.44462761282899999 -25.447273254399999  0.076217100024199999 0.049440298229500003 -25.4693756104  0.12845210731000001 0.113797001541 -25.4729003906  -0.23824569582899999 -4.2563180923499999 -25.286533355700001  -0.094853401184100003 -4.4124460220300001 -25.280021667500002  -0.12547640502499999 -2.3189799785599998 -25.367900848400001  -0.47478663921399999 -2.7503426074999999 -25.351565360999999  -0.22935870289800001 -4.8461966514599997 -25.260726928699999  -0.084755349904300004 -4.8324522972100006 -25.26153182985  -0.32757604122149997 -3.0597066879299999 -25.33784675595  -0.11609510332300001 -2.9234385490400001 -25.345149993900002  -0.0700789503753 -6.1753156185150004 -25.205202102649999  -0.209290593863 -6.1595978736900001 -25.2046108246  -0.0717592015862 -6.0219769477799998 -25.210268020600001  -0.19361050427000001 -7.1680455207799998 -25.1628303528  -0.465405583382 -3.3498771190649999 -25.323575019849997  -0.73695540428150008 -4.0774784088149998 -25.2904882431  -0.81047922372799996 -3.92489075661 -25.297594070399999  -0.58228699366266667 -3.9796898365033333 -25.29666455586667  -0.16112604737280001 -4.70314311981 -25.267072677599998  -0.093186497688299993 -4.5590825080900004 -25.271539688099999  -0.67291611432999998 -3.6370882988000002 -25.313919067400001  -0.52833718061400003 -3.7946727275800001 -25.307250976599999  -0.42601984739300003 -5.7130143642449998 -25.22458839415  -1.3769272565833333 -4.0388743082666663 -25.289605458599997  -1.0206840038279998 -4.0610849857350004 -25.2917547226  -1.3026498556149999 -4.1915922164949997 -25.282760620099999  -0.58982086181649995 -4.3827080726650003 -25.278583526600002  -0.30931890010800001 -5.1065809726699998 -25.249585151650003  -0.082415401935599999 -5.2936329841600003 -25.240831375100001  -0.084384903311699996 -5.1475682258599997 -25.247776031499999  -0.181016802788 -5.2302198410000003 -25.244966507000001  -0.052652098238499999 -7.3179912567100001 -25.1565876007  -1.3209032217666665 -3.8829165299733339 -25.297051111866665  -0.097345300018799999 -4.2638807296800003 -25.284708023099999  -0.092090498656150002 -6.4042842388150003 -25.194129943850001  -0.067693501710899995 -6.3112893104600003 -25.1973133087  -0.20719610154599999 -6.30409955978 -25.1978931427  -0.20513489842400001 -6.4483094215400003 -25.191049575800001  -0.35373809933700001 -5.8619627952600002 -25.217376709  -0.21365289390100001 -5.8695735931400002 -25.217334747300001  -0.20041769743000001 -6.7371039390599998 -25.1801719666  -0.062667250633250002 -6.67148756981 -25.1810131073  -0.24561785161499999 -6.6034834384900005 -25.185650825499998  -0.49122041463900001 -6.0001535415599996 -25.212383270299998  -0.19838480651400001 -6.8805661201500001 -25.173278808599999  -0.073456503450900004 -5.8776082992600003 -25.218343734699999  -0.34434160590200003 -6.4416999816900002 -25.192947387699999  -0.4190807491545 -6.1484508514399998 -25.20485210415  -0.29077020287499999 -5.4281919002499999 -25.235033035249998  -0.21233350038500001 -6.0130996704099999 -25.2070083618  -0.39169450104250003 -5.3126087188749995 -25.2394294739  -0.105342701077 -3.6712670326199999 -25.3128490448  -0.24520359933399999 -3.8107719421400001 -25.304847717299999  -0.086357198655600001 -5.0012636184700003 -25.254734039300001  -0.13152930140499999 -1.86522614956 -25.389793396000002  -0.2428932935 -3.9595136642500002 -25.2986736298  3 1 2 0  3 5 4 3  3 6 8 7  3 11 9 10  3 14 13 12  3 15 17 16  3 18 20 19  3 19 20 21  3 23 22 24  3 25 26 27  3 28 29 30  3 31 32 33  3 34 36 35  3 37 38 39  3 42 41 40  3 17 43 16  3 15 44 17  3 45 47 46  3 48 50 49  3 2 51 0  3 52 53 54  3 57 56 55  3 58 60 59  3 20 18 61  3 62 63 64  3 66 65 67  3 65 66 11  3 68 69 70  3 69 68 71  3 11 10 72  3 10 12 72  3 75 74 73  3 49 50 76  3 50 48 77  3 78 79 80  3 21 81 82  3 70 83 84  3 83 70 85  3 86 67 87  3 88 89 90  3 91 22 92  3 92 22 46  3 36 93 94  3 94 95 36  3 48 97 96  3 98 79 35  3 59 99 58  3 58 99 100  3 101 59 102  3 50 104 103  3 50 77 101  3 101 104 50  3 105 104 102  3 106 104 105  3 104 106 103  3 107 108 24  3 108 23 24  3 93 109 91  3 109 24 91  3 2 110 51  3 97 111 110  3 96 87 65  3 97 87 96  3 112 38 113  3 28 114 64  3 115 72 99  3 116 41 117  3 119 120 118  3 122 1 121  3 124 123 125  3 97 122 87  3 117 41 126  3 41 127 126  3 126 128 124  3 124 117 126  3 42 129 41  3 129 127 41  3 47 45 130  3 130 131 47  3 132 112 133  3 133 112 88  3 40 3 42  3 134 45 108  3 45 23 108  3 135 130 136  3 130 135 137  3 138 42 3  3 94 91 139  3 72 100 99  3 140 142 141  3 143 4 5  3 103 76 50  3 144 145 119  3 146 148 147  3 149 3 4  3 150 151 135  3 147 152 53  3 79 153 35  3 132 133 90  3 25 27 145  3 63 154 64  3 155 157 156  3 158 145 144  3 85 70 69  3 159 150 136  3 26 160 27  3 1 122 97  3 162 161 60  3 163 80 98  3 164 165 166  3 94 139 95  3 31 61 32  3 167 161 162  3 64 154 28  3 39 168 169  3 80 163 170  3 100 72 12  3 81 21 20  3 28 30 114  3 65 72 115  3 99 59 77  3 59 101 77  3 129 42 138  3 106 105 171  3 78 153 79  3 102 104 101  3 102 60 105  3 158 119 118  3 119 158 144  3 98 95 163  3 112 168 38  3 170 163 172  3 59 60 102  3 65 115 96  3 88 90 133  3 78 174 173  3 176 9 175  3 69 71 165  3 165 71 166  3 161 167 177  3 171 170 172  3 78 80 170  3 65 11 72  3 123 124 178  3 43 110 111  3 158 25 145  3 179 157 155  3 157 179 180  3 179 181 180  3 181 74 180  3 111 182 43  3 78 170 183  3 95 139 163  3 96 77 48  3 38 168 39  3 134 159 136  3 184 90 89  3 16 43 182  3 164 166 33  3 168 112 169  3 111 97 48  3 60 58 162  3 125 116 124  3 128 178 124  3 74 185 180  3 187 186 37  3 188 178 128  3 123 178 151  3 65 87 67  3 130 137 131  3 46 23 45  3 22 23 46  3 29 186 30  3 186 187 30  3 113 88 112  3 84 83 189  3 12 10 14  3 117 124 116  3 156 190 189  3 189 83 191  3 191 156 189  3 82 192 21  3 193 53 52  3 18 32 61  3 166 31 33  3 193 52 194  3 136 130 45  3 125 123 195  3 6 17 8  3 123 151 196  3 147 148 152  3 198 197 192  3 200 41 199  3 9 176 14  3 161 177 201  3 75 73 57  3 174 201 177  3 162 58 202  3 202 203 162  3 175 204 176  3 12 205 100  3 206 150 159  3 207 93 36  3 116 199 41  3 150 206 196  3 116 125 199  3 40 200 208  3 200 40 41  3 210 26 209  3 185 74 75  3 198 211 197  3 212 187 37  3 37 39 212  3 209 213 210  3 26 210 160  3 150 196 151  3 93 91 94  3 9 14 10  3 36 214 207  3 91 92 139  3 123 196 195  3 34 214 36  3 215 125 195  3 24 109 107  3 91 24 22  3 35 153 34  3 216 217 107  3 107 109 216  3 107 217 218  3 201 174 183  3 174 78 183  3 216 109 207  3 109 93 207  3 107 218 108  3 218 134 108  3 218 159 134  3 184 219 90  3 205 12 13  3 162 203 167  3 202 58 205  3 48 49 111  3 100 205 58  3 55 220 221  3 221 220 140  3 199 125 215  3 208 222 5  3 5 40 208  3 55 221 57  3 5 3 40  3 141 142 143  3 143 223 141  3 140 223 221  3 141 223 140  3 4 143 142  3 208 200 222  3 156 157 190  3 56 57 73  3 192 82 198  3 148 146 197  3 184 118 219  3 120 219 118  3 54 53 152  3 213 209 224  3 194 52 225  3 224 226 213  3 213 226 194  3 225 213 194  3 211 148 197  3 153 78 173  3 77 115 99  3 77 96 115  3 80 79 98  3 172 163 227  3 139 227 163  3 172 106 171  3 49 182 111  3 201 183 171  3 170 171 183  3 60 161 105  3 228 229 230  3 231 232 233  3 235 236 234  3 237 238 239  3 241 240 242  3 243 244 245  3 246 247 248  3 250 251 249  3 252 244 243  3 232 253 233  3 254 255 256  3 258 236 257  3 254 256 259  3 260 261 262  3 248 247 263  3 266 264 265  3 268 267 269  3 270 247 271  3 240 241 272  3 260 273 274  3 275 276 277  3 275 277 278  3 279 280 239  3 246 281 247  3 283 282 271  3 284 285 286  3 287 288 286  3 271 289 270  3 265 290 266  3 291 288 287  3 292 245 282  3 245 292 293  3 247 270 294  3 247 283 271  3 244 295 285  3 252 295 244  3 289 245 244  3 296 297 298  3 289 299 270  3 300 248 301  3 263 247 294  3 279 302 303  3 262 304 276  3 230 232 228  3 305 275 278  3 229 306 307  3 272 308 309  3 278 277 309  3 310 311 312  3 298 313 296  3 241 314 272  3 272 309 269  3 317 315 316  3 303 318 279  3 318 303 319  3 272 269 240  3 240 269 267  3 320 242 321  3 261 304 262  3 236 322 234  3 323 324 325  3 326 259 280  3 230 229 327  3 329 328 330  3 253 232 230  3 331 313 298  3 280 259 317  3 259 315 317  3 324 323 332  3 300 246 248  3 302 279 238  3 279 239 238  3 303 302 333  3 333 302 238  3 335 334 336  3 336 334 337  3 234 322 251  3 338 322 236  3 236 339 338  3 341 340 342  3 343 322 338  3 319 307 318  3 318 307 306  3 341 297 344  3 345 236 258  3 339 236 345  3 337 346 336  3 235 330 328  3 347 343 311  3 348 235 234  3 251 348 234  3 349 345 312  3 350 348 251  3 251 250 253  3 322 249 251  3 249 322 343  3 289 282 245  3 271 282 289  3 295 252 243  3 259 326 254  3 247 281 283  3 242 351 352  3 282 283 292  3 293 243 245  3 353 229 307  3 235 257 236  3 351 242 240  3 354 260 274  3 291 354 274  3 355 237 239  3 241 242 320  
