ply
format ascii 1.0
comment bbox -26.765183  -20.840116 -9.701376  -2.367365 15.212283  26.039089 
element vertex 118
property double x
property double y
property double z
element face 115
property list uchar int vertex_index
end_header
-24.512732505800003 -6.4625830650299996 23.579097747799999  -24.5424766541 -6.2695984840400003 23.3198566437  -24.656370162999998 -6.27491474152 23.541622161900001  -24.761351903266668 -7.5584103266400007 24.7307771047  -26.57686805725 -7.7441661357899996 25.357455253600001  -26.610368728600001 -7.6389365196199996 25.318958282499999  -24.639337539700001 -6.4806442260699999 23.8203697205  -25.058910369900001 -6.4214992523200003 24.933797836299998  -25.160556793200001 -6.2047448158299998 24.877824783299999  -24.724293708800001 -8.3930139541649993 24.62181949615  -24.689330101000003 -8.4937658309949988 24.896956443800001  -24.668787002599998 -8.2588100433299996 24.868206024199999  -26.600415229799999 -7.4325721263900002 25.379036903399999  -24.8033275604 -7.3177909851100003 24.724409103399999  -26.5901813507 -7.5360355377200001 25.370115280150003  -24.740385055499999 -8.8639955520600004 24.974384307899999  -24.726678848300001 -8.6980619430499999 24.865686416599999  -24.779521942100001 -8.95908069611 24.8639545441  -24.7090320587 -8.14350859324 24.632438659666665  -24.888978958100001 -9.18298768997 24.301448822049998  -24.986733436549997 -9.4461445808400004 24.590765953049999  -25.0142993927 -9.4735651016200002 24.3399620056  -24.716326395666666 -7.8543155988066671 24.636912663766669  -24.687723159800001 -7.9424719810499997 24.864194869999999  -24.8037586212 -8.9675350189199996 24.754844665499999  -24.748957951833333 -8.634413401283334 24.65915934243333  -21.129982948299997 -2.8874387741100001 15.586896419550001  -20.979351043699999 -2.998723268505 15.501924037950001  -20.999032974199999 -2.8312101364100002 15.4240550995  -21.313158035299999 -2.78663754463 15.6834278107  -21.2328548431 -2.9433070421199998 15.704797267899998  -21.3653697968 -2.8982646465299999 15.7896680832  -24.794391632100002 -6.7252950668300002 24.319101333599999  -24.555398941050001 -6.6409955024750005 23.855382919299998  -24.668628692599999 -8.1639795303299998 24.888513565099998  -24.877545038866668 -9.2458321253499989 24.755075454733333  -24.828795433049997 -9.0095748901349992 24.553004264849999  -21.229732513399998 -2.4414253234899999 15.262467384300001  -21.444067955000001 -2.390246629715 15.36843919755  -21.270792007449998 -2.5261018276250002 15.41320085525  -20.892763137799999 -2.8016884326899998 15.2821407318  -20.966732978850001 -2.7045034170150002 15.287754058800001  -21.155269622799999 -2.7399694919600002 15.513117313399999  -21.390876769999998 -2.36736536026 15.290725708  -21.172574996950001 -2.6420187950149998 15.439783573150001  -21.089551925649999 -2.5894660949699997 15.302165031449999  -24.838550567599999 -9.2060556411699999 25.026311874400001  -21.087940216100002 -2.5079646110499998 15.2122831345  -21.355751037599997 -2.6458886464466667 15.601691246066666  -21.051076889000001 -3.0676324367499999 15.598651886000001  -20.8401155472 -2.96395778656 15.3265180588  -26.510293960550001 -7.9543950557750005 25.434603691100001  -24.7240066528 -7.7327013015699997 24.7594413757  -24.86892604825 -6.97945928574 24.794635772699998  -24.961333274849999 -6.716671705245 24.797544479400003  -26.587154388399998 -7.3309879303000001 25.435228347799999  -24.961177825899998 -9.4635934829699995 24.891223907499999  -26.391559123975 -8.009325623512499 25.604346752150001  -26.25478458405 -8.0611729621899997 25.761053085349999  -25.0787162781 -9.7013759613000001 24.8463897705  -26.573448181149999 -7.2293531894700003 25.491050720200001  -25.0037117004 -6.62343883514 24.7598590851  -25.095197677600002 -9.6800832748399994 24.592081069900001  -24.9612178802 -9.4806318283100008 24.934751510600002  -25.031915664700001 -9.6077365875199998 25.076347351100001  -24.979069709800001 -9.4818825721749995 25.169281959549998  -24.835477828949998 -9.0263090133699997 24.307511329649998  -24.758158683799998 -8.7174887657150002 24.384677887000002  -24.823293685900001 -7.2348113060000001 24.6499176025  -24.686670303300001 -8.6959142684900002 25.1363220215  -21.41835021975 -2.8110525608100003 15.774435997000001  -26.541553497300001 -7.8489766120900004 25.3946018219  -26.063493728600001 -8.2667007446300005 25.940065383899999  -26.145753860500001 -8.1644735336299998 25.872846603399999  -25.473955154399999 -8.7049674987800003 26.039089202900001  -24.757413864099998 -8.9529495239300001 25.141712188700001  -25.187496185299999 -6.1095638275099997 24.972021102900001  -26.587154388399998 -7.3309879303000001 25.435228347799999  -26.600415229799999 -7.4325721263900002 25.379036903399999  -26.642868042 -7.3288598060599996 25.3470058441  -26.573448181149999 -7.2293531894700003 25.491050720200001  -26.657602310200001 -7.2262234687799998 25.359188079799999  -26.64586639405 -7.12497162819 25.416484832800002  -26.610368728600001 -7.6389365196199996 25.318958282499999  -26.669523239099998 -7.5321617126499998 25.2346172333  -26.5901813507 -7.5360355377200001 25.370115280150003  -26.668502807599999 -7.6373624801600002 25.232450485200001  -25.0615234375 -9.5609121322600004 25.303913116499999  -25.104511260999999 -9.6339941024800009 25.295471191400001  -25.0897140503 -9.6973733901999992 25.110425949100001  -26.681848526 -7.42902135849 25.2450447083  -26.51222991945 -8.0596790313699991 25.434428215049998  -26.5259084526311 -8.5584856326732002 25.057670261034236  -26.5909919739 -8.0561084747299994 25.2989711761  -26.391559123975 -8.009325623512499 25.604346752150001  -26.403324127200001 -8.1685147285450004 25.610199928299998  -26.5963897705 -7.95200681686 25.304368972799999  -26.541553497300001 -7.8489766120900004 25.3946018219  -26.510293960550001 -7.9543950557750005 25.434603691100001  -26.602231979399999 -7.8479232788099997 25.3100910187  -26.643453598000001 -8.0537061691300007 25.208473205600001  -26.650363922099999 -7.9498133659399999 25.214941024800002  -26.57686805725 -7.7441661357899996 25.357455253600001  -26.6624584198 -7.7415685653699997 25.226613998400001  -26.720457076999999 -7.6346454620399999 25.141328811600001  -26.714717865000001 -7.73896217346 25.135751724199999  -26.765183448800002 -7.6833064556099995 25.044087409999999  -26.26711940765 -8.1679949760449997 25.7679338455  -26.145753860500001 -8.1644735336299998 25.872846603399999  -26.063493728600001 -8.2667007446300005 25.940065383899999  -26.25478458405 -8.0611729621899997 25.761053085349999  -26.701525688149999 -7.2745196819300002 25.261553764350001  -24.979069709800001 -9.4818825721749995 25.169281959549998  -25.031915664700001 -9.6077365875199998 25.076347351100001  -26.655290603600001 -7.8455209732100002 25.2199573517  -24.686670303300001 -8.6959142684900002 25.1363220215  -25.118085861200001 -8.8496837615999997 25.865083694500001  -24.757413864099998 -8.9529495239300001 25.141712188700001  3 2 0 1  3 4 3 5  3 7 6 8  3 9 11 10  3 13 12 14  3 15 17 16  3 9 18 11  3 20 21 19  3 22 23 18  3 17 24 16  3 24 25 16  3 26 27 28  3 29 31 30  3 6 32 33  3 18 34 11  3 35 36 24  3 25 9 10  3 37 38 39  3 41 28 40  3 42 26 28  3 43 38 37  3 6 7 32  3 23 34 18  3 42 28 41  3 41 44 42  3 39 44 45  3 24 46 35  3 46 24 17  3 45 47 39  3 47 37 39  3 29 30 26  3 42 29 26  3 29 42 48  3 41 45 44  3 26 49 27  3 50 40 28  3 13 14 5  3 51 23 52  3 53 54 55  3 46 56 35  3 23 57 58  3 20 56 59  3 13 5 3  3 60 54 61  3 59 62 20  3 64 56 63  3 63 65 64  3 53 12 13  3 36 19 66  3 25 36 67  3 66 67 36  3 52 23 22  3 57 23 51  3 54 60 55  3 25 10 16  3 35 56 20  3 25 24 36  3 53 13 68  3 53 55 12  3 16 69 15  3 2 6 0  3 29 70 31  3 71 51 52  3 16 10 69  3 72 10 73  3 3 71 52  3 73 34 58  3 42 44 48  3 10 11 73  3 11 34 73  3 59 56 64  3 74 10 72  3 23 58 34  3 15 75 17  3 10 74 69  3 15 69 75  3 71 3 4  3 76 8 6  3 29 48 70  3 44 39 48  3 77 79 78  3 80 81 77  3 81 80 82  3 83 85 84  3 86 83 84  3 89 87 88  3 79 90 78  3 91 93 92  3 94 92 95  3 94 91 92  3 96 98 97  3 99 96 97  3 96 101 100  3 100 93 96  3 83 103 102  3 104 106 105  3 86 103 83  3 84 104 86  3 105 103 104  3 104 103 86  3 107 109 108  3 94 98 91  3 107 108 110  3 79 111 90  3 95 110 94  3 97 102 99  3 87 89 112  3 89 113 112  3 93 98 96  3 98 93 91  3 110 95 107  3 79 81 111  3 79 77 81  3 114 103 105  3 117 115 116  
