ply
format ascii 1.0
comment bbox -2.128284  0.272142 -0.103290  12.444767 -25.941217  -25.458319 
element vertex 30
property double x
property double y
property double z
element face 21
property list uchar int vertex_index
end_header
-0.84686517715499998 6.1326999664299997 -25.7265033722  -0.097828298807100006 6.0660367011999998 -25.7247276306  -0.55519419908500001 6.6066093444799998 -25.745832443200001  -0.61702847480800005 1.42032516003 -25.527233123799999  -0.0374043993652 1.6913915872600001 -25.540889740000001  0.112663000822 1.36431586742 -25.527830123899999  -0.18955750018349998 7.243007183075 -25.772521018999999  0.040621999651200003 6.8861908912700001 -25.758779525800001  -1.6266392469399999 0.71145230531699999 -25.4907779694  -2.1282836198799999 0.27892115712150001 -25.470106124899999  -1.6087682247199999 -0.071016497910000004 -25.458318710299999  -0.46580609679200002 1.0941166877699999 -25.513723373400001  -0.16093480587 0.13472099602199999 -25.473014831499999  -0.0137275997549 -0.031852699816200002 -25.4678554535  -0.30357620120000001 -0.0098965000361200001 -25.465812683100001  -0.064232602715500006 3.6108379363999998 -25.6199932098  -0.734810829163 3.9894819259649998 -25.635355949400001  0.087523803114900003 3.2759513855 -25.606788635299999  -0.31271061301199998 0.61246961355200003 -25.494201660200002  -0.81936770677600002 0.49373491108400003 -25.48732566835  -0.73811447620399995 0.020259600132699999 -25.468000411999999  -1.1811747551 0.36516469717 -25.4786815643  -1.1714100837700001 -0.103290103376 -25.4601745605  -1.74735665321 12.4447669983 -25.941217422499999  -0.18721359968199999 11.9186344147 -25.9285449982  0.27214190363899998 12.050362587 -25.929454803500001  -0.020692599937300001 0.43627679347999998 -25.485069274899999  -0.77784541249299999 6.4598600864449995 -25.73947238925  0.19486109912399999 0.57574826478950003 -25.4927148819  0.12845210731000001 0.113797001541 -25.4729003906  3 0 2 1  3 4 5 3  3 2 6 7  3 8 10 9  3 5 11 3  3 12 13 14  3 16 15 17  3 20 19 18  3 10 21 22  3 25 24 23  3 12 18 26  3 2 0 27  3 19 20 22  3 28 26 18  3 19 22 21  3 21 10 8  3 12 26 13  3 26 29 13  3 20 12 14  3 20 18 12  3 26 28 29  
