ply
format ascii 1.0
comment bbox -31.807188  -29.191998 -2.311100  0.334022 -25.624058  -25.555719 
element vertex 6
property double x
property double y
property double z
element face 3
property list uchar int vertex_index
end_header
-31.807188034100001 -2.31110024452 -25.5760993958  -31.201309204099999 -1.7575639486300001 -25.555719375599999  -30.72143363955 -1.2763288021100001 -25.570119857800002  -30.200897216800001 -0.67685180902499997 -25.5875434875  -29.722815513649998 -0.27552499622100002 -25.601344108599999  -29.1919975281 0.33402240276299999 -25.6240577698  3 0 1 2  3 2 3 0  3 3 4 5  
