ply
format ascii 1.0
comment bbox -25.473955  -24.686670 -9.697373  -8.695914 25.026312  26.039089 
element vertex 19
property double x
property double y
property double z
element face 15
property list uchar int vertex_index
end_header
-25.0615234375 -9.5609121322600004 25.303913116499999  -25.067325592 -9.4187650680499999 25.5083045959  -24.979069709800001 -9.4818825721749995 25.169281959549998  -25.1363334656 -9.5265808105499996 25.492649078399999  -24.9047813416 -9.1818428039600004 25.465408325199999  -25.0897140503 -9.6973733901999992 25.110425949100001  -24.686670303300001 -8.6959142684900002 25.1363220215  -25.118085861200001 -8.8496837615999997 25.865083694500001  -24.757413864099998 -8.9529495239300001 25.141712188700001  -24.8719882965 -9.0979480743399996 25.4798431396  -25.0618591309 -9.14878082275 25.703216552699999  -25.031915664700001 -9.6077365875199998 25.076347351100001  -25.473955154399999 -8.7049674987800003 26.039089202900001  -24.8719882965 -9.0979480743399996 25.4798431396  -24.757413864099998 -8.9529495239300001 25.141712188700001  -24.847833633400001 -9.20542144775 25.155124664300001  -24.9047813416 -9.1818428039600004 25.465408325199999  -24.979069709800001 -9.4818825721749995 25.169281959549998  -24.838550567599999 -9.2060556411699999 25.026311874400001  3 1 0 2  3 0 1 3  3 2 4 1  3 2 0 5  3 8 6 7  3 10 9 8  3 10 8 7  3 10 1 4  3 4 9 10  3 5 11 2  3 12 7 6  3 13 15 14  3 16 17 15  3 15 13 16  3 15 17 18  
