ply
format ascii 1.0
comment bbox -2.013050  2.157175 -15.133001  -0.900836 -25.427021  -24.854021 
element vertex 406
property double x
property double y
property double z
element face 440
property list uchar int vertex_index
end_header
0.30559749901299998 -13.197957515700001 -24.933499336250001  0.172319501638 -13.2596158981 -24.928445816  0.17425060272199999 -13.392694473300001 -24.923311233500002  1.373331522942 -13.143001270300001 -24.950092697149998  0.82083311251214286 -13.135293279371428 -24.9438975198  1.0599229666915557 -13.032796329911113 -24.949423472088888  0.86123140901312512 -13.566226601599999 -24.927968978875001  1.8695002283385713 -13.716112954271429 -24.934462956028572  1.7647545662790911 -13.226662028918184 -24.94974639199091  1.5850881849014284 -13.611962999614287 -24.934149605885715  1.4389327367155558 -13.970346238877777 -24.919294145366671  -0.12598359584800001 -11.3630361557 -25.0005455017  0.022622199729099998 -11.571211814866667 -24.993698120133335  -0.122650500387 -11.567384719850001 -24.9928264618  0.0089087998494500002 -11.367446899400001 -24.9979114532  1.1339773982758752 -14.364875078187501 -24.898527145375002  1.5133222171242857 -14.229864529214286 -24.909566606814284  0.66592384874824995 -13.309409618349999 -24.934122562425003  1.5962766110887501 -14.514276027674999 -24.899732351299999  1.3594640890777776 -14.769527753188887 -24.88478342691111  1.5180330106185715 -15.049165180742857 -24.875173023771424  1.8785710864577776 -15.133001115600003 -24.879434585588886  1.79629199207 -14.777240157125 -24.891320705425002  1.0073561847207999 -13.947141265860001 -24.913992118830002  1.2558951973916668 -13.603458642974999 -24.930581092833332  1.1430275837533335 -12.180770874033334 -24.983992258699999  0.9902046918873334 -11.953386306733334 -24.988785425833331  1.0278984606265 -11.816719532 -24.996562004099999  1.23061746359 -12.02633190155 -24.988000869750003  2.0111736456558331 -14.002594153083335 -24.923926035566666  1.0734729528436 -12.410815811179999 -24.973657608019998  0.89655245840550002 -12.14853835105 -24.981201648700001  0.76441271603124994 -12.345328569399999 -24.972480297074998  0.81236183643333337 -11.864493052166665 -24.990769704166667  1.4332554141666665 -12.457815965016666 -24.9753376643  1.2292370945212499 -12.659440159812501 -24.966288328175001  0.64683618148166666 -11.890930811600001 -24.986149470000001  0.68946737050999995 -11.667427063 -24.996623992899998  1.6324682633066667 -12.862108124622221 -24.962093989055553  0.6326625049115 -12.542038440699999 -24.964360237125  0.88014858961085707 -12.741696357728571 -24.959682737085711  0.47792606552433337 -12.692608515400002 -24.9565633138  0.54315133690840001 -12.92647953032 -24.947057724019999  0.48401010036466663 -13.182283719366668 -24.937102635666665  0.31545159220699998 -12.9326092402 -24.944099426266671  0.30925334989999997 -13.4640035629 -24.923295021049999  1.9599073583427269 -14.345177477063634 -24.910152608709094  0.050411898642799997 -14.050492286700001 -24.8962535858  0.188843995333 -14.4488105774 -24.878959655799999  -0.066353000700500001 -14.394365787550001 -24.873802185100001  1.1463744103892 -15.120951175689999 -24.863767814639999  0.51114549636840001 -13.47548694612 -24.925017929060001  2.0761752639514288 -13.458946636742857 -24.945243290500002  0.56293112412087509 -13.944175601025 -24.906982421875  0.42503333091725004 -13.678808212325 -24.91578149795  0.17638330161599999 -13.525790214500001 -24.919168472300001  0.48717969655999999 -11.659573554950001 -24.995510101299999  0.48831616342100004 -11.794364452349999 -24.987528800950003  0.48524039387720003 -12.275452232360001 -24.97191047666  0.62191156546299997 -12.072489102666667 -24.981353759766666  1.4746040999900001 -12.174648046474999 -24.986666679374999  0.28792130947149996 -12.566302299499998 -24.959181785600002  0.29570829868300003 -12.462164878799999 -24.962825775100001  0.43009889125799999 -12.4670648575 -24.963634491000001  0.51912598311900005 -14.262772321724999 -24.892397403724999  0.7850384541921428 -14.463883808685713 -24.887993131371427  0.52199777960775007 -14.524783134450001 -24.880256176000003  0.584940887987625 -14.779106020925001 -24.868123769762498  1.0048579648140001 -14.752481460587498 -24.879567146300001  0.75211143493660004 -15.039761734000001 -24.858057785039996  0.83932285507516668 -14.166716257733334 -24.902321497599999  1.6327744722399999 -12.042304515850001 -24.993159294149997  1.6348148187 -12.378303845733335 -24.981156667099999  -0.11877854913450001 -11.784820079799999 -24.983330726600002  0.291943609715 -12.1927700043 -24.972843170200001  0.15590805560350002 -12.119798660299999 -24.9730529785  0.15969359874700001 -12.3232221603 -24.969314575199999  0.1406807489695 -12.743938922849999 -24.950076103200001  0.0309167001396 -12.7212533951 -24.951805114700001  0.16904500126800001 -12.9935264587 -24.941604614300001  0.29927790164899998 -12.730449676499999 -24.951951980600001  1.22915709019 -11.8241796494 -24.996673584  0.28812864795350002 -11.923492670050001 -24.983850002274998  0.240003099044 -11.6948633194 -24.991273244200002  0.82459777593600003 -11.6732597351 -24.999523162799999  0.35772524774049996 -12.060685157750001 -24.979765892050001  0.0177041999996 -11.911608696 -24.9791316986  0.14720779657399999 -11.510088920599999 -24.9973011017  0.28328400850300001 -11.5164995193 -25.001943588300001  0.083648803643799993 -11.779230117800001 -24.986811637899997  0.21204413970333333 -11.362380345666667 -25.003648757933334  0.14337569475199999 -11.237727165200001 -25.008399963399999  1.3636425733599999 -11.829836845399999 -24.9992427826  1.365046858785 -12.032045841199999 -24.991156578049999  1.6321491002999999 -11.8409786224 -25.0037994385  -0.095511898398400005 -13.2507228851 -24.927715301500001  -0.0681572519243 -12.98389101025 -24.937633514399998  0.68642288446400002 -11.3958520889 -25.007164001500001  0.68750369548800006 -11.5311164856 -24.999645233199999  0.55310219526299997 -11.526581764199999 -25.0015907288  0.0073267999105199998 -11.231691360499999 -25.005575180099999  0.95964741706800005 -11.6791505814 -25.002647399899999  0.82258540391900004 -11.5367746353 -25.0016880035  0.29412820935200001 -12.327964782700001 -24.969291686999998  2.1571750938887502 -14.7068752050375 -24.897944450374997  0.19199280440800001 -14.710258483900001 -24.865692138699998  -0.072623200714600003 -14.8322286606 -24.854021072399998  -0.112148500979 -12.178204536399999 -24.9723415375  0.024672899395199999 -12.3178739548 -24.967067718500001  1.36258530617 -11.6945552826 -25.003993988000001  0.41511774063100004 -11.316689491249999 -25.007192611699999  0.41778650879899998 -11.520903587299999 -24.9995079041  0.551206290722 -11.3902511597 -25.005563735999999  -0.90485042333599996 -6.41069889069 -25.189170837399999  -0.83751124143599998 -6.2696678638450001 -25.195493698150003  -1.0567519664766667 -6.3522060712166661 -25.192511876400001  -0.35155834257599999 -1.54540729523 -25.401418685899998  -0.27508130669600001 -1.85502147675 -25.388431549100002  -0.20528005808599997 -1.7085814475999999 -25.396941184999999  -0.022794200107499999 -9.2968988418599992 -25.077945709200002  -0.050425451248900001 -9.1339979171749999 -25.083465576149997  -0.160539403558 -9.2899446487400006 -25.0752906799  -0.844174921513 -2.1201057434099999 -25.373344421399999  -0.55439919233299995 -2.2912664413499999 -25.3683586121  -0.62818264961250003 -2.1359566450100003 -25.376873969999998  -0.76930469274500002 -2.27732849121 -25.3684768677  -1.9441840052600001 -1.2817154526699999 -25.40195560455  -1.7000678479675 -1.4348001182100001 -25.398047924025001  -1.8024153113349999 -1.1384681463250002 -25.409951209999999  -0.209290593863 -6.1595978736900001 -25.2046108246  -0.20719610154599999 -6.30409955978 -25.1978931427  -0.067693501710899995 -6.3112893104600003 -25.1973133087  -0.41164934635150002 -10.5970625877 -25.02498435975  -0.61677737534025001 -10.588197469725001 -25.022984504724999  -0.48379038274300001 -10.387159347499999 -25.032206535349999  -1.502318799495 -1.618322730065 -25.389918327300002  -1.6804022491000001 -1.6918811500074999 -25.3867712021  -1.5090330243099999 -1.3119243979449999 -25.403325080850003  -0.89389741420699997 -6.9872236251800004 -25.163721084599999  -0.82071942090999994 -7.1354372501400007 -25.160410881049998  -0.68411815166449996 -6.9985775947600004 -25.165481567400001  -1.1120222210849999 -6.5446474552149994 -25.183933258099998  -1.1853275299099999 -6.3959941864000003 -25.189384460399999  -1.26559498906 -6.6369438171375004 -25.179115772225  -0.159251302481 -1.9011529684099999 -25.3864994049  -0.543882071972 -10.798519134499999 -25.018537521399999  -0.772985200087 -10.742460250833332 -25.016579945866667  -0.55169034004200002 -6.5747165679949999 -25.185952186550001  -0.34034961462000002 -6.7289118766799998 -25.1777000427  -0.34210550785100002 -6.5858449935900003 -25.186397552500001  -0.47937589883800003 -6.7225155830399999 -25.179851532000001  -0.76498991251000004 -6.4176869392400002 -25.188169479399999  -0.83214521408099995 -6.5588018894199998 -25.18267440795  -0.24033139646099999 -4.1085257530200003 -25.293676376299999  -0.2428932935 -3.9595136642500002 -25.2986736298  -0.101461201906 -3.9678072929399999 -25.298181533800001  -0.176582098007 -8.3051328659100001 -25.112588882400001  -0.040344301611199999 -8.1707983016999997 -25.119976043699999  -0.038076799362900003 -8.3124904632599996 -25.114976882899999  -1.36460220814 -10.831574440000001 -25.005064964300001  -1.22789478302 -10.78085947035 -25.008525848399998  -1.15733444691 -10.9091272354 -25.00445365905  -0.24066594988099999 -8.5848941802949987 -25.103042602549998  -0.51603389531374999 -8.6415567398075002 -25.097239494325002  -0.23868655413349998 -8.7252492904649994 -25.095980644199997  -0.38243710994750002 -3.452400565145 -25.319976806650001  -0.465405583382 -3.3498771190649999 -25.323575019849997  -0.60552695393599998 -3.4898698329900002 -25.31548690795  -0.41716790199300002 -6.2924113273650004 -25.196530342100001  -2.01304996014 -1.4302510420500001 -25.394980112733332  -0.40375390648800003 -11.0770101547 -25.003490448000001  -0.36420585513140002 -10.85857772828 -25.016474533079997  -0.20060385763650002 -10.95012378695 -25.016156196600001  -1.2945671081500001 -1.1745283603700001 -25.412683486900001  -1.54388252894 -1.1874779860166667 -25.409905751533334  -0.68886855244650003 -6.7116248607599998 -25.17978096005  -0.83914798498150001 -3.0315759181950002 -25.334729194650002  -1.0413652062425001 -3.01414203644 -25.336317062399999  -0.90116065740600004 -2.8728637695299999 -25.343252182000001  -1.35043758154 -1.9352541565900001 -25.380699157750001  -1.1849024693166668 -2.0655910174066672 -25.375878016166666  -1.4190963506700001 -2.0829713344599998 -25.374525070200001  -0.69077378511400001 -7.9024456342066669 -25.127182642633333  -0.52261706193266666 -8.023437817893333 -25.123755772900001  -0.66337189078299996 -8.1401395797749991 -25.11710262295  -0.72948521375666664 -5.7447900772133336 -25.222289403266668  -0.8507694900035 -5.54302310944 -25.228723526  -0.57600030302999994 -5.5773539543166661 -25.228837331133334  -1.0631439685805 -1.95284795761 -25.377841949500002  -0.98474901914599999 -2.26275992393 -25.367340087900001  -0.14923110604299999 -9.9863090515100001 -25.048748016400001  -0.21988730132600001 -9.8446016311649984 -25.054092407250003  -0.3711713055773333 -9.9729636510200006 -25.049194335933336  -1.42676794529 -1.7759654521899999 -25.383308410600002  -1.023269951344 -10.777389526349999 -25.011380195599997  -1.0374578595155999 -10.569082260140002 -25.019800186139999  -1.2783749500933332 -10.583315531433334 -25.018045425433332  -0.099044099450099995 -4.1167101859999997 -25.293094634999999  -0.68277806043633327 -8.328166007996666 -25.110061009733332  -0.76805090904239992 -8.6262758254999987 -25.096717453020002  -0.0098318001255400002 -10.1315660477 -25.0465717316  -0.0120066003874 -9.9929990768400003 -25.051668167100001  -1.2774918741644443 -9.6355524063122218 -25.053450690366667  -0.91387300193300003 -9.4647462367999999 -25.062080860125  -1.16463413834625 -9.2573257684700003 -25.0691730976  -1.0505783557899999 -6.1138448715199996 -25.202886581400001  -1.1235140562049999 -5.9652462005600002 -25.210471153249998  -1.251223504545 -6.1058139801049993 -25.2020301819  -0.18744266529866668 -3.5144683519999997 -25.318159103400003  -0.31814759969700002 -3.65810906887 -25.312479972849999  -0.52700853347775001 -1.6367891430874999 -25.395426750150001  -0.75201547145833336 -1.9239269495033333 -25.382528305066668  -0.75742036104199995 -1.6191887060799999 -25.395879745499997  -0.34434160590200003 -6.4416999816900002 -25.192947387699999  -0.48429930210099997 -6.4339389800999998 -25.1919517517  -0.50582259893433335 -2.5264937082899999 -25.358531316133337  -0.47478663921399999 -2.7503426074999999 -25.351565360999999  -0.68486604094500003 -2.745609998705 -25.34808540345  -0.64852543175224997 -8.9173123836499997 -25.087470531474999  -0.079969100654099998 -5.4403905868500004 -25.236127853399999  -0.223075702786 -5.28535223007 -25.239913940400001  -0.29077020287499999 -5.4281919002499999 -25.235033035249998  -1.25885814428 -6.24694800377 -25.194656372049998  -1.10634219646 -6.8328578472150001 -25.17058181765  -1.2896143992733335 -6.9721002578716673 -25.163758913683335  -0.48333729306833334 -9.1814997990933325 -25.076335906966666  -0.44183416167900003 -8.9584426879900008 -25.085554122933331  -0.62368047237400004 -2.4374017715449998 -25.360672950750001  -0.83557351430233329 -2.5750939051299997 -25.354917526233333  -1.402433514595 -6.0946173667900005 -25.201928138700001  -1.4062455892600001 -2.6889407634700002 -25.347230911299999  -1.1432117819800001 -2.5030356049525002 -25.357668876649999  -1.1196870803800001 -2.7066411972000002 -25.3460063934  -1.7338908910799999 -0.98847687244399995 -25.414800643900001  -1.9644953409833334 -9.7895250320416647 -25.040482203166665  -1.6865047727300002 -10.017548424851428 -25.033555167057141  -1.6105557531124999 -9.6655542850475005 -25.04882740975  -1.5269446373000002 -6.8109409809100008 -25.1698217392  -0.08742470294245 -9.572323799134999 -25.0651464462  -0.22212819755050001 -9.7056412696849996 -25.059735298149999  -0.016327800229199999 -9.7152290344200001 -25.062074661299999  -0.82150870561599998 -3.32765197754 -25.323213577299999  -0.67861819267300005 -3.3372662067399999 -25.324899673499999  -1.934754163025 -1.6652698218849999 -25.385562896750002  -0.71774131059650004 -5.1119987964650004 -25.248497962950001  -0.86365637183200006 -5.1491491794600002 -25.2458105087  -0.71513947844500003 -5.2585697174049999 -25.242031097400002  -1.5053332448000001 -10.68774747845 -25.008767127999999  -1.4433328211300001 -10.414082288725 -25.019715785975002  -1.6453975439099999 -10.611845970199999 -25.006925582899999  -0.084384903311699996 -5.1475682258599997 -25.247776031499999  -0.086357198655600001 -5.0012636184700003 -25.254734039300001  -0.22518420219400001 -5.1391744613599997 -25.246759414700001  -0.21555450558700001 -5.7247371673599998 -25.2250175476  -0.078213401138800001 -5.5855674743700003 -25.228244781499999  -0.075836502015599994 -5.7317070961000001 -25.2232723236  -0.20955804735450001 -10.40014743805 -25.038069725050001  -0.28095673024633333 -10.2580099106 -25.039545694966666  -0.40510590374449995 -7.0132138729100006 -25.166573524450001  -0.465581506491 -6.86826372147 -25.171862602250002  -0.337623894215 -6.8734588622999997 -25.173423767100001  -0.94064156214399997 -1.779155572256667 -25.387153625500002  -1.4637007713300001 -6.5249671936000002 -25.1805458069  -0.18152430653599999 -3.3666062355050004 -25.321674346949997  -0.034271400421900002 -3.2305402755700001 -25.330757141100001  -0.11210899800099999 -3.2226252555800001 -25.3306922913  -0.45545810461000003 -8.1503200530999997 -25.117916107199999  -0.68666636943799997 -6.8549270629850003 -25.171875953650002  -1.4852132797249999 -2.3805850744249999 -25.35832500455  -0.62722331285499999 -6.2809953689600002 -25.195882797199999  -0.61554795503600002 -2.8906779289199998 -25.34267520905  -0.33020634949200001 -2.9088952541350004 -25.343008995049999  -1.2460338175300001 -2.2933778762825003 -25.363550663000002  -0.273243099451 -2.0059187412299999 -25.3797397614  -0.48817898333050003 -1.99175697565 -25.379803657499998  -0.49052533507349999 -1.8400133252150002 -25.387021064750002  -1.2893652916 -1.4788181781800001 -25.394548416100001  -0.23628240823750002 -8.8660502433749997 -25.09088897705  -0.23396935313950001 -9.0064854621899997 -25.085428237949998  -1.2103017568550001 -1.790672957895 -25.383958816549999  -1.0928638378783333 -1.6454374392833335 -25.392937978099997  -0.99935251474366671 -1.5013023217533332 -25.4005203247  -0.28495389223099998 -1.24319636822 -25.412054061900001  -0.13869969546800001 -1.4066379070299999 -25.4067955017  -0.35440474748599998 -1.3915643096000001 -25.405916214000001  -0.7658179004986666 -1.1595505873366667 -25.414885203066664  -0.55250424891750005 -1.1665014326574998 -25.415311813374998  -0.73805615305899996 -1.3821319937699998 -25.40416908265  -1.4447160164500001 -0.94093819459133332 -25.419865926100002  -1.00559365749 -1.19397568703 -25.412088394200001  -0.794899702072 -0.90083602070799995 -25.424179077150001  -0.25890620052800001 -7.4499771594999995 -25.149415969850001  -0.050317898392699997 -7.4611926078800002 -25.1517410278  -0.052652098238499999 -7.3179912567100001 -25.1565876007  -0.32183888554599999 -7.8730340003999997 -25.129327774  -0.32362079620400003 -7.73171377182 -25.1376934052  -0.53219394385849994 -7.7207281589499992 -25.135473251299999  -0.20238003134733332 -10.555602391566666 -25.030049006133329  -0.33290231227900002 -7.1605648994399997 -25.161647796600001  -0.26118154823799999 -7.3070783615099995 -25.155343055749999  -0.19361050427000001 -7.1680455207799998 -25.1628303528  -0.273968786001 -10.6717033386 -25.023277282700001  -0.90453606843950007 -2.7210308313349998 -25.347453117400001  -0.39234892278924999 -9.604813814162501 -25.061583042149998  -0.36399886012100002 -9.420786857605 -25.070359230050002  -0.63541035354149999 -9.6173000335700003 -25.059612274175002  -0.98013998568187488 -9.8261438608175009 -25.049247980124999  -0.19838480651400001 -6.8805661201500001 -25.173278808599999  -1.3998862504962502 -10.052652597431251 -25.036082983012498  -0.57587219774725007 -7.131481170652501 -25.160094261174997  -0.60933160781899998 -7.2887926101699998 -25.153081893900001  -1.5226099193075002 -9.2446606159212497 -25.066978454575001  -0.60112579663566668 -10.198009173066666 -25.039285659766666  -0.84186566869416668 -10.36513058345 -25.030278523766668  -0.034184999764000003 -8.5941267013499996 -25.102045059200002  -0.174437299371 -8.4462718963600008 -25.106502533  -0.11557945050295 -7.74229168892 -25.1388435364  -0.25650825351500001 -7.5928444862350002 -25.14405441285  -0.044444598257500002 -7.8874492645299998 -25.132087707499998  -0.16898439824600001 -7.8660860061599998 -25.132287979099999  -0.0483634993434 -7.6034989357000002 -25.145149231000001  -0.46944108605399998 -7.2970161437999996 -25.1563854218  -0.890069961548 -3.4728116989100002 -25.316473960899998  -0.56797076463700003 -9.8610496521000002 -25.050908660880005  -0.75295281410249992 -3.1821798086149999 -25.329692840550003  -0.29706399142750001 -4.9899792671199998 -25.256514549249999  -0.37052989005999998 -4.8376250266999996 -25.2596473694  -0.22935870289800001 -4.8461966514599997 -25.260726928699999  -0.68742235501616655 -9.2893034617100003 -25.072601954133333  -0.38363200426099997 -3.7944712638849998 -25.30464363095  -0.24520359933399999 -3.8107719421400001 -25.304847717299999  -0.42601984739300003 -5.7130143642449998 -25.22458839415  -0.28827310353549995 -5.5745499134100003 -25.229738235500001  -0.45977550745000001 -7.8673543930100003 -25.132167816199999  -0.9127897024156667 -10.912819544466666 -25.008175532033334  -0.86424490809450005 -4.810124874115 -25.26177597045  -0.65264421701399999 -4.8215980529799998 -25.2601165771  -0.72587773203849992 -4.6702854633350004 -25.266764640799998  -0.16112604737280001 -4.70314311981 -25.267072677599998  -1.1033793772970002 -10.222291946385713 -25.034112112857141  -0.76288938522320004 -10.041131210326 -25.043336868279997  -0.46794599294700001 -7.4384045600900004 -25.146165847799999  -0.53395570814600002 -7.5793960094450004 -25.144691467249999  -0.81020835041999995 -7.7068564891799998 -25.134677887000002  -1.0336688756900001 -6.9800362587000002 -25.163564682000001  -0.89624941348999998 -6.8440809249900001 -25.171695709200002  -0.30931890010800001 -5.1065809726699998 -25.249585151650003  -0.030141400173300002 -8.8751115799000004 -25.089925766  -0.20513489842400001 -6.4483094215400003 -25.191049575800001  -1.405575692655 -5.9492273330700005 -25.208483696000002  -0.105342701077 -3.6712670326199999 -25.3128490448  -0.103735797107 -3.81895303726 -25.303958892800001  -0.58982086181649995 -4.3827080726650003 -25.278583526600002  -0.72860446572299997 -4.5225310325599999 -25.272835731500003  -0.51680451631500002 -4.53418874741 -25.2711696625  -0.37764841318100001 -4.39517354965 -25.278543472300001  -0.96807960669199999 -4.6367224057500005 -25.265859603899997  -0.45030145347100003 -4.2439842224149995 -25.287078857449998  -0.62439149618099998 -6.4261474609400002 -25.190895080600001  -0.80523846546833333 -7.409055074056667 -25.14934539796667  -0.85857397317899997 -7.5881250699366669 -25.140186309833336  -0.01414919970558 -10.3099527359 -25.03861045835  -0.146155998111 -10.1260871887 -25.047285080000002  -0.089487701654300006 -9.4330687522900014 -25.071123123149999  -0.271424598992 -9.3199925422650001 -25.072524070749999  -0.23115760087999998 -9.1474552154550004 -25.082266807549999  -0.96871402859800004 -6.6968691349049996 -25.179138183599999  -0.17879280448000001 -8.1636581420900001 -25.118396758999999  -0.11161620356165 -8.0257329940800002 -25.125505447400002  -1.69516781966 -10.426314989733333 -25.016877492266669  -0.35373809933700001 -5.8619627952600002 -25.217376709  -0.21365289390100001 -5.8695735931400002 -25.217334747300001  -0.013856999576099999 -9.8546934127799997 -25.0583152771  -0.49882999062524996 -8.3808670043950002 -25.110285758974999  -0.94900357723200002 -11.055167198199999 -25.001333236699999  -0.81252771615999997 -11.060628891 -25.001853942899999  -0.35138225555449998 -10.117103576649999 -25.045947074899999  -0.95655834078790003 -8.9763453483590006 -25.081812858590002  -0.54169970750800001 -10.9353923798 -25.011581420900001  -0.67671963572500005 -10.99848508835 -25.008434295649998  -0.31226751208300002 -8.4400758743300006 -25.107234954799999  -1.0840841174096001 -8.5726427078240004 -25.097991943339998  -0.12687235325564999 -7.0272705554949999 -25.166213035599998  -0.058643698692300003 -6.8887743949900004 -25.176002502399999  -0.036198399961000001 -8.4533100128199994 -25.108182907100002  -0.084755349904300004 -4.8324522972100006 -25.26153182985  -0.093186497688299993 -4.5590825080900004 -25.271539688099999  -0.24561785161499999 -6.6034834384900005 -25.185650825499998  -0.062667250633250002 -6.67148756981 -25.1810131073  -0.092090498656150002 -6.4042842388150003 -25.194129943850001  -0.20041769743000001 -6.7371039390599998 -25.1801719666  -0.986543059349 -5.8259327411649995 -25.213412284850001  -0.84277158975599997 -5.9797840118399996 -25.208880424500002  -1.4701733589199999 -6.2351517677299997 -25.193199157700001  -1.537078201775 -6.3767848014849999 -25.187654495250001  -0.91354602575300003 -6.1287536621100003 -25.202663421650001  -0.39169450104250003 -5.3126087188749995 -25.2394294739  -1.059749166172 -5.6764375368766666 -25.22010358173333  -1.0622162818900001 -5.5311045646699997 -25.228174209599999  -0.9948294162764999 -5.3883616924250006 -25.233620643599998  -0.314544409513 -8.2988491058299996 -25.1132450104  -0.19741302728675003 -11.155199527724999 -25.007263660425  -1.1009780764550001 -7.1196417808500003 -25.156016349799998  -0.217341557145 -0.942005157471 -25.4265022278  -0.14318859577199999 -1.1003116369199999 -25.419614791899999  -0.00134129996877 -0.95722460746799998 -25.427021026599999  3 0 2 1  3 5 3 4  3 3 6 4  3 7 9 8  3 10 9 7  3 13 11 12  3 11 14 12  3 16 15 10  3 4 6 17  3 19 15 18  3 20 22 21  3 24 23 6  3 23 10 15  3 25 26 27  3 27 28 25  3 18 15 16  3 29 10 7  3 31 30 32  3 33 27 26  3 35 30 34  3 36 37 33  3 8 3 38  3 40 41 39  3 44 42 43  3 2 0 45  3 46 16 29  3 10 29 16  3 25 31 26  3 40 32 30  3 9 10 24  3 10 23 24  3 9 24 3  3 42 4 43  3 49 47 48  3 50 19 20  3 51 43 17  3 52 7 8  3 9 3 8  3 54 6 53  3 55 2 45  3 20 19 22  3 16 46 18  3 43 4 17  3 36 56 37  3 57 56 36  3 54 45 51  3 58 59 32  3 31 33 26  3 25 60 34  3 61 62 63  3 51 17 6  3 64 65 66  3 19 18 22  3 67 68 69  3 68 65 15  3 15 19 68  3 50 68 19  3 15 70 23  3 23 70 53  3 23 53 6  3 60 71 72  3 54 51 6  3 64 53 70  3 65 64 70  3 70 15 65  3 25 34 30  3 13 12 73  3 74 76 75  3 77 79 78  3 41 44 80  3 28 27 81  3 35 38 3  3 40 35 5  3 31 25 30  3 5 35 3  3 83 56 82  3 56 57 82  3 33 37 84  3 59 31 32  3 6 3 24  3 34 38 35  3 35 40 30  3 39 63 58  3 58 32 39  3 32 40 39  3 4 40 5  3 34 60 72  3 40 4 42  3 40 42 41  3 63 39 41  3 61 63 41  3 61 41 80  3 44 41 42  3 82 57 85  3 82 85 75  3 82 75 86  3 58 85 59  3 77 61 80  3 85 74 75  3 87 88 83  3 87 12 14  3 83 12 87  3 83 89 12  3 86 89 82  3 83 82 89  3 90 14 91  3 94 93 92  3 1 2 95  3 2 55 95  3 78 79 96  3 87 14 90  3 98 99 97  3 100 14 11  3 71 60 94  3 90 88 87  3 84 102 101  3 74 103 76  3 27 101 81  3 91 14 100  3 103 63 62  3 103 58 63  3 46 22 18  3 22 46 104  3 105 106 48  3 89 73 12  3 75 76 107  3 107 76 108  3 84 101 33  3 93 94 60  3 109 92 81  3 110 112 111  3 37 99 98  3 27 33 101  3 37 56 99  3 88 110 111  3 56 111 99  3 111 112 99  3 88 56 83  3 88 111 56  3 97 102 98  3 114 113 115  3 118 117 116  3 119 121 120  3 124 123 122  3 122 123 125  3 128 127 126  3 129 131 130  3 132 133 134  3 136 127 135  3 127 128 137  3 139 138 140  3 143 142 141  3 118 144 117  3 133 145 146  3 149 148 147  3 147 148 150  3 151 147 152  3 155 153 154  3 157 158 156  3 159 160 161  3 162 164 163  3 165 167 166  3 129 130 168  3 126 127 169  3 170 171 172  3 174 173 137  3 175 147 150  3 177 178 176  3 179 180 181  3 184 182 183  3 187 185 186  3 188 122 189  3 190 192 191  3 135 193 136  3 160 195 194  3 160 196 195  3 155 197 153  3 163 199 198  3 200 190 201  3 202 204 203  3 206 205 207  3 135 127 137  3 165 208 209  3 212 210 211  3 213 214 168  3 217 215 216  3 218 199 163  3 219 221 220  3 142 222 115  3 223 224 143  3 226 225 218  3 228 227 217  3 222 229 207  3 232 230 231  3 233 174 128  3 234 236 235  3 143 224 237  3 141 115 113  3 238 240 239  3 167 241 242  3 127 243 169  3 141 223 143  3 244 246 245  3 247 249 248  3 251 250 252  3 255 253 254  3 134 257 256  3 258 259 260  3 211 261 212  3 237 262 143  3 143 262 142  3 264 263 265  3 266 198 184  3 243 127 136  3 188 261 211  3 267 175 150  3 267 150 259  3 230 268 231  3 214 269 168  3 122 188 211  3 216 271 270  3 180 272 181  3 273 117 144  3 272 231 268  3 122 274 124  3 274 122 211  3 211 275 274  3 274 275 273  3 273 275 117  3 210 275 211  3 135 137 276  3 226 277 278  3 279 179 193  3 275 210 117  3 210 116 117  3 276 281 280  3 261 281 212  3 280 281 261  3 283 284 282  3 116 284 283  3 285 286 287  3 174 288 173  3 259 140 267  3 151 152 113  3 289 290 285  3 293 292 291  3 115 141 142  3 128 174 137  3 295 294 296  3 134 297 132  3 300 299 298  3 227 125 123  3 301 171 132  3 302 178 232  3 217 216 270  3 303 305 304  3 203 305 306  3 215 217 227  3 232 178 177  3 228 217 302  3 260 307 258  3 235 236 308  3 239 240 191  3 309 310 139  3 311 202 236  3 134 313 312  3 162 315 314  3 316 295 317  3 318 319 316  3 320 316 317  3 309 321 310  3 241 167 322  3 323 306 305  3 323 305 303  3 242 241 324  3 325 326 327  3 305 328 304  3 329 209 330  3 253 331 332  3 222 205 115  3 333 296 294  3 334 194 146  3 335 337 336  3 326 338 327  3 313 146 195  3 196 248 339  3 313 340 312  3 341 299 291  3 343 342 296  3 312 340 323  3 259 258 309  3 223 345 344  3 310 321 341  3 325 252 346  3 277 347 278  3 164 277 226  3 149 213 348  3 213 149 214  3 321 309 298  3 147 214 149  3 349 207 229  3 350 351 330  3 352 354 353  3 160 194 161  3 337 353 354  3 202 306 308  3 352 355 354  3 335 356 337  3 357 355 352  3 358 269 214  3 134 133 313  3 341 321 298  3 299 341 298  3 360 359 341  3 238 239 303  3 310 341 359  3 361 257 362  3 363 364 121  3 195 196 339  3 319 294 316  3 316 294 295  3 121 119 363  3 304 328 225  3 365 364 225  3 223 141 366  3 300 293 299  3 364 304 225  3 259 309 140  3 297 301 132  3 147 358 214  3 364 365 121  3 194 195 146  3 204 202 311  3 332 331 187  3 367 368 157  3 248 369 235  3 113 114 151  3 299 293 291  3 370 331 253  3 340 306 323  3 253 371 370  3 313 195 339  3 240 372 191  3 373 163 198  3 146 313 133  3 120 121 365  3 372 190 191  3 120 365 278  3 374 334 375  3 190 376 192  3 314 347 164  3 347 277 164  3 132 145 133  3 328 203 377  3 203 204 377  3 182 343 296  3 248 308 339  3 146 145 378  3 379 146 378  3 380 315 162  3 377 381 199  3 373 380 163  3 339 308 306  3 196 247 248  3 382 307 383  3 362 190 200  3 314 315 384  3 386 385 338  3 348 387 149  3 199 218 377  3 312 257 134  3 257 312 376  3 348 389 388  3 362 257 190  3 190 257 376  3 297 134 256  3 338 385 327  3 147 151 358  3 382 300 298  3 298 258 382  3 388 387 348  3 175 152 147  3 298 309 258  3 259 150 148  3 260 259 148  3 258 307 382  3 138 267 140  3 267 138 345  3 387 148 149  3 260 148 307  3 148 390 307  3 392 205 391  3 391 205 206  3 390 388 307  3 394 393 262  3 392 395 205  3 220 221 396  3 397 398 186  3 308 236 202  3 222 207 205  3 156 367 157  3 182 333 183  3 182 296 333  3 399 186 398  3 266 400 373  3 380 162 163  3 373 400 380  3 187 221 332  3 314 164 162  3 164 226 163  3 235 308 248  3 313 339 340  3 366 345 223  3 223 344 224  3 345 138 344  3 306 340 339  3 401 170 172  3 361 362 200  3 328 305 203  3 306 202 203  3 376 312 192  3 201 190 372  3 171 145 132  3 378 145 171  3 239 191 303  3 192 312 323  3 224 344 402  3 380 400 156  3 218 328 377  3 328 218 225  3 400 367 156  3 140 309 139  3 156 315 380  3 317 341 291  3 266 184 183  3 373 198 266  3 226 218 163  3 404 403 405  3 209 350 330  3 350 209 208  
