ply
format ascii 1.0
comment bbox -24.867403  -0.708416 -4.978392  6.353485 -3.490500  15.326518 
element vertex 485
property double x
property double y
property double z
element face 482
property list uchar int vertex_index
end_header
-23.4569721222 4.1432741483033331 -2.4122450351700002  -23.672605514499999 4.2534837722750005 -2.4268170595199998  -23.611579895049999 4.4281084537499993 -2.4717710018150001  -23.339477539074998 4.3147567510625002 -2.4623959064499998  -22.053936640433335 6.2105967203799999 -3.3652646541566664  -22.2233791351 6.13417196274 -3.2421629428899998  -22.058488845799999 6.0814490318300001 -3.2124478817000002  -9.5481656392399987 1.2336985667566667 -0.85360546906766677  -9.4982390403749992 1.3578236699099999 -0.94678914546999993  -9.7473278045649998 1.32578212023 -0.90941354632350002  -24.316366195699999 4.3647179603600001 -2.5875506401099999  -24.383083343499997 4.1550102233900006 -2.5348227024100001  -24.352312088000001 4.3464536666900004 -2.59302330017  -24.197641372700001 4.2579545974700004 -2.5134599208799999  -18.825898170475 4.661247849465 -2.5807537436475001  -19.079274495433335 4.7003571192466671 -2.5200718243933333  -18.634973526 4.5030922889700005 -2.4761192798650002  -10.058023134833332 0.65357045332566666 -0.32293836275733334  -10.049074172999999 0.47886261343999997 -0.15354999899899999  -10.30447626115 0.62173047661800007 -0.23358230292799997  -9.4569778442400008 -0.14073009788999999 0.81315821409199995  -9.5488309860200005 0.243806093931 -0.0039352001622300001  -9.2516584396333332 0.1653628697 0.052593600004933329  -22.573664665199999 6.2394828796399997 -3.3250340223299997  -22.717588424700001 6.2712469101000003 -3.3486061096199999  -22.388175964399998 6.18331956863 -3.2748022079500001  -24.325942993200002 4.5564062595400001 -2.6731278896299999  -24.120300293 4.5582542419449998 -2.602241635325  -24.705796241750001 3.7153249978999998 -2.5512198209750001  -24.867403030399998 3.6078232526799998 -2.614847540855  -24.850210189799999 3.73174834251 -2.63451695442  -22.883762359599999 6.29042768478 -3.40672755241  -22.943109512300001 6.17039203644 -3.2807621955899999  -22.777584075899998 6.1423888206499999 -3.2301173210099998  -23.531799316400001 4.6559131145450001 -2.5503820180899996  -23.441986084 4.6942296028100001 -2.5640959739700002  -23.452735900899999 4.8027062416100001 -2.6071827411699999  -20.980038642849998 5.7001276016200002 -3.048385739325  -21.433911005633334 5.8971578280133334 -3.1348830064133328  -20.739491144833334 5.7219268480899999 -3.1422358353900002  -21.228416442849998 5.7749581336949998 -3.0605469942100001  -21.538605690000001 5.769692659375 -2.9856042861900001  -21.289661407499999 5.6750411987299998 -2.95278453827  -23.616800308199998 4.8594818115200002 -2.6355519294700001  -24.554510116599999 3.9496994018599998 -2.5368578434  -24.54341602325 4.1468634605400005 -2.59485065937  -19.330154418950002 4.4988179206850001 -2.2552880048750001  -19.531678199749997 4.579342365265 -2.30145084858  -19.3612508774 4.6997666358950001 -2.4455254077899999  -1.1087505817400001 1.6333373785 -1.8178491592399999  -1.027693847818 1.7493334213900003 -1.9585421085399999  -0.83635300397900003 1.70303404331 -1.9263832569099999  -3.9462368488299999 2.8999435901599999 -2.9253222942399999  -3.9340986013450001 2.9868595600100001 -3.0242658853500002  -3.5209325551999999 3.1158890724149999 -3.2184677124049998  -4.7680172920199997 0.66053152084400002 -0.56720000505400003  -4.6112816333750004 0.70181575417549991 -0.61557003855699999  -4.5056198835375003 0.52071933448325003 -0.60399450361750007  -9.94287109375 0.32129549980200001 -0.016968099400400002  -10.0048084259 0.37518030405000002 -0.061096899211399998  -9.9347467422500007 0.37270060181600001 -0.0743329972029  -9.7415781021099992 0.30559989809999999 -0.041130900382999998  -9.6853313446050002 0.4235745966435 -0.17153719812649998  -10.321614265399999 0.51915532350500004 -0.13132040202600001  -10.50025224685 0.54628409445299997 -0.1100898012519  -10.385435104400001 0.39501029252999997 0.0114604001865  -10.13950395585 0.45126780867600003 -0.10527959838500001  -10.2694835663 0.48895540833500001 -0.113157697022  -21.970571517933333 5.3316923777300005 -2.7427954673800001  -22.1392040253 5.4177150726300001 -2.7833313942000002  -22.302210489900002 5.4161101977033326 -2.7891905307799996  -18.966272989933334 4.8338209788033337 -2.7461315790833338  -9.6194292704266662 0.146267066399 0.12152799963956666  -9.7625384330750009 0.1893853992225 0.091633800417100009  -21.661164283750001 5.4643723964650004 -2.7846380472200001  -22.217771530149999 5.6711480617549999 -2.8865702152250003  -21.847812652599998 5.7164564132700004 -2.9142026901200002  -21.956801414499999 5.5247755050649996 -2.8178536891950001  -21.784195899949999 5.8358170986150002 -3.0126111507450002  -21.9528465271 5.9067783355700003 -3.0570590496099999  -21.659788131700001 5.9418698946633342 -3.1310554345433332  -21.998217582700001 5.9642896652249995 -3.1063503027000001  -23.800191879250001 4.4617004394500004 -2.4975533485399999  -23.972147464774999 4.5043947696675 -2.5389998555175  -23.799477259300001 4.6970400810266666 -2.5855119228366665  -24.626136779799999 3.92920708656 -2.5643272399899999  -24.676681518599999 4.1118841171299998 -2.6495530605300002  -24.698211669900001 3.9286289215100001 -2.6004452705399999  -8.1951694488550011 0.3009855002165 0.1019348017871  -8.4702959060699996 0.29791250824900001 -0.0230979006737  -8.3564109802199997 0.204329505563 0.225221604109  -21.527325312300004 5.6099131902033337 -2.8750792344433336  -22.084733963000001 0.182017892599 -0.031917199492499999  -21.997049331700001 0.17125439643900001 0.083777800202399999  -22.162115097000001 -0.0147085003555 0.0847612991929  -23.376274108899999 4.5202927589400002 -2.5076247453700002  -19.0886359215 4.5862869024275001 -2.3877849578849997  -9.9758272170799991 1.1893028020849998 -0.79188311100050002  -9.8513793945333337 1.0708144903169998 -0.69793911774966666  -22.612251281700001 6.1091423034699996 -3.1838850975000001  -18.9267807007 1.58277666569 -0.035394500941000002  -18.752180099499999 1.6042864322699999 0.058191999793099997  -18.987960815400001 1.51398789883 0.13797950744599999  -22.487483978250001 5.5293173790000001 -2.8401886224749999  -21.733520507800002 5.6334614753750003 -2.875316619875  -22.316353480033332 5.8447686831133332 -2.9912532170600001  -21.742742538433333 6.0893200238533334 -3.2904051144933333  -10.191892623899999 0.31882840395000001 0.038022998720399999  -23.88402811686667 4.0652135213199996 -2.3880201975466666  -23.851290384933332 4.2405514717099999 -2.4315675894400002  -23.756099700949999 3.9514508247400002 -2.3600158691399997  -23.543369293250002 3.8938908576999998 -2.3695682287199999  -24.030312856066669 4.2618497212766666 -2.46966934204  -24.063030242899998 4.0675373077400003 -2.421793937685  -24.17042827605 4.3606235981000001 -2.54052567482  -24.7957038879 3.85657954216 -2.6381483077999999  -24.2182178497 4.12964487076 -2.4769930839500001  -24.440754572566664 3.9794460137700001 -2.5064103603399999  -24.416160583500002 4.5783686637900001 -2.7144284248399999  -24.463060379000002 4.3364443779000004 -2.6315014362300002  -24.4723052979 4.5108613967900002 -2.7103652954099999  -24.505434036299999 4.3201904296900002 -2.64365386963  -23.65489673615 4.6777002811450004 -2.5646061897300001  -23.7815151215 4.9051876068100002 -2.6729319095599999  -23.907768249499998 4.9951171875 -2.7443902492499999  -23.947280883800001 4.93664121628 -2.7220091819799999  -24.615409851100001 4.3630819320700001 -2.7182173728899999  -24.651315689100002 4.3317441940350001 -2.7248947620399999  -24.484947204600001 4.3720116615300002 -2.6570150852199999  -23.7486610413 4.8735551834099997 -2.65414047241  -23.777055740400002 4.8344292640699997 -2.6406848430599998  -22.84743976595 5.8455173969300001 -3.0225541591649998  -22.657450675974999 5.7470165491124998 -2.9490107297900003  -23.076640129099999 5.668011188505 -2.9682259559649999  -23.0234241486 6.1104707717900002 -3.2364070415500001  -22.840084075899998 6.0817604064899999 -3.1795167922999998  -22.2828083038 6.0138487815900001 -3.1157298088099998  -24.180938720699999 4.7628498077400003 -2.71398162842  -22.51440238955 5.9742193222050002 -3.0771901607499998  -21.817399024949999 5.3144500255599993 -2.7258523702600002  -23.959592819200001 4.7923955917400001 -2.6505868434900002  -24.617309570300002 4.4887056350699996 -2.77319049835  -23.826836903900002 5.0804672241199995 -2.7791992028533339  -23.553596496600001 5.0160939693450004 -2.7105678319899997  -24.074235916100001 4.9614095687899997 -2.7780725955999999  -20.205367088300001 4.6612672805750002 -2.3122249841700002  -19.848098754900001 4.5244688987700004 -2.2314739227299998  -20.121386528000002 4.7838282585149994 -2.4200975894900001  -20.00324630735 4.5568122863799996 -2.246998906135  -18.872525215149999 4.4562094211599996 -2.3274403810499997  -19.08942604065 4.8181173801449999 -2.67159628868  -19.66997241975 4.440701007845 -2.1817134618749998  -20.182226181000001 4.4643069903066666 -2.1800610224400003  -20.527139663700002 4.7297458648699999 -2.3685038089799999  -20.508430480966666 4.542581240333333 -2.24667874972  -20.502140045200001 5.6476783752399999 -3.13457417488  -20.748649597149999 5.6138670444500001 -3.0180846452700001  -20.5616779327 5.5365381240799998 -2.99774098396  -21.239327430724998 5.9366606473925003 -3.2583581805224999  -22.296146392800001 6.1160902976999996 -3.2161099910700002  -23.1821613312 5.7491936683700002 -3.0188879966700002  -23.233150482199999 5.5436568260200003 -2.9279327392600001  -22.329750060999999 6.2889242172199999 -3.4136667251600001  -22.440150260900001 6.3534846305850001 -3.4905003309250002  -23.109142303500001 6.1898751258900004 -3.3386623859400002  -23.050357818599998 6.30274009705 -3.4707369804399999  -22.678880691500002 5.9961962699900004 -3.0952591896100001  -22.383603096049999 5.7000904083249999 -2.90691614151  -21.503562927200001 6.0176005363499998 -3.2720127105699999  -22.672998428300001 5.9699215889000001 -3.0739278793299998  -22.821919441200002 5.6309428214999997 -2.9215406179450003  -23.065912246700002 5.8787055015599998 -3.07256579399  -22.838281631499999 6.00452709198 -3.11917972565  -8.3270244598400005 0.353025108576 -0.070679202675799996  -22.177064895600001 0.087832599878299999 -0.054112799465700002  -4.18914270401 2.9151492118800002 -2.9200687408450001  -9.6997365951500001 1.4328855276100001 -1.0157706737500001  -0.86620950698900001 0.90666288137399997 -1.68341195583  -0.849565386772 1.16415846348 -1.6729644536999999  -0.70841592550300003 1.12376773357 -1.71945774555  -2.9380427598950001 0.69276359677299992 -1.019891798495  -3.0271179676100002 0.87955981493000002 -1.02348089218  -2.9626727104150001 0.9224483966825 -1.0438055992149999  -6.4521448612199999 2.5664421319950002 -2.451990365985  -6.3686170577999999 2.4304294586199999 -2.2970690727199998  -6.1240215301499994 2.557330608365 -2.45197057724  -6.0652117729199997 0.21523509919600001 -0.117415003479  -6.0093092918400002 0.0683253034949 -0.090792998671499994  -5.8834509849499996 0.17868049442799999 -0.15399329364299999  -6.5623102188100004 2.4746675491299999 -2.3442862033799998  -10.084200859100001 1.0768252015099999 -0.68695878982550007  -4.6482882499650007 0.13932679593550001 -0.59453713893899995  -4.48680400848 0.10002440214199999 -0.67301428318000001  -4.6199207305899996 0.0844094976783 -0.62920778989799997  -4.4304432868949997 0.29171974957000002 -0.63721823692299995  -4.570999622345 0.35888744890699997 -0.574144601822  -8.0312900543199994 0.38422268629099998 -0.031186699867200001  -7.9460709094999995 0.3514762073755 0.067518401891000002  -8.1646375656100005 0.39551730453950001 -0.11198920011499999  -7.9586834907500004 0.46477839350700001 -0.20751580595999999  -8.1094317436200001 0.46520864963499997 -0.24329550564300001  -9.6245212554950008 0.90477132797199999 -0.61182010173800006  -9.3728895187350005 1.0441718250512499 -0.75810119509700002  -9.517946879070001 0.76351269086200002 -0.51830138762800004  -9.8488464355449992 0.48400358855750003 -0.20174439996499999  -9.8525452613799995 0.59052374958999998 -0.30229754745949999  -9.5984869003300002 0.45170769095399999 -0.21290279924899999  -9.6241993904100003 0.60536229610449999 -0.3560110479595  -9.4110711415600008 0.48108426729833331 -0.27794757485366667  -9.7747542063366666 0.77522033452966665 -0.48342061042766665  -9.6622908910133329 1.0552010933566667 -0.71296383937200003  -10.505635261550001 0.72672554850549997 -0.29285424947700001  -10.302539348583332 0.79664619763683342 -0.40734766920400006  -9.4464988708500002 1.5119588375099999 -1.11104750633  -6.2267847061200001 0.080190099775799994 -0.0577257983387  -6.1460223197900001 0.20342360436900001 -0.092506803572199994  -2.7895941734299998 1.17973959446 -1.18840456009  -2.7198824882500001 1.1751724481600001 -1.20331215858  -2.7991976738000002 1.20950698853 -1.2003631591799999  -2.9962666034699996 1.1454113125800001 -1.128402113915  -2.9324617385899998 1.2669746875800001 -1.2178353071200001  -9.2996802330049988 1.4307339191449999 -1.052701175215  -0.94392585754399994 0.88201946020100008 -1.6626285910599998  -0.96523004770300003 1.0946629047399998 -1.641672372815  -10.852348963433334 0.45600343743966665 0.098932464917633342  -10.642209053049999 0.31258730590350003 0.15738524496549999  -10.579167366 0.47589239478099998 -0.0115055004135  -10.5841178894 0.51546537876099996 -0.043377101421399999  -22.241323471099999 -0.076904103159899997 0.051182001829100002  -9.9187472661333338 0.15808967004236665 0.16370687137033335  -8.6319977442433338 0.20816416541733332 0.081913332144366677  -10.395324707 0.36824521422399997 0.039919000119  -6.9580421447800003 0.064884297549700001 -0.084119200706500002  -6.6903049945850004 0.1549591049555 -0.080527547746899991  -7.1109127998400004 -0.082742303609800005 0.034895900636899999  -19.103597641 4.42711925507 -2.2341694831800001  -7.2415285110500003 0.00059730000793899998 0.079265199601700004  -22.705434799199999 -0.57333040237400001 3.0177818536749998  -22.624113082899999 -0.54687762260399997 2.7165009975399999  -22.989642143274999 -0.73259496688850001 3.142186164855  -11.3693761826 0.0228519998491 0.64455407857900004  -11.536104202300001 -0.040240399539500003 0.76043802499799995  -11.503605365799999 0.14006525278074999 0.5985112190245  -23.409083366400001 -1.41768270731 0.31996296346200004  -23.488349914600001 -1.3925318717999999 0.15849269926500001  -23.314241409299999 -1.2172435124733334 0.1510113651551  -22.93118190765 -0.99480661750050003 0.39735549688299998  -22.921757698050001 -1.0623503327349999 0.53845134377500004  -22.697959899899999 -0.85565772652649996 0.52671840786900004  -22.548927307100001 -0.99401652812999997 5.03596735001  -22.417533874499998 -1.0026733477900001 5.1155419349700004  -22.380593299850002 -0.93198826909049992 4.8039170503599999  -21.403626441949999 -1.064553081985 5.4828021526299997  -21.529859542800001 -1.0516798496199999 5.4558887481699996  -21.417470932000001 -1.1249426603299999 5.69137334824  -7.6724555492400004 -0.65534523129450006 0.74221587181099991  -7.4844504992133336 -0.37518026431400003 0.59590433041266666  -7.716747760773333 -0.4491516053673334 0.73386973142633327  -7.5159149169899999 -0.65690881013900004 0.65050059556999995  -22.567852973900003 -0.81312894821150006 0.67559313774100005  -22.458950042733335 -0.60563343763366662 0.47702959179866666  -22.434597015400001 -1.0445504188500001 5.2854633331300001  -22.604713439899999 -1.04500293732 5.2094016075100003  -23.4846992493 -0.97494649887100004 3.476146698  -23.173445701600002 -0.84396108984950002 3.1105574369400002  -23.294172922766666 -0.88694014151900002 3.5628250439966664  -21.4908485413 -1.78138685226 12.846698761000001  -21.464263916 -1.7981032133099999 12.934135437  -21.543539047199999 -1.8003021478700001 13.017035484299999  -22.9785633087 -0.78814560174949999 2.761219739915  -23.3906841278 -1.19482588768 0.0083360001444800005  -23.3352327347 -0.93813052773500005 3.8380722999600003  -23.2423171997 -0.95058590173699997 4.0535769462599998  -23.187387466400001 -0.89758467674300002 3.8881902694699999  -22.363501548750001 -0.421851247549 2.5562727451349998  -22.473396778125 -0.46597074717299997 2.9252035021775002  -22.042409896833334 -0.27542270720033329 2.559305032093333  -22.677593231199996 -0.67395067214933346 3.5992945035299999  -22.599452018725 -0.582622423768 3.3269019722925002  -22.327375411999999 -0.45568808913199998 3.1425879001600001  -22.262345631933332 -0.48315897583933332 3.2828024228399997  -21.7513713837 -0.18754689395400001 2.6229393482200001  -21.809335708599999 -0.25140249729199998 2.7938160896299999  -21.433224678000002 -0.10143280029314999 2.5820434093450002  -21.646702448533333 -0.11789663136 2.4215377966566667  -7.8694806098900001 -1.85347032547 0.30081188678699999  -7.6805913448350003 -1.600943386555 0.23789824545350002  -7.8849736849466661 -1.6482015053466668 0.40586413939799998  -21.61987781525 -1.10188740492 5.6394293308250001  -22.0968990326 -0.37508139014199998 3.0604014396700001  -7.3080389499649998 -0.46432399749749997 0.45407940447349998  -7.3052234649700001 -0.29312509298299999 0.38247150182700002  -9.6076259613000001 -0.243953794241 1.20037913322  -9.6881847381600004 -0.17837630212299999 0.90880426764450006  -9.7884321212799996 -0.25447210669499998 1.11181926727  -9.5062189102199994 -0.178750798106 1.012140154835  -21.334414482100001 -2.1957668066 14.76227712635  -21.412525176999999 -2.1920499801649997 14.871729373899999  -21.330532074000001 -2.1533069610600002 14.5536699295  -9.4569778442400008 -0.14073009788999999 0.81315821409199995  -9.352472305300001 -0.19380344450499998 1.0299735367284999  -22.706833839399998 -0.78796038031549998 0.38443495333200001  -22.846450805675001 -0.78926698863500011 0.17768552340575  -7.4018802642799999 -0.162113502622 0.42114588618299997  -21.968432426450001 -0.34341169893700002 1.8253571391149999  -22.259490013099999 -0.49207441508799998 2.0796831250199999  -22.075821876500001 -0.3064691573385 2.2819244861600003  -22.816810607899999 -0.66195464134199999 3.3824824094800001  -23.619526863099999 -1.0629135966300001 3.9429603815099998  -23.847304344199998 -1.17127853632 4.0855629444100003  -23.701435089099999 -1.13311612606 4.2104725837699997  -23.063251495350002 -1.0316874384850001 0.25534104555850001  -22.162115097000001 -0.0147085003555 0.0847612991929  -22.061204910299999 -0.0155261000618 0.21163240075100001  -22.061157226599999 0.0053546000272000002 0.187992498279  -21.661952972400002 -1.7843917012249999 12.781148910500001  -23.153162002549998 -1.0012845993020001 4.418300151825  -23.038809458433334 -1.0728013118099999 4.9797746340400009  -22.913528442366669 -0.95335765679666673 4.5154015223200004  -23.074591636649998 -0.96157878637099992 0.119203299284  -9.5160331726099994 -0.220583096147 1.16139221191  -20.907418250999999 -1.0750963687900001 5.4209022521999994  -21.193644205733335 -1.0776331822066667 5.4872654279066664  -21.488164901699999 -2.2279386520400002 15.041787147499999  -21.541429519699999 -2.27565121651 15.1934890747  -21.331466674800001 -2.28989577293 15.0852832794  -7.5676012039199998 -0.18688930571099999 0.56765061616900003  -21.425434112550001 -1.8363921642300001 13.0756778717  -7.5471386909499998 -0.12916369736200001 0.517537176609  -21.462087631199999 -0.0562439002097 2.3595085143999999  -7.2840819358799997 -0.20838290453 0.31683379411700002  -23.354125976599999 -1.0616172552100001 4.4078025817900004  -23.48058573403333 -1.1840247313166667 4.8123151461300004  -24.084042549149999 -1.2703838944450001 4.1657671928450002  -23.9821252823 -1.25830101967 4.3203086853000006  -24.161022186299999 -1.3362903595 4.3447031974800003  -23.823225021399999 -1.1492388248400001 3.9159932136500002  -21.814361572266666 -0.18791070083800002 2.1161048412333332  -22.830921173099998 -1.10541605949 5.3009152412400002  -22.774976730300001 -1.0476497411700001 5.1319847106900003  -23.001726150500001 -1.1180566549299999 5.2174277305599999  -22.270570755000001 -0.40201580524399999 2.9659326076500001  -21.491686821000002 -0.16979870200149999 2.7501149177549999  -21.590166091899999 -0.28382304012780002 2.9894963741299998  -21.275446891750001 -0.17998670041549999 2.8323699235899999  -22.873797098800001 -0.99755968650266658 4.8086056709333329  -7.3961710929900004 -0.093984298408000003 0.33857929706599998  -7.6500778198199999 -0.11029150337 0.56308680772800002  -22.127096652975002 -1.0854203999050001 5.4826849699025004  -22.405972480800003 -1.1037487983699998 5.4912252426150001  -22.253892262799997 -1.02808423837 5.2614180247000002  -22.664930343599998 -0.98692691326100002 4.9609355926500003  -22.654745101949999 -1.0862689614300001 5.3561837673149997  -21.6993618011 -1.0319210290900001 5.3920602798499999  -21.84092521665 -1.0778158903100001 5.5304143428800003  -22.0392684937 -1.0158519744900001 5.2501239776600004  -12.048840522800001 -0.088184997439400004 1.0215624570799999  -12.0002670288 0.023219799622900002 0.87830564379700005  -12.2410526276 0.01385319978 1.01218211651  -7.2588617801700002 -0.0921497493981 0.18630974739799999  -11.7531018257 0.078192500397299997 0.73592415451999993  -11.7917718887 -0.073697298765199995 0.884617209435  -7.8041100502000003 -1.457394361495 0.42599768936649995  -7.2082924842800002 -0.37467971444100001 0.32081449031800002  -20.892763137799999 -2.8016884326899998 15.2821407318  -20.812446594249998 -2.7245676517449997 15.08790779115  -20.938072204600001 -2.61582636833 15.157986640900001  -20.947562535566664 -2.4972999890666667 14.994336128233334  -20.762912750200002 -2.5311579704299998 14.7014036179  -20.720790863049999 -2.6780169010149999 14.847391605350001  -21.2031002045 -2.3715131282800002 15.1127300262  -21.278339385999999 -2.25345540047 14.9281177521  -11.872698783900001 -0.10270229727000001 0.947765409946  -20.735597610500001 -2.7179210185999998 14.929457664499999  -21.012009620649998 -2.54003286362 15.155340194699999  -21.087940216100002 -2.5079646110499998 15.2122831345  -21.229732513399998 -2.4414253234899999 15.262467384300001  -21.16706085205 -2.3934403657900001 15.1047530174  -20.689321517900002 -2.81209278107 14.9396886826  -20.735001881900001 -2.9783375263233332 15.165879249566666  -13.13783979415 -3.9981998205149996 5.6341710090649997  -12.963667551666667 -3.9979190031666665 5.4490671157833335  -13.093591690049999 -3.7844996452349999 5.5048615932449998  -13.962697029099999 -4.8261141777000001 6.7908339500399997  -13.790353139266665 -4.7390265464799999 6.5755262374866668  -13.96267223355 -4.6500623226200002 6.7139477729800001  -13.836906909949999 -4.9783923625950006 6.6927814483599999  -23.295452117899998 -1.0146557092649999 4.2828433513649999  -23.188408851599998 -1.080913096665 4.7768353223775  -7.1109127998400004 -0.082742303609800005 0.034895900636899999  -7.2415285110500003 0.00059730000793899998 0.079265199601700004  -11.6758260727 -0.098512202501299995 0.86436170339600005  -23.496058146133333 -1.05929505825 4.1719082196566672  -23.739422988899999 -1.3414990425120001 5.1148633003219999  -23.752992630025002 -1.2735385894775 4.7460961341874999  -7.6370555162450007 -1.3173173069949999 0.35580380260950001  -21.133347511300002 -2.3402627706549999 14.9439821243  -20.974639892600003 -2.3589951992025 14.730188608175  -20.875335693350003 -2.460047602655 14.799255371099999  -7.5855193138099999 0.0146166998893 0.41836050152799997  -12.059847831700001 -0.112801499665 1.0492746829999999  -7.6975464820899999 -1.8350629806500001 0.16922380030199999  -8.0364322662333336 -1.9045128424966666 0.42117122809100005  -8.1934213638299997 -1.7937088410066666 0.61785763502100011  -8.2304646968850008 -2.0701784491524999 0.47720042616124997  -8.0506772995000002 -1.6949740052200002 0.54512259364150006  -7.6506948471099996 -1.7669608592999999 0.15998929739000001  -21.982940673800002 -0.96740001440000001 5.0748538970899997  -22.039907455400002 -0.32295438647300001 2.8824541568800002  -23.009941101066669 -0.77694374322866666 3.5907910664866667  -23.1317653656 -0.84527057409299999 3.7126250267000001  -20.746730804399999 -2.4516203403499999 14.4698352814  -20.806427002 -2.4090580940200002 14.4771814346  -24.622605005899999 -1.5910971164700001 4.5579826037100002  -24.391244888300001 -1.44420993328 4.4077725410499999  -24.56616687775 -1.52759981155 4.3140261173249996  -21.703166961699999 -0.17059099674200001 1.6953630447400001  -21.959350585900001 -0.015983000397699999 0.337200909853  -24.758730888399999 -1.710288643835 4.8870668411249998  -24.527407328266662 -1.5867101351433333 4.8145335515333336  -24.446199417100001 -1.50493943691 4.5762691497799999  -22.670134226466669 -0.94127804040933327 4.7152287165299995  -22.4421882629 -0.58874058723400002 3.4778816699999999  -21.0489463806 -2.25126314163 14.4735040665  -21.145154953000002 -2.19927704334 14.42355918885  -21.224956512433334 -2.2136178016666666 14.666614850366665  -22.810117721600001 -0.74997788667700005 2.50476503372  -22.5712757111 -0.55517369508699999 2.4974448680900001  -22.522573471099999 -0.63469028472900002 2.2297987937900001  -22.718709945699999 -0.986979007721 1.9160913229000001  -22.766050338700001 -0.89045691490199996 2.1966042518600002  -21.6088132858 -0.088328052312200006 2.1530964374549999  -23.479834874466665 -1.0575115084646667 3.1158748467800002  -23.693535804749999 -1.1184800267249999 3.41196668148  -24.053577423099998 -1.2514375448199999 3.9831020832099999  -24.284774780300001 -1.36419665813 4.0434818267799999  -24.807575225800001 -1.7088055610699999 4.2969174385100004  -24.519399642900002 -1.51394295692 4.0805644989000003  -24.760276794399999 -1.72571003437 4.0788846015900004  -24.473192215000001 -1.54932940006 3.84996962547  -24.7194347382 -1.81207823753 3.8161303997  -21.9827003479 -0.26891711354300002 2.7053213119500001  -23.537906646700002 -0.99942952394499995 3.67018413544  -24.1918258667 -1.44365274906 3.5752820968600001  -24.235918044999998 -1.3756130933799999 3.8278994560199999  -22.379789988200002 -0.4031193653743334 0.27877517044566669  -22.53915596005 -0.44021295011049999 0.1087609007956  -22.486413955700002 -0.32190701365500002 0.021459700539700002  -22.296196619699998 -0.21936663488566666 0.14716613044320001  -22.230158487933334 -0.39172203342100004 0.47786813974400005  -22.534276962300002 -0.61300992965699996 0.36318209767300003  -22.619757652250001 -0.6172685027125 0.23886155337100001  -22.7168083191 -0.60505539178800005 0.087796300649600006  -22.7317466736 -0.55558419227599998 0.00036740000359700002  -22.3532670339 -0.63265132904033339 0.71119874715800002  -23.173194885266668 -1.2050251563399998 0.36422769228633339  -21.731824874899999 -0.38475960493099998 3.2005324363700001  -21.92802143095 -0.37904129922399998 3.1389679908749999  -23.257295608500002 -1.2368636727350002 5.3749556541449994  -23.259896278399999 -1.1618362665199999 5.07682108879  -24.3371276855 -1.39376854897 4.2324409484899999  -24.27628707886667 -1.4386678934066666 4.5834754308100001  -23.492146809900003 -1.2526571750633335 5.12256272634  -23.739295959500001 -1.4405063390699999 5.60813331604  -23.724439620950001 -1.2015252411350001 4.4676283597950004  -23.1318178177 -0.93534144759149995 4.1325690746300001  -22.986063957199999 -0.8405578136445 3.896528601645  -21.270402272533332 -1.0095477501553332 5.2488908767699991  -21.593896865800001 -2.1746287345900002 14.8212614059  -21.5562934875 -2.2295470237699999 15.0663290024  -22.973110198966666 -1.1797683239000001 5.4495526949566662  -22.172012329099999 -0.9572199583055 4.9711537361150002  -21.875619888300001 -0.32224760949599995 2.9977352619150004  -21.072505950900002 -2.1987951993950001 14.2273015976  -21.997049331700001 0.17125439643900001 0.083777800202399999  -20.8401155472 -2.96395778656 15.3265180588  -9.2690448761000006 -0.17221780121300001 0.87265688180900003  -20.969355265299999 -2.3061945438366664 14.528464317299999  -20.966732978850001 -2.7045034170150002 15.287754058800001  -20.679704666100001 -2.66565537453 14.724007606500001  -20.747365951500001 -2.4897541999800001 14.564213752700001  -9.2856903076199995 -0.49884709715800002 1.41630220413  -9.2717456817600006 -0.47182980179799999 1.3884233236300001  -9.2461423873899999 -0.34610995650300003 1.2730445265800001  -7.4954891204800003 0.122459597886 0.231125697494  3 1 0 2  3 2 0 3  3 4 5 6  3 7 8 9  3 11 10 12  3 10 11 13  3 14 15 16  3 18 17 19  3 21 20 22  3 23 24 25  3 26 10 27  3 29 28 30  3 24 31 32  3 32 33 24  3 34 35 36  3 38 37 39  3 37 38 40  3 41 42 40  3 40 38 41  3 43 34 36  3 44 11 45  3 46 48 47  3 49 51 50  3 53 52 54  3 55 57 56  3 59 58 60  3 61 21 62  3 65 63 64  3 67 66 19  3 19 66 18  3 58 61 60  3 68 69 70  3 71 15 14  3 73 72 61  3 75 74 76  3 74 75 77  3 78 80 79  3 6 81 80  3 83 82 84  3 85 86 87  3 85 87 28  3 21 61 72  3 89 90 88  3 91 41 76  3 92 94 93  3 2 3 95  3 96 48 46  3 97 98 9  3 33 99 24  3 101 100 102  3 103 70 75  3 91 104 74  3 75 76 105  3 104 91 76  3 4 80 106  3 6 80 4  3 59 66 107  3 69 77 75  3 108 1 109  3 1 110 0  3 110 111 0  3 113 108 112  3 80 78 41  3 108 110 1  3 114 13 112  3 109 112 108  3 10 13 114  3 85 44 45  3 45 86 85  3 28 87 30  3 30 87 115  3 112 83 114  3 113 112 116  3 112 13 116  3 117 11 44  3 11 116 13  3 116 11 117  3 119 118 120  3 118 119 12  3 86 45 121  3 112 109 83  3 109 82 83  3 2 122 82  3 123 124 125  3 82 109 2  3 2 109 1  3 11 12 119  3 126 86 121  3 127 86 126  3 45 119 121  3 11 119 45  3 119 128 121  3 128 119 120  3 76 74 104  3 129 130 43  3 132 131 133  3 27 114 83  3 135 32 134  3 136 76 79  3 137 26 27  3 138 105 136  3 34 43 122  3 76 78 79  3 69 139 77  3 139 69 68  3 83 140 27  3 27 10 114  3 122 43 84  3 84 43 130  3 135 99 33  3 120 121 128  3 141 121 120  3 121 141 126  3 142 124 123  3 122 2 34  3 12 10 118  3 118 10 26  3 140 83 84  3 118 26 137  3 143 123 43  3 43 123 129  3 84 82 122  3 84 130 140  3 140 137 27  3 125 144 140  3 130 129 123  3 140 130 123  3 123 125 140  3 34 2 95  3 145 146 147  3 148 146 145  3 149 15 96  3 150 15 71  3 147 146 47  3 47 146 151  3 152 145 153  3 153 154 152  3 91 42 41  3 155 156 157  3 39 156 155  3 39 37 156  3 158 38 39  3 25 136 159  3 131 160 133  3 160 161 133  3 162 24 23  3 24 162 163  3 136 81 6  3 99 138 136  3 31 164 32  3 165 164 31  3 5 159 136  3 162 23 25  3 25 24 99  3 162 25 5  3 25 159 5  3 135 166 99  3 76 41 78  3 103 75 167  3 167 132 103  3 136 25 99  3 38 168 106  3 106 80 38  3 105 76 136  3 105 138 169  3 169 167 105  3 6 5 136  3 170 103 132  3 81 136 79  3 132 167 169  3 79 80 81  3 160 131 171  3 138 99 169  3 99 166 169  3 169 166 135  3 135 172 169  3 89 88 173  3 92 174 94  3 59 107 58  3 53 175 52  3 63 67 19  3 9 8 176  3 178 177 179  3 180 182 181  3 65 107 67  3 185 183 184  3 186 187 188  3 183 189 184  3 97 190 98  3 191 193 192  3 195 191 194  3 88 197 196  3 58 73 61  3 198 199 200  3 202 201 203  3 204 18 60  3 66 59 18  3 59 60 18  3 205 204 62  3 207 206 208  3 205 207 209  3 7 210 202  3 211 19 212  3 202 210 201  3 8 213 176  3 17 205 209  3 187 215 214  3 215 187 186  3 216 182 217  3 218 219 216  3 220 219 218  3 219 182 216  3 20 21 72  3 221 213 8  3 107 66 67  3 216 217 218  3 177 223 222  3 224 225 226  3 224 226 227  3 5 4 162  3 94 174 228  3 65 67 63  3 198 88 196  3 58 229 73  3 89 230 90  3 173 88 198  3 229 58 107  3 65 226 231  3 231 226 225  3 158 168 38  3 232 234 233  3 46 235 96  3 80 41 38  3 169 131 132  3 167 75 105  3 135 33 32  3 35 34 95  3 69 75 70  3 232 236 234  3 239 237 238  3 242 241 240  3 244 243 245  3 248 246 247  3 249 250 251  3 252 253 254  3 255 256 257  3 258 256 255  3 248 259 260  3 261 249 262  3 249 261 250  3 264 263 239  3 239 263 265  3 266 268 267  3 238 264 239  3 264 238 269  3 270 244 245  3 273 271 272  3 276 274 275  3 278 277 279  3 279 277 280  3 281 282 283  3 284 281 283  3 286 287 285  3 237 275 238  3 288 254 253  3 279 280 289  3 256 290 291  3 292 293 294  3 295 293 292  3 296 298 297  3 299 295 300  3 246 301 302  3 256 291 303  3 304 305 306  3 307 278 275  3 308 309 310  3 246 302 311  3 313 314 312  3 268 266 315  3 316 317 318  3 311 302 319  3 292 320 295  3 321 322 254  3 325 323 324  3 303 326 256  3 268 327 267  3 326 303 328  3 329 284 283  3 330 303 291  3 332 331 310  3 333 335 334  3 336 333 309  3 275 237 307  3 337 304 306  3 338 339 340  3 275 278 279  3 279 341 275  3 344 342 343  3 318 317 345  3 346 303 330  3 347 326 328  3 349 348 261  3 348 350 261  3 352 351 339  3 353 350 354  3 350 353 355  3 350 348 354  3 356 357 358  3 359 346 330  3 361 360 357  3 362 287 286  3 291 290 363  3 364 365 366  3 367 369 368  3 370 371 325  3 372 361 357  3 373 369 365  3 375 374 367  3 370 376 375  3 375 377 370  3 369 367 366  3 366 365 369  3 374 375 366  3 379 378 365  3 382 380 381  3 385 383 384  3 383 386 384  3 288 353 354  3 316 387 388  3 359 389 390  3 353 288 253  3 252 254 322  3 320 300 295  3 333 334 310  3 361 391 360  3 387 331 388  3 392 387 272  3 393 332 394  3 362 286 395  3 310 309 333  3 371 396 397  3 241 242 360  3 397 396 398  3 398 396 367  3 399 328 303  3 356 358 400  3 296 297 371  3 286 285 401  3 373 378 369  3 402 285 287  3 403 404 402  3 402 405 403  3 405 402 287  3 406 286 401  3 375 367 377  3 353 407 355  3 341 289 408  3 409 410 273  3 377 367 396  3 397 411 412  3 413 414 415  3 304 337 416  3 314 313 417  3 418 419 420  3 317 339 345  3 345 351 421  3 422 280 277  3 423 424 425  3 426 427 428  3 429 430 428  3 276 431 337  3 276 337 306  3 276 306 274  3 238 274 427  3 432 433 263  3 333 434 435  3 436 437 438  3 437 439 438  3 439 440 438  3 284 431 276  3 276 275 441  3 341 441 275  3 275 274 238  3 307 239 265  3 237 239 307  3 442 265 263  3 336 434 333  3 264 432 263  3 269 432 264  3 443 439 444  3 447 446 445  3 448 447 445  3 449 445 260  3 260 445 450  3 446 452 451  3 452 446 453  3 451 301 450  3 449 260 454  3 246 248 301  3 311 245 455  3 396 371 370  3 456 343 457  3 425 296 371  3 425 298 296  3 350 250 261  3 458 340 459  3 392 272 271  3 415 414 460  3 333 435 460  3 461 335 414  3 414 420 461  3 419 461 420  3 332 388 331  3 332 459 388  3 459 332 462  3 459 462 463  3 459 463 458  3 462 332 393  3 317 388 459  3 316 388 317  3 317 459 340  3 464 394 332  3 410 271 273  3 308 271 442  3 271 265 442  3 409 307 265  3 464 332 310  3 336 309 308  3 334 464 310  3 392 310 387  3 387 310 331  3 465 272 387  3 465 273 272  3 466 273 465  3 466 409 273  3 307 409 466  3 466 277 307  3 318 465 316  3 465 387 316  3 341 408 441  3 281 441 408  3 252 467 253  3 339 317 340  3 345 339 351  3 468 469 297  3 277 278 307  3 289 341 279  3 261 352 349  3 340 470 338  3 350 355 407  3 471 250 407  3 424 298 425  3 297 469 323  3 262 351 352  3 351 262 249  3 289 457 472  3 424 423 473  3 407 250 350  3 251 250 471  3 251 351 249  3 352 261 262  3 352 339 338  3 364 379 365  3 474 312 314  3 325 297 323  3 371 423 425  3 396 370 377  3 475 379 364  3 299 300 476  3 397 477 371  3 477 423 371  3 371 297 325  3 366 478 364  3 398 367 368  3 368 369 479  3 480 398 368  3 398 480 411  3 397 398 411  3 481 482 483  3 359 390 484  3 366 367 374  3 365 378 373  
