ply
format ascii 1.0
comment bbox 19.133597  21.908741 -28.410074  -25.017958 -24.002862  -21.052045 
element vertex 72
property double x
property double y
property double z
element face 48
property list uchar int vertex_index
end_header
20.903263092 -27.0371341705 -21.522760391199999  20.8938922882 -27.035367965700001 -21.414360046399999  20.9589595795 -26.931165695200001 -21.529121398899999  20.834518432599999 -27.1412506104 -21.408645629900001  20.125827789300001 -27.381093025200002 -21.068964958199999  20.384410858199999 -27.232803344699999 -21.070596694900001  20.0256919861 -27.692071914700001 -21.088682174700001  21.4801445007 -25.869457244900001 -21.4893760681  21.318191528300002 -26.1868133545 -21.469383239700001  21.429367065400001 -25.976321220399999 -21.537055015550003  20.754190444900001 -27.244955062900001 -21.296426773099999  20.7683887482 -27.135219574000001 -21.199985504200001  20.819118499799998 -27.1392173767 -21.301174163799999  19.253446578949998 -27.283486843125001 -21.074622631049998  19.300540924099998 -27.425398826600002 -21.075918197649997  19.13359737395 -27.481049537650001 -21.078956603999998  20.818114280700001 -26.465157508849998 -21.062938690149998  20.855618476899998 -26.186732292150001 -21.05204486845  20.9096059799 -26.382824897749998 -21.064640998849999  20.335373685513293 -27.486160604087541 -24.002862224803202  20.838537216199999 -27.1426486969 -21.518102645900001  20.773431777999999 -27.248233795200001 -21.513504028300002  21.797742843599998 -25.233200073199999 -21.4205856323  21.834726333599999 -25.1238574982 -21.320552825899998  21.723653793299999 -25.334808349599999 -21.307775497400002  21.2192955017 -26.2862033844 -21.250740051299999  21.2168331146 -26.1741752625 -21.157472610500001  21.2733078003 -26.068157196000001 -21.1638069153  21.274518966700001 -26.180225372300001 -21.257259368900002  21.900049209599999 -25.021636962900001 -21.4349555969  21.885402679399999 -25.017957687399999 -21.327854156499999  21.745946884199999 -25.340982437099999 -21.5233669281  21.908740997300001 -25.0268707275 -21.652702331499999  21.732366561900001 -25.222637176500001 -21.212841033899998  21.665699005099999 -25.440132141100001 -21.3018302917  20.058446884199999 -28.197727203399999 -21.384445190400001  20.215406417800001 -27.984523773199999 -21.2781658173  20.124713897700001 -28.0902767181 -21.277963638300001  21.485717773400001 -25.871690750100001 -21.598178863499999  21.3107013702 -26.184619903600002 -21.3607234955  21.158254623400001 -26.280092239399998 -21.151514053300001  21.161300659199998 -26.392030715899999 -21.244724273700001  20.774394989000001 -27.247158050500001 -21.403059005700001  21.096479415899999 -26.38974666595 -21.145430564849999  21.0053920746 -26.2671451569 -21.068500518800001  20.146368026699999 -28.0917739868 -21.3850669861  20.57800388335 -27.231813430800003 -21.1126241684  20.648597717299999 -27.127378463700001 -21.110910415599999  20.614166259800001 -27.021451950100001 -21.0784873962  20.204105377200001 -27.225286483749997 -21.060246467599999  20.7209835052 -27.021671295200001 -21.1144638062  19.6701278687 -28.1793632507 -21.1319179535  19.673694610599998 -28.078575134299999 -21.1141986847  19.823970794699999 -28.078298568699999 -21.108768463099999  20.042728424100002 -28.086675643900001 -21.181489944500001  20.027992248499999 -27.866323471099999 -21.105773925800001  20.138435363799999 -27.980873107899999 -21.1809310913  19.9667987823 -28.303760528600002 -21.384475708  20.06300354 -28.198570251500001 -21.494644165  19.970577240000001 -28.3045215607 -21.494935989399998  19.8849487305 -28.074150085399999 -21.1223239899  19.924835205099999 -28.191984176599998 -21.185989379900001  19.907619476299999 -28.301321029699999 -21.283933639499999  20.021514892599999 -28.195829391499998 -21.280000686600001  20.304004669200001 -27.107023239099998 -21.061180114700001  20.702152252200001 -27.352519989000001 -21.399723052999999  20.703094482400001 -27.3536453247 -21.509880065899999  19.856317520099999 -28.410074234 -21.4992427826  19.835193633999999 -28.408884048499999 -21.391790390000001  21.637628555300001 -25.211254119900001 -21.1200237274  21.631969451900002 -25.131259918200001 -21.099802017199998  21.569795608500002 -25.316019058199998 -21.1157779694  3 1 0 2  3 0 1 3  3 4 6 5  3 7 8 9  3 10 12 11  3 13 15 14  3 16 18 17  3 21 19 20  3 23 24 22  3 26 25 27  3 27 25 28  3 29 30 23  3 22 31 32  3 29 23 22  3 24 33 34  3 35 36 37  3 38 7 9  3 39 28 25  3 40 41 25  3 26 40 25  3 42 12 10  3 40 44 43  3 17 18 44  3 35 45 36  3 48 46 47  3 12 42 3  3 5 49 4  3 47 50 48  3 52 51 53  3 54 56 55  3 58 57 59  3 57 58 35  3 60 61 54  3 57 63 62  3 21 20 42  3 45 35 58  3 49 5 64  3 65 42 10  3 0 20 19  3 65 66 42  3 66 21 42  3 59 57 67  3 67 57 68  3 7 39 8  3 62 68 57  3 44 40 26  3 69 70 71  3 66 19 21  
