ply
format ascii 1.0
comment bbox -17.866083  -5.289863 24.801363  25.267330 -25.250195  -24.380648 
element vertex 25
property double x
property double y
property double z
element face 17
property list uchar int vertex_index
end_header
-17.8386135101 24.922008514400002 -25.121154785200002  -17.756437301599998 24.986785888699998 -25.082942962600001  -17.728338241599999 25.002990722700002 -25.1762371063  -17.6667118073 25.0624275208 -24.723070144699999  -17.723262786900001 25.029989242599999 -24.534675598100002  -5.4603729247999997 24.9144821167 -25.052865982099998  -5.2898626327500002 24.8013629913 -25.2501945496  -5.6558017730700003 25.0510482788 -24.6625289917  -5.6030049324000002 25.009117126500001 -25.0486736298  -17.810075759899998 24.938001632700001 -25.214263916  -17.866083145099999 24.905294418299999 -25.027688980099999  -17.752552032499999 25.014316558800001 -24.440448760999999  -17.671581268299999 25.050111770600001 -25.044193267800001  -17.6667118073 25.0624275208 -24.723070144699999  -17.723262786900001 25.029989242599999 -24.534675598100002  -17.5976037979 25.119302749599999 -24.637107849099998  -17.483343760166665 25.209817886366665 -24.601196924833332  -17.418893814099999 25.267330169674999 -24.445332527174997  -17.549407323166665 25.172321955366666 -24.380648295066667  -5.8504710197399996 25.145990371700002 -24.933382034299999  -5.6030049324000002 25.009117126500001 -25.0486736298  -5.7632722854600003 25.089960098300001 -25.033241272000001  -17.671581268299999 25.050111770600001 -25.044193267800001  -5.9762983322150003 25.17084789275 -25.04975986485  -5.8294591903699997 25.108175277699999 -25.0886249542  3 0 1 2  3 4 3 1  3 5 7 6  3 7 5 8  3 8 5 6  3 2 9 0  3 1 0 10  3 1 10 11  3 12 1 3  3 1 11 4  3 13 14 15  3 15 14 16  3 17 16 18  3 19 20 21  3 13 15 22  3 22 15 16  3 19 24 23  
