ply
format ascii 1.0
comment bbox -17.728338  -5.603005 25.002991  28.855310 -25.986120  -22.660851 
element vertex 201
property double x
property double y
property double z
element face 210
property list uchar int vertex_index
end_header
-10.330968475340001 25.818310546879996 -22.679632186900001  -10.771367073033332 25.92986742656667 -22.686255137100002  -10.492477417 26.182579994199997 -22.689733505249997  -17.5976037979 25.119302749599999 -24.637107849099998  -17.6667118073 25.0624275208 -24.723070144699999  -17.671581268299999 25.050111770600001 -25.044193267800001  -16.646095275899999 25.8340778351 -24.9963378906  -16.703868866000001 25.784648895299998 -25.129104614300001  -16.768890380850003 25.733563423149999 -25.053652763350001  -16.48543167115 25.97562503815 -24.5478334427  -16.087150573700001 26.263692855799999 -24.952983856199999  -16.145744323700001 26.213161468500001 -25.0862407684  -15.540579795799999 26.690484046949997 -24.862390518200002  -15.1164922714 27.045227050800001 -24.717573165899999  -15.8676519394 26.429933548000001 -25.065132141100001  -16.1088833809 26.256484031675001 -24.696002960200001  -15.977379798899999 26.3467979431 -25.009052276599999  -15.4437828064 26.766448974599999 -24.871246337900001  -10.740385055533332 25.605210622133331 -22.673247019433333  -15.265511035899999 26.912271499600003 -24.8417901993  -15.3334999084 26.849916458100001 -24.927555084200002  -15.2257900238 26.934730529799999 -24.984319686900001  -15.170377095533334 26.98943773906667 -24.850945154800002  -17.483343760166665 25.209817886366665 -24.601196924833332  -17.26753425595 25.357186317450001 -24.964283943200002  -17.116897583 25.472421646099999 -25.0007343292  -15.120682716399999 27.020875930799999 -25.041528701800001  -15.118250846900001 27.021696090700001 -25.460800170900001  -14.323086500175 27.723898887650002 -24.397889137300002  -14.3946108818 27.64607810975 -24.6481590271  -5.8504710197399996 25.145990371700002 -24.933382034299999  -5.8340389728549997 25.155572891249999 -24.774600028950001  -5.6030049324000002 25.009117126500001 -25.0486736298  -5.8020577430699998 25.143842697099998 -24.656486511200001  -5.8138365745499998 25.155317306499999 -24.556428909299999  -10.535678863499999 26.8934841156 -22.754625320399999  -10.915142059300001 27.359899520900001 -22.9160499573  -10.096152305615 26.862962722749998 -22.842727661150001  -10.511096954325 25.518540382400001 -22.67223882675  -11.69000673295 26.619541168200001 -22.69738864895  -11.586812973000001 26.246706008899999 -22.694849014300001  -11.8391780853 26.485431035366663 -22.7016029358  -10.210887591066667 25.509675979600001 -22.666727701833334  -9.9112858772300001 25.59544086455 -22.660851478550001  -9.9168650309233328 25.804009755466666 -22.67343330386667  -14.071577072149999 27.903223037749999 -24.820070266750001  -14.032046318100001 27.9241199493 -24.963258743299999  -14.110813140899999 27.851346969600002 -25.000946044900001  -10.191994667099999 26.008863449100001 -22.6867542267  -10.2006511688 26.263399124100001 -22.695220947300001  -9.898379325865001 26.107554435699999 -22.686081886250001  -6.1877536773699999 25.30397319795 -24.16265678405  -6.2355070114150006 25.313826560999999 -23.886338233949999  -12.636178016700001 28.844007492100001 -25.856172561600001  -11.079189777349999 25.966969490049998 -22.686024665849999  -10.792484283449999 26.284211158749997 -22.695147514350001  -10.4830331802 26.414924621600001 -22.704513549800001  -10.798817634599999 26.575946807850002 -22.703434944150001  -10.503621578200001 26.609126091 -22.716241836550001  -10.549350738499999 25.085372924800001 -22.6624469757  -10.595255851699999 25.279582977299999 -22.668663024899999  -10.464119911199999 25.184864997849999 -22.663029670699999  -15.029901504525 27.126424312600001 -24.515614032724997  -15.1532292366 27.021291732800002 -24.573722839349998  -6.0898523330699996 25.2565689087 -24.024780273400001  -6.1409330367999999 25.260793685900001 -23.811376571699999  -6.0325760841399996 25.218572616599999 -23.927137374899999  -5.6558017730700003 25.0510482788 -24.6625289917  -5.99606084824 25.242544174199999 -24.4426364899  -6.0118808746350005 25.232391357400001 -24.18739032745  -6.0712513923599998 25.266202926599998 -24.526990890499999  -5.9677128791799996 25.221672058100001 -24.637945175199999  -6.0467171668999997 25.242231368999999 -24.719356536900001  -5.9866936206850001 25.2051963806 -24.867815971399999  -15.89649009705 26.423906326249998 -24.598058700549998  -15.770299434675001 26.525666713725002 -24.539404869075  -15.3072042465 26.8650398254 -25.022457122799999  -13.2463970184 28.613628387449999 -24.860494613649998  -13.908890247350001 28.046974182150002 -24.743437767050001  -13.9243087769 28.009603500400001 -25.020429611200001  -14.1532840729 27.831761360150001 -24.858396530149999  -16.792490005499999 25.744509696999998 -24.4753551483  -16.59716796875 25.893376350399997 -24.492010116599999  -16.899345397899999 25.6379032135 -25.112277984599999  -11.075584411633335 26.3241888682 -22.697448094666665  -12.9076843262 28.781862258899999 -25.626077651999999  -13.2062091827 28.6675376892 -24.678680419900001  -12.766070365899999 28.852312088000001 -25.678163528399999  -13.221449851999999 28.6685619354 -23.7176551819  -13.109126091 28.703874588000001 -23.5686950684  -12.7174968719 28.855310440099998 -25.769502639799999  -13.0504350662 28.702898025500001 -23.660335540799998  -11.38457870485 26.358209610000003 -22.6974020004  -13.143519401600001 28.6940116882 -23.4720535278  -11.3290739059 26.599811553999999 -22.700540542599999  -15.4970426559 26.7112865448 -25.004039764400002  -17.5604629517 25.130863189700001 -25.099252700800001  -15.416431426999999 26.781127929699998 -24.966020584100001  -17.304175376899998 25.364007314033334 -24.301074663783336  -17.064024789000001 25.550906317557143 -24.193557739257141  -14.006430864325001 28.053486824025001 -23.480948448199999  -14.494843165066664 27.586059570316667 -24.262787501000002  -14.75846362115 27.353285312650002 -24.495478630074999  -15.668585777300001 26.5776576996 -25.081783294699999  -5.9762983322150003 25.17084789275 -25.04975986485  -12.5038976669 28.268215179399999 -22.885925293  -6.2529020309399996 25.300731658899998 -23.693050384500001  -6.5899477005050002 25.4184064865 -23.586100578349999  -14.01862192155 27.962078094500001 -24.686400413549997  -17.613008499100001 25.0964031219 -24.911382675199999  -17.586618423499999 25.113590240499999 -25.005378723100002  -17.418893814099999 25.267330169674999 -24.445332527174997  -13.1966581345 28.6287765503 -25.002210617100001  -13.275208473199999 28.554851532000001 -25.039827346799999  -15.3893241882 26.795890808100001 -25.060684204099999  -5.8294591903699997 25.108175277699999 -25.0886249542  -15.188993453949999 26.958595275900002 -25.1269464493  -15.779674529999999 26.495109558100001 -25.025867462200001  -13.85722875595 28.059202194200001 -25.096596717849998  -15.021010398849999 27.097111701949999 -25.469716072049998  -14.68918275835 27.359341621399999 -25.477936744700003  -13.989590644850001 27.943518638600001 -25.105566024799998  -13.7063131332 28.1793365479 -25.134326934800001  -5.7632722854600003 25.089960098300001 -25.033241272000001  -13.52345705035 28.326924324049997 -25.104764938350002  -14.272806167600001 27.7084026337 -25.0769824982  -15.510725021400001 26.693822860699999 -25.327407836900001  -15.261788368233333 26.899892807000001 -25.35273806253333  -15.668585777300001 26.5776576996 -25.081783294699999  -15.754804611200001 26.511386871300001 -25.120670318599998  -15.56768989565 26.650978088400002 -25.089890480000001  -17.5604629517 25.130863189700001 -25.099252700800001  -17.185618400599999 25.4145898819 -25.0859375  -17.116897583 25.472421646099999 -25.0007343292  -15.3893241882 26.795890808100001 -25.060684204099999  -15.4581193924 26.734428405750002 -25.146115303049999  -12.636178016700001 28.844007492100001 -25.856172561600001  -11.769408225999999 27.933851242100001 -25.967540741000001  -10.5264577866 27.169355392500002 -25.958757400500001  -17.728338241599999 25.002990722700002 -25.1762371063  -16.637600898750001 25.825028419500001 -25.363638877850001  -16.835315068566668 25.681106567400004 -25.224478403733332  -15.779674529999999 26.495109558100001 -25.025867462200001  -15.3072042465 26.8650398254 -25.022457122799999  -15.4970426559 26.7112865448 -25.004039764400002  -15.8676519394 26.429933548000001 -25.065132141100001  -15.021010398849999 27.097111701949999 -25.469716072049998  -15.118250846900001 27.021696090700001 -25.460800170900001  -15.092370986900001 27.036670684800001 -25.554847717299999  -15.120682716399999 27.020875930799999 -25.041528701800001  -15.977379798899999 26.3467979431 -25.009052276599999  -16.145744323700001 26.213161468500001 -25.0862407684  -16.703868866000001 25.784648895299998 -25.129104614300001  -13.950145959849999 27.948720455149999 -25.408863544474997  -14.198721885699999 27.722904205300001 -25.6824455261  -14.1147603989 27.7922954559 -25.644571304300001  -5.7632722854600003 25.089960098300001 -25.033241272000001  -5.8294591903699997 25.108175277699999 -25.0886249542  -5.8409595489499999 25.1113414764 -25.114597320600001  -5.7136490344999995 25.045923233049997 -25.174366951  -14.07083272935 27.872028350800001 -25.143542289750002  -13.9926018715 27.929450988799999 -25.267294883749997  -14.68918275835 27.359341621399999 -25.477936744700003  -13.275208473199999 28.554851532000001 -25.039827346799999  -13.1966581345 28.6287765503 -25.002210617100001  -13.248365402199999 28.567808151200001 -25.135095596300001  -13.769246101349999 28.095964431750001 -25.3799371719  -13.7063131332 28.1793365479 -25.134326934800001  -17.671581268299999 25.050111770600001 -25.044193267800001  -17.586618423499999 25.113590240499999 -25.005378723100002  -14.110813140899999 27.851346969600002 -25.000946044900001  -14.272806167600001 27.7084026337 -25.0769824982  -9.8469429016099994 26.3850803375 -25.984106063799999  -10.0850057602 26.614751815799998 -25.986120224  -9.0084505081199993 26.2650794983 -25.925146102900001  -13.52345705035 28.326924324049997 -25.104764938350002  -8.2351512908950006 25.599921226500001 -25.901594162000002  -8.8276100158700004 25.60206604 -25.9270658493  -8.3857393264799995 25.205593109100001 -25.9161224365  -12.9076843262 28.781862258899999 -25.626077651999999  -13.9243087769 28.009603500400001 -25.020429611200001  -13.989590644850001 27.943518638600001 -25.105566024799998  -6.9475334167479996 25.445721435559999 -25.330582427960003  -7.901136398316666 25.844263712566669 -25.442648569733336  -5.9762983322150003 25.17084789275 -25.04975986485  -13.85722875595 28.059202194200001 -25.096596717849998  -13.723752021799999 28.097568511999999 -25.681053161600001  -6.0722997188549996 25.156862258899999 -25.206829071050002  -6.2259340286300002 25.181272506700001 -25.2181224823  -8.8985309600800004 26.093044281000001 -25.940626144399999  -9.3474054336499997 26.030904769900001 -25.9490127563  -16.899345397899999 25.6379032135 -25.112277984599999  -16.768890380850003 25.733563423149999 -25.053652763350001  -10.272888183599999 26.8195781708 -25.982015609699999  -10.443806648300001 27.015211105300001 -25.976036071799999  -17.088052749599999 25.487651825 -25.0943183899  -16.993628501899998 25.562677383400001 -25.103252410899998  -7.6862565676366659 25.773227055866666 -25.117421468100002  -7.8801283836399998 25.246126174899999 -25.902545928999999  -15.188993453949999 26.958595275900002 -25.1269464493  -17.645397186299999 25.067436218299999 -25.1379489899  3 0 2 1  3 3 5 4  3 6 7 8  3 9 10 11  3 14 13 12  3 16 10 15  3 13 17 12  3 1 18 0  3 19 21 20  3 22 19 13  3 11 6 9  3 24 23 25  3 26 19 22  3 13 19 17  3 7 6 11  3 28 29 27  3 32 30 31  3 33 34 32  3 37 36 35  3 38 0 18  3 41 40 39  3 43 44 42  3 44 0 42  3 47 45 46  3 48 49 2  3 50 49 48  3 52 51 53  3 0 38 42  3 55 54 1  3 44 50 48  3 0 44 48  3 2 55 1  3 2 56 55  3 55 56 57  3 49 56 2  3 57 56 58  3 61 60 59  3 62 13 16  3 16 63 62  3 64 52 65  3 65 66 64  3 32 34 67  3 68 69 34  3 52 64 69  3 68 52 69  3 52 68 51  3 70 68 71  3 72 70 71  3 70 53 51  3 68 70 51  3 66 69 64  3 73 31 30  3 15 74 16  3 75 16 74  3 20 21 76  3 75 63 16  3 78 77 79  3 47 80 45  3 81 82 83  3 6 8 83  3 13 27 26  3 54 55 84  3 16 11 10  3 86 85 87  3 87 88 86  3 89 90 87  3 91 90 89  3 40 92 39  3 2 0 48  3 87 88 93  3 92 84 94  3 95 12 17  3 23 24 96  3 97 95 17  3 83 82 6  3 22 13 26  3 99 83 98  3 81 83 99  3 100 28 27  3 101 100 27  3 101 27 102  3 102 27 62  3 13 62 27  3 103 12 95  3 86 85 77  3 73 30 104  3 53 72 73  3 105 36 53  3 53 91 105  3 91 90 53  3 53 65 106  3 65 52 53  3 36 107 53  3 53 107 106  3 53 70 72  3 87 89 93  3 78 79 108  3 109 23 110  3 98 23 111  3 13 14 16  3 5 3 23  3 5 23 109  3 77 112 113  3 77 85 112  3 97 17 20  3 95 97 114  3 25 98 83  3 30 115 104  3 23 98 25  3 110 5 109  3 32 31 33  3 19 20 17  3 116 21 26  3 12 117 14  3 24 25 96  3 23 96 110  3 103 117 12  3 118 79 77  3 76 97 20  3 21 19 26  3 97 76 114  3 29 120 119  3 120 29 108  3 119 27 29  3 116 76 21  3 80 120 108  3 121 47 46  3 77 122 118  3 46 108 79  3 104 53 73  3 123 30 32  3 79 121 46  3 124 122 77  3 125 120 80  3 125 80 47  3 123 115 30  3 77 113 124  3 126 127 128  3 127 129 128  3 128 130 126  3 133 132 131  3 135 134 126  3 138 137 136  3 140 139 141  3 128 129 142  3 143 127 134  3 135 126 144  3 126 130 144  3 142 129 145  3 147 146 148  3 147 127 149  3 145 127 147  3 150 145 147  3 147 151 150  3 152 151 147  3 154 153 155  3 157 156 158  3 158 156 159  3 162 160 161  3 163 164 165  3 166 153 167  3 140 147 148  3 165 153 166  3 168 169 131  3 170 160 171  3 154 161 153  3 172 173 174  3 163 165 175  3 176 178 177  3 165 179 154  3 179 165 164  3 175 165 167  3 181 180 161  3 155 165 154  3 183 184 182  3 161 185 153  3 185 167 153  3 165 166 167  3 186 165 155  3 165 186 153  3 186 155 153  3 171 160 162  3 136 184 183  3 187 182 184  3 157 158 184  3 187 188 182  3 189 174 183  3 189 190 174  3 190 172 174  3 191 192 152  3 176 177 183  3 160 181 161  3 128 144 130  3 183 138 136  3 138 183 174  3 177 189 183  3 194 138 193  3 138 174 193  3 193 174 173  3 181 160 170  3 133 196 195  3 182 197 183  3 196 133 191  3 198 197 182  3 199 149 127  3 199 127 143  3 168 131 200  3 127 145 129  3 134 127 126  3 144 134 135  
