ply
format ascii 1.0
comment bbox -5.603005  9.596512 11.555323  25.009117 -25.936579  -24.546741 
element vertex 52
property double x
property double y
property double z
element face 28
property list uchar int vertex_index
end_header
0.26706629991500003 21.487409591700001 -25.087812423700001  0.190562605858 21.542640685999999 -24.990238189700001  0.114900998771 21.574672699000001 -25.077554702800001  0.09039170295 21.597574234 -24.688995361300002  0.15364509820899999 21.551776885999999 -24.590780258199999  0.229666699966 21.521160761533334 -24.727379481  0.44922155141800002 21.361310958849998 -24.580996513350001  0.392527908087 21.418069839499999 -24.7067184448  0.33215874433499998 21.433864593500001 -24.546741485600002  0.020806299522499998 21.636329650899999 -24.781862258899999  0.023972166469336666 21.624642054233334 -24.559961954766667  9.5965118408199999 16.392948150599999 -24.554264068599998  9.5108928680399991 16.431692123400001 -24.6431827545  9.5774908065800002 16.383083343500001 -24.742214202900001  0.110068500042 21.593946456899999 -24.8894939423  -0.19587010145200001 21.742591857899999 -25.052206039400001  0.28061394393450001 21.492881774899999 -24.905113220200001  0.048162698745699999 21.624710083 -24.836883544900001  0.10709829628500001 12.6157989502 -25.931856155399998  -0.047190301120300003 12.6305351257 -25.934743881199999  0.103440999985 12.799660682700001 -25.9324226379  -5.6030049324000002 25.009117126500001 -25.0486736298  -5.2898626327500002 24.8013629913 -25.2501945496  -5.5201816558800001 24.950260162399999 -25.145729064899999  -0.050967499613800003 12.8142995834 -25.935537338300001  0.099189497530500007 12.9862127304 -25.930259704600001  -0.033316399902100002 11.903736114499999 -25.92628479  -0.10760024841849999 11.733596324899999 -25.921351432800002  -0.18721359968199999 11.9186344147 -25.9285449982  -0.28807610273359996 12.57957572936 -25.93192176818  -0.206973001361 12.834513664199999 -25.931993484500001  -0.59044969081849996 12.69038534165 -25.935037612949998  -0.43962724506850004 12.858665943150001 -25.934101104749999  -0.44427314400699996 13.04469442365 -25.932991981500003  -0.21008810401 13.015612602199999 -25.936578750599999  0.123764201999 11.7081079483 -25.922023773199999  0.197581794113 11.880238533 -25.924343109100001  -0.19587010145200001 21.742591857899999 -25.052206039400001  -0.078635647892800004 21.674022674550002 -25.108076095599998  0.114900998771 21.574672699000001 -25.077554702800001  -5.5872201919600002 24.9801425934 -25.233667373700001  0.0122469002381 11.555322647100001 -25.918952941899999  0.073454201221499996 14.114644050600001 -25.917078018200002  0.080035351216799999 13.830670833599999 -25.920925140400001  -0.078404799103700004 13.943373680100001 -25.919279098499999  0.36489671468700002 16.077653884899998 -25.8592395782  -0.33447211484133338 16.160137176500001 -25.858894348133333  0.19414080306895001 16.609376907350001 -25.84683227535  0.0650428496301 15.678772449499998 -25.8697090149  0.046858299523600003 15.0870246887 -25.883338928200001  -0.110217101872 15.1044578552 -25.884592056300001  0.045463198795900002 15.30404043195 -25.877662658699997  3 1 0 2  3 3 4 5  3 7 8 6  3 3 9 10  3 12 11 13  3 2 15 14  3 1 14 16  3 9 3 17  3 20 18 19  3 21 22 23  3 20 24 25  3 27 28 26  3 29 30 19  3 19 30 24  3 31 32 29  3 32 30 29  3 32 33 30  3 30 33 34  3 24 20 19  3 26 35 27  3 26 36 35  3 37 39 38  3 21 23 40  3 27 35 41  3 42 43 44  3 46 47 45  3 45 48 46  3 49 50 51  
