ply
format ascii 1.0
comment bbox -26.415880  -25.645916 -5.406461  -3.221740 19.155699  24.808752 
element vertex 12
property double x
property double y
property double z
element face 6
property list uchar int vertex_index
end_header
-26.401348114000001 -5.2526721954299997 24.524084091199999  -26.194704055799999 -5.2495307922399999 24.601194381700001  -26.4158802032 -5.2678709030200004 24.548261642500002  -26.339645385699999 -5.1452469825699998 24.321647643999999  -26.205642700199999 -5.3610410690299997 24.808752059900002  -26.3938579559 -5.40646076202 24.7968292236  -25.6459159851 -3.2217400074000002 19.155698776200001  -25.8450164795 -3.26050424576 19.231670379600001  -25.692426681499999 -3.2600135803199999 19.299814224199999  -25.938987731899999 -3.3505458831800001 19.5141448975  -25.9868488312 -3.4042773246800002 19.651792526200001  -25.766141891499998 -3.31435227394 19.467954635600002  3 0 2 1  3 1 3 0  3 4 2 5  3 6 7 8  3 1 2 4  3 9 10 11  
