ply
format ascii 1.0
comment bbox 6.708242  27.116810 -0.069798  15.178506 -25.071424  -8.130570 
element vertex 435
property double x
property double y
property double z
element face 495
property list uchar int vertex_index
end_header
23.850170135500001 0.52722209691999999 -8.6866149902350003  24.037585576366666 0.52048807342833336 -8.7367512385033326  24.0894504547 0.37897407412540002 -8.5227777481080018  23.860496520974998 0.41387458145625 -8.5112917423249996  24.846000671399999 0.52372288703900005 -9.2096071243300006  24.629562377950002 0.58319514989849996 -9.2153859138499996  24.800321578999998 0.52293521165800005 -9.1753664016700007  24.184238433849998 4.6293003559099999 -22.23754549025  24.071664810200001 4.8046302795400004 -22.317443847700002  24.1251945496 4.7652025222800001 -22.427309036299999  24.850199699400001 2.7320803999925003 -21.474841117849998  24.8819246292 2.993030428885 -21.507013320950001  24.985246658299999 2.6778883934 -21.463119506799998  24.459000110649999 0.62347689270999995 -9.1992204189324998  24.66103458405 0.47441250085850001 -8.9379577636699992  24.453892517060002 0.53909479379640002 -8.976287841796001  24.737194061266663 0.58016854524633332 -11.817996342999999  24.932428359999999 0.47523429989799998 -11.836964607200001  24.688742637600001 0.445581808686 -12.070081710850001  24.839097023000001 0.86706775426849991 -10.740575313600001  24.486766815166664 0.97038594881700002 -10.721112251266668  25.048646926899998 0.80268388986600003 -10.495630264300001  25.081466674799998 3.8748898506150002 -23.679499626149997  24.918115615800001 4.1928081512500004 -24.720310211200001  25.0991535187 3.8303468227400002 -23.845930099499999  24.303469340000003 0.36042259136833327 -8.5613365173366685  23.917497634899998 5.0028653144800002 -22.360515594500001  24.017305374100001 4.8366971015900004 -22.2033920288  24.691635131799998 2.1749293804200001 -21.480331420900001  24.664422035249999 2.5589150190350001 -21.479644775400001  24.941864013699998 2.4121704101599999 -21.468486785900001  24.766396522499999 1.9798070192350001 -21.4716272354  24.984004974400001 2.0955855846400002 -21.465764999400001  24.833606719950001 0.71774014830599997 -9.8562426567100001  24.829166412399999 0.69067502021799998 -9.7262382507300007  25.045967102100001 0.66269117593799998 -9.8389511108400001  23.930710792550002 0.58721649646749996 -8.8205285072299997  24.063571929933332 0.6357255776723334 -8.9886538187666662  24.17793273925 0.55702280998250009 -8.8680863380399995  25.033573150599999 0.36953771114299999 -8.8778839111300005  24.921496391249999 3.7296906709650002 -22.164210319550001  25.012893676800001 3.6279842853500002 -22.070920944200001  25.094558715799998 3.6031783819200003 -22.254776954650001  24.9624576569 3.9909100532499999 -23.435430526699999  25.0145530701 3.9555215835599999 -23.544136047399999  25.017873764000001 3.9279396534000002 -23.208303451500001  6.7844529151900002 15.178505897499999 -16.102666854900001  6.7082417011299995 15.136095523850001 -15.969267368300001  6.9886326789900002 15.038352012600001 -16.199968338000001  23.643772125200002 5.1580328941299998 -22.119380950899998  23.718888282800002 4.9176371097600002 -21.90674972535  23.964698791499998 4.8392210006699994 -22.090353965750001  24.613942146299998 0.69995748996749996 -9.5799603462250005  24.44391759236667 0.71114383141199999 -9.4673452377300009  24.932096481333332 0.81295784314466657 -10.316585858666668  24.811253547650001 0.86035305261599992 -10.440697669999999  23.945470809950002 5.0004289150250001 -22.753264427200001  24.023284912099999 4.9099245071400004 -22.5722293854  24.0719509125 4.8577868938449997 -22.661426544199998  24.535606384299999 4.2140426635766666 -22.523087183633333  24.590276718150001 4.1239264011349999 -22.31424999235  25.018882751500001 3.8668162822699998 -22.852678299000001  24.131464958199999 4.7917187213899997 -22.770161628700002  24.048945426949999 4.8895342350000002 -22.95364952085  24.431745529200001 4.3232250213599999 -22.318853378299998  24.526828765899999 4.1833772659299999 -22.20135211945  24.883739471449999 3.9757885932899999 -22.913021087650002  24.965164184599999 3.9582149982499999 -23.0960521698  25.072595596300001 3.84911370277 -22.9719696045  25.0644283295 1.4630529880500001 -21.45362854  24.806690216100002 1.2298634052299999 -21.457401275599999  25.107189178500001 1.1412146091499999 -21.450717925999999  24.800044377633338 4.1427920659400002 -23.773370742800001  24.884477615400002 4.1290431022599998 -24.186565399199999  24.720138549799998 4.2260906696300005 -23.9449634552  24.933222770699999 4.0331811904899997 -23.713806152349999  25.068363189700001 3.8941051959999999 -23.5948982239  25.061277389499999 3.4398212432899999 -21.770557403600002  24.925996780399998 3.5871075391750002 -21.8518543243  25.149228096000002 3.5036543607699997 -22.001646041899999  24.890237808199998 0.058219898492099999 -12.413391113299999  25.0270519257 0.054693400859799998 -12.3278141022  25.1522302628 -0.069797750562449995 -12.37503957745  24.883365631099998 4.0349671840700001 -23.267257690400001  24.945959091199999 0.72715622186649997 -9.9705839157099998  25.039028167700003 0.50349979102599995 -11.685930252049999  25.156166076650003 0.31248261034500002 -11.90324926375  25.125364303600001 3.82025074959 -23.0853118896  25.014537811299999 3.7390305995899999 -24.8999176025  24.978452682499999 3.9360682964299998 -24.935663223300001  24.999164581300001 3.9395775794999999 -24.801074981700001  24.228625615400002 4.6504906018566663 -22.627599716199999  25.034814834599999 0.0078229997307100001 -8.1305704116800008  24.902091980000002 0.078638203442099999 -8.2257595062300002  24.8396720886 0.058681201189799997 -8.1924381256099998  24.771097183199998 3.8320451974849998 -21.997220992999999  24.801621754966664 4.10648727417 -23.435171127299999  23.999239603666666 4.4669189453133322 -21.766115188599997  24.4197864532 4.1463713645900002 -21.893352508500001  24.248608589149999 4.075935721395 -21.685306549099998  24.248400688174996 4.3436242342 -21.902699470500004  24.36546897885 4.4467673301700001 -22.5676860809  24.300317764266666 4.5210658709233327 -22.429736455266664  24.520860036233334 3.8832040627766666 -21.760902404800003  24.77218532565 3.9112432003000004 -22.29239845275  24.183264732349997 4.7347791194899997 -22.8818130493  24.368287404399997 4.3593737284366663 -22.145034790066664  24.11195755 4.6046853065500004 -22.011157989499999  24.479324340800002 4.1779890060399998 -22.041839599599999  24.9313964844 3.4625129699700001 -21.706979751599999  25.184404373149999 3.0461356639900004 -21.543047904950001  24.584049860633332 3.5093012650833333 -21.590343475300003  23.970817565899999 4.9602336883499998 -22.468511581400001  25.0689048767 0.75523978471800002 -10.215209960899999  24.815626144399999 0.82243284583099996 -10.2129740715  25.1175365448 0.73552018403999997 -10.183589935300001  24.034141540499999 4.6429629325899997 -21.940881729099999  23.893266677900002 4.7459154128999996 -21.892099380499999  24.088676452649999 2.5509116649600001 -21.603316307100002  24.326166152999999 2.8741509914400001 -21.509925842299999  24.366401672399999 2.8201215267199999 -21.506551742599999  24.5767402649 3.1068077087399999 -21.500368118299999  24.586086273200003 2.7789341211299998 -21.482432365450002  24.7341098785 3.7234144210800002 -21.795291900599999  24.798023223874999 1.5529000759125 -21.468854427324999  24.873451232899999 0.56603872775999997 -11.7250423431  24.9501972198 0.63416349887800005 -11.513890266400001  24.966088294949998 0.755478322506 -11.153135776500001  24.841594696000001 0.79676938056900004 -11.1444540024  25.026069641100001 0.68694621324500005 -11.2915725708  24.933948516850002 0.698688238859 -11.379113197300001  24.536088943500001 4.0571351051300004 -21.9450359344  24.664442062349998 3.972751379015 -22.06183815  24.963277816800002 3.86066031456 -22.720964431799999  25.1258049011 3.7414560317999999 -22.7197151184  24.846990585299999 4.2689681053199999 -24.610841751100001  25.1931581497 2.6517938375450001 -21.454572677599998  25.020980835 1.7842872142799999 -21.4551734924  24.974746704099999 1.7209966182700001 -21.4635772705  24.933801651 4.1604852676400004 -24.845008850100001  25.007747650100001 3.9724225997899998 -24.5409698486  25.011266708400001 3.9498550891900002 -24.6688861847  24.280631065350001 0.45807640254500004 -8.7197182178475003  24.320956230150003 1.9421283602699999 -21.53813648225  24.20566654205 2.3235137462599997 -21.589331626899998  24.417144775400001 2.248524427415 -21.5240106583  24.281673431400002 1.0317966192970001 -10.6740911007  24.990936279300001 0.37834709882700002 -11.944583892800001  24.977043151899998 0.82140642404599995 -10.771473884600001  24.924282073999997 0.812034010887 -10.98036623  25.039659500100001 0.78022778034200002 -10.9200649261  24.430974006650001 2.5750262737250003 -21.508486747749998  24.121742248499999 0.75681948661800003 -9.3539323806799999  24.233763376866666 0.63464597860966665 -9.0778643290200005  24.889957427999999 0.089410200715100002 -8.2462005615200002  25.012722015400001 0.13016310334200001 -8.3286371231099992  24.940324783299999 0.17192989587800001 -8.3917016983000003  24.899602890000001 0.570768177509 -21.463977813700001  25.190364837600001 0.2270296067 -21.374534606899999  25.175230026200001 0.516308486462 -21.418483734100001  25.049718856799998 0.82329887151699999 -21.441446304300001  24.439919471750002 0.71619352698350003 -21.462339401249999  24.85213279725 0.88525649905199999 -21.460003852850001  24.537758509333333 0.93648397922566673 -21.460102081299997  24.814949035650002 3.257038116455 -21.566081047049998  24.604524612399999 2.1637768745399999 -21.492292404200001  25.229681015000001 2.33905529976 -21.4474372864  25.014617919900001 2.07333731651 -21.464670181300001  24.7837352753 0.017675299197400001 -8.1306638717700004  25.163873672450002 0.75560486316700004 -10.365538120250001  24.968269348100002 0.248278900981 -8.5529317855800002  25.121133804300001 0.17912079393899999 -8.4333868026700003  25.2239818573 0.22127330303199999 -8.5437602996800006  25.048730850250003 3.7417672872550001 -24.69753456115  24.898833274849999 0.26746949553499999 -21.443493843100001  24.636360168500001 0.33934989571599999 -21.462770462000002  25.033206939700001 0.111661702394 -21.390594482400001  25.049085617100001 0.27672559022900001 -12.0488710403  25.0120658875 0.55666947364800001 -9.4759922027600005  25.179208755499999 0.27576160430899999 -8.6742944717399997  25.045799255399999 0.52567619085299999 -9.4004411697400005  25.112527847300001 0.40669119358099998 -9.0430583953900001  24.8139686584 0.65056848526 -11.608619689899999  25.119962692249999 0.72937959432599997 -11.02928161625  24.953603744500001 3.9358081817600001 -25.0714244843  25.091178894033334 0.79090758164700004 -10.650773366266668  25.1381216049 0.75946259498599999 -10.812534809100001  24.969942092899998 0.17183910310299999 -12.2340946198  24.661239624 0.034708499908399998 -21.434928893999999  24.883473396300001 0.33579295873600001 -12.085567951200002  24.80452537535 0.233137756586 -12.27228975295  25.041963577300002 3.7253882885 -22.51766967775  25.226189613350002 0.12223335355499999 -8.3318052291899996  23.5767745972 5.0744829177900002 -21.943111419699999  23.6068286896 4.9985294342 -21.895812988300001  25.179462432866668 0.64079636335366674 -11.241775194799999  25.115953445400002 0.57187268137949998 -11.474924564349999  25.106740951500001 0.16790470480899999 -12.148221015900001  25.072196006799999 0.45679900050150002 -9.1960725784299999  25.100019455000002 3.8099143505100002 -23.974943160999999  25.406928062399999 3.40988433361 -22.849802970900001  25.432225227349999 3.3436336517349998 -22.950687408450001  25.2819728851 3.6222684383399999 -23.045055389400002  26.0608139038 1.42470276356 -23.4852161407  26.025030771899996 1.6493974924066668 -23.267279307066662  26.163310050949999 1.1787917017949998 -23.497664451599999  25.014537811299999 3.7390305995899999 -24.8999176025  25.048730850250003 3.7417672872550001 -24.69753456115  25.102679252649999 3.5314689874649998 -24.657273292550002  25.3508644104 0.35623711347600001 -9.0248317718499997  25.416624705033332 0.27888316909466671 -8.7879594167066681  25.618885040249999 0.26379695534699998 -8.8366937637349992  26.400457382200003 0.36006909608850002 -10.19973134995  26.537466049199999 0.30412346124650003 -10.085071563749999  26.338279724149999 0.366996154189 -10.03471326825  25.049718856799998 0.82329887151699999 -21.441446304300001  25.175230026200001 0.516308486462 -21.418483734100001  25.144313812299998 0.82534718513500005 -21.439271926899998  25.4866113663 0.64951553940750006 -10.7372751236  25.773399353000002 0.56241545081150002 -10.50384664535  25.9796161652 0.489210993052 -10.5670251846  26.7229328156 0.227087602019 -10.1395711899  26.623281478900001 0.26886421442000003 -10.221855163600001  26.008914947499999 2.308003544805 -22.211734771700002  25.811367034900002 2.7237560749099998 -22.245016098000001  25.7511901855 2.77826929092 -22.4737148285  26.171292305000001 0.41872274875649995 -10.59514427185  26.364651680000001 0.33478026092049995 -10.641701221449999  26.216074943549998 0.36895669996750002 -10.764878273000001  25.486347198499999 2.5667777061499999 -21.446050643900001  25.550309181199999 2.78097808361 -21.512940406799999  25.410161972000001 2.6250216960900001 -21.450025558499998  25.8880558014 2.3351213932000001 -22.738489151  25.939499855050002 2.3240443468100001 -22.535699844349999  26.1800956726 1.8235688209500001 -22.371618270900001  25.502389907849999 3.1493231058150002 -23.024327278100003  25.470758438099999 2.861854910855 -23.716879844650002  25.011266708400001 3.9498550891900002 -24.6688861847  25.328977584833336 3.0894140402466665 -24.097693761200002  25.361966133149998 2.8690677881199997 -24.25566768645  25.2567062378 3.0970830917350001 -24.436653137199997  26.098093032800001 0.41749230027200002 -9.8824720382700004  26.27164649965 0.36190144717649997 -9.8692917823799995  26.20326423645 0.3489548563955 -9.7005615234400011  25.169178008999999 3.74918198586 -23.5002555847  25.0145530701 3.9555215835599999 -23.544136047399999  25.068363189700001 3.8941051959999999 -23.5948982239  25.094855308500001 3.8566330671299998 -23.363319396949997  25.7109193802 2.0812689065949996 -21.425447464000001  25.229681015000001 2.33905529976 -21.4474372864  25.648040135700001 2.3619173367799999 -21.453553517700001  25.701906204233335 1.1531416972499999 -21.377805709833336  25.52838230135 1.3284996151900001 -21.400218009950002  25.618090947466666 1.8129001061133332 -21.408558527633335  25.094558715799998 3.6031783819200003 -22.254776954650001  25.149228096000002 3.5036543607699997 -22.001646041899999  25.258059501650003 3.4756404161450001 -22.2496509552  25.2278470993 0.74880260229099993 -10.531203746799999  25.048646926899998 0.80268388986600003 -10.495630264300001  25.368005752549998 0.69674408435849999 -10.415775299050001  25.4630851746 0.198953598738 -8.5528173446700002  25.583257675200002 0.15693604946100001 -8.4705228805550004  25.829469680800003 0.12179305031900001 -8.4474234581000012  25.656105995200001 0.52429530024549997 -11.006553173050001  25.298421859699999 0.64157688617700004 -11.092798233  25.3586406708 0.57201492786399999 -11.2203865051  25.989946365350001 0.16662984341350001 -8.7036743164099999  25.931575775100001 0.14735460281400001 -8.5772209167500009  26.077001571699999 0.152189999819 -8.7118759155299994  25.418800989800001 0.68208817640933328 -10.596481005366666  25.226189613350002 0.12223335355499999 -8.3318052291899996  25.242650985699999 0.079576596617700002 -8.2541522979700002  25.403785705600001 0.0619419999421 -8.2221193313600001  27.116809844999999 0.050884298980199999 -10.2035732269  26.78659152985 0.19184395670900001 -10.2914557457  26.586456298800002 0.28416690230399999 -10.264201164199999  25.153497060133333 3.540699164076667 -24.322394688900001  25.018882751500001 3.8668162822699998 -22.852678299000001  25.191198349 3.72527444363 -22.86629772185  25.072595596300001 3.84911370277 -22.9719696045  25.091178894033334 0.79090758164700004 -10.650773366266668  25.875987052950002 0.29849284887299998 -9.1874294280999997  25.9495973587 0.32281920313849999 -9.3571658134499991  26.092084884599998 0.17715099453899999 -8.8429441452000006  25.210047404000004 3.5552645524366668 -23.921497980733335  25.483470280933332 1.9246606032066669 -21.425253550200001  25.6646442413 2.8368718624099998 -22.837690353399999  25.173927307133336 3.3183011213933331 -24.548343022633333  26.105808258100001 1.1944704055799999 -23.699258804300001  25.163873672450002 0.75560486316700004 -10.365538120250001  25.935095214860002 0.39105412364019998 -9.6391971588139995  26.16713619235 0.32975800335399996 -9.5836596488950008  26.28517150875 0.40324315428699997 -10.2448592186  25.979713439899999 2.32153940201 -22.335641860999999  26.117320060699999 2.062062740325 -22.218491554300002  25.1931581497 2.6517938375450001 -21.454572677599998  25.3505859375 1.39363849163 -21.426269531199999  25.0644283295 1.4630529880500001 -21.45362854  25.383216857899999 1.08566761017 -21.4074401855  25.107189178500001 1.1412146091499999 -21.450717925999999  25.045967102100001 0.66269117593799998 -9.8389511108400001  25.1175365448 0.73552018403999997 -10.183589935300001  26.12985706325 1.6164782047299999 -22.927425384499998  25.959373474100001 2.0982086658500001 -22.825407028200001  25.045799255399999 0.52567619085299999 -9.4004411697400005  25.6141026815 0.31639606753999999 -9.065677960713332  25.150552749599999 0.066244699060899997 -8.2274208068799997  25.720992088300001 0.42059744894500001 -11.2116446495  25.592267990149999 0.3518406003715 -9.1951084136949994  25.318122863799999 1.70001912117 -21.445003509500001  25.020980835 1.7842872142799999 -21.4551734924  25.252396583550002 3.3388032913250001 -21.7808732986  25.287080764799999 3.39505243301 -21.940582275400001  25.061277389499999 3.4398212432899999 -21.770557403600002  25.499232610066667 0.60478278001133334 -10.935369173699998  26.512039184566664 0.24610927204266667 -10.718523343399999  26.333695411699999 0.28401765227349995 -10.867695331549999  25.184404373149999 3.0461356639900004 -21.543047904950001  25.112527847300001 0.40669119358099998 -9.0430583953900001  25.033573150599999 0.36953771114299999 -8.8778839111300005  25.235556920366665 0.33544956644399998 -8.8846130371100003  25.540270805349998 0.222774155438 -8.6600542068450004  25.871725082400001 0.167555600405 -8.6230792999299997  25.119962692249999 0.72937959432599997 -11.02928161625  25.237449646000002 0.70091491937600003 -10.957700729400001  25.285451889050002 0.72283235192299999 -10.694253921550001  25.1381216049 0.75946259498599999 -10.812534809100001  25.337635993950002 0.68617808818799997 -10.860064983400001  25.039659500100001 0.78022778034200002 -10.9200649261  25.419115066499998 2.8633521795250001 -23.985506057750001  25.237431526149997 3.5828620195400003 -23.59225559235  25.100019455000002 3.8099143505100002 -23.974943160999999  25.0991535187 3.8303468227400002 -23.845930099499999  25.017873764000001 3.9279396534000002 -23.208303451500001  25.115953445400002 0.57187268137949998 -11.474924564349999  25.179462432866668 0.64079636335366674 -11.241775194799999  25.1677970886 0.73775810003300002 -10.291384697  25.0689048767 0.75523978471800002 -10.215209960899999  25.012893676800001 3.6279842853500002 -22.070920944200001  25.200568199149998 3.7220247983950001 -23.227674484249999  25.125364303600001 3.82025074959 -23.0853118896  26.010614395099999 0.109742596745 -8.4942111969000003  25.0120658875 0.55666947364800001 -9.4759922027600005  25.234573364300001 0.48221778869600002 -9.4147033691399997  25.242825508099997 0.50102286040800004 -9.4878416061399999  25.529312769566669 3.0442326068866667 -21.67126846313333  25.396170616150002 3.2384808063500001 -21.768529892  25.012722015400001 0.13016310334200001 -8.3286371231099992  25.918619791666668 0.218903635939 -8.8721577326466683  26.456694925147154 0.60584269453562922 -23.379214082095434  26.446152369166668 0.313233335813 -9.9005762736000005  26.457248687749999 0.33532430231599997 -10.362095832849999  25.480559349049997 0.1196912974115 -8.3647108078050003  25.745981216400001 0.085555300116500005 -8.3389387130700001  25.6450519562 0.044425200670999997 -8.2283363342300007  26.635969161999999 0.23022640248133333 -9.8216613133733333  25.759860038749999 2.8532922267899998 -22.175096511850001  25.7249399821 2.8672835032133333 -22.383724212666667  26.190454483 0.42563709616700002 -10.1752738953  25.4083976746 3.3498845100399999 -23.074523925800001  25.299486160249998 3.5712996721249999 -23.126110076899998  25.072196006799999 0.45679900050150002 -9.1960725784299999  25.3201828003 0.25520980358099998 -8.6610774993900002  25.179208755499999 0.27576160430899999 -8.6742944717399997  25.803220748899999 0.098503403365599998 -8.3849201202400003  26.004437446600001 0.46673355996599997 -10.67668247225  25.753764152549998 0.35259480774399998 -9.3216185569750003  25.76278686525 0.26529635489000003 -8.9471149444600009  26.118173599199999 0.0029132999479799999 -8.2465438842799994  26.149324417100001 0.040438700467299998 -8.3566045761099996  26.252660751299999 0.414196014404 -10.3460226059  26.317035675 0.37980154156699997 -10.474822998050001  26.011528015149999 1.8678136467949999 -22.97930717465  25.154528617849998 1.8365672826799999 -21.457760810849997  25.24859428405 2.0268049240099999 -21.451195716850002  25.231891632100002 3.69001674652 -22.950819015499999  25.260709762600001 3.6531167030299998 -23.0046291351  25.631181716900002 3.0639566183099998 -22.291129112250001  25.715061187700002 2.95406866074 -22.099098205600001  25.4516563416 3.2681112289400001 -21.935960769699999  25.607713699350001 2.1876509189600002 -24.115841865549999  25.750925064099999 1.7265847921399999 -24.216918945300002  25.522459665900001 2.2055260340366667 -24.454531351733333  26.160512924199999 0.32543289661399999 -10.982840538  26.100925445600001 0.39257669448900001 -10.853455543500001  25.081466674799998 3.8748898506150002 -23.679499626149997  25.19664764405 3.1049301624300001 -24.708543777499997  25.295666694649999 2.8817752599699999 -24.52848243715  25.505069732700001 3.2434701919600002 -22.054899215700001  25.6142692566 3.1033291816699999 -21.912054061900001  25.103092193599998 3.3247396945999999 -24.88795280455  25.041963577300002 3.7253882885 -22.51766967775  25.1258049011 3.7414560317999999 -22.7197151184  25.007747650100001 3.9724225997899998 -24.5409698486  25.234129905700001 0.39673975110049997 -11.703646183  25.156166076650003 0.31248261034500002 -11.90324926375  25.039028167700003 0.50349979102599995 -11.685930252049999  26.646768569900001 0.24456040561199999 -10.414326667799999  25.026069641100001 0.68694621324500005 -11.2915725708  25.014617919900001 2.07333731651 -21.464670181300001  26.2138690948 1.81649434566 -22.237648010299999  25.354874293033333 2.6615025202433333 -24.550667444833334  25.991647720350002 2.373100638385 -22.111366271999998  25.842494010900001 1.487531244755 -24.230050087000002  25.921175003050003 1.4652559757249999 -23.959078788749999  25.737288475050001 0.2458072528245 -21.261656761200001  25.4508686066 0.19375079870199999 -21.3054580688  25.665250778166666 0.55440673232066662 -21.325820287066666  25.961577415500003 0.80921494960750007 -21.3217926025  25.9618186951 0.32173544168449997 -21.248044967650003  26.246015548700001 0.61206781864199999 -21.2528114319  26.657626469933334 0.71362054347999992 -21.263031005866669  26.235549926800001 0.89112299680700002 -21.306840896600001  26.543144226100001 0.53206938505199997 -21.234603881799998  25.840559005733336 0.49062837163599998 -10.861145337399998  26.007259368899998 0.39152425527566664 -10.985347429900001  26.54236221315 0.2261886000635 -9.6295299529999987  26.407724380499999 0.2953468114135 -9.7489085197450009  26.510013580349998 0.29828424751749999 -10.5234489441  26.309253692599999 0.13245350122499999 -8.8711738586400006  26.184808731099999 0.099948149174400008 -8.5908250808700011  26.8595809937 0.1654586941 -10.011508941700001  26.31358083086667 0.28264513611800002 -9.5530077616366658  25.693929672199999 0.035787798464299997 -8.2178087234500001  25.106740951500001 0.16790470480899999 -12.148221015900001  25.163961410500001 0.052415698766699999 -12.243059158299999  25.0270519257 0.054693400859799998 -12.3278141022  25.034814834599999 0.0078229997307100001 -8.1305704116800008  25.0922889709 0.010588100180000001 -8.13676071167  25.3280792236 2.4605693817100001 -24.9129924774  25.412849426299999 2.2324130535100002 -24.863477706899999  25.465272903399999 2.01113581657 -24.948957443200001  25.2239818573 0.22127330303199999 -8.5437602996800006  26.251537958766665 0.114449168245 -8.7252766291300006  25.8573144277 0.40669996539766667 -11.099893887833332  3 1 0 2  3 2 0 3  3 6 4 5  3 8 7 9  3 10 12 11  3 13 14 5  3 15 14 13  3 16 17 18  3 19 20 21  3 22 24 23  3 1 2 25  3 27 8 26  3 30 29 28  3 32 28 31  3 33 34 35  3 37 36 38  3 5 14 39  3 39 6 5  3 40 41 42  3 43 45 44  3 46 47 48  3 51 49 50  3 52 53 5  3 21 55 54  3 56 57 58  3 59 60 61  3 58 62 63  3 60 64 65  3 67 66 68  3 70 71 69  3 56 58 63  3 72 73 74  3 75 76 22  3 22 73 75  3 72 75 73  3 78 77 79  3 80 81 82  3 83 67 45  3 83 45 43  3 33 35 84  3 17 85 86  3 67 87 45  3 88 89 90  3 91 62 58  3 92 93 94  3 78 79 41  3 41 95 78  3 44 75 96  3 98 97 99  3 97 98 100  3 101 102 64  3 99 103 98  3 104 60 65  3 63 62 105  3 27 7 8  3 76 75 44  3 7 27 106  3 27 107 106  3 106 108 65  3 108 106 107  3 109 99 110  3 110 99 111  3 102 101 91  3 9 57 112  3 64 102 7  3 9 102 91  3 114 115 113  3 112 26 9  3 9 26 8  3 27 51 107  3 51 116 107  3 97 116 117  3 97 100 116  3 118 120 119  3 121 119 120  3 122 121 120  3 109 103 99  3 101 64 59  3 78 95 123  3 64 60 59  3 115 114 84  3 61 66 59  3 61 68 66  3 103 109 123  3 124 70 69  3 125 126 85  3 127 129 128  3 128 129 130  3 110 77 109  3 95 131 123  3 132 95 41  3 61 133 134  3 22 23 135  3 132 65 108  3 11 136 110  3 12 136 11  3 31 124 137  3 137 124 138  3 139 140 141  3 124 69 138  3 138 69 137  3 142 1 25  3 5 53 13  3 1 142 38  3 143 145 144  3 20 146 21  3 86 147 17  3 150 149 148  3 125 17 16  3 151 120 118  3 53 152 13  3 13 152 153  3 134 133 60  3 60 133 61  3 93 155 154  3 154 155 156  3 38 36 1  3 158 159 157  3 159 160 157  3 161 158 157  3 160 161 157  3 114 113 54  3 13 153 15  3 70 162 71  3 163 161 160  3 160 162 163  3 35 115 84  3 17 125 85  3 1 36 0  3 121 11 164  3 143 165 145  3 32 167 166  3 28 32 30  3 44 96 43  3 94 168 92  3 31 165 143  3 124 31 143  3 58 57 9  3 162 70 163  3 165 28 29  3 165 31 28  3 151 29 122  3 120 151 122  3 40 132 41  3 9 91 58  3 169 54 113  3 142 171 170  3 170 171 172  3 172 142 170  3 173 90 141  3 174 175 176  3 177 147 86  3 35 34 178  3 172 179 14  3 166 136 12  3 90 139 141  3 146 55 21  3 111 164 110  3 178 34 180  3 6 39 181  3 125 182 126  3 153 38 15  3 54 169 21  3 183 127 149  3 173 88 90  3 184 89 88  3 60 104 134  3 148 185 186  3 137 167 31  3 167 32 31  3 32 166 30  3 30 166 12  3 164 11 110  3 78 123 77  3 123 109 77  3 65 132 42  3 42 132 40  3 162 160 71  3 181 4 6  3 161 175 158  3 81 80 187  3 135 73 22  3 174 176 158  3 175 174 158  3 175 188 176  3 179 39 14  3 189 147 177  3 153 37 38  3 187 190 177  3 177 190 189  3 172 15 38  3 172 38 142  3 14 15 172  3 42 191 104  3 104 191 134  3 92 155 93  3 104 65 42  3 144 151 118  3 192 156 155  3 193 194 50  3 145 165 29  3 87 67 68  3 193 50 49  3 50 117 51  3 149 150 183  3 148 186 150  3 127 195 129  3 126 130 196  3 130 129 196  3 19 21 185  3 148 19 185  3 85 126 196  3 127 183 195  3 187 177 197  3 197 81 187  3 180 34 4  3 198 180 4  3 181 198 4  3 192 171 142  3 156 192 25  3 192 142 25  3 9 7 102  3 23 24 199  3 140 139 199  3 199 139 23  3 202 200 201  3 203 204 205  3 206 207 208  3 209 210 211  3 212 214 213  3 216 217 215  3 218 219 220  3 222 213 221  3 223 225 224  3 226 227 228  3 231 229 230  3 232 233 234  3 225 235 201  3 236 238 237  3 238 239 240  3 241 243 242  3 244 246 245  3 247 244 245  3 248 229 249  3 229 248 250  3 251 253 252  3 254 255 256  3 257 258 259  3 260 261 262  3 264 263 265  3 268 266 267  3 219 218 269  3 270 271 272  3 273 274 275  3 275 221 273  3 207 237 276  3 279 277 278  3 229 231 249  3 257 280 258  3 282 281 283  3 237 284 235  3 248 285 253  3 225 286 235  3 287 238 240  3 288 239 203  3 289 259 258  3 282 291 290  3 292 214 212  3 233 293 294  3 295 249 231  3 298 296 297  3 298 297 299  3 276 237 238  3 300 241 301  3 234 302 303  3 288 203 205  3 304 209 305  3 306 272 271  3 265 263 307  3 304 305 308  3 310 297 309  3 312 255 311  3 255 313 311  3 263 264 314  3 228 315 316  3 317 295 231  3 231 230 317  3 318 319 320  3 291 241 290  3 241 291 243  3 267 321 262  3 322 321 267  3 323 324 264  3 325 326 280  3 325 327 326  3 327 328 326  3 204 203 329  3 244 330 331  3 331 332 244  3 245 333 247  3 265 334 335  3 289 337 336  3 323 327 324  3 328 327 323  3 327 314 324  3 324 314 264  3 254 338 255  3 333 340 339  3 267 262 341  3 335 264 265  3 281 282 300  3 342 343 344  3 304 343 342  3 345 346 317  3 284 330 235  3 306 271 347  3 271 270 347  3 283 348 268  3 268 348 266  3 349 204 302  3 350 214 242  3 343 308 344  3 351 212 275  3 353 261 352  3 353 352 354  3 355 213 350  3 257 269 325  3 201 356 357  3 350 213 214  3 358 214 292  3 201 359 330  3 330 360 201  3 361 209 304  3 343 304 308  3 283 281 348  3 210 209 318  3 318 320 210  3 318 209 361  3 362 210 319  3 319 210 320  3 363 362 319  3 261 353 262  3 353 364 262  3 218 220 365  3 293 286 225  3 281 366 367  3 368 369 262  3 370 351 371  3 372 302 204  3 219 370 220  3 308 366 300  3 300 344 308  3 300 342 344  3 309 373 310  3 360 202 201  3 374 285 249  3 375 376 340  3 229 250 230  3 317 230 345  3 377 378 356  3 379 312 346  3 346 312 311  3 380 381 382  3 249 285 248  3 339 376 202  3 383 384 228  3 332 385 244  3 240 387 386  3 346 311 317  3 388 379 389  3 390 206 208  3 357 225 201  3 235 330 359  3 391 254 392  3 340 279 278  3 330 244 360  3 207 276 208  3 330 393 331  3 228 365 226  3 238 303 372  3 394 395 396  3 208 386 390  3 397 351 275  3 235 286 237  3 393 330 237  3 237 330 284  3 398 335 334  3 329 238 372  3 275 274 397  3 374 249 399  3 386 208 240  3 208 287 240  3 287 208 238  3 238 208 276  3 400 234 294  3 225 357 224  3 386 387 401  3 380 382 239  3 382 401 239  3 225 223 293  3 294 293 223  3 223 224 402  3 303 238 236  3 286 293 233  3 237 286 233  3 233 232 237  3 236 237 303  3 303 237 232  3 234 233 294  3 382 381 403  3 404 403 381  3 381 380 404  3 288 404 239  3 404 380 239  3 372 204 329  3 239 329 203  3 234 303 232  3 372 303 302  3 405 407 406  3 205 204 349  3 298 252 296  3 251 252 298  3 408 407 409  3 402 224 356  3 251 407 408  3 409 410 408  3 366 308 367  3 410 411 412  3 410 413 411  3 273 397 274  3 226 220 371  3 371 220 370  3 412 408 410  3 290 241 300  3 365 228 384  3 290 300 282  3 214 358 241  3 242 214 241  3 322 211 321  3 263 314 414  3 314 327 414  3 414 327 218  3 414 218 365  3 226 365 220  3 365 384 414  3 414 384 415  3 351 370 212  3 370 292 212  3 416 350 417  3 418 351 397  3 300 366 281  3 367 308 305  3 243 291 419  3 348 367 266  3 266 367 267  3 267 420 268  3 341 420 267  3 369 341 262  3 371 351 418  3 275 222 221  3 239 238 329  3 383 415 384  3 226 371 418  3 418 227 226  3 315 228 227  3 213 421 221  3 315 227 418  3 212 213 275  3 213 222 275  3 407 405 409  3 422 417 243  3 239 387 240  3 357 356 224  3 353 354 423  3 316 383 228  3 392 278 277  3 417 242 243  3 417 350 242  3 401 387 239  3 335 323 264  3 359 201 235  3 424 425 426  3 354 272 423  3 317 311 313  3 427 428 306  3 427 306 347  3 325 269 218  3 280 257 325  3 429 430 431  3 362 363 432  3 327 325 218  3 433 283 268  3 362 321 210  3 210 321 211  3 307 263 434  
