ply
format ascii 1.0
comment bbox -31.450197  -25.341753 -2.035726  6.688884 -25.657552  -17.373495 
element vertex 36
property double x
property double y
property double z
element face 28
property list uchar int vertex_index
end_header
-25.8428211212 0.29893940687199999 -25.643007278399999  -31.138910293599999 -1.88034415245 -19.0055580139  -26.3209877014 0.18782100081399999 -25.6378192902  -26.758288383450001 0.18968949466925 -25.635992050150001  -31.086822509800001 -2.03572559357 -19.1038188934  -27.155251503000002 0.30438905954350004 -25.636970519999998  -31.309120178200001 -1.0223828554200001 -18.208908081099999  -31.246874809250002 -1.480850577355 -18.620201110849997  -28.009660720799999 0.216165199876 -25.6271724701  -27.573380788133335 0.31244566291566667 -25.634058634466669  -28.861892700199999 0.0262589007616 -25.614334106400001  -28.441097259500001 0.11873859912199999 -25.620956420900001  -29.234544754000002 0.133284196258 -25.6160564423  -29.722815513649998 -0.27552499622100002 -25.601344108599999  -25.734742382558533 6.6888841252993192 -20.223450136554288  -31.345348358199999 -0.78022611141200005 -17.970712661699999  -25.4147605896 0.194596096873 -25.6399402618  -31.417548179649998 -0.32067784667049998 -17.553365707399998  -31.4501972198 -0.100043199956 -17.373495101900001  -28.336297353099997 0.54241013526933335 -25.634977340700001  -27.930807113650001 0.53406830132000005 -25.638195991499998  -28.009660720799999 0.216165199876 -25.6271724701  -28.441097259500001 0.11873859912199999 -25.620956420900001  -28.791553497350002 0.33412509411550001 -25.625656127950002  -28.063331603999998 0.0043509998358800001 -25.620149612399999  -25.8428211212 0.29893940687199999 -25.643007278399999  -25.4147605896 0.194596096873 -25.6399402618  -25.341753006000001 0.42564740776999999 -25.646173477200001  -25.738510131799998 0.64210146665599999 -25.65272521975  -28.183925628666668 1.1794652342776668 -25.657552083333332  -27.825508117649999 0.96136775612750003 -25.653206825249999  -27.573380788133335 0.31244566291566667 -25.634058634466669  -27.406893412266669 0.96038931608333333 -25.656047185233334  -29.234544754000002 0.133284196258 -25.6160564423  -29.1919975281 0.33402240276299999 -25.6240577698  -28.861892700199999 0.0262589007616 -25.614334106400001  3 1 0 2  3 4 3 5  3 7 6 1  3 8 4 9  3 1 2 4  3 4 2 3  3 4 11 10  3 4 5 9  3 4 12 13  3 14 6 15  3 0 1 16  3 10 12 4  3 4 8 11  3 16 1 6  3 14 15 17  3 18 14 17  3 6 14 16  3 20 19 21  3 21 19 22  3 23 22 19  3 21 24 22  3 25 26 27  3 27 28 25  3 29 19 30  3 19 20 30  3 20 31 32  3 32 30 20  3 33 35 34  
