ply
format ascii 1.0
comment bbox -27.150442  -22.672998 -3.226782  6.334070 -3.619770  19.155699 
element vertex 90
property double x
property double y
property double z
element face 104
property list uchar int vertex_index
end_header
-23.668058395400003 6.0605828762050002 -3.4699742794050001  -23.4440689087 6.1914367675799999 -3.4866015911099999  -23.613735199000001 6.1675643920900001 -3.5818936824800001  -23.512712478650002 6.0803852081300001 -3.3860110044499998  -23.003807067899999 6.0331931114200001 -3.1694130897499999  -22.840084075899998 6.0817604064899999 -3.1795167922999998  -23.1155109406 5.9643716812100003 -3.1332848072099999  -23.169286727900001 6.0601963996899997 -3.2209899425500002  -24.533613205000002 4.8813018798799996 -2.93478107452  -24.385137558 4.9055914878799998 -2.8762192726100002  -24.452058792100001 4.9470286369299998 -2.9387300014500002  -24.518142700199999 4.7666997909499997 -2.8612077236200002  -23.795625686600001 5.7695636749299997 -3.2360084056899998  -23.786348342899998 5.8256101608300002 -3.2795314788800001  -23.964874267599999 5.75424957275 -3.3238372802699998  -24.169717788700002 5.14132404327 -2.9352016448999998  -23.95101356506667 5.3722871144633331 -3.0065365632399996  -23.8636054993 5.6081066131600004 -3.1389055252100002  -24.2331085205 4.9316945075999996 -2.8223385810899999  -24.430465698199999 4.7069163322399996 -2.79056978226  -23.82984542845 5.2408504486099998 -2.8779855966549999  -23.826836903900002 5.0804672241199995 -2.7791992028533339  -23.907768249499998 4.9951171875 -2.7443902492499999  -24.218200683599999 5.1224455833400002 -2.9447824955000002  -24.049386978099999 5.1268405914299997 -2.86608457565  -24.125598907499999 4.9602355957049999 -2.797624468805  -23.733737945600001 5.9155879020700004 -3.3400328159299999  -23.065912246700002 5.8787055015599998 -3.07256579399  -23.1821613312 5.7491936683700002 -3.0188879966700002  -23.230903625500002 5.9129633903499998 -3.1181342601800002  -23.275850296000002 6.1997456550600001 -3.40479588509  -23.3685131073 6.1203050613399999 -3.3482880592300002  -23.3377475739 5.8641967773400001 -3.1198263168299998  -23.460748672499999 5.76145362854 -3.0933816432999999  -23.3646087646 5.7066984176600002 -3.0341653823899999  -24.5858650208 4.5718331337000002 -2.7951302528399999  -24.617309570300002 4.4887056350699996 -2.77319049835  -24.4723052979 4.5108613967900002 -2.7103652954099999  -24.651315689100002 4.3317441940350001 -2.7248947620399999  -24.676681518599999 4.1118841171299998 -2.6495530605300002  -24.725961685200001 4.1423802375800003 -2.6934173107100001  -24.163163503000003 5.3262953758233333 -3.0778555075333336  -23.634431839000001 5.85160446167 -3.2205719947799998  -24.615409851100001 4.3630819320700001 -2.7182173728899999  -23.0234241486 6.1104707717900002 -3.2364070415500001  -22.838281631499999 6.00452709198 -3.11917972565  -24.074235916100001 4.9614095687899997 -2.7780725955999999  -24.416160583500002 4.5783686637900001 -2.7144284248399999  -24.180938720699999 4.7628498077400003 -2.71398162842  -24.0150928497 5.1688032150299996 -2.88372850418  -23.530666351333338 5.619790871936666 -3.0298564434066666  -23.050357818599998 6.30274009705 -3.4707369804399999  -23.254659016933331 6.3340697288500003 -3.6197696526833334  -24.352849006649997 5.1156179904899997 -3.0109764337550002  -23.261550903300002 6.1985917091399996 -3.3974239826199999  -23.109142303500001 6.1898751258900004 -3.3386623859400002  -22.943109512300001 6.17039203644 -3.2807621955899999  -24.462427139300001 5.0951452255199996 -3.0612161159500002  -23.3976802826 5.9237132072399996 -3.18367362022  -23.470216751100001 5.8844418525700002 -3.1793928146399999  -22.672998428300001 5.9699215889000001 -3.0739278793299998  -22.84743976595 5.8455173969300001 -3.0225541591649998  -23.336017608599999 6.0703344345100003 -3.28695988655  -23.564977645900001 5.9277815818799997 -3.2548954486800001  -23.291550636300002 5.7599053382900003 -3.0464029312149998  -23.947280883800001 4.93664121628 -2.7220091819799999  -24.020843505849999 5.5889611244199999 -3.2171001434350002  -23.6274204254 5.7742433548000003 -3.1572697162600001  -26.734184265100001 -1.9150720834699999 12.2495622635  -26.694147109999999 -1.9313255548499999 12.062986373899999  -26.92117881775 -1.967757046225 12.2417254448  -26.984693527200001 -1.9757883548699999 12.504489898699999  -27.150442123400001 -2.0270240306899998 12.4087104797  -26.281093597400002 -1.86423265934 11.880024909999999  -26.1882705688 -1.84688639641 11.9245214462  -26.079863548299997 -1.86338436604 11.78684711455  -26.644979476900001 -1.9139283895500001 12.0894861221  -26.487337112399999 -1.8935301303900001 11.9737462997  -25.9148082733 -1.84018814564 11.854749679599999  -25.843296050999999 -1.84154427052 11.9201755524  -25.710226059 -1.8370203971900001 11.7474689484  -26.527723312399999 -1.8764369487799999 12.1611595154  -26.118701934800001 -1.8434532880800001 11.961607933  -26.3118085861 -1.851825356485 12.108747959150001  -26.163011550899999 -1.8526479005800001 12.1362743378  -26.3675613403 -1.85985398293 12.164820671099999  -25.959037780799999 -1.8452223539399999 12.031960487399999  -25.81627845765 -3.2267824411400001 19.0872859955  -25.6459159851 -3.2217400074000002 19.155698776200001  -25.7531833649 -3.1926374435399998 18.939716339099999  3 0 1 2  3 3 1 0  3 5 4 6  3 7 6 4  3 10 8 9  3 8 11 9  3 14 12 13  3 15 16 17  3 18 9 19  3 20 22 21  3 23 24 15  3 18 25 24  3 14 13 26  3 27 29 28  3 31 30 1  3 32 33 34  3 35 36 37  3 38 40 39  3 41 23 17  3 13 12 42  3 36 38 43  3 44 4 5  3 6 45 5  3 9 11 19  3 24 25 46  3 47 35 37  3 11 35 47  3 47 19 11  3 48 18 47  3 18 19 47  3 18 48 46  3 46 25 18  3 24 20 49  3 20 24 22  3 34 33 50  3 23 15 17  3 51 52 30  3 41 53 23  3 51 54 55  3 51 30 54  3 31 54 30  3 55 44 56  3 8 53 57  3 10 53 8  3 52 1 30  3 58 59 29  3 59 32 29  3 61 60 45  3 62 63 58  3 31 62 7  3 55 31 7  3 31 55 54  3 4 44 7  3 7 44 55  3 61 45 27  3 45 6 27  3 7 58 29  3 62 58 7  3 32 34 29  3 29 34 64  3 58 63 59  3 46 65 24  3 65 22 24  3 15 24 16  3 24 49 16  3 10 23 53  3 18 24 23  3 9 18 23  3 23 10 9  3 63 26 13  3 13 42 63  3 63 31 3  3 31 63 62  3 14 66 17  3 26 63 3  3 3 0 26  3 17 66 41  3 33 32 67  3 67 32 59  3 42 17 67  3 17 42 12  3 59 42 67  3 42 59 63  3 3 31 1  3 14 17 12  3 29 6 7  3 29 27 6  3 29 64 28  3 70 68 69  3 71 70 72  3 73 74 75  3 69 76 77  3 80 78 79  3 69 68 76  3 81 77 76  3 84 82 83  3 82 74 83  3 81 85 83  3 84 86 82  3 81 73 77  3 83 74 81  3 74 73 81  3 81 76 68  3 87 88 89  
