ply
format ascii 1.0
comment bbox -31.417548  -24.240352 -4.525843  0.380271 -18.108257  -4.338379 
element vertex 37
property double x
property double y
property double z
element face 29
property list uchar int vertex_index
end_header
-24.3239631653 0.17148770391900001 -5.4403548240699999  -24.253211975100001 0.22234029571199998 -5.096134344736666  -24.600973129266666 0.21631159881733333 -5.0896677970866664  -24.627902030950001 0.234399847686 -4.8089673519100007  -24.455346107499999 0.38027098774900003 -4.6241760253899997  -24.240351676949999 0.3332773 -4.8322327136999998  -25.027256011999999 -0.13721859455099999 -4.7380676269500004  -24.7300491333 0.25775751471500002 -4.5989108085600003  -24.895486831700001 0.12488839775299999 -4.5735831260699999  -24.903848648099999 0.086638100445300001 -4.9911041259799998  -25.087436675999999 -0.0531365983188 -5.3874206542999996  -25.0367832184 -0.077463403344200002 -4.5367417335500004  -25.052860259999999 0.0017832999583299999 -4.3383793830900004  -24.906129837000002 0.18842600286 -4.3720893859899999  -30.3957157135 -3.6045060157800002 -18.108257293699999  -30.3348426819 -3.7619076967250002 -17.88389396665  -30.401292800899999 -3.630776047705 -17.982226371750002  -25.0367832184 -0.077463403344200002 -4.5367417335500004  -25.027256011999999 -0.13721859455099999 -4.7380676269500004  -25.157661438000002 -0.36789993445099994 -4.6958122253433334  -31.345348358199999 -0.78022611141200005 -17.970712661699999  -31.417548179649998 -0.32067784667049998 -17.553365707399998  -31.390850067100001 -0.54653447866399996 -17.7347354889  -30.297126769999998 -3.8471412658699999 -17.800069809  -30.244569778399999 -3.9446556568100002 -17.7731571198  -30.352056503299998 -3.7728979587550002 -17.69899749755  -30.271865844699999 -3.9179394245100001 -17.657966613799999  -30.3539352417 -3.7956202030199999 -17.570539474499999  -30.024589538600001 -4.2860574722300004 -16.093200683599999  -29.956594467199999 -4.3710727691700004 -16.058141708400001  -30.043993949849998 -4.283328294755 -16.235608100900002  -29.791706085200001 -4.5258429845166672 -15.750989913933333  -29.901023864733332 -4.3757926623000003 -15.673885663366667  -30.006747245749999 -4.2904632091549999 -15.9511332512  -29.788712501550002 -4.4754073619800003 -15.5037345886  -25.087436675999999 -0.0531365983188 -5.3874206542999996  -25.388273239133337 -0.77749677499133318 -5.1104873021433335  3 0 1 2  3 3 5 4  3 2 3 6  3 1 3 2  3 5 3 1  3 3 7 8  3 7 3 4  3 2 9 10  3 2 6 9  3 3 8 6  3 9 6 10  3 0 2 10  3 11 6 8  3 8 12 11  3 12 8 13  3 14 15 16  3 17 19 18  3 21 20 22  3 24 23 15  3 15 23 25  3 23 26 25  3 25 26 27  3 14 24 15  3 28 30 29  3 33 31 32  3 32 31 34  3 24 26 23  3 18 19 35  3 19 36 35  
