ply
format ascii 1.0
comment bbox 4.123634  5.421334 14.989554  15.777295 -15.107391  -13.963897 
element vertex 26
property double x
property double y
property double z
element face 29
property list uchar int vertex_index
end_header
4.1236336231199999 15.544130802150001 -14.3118839264  4.8713331222500003 15.1933498383 -14.309594154399999  4.3149147033700004 15.5248942375 -14.375477790849999  5.1614336967499996 15.5848026276 -14.9573965073  5.421334028245 15.47263240815 -15.006318569199999  5.3117647171 15.454476356500001 -14.8671302795  5.0504231452949995 15.369225025150001 -14.588691234600001  4.4740333557099996 15.6134109497 -14.5345964432  4.6455872853566662 15.632057507833332 -14.650424639400001  4.6735618114475006 15.478155612950001 -14.500277042374998  5.2171881198900003 15.4189887047 -14.7509651184  4.887026945753334 15.543458938600002 -14.693131128933333  5.0427880287200004 15.566384315500001 -14.8176641464  5.0051999092099999 15.634397506700001 -14.9071202278  4.75106716156 15.719124794000001 -14.8371152878  4.8306498527499997 15.7167949677 -14.9055519104  4.75957870483 15.672422409099999 -14.7785339355  4.9920907020599996 15.224030494699999 -14.405145645099999  4.4717392921399997 15.777295112599999 -14.7419471741  4.4434089660599998 15.710047721900001 -14.6254482269  4.3738112449599997 15.5979557037 -14.4681015015  4.33044290543 15.748805046099999 -14.618273735000001  4.1878757476799997 15.709867954250001 -14.500749111200001  4.4747080802900001 15.11759471895 -14.096678257000001  4.3801785707500001 14.989553928375001 -13.96389722825  5.2669672965999998 15.596966743499999 -15.107391357399999  3 2 0 1  3 3 5 4  3 7 6 8  3 6 7 9  3 6 10 11  3 10 12 11  3 14 13 15  3 8 12 16  3 12 8 11  3 12 14 16  3 1 17 9  3 6 11 8  3 14 18 19  3 8 16 19  3 19 16 14  3 19 7 8  3 1 20 2  3 19 21 22  3 1 7 20  3 9 7 1  3 19 22 20  3 20 7 19  3 20 0 2  3 0 20 22  3 23 0 24  3 3 4 25  3 5 3 12  3 12 13 14  3 12 3 13  
