ply
format ascii 1.0
comment bbox 0.002774  3.286614 0.008878  17.827246 -25.897566  -25.473866 
element vertex 286
property double x
property double y
property double z
element face 312
property list uchar int vertex_index
end_header
1.20074135065 1.282344162465 -25.525939941399997  1.5132771730433332 1.3118778864566665 -25.52618726093333  1.34650462866 1.11394762993 -25.520379066499999  1.34447026253 1.42806637287 -25.533058166499998  1.5268509388 8.0945472717300007 -25.806974410999999  1.5281051397300001 7.9241223335299997 -25.8021526337  1.3204257090866667 7.9038556416866674 -25.800612767533334  2.0972298383720003 1.7328743934620001 -25.546614074739999  2.2813818454699999 1.6717396974600001 -25.5432338715  2.3532149791699997 1.8238595128049999 -25.549201965350001  1.2583791017499999 3.5014760494199999 -25.619131088300001  1.4285599390633335 3.309560696283333 -25.609771728500004  1.5502105156566668 3.4794903596233335 -25.615401585899999  1.9098584651949999 5.3940734863250004 -25.699699401849998  1.7616429925000001 5.5718696117400004 -25.705850601149997  1.6149010658249998 5.4199869632700004 -25.700241088849999  1.0246233344055 5.308028936385 -25.693872451800001  0.80201667547199995 5.3290915489200001 -25.6917800903  1.0691554347673333 5.1474294662466669 -25.687281926466667  1.38834643364 6.2651681899999998 -25.7339553833  1.2392381429699999 6.4426307678199999 -25.7439460754  1.1655996441799998 6.2848768234249999 -25.734988212600001  2.5691591898600001 1.3356872002266666 -25.530106862400004  2.2098838090899999 1.36277914047 -25.530988693200001  2.3542586565049999 1.193762362 -25.526956558249999  2.3538161516200002 1.5079675316799999 -25.538547515899999  2.784882068635 1.47524780035 -25.537510871850003  2.9640702009200002 1.5742054283625 -25.544391155225  2.9293806552849997 1.77721238136 -25.5519704819  2.6773064931233335 1.6607189178433333 -25.544748306266666  2.6411031484574998 1.0944480001924999 -25.522560596449999  2.20814883709 2.6253788471249999 -25.584129333500002  2.352682948115 2.7735997438449997 -25.589310646050002  2.062668204305 2.7966746091849997 -25.590075492850001  2.20778691769 2.9434986114499999 -25.5980167389  0.93817180395099997 6.8050222396900004 -25.755241393999999  0.64108228683500001 6.66536188126 -25.7491188049  0.78942221403099999 6.81669855118 -25.758443832400001  0.79109001159699999 6.6493320465099996 -25.752286910999999  1.9920741319699999 2.1661982536300002 -25.565504074100001  2.0645235180850001 2.0032533407200002 -25.557461738599997  2.2087950706499999 2.1498486995700001 -25.564099311850001  2.28816640377 2.0356929302199998 -25.559967994700003  0.90909409522999995 1.46385073662 -25.52885150905  0.91107210516949999 1.304712712765 -25.525462150599999  0.98450487852099999 1.1431161165199999 -25.517269134500001  1.12693297863 1.44598913193 -25.530879974400001  2.1360604763 2.31447124481 -25.569711685200001  2.3530359268150001 2.29716837406 -25.569741249099998  2.497557997705 2.1273674964899998 -25.563434600850002  1.994220733645 1.3005109429349999 -25.528572082499998  1.8248880803575001 1.4452367424950001 -25.532976150499998  2.0658382177350001 1.529814302925 -25.53926086425  1.77831375599 1.238572120665 -25.525404930100002  0.93361577391524997 1.6299341619024998 -25.536450862899997  1.1256699562100001 1.6037442684200001 -25.5369663239  1.0520233213924999 1.7667764425299999 -25.54417324065  1.19359189272 2.23094058037 -25.56288146975  1.2672638893099999 2.0669920444500001 -25.555730819699999  1.4075906276700001 2.2753778298699996 -25.565631866433336  2.8820478916166663 1.2959115505199998 -25.532596588133334  1.9574535290400001 2.4917470614133332 -25.576510111466671  1.8377438783633335 4.0405553181966667 -25.639436721799996  1.766816556455 4.2657914161699999 -25.652353286749999  1.5744296709699999 4.0865659713766673 -25.641435623166668  1.62132114172 3.9558444023149999 -25.637039184599999  2.3522576093699996 3.7329316139199999 -25.630519866949999  2.5705819129899998 3.7150182724 -25.629802703900001  2.39906907082 3.8902442455299999 -25.635927200299999  1.7016265392300001 2.1915271282200002 -25.561470031700001  1.6283665299425001 2.4340455532050003 -25.573501110049996  1.4000970125199999 4.21715259552 -25.64738082885  1.3989522457100001 4.45961427689 -25.659030914300001  1.6121430993099999 4.3210699558250001 -25.65272045135  0.755698531866 1.3016070127499999 -25.52449417115  0.54778301715900002 1.33414614201 -25.522382736200001  0.76724344491950003 1.1596224307999998 -25.5172109604  1.6516952514633332 4.7996778488166667 -25.673808415733333  1.6182928681350002 4.604376077655 -25.66397094725  1.3973135948199999 4.7843036651600004 -25.674030303999999  1.6191056370750001 4.4416422843949999 -25.65748405455  2.3818918069200001 4.0707376798033339 -25.642547607400001  2.0599223375300002 4.0798029899600001 -25.644359588599997  2.1326961517299998 4.2354192733799998 -25.650865554799999  1.9231142401649999 1.0703519582749998 -25.520150184599999  1.9234549403200001 0.91456389427149998 -25.512853622449999  1.6683070659674999 1.06028345227225 -25.516392231000001  2.6467916965500002 2.4555447896333331 -25.577099482233336  2.4646639823900003 2.4334971904750002 -25.575201988250001  2.497430562975 2.6033073663700002 -25.5819950104  2.709418892865 2.7442699670800001 -25.589164733850001  2.4975894689600002 2.9210748672499998 -25.595954895049999  2.5703036785100002 2.7547163963300001 -25.5913887024  1.3663491407999999 2.5196499029799999 -25.576374689733331  1.2694313526200001 1.7505911588700001 -25.5429115295  1.3431658744799999 1.5864329934099999 -25.537867546099999  1.4125502109500001 2.0552482605 -25.556270599400001  2.2051360607150001 4.7157080173449994 -25.671323776249999  1.9044187545780003 4.6670740127560002 -25.667619323719997  2.0580863952600001 4.8913702964799999 -25.6780834198  1.9187271594999999 2.3319572210350001 -25.569416999799998  1.750612914565 8.2427105903599998 -25.812631607050001  1.5264214277299999 8.2619791030900007 -25.816345214799998  1.84496863683 2.6560409069066666 -25.581790288299999  0.33453440666200002 7.3622055053700004 -25.7784557343  0.53139567375200003 7.4579515457125005 -25.781419754024999  0.48595589399299999 7.1820058822600004 -25.768751144399999  1.98609781265 4.24885129929 -25.649438858  1.3534163633999998 3.8702504634866663 -25.633520126333334  1.6220271587349999 3.794590473175 -25.630077362050002  2.6406416893000002 0.3938663452865 -25.494700431849999  2.7832151651400001 0.228258296847 -25.488904953000002  2.4975970387424997 0.17278465256082501 -25.484119415275003  0.2290876433255 9.7611556053150004 -25.868451118499998  0.30324089527100001 9.9261188507100009 -25.875558853099999  0.150705397129 9.9420804977399992 -25.875120162999998  1.0861117839800001 6.9583292007399997 -25.7618427277  1.162259995935 6.7831718921649999 -25.756692886350002  1.2341688474000001 7.0184858640033339 -25.765863418566667  1.83947014809 4.4219884872400002 -25.6585865021  2.0590152740500001 4.4042289257050005 -25.656783103949998  1.0507686734215 1.924903571605 -25.550662040700001  1.2366200685500002 1.9124541282700001 -25.551345825200002  0.63964581489600003 6.8315505981399998 -25.757108688399999  0.71234744787199999 6.9934246540050005 -25.761692047099999  0.87495675683000007 5.4860279560049996 -25.700010299699997  0.72550365328749999 5.6624228954350002 -25.709272384649999  0.97965088486550012 5.6312148570999998 -25.706110954300001  1.8413910865800001 3.7762703895600001 -25.629878997799999  2.0599862337100001 3.9194748401649999 -25.635866165149999  0.87237593531649993 5.8147830963149998 -25.715158462550001  1.446570038795 6.4103181362150004 -25.740720748900003  1.010115742684 7.1325721740749994 -25.768884658799998  0.88664320111250006 7.0295021533950006 -25.765177726749997  0.71097549796100001 7.1601526737250003 -25.769727706899999  1.0610138177849999 6.6367783546450001 -25.749007225050001  1.2374459505099999 6.61141872406 -25.7472248077  1.4453267653799999 7.099586804706667 -25.769207636499999  1.3529594739266668 7.3023475011166665 -25.776770273866664  0.94015038013499996 6.6361370086699996 -25.751386642500002  1.38667654991 6.5962285995499998 -25.749256133999999  1.46007078886 6.7559883594499999 -25.755889892599999  0.83337914943699998 1.8629333376849999 -25.547259330750002  0.689759910107 1.63849914074 -25.535055160500001  1.0085406601405 7.3011395931249998 -25.7745027542  1.6268782019649999 2.83083438873 -25.5920934677  1.8679575026049999 2.9104245305075001 -25.593807220450003  2.2049252986900001 4.5549299716949996 -25.661873817450001  2.4247980117800001 4.5348854064899999 -25.663482666  2.3516328334800001 4.2179887294749996 -25.648782730100002  0.47006849447899995 0.69466805458066672 -25.497187932333333  0.69980049133300004 0.69417929649400001 -25.499576568599998  0.48395463824250001 0.555583000183 -25.490476608249999  1.3846331834800001 6.9298477172900004 -25.7626247406  0.488243192434 7.0126886367800001 -25.764207840000001  0.70908412337299997 7.328993320465 -25.775213241599999  1.60618329048 7.2443590164199998 -25.774812698349997  1.6683575510949999 7.7362952232350004 -25.793230056799999  1.4540957212450001 7.7628939151800003 -25.795012474049997  2.0566303133999999 5.5457317829150004 -25.705423355100002  2.5092630386360004 3.3161569595339997 -25.61327819824  2.4978975057600001 3.0794938802700003 -25.604388237000002  2.2069305181500001 3.2645593881599999 -25.608979225150001  1.0464918315395 2.40246832371 -25.567658424400001  1.26526224613 2.3839542865799999 -25.569524765000001  1.1180505752600001 2.55614328384 -25.5737457275  2.5705170631400001 3.8765060901599999 -25.635540008500001  2.78732514381 3.0575346946749997 -25.6013784409  2.7154154777500001 3.22201156616 -25.6098957062  1.5129954417566669 5.6654456456500002 -25.711074829133334  2.0576978325850002 5.2166502475750001 -25.693725585899998  2.2757483720750002 5.3694636821750006 -25.69871234895  2.13076710701 5.3745985031099996 -25.699398040799998  1.54188489914 5.8375509579966662 -25.718262354533334  1.7607229948000001 5.8998358249700003 -25.7215261459  1.8374928235999999 4.9918165206899996 -25.682237625150002  2.0281422138250003 5.0480415821099998 -25.683080673199999  0.21981260180500001 10.457783699050001 -25.892332076999999  0.14603550732100001 10.290067672699999 -25.887598037699998  0.0108754998073 10.411229133599999 -25.891130447399998  2.1341633399333331 3.1116420427933336 -25.600573221833333  1.6900698542599999 5.0055742263800003 -25.68096923825  1.3949316342666667 5.1126205126466671 -25.685304005933336  1.4698867201849999 4.9416871070850004 -25.679924011250002  1.61567509174 5.2559552192699996 -25.69346904755  2.1382064819300002 1.2116465568499999 -25.524442672700001  1.2491312027000001 4.7999095916699996 -25.6697673798  1.111539363865 4.8299314975750001 -25.672608375549999  1.1745557189 4.9685485363000002 -25.678346633899999  1.5528878768266665 2.9977015654266665 -25.596747716266666  1.7706931829500001 3.1401588916750001 -25.60278511045  2.7865731716150002 2.579997181895 -25.5819854736  2.4980292320249999 4.3659396171600005 -25.657602310199998  1.1711781620999999 5.4600973129300003 -25.699321746800003  1.6318598389650001 1.7213048934900002 -25.544870376600002  1.6326579451550001 1.5636027455299999 -25.538691520699999  1.46421468258 1.7106776833550001 -25.5434246063  1.3935852050799999 5.3583278655999997 -25.695824623100002  1.3290590445199999 5.5722146034233333 -25.705467224133333  2.2046518325799997 5.0416309833500002 -25.684834480299997  2.10704723994 5.6937303543099995 -25.71185302733333  2.05595803261 5.8744065761549997 -25.719545364350001  1.8366627693199999 5.2369890213000003 -25.6925373077  2.5019870996475002 0.93233689665849995 -25.515802383425001  1.0250603258622502 0.87448136508450003 -25.506322383875002  0.84275019168900001 0.84016269445400005 -25.505241393999999  0.91615709662450007 0.67913886904699994 -25.49762916565  2.3004841804550002 4.8804063797000001 -25.6777229309  0.97511291503899999 2.24882173538 -25.5618743896  1.914308905605 3.6114122867549998 -25.619582176199998  2.4244184494000001 4.8611531257599996 -25.675182342500001  1.25049984455 4.63573884964 -25.664711634300001  2.64174938202 1.9578366279599999 -25.557441711399999  2.27920055389 3.90021109581 -25.6370449066  0.021061500869107002 9.7792000770550001 -25.867676734900002  0.155388697982 9.5952854156500003 -25.8628368378  2.7150948047600001 2.90252327919 -25.597299575800001  2.6434245109600001 4.0316421985649997 -25.6419916153  2.8549447059599999 0.37724441289900001 -25.496145248400001  2.1670676469799997 3.5751235485050001 -25.6204776764  2.3526073694249998 3.571266412735 -25.625349044749999  2.2070240974450002 3.4235913753549996 -25.617596626249998  0.76896849274650003 1.0020691156400001 -25.51191711425  1.1293365955400001 1.1316596269600001 -25.518127441400001  2.6415196657199997 1.80064731836 -25.550360679599997  2.2108018398300002 1.0482116937649999 -25.520740508999999  2.6420457363100001 2.2736519575100003 -25.57058715825  1.1306122541400001 0.97467780113199998 -25.5121746063  3.1445219516799998 1.76141738892 -25.550159454300001  1.2763319015500001 0.806685209274 -25.507097244299999  1.3472626805300001 0.95808240771300002 -25.512667655950001  1.27678346634 0.65240192413300002 -25.4974555969  2.9276111125950002 1.1513087153449999 -25.52463054655  3.2860701084100001 1.2794630527499999 -25.5322132111  3.2866144975033333 1.4362810452766668 -25.537872950233332  2.9008416334800002 0.84927684068666665 -25.513732910133331  2.92744266987 0.99446654319549999 -25.519664764399998  2.2038288116466664 0.28829223910966667 -25.488259633400002  2.3026480674750003 0.070488899946399994 -25.480151176450001  2.1406276225999998 0.121210798621 -25.481523513799999  1.1558839877433333 3.3535145918533336 -25.609660466499999  1.260706841945 3.1012910604449999 -25.600599288950001  0.62761863072700008 0.89487047990166657 -25.506148020400001  1.0632483959195 0.3560468405485 -25.486204147350001  1.1261947155000001 0.18838125467299999 -25.481262207050001  0.99276167154299999 0.205258503556 -25.4810142517  1.70797920227 0.69891455769550004 -25.499392509450001  1.5304310798659997 0.83939810991300001 -25.50712203978  1.4211858511 0.640591919422 -25.499420166  1.92431247234 0.75735935568800006 -25.508577346800003  2.2140274842566665 0.88555798927899998 -25.511784871433335  0.77318015694599995 0.53378194570549997 -25.491253852850001  0.989668428898 0.51778608560600003 -25.491237640400001  2.9297548532500004 1.934660613535 -25.558328628550001  0.0027743999380600002 9.6118640899700001 -25.8613529205  1.6974289417299999 3.3054320812200002 -25.610982894900001  1.94144704938 3.2723733782775 -25.608777523050001  1.3440254330650001 3.6700692176800001 -25.624880790700001  2.7862112522100002 2.1034621000250002 -25.565250396749999  2.8578886985800001 2.25837492943 -25.567285537699998  1.5202818711599999 2.6451266606633337 -25.580848058033336  2.0605018734899998 3.7577354908 -25.630067825299999  2.6429415941250003 3.5492260456100002 -25.621701240500002  1.69601774216 3.6269009113299999 -25.624099731400001  0.1257601492108 6.0475986003899997 -25.7219877243  0.42435514926950002 6.02015089989 -25.722601890549999  0.1276772506537 5.88245558739 -25.714235305799999  1.99745774269 0.132055804133 -25.4807815552  1.9902274608599999 0.0109246997163 -25.475891113300001  0.075333600242800003 8.2496331532766671 -25.809168497733335  0.17537160217799999 8.0536603927599995 -25.8039913177  0.0242787990719 8.0685195922900004 -25.803642272899999  0.22247180342699999 4.2350144386300004 -25.646085739099998  0.14606229960904998 4.4053003787999998 -25.650984764100002  0.074408099055300006 4.2481031417799997 -25.645286560100001  0.140801995993 10.6413726807 -25.897565841700001  0.29376459121699999 10.625621795700001 -25.897232055700002  0.30524289607999999 17.506147384599998 -25.823152542100001  0.010570500046000001 17.827245712300002 -25.815692901599999  0.0064627998508499998 17.6391925812 -25.820653915400001  1.56755328178 0.163538306952 -25.480581283599999  1.56828606129 0.0088782003149400004 -25.473865508999999  1.7040155529950001 0.093528999015450004 -25.478225708  0.067837297916400002 4.73798561096 -25.664878845200001  0.21618820726900001 4.7249884605399997 -25.665130615199999  0.14406495541359998 4.5681719779950001 -25.658108711250001  3 1 2 0  3 0 3 1  3 4 5 6  3 9 8 7  3 10 12 11  3 13 15 14  3 16 18 17  3 19 21 20  3 22 24 23  3 25 22 23  3 26 28 27  3 28 26 29  3 22 30 24  3 31 33 32  3 32 33 34  3 36 37 35  3 35 38 36  3 39 41 40  3 40 41 42  3 43 45 44  3 45 43 46  3 41 47 48  3 48 49 42  3 51 52 50  3 50 53 51  3 56 55 54  3 59 58 57  3 22 26 60  3 31 47 61  3 62 64 63  3 64 62 65  3 68 67 66  3 59 70 69  3 72 73 71  3 76 75 74  3 77 78 79  3 80 73 72  3 81 82 83  3 85 86 84  3 88 89 87  3 90 92 91  3 93 70 59  3 55 56 94  3 94 95 55  3 58 59 96  3 97 98 99  3 70 100 69  3 101 4 102  3 8 52 7  3 103 61 70  3 104 105 106  3 107 82 62  3 109 108 65  3 43 44 76  3 110 111 112  3 114 113 115  3 118 117 116  3 107 119 120  3 122 121 58  3 123 124 37  3 94 121 122  3 125 126 127  3 129 128 62  3 127 126 130  3 36 123 37  3 19 20 131  3 132 133 134  3 135 117 136  3 135 35 117  3 137 118 138  3 35 139 38  3 136 141 140  3 116 132 118  3 132 116 133  3 142 54 143  3 144 132 134  3 145 146 103  3 103 146 33  3 149 147 148  3 46 55 95  3 3 46 95  3 35 116 117  3 152 150 151  3 117 118 153  3 35 133 116  3 134 124 106  3 106 124 154  3 134 155 144  3 132 144 118  3 118 144 138  3 37 124 35  3 35 124 133  3 134 133 124  3 155 134 106  3 106 105 155  3 137 153 118  3 137 138 156  3 119 98 120  3 158 5 157  3 5 158 6  3 120 98 147  3 13 14 159  3 160 161 162  3 72 78 80  3 164 163 165  3 166 67 68  3 168 167 161  3 56 142 121  3 17 125 16  3 15 169 14  3 170 172 171  3 14 173 174  3 99 175 176  3 177 178 179  3 161 180 162  3 183 182 181  3 181 182 184  3 185 84 50  3 188 186 187  3 78 119 80  3 190 146 189  3 191 89 90  3 192 149 148  3 78 98 119  3 172 170 13  3 193 16 125  3 125 127 193  3 195 196 194  3 197 193 198  3 199 170 171  3 13 159 172  3 200 159 14  3 14 174 201  3 201 200 14  3 198 15 197  3 15 184 197  3 15 198 169  3 173 14 169  3 202 176 175  3 176 202 170  3 184 182 197  3 30 203 24  3 79 183 77  3 13 202 15  3 202 184 15  3 170 202 13  3 206 205 204  3 202 181 184  3 181 202 175  3 199 207 99  3 99 207 97  3 208 163 57  3 92 90 89  3 147 98 97  3 77 98 78  3 199 99 176  3 170 199 176  3 209 128 129  3 97 207 210  3 77 175 98  3 98 175 99  3 175 77 181  3 181 77 183  3 186 79 78  3 78 211 186  3 183 79 186  3 212 9 49  3 119 73 80  3 73 119 63  3 213 129 81  3 81 129 82  3 113 214 115  3 113 215 214  3 83 107 120  3 107 63 119  3 161 167 91  3 91 167 216  3 82 107 83  3 63 107 62  3 166 81 217  3 218 111 110  3 81 68 213  3 220 160 219  3 219 160 221  3 204 205 222  3 3 0 46  3 45 46 223  3 223 46 0  3 224 28 29  3 185 24 225  3 226 88 87  3 29 9 224  3 8 9 29  3 52 23 50  3 53 86 1  3 1 86 2  3 34 180 91  3 91 180 161  3 95 195 1  3 1 3 95  3 50 84 53  3 59 57 164  3 27 60 26  3 43 143 54  3 95 196 195  3 227 45 223  3 54 142 56  3 29 26 22  3 29 22 25  3 25 8 29  3 27 28 228  3 32 89 31  3 231 229 230  3 234 233 232  3 234 60 27  3 60 234 232  3 30 236 235  3 61 103 33  3 45 222 76  3 44 45 76  3 84 86 53  3 32 34 91  3 208 57 58  3 237 238 239  3 240 11 241  3 150 242 151  3 2 230 223  3 223 230 227  3 0 2 223  3 76 74 43  3 243 244 245  3 246 248 247  3 222 45 204  3 204 45 227  3 247 248 231  3 247 231 230  3 85 249 246  3 47 100 61  3 230 229 227  3 185 250 85  3 85 84 185  3 250 249 85  3 250 185 225  3 235 203 30  3 151 206 251  3 222 205 242  3 242 205 151  3 251 206 252  3 86 247 230  3 230 2 86  3 227 229 204  3 205 206 151  3 229 231 204  3 41 48 42  3 224 9 212  3 28 253 228  3 224 212 253  3 253 28 224  3 121 94 56  3 94 196 95  3 73 63 64  3 214 215 254  3 163 164 57  3 255 256 190  3 257 12 10  3 49 9 42  3 253 212 258  3 39 47 41  3 259 253 258  3 164 93 59  3 260 70 93  3 100 70 61  3 61 33 31  3 216 90 91  3 31 89 88  3 160 162 221  3 103 70 260  3 145 103 260  3 145 260 189  3 164 165 93  3 191 87 89  3 91 89 32  3 89 91 92  3 220 66 67  3 240 10 11  3 145 189 146  3 213 261 129  3 128 209 109  3 166 68 81  3 160 220 262  3 220 67 262  3 161 160 168  3 263 109 209  3 219 66 220  3 149 81 83  3 82 129 62  3 209 129 261  3 261 213 219  3 219 213 66  3 68 66 213  3 73 64 71  3 65 62 109  3 109 62 128  3 108 64 65  3 264 265 266  3 267 239 268  3 269 270 271  3 272 274 273  3 177 275 276  3 277 279 278  3 280 282 281  3 283 284 285  
