ply
format ascii 1.0
comment bbox -25.615852  -24.871988 -10.183870  -9.097948 25.001034  25.923218 
element vertex 21
property double x
property double y
property double z
element face 19
property list uchar int vertex_index
end_header
-25.2201118469 -9.5927286148099995 25.528808593800001  -25.319423675500001 -9.6366958618199998 25.5878429413  -25.245737075800001 -9.6930227279699999 25.450397491499999  -25.361171722400002 -9.8418254852300002 25.412899017299999  -25.413143158 -9.6843032836899994 25.623403549199999  -25.2967567444 -9.5369291305499999 25.6608886719  -25.211309433 -9.8064432144199998 25.252038955700002  -25.1363334656 -9.5265808105499996 25.492649078399999  -25.104511260999999 -9.6339941024800009 25.295471191400001  -25.0618591309 -9.14878082275 25.703216552699999  -25.067325592 -9.4187650680499999 25.5083045959  -25.294368743900002 -10.0619544983 25.019212722799999  -25.3195304871 -9.9729175567600006 25.210189819299998  -25.4114131927 -10.125848770099999 25.122655868500001  -25.438299179099999 -10.1104507446 25.176076889000001  -25.615852356000001 -9.5860185623199996 25.8210334778  -25.537235259999999 -9.8101673126200009 25.591775894200001  -25.556982040400001 -9.3837823867800001 25.923217773400001  -24.9047813416 -9.1818428039600004 25.465408325199999  -24.8719882965 -9.0979480743399996 25.4798431396  -25.404592514000001 -10.1838703156 25.001033783  3 0 1 2  3 2 1 3  3 3 1 4  3 1 0 5  3 6 8 7  3 9 5 10  3 7 0 2  3 11 12 13  3 12 14 13  3 5 7 10  3 7 5 0  3 4 15 16  3 5 4 1  3 15 4 5  3 5 17 15  3 18 9 10  3 9 18 19  3 6 12 11  3 20 11 13  
