ply
format ascii 1.0
comment bbox -0.011972  2.140628 -0.541902  0.121211 -25.481524  -25.443880 
element vertex 21
property double x
property double y
property double z
element face 17
property list uchar int vertex_index
end_header
0.076217100024199999 0.049440298229500003 -25.4693756104  0.20274650305500003 -0.046867448836600004 -25.466750144949998  0.27240899205199998 0.104786500335 -25.470199585  0.134347498417 -0.35079619288399999 -25.4526405334  -0.0101760001853 -0.33989891409900003 -25.451444625899999  -0.0119719002396 -0.185949400067 -25.459543228099999  0.76945493618633332 -0.40685979525266669 -25.453766504933331  0.64027392864200006 -0.5419017970565001 -25.448184013400002  0.49471473693799994 -0.37707215547549999 -25.453894615199999  0.27679648995400002 -0.206890001893 -25.460062026999999  0.27990138530699998 -0.51422697305700005 -25.4438800812  0.27831509709399999 -0.360596001148 -25.4517974854  2.069445788865 -0.028086699545350001 -25.475044250499998  1.9981161355999999 -0.176335901022 -25.4669799805  1.9902274608599999 0.0109246997163 -25.475891113300001  0.42063760757399998 -0.21641619503500001 -25.4585895538  0.63690239191050002 -0.2326354533435 -25.460005760200001  0.49122379720200005 -0.067489348351950001 -25.466442108149998  0.70574140548700004 0.072070702910400006 -25.4726448059  0.47627380490299998 0.036806900054200002 -25.470479965199999  2.1406276225999998 0.121210798621 -25.481523513799999  3 0 2 1  3 4 5 3  3 0 1 5  3 8 6 7  3 1 9 5  3 10 3 11  3 11 3 9  3 14 12 13  3 9 1 2  3 15 9 2  3 6 8 16  3 5 9 3  3 17 15 2  3 18 16 17  3 18 17 19  3 12 14 20  3 17 2 19  
