ply
format ascii 1.0
comment bbox 25.012722  34.513950 -4.955447  3.820251 -24.971886  -6.268798 
element vertex 509
property double x
property double y
property double z
element face 550
property list uchar int vertex_index
end_header
28.459897041300003 -0.73533049225799996 -10.217866420749999  28.604002634699999 -0.99597964684000007 -10.478534380566666  28.656146049500002 -0.88795614242550003 -10.2045521736  26.9118375778 -0.075422350317300005 -10.9852581024  26.9723714193 -0.24529990057133336 -11.2168219884  27.161910374933331 -0.22302923599900001 -10.976419130933332  27.622033437099997 -0.22643783688533334 -10.3123435974  27.858903884900002 -0.30340644717249998 -10.1033391953  27.900984764100002 -0.36958689987650001 -10.2648115158  30.971788406400002 -2.0601472854599998 -8.7382440566999993  30.514133453349999 -1.8243344426150001 -9.0699419975249995  30.743538538599996 -2.0451778570800001 -9.0995028813666661  27.097831726100001 -0.0240404997021 -10.589704513499999  27.279849370333334 -0.1038675357899 -10.532295544933334  27.175323486333337 -0.11789873490716667 -10.733683268233333  31.5555095673 -2.27832484245 -8.0054025650000007  31.985047340400001 -2.5988968610749996 -7.7175848483999996  31.696596145600001 -2.4282631874099998 -8.0483741760300003  27.104768753049999 -0.14744924753899999 -8.6059236526500005  26.991817474400001 -0.098880201578099999 -8.7420120239300001  27.027952830000004 -0.088990134497466664 -8.8806187311800002  27.450622558599999 -0.093676097691099997 -10.1114940643  27.390461921700002 -0.059710249304799998 -9.9875826835800012  27.116809844999999 0.050884298980199999 -10.2035732269  27.1421833038 -0.0029362998902800002 -10.435865402199999  27.442041397099999 -0.16496690362700001 -10.447459697700001  27.329536437949997 -0.076656950637799995 -10.340991497049998  27.62251758575 -0.275845706463 -10.497084617600001  26.839971542400001 -0.40112319588700002 -11.539591789199999  26.948134422350002 -0.36221219599249999 -11.395795345300002  27.1423521042 -0.49805729091149997 -11.393824577349999  25.8121738434 0.91236597299599997 -24.9718856812  26.373285293599999 -0.123016700149 -24.709581375100001  26.126985549899999 0.55968302488300004 -24.6097106934  27.471569061300002 -0.24645285308350001 -10.62649393085  26.782791137699999 -0.28159600496300002 -11.447142600999999  26.641288121566671 -0.095781131337099992 -11.311716715499999  27.509376525899999 -0.14912609756 -10.2503709793  27.636777877824997 -0.18358734622599998 -10.092201471340001  27.2279338837 -0.690515220165 -11.523853301999999  27.473617553700002 -0.66736906766850002 -11.285747051249999  27.5592193604 -0.87095171213199996 -11.4085474014  27.33646202085 -0.64658969640699993 -11.383343696600001  26.235321044900001 -0.237407103181 -11.810480117799999  26.185406366999999 -0.050052399436539996 -11.620810190866669  26.34345149995 -0.1910509467125 -11.671933651  27.51317278543333 -0.11784930030496667 -9.6890697479266663  27.874370575 -0.26283070445099999 -9.4302949905400002  27.335515976 -0.038595698773899997 -9.85751819611  26.953570048 -0.66935149828599994 -11.704997698466665  26.896924972499999 -0.52887338399899997 -11.6265249252  27.0338077545 -0.54737627506300002 -11.5306243896  26.069895744299998 -0.170371551067 -11.8525481224  25.955127716050001 0.055395498522645005 -11.6589779854  27.513626098650001 -0.1487208008765 -9.3495497703550008  27.711297035249999 -0.21151804924000001 -9.3977365493750007  28.881466547666665 -1.0918431679403333 -10.2442232768  28.246042887366666 -0.56565620501833325 -10.183752059933333  28.179250717150001 -0.46346960961850003 -10.031696796399999  28.413473129250001 -0.62632864713699998 -10.037289142600001  30.371866226199998 -1.7631400823600001 -9.1979722976699989  30.6008892059 -1.98343634605 -9.2277803421000009  29.015575408949999 -0.97665593028100006 -9.8066258430450013  28.556112289433333 -0.70166029532766672 -9.9610150655199998  28.790145874 -0.77471339702599995 -9.6705884933499995  28.9969768524 -1.3252631425900001 -10.436018943800001  28.523296356199999 -1.0814926624300001 -10.6794176102  27.29046201705 -0.41674902290100002 -11.149917364125001  31.059217453000002 -2.2309437990199998 -8.8888001442000011  28.446792602549998 -0.57822009921049999 -9.8071928024300004  28.604792912799997 -0.66425973176966668 -9.7254912058533325  30.9142456055 -1.96229815483 -8.6264429092399997  30.46762275695 -1.7046563625350002 -8.8600444793699999  30.730987548800002 -1.8257653117150001 -8.6344609260600009  30.3516101837 -2.21692323685 -9.8556165695200004  30.210430145299998 -2.1708974838300001 -9.9718503952000006  30.151165008500001 -2.0189516544299999 -9.8989248275800001  31.364705403666665 -2.1833670139300003 -8.2425270080566673  31.60862032573333 -2.4558662573499999 -8.2971935272233335  31.2886972427 -2.2446665763849998 -8.5273833274850013  28.40413951875 -0.51825526356699991 -9.6428871154800007  28.173621495566664 -0.42583803335833331 -9.8460582097366665  28.0230998993 -0.7841351628305 -10.87167310715  28.189580917400001 -0.88153207302100001 -10.8087568283  28.10328769685 -0.70360538363449998 -10.667941570250001  25.033206939700001 0.111661702394 -21.390594482400001  25.186037063600001 -0.070784896612199999 -21.3226985931  25.198181152299998 -0.053597901016499999 -21.3197193146  31.534958839399998 -2.2020851969724999 -7.7295260429400008  31.703025817866671 -2.3340153694166665 -7.680792808533333  31.428928375249999 -2.1490426063549997 -7.9273691177350001  31.0865011215 -2.0709561109550001 -8.5545701980599986  26.2077407837 0.030372900888300001 -8.3682374954200007  26.4335231781 -0.00129459996242 -8.3865089416499998  26.323226928699999 0.03745940048245 -8.4704594612150004  25.1522302628 -0.069797750562449995 -12.37503957745  25.345475196850003 -0.20327984541650002 -12.3747138977  25.163961410500001 0.052415698766699999 -12.243059158299999  25.425987243649999 -0.07654369994995 -12.204048633599999  28.748380660999999 -1.3219647407549999 -10.694188118  29.0549545288 -1.46009802818 -10.519535064699999  26.449309825900002 -0.13804734870800001 -8.0308166742325007  26.022048950199999 -0.032959401607500001 -8.1319169998199996  26.118173599199999 0.0029132999479799999 -8.2465438842799994  27.782480875633336 -0.34854592879599999 -10.426249821966666  27.611757914233333 -0.37927569945633333 -10.734563827499999  26.456694925147154 0.60584269453562922 -23.379214082095434  26.625962273154769 -0.118297912984587 -24.21217710922992  26.163310050949999 1.1787917017949998 -23.497664451599999  25.9615879059 -0.22280530631500001 -11.9869146347  28.137946128800003 -1.0497733056525 -11.039969921099999  28.356311798100002 -0.97827664017500005 -10.7463068962  28.275836944550001 -1.08335697651 -10.93337965015  27.380568504300001 -0.2590378448365 -10.7829537392  26.883006095900001 0.022050150670100001 -9.234375  26.788135528600002 -0.0412719994783 -8.7016334533700004  29.468119621299998 -1.3282469511000001 -9.8316044807449998  29.357185999566667 -1.3377838929466668 -9.9981104532766665  29.554693222000001 -1.4888279438000001 -9.9863729476900005  28.908538818349999 -0.80295678973200002 -9.4101619720449996  27.353265762300001 -0.84537217021 -11.551075458550001  27.98798751835 -0.49919749796349999 -10.457359314000001  28.2411632538 -0.74042636156100006 -10.55871534345  28.125832557700001 -0.54153749346749991 -10.34398412705  28.3215837479 -0.68671217560800002 -10.33571481705  27.908060073850002 -0.55523973703399998 -10.6784095764  27.85679245 -0.69374412298200006 -10.9297914505  25.190364837600001 0.2270296067 -21.374534606899999  25.4508686066 0.19375079870199999 -21.3054580688  27.683003107699999 -0.18982450167366668 -9.5332247416166673  31.084897041350001 -1.9398517608649999 -8.1335611343399989  31.084540049233336 -1.9015777905766666 -7.9399929046633337  31.2603163719 -2.0375107526749998 -8.0267885923374998  26.8554096222 -0.099299296736700002 -8.4533462524399994  26.94448661805 -0.099789798259699997 -8.6227922439550007  27.102449417100001 -0.16113789379599999 -8.5228996276900002  26.717926025400001 -0.043978098779899999 -8.55920886993  26.6219406128 0.0100231003016 -8.7207612991300003  26.558496475199998 -0.00181120005436 -8.5264625549299993  26.149324417100001 0.040438700467299998 -8.3566045761099996  26.086750984200002 -0.35355214774600002 -12.030050277699999  26.292179107700001 -0.362921208143 -11.8987884521  25.904649734500001 -0.100718297064 -11.8963775635  31.156567573549999 -2.0453402996049999 -8.3542237281799991  27.7767295837 -0.78728240728400001 -11.1241617203  27.690723419199998 -0.60091328620899997 -10.9895887375  26.674464225800001 -0.32890674471850001 -11.585193157199999  26.691308975250003 -0.51593062281649993 -11.76032924655  25.760232925433332 -0.17201086630399998 -12.074556986499999  26.887959480300001 0.18763215094800001 -21.99487113955  26.807928085299999 -0.0060405000112999999 -22.667156219500001  26.895736694299998 -0.018031200394 -22.2787418365  25.542683283466669 -0.29701477289200001 -12.329759915666665  27.667960166900002 -0.82808589935300003 -11.267123222350001  26.497505187999998 -0.37745045125499999 -11.764007568349999  26.485880374899999 -0.14659340213987498 -11.511164426824999  26.4172821045 -0.49935524165650003 -11.9381861687  25.1400108337 -0.19979749620000001 -12.5019235611  27.9715080261 -0.95374262332899995 -11.1016798019  27.9141864777 -0.81817239522899998 -11.0194854736  27.032018661499997 -0.24694190174300001 -22.042174339300001  26.971501350400001 -0.23742520064149999 -22.300596237199997  26.943784713700001 0.17294819652999999 -21.797611236600002  27.087527275100001 -0.062532398849750009 -21.560660362249997  26.873467445350002 -0.21796809881950002 -22.690304756149999  26.775617599499999 0.00014760000340199999 -22.797449111900001  26.497095108 -0.17749950289700001 -24.431404113799999  26.533170700100001 -0.18633259832900001 -24.299961090099998  27.524719238300005 -0.51728337009766667 -11.0430876414  27.862592697149999 -0.99241891503349999 -11.24620771405  26.8178319931 -0.21202179789549999 -22.947933196999998  25.379872639966663 0.15109680592990002 -11.970370292666667  25.271872520450003 0.10128084756455 -12.106431484200002  25.6311626434 -0.085272900760199999 -12.073315620400001  28.806862831125002 -0.88516390323624994 -9.9505758285549994  30.8655904134 -1.8266524871199998 -8.3191989262899995  29.4729804993 -1.57291388512 -10.189592361500001  29.531303405799999 -1.7105152607 -10.271621704099999  29.6419458389 -1.6803608536699999 -10.1197185516  28.436852455149999 -0.8984474837780001 -10.5417160988  29.843573888133331 -1.5285460551599999 -9.6431376139299996  29.723792076100001 -1.59447365999 -9.9174971580500006  29.608173370350002 -1.37391722202 -9.7152972221399985  29.275450388600003 -1.4094721078866665 -10.209793090833331  29.13107585905 -1.1334444880499999 -9.9583525657849989  30.9123287201 -1.8135090470299999 -8.083214759825001  30.0867481232 -1.4803253412199999 -9.0325784683200006  29.9981307983 -1.4137307405499999 -9.0134496688799999  29.631595611600002 -1.2303340435000001 -9.3024883270299998  30.033995310466668 -1.75236217181 -9.7278855641700002  29.922430992100001 -1.7671784162550002 -9.8910002708399993  29.679696083050001 -1.3490923047050001 -9.5299124717700003  29.97563552856667 -1.4646860361066665 -9.2658348083466677  29.765457789100001 -1.3678097724900002 -9.4122282663999997  31.78406333925 -2.5930360555650003 -8.2051348686200001  30.287746429449999 -1.8091513514500002 -9.4298067092900002  30.126811345433335 -1.4749925136566666 -8.906370480853333  29.840566635149997 -1.8599053025250001 -10.088747024549999  29.659911155700001 -1.8789636492749999 -10.2905621529  29.322011947649997 -1.6573212742800001 -10.43438529965  30.0104389191 -1.9755965471300001 -10.013283729599999  30.4586582184 -1.92426371574 -9.3540601730299997  30.375062942500001 -1.9866615533800001 -9.5740785598800002  31.202987670900001 -2.2948688268700002 -8.7585072517399993  25.0270519257 0.054693400859799998 -12.3278141022  33.200786590566672 -3.5100437800099997 -7.0170345306400002  33.04812049865 -3.4206986427300001 -7.1575493812550004  33.268646240199999 -3.6274304389999998 -7.1495361328099998  33.603834152200001 -3.8879766464249998 -6.8814384937300002  34.137405395499997 -4.2437038421600004 -6.2687978744499997  34.185436248800002 -4.4504013061499998 -6.5109691619900003  30.987457911166668 -1.9176138242066667 -8.3526840209966657  33.450187683099998 -3.6850745677900001 -6.8205204009999996  33.451179504400002 -3.7910249233249997 -7.0381989479050002  33.727849960349999 -4.1753325462349995 -7.0485289096850003  33.358594894399999 -3.6099123954749999 -6.8843190669999998  26.375909805300001 0.065345801413099994 -24.490013122600001  30.68872261045 -2.1691093444799998 -9.3669605255149992  30.546363830600001 -2.1094024181400002 -9.4933261871350005  31.35971546175 -2.0552786588650003 -7.6936140060399998  26.632295608500002 -0.117806203663 -21.219001769999998  26.287473678600001 -0.025041650980750001 -21.220147132850002  26.4969053268 0.15321205556349998 -21.217433929449999  30.2630310059 -2.00291669369 -9.7365789413449999  33.8567829132 -4.5116558074949999 -7.1816818714149999  34.5139503479 -4.9554465611766672 -6.4547284444199997  26.133184433 -0.10339000076099999 -21.228183746300001  26.07762527465 0.1471291482448 -21.229760169999999  30.817283630399999 -1.7648011446 -8.1531391143800001  30.4634180069 -2.1909909248349999 -9.6999073028549994  27.038951873799999 0.040060698986099999 -10.4576406479  27.1760349274 -0.00035799999022899999 -10.345335006699999  26.288093566899999 -0.036820501089099997 -8.2128343582200003  26.580410003699999 0.012224899604900001 -8.6649007797199999  26.509387969999999 0.0086463000625400001 -8.52294921875  25.645924250266663 0.062338965634499997 -11.886932373066665  25.818474769600002 0.066500148736000006 -11.749835967999999  27.006754875150001 0.17041860520800001 -21.47577762605  26.651374816899999 0.0157411005348 -8.8068819046000009  26.9804706573 0.163533195853 -21.666332244900001  27.199443817100001 0.017921200022100001 -9.9654273986799993  27.1940002441 0.018671400845100002 -9.9177236556999997  26.6464977264 -0.048293098807299997 -8.4181642532299996  26.276169776949999 0.30263338983050003 -24.48163223265  26.6331501007 -0.111095800996 -8.1725301742600003  26.188617706300001 0.53237861394899999 -24.4694366455  26.055822372400002 0.78755158185999996 -24.531429290799998  26.4399375916 -0.15363140404200001 -24.5690097809  27.1431941986 0.034160498529699997 -9.8056564331100002  25.760469436600001 -0.17378279566800001 -21.2379894257  25.034814834599999 0.0078229997307100001 -8.1305704116800008  25.026092529300001 -0.0178500991315 -8.0790271759000003  25.0922889709 0.010588100180000001 -8.13676071167  28.020048141500002 -0.3945550024506666 -10.111175537133333  26.5758113861 0.212405696511 -21.2171001434  25.9416599274 0.021647799760099999 -8.2413244247400002  25.946174621600001 -0.0100883003324 -8.1599702835100008  25.881624221799999 0.022757699713099998 -8.2382059097300004  26.062910080000002 0.095523901283700002 -11.5161075592  31.465776443500001 -2.1038274764999998 -7.4505014419600002  31.691287040700001 -2.2969681024549997 -7.4965317249299996  25.465272903399999 2.01113581657 -24.948957443200001  26.199478149400001 0.079313099384300007 -11.4216508865  26.336227417 0.065515302121600005 -11.3287982941  26.472694397000001 0.042098999023400002 -11.229282379200001  26.6093730927 0.021238900721100001 -11.1314535141  26.775011062650002 -0.052055699750804998 -11.0849094391  28.979312896750002 -0.89791381359099998 -9.6406116485600002  26.324782689399996 0.19437136749436665 -21.225068410233334  26.75599193575 0.21436274796749999 -22.51766300205  26.7012491226 0.21950479596849998 -22.776617050150001  25.356842041 -0.19701020419599999 -21.276744842500001  25.504567146300001 -0.19097935408354999 -21.255105018599998  26.805486679099999 0.80199062824199996 -21.519268035900001  25.939823150666669 1.2454824447633335 -24.241315841666665  25.540784835833335 1.9913824001933333 -24.676276524866665  26.3960399628 1.33751475811 -22.277551651  26.105808258100001 1.1944704055799999 -23.699258804300001  25.921175003050003 1.4652559757249999 -23.959078788749999  25.842494010900001 1.487531244755 -24.230050087000002  31.934881210299999 -2.5279350280799999 -7.6206889152499997  26.9609355927 0.011834699660500001 -10.698483467100001  25.812913894650002 -0.34184774756449998 -12.20447683335  29.880978902166671 -1.3157510757433333 -8.8809687296566668  29.706003189050001 -1.2298887968050001 -9.0227012634249988  29.476160049400001 -1.1172497272499999 -9.2130479812600008  27.770550727850001 -0.52253040671349993 -10.784695625299999  25.176498413099999 -0.050853800028600002 -8.0254497528099993  25.150552749599999 0.066244699060899997 -8.2274208068799997  27.109098434450001 -0.088935900479549995 -9.030563354489999  27.411674499499998 -0.13826610147999999 -9.1989908218400007  27.096256256099998 0.014952000230599999 -9.5415439605699994  27.2103691101 -0.023455100134000002 -9.5543565750100008  25.857398986825004 -0.12346837669614999 -7.9625821113575004  26.770259857199999 0.0297616496682 -9.100567340855001  26.949578285199998 0.06279095076025 -10.56319618225  25.403785705600001 0.0619419999421 -8.2221193313600001  25.693929672199999 0.035787798464299997 -8.2178087234500001  27.106916427600002 0.041871100664099999 -10.249157905600001  27.313205718999999 -0.046992700546999999 -10.2285070419  27.139106750500002 -0.027659099549100001 -9.4133939742999999  25.4238529205 -0.062015999108599999 -8.0270395278900004  25.7310600281 -0.0324647016823 -8.0990829467799994  26.685998916599999 0.093533199280700002 -10.866177558899999  26.8242645264 0.048831298947299998 -10.807926178000001  27.019353866599999 -0.0687984973192 -10.8184909821  26.022858047479996 -0.27915800213800002 -21.230160140999999  25.737288475050001 0.2458072528245 -21.261656761200001  28.554155349733332 -1.2536605596566666 -10.823447227466666  31.9019947052 -2.6259534359000001 -8.0043420791600006  25.703450202950002 2.9327226877200001 -21.768387794500001  25.844879150400001 2.68506646156 -21.7487430573  25.740785598799999 2.78452014923 -21.642578125  25.7725563049 2.8490839004500002 -21.842664718599998  26.400457382200003 0.36006909608850002 -10.19973134995  26.537466049199999 0.30412346124650003 -10.085071563749999  26.338279724149999 0.366996154189 -10.03471326825  25.234129905700001 0.39673975110049997 -11.703646183  25.156166076650003 0.31248261034500002 -11.90324926375  25.379872639966663 0.15109680592990002 -11.970370292666667  25.523224512700001 0.20442806681 -11.780005772899999  25.818474769600002 0.066500148736000006 -11.749835967999999  25.645924250266663 0.062338965634499997 -11.886932373066665  25.715061187700002 2.95406866074 -22.099098205600001  25.665489196799999 3.0429096221899998 -22.012874603299998  25.738744735699999 2.9140903949700001 -21.922113418599999  26.832388877850001 0.143911644816 -10.4594669342  27.038951873799999 0.040060698986099999 -10.4576406479  26.949578285199998 0.06279095076025 -10.56319618225  26.324782689399996 0.19437136749436665 -21.225068410233334  26.4969053268 0.15321205556349998 -21.217433929449999  26.5800666809 0.21782229840799999 -21.216297149700001  26.5758113861 0.212405696511 -21.2171001434  25.618885040249999 0.26379695534699998 -8.8366937637349992  25.6141026815 0.31639606753999999 -9.065677960713332  25.76278686525 0.26529635489000003 -8.9471149444600009  26.160512924199999 0.32543289661399999 -10.982840538  26.007259368899998 0.39152425527566664 -10.985347429900001  26.112157821650001 0.22194554656749999 -11.257769107850001  25.106740951500001 0.16790470480899999 -12.148221015900001  25.049085617100001 0.27672559022900001 -12.0488710403  25.271872520450003 0.10128084756455 -12.106431484200002  25.770445346824999 0.25616825371974999 -11.4898221493  25.840559005733336 0.49062837163599998 -10.861145337399998  25.8573144277 0.40669996539766667 -11.099893887833332  25.656105995200001 0.52429530024549997 -11.006553173050001  25.850486755349998 0.52041351795199997 -10.2245235443  25.912477493299999 0.51502329111099998 -10.3674888611  26.044580459599999 0.46929629643733334 -10.256157239266665  25.443910598799999 0.079144403338400005 -8.2776527404800007  25.593307495099999 0.060304101556499998 -8.2549953460700003  25.480559349049997 0.1196912974115 -8.3647108078050003  25.039028167700003 0.50349979102599995 -11.685930252049999  25.115953445400002 0.57187268137949998 -11.474924564349999  25.47740046183333 0.4100345571836666 -11.458768844633333  25.340815861999999 0.42288699746166669 -11.551014582333332  25.163961410500001 0.052415698766699999 -12.243059158299999  25.645244598399998 0.5735120773315 -10.17489433285  25.722651799499999 0.56628227233866668 -10.3154513041  25.519073486300002 0.63407641649199997 -10.302103042600001  26.509387969999999 0.0086463000625400001 -8.52294921875  26.419408798199999 0.057793099433199997 -8.6563081741300003  26.5134773254 0.026828199625 -8.6269149780299994  25.583257675200002 0.15693604946100001 -8.4705228805550004  25.4630851746 0.198953598738 -8.5528173446700002  26.672768592849998 0.23424519598499999 -9.9629950523349997  26.635969161999999 0.23022640248133333 -9.8216613133733333  25.2239818573 0.22127330303199999 -8.5437602996800006  25.3201828003 0.25520980358099998 -8.6610774993900002  25.32974942526667 0.192468802134 -8.5118878682466672  25.418800989800001 0.68208817640933328 -10.596481005366666  25.2278470993 0.74880260229099993 -10.531203746799999  25.285451889050002 0.72283235192299999 -10.694253921550001  26.333695411699999 0.28401765227349995 -10.867695331549999  26.355930328399999 0.22050249576600001 -11.0021543503  25.9416599274 0.021647799760099999 -8.2413244247400002  25.745981216400001 0.085555300116500005 -8.3389387130700001  25.881624221799999 0.022757699713099998 -8.2382059097300004  25.803220748899999 0.098503403365599998 -8.3849201202400003  25.837774276699999 2.5439035892500002 -21.600582122799999  25.550309181199999 2.78097808361 -21.512940406799999  25.648040135700001 2.3619173367799999 -21.453553517700001  26.510013580349998 0.29828424751749999 -10.5234489441  26.646768569900001 0.24456040561199999 -10.414326667799999  26.100925445600001 0.39257669448900001 -10.853455543500001  26.216074943549998 0.36895669996750002 -10.764878273000001  25.396170616150002 3.2384808063500001 -21.768529892  25.4516563416 3.2681112289400001 -21.935960769699999  25.6142692566 3.1033291816699999 -21.912054061900001  26.972426414499999 0.094412349164500003 -10.341829299899999  27.116809844999999 0.050884298980199999 -10.2035732269  26.126985549899999 0.55968302488300004 -24.6097106934  26.276169776949999 0.30263338983050003 -24.48163223265  26.188617706300001 0.53237861394899999 -24.4694366455  26.149324417100001 0.040438700467299998 -8.3566045761099996  26.323226928699999 0.03745940048245 -8.4704594612150004  26.184808731099999 0.099948149174400008 -8.5908250808700011  25.026069641100001 0.68694621324500005 -11.2915725708  25.179462432866668 0.64079636335366674 -11.241775194799999  26.4639215469 0.073502801358699993 -8.8115406036349988  26.31358083086667 0.28264513611800002 -9.5530077616366658  26.309253692599999 0.13245350122499999 -8.8711738586400006  25.465272903399999 2.01113581657 -24.948957443200001  26.055822372400002 0.78755158185999996 -24.531429290799998  27.006754875150001 0.17041860520800001 -21.47577762605  26.9804706573 0.163533195853 -21.666332244900001  26.878913879399999 0.58877062797500002 -21.482742309599999  26.8242645264 0.048831298947299998 -10.807926178000001  26.8397731781 0.074591703712899998 -10.689519882200001  26.9609355927 0.011834699660500001 -10.698483467100001  26.062910080000002 0.095523901283700002 -11.5161075592  25.955127716050001 0.055395498522645005 -11.6589779854  26.7229328156 0.227087602019 -10.1395711899  26.8595809937 0.1654586941 -10.011508941700001  27.059703826899998 0.076626699417799995 -10.059481143949998  25.991647720350002 2.373100638385 -22.111366271999998  25.759860038749999 2.8532922267899998 -22.175096511850001  25.88181495665 2.6289691925050001 -21.99944782255  25.822303772000001 2.7599518299099999 -21.929281234699999  26.543144226100001 0.53206938505199997 -21.234603881799998  25.570534706099998 0.62766516208649992 -10.45935201645  25.773399353000002 0.56241545081150002 -10.50384664535  25.091178894033334 0.79090758164700004 -10.650773366266668  25.048646926899998 0.80268388986600003 -10.495630264300001  26.804522832233335 0.12245526909836667 -9.60555108388  26.649799982699999 0.15248620013399999 -9.4852883021033332  26.54236221315 0.2261886000635 -9.6295299529999987  26.805486679099999 0.80199062824199996 -21.519268035900001  26.75599193575 0.21436274796749999 -22.51766300205  26.7012491226 0.21950479596849998 -22.776617050150001  26.246015548700001 0.61206781864199999 -21.2528114319  25.829469680800003 0.12179305031900001 -8.4474234581000012  26.118173599199999 0.0029132999479799999 -8.2465438842799994  26.431689262399999 0.15499874949449999 -9.1723380088800006  26.446152369166668 0.313233335813 -9.9005762736000005  26.770259857199999 0.0297616496682 -9.100567340855001  26.60920143125 0.1119397990405 -9.2487154006949996  26.485108375549999 0.22481910139299999 -9.5414752960199998  26.407724380499999 0.2953468114135 -9.7489085197450009  27.0059776306 0.033270299434700001 -9.516456604  26.972499847400002 0.0147363501018905 -9.369071006775  26.838442802399999 0.085286200046549993 -9.4885640144349992  25.97543525695 0.23605435341600001 -11.3509144783  26.883006095900001 0.022050150670100001 -9.234375  27.010330200199999 0.095979399979100002 -9.9090137481700005  27.1431941986 0.034160498529699997 -9.8056564331100002  27.1940002441 0.018671400845100002 -9.9177236556999997  26.20326423645 0.3489548563955 -9.7005615234400011  25.837070465099998 0.27153883874399998 -9.040969848635001  25.918619791666668 0.218903635939 -8.8721577326466683  26.4333105087 0.19904179871049998 -9.3913793563850003  26.248785018950002 0.2037345543505 -11.161737918899998  26.6219406128 0.0100231003016 -8.7207612991300003  26.651374816899999 0.0157411005348 -8.8068819046000009  26.251537958766665 0.114449168245 -8.7252766291300006  26.580410003699999 0.012224899604900001 -8.6649007797199999  26.369255065899999 0.0625274032354 -8.6310129165599996  27.199443817100001 0.017921200022100001 -9.9654273986799993  26.010614395099999 0.109742596745 -8.4942111969000003  27.096256256099998 0.014952000230599999 -9.5415439605699994  26.941203117400001 0.097562450915699997 -9.7258329391499991  26.492408752399999 0.191453292966 -10.8983898163  27.106916427600002 0.041871100664099999 -10.249157905600001  26.336227417 0.065515302121600005 -11.3287982941  26.414438247700001 0.133706703782 -11.117476463299999  26.472694397000001 0.042098999023400002 -11.229282379200001  26.713407516499998 0.29622856279233339 -21.220012664799999  26.512039184566664 0.24610927204266667 -10.718523343399999  26.628879547099999 0.157680302858 -10.791232109099999  26.690719604450003 0.18824830651300001 -10.576468944549999  26.199478149400001 0.079313099384300007 -11.4216508865  26.943784713700001 0.17294819652999999 -21.797611236600002  26.887959480300001 0.18763215094800001 -21.99487113955  25.6450519562 0.044425200670999997 -8.2283363342300007  25.693929672199999 0.035787798464299997 -8.2178087234500001  25.1175365448 0.73552018403999997 -10.183589935300001  25.1677970886 0.73775810003300002 -10.291384697  25.0689048767 0.75523978471800002 -10.215209960899999  25.403785705600001 0.0619419999421 -8.2221193313600001  26.27164649965 0.36190144717649997 -9.8692917823799995  25.368005752549998 0.69674408435849999 -10.415775299050001  25.119962692249999 0.72937959432599997 -11.02928161625  25.298421859699999 0.64157688617700004 -11.092798233  25.0270519257 0.054693400859799998 -12.3278141022  26.551090240499999 0.11087589711 -11.018170356800001  26.685998916599999 0.093533199280700002 -10.866177558899999  26.6093730927 0.021238900721100001 -11.1314535141  26.765460967999999 0.12169670313600001 -10.6824178696  25.034814834599999 0.0078229997307100001 -8.1305704116800008  25.0922889709 0.010588100180000001 -8.13676071167  25.150552749599999 0.066244699060899997 -8.2274208068799997  25.012722015400001 0.13016310334200001 -8.3286371231099992  25.3586406708 0.57201492786399999 -11.2203865051  25.4866113663 0.64951553940750006 -10.7372751236  25.1381216049 0.75946259498599999 -10.812534809100001  25.529312769566669 3.0442326068866667 -21.67126846313333  26.586456298800002 0.28416690230399999 -10.264201164199999  26.457248687749999 0.33532430231599997 -10.362095832849999  26.2077407837 0.030372900888300001 -8.3682374954200007  25.125364303600001 3.82025074959 -23.0853118896  25.191198349 3.72527444363 -22.86629772185  25.231891632100002 3.69001674652 -22.950819015499999  25.179208755499999 0.27576160430899999 -8.6742944717399997  25.337635993950002 0.68617808818799997 -10.860064983400001  26.092084884599998 0.17715099453899999 -8.8429441452000006  26.077001571699999 0.152189999819 -8.7118759155299994  25.416624705033332 0.27888316909466671 -8.7879594167066681  25.540270805349998 0.222774155438 -8.6600542068450004  25.720992088300001 0.42059744894500001 -11.2116446495  3 1 0 2  3 4 3 5  3 8 6 7  3 9 11 10  3 12 13 14  3 17 15 16  3 18 20 19  3 21 23 22  3 24 25 13  3 26 25 24  3 25 27 13  3 30 28 29  3 31 33 32  3 13 27 14  3 14 27 34  3 35 36 4  3 7 37 38  3 37 7 6  3 41 39 40  3 39 42 40  3 13 12 24  3 43 44 45  3 48 46 47  3 49 50 39  3 50 51 39  3 53 44 52  3 54 47 55  3 1 2 56  3 35 29 28  3 57 58 59  3 10 61 60  3 62 63 64  3 1 65 66  3 29 67 30  3 27 25 6  3 9 68 11  3 64 69 70  3 63 69 64  3 73 71 72  3 76 74 75  3 77 78 79  3 80 58 81  3 82 84 83  3 85 86 87  3 88 89 90  3 79 91 77  3 94 92 93  3 59 69 63  3 95 97 96  3 96 97 98  3 99 65 100  3 102 101 103  3 27 104 105  3 107 108 106  3 109 52 43  3 110 111 112  3 83 111 110  3 34 113 14  3 91 9 71  3 19 20 114  3 114 115 19  3 116 118 117  3 80 119 70  3 120 39 41  3 121 123 122  3 124 122 123  3 126 125 82  3 58 57 123  3 127 87 128  3 29 35 4  3 129 55 47  3 130 131 132  3 113 34 27  3 115 133 134  3 19 115 134  3 18 133 135  3 137 136 115  3 138 133 136  3 92 139 93  3 141 140 109  3 142 53 52  3 77 143 132  3 126 144 145  3 147 146 28  3 52 44 43  3 109 142 52  3 109 148 142  3 149 151 150  3 98 152 96  3 147 28 50  3 144 40 145  3 40 144 153  3 50 28 30  3 30 51 50  3 154 141 43  3 146 155 35  3 155 36 35  3 35 28 146  3 154 146 147  3 154 147 156  3 69 80 70  3 95 96 157  3 159 110 158  3 161 162 160  3 162 163 160  3 150 164 165  3 166 107 167  3 41 40 153  3 132 90 77  3 149 162 151  3 39 30 42  3 40 168 145  3 51 30 39  3 66 65 99  3 83 110 159  3 159 82 83  3 153 169 41  3 67 40 30  3 30 40 42  3 169 158 110  3 165 164 170  3 158 169 144  3 144 169 153  3 144 126 159  3 40 67 168  3 98 172 171  3 171 173 98  3 159 126 82  3 158 144 159  3 58 69 59  3 174 63 62  3 131 130 175  3 176 178 177  3 80 69 58  3 124 123 0  3 104 123 121  3 77 17 78  3 122 0 1  3 0 122 124  3 179 122 1  3 111 1 66  3 1 111 179  3 118 180 181  3 180 118 182  3 1 56 183  3 183 65 1  3 184 56 2  3 185 131 175  3 117 184 116  3 186 188 187  3 76 190 189  3 191 192 180  3 193 192 191  3 91 79 9  3 194 78 17  3 60 180 192  3 10 192 72  3 195 180 60  3 192 10 60  3 72 186 196  3 181 178 176  3 176 118 181  3 180 195 189  3 181 180 189  3 189 190 181  3 181 190 178  3 178 190 197  3 183 118 176  3 45 44 155  3 178 197 177  3 197 198 177  3 100 176 199  3 188 193 191  3 75 200 76  3 91 143 77  3 195 201 202  3 9 79 203  3 77 90 15  3 204 97 95  3 205 207 206  3 210 208 209  3 211 132 143  3 212 208 207  3 208 213 207  3 208 210 214  3 15 90 89  3 215 212 207  3 104 8 123  3 107 166 216  3 72 211 73  3 211 71 73  3 143 91 71  3 71 211 143  3 68 9 203  3 130 132 211  3 218 61 217  3 130 211 175  3 90 132 219  3 222 221 220  3 162 161 151  3 223 76 189  3 224 210 225  3 221 227 226  3 107 165 170  3 175 228 185  3 202 229 223  3 230 231 24  3 103 232 139  3 233 234 138  3 142 235 236  3 138 137 233  3 142 148 235  3 163 237 220  3 236 53 142  3 137 115 238  3 163 239 237  3 48 240 241  3 138 234 242  3 242 234 93  3 239 163 162  3 33 243 32  3 244 139 232  3 246 107 245  3 216 166 247  3 216 32 243  3 247 32 216  3 232 103 101  3 244 93 139  3 97 172 98  3 173 235 148  3 248 55 129  3 226 227 249  3 252 250 251  3 85 87 127  3 46 248 129  3 129 47 46  3 8 7 253  3 220 237 254  3 188 186 192  3 186 72 192  3 256 255 257  3 44 53 258  3 219 259 88  3 260 89 88  3 235 173 171  3 260 88 259  3 261 107 246  3 145 125 126  3 0 59 63  3 58 123 8  3 258 262 44  3 71 9 10  3 63 174 0  3 18 134 133  3 192 193 188  3 10 72 71  3 37 6 25  3 264 36 263  3 265 266 36  3 64 267 62  3 84 82 125  3 146 45 155  3 136 133 115  3 26 37 25  3 7 58 253  3 221 222 268  3 221 268 227  3 141 109 43  3 245 107 243  3 107 216 243  3 150 269 149  3 269 150 270  3 271 272 128  3 150 165 270  3 273 270 107  3 107 270 165  3 219 88 90  3 107 275 274  3 107 276 273  3 108 107 277  3 261 275 107  3 107 279 278  3 279 107 274  3 107 278 277  3 107 106 276  3 70 119 64  3 89 280 15  3 44 263 155  3 262 263 44  3 174 62 184  3 113 27 105  3 5 67 4  3 155 263 36  3 281 12 14  3 2 0 184  3 264 265 36  3 4 67 29  3 156 141 154  3 140 282 109  3 184 0 174  3 15 280 16  3 27 6 8  3 27 8 104  3 17 77 15  3 58 8 253  3 283 188 284  3 284 188 285  3 145 286 125  3 148 109 282  3 196 187 283  3 283 187 188  3 196 186 187  3 55 248 54  3 251 287 288  3 288 252 251  3 93 234 94  3 136 137 138  3 289 114 20  3 114 289 290  3 291 290 54  3 292 248 291  3 248 292 54  3 54 292 291  3 248 46 48  3 256 293 102  3 115 114 294  3 24 12 295  3 295 230 24  3 134 18 19  3 240 48 22  3 288 287 296  3 256 257 297  3 256 103 255  3 103 256 102  3 240 22 23  3 248 48 241  3 231 298 23  3 299 231 23  3 295 12 281  3 21 299 23  3 114 300 291  3 300 114 290  3 291 300 290  3 230 298 231  3 294 238 115  3 301 296 287  3 302 296 301  3 256 297 296  3 296 302 256  3 266 265 303  3 303 3 266  3 304 3 303  3 305 3 304  3 305 304 281  3 14 305 281  3 249 306 226  3 220 254 222  3 307 272 249  3 227 307 249  3 307 128 272  3 128 87 271  3 218 229 202  3 210 224 214  3 207 205 215  3 180 182 191  3 199 176 177  3 182 118 116  3 122 83 84  3 111 83 122  3 308 112 111  3 308 111 66  3 99 308 66  3 111 122 179  3 217 61 11  3 61 10 11  3 194 17 309  3 311 310 312  3 310 311 313  3 314 316 315  3 317 319 318  3 319 317 320  3 320 321 322  3 323 324 325  3 320 322 319  3 326 327 328  3 329 330 331  3 330 332 331  3 335 334 333  3 338 337 336  3 340 318 339  3 318 341 339  3 320 342 321  3 337 344 343  3 343 344 345  3 346 348 347  3 349 350 351  3 317 352 353  3 320 355 354  3 341 356 339  3 346 358 357  3 357 358 359  3 360 362 361  3 363 364 351  3 315 366 365  3 367 369 368  3 341 318 319  3 364 369 351  3 371 370 372  3 324 313 325  3 373 374 336  3 377 375 376  3 375 378 376  3 379 312 380  3 381 379 380  3 382 383 326  3 336 384 385  3 387 386 388  3 389 326 390  3 391 393 392  3 394 395 396  3 317 318 352  3 397 398 353  3 399 400 401  3 403 391 402  3 404 405 406  3 407 408 409  3 410 411 342  3 342 411 321  3 391 403 393  3 412 413 414  3 417 415 416  3 416 418 417  3 331 419 329  3 420 358 421  3 422 423 371  3 425 424 426  3 427 428 429  3 419 430 329  3 431 375 432  3 433 400 399  3 434 426 366  3 409 408 328  3 436 435 437  3 437 426 400  3 426 438 400  3 439 441 440  3 342 442 410  3 443 437 435  3 444 445 446  3 401 400 447  3 424 441 439  3 335 449 448  3 450 437 400  3 388 313 324  3 336 451 338  3 399 452 433  3 452 453 433  3 436 437 453  3 437 433 453  3 396 361 454  3 399 401 362  3 362 401 361  3 452 399 362  3 362 455 452  3 361 401 454  3 456 361 396  3 427 406 405  3 446 457 444  3 394 396 458  3 425 441 424  3 413 457 414  3 444 457 413  3 378 375 431  3 453 435 436  3 437 425 426  3 443 459 440  3 459 439 440  3 439 460 424  3 445 460 459  3 336 337 384  3 373 461 374  3 389 390 462  3 451 464 463  3 463 464 465  3 331 466 419  3 326 328 382  3 412 414 390  3 467 468 461  3 382 469 467  3 464 451 374  3 326 389 327  3 338 470 442  3 470 410 442  3 337 338 344  3 451 336 374  3 427 471 472  3 471 427 405  3 472 428 427  3 400 438 447  3 455 362 360  3 376 473 474  3 477 475 476  3 373 336 385  3 418 416 323  3 316 434 315  3 388 386 310  3 350 478 473  3 325 418 323  3 478 350 349  3 313 418 325  3 414 457 390  3 438 479 447  3 438 434 479  3 370 371 480  3 388 310 313  3 398 481 482  3 339 356 483  3 473 478 474  3 484 485 486  3 456 396 395  3 456 360 361  3 487 485 468  3 462 327 389  3 488 489 490  3 488 490 491  3 492 354 355  3 320 354 342  3 480 420 370  3 372 370 493  3 422 371 372  3 494 422 372  3 317 353 355  3 320 317 355  3 310 495 312  3 496 497 314  3 479 434 316  3 310 386 495  3 383 390 326  3 498 395 394  3 499 500 501  3 368 502 367  3 503 372 493  3 474 377 376  3 454 504 505  3 505 396 454  3 360 456 395  3 368 507 506  3 506 507 333  3 508 345 344  3 420 359 358  
