ply
format ascii 1.0
comment bbox 24.188447  27.515486 -16.604276  1.224999 -25.774441  -24.043384 
element vertex 23
property double x
property double y
property double z
element face 15
property list uchar int vertex_index
end_header
24.8075466156 -8.1995725631699994 -25.502191543599999  26.987636470583205 -6.0215272331430079 -24.320790353994912  27.515486477294139 -4.5061276870729996 -24.147544264800484  24.754264831499999 -16.336341857899999 -25.230796814000001  26.72886519294584 -8.4564231036833881 -24.23204271975003  26.273308079497422 -10.664227682399712 -24.318996496081152  24.469966888399998 -10.4772939682 -25.4175853729  24.269390106199999 -9.3875761032099998 -25.448181152299998  24.4706573486 -12.74393081665 -25.345152854950001  24.718137741100001 1.2249987125399999 -25.774440765400001  25.844722177650731 -14.367799445852688 -24.146623541124377  25.243237108349465 -16.60427554728469 -24.096618155145773  26.325115498153906 -11.264362562101828 -24.189289172424871  24.188447316500003 -14.759686787933333 -25.269837697333333  26.325115498153906 -11.264362562101828 -24.189289172424871  26.72886519294584 -8.4564231036833881 -24.23204271975003  26.273308079497422 -10.664227682399712 -24.318996496081152  25.243237108349465 -16.60427554728469 -24.096618155145773  25.662665952779644 -15.187629513577919 -24.043384392157126  25.844722177650731 -14.367799445852688 -24.146623541124377  26.9186534882 -1.4284547567400001 -24.408212661699999  26.818276405349998 -1.1305738091499999 -24.472622871399999  27.515486477294139 -4.5061276870729996 -24.147544264800484  3 1 0 2  3 3 0 4  3 4 5 3  3 6 7 0  3 4 0 1  3 3 8 0  3 2 9 0  3 11 10 3  3 8 6 0  3 5 12 3  3 8 3 13  3 12 10 3  3 14 16 15  3 17 19 18  3 20 22 21  
