ply
format ascii 1.0
comment bbox -29.017412  -27.841798 -0.685636  -0.266299 -3.389274  -3.229119 
element vertex 22
property double x
property double y
property double z
element face 17
property list uchar int vertex_index
end_header
-28.1639785767 -0.29759278893500002 -3.2378678321800001  -28.265445709200002 -0.29037261009199999 -3.2533707618699998  -28.113201141400001 -0.26629859209099999 -3.2291193008399999  -28.875558853099999 -0.388866394758 -3.3372466564200001  -28.859054565400001 -0.54128772020299998 -3.3469686508200001  -29.001911163300001 -0.56166440248500005 -3.3826575279200002  -29.0174121857 -0.40903499722499997 -3.3747696876500002  -28.743705749499998 -0.59888559579800005 -3.3408646583600001  -28.824501037600001 -0.685635924339 -3.3892741203300001  -28.713596343999999 -0.519886016846 -3.3150007724799999  -28.084465026899998 -0.414802908897 -3.2603287696800001  -28.229967117299999 -0.41125825047499998 -3.2715532779699998  -28.674919128399999 -0.662698090076 -3.3645298481000001  -28.7294559479 -0.36690679192499998 -3.3064305782300001  -28.751897811900001 -0.38409379124600002 -3.3098719120000002  -28.921686172499999 -0.34150141477599999 -3.3560695648199999  -28.0293083191 -0.55184668302499995 -3.3378601074200001  -27.925077438399999 -0.38805139064799998 -3.2473394870800001  -27.841798146566664 -0.54765945672999994 -3.348282575606667  -28.5736503601 -0.34070488810499999 -3.29193496704  -28.572820663449999 -0.48654291033750002 -3.304976940155  -28.158487319950002 -0.57769495248799996 -3.3537226915350002  3 1 0 2  3 4 3 5  3 5 3 6  3 7 4 8  3 7 9 4  3 10 0 11  3 7 8 12  3 13 3 14  3 15 6 3  3 16 17 10  3 18 17 16  3 19 9 20  3 19 13 9  3 9 13 14  3 4 14 3  3 4 9 14  3 10 21 16  
