ply
format ascii 1.0
comment bbox -25.817207  -24.053322 -22.901033  -17.700822 -25.180737  -24.940594 
element vertex 11
property double x
property double y
property double z
element face 7
property list uchar int vertex_index
end_header
-24.4845409393 -22.698234558100001 -24.9984321594  -25.131181716899999 -22.7883281708 -25.030235290499999  -24.053321838399999 -22.578004837000002 -25.0195064545  -24.885637283299999 -22.809370040899999 -24.974163055399998  -25.223516464199999 -22.901033401500001 -24.940593719500001  -25.616285324099998 -18.089210510249998 -25.173589706400001  -25.269586563099999 -18.386267662050003 -25.155562400800001  -25.817207336399999 -18.39562416075 -25.180737495400003  -25.121315002399999 -18.157449722300001 -25.151241302500001  -25.364791234333335 -17.700821558633333 -25.165264765433335  -25.017206192 -18.001356124899999 -25.147617340099998  3 1 2 0  3 1 0 3  3 1 3 4  3 6 7 5  3 5 8 6  3 9 8 5  3 10 8 9  
