ply
format ascii 1.0
comment bbox -5.506167  6.295085 -0.031853  24.920219 -25.949816  -25.052206 
element vertex 440
property double x
property double y
property double z
element face 478
property list uchar int vertex_index
end_header
0.087307699024699995 13.544753074600001 -25.9280719757  -0.21922920644300001 13.3899478912 -25.932737350499998  0.31662295013700004 13.706642627699999 -25.92558956145  -0.26175409555399998 14.9265127182 -25.892314910900001  -0.55288910865800001 14.186889648399999 -25.9168491364  0.21474480629000001 14.676625251800001 -25.8987979889  0.112663000822 1.36431586742 -25.527830123899999  -0.0320202000439 1.2210923433300001 -25.515645980799999  0.11422900110500001 1.20817828178 -25.518945693999999  -0.27710971236199999 8.0943145752000003 -25.808397293100001  0.019283000379799999 8.4101085662799999 -25.815237045300002  0.075333600242800003 8.2496331532766671 -25.809168497733335  -0.23974133034566666 1.0960878531133333 -25.512435277333335  -0.46580609679200002 1.0941166877699999 -25.513723373400001  0.11644600331799999 1.0505557060199999 -25.513154983500002  -0.075611896812899995 4.42281532288 -25.6533069611  -0.14479710161680001 4.1026549339299994 -25.641143798800002  0.074408099055300006 4.2481031417799997 -25.645286560100001  0.10709829628500001 12.6157989502 -25.931856155399998  -0.047190301120300003 12.6305351257 -25.934743881199999  0.103440999985 12.799660682700001 -25.9324226379  -0.16201809793699998 21.703339894600003 -25.277677536033334  0.037696901708800003 21.604833602900001 -25.1633872986  0.114900998771 21.574672699000001 -25.077554702800001  -0.096536502242100003 5.9033389091500004 -25.7131824493  -0.24279759824300001 5.7487030029300001 -25.709936142  0.054667599499199998 5.7254538536100004 -25.704746246300001  -0.41194179654099999 20.784019470200001 -25.7458877563  -0.73923988237841454 19.672105540854481 -25.949815679140418  0.34289661049800002 20.618276596099999 -25.763219833400001  -0.017754200846 21.336547851599999 -25.708679199199999  -0.25148130208250002 11.211911201500001 -25.912361144999998  -0.16780139505899999 10.846907615699999 -25.9062271118  0.089319249615299995 10.9957137108 -25.9077587128  -0.0374043993652 1.6913915872600001 -25.540889740000001  -0.184268906713 1.7048488855399999 -25.5371437073  0.10532160103300001 1.8414845466600001 -25.5422115326  -0.52608382701900003 4.7877740859999998 -25.667432784999999  0.070124100893699998 4.9218039512600003 -25.673854827900001  -0.30201339721699999 21.5302848816 -25.702249526999999  -0.80867117643399999 21.528968810999999 -25.731824874899999  -0.158397600055 21.435049057000001 -25.706583023099999  -0.25489351153399997 17.4504261017 -25.825803756700001  0.32383873934536661 17.054319381700001 -25.834831873566667  0.30524289607999999 17.506147384599998 -25.823152542100001  -0.021103499457200001 18.5194129944 -25.798822402999999  -0.52521774172800006 19.055401484166666 -25.786772410099999  -0.36605550348749999 13.76418447495 -25.925354003900001  -0.61441016197199994 13.6224684715 -25.930293083199999  0.073454201221499996 14.114644050600001 -25.917078018200002  -0.0041813999414400003 10.1310272217 -25.882154464700001  -0.23071399331050002 9.9801087379449989 -25.876548767099997  0.14876419305800001 10.114490508999999 -25.883190155000001  -0.00631800014526 10.3040370941 -25.889993667599999  -5.2278113365200003 24.686483383199999 -25.508348465000001  -5.3710465431200003 24.7797164917 -25.503307342500001  -5.2885475158700004 24.761966705300001 -25.425628662099999  -5.3191390037500001 24.697214126599999 -25.580389022799999  0.0064627998508499998 17.6391925812 -25.820653915400001  0.0027743999380600002 9.6118640899700001 -25.8613529205  -0.14813339710199999 9.6220273971600001 -25.868305206300001  0.0053642001002999996 9.4384670257599996 -25.8557357788  -0.15742079913599999 10.148096084600001 -25.8804512024  0.0108754998073 10.411229133599999 -25.891130447399998  -0.55519419908500001 6.6066093444799998 -25.745832443200001  -0.18955750018349998 7.243007183075 -25.772521018999999  0.040621999651200003 6.8861908912700001 -25.758779525800001  0.061945699155300002 5.2283067703199997 -25.687910080000002  -0.23553889989900001 5.2536463737499997 -25.689237594600002  0.063963301479800005 5.0644264221200004 -25.680454254200001  -0.22955159843 21.631435394299999 -25.574371337900001  -0.18385280668699999 21.5439453125 -25.647937774700001  0.068115696311000007 21.452199935900001 -25.590805053699999  -0.20971994847050002 8.6005706787099996 -25.825337409950002  -0.29376539588 9.1235637664800002 -25.8438205719  0.010552999563500001 9.0925731658900002 -25.844648361200001  0.061559747904550002 4.06114387512 -25.637989997849999  -0.066493801772600003 3.7726373672500002 -25.626663208  0.079243551939749995 3.8437113761899999 -25.62617301945  -0.42353534698500001 2.997235655785 -25.591987609900002  -0.055404100567099997 2.96699738503 -25.5926189423  0.087523803114900003 3.2759513855 -25.606788635299999  -0.11981870233995001 5.5698268413550007 -25.70227622985  0.13238155283030001 5.5502972602799998 -25.70286750795  -0.72126019000999997 3.1819945573799999 -25.598941802950002  -0.71837335824949999 3.020842552185 -25.592514038099999  -0.734810829163 3.9894819259649998 -25.635355949400001  -0.097828298807100006 6.0660367011999998 -25.7247276306  0.196692407131 6.3720083236700003 -25.737384796099999  0.031665101647400003 7.5587644576999997 -25.785999298099998  -0.10760024841849999 11.733596324899999 -25.921351432800002  -0.25767859816549998 11.5676932335 -25.921744346600001  0.0122469002381 11.555322647100001 -25.918952941899999  -0.93293327093149991 13.8469901085 -25.928003311200001  -0.011844499967999999 10.6554937363 -25.899990081799999  -0.23892084509149999 10.5036845207 -25.8947734833  -0.19922439753999999 2.6623268127399999 -25.572719574000001  -0.12279324792325 2.49462378025 -25.569376945449999  0.094876401126400001 2.6373126506800002 -25.5751838684  0.099189497530500007 12.9862127304 -25.930259704600001  -0.055285099893799997 13.0005092621 -25.933891296399999  0.1013505011797 13.13008594515 -25.931823730449999  0.116984300315 21.552587509199999 -25.2626609802  0.036157298833100003 21.563991546600001 -25.365356445300002  -0.047650501131999999 21.601425170900001 -25.4253616333  0.021061500869107002 9.7792000770550001 -25.867676734900002  0.150705397129 9.9420804977399992 -25.875120162999998  -0.040127899497700001 21.6341133118 -25.248460769699999  -0.61702847480800005 1.42032516003 -25.527233123799999  -0.54054450988799996 17.768161773700001 -25.8180351257  0.014993400313 21.531797409100001 -25.511665344200001  -0.21008810401 13.015612602199999 -25.936578750599999  0.091872401535499998 13.355810165399999 -25.931573867800001  0.26884400844599998 12.2322835922 -25.930812835699999  0.110752999783 12.4323129654 -25.9313163757  -0.236504048109 10.329948902150001 -25.887248992899998  -0.27502530813199999 7.9260840416000002 -25.799505233800001  0.026791699230699999 7.8981294632000001 -25.797964096099999  -0.12014924734849999 7.6572532653799996 -25.789908409150001  -0.050967499613800003 12.8142995834 -25.935537338300001  -0.21822773913533333 7.4709111849433336 -25.780431747433337  -0.50765240192399996 12.495279312099999 -25.937662124599999  -0.039930101484099999 12.265209198000001 -25.931922912600001  0.27214190363899998 12.050362587 -25.929454803500001  0.1276772506537 5.88245558739 -25.714235305799999  0.1257601492108 6.0475986003899997 -25.7219877243  0.082746699452399999 3.6000742912299999 -25.617605209400001  -0.064232602715500006 3.6108379363999998 -25.6199932098  -0.046976998448399997 2.3286046981799999 -25.563865661600001  0.100001499057 2.3155279159500002 -25.566356658899998  0.114266298711 12.2497367859 -25.9301548004  -0.20347779989199999 2.98165154457 -25.5881557465  -0.18142075091600002 2.8387302160250001 -25.5819177628  0.090696603059799999 2.95754218102 -25.588567733800001  -0.026616999879499999 11.5433273315 -25.9211902618  0.2090231478215 11.165114879600001 -25.909609794600001  -0.177488297224 11.381193161000001 -25.9173069  -5.27779006958 24.606292724599999 -25.6508350372  -5.4207539558400004 24.699680328399999 -25.645908355700001  -5.3901014327999999 24.6002120972 -25.709699630700001  -5.4347066879300003 24.8529701233 -25.418794632000001  -5.3578162193300001 24.830797195399999 -25.337453842199999  -5.46406316757 24.789012908899998 -25.574237823499999  -0.33253911137600001 21.633699417100001 -25.6398200989  0.010570500046000001 17.827245712300002 -25.815692901599999  0.50168886780733335 18.179075876900001 -25.805655797333333  -5.5061674117999999 24.920219421399999 -25.329303741499999  -0.078404799103700004 13.943373680100001 -25.919279098499999  -0.52075308561300004 17.0729618073 -25.8359241486  0.104178398848 21.3544197083 -25.657201767  -0.0385797992349 21.450561523400001 -25.653520584100001  -0.134700194001 21.620592117299999 -25.502841949499999  -0.078635647892800004 21.674022674550002 -25.108076095599998  -0.042856801301200002 2.0112614631699999 -25.549234390300001  -0.18945929408100001 2.0234649181400002 -25.547943115199999  0.101171799004 2.1589283943200002 -25.555446624799998  -0.19093559682399999 2.1801707744600001 -25.558490753200001  -0.033316399902100002 11.903736114499999 -25.92628479  0.123764201999 11.7081079483 -25.922023773199999  -1.74735665321 12.4447669983 -25.941217422499999  -0.18721359968199999 11.9186344147 -25.9285449982  0.12379284761824999 6.2131674289699994 -25.7295560837  0.10327719897 1.99998807907 -25.5489578247  -0.186681106687 1.86353158951 -25.5433635712  0.089175000786800004 3.11643242836 -25.5979690552  0.12845210731000001 0.113797001541 -25.4729003906  -0.020692599937300001 0.43627679347999998 -25.485069274899999  0.19486109912399999 0.57574826478950003 -25.4927148819  -0.0137275997549 -0.031852699816200002 -25.4678554535  1.0311232805299999 20.3813438416 -25.787502288799999  -0.063853196799800005 13.373823165899999 -25.931032180799999  0.197581794113 11.880238533 -25.924343109100001  -0.19587010145200001 21.742591857899999 -25.052206039400001  0.0650428496301 15.678772449499998 -25.8697090149  -0.356967151165 15.520073890700001 -25.876773834249999  0.1162077002226 15.4647035599 -25.8757047653  -0.053830601275000001 2.8084905147599999 -25.582921981799998  -0.29619920253799997 9.2950153350800004 -25.8513793945  0.14406495541359998 4.5681719779950001 -25.658108711250001  0.14606229960904998 4.4053003787999998 -25.650984764100002  0.10836199671000001 1.6805307865100001 -25.540178299000001  0.140801995993 10.6413726807 -25.897565841700001  0.12927159666999999 11.3518438339 -25.912929534900002  0.015858349856000001 8.6660332679700005 -25.82551193235  0.166747704148 8.7349119186399999 -25.8310413361  0.19414080306895001 16.609376907350001 -25.84683227535  -0.54655323425933344 16.766077677400002 -25.843840916933331  -0.16093480587 0.13472099602199999 -25.473014831499999  0.093250900506999995 2.79597258568 -25.5840415955  -0.31271061301199998 0.61246961355200003 -25.494201660200002  0.080035351216799999 13.830670833599999 -25.920925140400001  0.118241496384 0.89431947469700002 -25.505407333400001  0.0242787990719 8.0685195922900004 -25.803642272899999  0.14603550732100001 10.290067672699999 -25.887598037699998  -0.110217101872 15.1044578552 -25.884592056300001  -0.39144433538099999 18.340794881200001 -25.803784688333334  0.067837297916400002 4.73798561096 -25.664878845200001  0.36489671468700002 16.077653884899998 -25.8592395782  -0.33447211484133338 16.160137176500001 -25.858894348133333  0.29886230826400001 19.223405838000001 -25.7811794281  0.12389209866500001 21.2389774323 -25.7114582062  0.85722631216 19.9708576202 -25.7672996521  -0.28371301293399998 15.707682609600001 -25.870088577299999  0.045463198795900002 15.30404043195 -25.877662658699997  0.046858299523600003 15.0870246887 -25.883338928200001  0.096971496939700003 2.47759008408 -25.568559646600001  0.2147848531605 10.809438228599999 -25.902617454550001  0.196692407131 6.3720083236700003 -25.737384796099999  0.79109001159699999 6.6493320465099996 -25.752286910999999  0.42435514926950002 6.02015089989 -25.722601890549999  0.49216029047999998 6.6772055625900002 -25.7520008087  1.94551646709 13.334370613100001 -25.9277362823  1.9819067120549998 13.621222257599999 -25.922242164625001  1.5428601503374999 13.694738626500001 -25.921937942524998  0.0122469002381 11.555322647100001 -25.918952941899999  0.123764201999 11.7081079483 -25.922023773199999  0.1734456693133333 11.531795819599999 -25.917826970433335  0.10836199671000001 1.6805307865100001 -25.540178299000001  0.6163827478885 1.7993759512900001 -25.546407699600003  0.25193679332699997 1.82825303078 -25.545446395900001  0.037696901708800003 21.604833602900001 -25.1633872986  0.116984300315 21.552587509199999 -25.2626609802  0.114900998771 21.574672699000001 -25.077554702800001  1.7004908323299999 14.309101104750001 -25.9069414139  2.0118010044124999 14.177320957175001 -25.909702301025  1.78096079826 14.1085157394 -25.912300109899999  0.10709829628500001 12.6157989502 -25.931856155399998  0.103440999985 12.799660682700001 -25.9324226379  0.38376209139799999 12.580649375949999 -25.932112693800001  0.10327719897 1.99998807907 -25.5489578247  0.249812096357 1.98725175858 -25.551191330000002  0.10532160103300001 1.8414845466600001 -25.5422115326  4.43727111816 16.905338287399999 -25.826671600299999  3.7293066978499998 16.097723007199999 -25.848411560100001  3.35772204399 16.876684188799999 -25.831687927200001  2.3189775943800002 16.861900329600001 -25.835226059  2.8619235754000001 18.099764823899999 -25.80126953125  1.9941880702999999 17.670139312700002 -25.814918518100001  1.504306793215 18.8867664337 -25.784398078900001  1.0311232805299999 20.3813438416 -25.787502288799999  1.8170181512800001 19.963115692100001 -25.768663406400002  0.85722631216 19.9708576202 -25.7672996521  0.73338901996600003 20.895055770900001 -25.754585266100001  1.03326058388 20.7179393768 -25.772558212300002  1.01429724693 20.835474014300001 -25.719442367599999  0.58210361003900002 20.982147216800001 -25.744588851900001  0.34289661049800002 20.618276596099999 -25.763219833400001  0.12389209866500001 21.2389774323 -25.7114582062  1.15632224083 14.3737468719 -25.905246734599999  1.39327400923 14.1534628868 -25.912143707249999  1.46074712276 14.7226381302 -25.894481658899998  0.25115519761999999 13.1520719528 -25.932466507000001  0.091872401535499998 13.355810165399999 -25.931573867800001  0.86746251583099998 13.269491195700001 -25.9301433563  0.010552999563500001 9.0925731658900002 -25.844648361200001  0.38710534572599997 9.2294030189550007 -25.847309112550001  0.84343031048799999 9.0117621421849989 -25.841412544249998  0.110752999783 12.4323129654 -25.9313163757  0.26884400844599998 12.2322835922 -25.930812835699999  0.30324089527100001 9.9261188507100009 -25.875558853099999  0.14876419305800001 10.114490508999999 -25.883190155000001  0.37732060253650002 10.091845035550001 -25.881987571750003  0.150705397129 9.9420804977399992 -25.875120162999998  0.75940430164299999 9.8806047439599993 -25.873895645099999  0.026791699230699999 7.8981294632000001 -25.797964096099999  0.40378320217149999 7.8616166114800006 -25.798316001850001  0.031665101647400003 7.5587644576999997 -25.785999298099998  1.8426473140699999 15.829369545 -25.8624286652  1.583087682725 16.121505737299998 -25.855905532800001  1.79475224018 16.569158554099999 -25.844335556000001  0.101171799004 2.1589283943200002 -25.555446624799998  3.0154831409499998 13.9651451111 -25.9130859375  3.6284327507 14.0855846405 -25.9064331055  3.6675283312825 13.646573066725001 -25.915339946774999  1.5264214277299999 8.2619791030900007 -25.816345214799998  1.06597065926 9.5039854049700008 -25.861391067500001  0.100001499057 2.3155279159500002 -25.566356658899998  0.093250900506999995 2.79597258568 -25.5840415955  0.24006630480300001 2.7838430404699999 -25.584535598799999  1.8671066363633333 14.434374173499998 -25.902892430633329  0.1162077002226 15.4647035599 -25.8757047653  0.045463198795900002 15.30404043195 -25.877662658699997  0.199716702104 15.260922431899999 -25.880380630499999  0.166747704148 8.7349119186399999 -25.8310413361  0.776222884655 8.1658315658599996 -25.809379577600001  0.2290876433255 9.7611556053150004 -25.868451118499998  0.40367698669399998 1.3419147729900001 -25.528181075999999  1.0175696015363334 17.4861208598 -25.821730931600001  0.30524289607999999 17.506147384599998 -25.823152542100001  0.32383873934536661 17.054319381700001 -25.834831873566667  0.63121032714799996 7.6711945533800003 -25.791254043599999  1.0812799930600001 7.6285519599900002 -25.790651321399999  3.3214666843399998 14.1211547852 -25.906536102299999  0.88233983516699999 4.6659016609200004 -25.667404174800001  0.73017594218250004 5.1689348220799998 -25.688750267  0.51944106817249991 4.84663438797 -25.672705650299999  0.040621999651200003 6.8861908912700001 -25.758779525800001  0.33453440666200002 7.3622055053700004 -25.7784557343  0.39566189050700001 1.9760743379600001 -25.550786972000001  0.61444205045700007 1.9586030244799999 -25.5514154434  2.4118796984366666 16.0576766332 -25.854784011866666  0.17537160217799999 8.0536603927599995 -25.8039913177  0.0242787990719 8.0685195922900004 -25.803642272899999  0.32405430078500003 8.2094793319699999 -25.809831619299999  0.075333600242800003 8.2496331532766671 -25.809168497733335  1.3774098157900001 8.1071262359599991 -25.809726715099998  1.18960499763 12.3152389526 -25.929244995099999  1.1823146343199999 12.8640375137 -25.9317111969  1.7996189594300001 12.6127119064 -25.930459976200002  0.1013505011797 13.13008594515 -25.931823730449999  4.8098554611199997 16.115402221699998 -25.843791961699999  0.28309470415100002 11.334780693100001 -25.913745880099999  0.43944048881499997 11.1394491196 -25.911136627200001  0.277848690748 11.6910123825 -25.922626495399999  0.69251358509100003 1.47732102871 -25.5344924927  0.019283000379799999 8.4101085662799999 -25.815237045300002  0.12927159666999999 11.3518438339 -25.912929534900002  0.2090231478215 11.165114879600001 -25.909609794600001  0.155388697982 9.5952854156500003 -25.8628368378  1.12301826477 2.0751214027399998 -25.561346054099999  0.83019089698799997 2.25802779198 -25.5658035278  2.2447001934099999 19.225778579699998 -25.780891418500001  0.197581794113 11.880238533 -25.924343109100001  1.1998569965400001 11.415968895000001 -25.915719985999999  0.21981260180500001 10.457783699050001 -25.892332076999999  0.14603550732100001 10.290067672699999 -25.887598037699998  0.0108754998073 10.411229133599999 -25.891130447399998  0.14245800674 1.7537192106199999 -25.540346145600001  4.0796608924899997 17.709224700899998 -25.808237075800001  0.014993400313 21.531797409100001 -25.511665344200001  0.100746497512 21.5110931396 -25.433145523099999  0.036157298833100003 21.563991546600001 -25.365356445300002  0.12379284761824999 6.2131674289699994 -25.7295560837  0.82799720764150009 10.570763587950001 -25.89586639405  0.60141271352799996 10.4187641144 -25.891401290899999  0.51862074434799998 10.95347976685 -25.907658576949999  0.72550365328749999 5.6624228954350002 -25.709272384649999  0.13238155283030001 5.5502972602799998 -25.70286750795  0.1276772506537 5.88245558739 -25.714235305799999  0.474523797631 5.6470067501100001 -25.7074050903  0.1257601492108 6.0475986003899997 -25.7219877243  0.054667599499199998 5.7254538536100004 -25.704746246300001  0.063963301479800005 5.0644264221200004 -25.680454254200001  0.654462993145 5.3397278785699998 -25.695541381799998  0.27574299772600003 3.8539206981633334 -25.627726237000001  0.061559747904550002 4.06114387512 -25.637989997849999  0.079243551939749995 3.8437113761899999 -25.62617301945  0.36640718579300002 4.5483555793799999 -25.659198760999999  0.070124100893699998 4.9218039512600003 -25.673854827900001  0.061945699155300002 5.2283067703199997 -25.687910080000002  0.21618820726900001 4.7249884605399997 -25.665130615199999  0.14406495541359998 4.5681719779950001 -25.658108711250001  1.2531267404599999 4.3090701103200004 -25.653423309299999  0.22247180342699999 4.2350144386300004 -25.646085739099998  0.23040969669799999 3.5869567394300002 -25.619007110599998  0.074408099055300006 4.2481031417799997 -25.645286560100001  0.021061500869107002 9.7792000770550001 -25.867676734900002  0.14606229960904998 4.4053003787999998 -25.650984764100002  0.087523803114900003 3.2759513855 -25.606788635299999  0.090696603059799999 2.95754218102 -25.588567733800001  0.236137002707 3.1044664382899998 -25.5979213715  0.112663000822 1.36431586742 -25.527830123899999  0.90796267986300006 10.212497711199999 -25.885822296099999  0.98549127578499995 10.03113794325 -25.879386901899998  0.33217793703050003 12.958724498750001 -25.932052612299998  0.44888639450099999 10.434342384300001 -25.891798019399999  0.50168886780733335 18.179075876900001 -25.805655797333333  0.29886230826400001 19.223405838000001 -25.7811794281  1.226029142739 16.78133058545 -25.840039253250001  0.010570500046000001 17.827245712300002 -25.815692901599999  0.25721609592400002 1.3558943271599999 -25.523143768299999  0.11422900110500001 1.20817828178 -25.518945693999999  0.11644600331799999 1.0505557060199999 -25.513154983500002  0.260774105787 1.0421874523200001 -25.5085945129  0.118241496384 0.89431947469700002 -25.505407333400001  0.19277005270100001 0.73237460851699998 -25.498706817600002  0.19486109912399999 0.57574826478950003 -25.4927148819  0.24764080345600001 2.14665651321 -25.556743621799999  0.0027743999380600002 9.6118640899700001 -25.8613529205  0.089319249615299995 10.9957137108 -25.9077587128  1.0702488422400001 20.9188861847 -25.579290390000001  0.089175000786800004 3.11643242836 -25.5979690552  0.094876401126400001 2.6373126506800002 -25.5751838684  0.096971496939700003 2.47759008408 -25.568559646600001  0.015858349856000001 8.6660332679700005 -25.82551193235  0.0053642001002999996 9.4384670257599996 -25.8557357788  1.65783715248 11.3671417236 -25.915298461900001  0.70741510391200002 21.004375457799998 -25.695947647099999  0.068115696311000007 21.452199935900001 -25.590805053699999  0.97597241401699997 20.931062698400002 -25.6515026093  0.082746699452399999 3.6000742912299999 -25.617605209400001  0.61418906847666666 15.646267573033333 -25.869671503733333  0.82402652502100004 15.379714012100001 -25.876596450800001  1.2265662749566666 15.612149238600002 -25.868860880566661  0.74335922797533327 16.2218875885 -25.855224609366662  0.25009000301399997 21.261571884199999 -25.663200378399999  1.3157682418800001 20.520923614499999 -25.777111053500001  0.140801995993 10.6413726807 -25.897565841700001  0.2147848531605 10.809438228599999 -25.902617454550001  0.29376459121699999 10.625621795700001 -25.897232055700002  0.104178398848 21.3544197083 -25.657201767  4.7757780551949995 14.334869861600001 -25.893279075599999  4.77492952347 14.1452898979 -25.897706031799999  5.3075173695900002 14.085014979033334 -25.895487467466666  0.067837297916400002 4.73798561096 -25.664878845200001  0.60400110483166669 12.96616141 -25.931917190566665  3.1781334876999998 19.167711257899999 -25.786649703999998  0.080035351216799999 13.830670833599999 -25.920925140400001  0.073454201221499996 14.114644050600001 -25.917078018200002  0.31662295013700004 13.706642627699999 -25.92558956145  1.1629240512800001 20.7456855774 -25.7275257111  1.12502777576 20.8418102264 -25.659938812299998  0.86049729585599999 20.919483184800001 -25.707403183  1.1736416816699999 20.6185112 -25.774192810100001  2.4864799976333334 14.396605491633332 -25.902283350600001  2.3129737377150001 14.8144936562 -25.8897075653  0.046858299523600003 15.0870246887 -25.883338928200001  0.36186608672100001 15.0468072891 -25.8869380951  4.4679245948800004 13.520570039775 -25.912729740149999  4.2402315139800004 13.827154159499999 -25.90883255  4.4838797251366671 13.754937171900002 -25.908641179400004  5.5318179130550007 13.6822681427 -25.9035921097  6.2950851917300001 14.160335540799998 -25.889005660999999  2.4051699638400001 13.4691696167 -25.9250354767  0.21474480629000001 14.676625251800001 -25.8987979889  0.53689777851099996 14.2541303635 -25.910160064700001  1.31903064251 13.971411705 -25.917011260999999  1.9382545153299999 13.900436401366667 -25.916702270499997  2.4032499790199999 13.6578559875 -25.920978546099999  3.8761053681375 13.575404405600001 -25.9154057503  2.4012434482600002 13.847168286633334 -25.91671117146667  0.16321079432999999 13.455747604400001 -25.928100585900001  0.087307699024699995 13.544753074600001 -25.9280719757  0.099189497530500007 12.9862127304 -25.930259704600001  0.114266298711 12.2497367859 -25.9301548004  0.27214190363899998 12.050362587 -25.929454803500001  3.0984884500499996 12.111639022799999 -25.921164512600001  0.0064627998508499998 17.6391925812 -25.820653915400001  0.19414080306895001 16.609376907350001 -25.84683227535  0.36489671468700002 16.077653884899998 -25.8592395782  3 2 0 1  3 4 3 5  3 8 7 6  3 9 10 11  3 14 13 12  3 12 13 6  3 16 15 17  3 20 18 19  3 22 21 23  3 26 25 24  3 27 29 28  3 29 27 30  3 32 31 33  3 34 35 36  3 15 37 38  3 40 39 41  3 42 44 43  3 28 45 46  3 2 48 47  3 47 48 49  3 50 52 51  3 52 50 53  3 54 55 56  3 57 55 54  3 44 42 58  3 60 59 61  3 62 63 53  3 65 66 64  3 68 67 69  3 71 70 72  3 75 73 74  3 77 76 78  3 81 80 79  3 25 26 82  3 82 26 83  3 84 81 85  3 81 84 86  3 87 66 88  3 66 65 89  3 92 91 90  3 49 48 93  3 63 95 94  3 96 98 97  3 99 100 101  3 9 73 10  3 102 103 104  3 105 60 106  3 107 21 22  3 108 6 13  3 109 58 42  3 103 110 104  3 79 85 81  3 5 49 4  3 112 111 1  3 59 60 105  3 113 19 114  3 62 115 63  3 9 117 116  3 116 117 118  3 20 119 99  3 118 89 120  3 89 65 120  3 19 113 121  3 121 113 122  3 123 121 122  3 24 87 124  3 87 125 124  3 126 81 127  3 97 129 128  3 124 26 24  3 82 83 68  3 113 130 122  3 131 133 132  3 133 131 80  3 135 33 134  3 33 136 134  3 99 119 100  3 127 81 86  3 30 27 41  3 137 138 57  3 139 138 137  3 56 140 141  3 55 57 142  3 142 57 138  3 70 71 143  3 144 45 145  3 140 146 141  3 140 56 55  3 136 91 92  3 147 2 47  3 49 147 47  3 43 148 42  3 72 149 150  3 102 107 22  3 110 70 151  3 92 134 136  3 152 23 21  3 119 20 19  3 153 154 155  3 156 128 155  3 155 154 156  3 157 158 90  3 12 7 14  3 18 114 19  3 123 160 159  3 157 160 123  3 88 161 87  3 36 153 162  3 163 36 35  3 89 118 117  3 80 81 164  3 165 166 167  3 166 165 168  3 83 67 68  3 63 115 95  3 29 169 28  3 1 0 170  3 170 0 112  3 112 1 170  3 17 76 16  3 87 161 125  3 87 64 66  3 75 60 61  3 157 171 158  3 172 23 152  3 6 7 12  3 175 174 173  3 96 176 98  3 75 74 177  3 37 68 38  3 178 179 15  3 36 163 153  3 6 34 180  3 49 93 4  3 6 108 34  3 123 171 157  3 155 162 153  3 181 63 94  3 90 158 92  3 132 133 176  3 77 16 76  3 182 134 92  3 175 3 174  3 184 183 73  3 185 186 148  3 168 187 166  3 176 188 98  3 159 121 123  3 60 51 52  3 122 130 123  3 110 151 104  3 167 166 189  3 31 136 33  3 60 52 106  3 190 2 147  3 49 190 147  3 14 191 189  3 77 78 126  3 75 177 60  3 11 192 9  3 75 184 73  3 192 117 9  3 101 100 111  3 193 53 63  3 112 101 111  3 194 3 175  3 195 144 109  3 38 196 15  3 127 77 126  3 48 2 1  3 198 185 197  3 182 135 134  3 70 110 72  3 43 185 148  3 109 144 58  3 45 144 195  3 30 41 149  3 149 41 150  3 102 104 21  3 21 107 102  3 28 199 145  3 200 29 30  3 200 30 149  3 169 201 28  3 150 71 72  3 45 28 145  3 201 199 28  3 173 174 202  3 197 173 198  3 198 173 202  3 175 203 194  3 204 194 203  3 185 198 186  3 194 5 3  3 204 5 194  3 189 13 14  3 180 34 36  3 196 178 15  3 68 69 38  3 15 179 17  3 73 183 10  3 129 155 128  3 167 189 191  3 97 98 205  3 205 129 97  3 52 53 193  3 206 181 94  3 32 206 94  3 33 206 32  3 133 80 164  3 14 7 8  3 188 176 133  3 207 208 209  3 210 208 207  3 211 213 212  3 216 214 215  3 218 217 219  3 221 220 222  3 225 223 224  3 226 227 228  3 219 229 230  3 229 219 231  3 234 232 233  3 236 235 237  3 238 239 240  3 241 239 238  3 243 242 244  3 245 246 247  3 249 248 250  3 251 252 253  3 254 255 256  3 257 228 258  3 261 259 260  3 259 262 260  3 261 263 259  3 264 265 266  3 267 268 269  3 229 270 230  3 271 272 273  3 256 275 274  3 276 277 278  3 279 224 223  3 280 282 281  3 283 274 284  3 259 285 262  3 286 217 218  3 287 289 288  3 265 291 290  3 272 271 292  3 293 295 294  3 210 207 296  3 283 256 274  3 266 297 296  3 298 276 299  3 234 300 235  3 301 264 302  3 304 303 301  3 290 266 265  3 266 290 297  3 265 301 303  3 265 284 305  3 306 307 308  3 305 291 265  3 265 264 301  3 252 251 309  3 233 232 310  3 269 300 267  3 311 313 312  3 211 308 307  3 218 314 286  3 283 303 315  3 311 317 316  3 318 285 259  3 319 218 320  3 240 321 238  3 230 298 218  3 215 322 313  3 323 312 313  3 324 325 326  3 219 217 327  3 234 328 232  3 329 331 330  3 332 207 209  3 333 334 335  3 208 336 209  3 338 209 337  3 209 339 337  3 332 209 340  3 209 336 339  3 337 341 338  3 342 294 295  3 337 336 343  3 339 336 337  3 344 346 345  3 342 347 348  3 295 347 342  3 342 349 294  3 349 337 294  3 348 347 350  3 350 347 351  3 353 293 352  3 347 295 293  3 345 354 344  3 345 355 353  3 254 256 283  3 318 275 255  3 285 356 262  3 357 351 353  3 353 351 347  3 285 318 356  3 347 293 353  3 358 320 278  3 298 299 218  3 359 360 277  3 360 278 277  3 286 361 217  3 362 363 261  3 227 364 228  3 325 324 365  3 366 367 238  3 289 287 368  3 288 369 366  3 305 284 274  3 370 371 361  3 371 373 372  3 373 374 372  3 376 374 375  3 218 276 320  3 299 276 218  3 327 231 219  3 218 219 230  3 230 270 377  3 276 230 377  3 298 230 276  3 377 270 276  3 356 318 378  3 317 311 379  3 261 363 263  3 263 275 318  3 275 263 363  3 330 380 329  3 381 358 360  3 359 381 360  3 383 382 276  3 384 283 315  3 382 277 276  3 276 278 320  3 269 235 300  3 236 234 235  3 385 378 318  3 323 313 386  3 313 216 215  3 387 388 389  3 318 259 263  3 344 354 346  3 354 390 346  3 345 353 354  3 390 354 358  3 358 278 360  3 352 354 353  3 315 303 304  3 256 255 275  3 392 391 393  3 391 394 393  3 287 237 368  3 247 395 245  3 239 396 240  3 245 242 246  3 397 398 399  3 387 400 388  3 401 403 402  3 340 209 338  3 261 260 325  3 255 254 318  3 221 330 331  3 284 265 283  3 254 385 318  3 283 265 303  3 269 368 237  3 268 368 269  3 350 404 348  3 217 231 327  3 251 405 364  3 238 367 241  3 406 236 321  3 388 329 389  3 380 330 221  3 287 366 238  3 400 395 247  3 269 237 235  3 407 408 409  3 400 387 245  3 243 244 410  3 410 244 411  3 236 328 234  3 234 233 300  3 412 389 244  3 239 413 396  3 243 413 239  3 387 389 412  3 412 244 245  3 245 244 242  3 387 412 245  3 395 400 245  3 415 414 279  3 243 246 242  3 239 246 243  3 389 329 380  3 309 251 364  3 416 282 417  3 279 414 224  3 420 418 419  3 225 249 223  3 272 419 273  3 422 421 403  3 251 253 405  3 212 423 211  3 304 301 302  3 353 355 357  3 250 223 249  3 316 214 216  3 416 417 424  3 408 424 425  3 307 405 253  3 281 282 416  3 426 249 225  3 212 427 428  3 212 213 427  3 419 429 273  3 426 427 213  3 427 426 225  3 427 430 428  3 216 313 311  3 423 212 428  3 307 253 211  3 431 252 432  3 213 211 253  3 309 364 433  3 364 227 433  3 228 257 226  3 228 364 405  3 228 405 307  3 434 258 435  3 306 435 258  3 311 312 379  3 228 306 258  3 398 379 335  3 306 228 307  3 308 436 306  3 435 306 436  3 313 322 435  3 386 313 435  3 399 335 365  3 323 386 335  3 399 365 324  3 312 323 335  3 399 398 335  3 362 261 334  3 335 379 312  3 365 261 325  3 324 397 399  3 397 324 326  3 261 365 334  3 335 334 365  3 362 334 333  3 429 419 418  3 311 316 216  3 288 437 369  3 394 438 289  3 368 268 394  3 394 391 439  3 287 238 237  3 368 394 289  3 393 394 268  3 366 287 288  3 438 394 439  3 404 350 351  3 427 225 224  
