ply
format ascii 1.0
comment bbox -27.221857  -25.003712 -10.580158  -5.361041 24.141064  25.944807 
element vertex 398
property double x
property double y
property double z
element face 488
property list uchar int vertex_index
end_header
-26.591176986699999 -5.6727213859600001 24.9398612976  -26.5390281677 -5.5431342124949996 24.836682319649999  -26.529695510900002 -5.6742768287700001 25.0259838104  -26.938121795699999 -8.5718498230000009 24.772941589399998  -26.869935989399998 -8.4668493270899994 24.853015899700001  -26.938979148849999 -8.4619793891900006 24.709469795250001  -27.094806671099999 -9.3312311172500007 25.011993408199999  -27.1600608826 -9.4343566894500004 24.9311847687  -27.1614227295 -9.3270530700700007 24.868787765500002  -26.877910614000001 -6.3679904937699998 25.013463974  -26.904155731199999 -6.2519798278799996 24.903440475499998  -26.8612575531 -6.2575831413299996 25.002344131499999  -26.9447212219 -6.3602864742299996 24.867049217199998  -26.431352615400002 -5.5417137146000002 24.9551849365  -25.083543777500001 -6.3884229660000003 24.8984012604  -25.160556793200001 -6.2047448158299998 24.877824783299999  -25.058910369900001 -6.4214992523200003 24.933797836299998  -26.822402954099999 -8.4698400497400002 24.947355270399999  -26.829294204749999 -8.3608198165900003 24.888797760000003  -26.7607555389 -8.3658504486100007 25.032382965099998  -27.195625305149999 -9.5377917289749998 24.892485618599999  -27.221857070900001 -9.6400060653700006 24.846843719500001  -27.172437667833332 -9.7448212305733311 24.937229156466667  -26.896429061900001 -8.7944316863999994 24.998741149899999  -26.870456695600001 -8.6863088607800005 24.980644226100001  -26.825838089000001 -8.6895656585700003 25.076650619500001  -26.932476043699999 -8.9037141799900006 25.024335861200001  -26.153615951500001 -5.5479984283399997 25.0889854431  -25.434447606399999 -5.8503462473533334 24.497619628899997  -26.2020759583 -5.79064178467 25.367050170900001  -26.892303466800001 -6.47767496109 25.022909164400001  -25.650955200200002 -10.419428825400001 24.646759033199999  -25.446378707866668 -10.193215688066667 24.415768305466667  -25.5513954163 -10.184208869900001 24.199647903399999  -25.476314544699999 -5.9524517059299997 24.312154769900001  -25.546049117999999 -5.6585659980800003 24.4828071594  -26.861440658574999 -7.3657757043849994 24.9242477417  -26.863779067999999 -7.1612510681200003 24.993598937999998  -26.772291183500002 -7.3215799331650002 25.118757247950001  -26.205642700199999 -5.3610410690299997 24.808752059900002  -26.954194386799998 -6.5069753328966664 24.894421895333334  -26.8999595642 -6.5856761932400003 25.0273456573  -27.215497016899999 -9.7936477661150008 24.840479850800001  -27.110078811600001 -9.8479909896900004 25.017667770399999  -27.115283966100002 -9.2218923568700006 24.8996677399  -27.070713043200001 -9.2247371673600007 24.995113372799999  -26.7930927277 -8.2553787231399998 24.928018569900001  -25.071878433199998 -6.4183568954499997 24.902074813799999  -26.7986564636 -6.0291562080399999 24.958347320600001  -26.757165908800001 -5.91200065613 24.9287834167  -26.706483840899999 -5.9160442352300002 25.022361755399999  -26.788999557499999 -8.1496114730800002 24.926210403399999  -26.744248708100002 -8.0481444994599993 25.024062474600001  -26.746520996099999 -8.2586669921899993 25.023151397700001  -27.0884819031 -9.9483194351200002 25.0003490448  -27.167178153999998 -9.9461545944200012 24.866770744299998  -26.922372817999999 -7.0006880760200003 24.908731460599999  -26.884645462049999 -6.9537327289600004 25.011599540700001  -25.2897624969 -10.0986032486 24.842355728099999  -25.203960418699999 -9.9547653198199999 24.943161010699999  -25.294368743900002 -10.0619544983 25.019212722799999  -26.839130401599999 -8.0415687561000002 24.834667205799999  -26.799675623566667 -7.9409656524666659 24.936625162766671  -26.702033996600001 -10.431387901300001 24.834526061999998  -26.556616783149998 -10.427212238300001 24.920128822350001  -26.624273300199999 -10.3331842422 25.035573959400001  -26.7140216827 -10.3354072571 24.973434448199999  -26.832618713399999 -6.1441535949699997 24.982320785500001  -26.751401901200001 -6.0339221954299997 25.0542144775  -25.412681579600001 -10.200108528099999 24.985286712600001  -26.4267444611 -10.327079772899999 25.147329330400002  -26.958909988399999 -10.243265151999999 24.899879455600001  -27.0140342712 -10.1459608078 24.942308425899999  -26.947711944600002 -10.145910263099999 25.021091461200001  -26.887605667100001 -10.2427377701 24.9751300812  -27.0214271545 -9.2269458770800004 25.0868682861  -26.801647186299999 -8.5815267562899997 25.060045242299999  -26.81782341005 -7.1654376983650003 25.089509010299999  -26.6556472778 -5.7963018417400001 24.986143112200001  -25.218111673999999 -6.2206360499033329 24.653767903633337  -26.331710815400001 -6.0302410125700003 25.5287284851  -25.0897140503 -9.6973733901999992 25.110425949100001  -25.0766448975 -9.7104101181000004 24.914806366000001  -25.031915664700001 -9.6077365875199998 25.076347351100001  -25.180713653600002 -9.9349889755199996 24.882596969600002  -26.8770828247 -6.1388087272599998 24.8844032288  -27.13846874235 -10.045852661150001 24.8440284729  -27.056138992299999 -10.047572135899999 24.974985122700001  -26.573984146099999 -6.6021428108200002 25.565114975  -26.3938579559 -5.40646076202 24.7968292236  -27.124269485500001 -9.7468614578199997 25.029441833500002  -25.1929740906 -9.9285917282099998 24.7166023254  -25.128334999100002 -9.7652988433850005 24.626179695099999  -25.0787162781 -9.7013759613000001 24.8463897705  -26.844009399400001 -8.5778360366800008 24.962196350100001  -26.562667846699998 -6.4936637878400001 25.5586051941  -26.776914596600001 -8.4731388092 25.043043136600001  -25.309509277350003 -10.08572626115 24.594769477850001  -25.404592514000001 -10.1838703156 25.001033783  -27.124599456799999 -9.5411815643299995 25.031988143900001  -27.11328125 -9.4367551803600005 25.0246677399  -26.973456064866667 -6.6481410662333333 24.863682428966666  -26.8994550705 -6.744809627535 25.025099754300001  -26.733592033400001 -7.8416693210599995 25.083577156049998  -26.83591175075 -7.7306787967700004 24.900976181049998  -26.765183448800002 -7.6833064556099995 25.044087409999999  -26.60991096495 -6.7085704803499997 25.52516937255  -26.597434997600001 -5.7985882759100003 25.0743255615  -26.520467758199999 -10.3296518326 25.0876235962  -26.835172653200001 -7.0102725029000004 25.1042861938  -26.9372329712 -6.8447005748750005 24.921620368950002  -26.573448181149999 -7.2293531894700003 25.491050720200001  -25.0037117004 -6.62343883514 24.7598590851  -26.64586639405 -7.12497162819 25.416484832800002  -26.754647254950001 -7.4765778779975003 25.103754520424999  -26.9952411652 -10.0480823517 25.057685852100001  -26.217119216899999 -10.580158233600001 24.705377578699999  -25.320520401 -9.9880938529750001 24.382847785949998  -26.8050498962 -10.241112708999999 25.042097091700001  -26.805522918699999 -10.3378047943 24.912799835200001  -25.397237777699999 -10.223792076100001 24.671947479250001  -26.985040664700001 -6.7875437736500004 24.827239990199999  -26.411243438700001 -10.2285242081 25.265365600599999  -27.21884822845 -9.4292974472050002 24.781978607150002  -25.213357925449998 -9.9363737106300007 24.607722282449998  -26.840250015300001 -7.6259348392500002 24.905421257050001  -25.301183700599999 -6.0692138671900002 24.595964431799999  -25.271285057050001 -6.0009622573849999 24.767412185650002  -26.846014976500001 -7.5213906764949998 24.910925865199999  -26.580251693699999 -6.81513404846 25.566398620600001  -26.787706375100001 -6.1493701934800002 25.079710006700001  -26.9769573212 -8.9006042480499996 24.928424835200001  -27.012048721300001 -9.0094976425199995 24.953525543200001  -26.840379715000001 -8.2521924972500003 24.833248138399998  -26.891223907499999 -8.5748739242600003 24.867771148700001  -26.93889427185 -8.6816225051899991 24.837391853349999  -25.371679306000001 -9.9899806976299992 24.200250625599999  -25.245079994199997 -9.8577704429599997 24.314930915849999  -25.095197677600002 -9.6800832748399994 24.592081069900001  -27.035631179799999 -8.7856292724599996 24.714153289799999  -26.967561721800003 -8.7902679443349996 24.8577709198  -27.043621063250001 -8.8959026336649991 24.7841386795  -25.346735000599999 -9.9559307098400005 24.141063690199999  -27.032343864449999 -8.6756587028500007 24.647457122799999  -27.005174636850001 -8.5667791366599992 24.62785434725  -26.4764785767 -10.5207185745 24.7950057983  -26.9939746857 -9.1198024749800002 25.067655563399999  -27.042060852100001 -9.1173601150499994 24.974826812700002  -26.9402036667 -9.0133090019249984 25.093187332150002  -26.5764980316 -6.9200286865200002 25.562099456799999  -26.655764579749999 -7.0213842391949992 25.425166130099999  -26.297636032100002 -6.1448683738699996 25.631572723400001  -27.0214271545 -9.2269458770800004 25.0868682861  -26.991497039799999 -9.3348922729500003 25.191528320300002  -27.043519973799999 -9.3331136703500004 25.1020946503  -26.608551025400001 -10.1382884979 25.2825164795  -26.586971283 -10.039840698200001 25.395500183100001  -26.677156448400002 -10.0423612595 25.3338775635  -26.522743225100001 -5.9204945564300004 25.2792243958  -26.592884063700001 -5.9211468696600003 25.2001476288  -26.5328788757 -5.7993230819699999 25.157796859699999  -27.074680328399999 -9.5431137085 25.1228637695  -27.018623352100001 -9.5442914962799996 25.209058761600001  -27.020782470699999 -9.6473588943500008 25.209388732899999  -26.680679321300001 -6.1557364463799997 25.261352539099999  -26.578414917 -6.0407447814899999 25.318119049100002  -26.640605926500001 -6.0395488739000003 25.233539581300001  -26.6177558899 -6.1567168235800001 25.345167159999999  -26.789911270099999 -10.1432714462 25.1601543427  -26.848676681499999 -10.0465106964 25.204732894900001  -26.770050048800002 -10.045174598699999 25.274440765400001  -26.698406219500001 -10.140691757200001 25.220628738399999  -26.694307327299999 -8.0510206222500003 25.116674423199999  -26.701292037999998 -7.9470825195300003 25.1231651306  -26.650363922099999 -7.9498133659399999 25.214941024800002  -26.9939746857 -9.1198024749800002 25.067655563399999  -26.944704055799999 -9.1220731735200005 25.1594562531  -26.554460525500001 -9.7418546676600002 25.6299285889  -26.582796096799999 -9.6422281265300001 25.651802063000002  -26.493160247799999 -9.6394481658900002 25.7139263153  -26.456884384199999 -9.7382612228400003 25.686468124400001  -26.805767059299999 -6.7004179954499996 25.216291427600002  -26.751031875599999 -6.8089132309 25.304126739499999  -26.8017940521 -6.8055157661400001 25.212005615199999  -26.7536048889 -6.7035756111099998 25.307432174700001  -26.9483966827 -9.4408235549900006 25.286077499400001  -26.957931518599999 -9.5449008941700004 25.291763305700002  -27.033153533949999 -9.4390854835499987 25.1571836472  -26.373859405499999 -8.706017494200001 25.834125518800001  -26.35584545135 -8.5993938445999998 25.823215484649999  -26.464178085299999 -8.65271425247 25.709360122650001  -26.4545688629 -9.1271076202400003 25.821002960200001  -26.363834381099998 -8.9167890548699997 25.886436462399999  -26.450145721399998 -9.0231199264500006 25.819622039799999  -26.366691589399998 -9.0207357406599993 25.886640548700001  -26.6369953156 -6.60131549835 25.482019424400001  -26.573984146099999 -6.6021428108200002 25.565114975  -26.60991096495 -6.7085704803499997 25.52516937255  -27.0884819031 -9.9483194351200002 25.0003490448  -27.031185150100001 -9.94923114777 25.085653305099999  -26.9952411652 -10.0480823517 25.057685852100001  -26.454086303699999 -9.2303342819199994 25.818920135500001  -26.533699035600002 -9.3352737426800001 25.747772216800001  -26.450765609699999 -9.3331108093299999 25.8148365021  -26.5360603333 -9.2324266433699993 25.7511310577  -27.1301612854 -9.6447486877399999 25.0350017548  -27.124599456799999 -9.5411815643299995 25.031988143900001  -26.81782341005 -7.1654376983650003 25.089509010299999  -26.785963058499998 -7.0138850212100001 25.197643280000001  -26.835172653200001 -7.0102725029000004 25.1042861938  -26.643578052525001 -8.8624532222750005 25.517405033124998  -26.7335694631 -8.985205968219999 25.432329813666666  -26.634437560999999 -8.7005357742299996 25.4494838715  -26.8050498962 -10.241112708999999 25.042097091700001  -26.7129745483 -10.2385673523 25.102197647099999  -26.869602203399999 -10.144668579099999 25.091152191199999  -26.829236984249999 -8.7991380691500005 25.142209053050003  -26.932476043699999 -8.9037141799900006 25.024335861200001  -26.825838089000001 -8.6895656585700003 25.076650619500001  -26.6474723816 -9.94332313538 25.4407653809  -26.558601379399999 -9.9408617019700003 25.503345489499999  -26.861130714449999 -8.9076957702650006 25.1644229889  -26.896190643299999 -9.9488449096699991 25.241025924700001  -26.9265022278 -10.0477695465 25.134538650500001  -26.520082473799999 -9.0236654281599993 25.743148803699999  -26.472887992849998 -8.91819190979 25.774439811699999  -26.5678157806 -8.9176187515300001 25.6524734497  -27.11328125 -9.4367551803600005 25.0246677399  -27.094806671099999 -9.3312311172500007 25.011993408199999  -26.508853912399999 -10.134909629799999 25.337488174400001  -26.411243438700001 -10.2285242081 25.265365600599999  -26.497358322099998 -10.037391662599999 25.457738876299999  -26.5267276764 -9.4374742507900002 25.7411384583  -26.596736908 -9.5409717559799994 25.6633872986  -26.512420654300001 -9.53874874115 25.729293823199999  -26.801647186299999 -8.5815267562899997 25.060045242299999  -26.755522727950002 -8.6939177513149986 25.217807769749999  -26.8174667358 -9.9474458694500001 25.3105220795  -26.812170028699999 -9.8477435112000009 25.371588707000001  -26.968116760299999 -9.9495162963899997 25.166610717800001  -26.928356170699999 -9.8497018814100006 25.2660217285  -26.991445541400001 -9.8494148254400002 25.185142517100001  -26.512025833100001 -9.8400287628199994 25.597972869900001  -26.6094818115 -9.8435096740700008 25.541492462200001  -26.6954669952 -9.8457403183000007 25.4769821167  -26.664066314700001 -9.6440420150800001 25.583862304699998  -26.740491867100001 -9.6452960967999992 25.512548446699999  -26.722438812299998 -9.7459964752200001 25.4979896545  -26.6089897156 -9.3364753723099998 25.6753864288  -26.7509422302 -9.127076148985001 25.464173317  -26.838449478099999 -9.1255445480299997 25.3369846344  -26.845731735200001 -6.4822335243199998 25.118629455600001  -26.783407211299998 -6.3769540786699999 25.203981399500002  -26.795106887799999 -6.4858713149999998 25.211200714099999  -26.636407852200001 -6.91862010956 25.476955413799999  -26.655764579749999 -7.0213842391949992 25.425166130099999  -26.6941223145 -6.9167504310599996 25.390161514300001  -26.744248708100002 -8.0481444994599993 25.024062474600001  -26.6914997101 -8.1556034088100002 25.113252639799999  -26.746520996099999 -8.2586669921899993 25.023151397700001  -26.813945770299998 -6.2621474266100003 25.097776412999998  -26.787706375100001 -6.1493701934800002 25.079710006700001  -26.763961792 -6.2660779952999999 25.191074371300001  -26.733592033400001 -7.8416693210599995 25.083577156049998  -26.542036692300002 -8.6685063044233335 25.595586776766666  -26.506496429399999 -6.03965044022 25.395635604900001  -26.4285755157 -6.0371551513700004 25.468889236500001  -26.446256637600001 -5.9183320999099998 25.353744506799998  -26.644668579099999 -9.7446269988999994 25.568353652999999  -26.2703533173 -9.0166091918899998 25.944807052600002  -26.362367630000001 -9.2269887924200003 25.8800010681  -26.352037429799999 -9.3289661407499995 25.870948791499998  -26.660604476900001 -9.1282196044900008 25.589197158800001  -26.673778533899998 -9.2332134246800006 25.5970993042  -26.735754013099999 -9.2327079772899996 25.515144348100002  -26.266643524199999 -8.9124460220300001 25.944078445399999  -26.368835449199999 -9.1244735717799994 25.886343002299999  -25.484764099100001 -9.9679641723600003 25.381515502900001  -25.361171722400002 -9.8418254852300002 25.412899017299999  -25.327503204300001 -9.9179658889799995 25.280050277699999  -25.3195304871 -9.9729175567600006 25.210189819299998  -26.4380817413 -9.4346647262599994 25.804136276200001  -26.906038284300003 -9.3365950584400004 25.320006370550001  -26.886835098300001 -9.4413452148400001 25.368202209500001  -26.352508544900001 -8.8115167617800001 25.8802909851  -26.799890518200002 -9.7473344802900002 25.427495956400001  -26.61472797395 -9.0230793952949995 25.6211414337  -26.698528289799999 -6.8119282722500003 25.3948440552  -26.418748855600001 -9.53541564941 25.788742065400001  -26.3581428528 -5.9134135246300001 25.420003891  -26.331710815400001 -6.0302410125700003 25.5287284851  -26.516166686999998 -10.232279777500001 25.213850021399999  -26.642868042 -7.3288598060599996 25.3470058441  -26.701525688149999 -7.2745196819300002 25.261553764350001  -26.657602310200001 -7.2262234687799998 25.359188079799999  -26.587154388399998 -7.3309879303000001 25.435228347799999  -25.211309433 -9.8064432144199998 25.252038955700002  -25.0897140503 -9.6973733901999992 25.110425949100001  -25.294368743900002 -10.0619544983 25.019212722799999  -26.4629497528 -9.9376878738399999 25.561265945399999  -26.624273300199999 -10.3331842422 25.035573959400001  -26.613809585599999 -10.2353420258 25.157329559299999  -26.828029632549999 -9.2318558692949999 25.391643524199999  -25.438299179099999 -10.1104507446 25.176076889000001  -26.58350753785 -8.5937705040000001 25.477983474750001  -26.7314157486 -8.8041739463800006 25.326889991800002  -26.683815002399999 -8.6980371475199991 25.357618331899999  -26.707691192599999 -8.5874547958399994 25.248374939000001  -26.651418685900001 -5.9190173149099996 25.112573623700001  -26.752754211399999 -8.5842056274399994 25.152883529699999  -26.822851181033332 -8.9823188781733325 25.284863789899997  -26.8925647736 -9.1239461898799998 25.2490005493  -26.9402036667 -9.0133090019249984 25.093187332150002  -26.489533742299997 -8.812214851376666 25.724816640233332  -26.431961059599999 -8.4917402267500002 25.689029693599998  -26.607284545900001 -9.2331275939899999 25.6757926941  -26.528522491499999 -9.1281805038500003 25.747459411600001  -26.8612575531 -6.2575831413299996 25.002344131499999  -27.076313018800001 -9.6461563110400004 25.122869491599999  -26.5764980316 -6.9200286865200002 25.562099456799999  -26.641847610500001 -6.81405210495 25.482427597000001  -26.947711944600002 -10.145910263099999 25.021091461200001  -26.832685470600001 -6.3729410171499996 25.1103038788  -26.892303466800001 -6.47767496109 25.022909164400001  -26.398212432899999 -6.1525435447700003 25.574459075899998  -26.297636032100002 -6.1448683738699996 25.631572723400001  -26.706483840899999 -5.9160442352300002 25.022361755399999  -26.597434997600001 -5.7985882759100003 25.0743255615  -26.529695510900002 -5.6742768287700001 25.0259838104  -26.153615951500001 -5.5479984283399997 25.0889854431  -26.2020759583 -5.79064178467 25.367050170900001  -26.457111358599999 -5.7973370552099999 25.2331085205  -26.802669525100001 -6.5937008857699997 25.215383529699999  -26.944719314549999 -9.2298736572249993 25.222173690799998  -26.8119907379 -9.3371896743799994 25.4420795441  -27.053768158 -9.8490400314300004 25.1036701202  -26.751401901200001 -6.0339221954299997 25.0542144775  -26.698493957499998 -6.0373306274400003 25.145755767800001  -26.7346057892 -6.1526565551800001 25.170892715499999  -26.729873657199999 -6.3799905777000001 25.294395446799999  -26.745712280300001 -6.4897651672399999 25.304527282700001  -26.708826065099998 -6.2688121795700003 25.280464172399999  -26.580251693699999 -6.81513404846 25.566398620600001  -26.562667846699998 -6.4936637878400001 25.5586051941  -26.544588089000001 -6.3834939003000004 25.547246933  -26.816856384299999 -9.6465473174999996 25.441278457599999  -26.877109527599998 -9.7486524581899996 25.3569297791  -26.520467758199999 -10.3296518326 25.0876235962  -26.655290603600001 -7.8455209732100002 25.2199573517  -26.714717865000001 -7.73896217346 25.135751724199999  -26.6624584198 -7.7415685653699997 25.226613998400001  -26.676221847499999 -9.5426225662200004 25.594163894699999  -27.110078811600001 -9.8479909896900004 25.017667770399999  -25.404592514000001 -10.1838703156 25.001033783  -27.011840820300002 -9.7490415573100009 25.201505660999999  -26.765183448800002 -7.6833064556099995 25.044087409999999  -26.7337722778 -9.9455194473299997 25.376510620099999  -26.768129348750001 -7.1688592433949996 25.182492256149999  -26.772291183500002 -7.3215799331650002 25.118757247950001  -26.9455547333 -9.7489700317400008 25.280002593999999  -26.852430343599998 -6.5899424552900001 25.122268676800001  -27.124269485500001 -9.7468614578199997 25.029441833500002  -26.605146408100001 -9.4390316009500008 25.671018600499998  -26.796741485599998 -6.9103178977999997 25.206926345799999  -26.845220565799998 -6.9064898490899997 25.113018035900001  -26.887620925899999 -9.6471452712999994 25.3660030365  -26.893447876 -9.5450477600100001 25.371652603099999  -26.822134017900002 -9.5443687438999998 25.446561813399999  -26.9557743073 -9.6474370956400008 25.288850784299999  -26.821006774899999 -9.4413337707499991 25.447187423700001  -26.852107048050001 -6.7490007877349996 25.120068550150002  -26.728262901299999 -7.0685939788800001 25.283932685850001  -26.64586639405 -7.12497162819 25.416484832800002  -26.699512481700001 -6.7063059806799998 25.397047042800001  -26.2604160309 -8.80780410767 25.941598892199998  -26.6269512177 -6.4930920600900004 25.476322174100002  -26.481910705600001 -6.1563563346899999 25.5055217743  -26.552667617800001 -6.1571917533900002 25.4273872375  -26.5173225403 -6.2710099220300002 25.529302597000001  -26.587680816700001 -6.2717671394299996 25.451091766400001  -26.609539032000001 -6.3830466270399997 25.465309143100001  -26.6712474823 -6.3818678855900002 25.380998611500001  -26.646511077900001 -6.2698950767500001 25.364540100100001  -26.6879673004 -6.4917945861800002 25.391645431499999  -26.694656372099999 -6.5993189811699997 25.395009994500001  -26.750913619999999 -6.5970077514599996 25.3068962097  -25.4114131927 -10.125848770099999 25.122655868500001  -26.877910614000001 -6.3679904937699998 25.013463974  -26.602231979399999 -7.8479232788099997 25.3100910187  -26.884645462049999 -6.9537327289600004 25.011599540700001  -26.681848526 -7.42902135849 25.2450447083  -26.754647254950001 -7.4765778779975003 25.103754520424999  -26.8994550705 -6.744809627535 25.025099754300001  -26.643453598000001 -8.0537061691300007 25.208473205600001  -26.743505477900001 -6.9131407737700004 25.2972011566  -26.720457076999999 -7.6346454620399999 25.141328811600001  -26.8999595642 -6.5856761932400003 25.0273456573  -26.669523239099998 -7.5321617126499998 25.2346172333  3 2 1 0  3 3 4 5  3 6 8 7  3 11 10 9  3 9 10 12  3 13 1 2  3 14 16 15  3 18 17 19  3 20 21 22  3 23 25 24  3 25 23 26  3 26 23 24  3 28 27 29  3 12 30 9  3 31 33 32  3 35 28 34  3 28 35 27  3 36 38 37  3 35 39 27  3 41 30 40  3 43 22 42  3 44 6 45  3 18 19 46  3 47 16 14  3 40 30 12  3 48 50 49  3 51 53 52  3 55 54 43  3 56 37 57  3 59 60 58  3 61 52 62  3 52 61 51  3 64 65 63  3 65 66 63  3 48 67 68  3 69 70 31  3 72 71 73  3 73 71 74  3 75 45 6  3 24 25 76  3 38 77 37  3 49 50 78  3 15 79 29  3 29 80 15  3 82 83 81  3 81 84 82  3 85 11 67  3 86 87 54  3 54 55 86  3 47 14 88  3 39 89 27  3 89 13 27  3 90 22 43  3 91 92 93  3 48 68 50  3 94 24 76  3 95 88 14  3 94 76 96  3 97 98 69  3 98 97 58  3 20 22 99  3 99 7 20  3 100 7 99  3 90 99 22  3 101 102 41  3 105 104 103  3 106 47 88  3 103 62 52  3 78 50 107  3 2 27 13  3 64 70 108  3 108 65 64  3 41 40 101  3 77 109 37  3 43 42 55  3 56 57 110  3 112 113 111  3 10 11 85  3 38 36 114  3 57 102 110  3 115 54 87  3 116 31 70  3 32 117 97  3 118 66 65  3 115 87 73  3 73 87 72  3 7 100 6  3 118 73 74  3 74 119 118  3 119 66 118  3 120 69 31  3 69 120 97  3 121 110 102  3 102 101 121  3 69 98 122  3 8 123 7  3 124 91 97  3 105 125 104  3 60 98 58  3 29 79 126  3 126 79 127  3 91 58 97  3 124 92 91  3 124 97 117  3 17 96 19  3 125 105 128  3 47 106 129  3 11 130 67  3 78 107 2  3 2 0 78  3 46 19 53  3 103 104 62  3 68 67 130  3 128 114 36  3 132 26 131  3 133 18 46  3 4 17 18  3 3 134 4  3 17 4 134  3 17 134 94  3 94 96 17  3 24 94 134  3 134 135 24  3 136 137 117  3 92 138 93  3 139 141 140  3 131 140 141  3 142 137 136  3 140 135 139  3 135 143 139  3 3 144 143  3 135 3 143  3 3 135 134  3 51 46 53  3 131 26 24  3 57 37 109  3 69 122 70  3 6 44 8  3 145 116 70  3 70 64 145  3 146 45 75  3 45 146 147  3 26 132 148  3 93 83 82  3 59 84 81  3 105 114 128  3 132 147 146  3 146 148 132  3 129 149 47  3 112 149 150  3 149 112 47  3 112 150 113  3 80 151 15  3 95 15 151  3 95 14 15  3 126 28 29  3 81 60 59  3 152 154 153  3 156 157 155  3 160 159 158  3 163 162 161  3 164 165 166  3 167 165 164  3 169 168 170  3 170 168 171  3 172 174 173  3 176 175 152  3 178 177 179  3 179 177 180  3 182 181 183  3 181 182 184  3 186 185 162  3 185 187 162  3 189 190 188  3 191 192 193  3 194 192 191  3 195 197 196  3 199 198 200  3 203 201 202  3 201 204 202  3 205 161 206  3 207 208 209  3 211 210 212  3 213 214 215  3 216 218 217  3 156 220 219  3 221 216 217  3 222 223 169  3 224 225 226  3 227 154 228  3 231 229 230  3 232 233 234  3 235 218 236  3 222 237 238  3 200 223 239  3 227 161 187  3 161 227 206  3 222 240 239  3 240 241 239  3 242 177 243  3 234 233 178  3 243 244 219  3 245 246 247  3 248 202 204  3 250 249 211  3 251 253 252  3 254 256 255  3 165 159 166  3 257 259 258  3 260 262 261  3 173 263 257  3 239 223 222  3 226 190 264  3 267 265 266  3 191 204 201  3 247 244 268  3 178 268 177  3 179 234 178  3 269 270 271  3 272 274 273  3 275 192 269  3 269 192 194  3 274 272 249  3 201 276 191  3 277 279 278  3 279 277 280  3 194 191 276  3 203 281 271  3 276 269 194  3 185 283 282  3 193 284 225  3 284 193 192  3 247 285 244  3 244 285 238  3 224 226 286  3 182 256 287  3 271 281 288  3 290 289 266  3 291 229 155  3 220 156 231  3 292 294 293  3 292 295 294  3 281 203 232  3 203 202 232  3 296 298 297  3 234 281 232  3 288 281 234  3 242 243 299  3 243 220 299  3 177 242 180  3 300 214 213  3 155 301 291  3 278 279 296  3 296 279 280  3 231 230 299  3 302 274 249  3 153 187 185  3 227 187 154  3 303 277 230  3 264 304 212  3 264 212 210  3 305 212 306  3 236 305 306  3 236 306 307  3 159 308 166  3 236 307 309  3 236 218 216  3 310 305 221  3 250 310 311  3 302 249 250  3 221 217 312  3 211 286 210  3 210 286 226  3 210 226 264  3 226 225 313  3 188 190 313  3 190 314 264  3 316 315 204  3 204 315 248  3 317 260 261  3 280 277 303  3 318 161 205  3 319 320 254  3 318 163 161  3 321 215 200  3 154 187 153  3 187 161 162  3 322 323 251  3 316 193 224  3 325 290 324  3 290 266 324  3 326 308 327  3 328 327 329  3 330 329 331  3 251 332 253  3 333 176 152  3 333 152 153  3 250 333 282  3 274 302 334  3 334 302 282  3 199 335 198  3 178 233 245  3 268 244 243  3 261 337 336  3 331 160 158  3 261 338 337  3 262 338 261  3 336 337 326  3 252 340 339  3 339 262 252  3 164 262 341  3 341 262 339  3 199 241 335  3 312 310 221  3 260 322 252  3 282 302 250  3 249 286 211  3 249 272 286  3 312 175 176  3 221 236 216  3 239 241 199  3 320 319 342  3 245 268 178  3 325 344 343  3 176 310 312  3 340 253 332  3 285 345 346  3 285 246 345  3 265 158 165  3 165 158 159  3 267 266 289  3 158 265 267  3 247 268 245  3 300 347 301  3 153 282 333  3 348 350 349  3 260 252 262  3 237 169 170  3 351 246 245  3 335 352 198  3 322 260 317  3 300 301 214  3 346 238 285  3 220 231 299  3 188 313 225  3 247 246 285  3 169 237 222  3 353 303 230  3 240 354 241  3 349 355 263  3 245 233 351  3 244 356 219  3 284 188 225  3 357 358 293  3 276 270 269  3 160 327 159  3 346 240 238  3 240 359 354  3 238 240 222  3 359 240 346  3 251 360 332  3 326 337 308  3 170 356 237  3 220 243 219  3 179 288 234  3 177 268 243  3 169 223 215  3 254 320 256  3 361 205 206  3 232 362 233  3 363 183 364  3 239 199 200  3 215 168 169  3 152 228 154  3 263 348 349  3 313 190 226  3 287 256 320  3 321 213 215  3 250 211 310  3 250 311 333  3 311 176 333  3 176 311 310  3 305 236 221  3 185 282 153  3 365 345 366  3 366 345 367  3 346 345 365  3 365 359 346  3 365 368 359  3 369 334 283  3 282 283 334  3 337 164 166  3 337 166 308  3 159 327 308  3 181 370 183  3 371 294 372  3 371 372 255  3 329 327 160  3 331 329 160  3 164 338 262  3 338 164 337  3 197 195 373  3 192 275 374  3 342 197 320  3 320 197 373  3 195 196 375  3 375 196 343  3 324 266 376  3 376 266 265  3 377 376 265  3 376 377 378  3 379 378 377  3 378 379 344  3 380 344 379  3 343 344 380  3 375 343 380  3 380 381 375  3 379 381 380  3 379 382 381  3 382 341 381  3 339 381 341  3 339 383 381  3 340 383 339  3 383 340 384  3 385 384 340  3 384 385 373  3 373 385 184  3 385 181 184  3 340 332 385  3 182 287 184  3 184 287 373  3 320 373 287  3 195 384 373  3 384 195 383  3 195 375 383  3 381 383 375  3 164 341 382  3 165 167 377  3 377 167 379  3 265 165 377  3 296 280 298  3 353 298 386  3 322 251 252  3 363 364 209  3 387 322 317  3 348 388 350  3 371 255 256  3 172 173 257  3 364 183 370  3 209 364 389  3 358 390 293  3 391 390 358  3 254 255 319  3 183 363 182  3 387 323 322  3 364 392 389  3 364 370 392  3 363 209 208  3 172 393 174  3 256 394 371  3 182 394 256  3 182 363 394  3 391 355 395  3 357 294 371  3 208 357 371  3 394 208 371  3 208 394 363  3 357 208 207  3 293 294 357  3 390 292 293  3 193 225 224  3 349 395 355  3 360 396 392  3 174 348 173  3 348 263 173  3 172 257 258  3 386 303 353  3 309 235 236  3 323 396 251  3 396 360 251  3 360 181 332  3 181 385 332  3 360 370 181  3 340 252 253  3 360 392 370  3 357 207 358  3 395 397 391  3 397 390 391  
