ply
format ascii 1.0
comment bbox 19.929730  21.089656 0.010194  0.229752 -25.663228  -25.643469 
element vertex 6
property double x
property double y
property double z
element face 2
property list uchar int vertex_index
end_header
20.065561294550001 0.22975235432399999 -25.648103714000001  20.178621292099997 0.069671351462600006 -25.6470890045  19.929730415350001 0.16695115342719999 -25.643468856799998  20.834427833550002 0.16378960013400001 -25.659023284900002  21.089655876150001 0.14156419783849999 -25.663228034950002  20.882608413700002 0.010194499976899999 -25.656116485599998  3 0 1 2  3 3 4 5  
