ply
format ascii 1.0
comment bbox -30.571053  -19.622282 -20.605724  -0.144828 -25.631115  -15.336320 
element vertex 399
property double x
property double y
property double z
element face 529
property list uchar int vertex_index
end_header
-22.1348543167 -10.56751966475 -25.3337173462  -22.527515411400003 -10.377661705 -25.333011627200001  -22.617383956899999 -10.633257865899999 -25.321489334100001  -22.228136062600001 -10.824420929 -25.322320938099999  -21.818874994933335 -7.3208448092166662 -25.435184478766669  -22.013467788699998 -7.8101241588550003 -25.419407844550001  -21.548554738366665 -7.8844455083199998 -25.421487172433334  -24.5784988403 -8.5227155685400007 -25.365669250500002  -24.66441440585 -8.7855682373050001 -25.355290412900001  -25.015260696399999 -8.5307569503800007 -25.359615325899998  -21.530336380000001 -12.7374515533 -25.261131286600001  -21.8945379257 -12.45829486845 -25.26504325865  -22.010631561300002 -12.78018140795 -25.249320983899999  -21.135273933400001 -9.298068523405 -25.385641098000001  -20.580398559566664 -9.1927448908466669 -25.393664042166666  -20.970957756000001 -8.9152011871300001 -25.39758872985  -24.5889034271 -19.816993713399999 -25.114448547399999  -24.928285598799999 -19.510978698700001 -25.131017684900002  -25.024372100800001 -19.655649185200001 -25.133506774899999  -24.689083099400001 -19.961952209500001 -25.1174182892  -24.082504272450002 -6.9918580055249997 -25.42720031735  -24.205807685849997 -7.3622219562550004 -25.413135528600002  -23.714385986300002 -7.2481689453099998 -25.422771453900001  -23.0551795959 -10.609436988800001 -25.3122348785  -22.97205638885 -10.358417510999999 -25.324275016800001  -23.410569191 -10.3401741982 -25.315850257850002  -21.933511734033335 -8.8411626815800002 -25.389710744233337  -22.121747016900002 -9.3083515167250006 -25.374252319349999  -21.632713317899999 -9.3031024932849995 -25.379858970649998  -21.9747047424 -6.4576909542049998 -25.458851814300001  -22.1732076009 -6.9594953854866661 -25.443453470866668  -22.524574915566664 -6.5994332631433323 -25.451525370266666  -24.893608093299999 -20.2509536743 -25.124402999899999  -24.792680740400002 -20.1073989868 -25.1210823059  -25.170983314499999 -19.87199687955 -25.13788223265  -22.655192375200002 -8.2131061554000002 -25.4016618729  -22.166696548449998 -8.1954832077000006 -25.406974792500002  -22.5477333069 -7.93003416061 -25.411426544200001  -23.776760101299999 -7.4332885742199997 -25.415567398099999  -21.6823387146 -11.883055687000001 -25.292068481400001  -22.106136321999998 -11.7702908516 -25.287854194650002  -21.617450714099999 -11.7145652771 -25.299365997300001  -21.621839523349998 -6.8242824077600002 -25.4513015747  -21.4996051788 -6.52060413361 -25.460748672499999  -21.1826105118 -6.9902153015149997 -25.449753761299998  -23.903030395550001 -10.492801666249999 -25.301096916200002  -24.336589813250001 -10.480779171 -25.294734001149997  -24.0087709427 -10.82131052015 -25.285855293250002  -24.418495178200001 -10.7288188934 -25.284196853600001  -24.704217910800001 -1.9389907121700001 -25.580572128299998  -24.771848678600001 -2.1529321670499999 -25.5735797882  -25.160936355600001 -1.9230477213849999 -25.579670906099999  -21.0358886719 -7.8621945381199998 -25.426752090499999  -21.345872878999998 -7.3905911445600001 -25.436962127699999  -23.210779190099998 -9.7453298568700006 -25.342580795300002  -23.6836776733 -9.8219447135899998 -25.331397056550003  -23.598718643200002 -9.5656137466400004 -25.342699050899999  -22.362339973449998 -7.4490330219300001 -25.427352905249997  -21.805541992199998 -12.2140169144 -25.276771545399999  -22.22391319275 -12.09839868545 -25.272340774550003  -24.4113038381 -1.0519354542093333 -25.606297810866668  -24.9154338837 -1.1573314666700001 -25.6023254395  -24.597050666800001 -1.6108093261700001 -25.590403556849999  -24.70653820035 -7.5571722984300003 -25.398579597499999  -24.292846679699998 -7.6338748931899998 -25.401973724400001  -24.622528076199998 -7.2877368926999999 -25.409721374499998  -22.71361446385 -12.222106933599999 -25.255217552200001  -23.034687042249999 -11.8661904335 -25.262118339499999  -22.633701324499999 -11.9826784134 -25.267463684100001  -24.473564147899999 -10.8935117722 -25.2773685455  -24.5228443146 -11.053752899199999 -25.269676208500002  -24.091753006000001 -11.068254470799999 -25.275241851800001  -20.605947494500001 -6.8499951362599996 -25.457220077500001  -20.693086624100001 -7.0552320480299997 -25.451034545900001  -20.145971298199999 -7.0146780014000001 -25.4547634125  -24.140859603900001 -11.227991104099999 -25.267272949199999  -23.683419227599998 -11.1663775444 -25.277611732499999  -22.7291889191 -9.6674056053150004 -25.35410404205  -22.853675842299999 -10.016427516955 -25.339468002349999  -22.905193328900001 -14.0551700592 -25.174991607700001  -22.826403617849998 -13.827441215499999 -25.1864347458  -22.48119481403333 -14.104830423966666 -25.182988484700001  -23.870281219500001 -5.0012154579199999 -25.494401931799999  -23.518317540466665 -5.3478760719333343 -25.485439300533333  -23.941473007199999 -5.2033929824799996 -25.488088607800002  -23.858787536599998 -0.83137381076799999 -25.6136302948  -24.049968719500001 -1.39685300986 -25.597286224366666  -23.062554359450001 -6.7386450767550006 -25.444353103650002  -23.204905509949999 -7.1258475780500001 -25.43143558505  -23.584274292 -6.8713970184299997 -25.4366531372  -21.743400573750002 -8.3674597740149999 -25.405559539799999  -21.278448104900001 -8.4474296569800007 -25.407741546600001  -21.1972541809 -8.2530765533399997 -25.413906097400002  -23.2689266205 -12.577546119699999 -25.226337432899999  -23.218095779399999 -12.421381950400001 -25.234331131000001  -22.820610046350001 -12.53932619095 -25.239249229449999  -24.3497447968 -2.2826581001299999 -25.571760177600002  -22.561361312900001 -9.2187185287499993 -25.3710803986  -22.6298484802 -9.3997488021900004 -25.364414215099998  -22.263418197649997 -9.6722192764250003 -25.36105918885  -21.895330429099999 -9.9478902816799994 -25.357845306400002  -22.401279449499999 -10.030251979815 -25.347718238799999  -24.221798896750002 -0.48316903412349999 -25.622351646399999  -24.770807266199999 -0.70979160070400005 -25.615266799899999  -24.720996856700001 -6.20589828491 -25.446653366100001  -24.777181625400001 -6.3905925750700003 -25.439006805399998  -24.2977924347 -6.2708399295800001 -25.449845314000001  -21.8543491364 -6.1527547836299998 -25.468275070200001  -22.3715248108 -6.1994509697 -25.464221954300001  -25.068788528399999 -8.7033157348600003 -25.352411270099999  -22.579023361200001 -11.8213167191 -25.275527954099999  -23.607440948499999 -1.5180660486199999 -25.594509124733332  -23.7971286774 -6.1400785446199997 -25.459100723300001  -24.203655242899998 -5.9848718643199996 -25.460422515899999  -23.896159172049998 -6.42887187004 -25.448849678049999  -24.802208900449997 -3.655215620995 -25.529094696050002  -24.248263359100001 -3.376442193985 -25.540371894850001  -24.390516281099998 -3.7953673601149998 -25.5276041031  -24.633658727033332 -3.1368540128099998 -25.5458094279  -24.237957954399999 -1.9530629515649998 -25.581194877649999  -23.804229736349999 -2.0801180005050002 -25.578898429900001  -24.536001205449999 -7.0143773555750002 -25.420699119600002  -25.005073547399999 -7.1235728263900002 -25.409910201999999  -24.458835601799997 -2.6072140932100001 -25.562214851349999  -24.8788404465 -2.4767946004849999 -25.56420040135  -22.713063240049998 -7.09257745743 -25.4358205795  -23.477799097733328 -2.5367674827566664 -25.566338221233334  -22.90810489655 -2.329315662385 -25.572484016399997  -23.279692649799998 -1.9801352620099999 -25.582085609450001  -23.0319824219 -2.66582751274 -25.563325882000001  -23.958058357250003 -2.5214867591850001 -25.5664587021  -24.819403648399998 -7.9143879413600002 -25.3841810226  -24.350528717 -7.8136410713200002 -25.394609451299999  -23.161815643299999 -1.64373421669 -25.592071533199999  -23.407209396399999 -0.94643434881900013 -25.610364913950001  -24.841211318999999 -0.93230801820800002 -25.608436584500001  -23.036944389349998 -1.2983994483950001 -25.601342201249999  -23.4197673798 -9.04149150848 -25.364543914799999  -23.4844341278 -9.2203750610400004 -25.3579540253  -23.060153007499999 -9.3093290328999991 -25.361175537099999  -21.116786956799999 -8.0582551956199993 -25.420299530000001  -25.324625015300001 -5.3299632072399996 -25.4693660736  -24.8788833618 -5.2943263053900003 -25.476636886600001  -25.2398490906 -5.045253276825 -25.480564117450001  -22.973670005799999 -5.1858315467800002 -25.491739273100002  -23.336009025549998 -4.8390951156649997 -25.501547813400002  -23.0897731781 -5.49479436874 -25.482671737699999  -24.04079437255 -5.4988353252450004 -25.477679252649999  -23.6944894791 -5.8462467193599998 -25.469061851500001  -22.659844398499999 -4.3478143215199996 -25.516603469850001  -23.141296386699999 -4.3141508102400001 -25.516525268599999  -22.820128440849999 -4.7715108394649999 -25.504429817199998  -23.220132827800001 -4.5257091522200001 -25.510580062900001  -21.3222360611 -10.944787502300001 -25.332983970649998  -20.82648849485 -10.954010486600001 -25.338142394999998  -21.17687416075 -10.5891122818 -25.34648799895  -24.934608459499998 -4.0632554292650003 -25.51586437225  -24.528564453100003 -4.2067668437950001 -25.514642715499999  -23.614740371700002 -4.2806341648099995 -25.516449928299998  -24.010005950899998 -4.04165792465 -25.5229053497  -24.113073348999997 -4.3482644557950003 -25.512697219850001  -23.7280845642 -4.5941061973600004 -25.5074043274  -23.022363662750003 -3.9941852092699999 -25.525591850250002  -23.467094421349998 -3.8621354103050001 -25.52944755555  -24.283218383766666 -4.8531306584666671 -25.495995839433334  -23.798423767100001 -4.79753541946 -25.500728607199999  -24.657941818250002 -4.6070778369899994 -25.500762939449999  -21.013151168850001 -6.5815644264199999 -25.4621515274  -21.373513221749999 -6.2116682529449996 -25.469947814899999  -20.887859344500001 -6.27381706238 -25.4720306396  -24.951368331899999 -6.9440784454299997 -25.417568206799999  -25.382914861033331 -6.9605259895333331 -25.410042444866665  -20.9500656128 -7.6618700027499997 -25.432611465499999  -24.011445999149998 -9.4741034507750008 -25.33926677705  -22.537271499599999 -4.0255546569799998 -25.525701522799999  -21.065391540499999 -10.3187665939 -25.3565273285  -20.67764759065 -10.595745086699999 -25.35194396975  -23.7935190201 -10.158954143550002 -25.316090583799998  -23.299738883949999 -10.003506660485002 -25.331515312199997  -24.826852798449998 -10.640235900899999 -25.283290862999998  -23.8398895264 -7.6181120872500001 -25.4085865021  -23.404646873499999 -7.6899247169449998 -25.410758018499997  -20.284662246700002 -7.326283454895 -25.446173667899998  -25.0282249451 -4.3620820045500004 -25.505311965899999  -25.173370361300002 -11.691230773899999 -25.240524292  -24.705166816750001 -11.61535787585 -25.245059013400002  -25.1178970337 -11.5301189423 -25.246500015300001  -25.274534225499998 -6.5991144180300001 -25.424730300899999  -23.786066055300001 -3.4066259860999999 -25.541395187399999  -23.273769378699999 -3.3261404037500002 -25.545034408599999  -23.672180175800001 -3.0838762521699996 -25.550775527950002  -21.765773773199999 -10.8430700302 -25.329969406099998  -21.422725677500001 -11.204428672800001 -25.321851730300001  -24.784083366399997 -5.0010020732849991 -25.486805915849999  -24.104994773900003 -2.9526041746100002 -25.55345821385  -21.2471637726 -5.9005069732699997 -25.4793682098  -24.416427612349999 -6.6439409256000008 -25.43499469755  -22.39174556735 -12.58014535905 -25.248397827150001  -22.499552726749997 -12.895547866849999 -25.232247352599998  -25.0560970306 -1.5968812704099999 -25.5892524719  -24.464502970400002 -8.1694978078233333 -25.379976908366668  -24.928764343299999 -8.2658510208100004 -25.369590759299999  -21.7865114212 -9.6751799583449998 -25.367676734950003  -24.447704315199999 -5.3479194641149999 -25.479054450950002  -22.277456283599999 -8.4793834686299991 -25.397314071699999  -24.986181259199999 -1.37802171707 -25.595794677699999  -23.152778625500002 -9.5730447769199998 -25.350292205799999  -23.5411987305 -9.3931226730299997 -25.350219726599999  -23.237442016599999 -5.8973256746933336 -25.4699707031  -23.447538375866667 -6.4858516057366664 -25.449974060066666  -24.881169319150001 -9.4695644378649995 -25.326590538049999  -24.772627830499999 -9.1289615631099998 -25.3407316208  -25.281829198200001 -9.3849747975666684 -25.324349721299999  -23.4080915451 -11.67345142365 -25.261329650850001  -22.928623199500002 -11.544462203950001 -25.278272628750003  -25.128868102999999 -0.37004950642599999 -25.62433815  -25.23617744445 -0.70770865678799999 -25.61474609375  -23.759449005099999 -11.4072132111 -25.265628814700001  -23.989927291899999 -6.7118887901299997 -25.437988281199999  -23.649961471600001 -7.0606856346100004 -25.4297580719  -24.662321090700001 -6.0184082984899998 -25.453998565700001  -25.080031394949998 -5.9544122219099993 -25.450630187999998  -24.993810653699999 -5.6728439331100002 -25.461616516100001  -22.858979225150001 -7.4792091846500002 -25.423059463500003  -22.881351470933335 -6.2468117078133334 -25.460667292300002  -22.899198532100002 -12.774591445900001 -25.227230072000001  -20.823200225800001 -7.3606522083300003 -25.441928863499999  -23.165124893200002 -12.2632980347 -25.2420692444  -23.1140861511 -12.1056699753 -25.250200271600001  -23.305215835550001 -11.352735042599999 -25.277500152599998  -22.79036076866667 -11.1347735723 -25.298093795766665  -22.581792831400001 -13.131171226499999 -25.220571517900002  -22.151089350399999 -13.175887743666669 -25.229480107600001  -20.787996292100001 -9.669400215145 -25.37846374515  -21.2540416718 -9.5800752639799995 -25.376321792599999  -20.94767856595 -10.042471408855 -25.365931510900001  -21.370832443250002 -9.858575820925001 -25.367004394550001  -21.519618988049999 -10.22267341615 -25.353931426999999  -21.521257400499998 -11.4609513283 -25.310683250449998  -21.0060653687 -11.3934545517 -25.3205432892  -23.166864395133334 -10.941751162199999 -25.296681722033338  -23.494358062700002 -10.5912570953 -25.304437637300001  -23.548063278200001 -10.7563009262 -25.2966079712  -23.926700592 -9.2159986495999995 -25.350349426299999  -24.39338588715 -9.3000879287700009 -25.339885711649998  -24.283102989150002 -8.9562711715699983 -25.354632377649999  -24.195493698100002 -8.6930532455399998 -25.3651390076  -23.840994834900002 -8.9553103446950004 -25.361514091499998  -24.049794197099999 -8.2503566741950003 -25.383216857899999  -23.658906936649998 -8.421403884890001 -25.382783889799999  -24.135713577299999 -8.5155496597300004 -25.372053146399999  -23.931379318200001 -7.8913450241100005 -25.397814750649999  -22.493029594399999 -11.575505733450001 -25.287187576299999  -21.98907089235 -11.4396839142 -25.303852081300001  -25.335548400850001 -3.9211947917899996 -25.517025947600001  -21.664004325850001 -10.58063268665 -25.340644836400003  -22.035057067899999 -10.3050279617 -25.344326019299999  -24.891983032199999 -6.7593936920199997 -25.424402236900001  -23.89794921875 -3.7250961065300001 -25.532015800450001  -21.436362584433329 -8.8300784428900005 -25.395154953000002  -20.591943740800001 -8.0339231491100005 -25.424909591700001  -25.162908554099999 -6.2316274642899998 -25.439300537099999  -24.5827178955 -9.8921060562100003 -25.314353942899999  -24.149095535299999 -9.8983211517300003 -25.320653915400001  -24.529560089099999 -9.7245540618900002 -25.321685791  -24.476102828999998 -9.5560607910200002 -25.329057693500001  -24.0942230225 -9.7293586731000001 -25.328056335399999  -22.9531822205 -12.931440353399999 -25.219585418699999  -22.928107261649998 -8.9493026733400001 -25.374699592600003  -22.492555618299999 -9.0366296768200005 -25.3778057098  -24.1923713684 -11.388562202499999 -25.259782791100001  -24.573238372799999 -11.214024543800001 -25.262252807599999  -24.626695632899999 -11.3755550385 -25.255418777500001  -21.861820220950001 -11.100075721749999 -25.3186855316  -24.601463317899999 -5.8283352851899997 -25.461097717299999  -23.306146621700002 -7.4099702835099999 -25.4211750031  -23.347507476800001 -12.81180763245 -25.2148914337  -24.981058120699998 -2.7943243980400001 -25.5543041229  -25.292684555050002 -2.347135663035 -25.5660114288  -25.119289398199999 -4.6564629077899999 -25.494615554799999  -25.149323463449999 -8.9608078002950009 -25.3418264389  -25.197563171399999 -7.7488932609550005 -25.38459873195  -19.814919471750002 -7.4894688129450007 -25.442625999450001  -20.421215057400001 -7.6343665122999997 -25.437551498400001  -20.002045631400001 -7.9014072418200003 -25.4312372208  -20.505561828600001 -7.83396625519 -25.431020736699999  -20.517818450949999 -10.227493286150001 -25.364597320549997  -22.692610740649997 -5.7437994480099999 -25.476518631000001  -24.995864868200002 -20.394174575800001 -25.128063201900002  -25.414154052699999 -20.228229522700001 -25.145483017  -25.145042419399999 -20.605724334750001 -25.133057594299999  -19.622282028200001 -7.0696702003449996 -25.4537935257  -20.007838249199999 -6.7008163928949998 -25.4637718201  -25.3184833527 -20.087028503399999 -25.142631530799999  -22.213243484499998 -5.7910421689333331 -25.476701100666663  -22.829505920399999 -8.6774845123300004 -25.385169982899999  -22.7636013031 -8.49503898621 -25.3922653198  -23.200051307700001 -8.4133391380300004 -25.389460563699998  -22.318895975766665 -13.6448589961 -25.206271489466669  -21.967868804950001 -13.92519140245 -25.202850341800001  -21.887063980099999 -13.6943807602 -25.2151222229  -22.307846069299998 -12.340155601499999 -25.2602577209  -24.833408355700001 -6.5744957923899996 -25.431467056300001  -24.694004058800001 -0.480128586292 -25.621227264400002  -24.621973037699998 -0.25388419628100001 -25.6280536652  -25.058710098300001 -0.14482830464800001 -25.6311149597  -25.362661361699999 -10.96087741855 -25.2662296295  -24.9289302826 -10.963834285699999 -25.2689876556  -25.036170959500001 -11.287970066050001 -25.255889892600003  -25.360920906049998 -8.2760381698600014 -25.3635368347  -21.767156600966668 -13.377459208166668 -25.2299645742  -22.661449432400001 -13.36368608475 -25.208707809450001  -25.114414215099998 -3.2114279270199999 -25.541065216100002  -25.1770381927 -3.4149482250199998 -25.533967971799999  -25.239250183100001 -3.6171624660499999 -25.5269126892  -22.53400611875 -5.3310391902949998 -25.488617896999997  -20.201757431000001 -10.689868926999999 -25.353097915599999  -20.122007369999999 -10.5064649582 -25.359756469699999  -24.257572174100002 -10.233181953400001 -25.3059196472  -24.690901438400001 -10.226030349700002 -25.300296147666668  -25.2757167816 -8.0108146667500009 -25.373369216899999  -21.110539436350003 -11.652626514450001 -25.309843063350002  -25.380477905300001 -15.156830787700001 -25.183443069500001  -24.921495437600001 -15.2862567902 -25.162925720200001  -25.026130676299999 -15.4576339722 -25.166015625  -24.244758606000001 -11.548987388600001 -25.252519607499998  -22.379897117600002 -11.246260166200001 -25.3032798767  -21.4378013611 -12.4922785759 -25.272665023850003  -21.3414344788 -12.2434949875 -25.283815383899999  -24.935728073100002 -5.4835090637199997 -25.468976974499999  -23.2947864532 -8.6842288970899997 -25.3787117004  -23.5352516174 -8.0598044395449993 -25.397108077999999  -25.2775630951 -14.9847736359 -25.180404663099999  -22.349985122700001 -8.6665668487499996 -25.390825271600001  -22.743698120099999 -13.596277236900001 -25.197425842299999  -23.0995845795 -8.1367931365999997 -25.399530410800001  -24.862636566150002 -17.766114234900002 -25.142686843850001  -25.364791234333335 -17.700821558633333 -25.165264765433335  -25.105510711699999 -17.303492546100003 -25.1562862396  -21.621445655800002 -12.980029583 -25.2496213913  -25.401411056499999 -16.9224777222 -25.171846389799999  -24.9470119476 -17.060916900599999 -25.150756835900001  -22.99701309205 -7.85661530495 -25.409541130050002  -25.215778350800001 -6.4134545326200003 -25.4314861298  -25.296291351299999 -16.759166717500001 -25.168058395399999  -21.210430145299998 -11.9075984955 -25.298669815099998  -25.371598243699999 -1.1470295190850002 -25.601147651700003  -25.087428092949999 -7.392597913745 -25.398905754049999  -25.231018066399997 -10.553815841666667 -25.282650629666666  -25.120807647700001 -10.2219696045 -25.295320510900002  -26.431003570600001 -12.775398254400001 -16.355270385699999  -26.598726272550003 -12.34589719775 -16.245446205100002  -26.761899948100002 -12.444377899199999 -16.666419982899999  -26.7618436813 -12.9425711632 -17.109690666200002  -26.572994232200003 -12.919823169699999 -16.7543735504  -26.817939122499997 -11.770133018499999 -16.0015856425  -27.18343830105 -11.351994037600001 -16.250962257400001  -27.079488754250001 -11.094196319550001 -15.787386894200001  -26.268774986250001 -13.191537380250001 -16.466433525100001  -25.715357462566669 -14.138991355900002 -16.544730504366669  -25.913952827449997 -13.61106014255 -16.303559303249997  -25.623774210600001 -13.870968818666668 -16.1131515503  -26.956126530966667 -11.943318367033333 -16.490790049233333  -27.00787448885 -12.32634305955 -16.98765659335  -25.470180511500001 -14.2834482193 -16.310100555399998  -26.399269103999998 -13.359623909 -16.8531208038  -26.481506347633331 -13.6490020752 -17.278594970733334  -26.2995281219 -13.6153020859 -16.931968689000001  -25.876648584999998 -14.216858545933334 -16.870585123733331  -25.483027140299999 -14.757226308199998 -16.831197102866668  -25.649183273299997 -14.819507598866666 -17.159863154099998  -27.097650527999999 -10.532073974599999 -15.3363199234  -27.79790210725 -8.8124055862400006 -15.471390724199999  -26.1661157608 -13.960959434499999 -17.06295204165  -25.967055002833334 -14.482350667333334 -17.2978038788  -28.839715957599999 -13.442650795 -22.3420886993  -26.256333351150001 -14.227514267 -17.491775512699999  -26.00421587626667 -14.719137191766668 -17.615290959666666  -26.082120895350002 -13.676539421049998 -16.637530326849998  -27.253960291533332 -11.696353276566668 -16.770421345999999  -29.094201087950001 -6.2935388088199993 -16.963939666750001  -30.244569778399999 -3.9446556568100002 -17.7731571198  -29.3911170959 -5.6390895843499997 -17.5065574646  -30.3957157135 -3.6045060157800002 -18.108257293699999  -28.103055000299999 -8.0375201702099996 -15.35309934615  -26.222452163700002 -12.7986011505 -15.9819803238  -26.0859079361 -13.157228469850001 -16.1175479889  -25.817925453199997 -13.349492549899999 -15.8636574745  -25.516350428266666 -13.637299855566667 -15.664604822800001  -25.352874755849999 -14.597337722799999 -16.452630042999999  -25.946331977850001 -15.035591602349999 -17.866442680349998  -30.472206115700001 -3.4363181590999998 -18.275701522799999  -30.571052551299999 -3.1965560913100002 -18.582130432100001  -26.014547348033332 -12.821129481 -15.609260241199999  -26.366671562200001 -12.4214558601 -15.850184917450001  -25.730881373100001 -13.050630569466668 -15.342793464666668  -25.486078262300001 -15.2472400665 -17.3366699219  -25.658646901433332 -15.291345914199999 -17.669960022000001  -25.795914649949999 -15.42824316025 -18.0521364212  3 0 2 1  3 2 0 3  3 6 5 4  3 7 8 9  3 10 12 11  3 13 15 14  3 16 18 17  3 18 16 19  3 20 22 21  3 23 25 24  3 26 28 27  3 29 30 31  3 32 34 33  3 35 37 36  3 21 22 38  3 39 40 41  3 44 42 43  3 45 47 46  3 46 47 48  3 51 49 50  3 52 6 53  3 54 55 56  3 30 4 57  3 58 11 59  3 60 62 61  3 63 65 64  3 66 67 68  3 69 71 70  3 72 74 73  3 75 71 76  3 77 78 54  3 79 80 81  3 84 82 83  3 85 86 60  3 88 89 87  3 90 92 91  3 92 90 6  3 93 94 95  3 50 49 96  3 27 98 97  3 99 100 101  3 60 103 102  3 106 105 104  3 29 107 43  3 107 29 108  3 9 8 109  3 67 110 68  3 86 85 111  3 106 113 112  3 112 114 106  3 116 117 115  3 115 118 116  3 62 86 119  3 86 120 119  3 64 65 21  3 65 122 121  3 96 123 50  3 50 123 124  3 125 31 30  3 119 120 96  3 128 127 126  3 126 127 129  3 130 96 120  3 63 132 131  3 128 111 133  3 111 128 120  3 85 134 111  3 103 60 135  3 135 60 61  3 134 136 111  3 137 139 138  3 140 92 6  3 142 141 143  3 83 145 144  3 144 146 83  3 84 83 147  3 147 83 148  3 149 151 150  3 150 151 152  3 153 155 154  3 117 157 156  3 156 115 117  3 158 160 159  3 160 158 161  3 162 149 150  3 150 163 162  3 164 160 165  3 82 164 165  3 165 160 161  3 157 160 166  3 160 164 166  3 43 168 167  3 167 168 169  3 86 62 60  3 150 152 158  3 158 163 150  3 43 167 44  3 122 171 170  3 52 53 172  3 173 56 55  3 162 174 149  3 175 176 155  3 55 178 177  3 179 48 69  3 180 38 181  3 73 74 182  3 157 183 156  3 183 157 166  3 184 186 185  3 170 171 187  3 190 189 188  3 191 153 192  3 190 130 126  3 193 166 164  3 188 116 194  3 130 190 194  3 194 190 188  3 194 123 130  3 195 169 168  3 106 196 105  3 198 95 197  3 49 51 199  3 197 12 198  3 200 7 201  3 28 202 27  3 147 203 84  3 90 204 36  3 201 7 9  3 62 199 205  3 56 207 206  3 208 209 112  3 120 86 111  3 146 208 83  3 210 212 211  3 213 214 67  3 215 103 216  3 76 217 75  3 218 219 20  3 221 220 104  3 222 220 221  3 125 223 88  3 87 224 31  3 2 24 1  3 93 95 225  3 172 53 226  3 228 66 227  3 214 229 230  3 84 203 164  3 5 57 4  3 135 216 103  3 157 159 160  3 145 83 82  3 198 232 231  3 49 62 119  3 60 102 85  3 233 235 234  3 229 213 217  3 27 99 98  3 236 175 237  3 192 239 238  3 240 242 241  3 243 138 207  3 25 178 24  3 178 25 177  3 77 206 139  3 77 139 98  3 54 56 206  3 25 241 45  3 243 244 245  3 211 245 244  3 246 247 245  3 249 250 248  3 246 7 250  3 8 7 246  3 132 251 248  3 114 89 218  3 104 220 106  3 64 132 63  3 253 40 252  3 254 156 183  3 255 256 237  3 170 257 121  3 258 116 188  3 130 120 126  3 256 255 0  3 13 259 15  3 73 44 167  3 73 167 72  3 73 226 44  3 52 172 260  3 104 105 261  3 264 263 262  3 210 265 264  3 264 265 266  3 230 229 240  3 198 267 225  3 263 55 177  3 269 97 268  3 159 157 117  3 191 3 0  3 110 40 59  3 40 110 252  3 230 252 214  3 78 1 24  3 270 272 271  3 75 70 71  3 273 192 238  3 41 253 238  3 257 170 187  3 113 106 220  3 242 47 45  3 222 274 220  3 274 113 220  3 89 114 209  3 143 193 142  3 219 89 88  3 196 106 218  3 257 196 121  3 218 20 196  3 20 219 22  3 121 196 20  3 22 219 275  3 218 106 114  3 2 23 24  3 122 170 121  3 276 93 225  3 124 277 278  3 198 225 95  3 193 143 279  3 161 145 165  3 270 75 217  3 209 208 224  3 211 212 280  3 203 193 164  3 63 131 281  3 116 258 117  3 7 200 250  3 182 282 283  3 284 285 283  3 176 175 286  3 287 224 208  3 288 290 289  3 123 96 130  3 260 172 285  3 205 61 62  3 193 203 142  3 73 182 226  3 74 282 182  3 259 91 15  3 224 287 108  3 291 74 292  3 285 172 283  3 283 282 284  3 145 152 151  3 161 158 152  3 268 139 137  3 145 161 152  3 123 277 124  3 288 289 293  3 75 271 70  3 165 145 82  3 82 84 164  3 159 117 258  3 118 123 194  3 96 49 119  3 4 53 6  3 116 118 194  3 159 163 158  3 258 163 159  3 271 75 270  3 225 267 276  3 30 57 125  3 168 43 107  3 29 43 42  3 283 172 226  3 283 226 182  3 236 234 235  3 107 108 294  3 233 13 14  3 261 221 104  3 140 6 52  3 297 296 295  3 247 243 245  3 258 188 163  3 247 137 138  3 298 300 299  3 30 29 42  3 121 20 21  3 301 197 66  3 31 108 29  3 105 196 302  3 303 305 304  3 18 19 34  3 138 243 247  3 294 108 287  3 235 286 175  3 263 266 55  3 125 57 223  3 28 26 259  3 306 307 308  3 42 44 53  3 53 4 42  3 192 273 191  3 266 263 264  3 98 139 97  3 6 90 5  3 4 30 42  3 309 201 9  3 25 23 241  3 310 300 232  3 231 232 311  3 44 226 53  3 115 313 312  3 314 156 254  3 89 209 87  3 87 209 224  3 166 279 183  3 287 146 315  3 315 294 287  3 286 317 316  3 146 287 208  3 307 179 69  3 302 196 257  3 308 271 272  3 318 46 319  3 94 227 95  3 151 144 145  3 256 0 1  3 139 268 97  3 199 62 49  3 320 281 131  3 126 120 128  3 175 236 235  3 237 155 255  3 321 41 238  3 279 166 193  3 12 232 198  3 208 148 83  3 208 112 148  3 146 144 315  3 19 33 34  3 112 209 114  3 318 177 45  3 323 324 322  3 66 68 301  3 76 229 217  3 251 64 180  3 59 301 68  3 178 54 78  3 272 325 185  3 238 253 273  3 252 230 326  3 58 328 327  3 81 80 298  3 329 141 142  3 206 77 54  3 38 275 181  3 244 243 173  3 330 249 297  3 239 321 238  3 27 202 99  3 132 248 200  3 197 95 66  3 249 331 297  3 301 11 197  3 24 178 78  3 78 77 101  3 323 322 332  3 319 262 318  3 90 26 204  3 333 204 26  3 296 333 295  3 318 45 46  3 59 68 110  3 272 270 325  3 90 36 5  3 80 334 298  3 99 77 98  3 77 99 101  3 259 90 91  3 244 173 265  3 8 245 211  3 269 27 97  3 297 295 330  3 67 66 228  3 67 214 110  3 204 35 36  3 333 296 204  3 204 296 35  3 11 327 10  3 173 266 265  3 132 200 131  3 11 58 327  3 296 335 35  3 46 48 179  3 273 3 191  3 25 45 177  3 337 338 336  3 242 45 241  3 335 296 297  3 12 10 339  3 11 301 59  3 339 310 232  3 234 28 13  3 12 197 11  3 319 46 179  3 232 298 311  3 298 334 311  3 180 181 331  3 180 331 251  3 175 155 237  3 298 232 300  3 340 341 338  3 28 259 13  3 88 275 219  3 275 38 22  3 155 176 154  3 342 181 275  3 8 246 245  3 302 187 343  3 237 100 236  3 12 339 232  3 95 227 66  3 223 342 275  3 100 202 236  3 90 259 26  3 13 233 234  3 326 253 252  3 213 229 214  3 257 187 302  3 303 304 102  3 103 303 102  3 241 23 240  3 252 110 214  3 341 340 344  3 255 191 0  3 345 39 41  3 155 153 255  3 321 345 41  3 100 99 202  3 153 191 255  3 101 256 1  3 28 234 202  3 1 78 101  3 173 55 266  3 331 249 248  3 199 346 205  3 131 200 201  3 31 224 108  3 180 21 38  3 64 21 180  3 125 88 87  3 176 286 316  3 297 331 335  3 200 248 250  3 218 89 219  3 121 21 65  3 251 331 248  3 35 335 342  3 335 181 342  3 35 342 37  3 275 88 223  3 335 331 181  3 125 87 31  3 234 236 202  3 295 268 330  3 253 41 40  3 132 64 251  3 178 55 54  3 281 347 63  3 347 122 65  3 63 347 65  3 348 349 179  3 350 351 352  3 352 353 354  3 355 357 356  3 352 354 350  3 354 358 350  3 359 361 360  3 362 363 352  3 361 359 364  3 365 366 367  3 368 370 369  3 354 365 358  3 372 356 371  3 374 368 373  3 376 366 375  3 370 374 377  3 378 365 367  3 360 358 378  3 357 371 356  3 356 379 362  3 372 380 379  3 383 382 381  3 372 379 356  3 380 372 384  3 374 370 368  3 352 363 353  3 350 386 385  3 373 366 376  3 378 359 360  3 376 374 373  3 373 368 378  3 361 388 387  3 359 389 364  3 390 377 376  3 391 392 383  3 361 387 360  3 356 362 355  3 351 355 362  3 358 360 386  3 393 394 385  3 352 351 362  3 387 395 393  3 395 387 388  3 363 362 379  3 386 350 358  3 386 360 387  3 378 358 365  3 369 389 359  3 353 366 365  3 359 378 368  3 369 359 368  3 373 367 366  3 376 377 374  3 396 370 397  3 373 378 367  3 354 353 365  3 398 397 390  
