ply
format ascii 1.0
comment bbox -1.338037  3.050211 -1.324214  0.762602 -3.037815  -2.367326 
element vertex 23
property double x
property double y
property double z
element face 12
property list uchar int vertex_index
end_header
-0.75976803898799994 -1.0433713197699999 -2.586608171465  -0.99655908346199995 -1.29008412361 -2.55093479156  -1.1539622545199999 -1.1753718852999999 -2.43234872818  -1.006218810877 -1.0758006175366666 -2.4791738987  -0.11846809834200001 -0.013753900304399999 -2.63473725319  0.063136801123599998 0.106307297945 -2.6360428333299999  0.067260600626499994 0.10163930058499999 -2.6365222930900001  -0.031642898917199999 -0.12872189283400001 -2.6919569969200001  -1.18968880177 -1.2975648641599999 -2.4554026126899999  -1.31424462795 -1.29138982296 -2.3990705013300002  -1.33803737164 -1.32421398163 -2.40217614174  -0.78160849213600003 -1.2543972134599999 -2.6459754705450003  -0.14517919719200001 -0.0038358999881900001 -2.6173522472399999  -0.092778399586700006 0.18638409674199999 -2.5600457191500001  2.9334104061100001 0.65915441513100004 -2.9182481765700001  3.0502111117033333 0.60866258541766671 -2.9726317723600002  2.90754544735 0.41758339107050002 -3.0378149747850003  1.1713697910300001 0.76260167360300002 -2.4007909297899999  1.0822993516899999 0.69941341876999996 -2.41631984711  0.873993873596 0.70611089467999999 -2.36732625961  0.47665193676950002 0.35009844601149998 -2.5456134080900004  0.62694668769799999 0.52649968862499996 -2.4332008361800002  0.4449751526115 0.4969011992215 -2.4522138833999998  3 1 0 2  3 2 0 3  3 5 6 4  3 7 5 4  3 8 9 10  3 8 1 2  3 1 11 0  3 6 12 4  3 12 6 13  3 15 14 16  3 18 17 19  3 20 21 22  
