ply
format ascii 1.0
comment bbox 3.663050  4.380179 14.989554  15.803425 -14.500749  -13.954681 
element vertex 12
property double x
property double y
property double z
element face 13
property list uchar int vertex_index
end_header
3.8297493457799998 15.627930641200001 -14.303352356  3.9364604949999999 15.737854003900001 -14.447717666599999  3.89665031433 15.6357212067 -14.330724716200001  3.8504972457900002 15.8034248352 -14.4941501617  4.1878757476799997 15.709867954250001 -14.500749111200001  3.6675689220400001 15.7561836243 -14.400509834299999  3.6630499362900002 15.670217514000001 -14.3144760132  4.00667953491 15.6727991104 -14.4012928009  4.1236336231199999 15.544130802150001 -14.3118839264  4.1428422927900002 15.0597133636 -13.9546813965  4.3801785707500001 14.989553928375001 -13.96389722825  3.96833705902 15.489079475400001 -14.224354743999999  3 1 0 2  3 0 1 3  3 3 1 4  3 3 5 0  3 6 0 5  3 7 2 8  3 9 10 11  3 11 8 0  3 8 2 0  3 10 8 11  3 8 4 7  3 1 7 4  3 1 2 7  
