ply
format ascii 1.0
comment bbox -33.060032  -25.013103 0.194596  19.191530 -25.991466  -20.223450 
element vertex 557
property double x
property double y
property double z
element face 574
property list uchar int vertex_index
end_header
-28.422144889849999 16.511959075900002 -24.8740282059  -28.557494163499999 16.399635314899999 -24.945875167849998  -28.522886276249999 16.4213180542 -25.034154892  -29.086378097500003 15.9962773323 -24.746284484850001  -29.088801066083334 16.00752480825 -24.532837549850001  -29.257202625274999 15.868847608574999 -24.623417854325002  -29.6946258545 12.11768770215 -22.627776145950001  -30.246250152599998 11.837244033799999 -22.632270813000002  -29.646469116199999 11.7204284668 -22.620344161999999  -28.659244537399999 16.316249847400002 -24.999765396099999  -26.3111581802 18.218495368950002 -24.672475814800002  -26.240811824825002 18.287439346299998 -24.5278811455  -26.391260782866667 18.175796190883332 -24.426810582483338  -31.533046047828318 12.09219137274582 -24.934795139080666  -30.2798175812 11.682941436749999 -25.969088554400003  -30.058086395299998 11.363481521600001 -25.9627246857  -29.839925493499997 15.428296906628573 -24.345961434499998  -29.999962806699997 15.284691810625 -24.594834327699999  -29.7745685577 15.4383630753 -25.061037063600001  -25.4780483246 18.819852828999998 -25.0490932465  -25.513494491599999 18.802297592199999 -24.959953308100001  -25.549821853600001 18.761899948100002 -25.0856342316  -28.217254638699998 16.673582076999999 -24.872438430799999  -28.185659408599999 16.698732376100001 -24.961799621600001  -28.117361068699999 16.7548370361 -24.925775527999999  -29.605856895400002 15.5715198517 -24.971219062849997  -29.506651560466665 15.6568082174 -24.846881230666668  -29.471817016599999 15.677436828599999 -25.005796432499999  -26.242670059200002 18.257894516 -24.851533889750002  -26.296749115000001 18.2106227875 -24.932838439899999  -26.347414970350002 18.180302619899997 -24.798643112199997  -32.023239135700003 13.6585979462 -25.0055332184  -31.832895278900001 13.819502830499999 -24.900337219200001  -31.922259012833337 13.733450571699999 -25.0566705068  -25.261800766 18.9940166473 -24.9390583038  -25.3522768021 18.927712440450001 -24.931273460349999  -25.226581573499999 19.011606216400001 -25.028396606400001  -26.450900554649998 18.111432075499998 -24.637771129600001  -25.191318511999999 19.0541419983 -24.902715683  -32.416023254400002 13.352332115199999 -25.008821487399999  -32.454570770300002 13.3321199417 -24.923072814899999  -32.251258850100001 13.478384971600001 -25.024600982700001  -27.866477966333331 16.943461100233336 -25.077918370566668  -27.7390499115 17.049609184249999 -24.940409660349999  -27.720207214349998 17.0508565903 -25.090830802900001  -32.4798431396 13.3009147644 -25.044033050500001  -32.549100875850002 13.252961158750001 -24.9755973816  -32.573635101299999 13.220885276800001 -25.096158027649999  -25.7978286743 18.591342925999999 -24.891160965000001  -25.764701843299999 18.611660003699999 -24.980873107899999  -25.81702423095 18.561312675450001 -25.06152629855  -25.903142293299997 18.506454467800001 -24.909837086966665  -26.661718368549998 17.909301757850002 -25.068963050850002  -26.609170913700002 17.957134246799999 -24.988363266  -26.574476242100001 17.976509094200001 -25.077198028600002  -32.7486858368 13.178886651974999 -24.170415401474997  -32.8790893555 13.050001621250001 -24.407145500200002  -32.719045257560005 13.180822753899998 -24.36008682252  -25.677886232959793 6.998254851278336 -21.817270816098635  -26.690062522849999 9.6450648307800009 -22.6325931549  -25.988128662099999 8.0307693481399998 -25.868893623350001  -31.7953662872 13.8407754898 -24.9866886139  -31.78846740725 13.833240032199999 -25.090018272400002  -30.193130493150001 11.43891906735 -22.621601104749999  -29.082472801199998 12.029607057574999 -22.630642890924999  -28.188942337039997 13.795587921140001 -22.632498931880001  -28.711508560160002 13.42138767242 -22.62612342836  -28.103831154971427 13.12253952025714 -22.630870546599997  -32.292717391225473 12.466284557051649 -25.393338512585121  -32.064919207577837 12.712025115594745 -24.937732100471049  -25.1552505493 19.070810317999999 -24.9919319153  -25.189327240000001 19.027027130099999 -25.117118835399999  -32.718025207499998 13.128493309 -24.8557472229  -32.679904937700002 13.149816513099999 -24.941665649400001  -28.606638590500001 12.6588226954 -22.629718780533334  -28.885339736900001 12.3677358627 -22.6298694611  -28.9043102264 12.685185432400001 -22.629549026500001  -28.898309071866667 16.136156082133336 -24.877684911099994  -28.780574798625 16.234845638274997 -24.797053813950001  -28.726867675800001 16.260677337600001 -25.035596847499999  -28.114987373350001 16.75818920135 -24.818304061900001  -28.65801143645 16.309684753399999 -25.105664253199997  -29.634916305499999 11.4478235245 -22.627161026  -29.8144054413 11.3909082413 -25.964014053300001  -32.971765518200002 13.125634670250001 -23.143345832850002  -32.936378478999998 13.123024463650001 -23.399950981149999  -33.060031890866668 13.037991841666667 -23.268669764199998  -32.932449340800005 13.146521091449999 -23.231554031400002  -29.669888257975 15.552897810924998 -24.4829783439625  -32.803711700439997 13.230682754519998 -23.356642532360002  -28.999424616499997 16.054419835433333 -24.896059036233328  -28.9982891083 16.046011924749997 -25.07294368745  -28.984861373874999 16.079009056100002 -24.6920223236  -31.4641437531 14.0963010788 -25.018642425500001  -25.939753850266669 18.504547754900003 -24.677340825399998  -26.060527038560004 18.422401809699998 -24.574417495740001  -26.011172612533333 18.4321085612 -24.857662200933333  -28.912569046050002 16.110847473150002 -25.080858230600001  -29.101013183599999 15.9736309052 -24.914615631099998  -29.310211817399999 12.412585894266668 -22.623234430966665  -27.296732902549998 17.418693542450001 -24.813696861250001  -27.397500991800001 17.32156467435 -24.974177360500001  -27.330894470200001 17.3733386993 -25.045450210599999  -28.031718254099999 16.815179824800001 -25.040562629699998  -28.0157203674 16.8338603973 -24.978614807100001  -28.304875373850003 16.597752571100003 -25.077847480750002  -28.388173103349999 16.534349441549999 -24.962657928500001  -28.42127513885 16.499710083 -25.086734771750002  -25.493553161599998 13.014479160299999 -22.6158256531  -25.884194374050001 12.683072566949999 -22.608572006199999  -25.90989875795 12.96938991545 -22.612351417549998  -29.391580581675001 15.758483171449999 -24.695666789999997  -29.168991088849999 15.915817737600001 -25.0569009781  -29.303222656199999 15.809556007399999 -25.022256851200002  -28.592613220200001 16.378520965600003 -24.857596397400002  -26.171597480774999 18.326037406925 -24.7072849274  -28.715541203833329 13.009251276633334 -22.621643066433336  -26.418378829950001 18.123097419700002 -24.835304260249998  -26.556712150574999 18.015141963974997 -24.800331115725001  -26.506200790400001 18.045979499849999 -24.934453010550001  -26.645072936999998 17.9390449524 -24.899707794200001  -26.369565963700001 18.1555652618 -24.969837188700001  -32.949306487999998 13.0026960373 -24.338439941400001  -32.0285921097 13.663043975800001 -24.901576042199999  -25.542984962449999 13.58988761905 -22.626683235150001  -25.2876014709 13.8516139984 -22.622724533100001  -25.268426895099999 13.532839775099999 -22.6163768768  -28.693004608199999 16.2932701111 -24.9112281799  -26.182965278625002 18.351787567150001 -24.321751594550001  -27.651272773750001 17.107080459599999 -25.054805755650001  -26.8518638611 17.7635784149 -25.0078144073  -26.92263031005 17.7166671753 -24.937418937700002  -26.922912597700002 17.707946777299998 -25.044345855700001  -26.11704158785 18.351887702900001 -24.8408041  -26.118436813399999 18.3426551819 -24.948493957499998  -26.192121505700001 18.2881336212 -24.9856777191  -28.287181854250001 16.625635147099999 -24.802190780650001  -26.422901153600002 18.1079425812 -25.050683975250003  -26.336069107099998 18.176027298000001 -25.059080123899999  -25.184913635299999 15.2248592377 -22.650274276699999  -25.0492954254 15.4144496918 -22.654315948499999  -25.313983917199998 15.461726188650001 -22.66414928435  -29.559963703150004 15.625096321100001 -24.679211139700001  -32.616687774699997 13.201897621200001 -24.9065303802  -32.642257690400001 13.1718521118 -25.027614593500001  -26.265804290799998 18.233858108500002 -25.022827148400001  -26.010200500500002 18.416442871099999 -25.00050354  -26.085977554300001 18.364009857199999 -25.0381450653  -27.498506546000002 17.241098403900001 -24.920886993449997  -27.499412536600001 17.234439849899999 -25.027881622300001  -27.637166976900001 17.136121749899999 -24.8865642548  -25.6916980743 18.667963027999999 -24.9439029694  -25.602804183949999 18.735266685500001 -24.95195007325  -25.6924829483 18.657259941100001 -25.0513629913  -30.960915565499999 14.509840488425001 -24.796666145350002  -31.03836708068 14.464268302900001 -24.592036438000001  -30.737798690799998 14.6704902649 -25.048904418900001  -30.906771659850001 14.543717861199999 -24.927578926100001  -25.0256099701 15.089378356899999 -22.639200210599999  -25.132696151699999 14.982407569899999 -22.635519027699999  -27.405076026899998 13.1005921364 -22.625142097449999  -27.448848088600002 12.823409080533333 -22.627326329566667  -27.588394165 13.2483024597 -22.625759124749997  -25.937927246099999 13.2549328804 -22.61752128605  -25.509530067450001 13.302706718450001 -22.613207817100001  -25.243362426800001 13.210414886500001 -22.599033355700001  -29.207441965733334 12.767999649033333 -22.626578648899997  -29.78324928284 12.66665592194 -22.630607223520002  -29.065654754600001 15.9949741364 -25.002550125100001  -28.063062667833336 12.617937088 -22.628283818566668  -25.477251052866666 18.842985788999997 -24.833913167333332  -25.404407501200001 18.876068115199999 -25.012063980099999  -27.721647898366665 13.534075419066667 -22.628342310600001  -27.455326080300001 12.351679992659999 -22.623229598999998  -26.981858571349999 12.633042176566669 -22.619815826416669  -26.5287662506 13.014081001279999 -22.61973800658  -26.217872619600001 12.696845054600001 -22.611972808800001  -28.086567878749999 16.7744684219 -25.121618270900001  -25.131063461299998 1.1172137260399999 -25.666934967  -25.734742382558533 6.6888841252993192 -20.223450136554288  -25.2014160156 0.88545507192600004 -25.659910201999999  -27.025600433299999 17.6291828156 -24.991380691500002  -31.238800048800002 14.28408765795 -24.895164489750002  -31.308168411299999 14.235760688799999 -24.8260421753  -31.2632522583 14.2491550446 -25.121809005700001  -26.331167221099999 8.5005445480299997 -25.887863159199998  -28.18600749965 16.69306564335 -25.068344116200002  -25.083974838300001 19.130275726299999 -24.9554519653  -25.0142650604 19.1915302277 -24.919326782199999  -25.048377990700001 19.147314071699999 -25.044744491599999  -25.905809402500001 18.494459152200001 -25.053501129200001  -27.2630577087 17.431816101100001 -25.009716033899998  -27.1971225739 17.4927330017 -24.974462509199999  -26.799593925499998 17.811252594000003 -24.927155494700003  -26.730061531099999 17.850217819200001 -25.104721069299998  -32.334159851050003 13.442656040199999 -24.748862266499998  -32.429298400900002 13.36353302 -24.801799774199999  -32.467529296899997 13.342584609999999 -24.715604782100002  -25.2725791931 0.65400397777599995 -25.653135299700001  -25.738510131799998 0.64210146665599999 -25.65272521975  -29.973695755000001 15.2773909569 -25.061873435999999  -30.2086486816 15.0953903198 -24.975530624400001  -30.106971740700001 15.1717300415 -25.027362823499999  -32.151760101299999 13.5552558899 -25.0760993958  -32.147740373588285 12.552473390613631 -25.631893199885869  -27.566694259599998 17.175821304300001 -25.0634746552  -31.330976486200001 14.19864654545 -25.0524625778  -30.173337936399999 15.1180887222 -25.062995910600002  -30.373429298400001 14.960525035850001 -25.0643777847  -30.273410797099999 15.039563179 -25.0107402802  -27.825319290174999 16.997025012949997 -24.718274593324999  -27.705031394949998 17.085607528700002 -24.815526962299998  -31.109916686999998 14.3918768565 -24.789005279533331  -31.100463867199998 14.381012916549999 -25.033368110649999  -30.582308451366668 14.8168115616 -24.714771270766665  -30.470657030733335 14.916975975033331 -24.528454144799998  -30.349085998539998 15.002126502980001 -24.666622543320003  -30.542190551800001 14.832977294899999 -24.942716598499999  -25.117362976100001 19.085550308199998 -25.080589294399999  -30.682327270549997 14.73798274995 -24.697931289650001  -26.730134964000001 17.869169235199998 -24.8909378052  -25.04494285585 14.7528181076 -22.626750946049999  -25.4147605896 0.194596096873 -25.6399402618  -25.341753006000001 0.42564740776999999 -25.646173477200001  -30.616825103750003 11.983722209949999 -25.974974632250003  -30.717874526949998 12.314678668999999 -25.983124732949999  -25.055887222300001 1.3549740314500001 -25.673337936399999  -25.453789710999999 1.575867652895 -25.67892551425  -26.140737533599999 18.31725025175 -25.11925697325  -29.43349552155 11.414348602299999 -25.963142394999998  -27.19578266145 17.48276233675 -25.080801010150001  -25.63961092626667 7.5542914072666667 -25.850200017300001  -29.7067871094 15.491014480600001 -25.0250434875  -31.617853164700001 12.535059928900001 -25.986869811999998  -30.503771781899999 14.8514313698 -25.134904861450003  -28.029272587012137 10.289350954147693 -24.897338443212064  -28.690551757833333 10.370263099666667 -25.937143325799997  -28.005895614650001 10.3822569847 -25.932732582100002  -25.224939346300001 5.6925067901600004 -25.7942123413  -25.399976730366671 6.1567405064900003 -25.806845982866665  -26.656808853149997 8.9463152885449997 -25.904541969299999  -25.200278282200003 5.21566057205 -25.78071403505  -25.30820560455 2.0529550909999998 -25.6922826767  -25.1989059448 2.4138062000299998 -25.7026042938  -30.967319488499999 14.484287262 -25.067398071300001  -27.047358194966666 17.602673848466665 -25.074201583900003  -29.840873718299999 15.3838500977 -25.096572876  -30.183879470819999 15.138021087660002 -24.598123931860002  -31.6935024261 13.914476394699999 -25.037673950199999  -32.129968643200002 13.588724136349999 -24.8504924774  -31.2331199646 14.277152061500001 -24.999246597300001  -27.094898223850002 17.58056640625 -24.920650482150002  -26.490865707399998 18.047918319700003 -25.086342811549997  -25.279012680050002 18.960049629250001 -25.109084129300001  -28.079285123935723 10.960757400653153 -24.888558278829308  -29.323280334499998 11.071004867549998 -25.95572090145  -31.054081916800001 12.6198835373 -25.991465568549998  -31.396186828600001 12.5730104446 -25.989374160800001  -29.077060699499999 10.722270011899999 -25.946851730300001  -27.462128957133331 10.030088106766666 -25.923390070600004  -27.207502365099998 9.6882376670850014 -25.91905975345  -27.0816574097 9.3224782943749993 -25.913043975800001  -27.2679799398 9.6142307917299998 -22.650194168100001  -25.292930603049999 7.0798609256749998 -25.833054542500001  -25.270732879600001 6.6236429214500001 -25.8202648163  -25.102220535299999 2.6951491832750003 -25.710454940799998  -25.10985660555 4.6163945198049996 -25.763875961300002  -25.052652359 2.8998222351099998 -25.716768264799999  -26.252430915799998 9.4045147895800003 -25.9193763733  -25.927785873400001 8.9729442596400002 -25.904134750400001  -25.812751769999998 9.4211406707799998 -25.918870925899999  -26.226684570300002 8.9697923660299992 -25.905412674000001  -25.061907768250002 19.108942031849999 -25.213678360000003  -25.048377990700001 19.147314071699999 -25.044744491599999  -25.117362976100001 19.085550308199998 -25.080589294399999  -32.364570617650003 13.367420196499999 -25.405100822450002  -32.4798431396 13.3009147644 -25.044033050500001  -32.410276412999998 13.34829187395 -25.112303733849998  -32.460388183600003 13.291365623500001 -25.457374572799999  -26.196283340499999 18.250629425 -25.413234710699999  -26.123184204099999 18.3051605225 -25.376659393299999  -26.1582164764 18.2867603302 -25.2882404327  -31.396186828600001 12.5730104446 -25.989374160800001  -31.054081916800001 12.6198835373 -25.991465568549998  -31.643411444139687 13.012843503565627 -25.369176688637445  -32.277950286900001 13.4489088058 -25.145812988300001  -31.6935024261 13.914476394699999 -25.037673950199999  -31.423749923700001 14.11518096925 -25.209386825549998  -31.4641437531 14.0963010788 -25.018642425500001  -31.6243906021 13.962807655300001 -25.106447219850001  -30.105718612700002 15.1687436104 -25.132799148549999  -30.204250335699999 15.0871114731 -25.1857910156  -30.173337936399999 15.1180887222 -25.062995910600002  -28.522500991800001 16.415487289400001 -25.140256881700001  -28.65801143645 16.309684753399999 -25.105664253199997  -28.541518211350002 16.396405220049999 -25.3085346222  -28.292657852200001 16.6031913757 -25.335153579699998  -28.259100596099998 16.625685373966665 -25.423066457100003  -28.224985122700001 16.659231185900001 -25.299642562900001  -31.699821276816525 12.806563385962981 -25.805833209563591  -30.503771781899999 14.8514313698 -25.134904861450003  -30.532661437999998 14.81876802445 -25.256846427950002  -30.601406097400002 14.7699842453 -25.187707901  -27.054534912099999 17.464478492750001 -25.7595233917  -27.150613784800001 17.370908737200001 -25.810806274400001  -27.2176895142 17.389595031700001 -25.730840683  -27.1500644684 17.4475803375 -25.695781707799998  -29.186754226650002 15.8942642212 -25.330460548399998  -29.168991088849999 15.915817737600001 -25.0569009781  -29.119544029250001 15.948762893649999 -25.294971466050001  -29.033675193800001 16.016760349249999 -25.197214126600002  -28.983497619624998 16.05213451385 -25.329087257400001  -25.905809402500001 18.494459152200001 -25.053501129200001  -25.870759964000001 18.512735366800001 -25.142417907700001  -25.81702423095 18.561312675450001 -25.06152629855  -32.147740373588285 12.552473390613631 -25.631893199885869  -31.617853164700001 12.535059928900001 -25.986869811999998  -27.846221923800002 16.956199646000002 -25.2083320618  -27.866477966333331 16.943461100233336 -25.077918370566668  -27.931901931799999 16.889583587650002 -25.20002651215  -28.726867675800001 16.260677337600001 -25.035596847499999  -28.781559944175001 16.208098411550001 -25.433636665325  -26.335544586200001 18.154962539700001 -25.2722530365  -26.3652706146 18.110111236600002 -25.395233154300001  -26.299161910999999 18.172027587900001 -25.360296249400001  -28.427320480333332 16.490948359200001 -25.405907313  -28.392119725533334 16.522576014200002 -25.282173156733332  -27.259431839000001 17.411020278900001 -25.221765518200002  -27.296379089399998 17.393667221099999 -25.133987426800001  -27.193065643299999 17.4711360931 -25.1865711212  -26.421065330499999 18.085769653300002 -25.263517379749999  -25.998467445400003 18.410084724450002 -25.260053634649999  -25.947013855000002 18.438657760600002 -25.393081665  -25.9095172882 18.476255416899999 -25.268079757700001  -26.447606086699999 18.037574768100001 -25.385732650800001  -28.1234207153 16.7373638153 -25.352111816400001  -25.572323799149999 18.7111568451 -25.469339370749999  -25.613903045699999 18.649488449100001 -25.546773910500001  -25.659502029399999 18.642824173000001 -25.460800170900001  -25.538587570200001 18.753855705299998 -25.3452720642  -25.699005127 18.629636764499999 -25.373355865499999  -25.64492416385 18.678037643450001 -25.29278850555  -28.223944664000001 16.663956642150001 -25.193467140199999  -25.279012680050002 18.960049629250001 -25.109084129300001  -25.28310489655 18.9396657944 -25.324007034300003  -25.352471351600002 18.903483390799998 -25.145957946799999  -25.208401680000001 18.994860649100001 -25.287036895749999  -30.495470047000001 14.83884334565 -25.343157768250002  -30.402668952950002 14.92783260345 -25.1866350174  -30.106971740700001 15.1717300415 -25.027362823499999  -32.532230377200001 13.242362976100001 -25.285610199000001  -26.489219665499999 17.9774570465 -25.463077545200001  -26.010200500500002 18.416442871099999 -25.00050354  -25.975713729900001 18.435459136999999 -25.089611053500001  -26.8161687851 17.772847175599999 -25.2028169632  -26.777176857000001 17.7873945236 -25.290153503399999  -26.913185119600001 17.669739723200003 -25.361105918850001  -28.690551757833333 10.370263099666667 -25.937143325799997  -29.077060699499999 10.722270011899999 -25.946851730300001  -28.817363739000001 10.739979743999999 -25.9469051361  -31.551655769349999 14.00821733475 -25.279200553899997  -31.716603279099999 13.8805398941 -25.262994766200002  -32.416023254400002 13.352332115199999 -25.008821487399999  -32.251258850100001 13.478384971600001 -25.024600982700001  -32.151760101299999 13.5552558899 -25.0760993958  -32.023239135700003 13.6585979462 -25.0055332184  -31.922259012833337 13.733450571699999 -25.0566705068  -31.9497394562 13.703918457 -25.178123474100001  -32.494384765600003 13.263570785500001 -25.3709506989  -26.676948547399999 9.3736553192100001 -25.917736053500001  -27.0816574097 9.3224782943749993 -25.913043975800001  -26.656808853149997 8.9463152885449997 -25.904541969299999  -31.9228172302 13.684841155999999 -25.796575546300001  -31.859233856199999 13.7368917465 -25.762212753299998  -31.78846740725 13.833240032199999 -25.090018272400002  -31.8845710754 13.7543506622 -25.142686843900002  -30.271570205650001 15.036151409149999 -25.116002082850002  -32.642257690400001 13.1718521118 -25.027614593500001  -32.573635101299999 13.220885276800001 -25.096158027649999  -28.522886276249999 16.4213180542 -25.034154892  -28.456745147749999 16.46835708615 -25.2111091614  -32.292717391225473 12.466284557051649 -25.393338512585121  -32.390642632869756 12.385786275020067 -25.235691692630127  -31.2632522583 14.2491550446 -25.121809005700001  -31.100463867199998 14.381012916549999 -25.033368110649999  -30.967319488499999 14.484287262 -25.067398071300001  -25.189327240000001 19.027027130099999 -25.117118835399999  -25.151071548499999 19.041358947799999 -25.205493926999999  -31.330976486200001 14.19864654545 -25.0524625778  -28.42127513885 16.499710083 -25.086734771750002  -28.304875373850003 16.597752571100003 -25.077847480750002  -29.7067871094 15.491014480600001 -25.0250434875  -29.7745685577 15.4383630753 -25.061037063600001  -29.471817016599999 15.677436828599999 -25.005796432499999  -26.771633148199999 17.771741867100001 -25.394968032800001  -30.679122924800001 14.6972270012 -25.283196926125001  -30.604273796099996 14.736866951 -25.455381393450001  -29.973695755000001 15.2773909569 -25.061873435999999  -30.273410797099999 15.039563179 -25.0107402802  -29.840873718299999 15.3838500977 -25.096572876  -29.871145248400001 15.3507223129 -25.219150543200001  -25.766042709400001 18.590290069600002 -25.195291519200001  -25.724467277499997 16.29762840275 -25.83154296875  -25.366323471050002 16.089715480799999 -25.832960128750003  -25.594455083233331 15.785385449700001 -25.856768290233333  -30.737798690799998 14.6704902649 -25.048904418900001  -30.834233284 14.587941169700001 -25.101497650150002  -30.365607261649998 14.9480161667 -25.273146629350002  -30.373429298400001 14.960525035850001 -25.0643777847  -28.912569046050002 16.110847473150002 -25.080858230600001  -25.482391357400001 18.800519943200001 -25.2641639709  -25.55212211605 18.7525463104 -25.193209648150003  -29.3692760468 15.753460884100001 -25.057697296099999  -29.303222656199999 15.809556007399999 -25.022256851200002  -28.086567878749999 16.7744684219 -25.121618270900001  -28.053785324099998 16.797756195049999 -25.2102098465  -28.031718254099999 16.815179824800001 -25.040562629699998  -27.5358362198 17.178074836699999 -25.470802307100001  -27.395690918 17.279779434200002 -25.504659652699999  -27.3959341049 17.287978172300001 -25.398992538449999  -26.0862140656 18.342769622799999 -25.2517986298  -26.047243118299999 18.3784332275 -25.126092910800001  -26.140737533599999 18.31725025175 -25.11925697325  -28.18600749965 16.69306564335 -25.068344116200002  -28.662776311266668 16.297780354833332 -25.494356791166666  -28.662309646600001 16.290588378900001 -25.634328842199999  -28.9982891083 16.046011924749997 -25.07294368745  -29.1007213593 15.9654893875 -25.126924514799999  -29.065654754600001 15.9949741364 -25.002550125100001  -26.3725013733 18.138463974 -25.184230804399999  -26.523587226899998 18.006711959850001 -25.210465431199999  -26.490865707399998 18.047918319700003 -25.086342811549997  -26.050563812299998 18.360448837300002 -25.340164184599999  -26.230844497700001 18.231670379600001 -25.324802398700001  -26.261320114099998 18.1874065399 -25.447874069200001  -29.10366630555 15.957953453049999 -25.444421768200002  -29.220690727250002 15.864011287699999 -25.453541755700002  -29.103427886999999 15.9537668228 -25.549425125100001  -31.001792907700001 14.393624305749999 -25.826759338400002  -30.928768158 14.434661865200001 -25.893806457499998  -30.83859062196667 14.524270375566667 -25.809279123933333  -28.4307394028 10.003756046305 -25.92750167845  -28.0156135559 10.0081186295 -25.9247322083  -28.005895614650001 10.3822569847 -25.932732582100002  -27.080373764000001 17.503335952800001 -25.660209655799999  -26.950950622600001 17.549594879200001 -25.706457138099999  -29.319037437424999 15.779756307574999 -25.505889892574999  -29.234682083100001 15.841437339800001 -25.619049072300001  -28.76030158995 16.204349517799997 -25.686280250549999  -28.620576858500002 16.3025798798 -25.7195549011  -28.684022903399999 16.242559433 -25.753658294699999  -27.192157745399999 17.436664581300001 -25.6099319458  -25.908342361500001 18.452875137300001 -25.480573654200001  -26.059612274149998 18.32055854795 -25.506488800050001  -25.994803428650002 18.38434123995 -25.471937179599998  -27.120391845699999 17.4899806976 -25.573780059800001  -28.0687246323 16.765144348150002 -25.482863426199998  -26.572576522833334 17.954881032299998 -25.289795557666668  -25.841514587399999 18.514774322499999 -25.445549011200001  -25.749904632549999 18.578060150150002 -25.453010559100001  -25.8046646118 18.5533638 -25.320806503299998  -28.256533622749998 16.616458892849998 -25.527783393850001  -27.259010314899999 17.377752304099999 -25.644884109500001  -28.182682037399999 16.658361434900002 -25.596153259299999  -31.827315854980927 12.886286180764657 -25.126928719774568  -26.672826131200001 17.867126464833333 -25.307170867933333  -26.730061531099999 17.850217819200001 -25.104721069299998  -26.851284980799999 17.753774642949999 -25.114387512249998  -26.922912597700002 17.707946777299998 -25.044345855700001  -26.969775199899999 17.64559316635 -25.229804039000001  -26.551021575899998 17.9111194611 -25.496932983400001  -26.409465789800002 18.013830184900002 -25.53099250795  -27.566694259599998 17.175821304300001 -25.0634746552  -27.709339141800001 17.054643631000001 -25.3488636017  -26.264339447000001 18.211450576800001 -25.235973358199999  -25.943195342999999 18.456529617299999 -25.1790599823  -25.8766155243 18.496742248499999 -25.3571434021  -27.720207214349998 17.0508565903 -25.090830802900001  -25.6924829483 18.657259941100001 -25.0513629913  -25.823913574199999 18.484663963350002 -25.547676086399999  -25.304365158100001 18.9102516174 -25.493680953999998  -25.193426132199999 18.981430053699999 -25.545192718500001  -25.234552383400001 18.970209121700002 -25.458003997799999  -25.374240875200002 18.8747329712 -25.3163337708  -25.3408679962 18.894155502299999 -25.405429840099998  -25.4857368469 18.780244827299999 -25.478055953999998  -25.467632293699999 18.74936389925 -25.580229759249999  -25.105685234100001 19.010628700250003 -25.611960411049999  -25.257135391199999 18.915164947499999 -25.5794391632  -25.732378006000001 18.609849929799999 -25.284360885600002  -25.66019535065 18.678282737750003 -25.14104270935  -25.0131397247 19.113489151 -25.5612697601  -25.122655868500001 19.040575027500001 -25.509349823000001  -25.118171691899999 19.061124801599998 -25.295001983599999  -25.162485122700001 19.028036117599999 -25.421787261999999  -26.598711013799999 17.906654357899999 -25.411846160900001  -25.317472457899999 18.845516204799999 -25.6129207611  -25.372844696000001 18.849096298199999 -25.5290317535  -25.4142055511 18.838035583500002 -25.441965103099999  -26.2145423889 18.192840576199998 -25.533269882199999  -25.0537090302 19.101779937700002 -25.4738864899  -27.330894470200001 17.3733386993 -25.045450210599999  -27.499412536600001 17.234439849899999 -25.027881622300001  -27.397178649899999 17.313201904300001 -25.080749511699999  -25.835992813099999 18.531242370600001 -25.231271743800001  -25.448913574199999 18.8199615479 -25.353277206400001  -25.975658416750001 16.098320007350001 -25.850028038049999  -26.3219051361 18.119380950899998 -25.4814434052  -27.207502365099998 9.6882376670850014 -25.91905975345  -27.751147270200001 9.6435394287099996 -25.916617393499997  -27.4871616364 9.2796220779399992 -25.9095535278  -26.122151374799998 18.254427909850001 -25.540493965149999  -26.300928115800001 18.1945800781 -25.147769927999999  -26.212149620049999 18.260537147499999 -25.155694007849998  -27.651272773750001 17.107080459599999 -25.054805755650001  -27.19578266145 17.48276233675 -25.080801010150001  -27.2630577087 17.431816101100001 -25.009716033899998  -26.085977554300001 18.364009857199999 -25.0381450653  -28.0543251038 16.791986465499999 -25.316265106199999  -27.9852333069 16.846839904799999 -25.280387878399999  -27.812574386599998 16.971121788049999 -25.40241909025  -27.1255207062 17.5300426483 -25.151050567599999  -27.104336261774996 17.5269112587 -25.300524711600001  -26.8518638611 17.7635784149 -25.0078144073  -27.9716498057 16.8424377441 -25.450061798099998  -26.336069107099998 18.176027298000001 -25.059080123899999  -26.422901153600002 18.1079425812 -25.050683975250003  -26.265804290799998 18.233858108500002 -25.022827148400001  -26.574476242100001 17.976509094200001 -25.077198028600002  -25.226581573499999 19.011606216400001 -25.028396606400001  -27.362863540599999 17.3338298798 -25.169263839700001  -26.661718368549998 17.909301757850002 -25.068963050850002  -26.6943178177 17.810714721700002 -25.463358879099999  -27.173285484300003 17.461411476150001 -25.442196846000002  -27.2930212021 17.365281105050002 -25.45143413545  -27.225290298499999 17.415079116800001 -25.5218353271  -27.744400024400001 17.0204238892 -25.4725494385  -27.6739711761 17.074157714799998 -25.4365234375  -25.597543716449998 1.1052905321115001 -25.66579437255  -25.2725791931 0.65400397777599995 -25.653135299700001  -25.2014160156 0.88545507192600004 -25.659910201999999  -25.738510131799998 0.64210146665599999 -25.65272521975  -25.131063461299998 1.1172137260399999 -25.666934967  -26.331167221099999 8.5005445480299997 -25.887863159199998  -25.549821853600001 18.761899948100002 -25.0856342316  -25.441146850599999 18.8358135223 -25.137752533  -25.408290863000001 18.8559360504 -25.227254867599999  -27.462128957133331 10.030088106766666 -25.923390070600004  -27.047358194966666 17.602673848466665 -25.074201583900003  -25.0131034851 19.138980865499999 -25.348058700599999  -25.015296935999999 14.7239141464 -25.901550293  -25.197074890149999 14.346970081350001 -25.915117263799999  -25.329049110450001 14.8073205948 -25.898297309850001  -25.085559844999999 19.081104278600002 -25.384431839000001  -25.4780483246 18.819852828999998 -25.0490932465  -25.404407501200001 18.876068115199999 -25.012063980099999  -25.9759712219 9.8290357589700008 -25.930311202999999  3 0 2 1  3 3 5 4  3 7 8 6  3 1 2 9  3 12 11 10  3 15 13 14  3 16 18 17  3 19 21 20  3 24 23 22  3 25 26 27  3 29 30 28  3 33 31 32  3 36 35 34  3 37 12 10  3 34 38 36  3 41 39 40  3 44 42 43  3 45 47 46  3 49 50 48  3 50 51 48  3 54 52 53  3 56 55 57  3 60 58 59  3 33 61 62  3 7 63 8  3 8 64 6  3 66 67 65  3 68 69 47  3 70 71 36  3 69 72 73  3 74 76 75  3 77 78 79  3 22 80 24  3 81 79 9  3 15 83 82  3 86 84 85  3 84 87 85  3 88 18 16  3 85 87 89  3 91 90 77  3 4 92 3  3 61 32 93  3 96 95 94  3 77 79 97  3 3 90 98  3 99 75 76  3 102 101 100  3 42 103 104  3 105 107 106  3 108 110 109  3 111 5 112  3 92 77 90  3 3 92 90  3 113 27 111  3 1 9 114  3 10 11 115  3 74 116 76  3 118 37 117  3 117 119 118  3 118 119 120  3 10 30 37  3 53 120 119  3 117 30 29  3 121 117 29  3 55 56 122  3 31 123 32  3 63 82 8  3 124 126 125  3 9 79 127  3 79 78 127  3 11 128 95  3 43 129 44  3 131 130 132  3 95 115 11  3 115 133 28  3 117 121 119  3 115 28 10  3 30 117 37  3 28 133 134  3 134 135 28  3 106 136 105  3 137 121 138  3 140 141 139  3 88 142 18  3 46 144 143  3 143 144 73  3 144 69 73  3 135 145 28  3 29 28 145  3 147 134 146  3 101 149 148  3 148 149 150  3 39 45 40  3 152 153 151  3 26 142 27  3 27 142 111  3 155 156 154  3 156 157 154  3 64 99 6  3 159 158 139  3 162 161 160  3 110 108 163  3 108 164 163  3 165 126 164  3 99 76 166  3 99 64 75  3 6 99 167  3 2 0 106  3 98 91 168  3 91 98 90  3 67 169 161  3 67 66 116  3 35 171 170  3 171 20 170  3 162 172 67  3 173 161 169  3 160 161 174  3 110 175 176  3 161 162 67  3 137 119 121  3 177 104 103  3 104 177 24  3 69 68 13  3 180 179 178  3 96 146 133  3 146 134 133  3 112 5 3  3 51 146 96  3 181 131 132  3 184 183 182  3 59 185 60  3 97 91 77  3 23 177 186  3 177 23 24  3 188 189 187  3 153 49 151  3 51 190 146  3 107 2 106  3 36 38 70  3 192 191 102  3 105 136 23  3 29 138 121  3 138 29 145  3 164 108 165  3 193 194 130  3 69 144 47  3 144 46 47  3 45 46 40  3 183 93 32  3 195 196 197  3 186 105 23  3 131 193 130  3 164 126 124  3 199 179 198  3 198 179 180  3 111 112 113  3 202 201 200  3 40 203 41  3 13 68 204  3 26 25 18  3 18 142 26  3 150 205 129  3 183 184 206  3 32 61 33  3 207 201 202  3 208 201 209  3 211 42 210  3 112 3 98  3 136 106 0  3 42 104 210  3 212 157 213  3 134 147 135  3 214 215 208  3 215 216 208  3 201 208 216  3 208 217 214  3 168 112 98  3 42 211 43  3 9 2 81  3 20 171 19  3 187 189 70  3 20 21 152  3 70 189 218  3 156 155 219  3 220 120 52  3 52 120 53  3 28 30 10  3 159 221 158  3 222 179 223  3 224 13 225  3 14 13 224  3 226 178 179  3 227 226 179  3 192 102 100  3 228 135 147  3 67 172 65  3 50 49 153  3 195 40 196  3 150 149 205  3 82 83 229  3 230 191 192  3 60 231 58  3 212 213 182  3 15 82 63  3 193 220 52  3 52 194 193  3 27 232 25  3 232 18 25  3 233 13 204  3 201 207 209  3 234 217 208  3 235 236 237  3 58 239 238  3 185 59 240  3 238 241 58  3 179 242 227  3 243 242 179  3 223 179 199  3 40 195 203  3 183 206 93  3 244 157 156  3 129 43 150  3 181 132 245  3 17 18 246  3 246 200 201  3 201 247 246  3 246 247 17  3 61 93 248  3 156 219 214  3 156 214 217  3 156 217 234  3 248 62 61  3 157 244 213  3 123 31 203  3 249 123 203  3 249 203 195  3 213 250 182  3 213 184 250  3 250 184 182  3 230 192 245  3 245 251 181  3 245 192 251  3 102 149 101  3 135 228 145  3 53 119 54  3 54 119 252  3 119 137 252  3 253 35 36  3 190 51 50  3 152 21 153  3 35 253 171  3 70 218 71  3 15 63 13  3 255 254 229  3 99 166 167  3 13 256 225  3 13 257 256  3 257 13 233  3 229 254 82  3 258 254 255  3 237 259 235  3 254 258 235  3 236 235 258  3 259 260 235  3 240 59 261  3 261 59 262  3 235 261 262  3 235 260 261  3 58 231 263  3 264 239 58  3 263 264 58  3 265 243 179  3 266 58 241  3 179 267 265  3 58 267 179  3 268 270 269  3 271 268 269  3 272 274 273  3 275 276 277  3 278 276 275  3 280 279 281  3 284 283 282  3 277 285 275  3 287 286 288  3 286 287 289  3 292 290 291  3 294 293 295  3 296 298 297  3 284 282 299  3 301 302 300  3 303 304 305  3 305 306 303  3 309 307 308  3 310 311 309  3 313 312 314  3 299 316 315  3 317 319 318  3 320 321 311  3 323 322 324  3 325 326 296  3 327 328 329  3 322 323 330  3 332 331 333  3 323 334 330  3 298 335 297  3 338 336 337  3 339 340 341  3 336 340 339  3 338 340 336  3 296 326 342  3 345 343 344  3 343 346 344  3 348 347 301  3 349 290 292  3 350 276 278  3 334 323 351  3 353 352 312  3 356 354 355  3 358 359 357  3 301 300 348  3 360 361 289  3 362 285 277  3 285 363 364  3 275 285 364  3 362 363 285  3 367 365 366  3 368 350 278  3 371 370 369  3 372 278 373  3 366 374 375  3 292 291 376  3 350 377 378  3 367 364 365  3 380 293 379  3 278 364 373  3 364 278 275  3 368 381 350  3 286 289 361  3 361 375 374  3 378 377 382  3 382 381 378  3 383 384 385  3 276 350 378  3 367 375 361  3 366 375 367  3 287 360 289  3 386 274 387  3 383 288 388  3 288 383 287  3 274 272 387  3 326 389 390  3 391 393 392  3 373 364 367  3 373 367 361  3 356 355 394  3 301 396 395  3 396 301 347  3 349 397 290  3 398 292 376  3 397 399 290  3 399 400 290  3 314 401 313  3 402 403 404  3 385 405 406  3 348 407 347  3 302 301 395  3 390 342 326  3 408 348 300  3 376 408 398  3 409 320 311  3 410 339 411  3 393 413 412  3 414 319 415  3 416 319 414  3 294 379 293  3 409 311 310  3 418 417 419  3 335 298 342  3 421 420 422  3 293 380 295  3 321 294 295  3 414 342 423  3 321 424 425  3 423 342 390  3 310 426 409  3 379 389 326  3 326 380 379  3 426 310 427  3 428 426 427  3 308 428 427  3 429 430 431  3 330 430 429  3 332 432 331  3 433 279 324  3 279 434 324  3 321 320 294  3 413 308 307  3 311 321 435  3 435 309 311  3 307 309 435  3 307 435 436  3 435 437 436  3 438 440 439  3 441 442 443  3 295 380 326  3 444 303 306  3 444 445 303  3 447 446 436  3 449 448 425  3 448 449 450  3 451 306 305  3 454 452 453  3 451 444 306  3 455 444 451  3 297 335 456  3 316 299 282  3 430 330 457  3 330 334 457  3 459 458 460  3 461 297 456  3 305 462 451  3 456 463 461  3 464 284 299  3 415 342 414  3 315 464 299  3 355 354 465  3 354 466 465  3 467 469 468  3 470 351 471  3 317 472 473  3 322 474 433  3 433 324 322  3 415 335 342  3 475 421 353  3 458 332 476  3 452 332 458  3 477 317 318  3 469 354 356  3 314 478 401  3 458 459 479  3 481 480 482  3 484 483 344  3 336 485 337  3 485 486 337  3 488 481 487  3 490 489 401  3 491 481 492  3 494 346 493  3 334 495 457  3 351 495 334  3 339 485 336  3 496 486 497  3 458 479 452  3 485 498 497  3 497 486 485  3 340 338 459  3 434 279 499  3 497 488 496  3 458 476 460  3 475 333 331  3 490 341 489  3 500 492 494  3 501 503 502  3 401 504 313  3 489 341 340  3 505 498 485  3 485 339 505  3 339 410 505  3 404 506 402  3 434 499 507  3 508 509 510  3 452 454 332  3 460 340 459  3 433 281 279  3 279 453 499  3 453 511 499  3 454 453 279  3 279 280 454  3 332 333 476  3 512 474 429  3 474 322 429  3 460 489 340  3 432 280 420  3 280 281 420  3 420 331 432  3 331 420 421  3 421 475 331  3 281 513 422  3 420 281 422  3 514 317 477  3 515 328 501  3 501 516 515  3 286 361 374  3 517 421 422  3 335 415 518  3 339 341 411  3 411 341 490  3 490 401 478  3 519 317 520  3 329 521 522  3 467 468 523  3 469 467 354  3 518 524 335  3 524 456 335  3 330 429 322  3 525 512 429  3 526 525 429  3 527 512 525  3 527 513 512  3 512 513 474  3 429 431 526  3 431 430 528  3 467 466 354  3 386 343 529  3 524 518 520  3 520 518 519  3 501 328 530  3 472 502 473  3 472 317 514  3 531 430 457  3 430 531 528  3 522 521 469  3 470 532 495  3 351 470 495  3 466 531 457  3 457 465 466  3 465 394 355  3 495 465 457  3 533 535 534  3 419 534 418  3 503 501 530  3 296 342 298  3 319 416 318  3 518 415 519  3 325 296 297  3 536 473 537  3 473 536 520  3 538 539 540  3 541 539 538  3 540 542 538  3 371 271 543  3 510 370 508  3 478 544 490  3 268 271 369  3 271 371 369  3 545 546 410  3 547 442 509  3 443 357 441  3 509 508 547  3 442 547 443  3 469 521 548  3 467 523 466  3 493 346 387  3 329 328 515  3 411 545 410  3 272 549 493  3 362 277 276  3 527 422 513  3 272 493 387  3 515 548 521  3 515 521 329  3 300 302 405  3 552 550 551  3 469 548 468  3 549 553 493  3 544 411 490  3 411 544 545  3 545 544 554  3 545 554 555  3 553 494 493  3 546 545 345  3 555 345 545  3 345 555 343  3 270 268 556  
