ply
format ascii 1.0
comment bbox -25.753117  -25.131182 -23.142441  -22.745794 -25.073738  -24.351580 
element vertex 12
property double x
property double y
property double z
element face 7
property list uchar int vertex_index
end_header
-25.753116607700001 -23.094663619999999 -24.562723159800001  -25.668445587200001 -23.081920623799999 -24.639028549199999  -25.683694839499999 -23.142440795900001 -24.351579666100001  -25.471559524500002 -22.964822769200001 -24.892425537099999  -25.539852142299999 -23.055555343599998 -24.7073917389  -25.625946044900001 -22.999433517500002 -24.828237533599999  -25.470104217500001 -22.881237030000001 -24.997297286999999  -25.223516464199999 -22.901033401500001 -24.940593719500001  -25.6387672424 -22.920625686600001 -24.935346603399999  -25.305389404300001 -22.745794296300001 -25.073738098100002  -25.595960617100001 -22.824211120600001 -25.032512664799999  -25.131181716899999 -22.7883281708 -25.030235290499999  3 0 1 2  3 3 4 5  3 6 7 3  3 5 8 3  3 4 1 5  3 9 6 10  3 6 9 11  
