ply
format ascii 1.0
comment bbox 35.946758  36.716980 -7.585360  -6.974296 1.216598  1.355132 
element vertex 5
property double x
property double y
property double z
element face 3
property list uchar int vertex_index
end_header
36.7169799805 -7.2239470481900003 1.2165975570700001  36.205604553199997 -7.1161937713599999 1.31180608273  36.308372497599997 -7.5853595733599999 1.34264314175  35.946758270300002 -7.3224749565099998 1.35513174534  36.517589569099997 -6.97429561615 1.22879946232  3 0 1 2  3 1 3 2  3 0 4 1  
