ply
format ascii 1.0
comment bbox -28.422396  -24.519400 -1.982297  1.745116 -3.242285  4.669426 
element vertex 17
property double x
property double y
property double z
element face 10
property list uchar int vertex_index
end_header
-24.853281021099999 -1.83534955978 4.0374774932899999  -25.006349563600001 -1.9822970628700001 4.0495963096600001  -25.0497112274 -1.9301272630699999 4.2897515296900002  -24.760276794399999 -1.72571003437 4.0788846015900004  -24.56616687775 -1.52759981155 4.3140261173249996  -24.519399642900002 -1.51394295692 4.0805644989000003  -24.807575225800001 -1.7088055610699999 4.2969174385100004  -24.858636856099999 -1.7323087453799999 4.4889736175500001  -24.912982940700001 -1.77138102055 4.5869374275199997  -24.911317825299999 -1.77360546589 4.6694259643600002  -28.205999374400001 1.2901499867399999 -3.2131192684199998  -28.419290542599999 1.3590157032000001 -3.2236986160300001  -28.255517959599999 1.4500457048399999 -3.1913883686100002  -28.409164428699999 1.4220713377 -3.21363949776  -28.4223957062 1.5781905651100001 -3.2097969055200002  -28.344831466700001 1.6161900758700001 -3.2104167938199999  -28.415153503399999 1.74511635303 -3.2422845363600001  3 0 1 2  3 0 2 3  3 6 4 5  3 4 6 7  3 7 8 9  3 7 9 4  3 6 3 2  3 11 10 12  3 13 11 12  3 14 15 16  
