ply
format ascii 1.0
comment bbox -0.200606  1.274689 -5.170734  -0.224088 -14.314257  -2.676552 
element vertex 33
property double x
property double y
property double z
element face 27
property list uchar int vertex_index
end_header
0.47273689508400002 -4.9053940773000004 -14.148445129400001  0.274369001389 -4.95159101486 -14.130799293500001  0.47592228651000001 -4.8648142814600002 -13.9574575424  0.27741938829399998 -4.9456672668500001 -13.9291372299  0.049343600869199998 -0.65296882391 -2.8018600940699998  0.19338069856199999 -0.53406977653499998 -2.8223881721500002  0.065397202968599993 -0.44415950775099999 -2.75605082512  0.67430531978599995 -4.85734033585 -13.9628925323  0.67085552215599997 -4.9244155883799996 -14.1455574036  0.47881388664199998 -4.8822832107499998 -13.748416900600001  0.37019680440400005 -5.0199618339549996 -14.314256668100001  0.67742967605600002 -4.8318185806300002 -13.767114639300001  0.28038060665100001 -4.9787468910200001 -13.7155103683  0.077832501381649988 -5.0326261520400006 -14.000571250899998  0.88073521852500003 -4.90348339081 -13.341362953200001  0.97799938917299989 -4.8154613971749995 -13.573159217800001  0.58069799840449998 -4.9167392253850002 -13.53594827655  0.87585902214099998 -4.8252725601200002 -13.772242546099999  1.1787261366849999 -4.84177875519 -13.364729881300001  1.2746887206999999 -4.8659887313799999 -13.562337875400001  0.15044823785613334 -5.1090161005666666 -13.538002649933333  -0.063561402261299998 -0.40245229005799998 -2.7132976055100002  -0.14628149569000001 -0.61543720960600001 -2.7403540611300001  0.075815200805700006 -0.230056807399 -2.7272238731399998  -0.1164204999805 -5.1707344055149997 -13.751429557800002  -0.100591801107 -1.63598966599 -3.2407891750300002  0.0486575998366 -1.7331877946900001 -3.4071025848400001  -0.16277390718500001 -1.8058098554599999 -3.4255509376500002  -0.13314209878399999 -0.22408799827100001 -2.6765518188500002  -0.0258211996406 -0.76999300718300001 -2.8181536197699999  0.0077609000727499999 -1.06193864346 -2.92202854156  0.0708313006908 -0.90913438797000001 -2.8939561843899999  -0.200606231888 -1.0644150575 -2.8541437784799997  3 0 2 1  3 1 2 3  3 4 5 6  3 7 2 0  3 0 8 7  3 9 3 2  3 1 10 0  3 11 9 2  3 3 12 13  3 16 15 14  3 16 11 15  3 15 11 17  3 15 19 18  3 11 16 9  3 12 9 16  3 13 1 3  3 12 3 9  3 2 7 11  3 12 16 20  3 21 22 6  3 23 21 6  3 20 24 12  3 26 25 27  3 28 21 23  3 4 6 22  3 4 22 29  3 32 30 31  
