ply
format ascii 1.0
comment bbox 14.921480  22.324236 -27.486161  -21.939603 -24.935156  -21.056267 
element vertex 369
property double x
property double y
property double z
element face 402
property list uchar int vertex_index
end_header
17.0468292236 -25.080383300800001 -24.7510128021  16.945711135900002 -24.972114563000002 -24.7542190552  17.157619476299999 -25.080081939700001 -24.7553043365  21.580459594699999 -24.755554199199999 -21.086734771700002  21.652135849 -24.9209709167 -21.0838603973  21.538520813000002 -24.863460540799998 -21.0776329041  22.255490303049999 -24.2805223465 -21.430740356449999  22.214410781849999 -24.389773368850001 -21.531314849849998  22.318437576299999 -24.177696227999999 -21.490461349499999  15.2423591614 -25.030838012699999 -22.931110382100002  15.1721792221 -24.9952011108 -23.068071365400002  15.367725372300001 -25.140751838699998 -22.930695533750001  20.113741397849999 -24.696607589725001 -24.832135677324999  19.591291427600002 -24.966575622600001 -24.814319610599998  20.05708864 -23.774435043333337 -24.858564164899999  22.303554534900002 -24.173294067400001 -21.383651733400001  21.9587783813 -24.800945282000001 -21.237731933599999  21.885402679399999 -25.017957687399999 -21.327854156499999  15.6131792068 -24.865715026899998 -24.728773117100001  15.7164726257 -24.974712371799999 -24.724275589000001  15.708262443500001 -25.083858490000001 -24.7106590271  21.8610038757 -24.921806335399999 -21.181205749499998  21.827671050999999 -24.896198272700001 -21.1351604462  21.756731033299999 -25.0003490448 -21.1315326691  22.2251548767 -24.394744873 -21.693519592299999  22.175601959200002 -24.500371933 -21.686098098799999  22.038349151599999 -24.2393417358 -24.895526885999999  15.903427124 -25.191614151 -21.705505371099999  15.960109710699999 -24.981044769299999 -21.4078292847  15.9929666519 -25.218082427999999 -21.576759338399999  22.067873001100001 -24.710741043100001 -21.672954559299999  21.960908889799999 -24.921363830600001 -21.659631729099999  21.908740997300001 -25.0268707275 -21.652702331499999  15.62080669405 -24.931316375750001 -21.823883056649997  15.533734003699999 -24.742775599166666 -21.801925659166667  15.6608581543 -25.053817749 -21.940425872799999  20.1873060862 -24.614252090466664 -21.1117362976  19.938431739799999 -24.179009437583332 -21.108042716983334  20.0087432861 -24.52658843995 -21.118318557750001  14.965235710150001 -24.809206962600001 -23.241869926450001  15.195270538300001 -25.051208496099999 -23.2578239441  22.167593002299999 -24.497028350800001 -21.578151702900001  22.121740341199999 -24.605535507199999 -21.679529190099998  21.903169632000001 -24.906389236500001 -21.231334686299999  21.908645629900001 -24.793256759599998 -21.136903762799999  21.844942092899998 -25.011615753200001 -21.225421905499999  15.626850128200001 -24.701581001299999 -24.738479614299997  15.584876060500001 -24.53720569615 -24.74168777465  15.5190391541 -24.6469402313 -24.737241744999999  15.4188051224 -25.003824234 -22.360767364499999  15.3468923569 -24.935398101800001 -22.3565998077  15.25634717945 -24.960790634150001 -22.62725162505  16.7037181854 -24.9807128906 -21.158977508500001  16.489492416400001 -25.011489868200002 -21.1749286652  16.686513900800001 -25.194774627699999 -21.164657592800001  22.110858917200002 -24.601940155000001 -21.572114944500001  21.900049209599999 -25.021636962900001 -21.4349555969  21.905153274500002 -25.024333953900001 -21.543741226200002  20.142753601099997 -24.911728858949999 -24.82726478575  20.557447433499998 -25.0716266632 -24.8338775635  21.8297863007 -22.9118537903 -24.935155868500001  20.65898799895 -23.775845527649999 -24.8741531372  21.304170608500002 -25.4860744476 -24.845293044999998  15.1856079102 -24.647489547700001 -24.6882705688  15.1919775009 -24.537475585900001 -24.7153282166  18.490012486766666 -24.27766609193333 -21.152317682866666  18.662475585900001 -24.957611084 -21.1456012726  18.645090103099999 -25.169460296600001 -21.134460449199999  20.9589595795 -26.931165695200001 -21.529121398899999  19.7663526535 -24.627017974849998 -21.129419326799997  19.59061717985 -24.75115680695 -21.134570121750002  19.509667205820001 -24.453367233260003 -21.12892646788  20.166496276899998 -24.939085006700001 -21.1117019653  19.952276229900001 -24.942125320399999 -21.128587722799999  19.923943519550001 -25.258892059300003 -21.132434844949998  20.160841623933333 -25.13523165383333 -21.1231587728  15.204079628000001 -25.080894470200001 -23.640827178999999  16.092911402400002 -24.688927968333331 -21.244564056366666  16.2131757736 -24.513129234300003 -21.209574699400001  16.004380702999999 -24.021622657750001 -21.199296951249998  15.509907722499999 -25.029521942100001 -22.206970214799998  15.5301513672 -24.994180679300001 -22.0990180969  15.598833084100001 -25.070701599100001 -22.122970581099999  20.451447963724998 -25.120488643624999 -21.11983680725  16.495665550200002 -24.762219428999998 -21.180632591249999  16.287811660760003 -24.276206588759997 -21.183582305920002  19.693918228099999 -25.0138549805 -21.132284164400001  17.814266204799999 -24.753984451299999 -21.1328353882  19.907907485999999 -24.8030471802 -21.128547668500001  19.9712467194 -24.730533599899999 -21.124809265100001  16.712969462100002 -24.770828882866667 -21.160798390699998  15.4970550537 -24.975719451900002 -24.6775512695  15.3932237625 -24.86652565 -24.683034896900001  19.360288619999999 -25.074583053600001 -24.807592392  16.276109695399999 -24.773258209200002 -21.220697402999999  15.798677444499999 -24.982465743999999 -21.6207790375  15.839264869699999 -25.0137062073 -21.5664424896  15.7824029922 -25.007442474400001 -21.640218734699999  18.895864486699999 -25.051240921000002 -21.138910293599999  15.4145860672 -24.917564392100001 -22.174400329600001  16.2575454712 -24.988769531199999 -21.245687484699999  16.464015960699999 -25.198995590199999 -21.205722808800001  15.730334281899999 -25.036041259800001 -21.756275176999999  19.7932338715 -24.907533645600001 -21.1318016052  15.4974145889 -24.897926330600001 -21.989664077800001  17.7220058441 -24.9704494476 -24.774890899700001  17.600637435900001 -25.0789470673 -24.7677135468  17.373835563649997 -25.1335878372 -24.760506629950001  15.3743429184 -25.06778240205 -22.651325225850002  19.742146355764284 -22.090751375464286 -24.91001537868571  19.36135266622 -21.939602533959999 -24.906009674073331  19.438116746794119 -22.453971526182354 -24.889787673941179  14.9214801788 -24.804538726800001 -23.743124008199999  15.819139480600001 -25.083433151200001 -24.722820282000001  15.1955566406 -24.982654571499999 -22.893306732199999  16.236843109100001 -25.205068588300001 -21.296983718900002  16.0691699982 -25.255187988300001 -21.506690978999998  20.6359863281 -24.4266281128 -24.851251602200001  18.416441387622221 -23.978000005100004 -24.813330120499998  18.591956774391669 -23.716225306199998 -24.825505574550004  18.152782440199999 -25.077566146900001 -24.7809715271  21.934923172000001 -24.911962509199999 -21.335371017500002  19.670957088450002 -24.291186332700001 -21.120916843425  18.500715255700001 -24.914830207800001 -24.791683197049998  19.019887924199999 -25.182910919200001 -24.798217773400001  19.089021856136366 -23.091599551109091 -24.859976855190904  19.168286005666669 -24.436640421533337 -21.131867726633335  19.226615905799999 -24.993556976299999 -21.128192901599999  15.073075294500001 -24.856904983500002 -24.2705898285  16.834268569900001 -24.972337722799999 -24.752412796000002  16.9355487823 -25.080648422199999 -24.749193191500002  15.788381576566666 -24.57364082336667 -24.743453343733336  15.583841005966667 -24.491660436 -21.619754791266669  15.739631176 -24.7827119827 -21.586941719049999  15.600494384799999 -25.084665298499999 -24.6734447479  18.833564281449998 -24.679311752299999 -21.149362087250001  19.330096054070005 -24.078743743890001 -24.831457519529998  19.419220161439998 -23.773015403750001 -24.843126678459999  16.824197769200001 -25.080915450999999 -24.747270584100001  15.268668174733333 -24.765630722033332 -22.216970443733334  19.700708389300001 -24.9663639069 -24.8155727386  19.579086303699999 -25.074068069500001 -24.8107128143  20.053802013399999 -22.840122461337501 -24.891596555699998  20.251409803142856 -23.053394045142856 -24.888648714328571  20.003451108937501 -23.2811131477375 -24.875122547150003  16.480022430399998 -25.1902942657 -24.734865188600001  16.398141860999999 -24.864389419599998 -24.745532989499999  18.998424053200001 -23.799455801649998 -24.832707246133339  19.816246032700001 -24.91236686705 -24.818571090699997  19.918924331700001 -24.965917587300002 -24.8197574615  19.93763256075 -24.804549217249999 -24.825048446650001  22.324235916100001 -24.1835575104 -21.7083568573  22.274911880499999 -24.289167404200001 -21.700897216800001  15.8120126724 -24.786502838099999 -21.486383438099999  15.506170272849999 -24.8112745285 -24.7220401764  21.239406585700003 -24.91460990905 -21.0870800018  21.441738128699999 -24.922483444200001 -21.0562667847  21.448089599599999 -25.078559875500002 -21.0606307983  16.626913070650001 -24.809541702299999 -24.75080108645  16.707539558400001 -25.135391235349999 -24.744287490849999  17.506276130650001 -24.91671180725 -24.7694950104  17.284584999099998 -24.91714954375 -24.762992858899999  17.268428802500001 -25.079790115400002 -24.758892059299999  19.506271362300001 -25.158012390100001 -21.112312316899999  16.923393249499998 -24.977869033800001 -21.149888992299999  16.855993270900001 -25.04296875 -21.151582717899998  15.3456125259 -25.132661819500001 -24.157011032100002  15.4896774292 -25.329420089700001 -23.166791915899999  19.906335830700002 -25.0732765198 -24.816867828399999  17.9324989319 -25.078144073499999 -24.773963928200001  17.711189269999998 -25.078664779699999 -24.7706737518  19.774485674772727 -23.534876389927273 -24.859941829327273  19.482560764663631 -23.364056327127276 -24.858867818672728  19.74314308165 -25.07369613645 -24.812211036649998  20.5582447052 -24.986799240100002 -21.1094818115  20.636857032750001 -24.909530639650001 -21.1058588028  20.875164031966666 -25.138202667266665 -21.092429478966665  20.805761337300002 -24.930889129600001 -21.0876960754  21.221205711349999 -25.151512146000002 -21.0741481781  20.123664856000001 -25.072723388699998 -24.822792053200001  18.830286026 -25.4287338257 -21.113791465749998  21.010171890300001 -26.824968338000001 -21.536331176800001  19.3092784882 -24.949668884299999 -21.131746292100001  19.3277626038 -24.7376308441 -21.130435943599998  21.631969451900002 -25.131259918200001 -21.099802017199998  21.91977787015 -24.6981878281 -21.126470565799998  17.1261844635 -25.188201904300001 -21.1329841614  17.779170990000001 -25.180210113499999 -21.135425567599999  18.122994740799999 -25.691558837900004 -21.112407048533331  16.745617866499998 -24.4447803497 -21.160617828349999  17.150743484499998 -24.86834430695 -21.147110939000001  17.208621025100001 -24.553898811349999 -21.153987884499998  16.970667521166664 -24.327573140466665 -21.159086227433335  18.826259613000001 -25.588642120399999 -21.1008987427  18.002298355100002 -25.190520286549997 -21.135054588300001  21.485717773400001 -25.871690750100001 -21.598178863499999  17.062357902549998 -24.9175786972 -24.757526397699998  16.1214590073 -25.398749351500001 -21.816273689299997  15.906925678250001 -25.236116409299999 -21.828721046449999  15.903427124 -25.191614151 -21.705505371099999  18.826259613000001 -25.588642120399999 -21.1008987427  19.506271362300001 -25.158012390100001 -21.112312316899999  18.830286026 -25.4287338257 -21.113791465749998  15.5089321136 -25.302566528300002 -22.9716320038  15.56892299655 -25.299846649149998 -22.83046627045  15.367725372300001 -25.140751838699998 -22.930695533750001  15.7572193146 -25.632968902599998 -23.422132492100001  16.0490226746 -25.912311553999999 -23.3264636993  16.130264282199999 -25.896493911699999 -23.0318889618  19.360288619999999 -25.074583053600001 -24.807592392  19.579086303699999 -25.074068069500001 -24.8107128143  19.522036234533335 -25.2529411316 -24.80580266316667  21.756731033299999 -25.0003490448 -21.1315326691  21.696596145600001 -25.105709075899998 -21.125890731799998  21.788064956700001 -25.117040634199999 -21.219245910600002  16.3075218201 -25.909780502299999 -22.764188766499998  16.483924865733332 -26.124977111799996 -22.842860539733334  16.390184402449997 -25.887319564849999 -22.559849739099999  15.70418453215 -25.252350807199999 -22.4460468292  15.3743429184 -25.06778240205 -22.651325225850002  15.748868226999999 -25.356597900374997 -22.6299777031  20.781375885000003 -25.611271858199999 -21.07879638675  20.959117889399998 -25.575218200649999 -21.06798267365  20.801158905050002 -25.3754310608 -21.091631889349998  16.368422826133333 -25.687188466400002 -22.170637130733336  16.502655029300001 -25.866642951949999 -22.2432575226  16.565952936800002 -25.8598016103 -22.032223383566663  16.91933345795 -25.243030548100002 -24.747961044299998  16.707539558400001 -25.135391235349999 -24.744287490849999  16.824197769200001 -25.080915450999999 -24.747270584100001  16.133677800499999 -25.729410171533335 -22.731170018499999  16.277967453000002 -25.900403022749998 -22.800822258  17.083115895566667 -25.83446184793333 -24.73696517943333  16.722563425699999 -25.369855244966669 -24.736718495666668  17.043726444249998 -25.673708438875003 -24.739588260649999  16.287918090800002 -25.720409393299999 -22.448024749799998  21.7430801392 -25.3427257538 -21.633676528900001  21.485717773400001 -25.871690750100001 -21.598178863499999  21.585342407199999 -25.659719467199999 -21.6130390167  16.0604642232 -25.583405812566667 -22.59739875793333  16.18756866455 -25.570795059200002 -22.340937614449999  16.547355651899998 -26.050447464000001 -22.533245086699999  16.461870193500001 -25.876482009899998 -22.398216247600001  15.9929666519 -25.218082427999999 -21.576759338399999  16.099647522000001 -25.3451099396 -21.651790618900002  16.0691699982 -25.255187988300001 -21.506690978999998  20.903263092 -27.0371341705 -21.522760391199999  20.335373685513293 -27.486160604087541 -24.002862224803202  20.9589595795 -26.931165695200001 -21.529121398899999  21.637628555300001 -25.211254119900001 -21.1200237274  21.631969451900002 -25.131259918200001 -21.099802017199998  15.6608581543 -25.053817749 -21.940425872799999  15.7870144844 -25.228703498849999 -22.158432006799998  15.598833084100001 -25.070701599100001 -22.122970581099999  15.884982109100001 -25.348210334800001 -22.36900138855  15.730334281899999 -25.036041259800001 -21.756275176999999  15.708262443500001 -25.083858490000001 -24.7106590271  15.7025852203 -25.1932296753 -24.677898407000001  15.600494384799999 -25.084665298499999 -24.6734447479  17.373835563649997 -25.1335878372 -24.760506629950001  17.475888570166664 -25.582223256433334 -24.753646214766665  17.336403528866668 -25.8686682383 -24.746229807566667  15.733334064499999 -25.531438827550001 -22.995642662049999  15.195270538300001 -25.051208496099999 -23.2578239441  15.5008878708 -25.360116958599999 -23.551649093599998  15.204079628000001 -25.080894470200001 -23.640827178999999  16.9355487823 -25.080648422199999 -24.749193191500002  15.814597129799999 -25.557264328000002 -24.044486999549999  16.068099975599999 -25.945739746099999 -23.7196311951  15.819139480600001 -25.083433151200001 -24.722820282000001  17.276459693950002 -26.100454330449999 -24.739596366899999  17.268428802500001 -25.079790115400002 -24.758892059299999  17.035907745399999 -25.188650131199999 -24.7503261566  20.1718769073 -26.450796127299999 -24.804153442400001  20.002272288 -25.1800956726 -24.817530314133332  20.123664856000001 -25.072723388699998 -24.822792053200001  19.744450887066666 -25.216588338233336 -24.809803009066666  19.74314308165 -25.07369613645 -24.812211036649998  20.557447433499998 -25.0716266632 -24.8338775635  17.157619476299999 -25.080081939700001 -24.7553043365  20.505947112999998 -25.361371994000002 -21.1186313629  20.160841623933333 -25.13523165383333 -21.1231587728  21.046105384850001 -25.365374565099998 -21.07413196565  20.084714253733331 -25.363383611033331 -21.124800999966666  19.975803375249999 -25.5973002116 -21.118847529099998  19.923943519550001 -25.258892059300003 -21.132434844949998  20.875164031966666 -25.138202667266665 -21.092429478966665  21.031570434599999 -25.487283706700001 -21.069261550899999  20.451447963724998 -25.120488643624999 -21.11983680725  21.304170608500002 -25.4860744476 -24.845293044999998  20.2536392212 -26.6596469879 -24.8024101257  21.908740997300001 -25.0268707275 -21.652702331499999  15.3456125259 -25.132661819500001 -24.157011032100002  19.906335830700002 -25.0732765198 -24.816867828399999  21.448089599599999 -25.078559875500002 -21.0606307983  21.221205711349999 -25.151512146000002 -21.0741481781  21.422021865800001 -25.132343292200002 -21.057388305700002  21.844942092899998 -25.011615753200001 -21.225421905499999  21.885402679399999 -25.017957687399999 -21.327854156499999  21.834726333599999 -25.1238574982 -21.320552825899998  18.860584258999999 -25.1668491364 -21.136001586900001  18.895864486699999 -25.051240921000002 -21.138910293599999  16.855993270900001 -25.04296875 -21.151582717899998  17.1261844635 -25.188201904300001 -21.1329841614  16.906829834 -25.1913585663 -21.145326614399998  17.089415550250003 -25.380438804649998 -21.138703346250001  16.857910156199999 -25.30078125 -21.149875640899999  17.091617584200002 -25.6145114899 -21.140691757199999  16.440093040450002 -25.672879219049999 -21.815622329699998  16.256933212266667 -25.544808069866665 -22.056664784766667  16.297747611999998 -25.532860755950001 -21.760690689100002  16.015747070300002 -25.382616043100001 -22.1894054413  16.292394638099999 -25.499540328999998 -21.598411560100001  16.1699199677 -25.327899932899999 -21.466175079300001  19.460659980800003 -25.684870719899997 -21.099536895749999  21.797742843599998 -25.233200073199999 -21.4205856323  21.905153274500002 -25.024333953900001 -21.543741226200002  21.900049209599999 -25.021636962900001 -21.4349555969  17.940212249799998 -27.100086212200001 -24.725984573400002  17.4355945587 -26.152649879449999 -24.745019912700002  17.857758839933332 -25.437393824233336 -24.767761230466665  19.019887924199999 -25.182910919200001 -24.798217773400001  18.152782440199999 -25.077566146900001 -24.7809715271  18.419336001083334 -25.667289098133338 -24.774067560833334  19.693918228099999 -25.0138549805 -21.132284164400001  17.0468292236 -25.080383300800001 -24.7510128021  15.4896774292 -25.329420089700001 -23.166791915899999  16.236843109100001 -25.205068588300001 -21.296983718900002  16.464015960699999 -25.198995590199999 -21.205722808800001  16.255760192899999 -25.257865905799999 -21.317066192599999  18.062148729966669 -25.484514872233333 -24.770418484999997  17.964778900150002 -25.293667793250002 -24.771982192999999  17.804886817899998 -25.2402820587 -24.769881248499999  21.236745834400001 -25.282064437900001 -21.065591812099999  21.732366561900001 -25.222637176500001 -21.212841033899998  21.353507995600001 -25.1812572479 -21.0611152649  21.723653793299999 -25.334808349599999 -21.307775497400002  20.894378662100003 -25.730930328349999 -21.0643873215  15.509907722499999 -25.029521942100001 -22.206970214799998  15.5384502411 -25.087360382100002 -22.304637908899998  17.779170990000001 -25.180210113499999 -21.135425567599999  17.58288478855 -25.382884979250001 -21.135039329550001  18.827451705950001 -25.191672325150002 -21.135866165149999  18.645090103099999 -25.169460296600001 -21.134460449199999  16.686513900800001 -25.194774627699999 -21.164657592800001  16.489492416400001 -25.011489868200002 -21.1749286652  15.475455284100001 -25.1042785645 -22.485925674400001  15.4188051224 -25.003824234 -22.360767364499999  15.7824029922 -25.007442474400001 -21.640218734699999  15.839264869699999 -25.0137062073 -21.5664424896  18.420007705700002 -25.4436359406 -21.125274658199999  17.9324989319 -25.078144073499999 -24.773963928200001  17.711189269999998 -25.078664779699999 -24.7706737518  17.584291458149998 -25.240997314449999 -24.762908935550001  17.600637435900001 -25.0789470673 -24.7677135468  15.900787353533334 -25.561729431166668 -22.794057846099999  15.2423591614 -25.030838012699999 -22.931110382100002  16.603612899800002 -26.036231994600001 -22.352001190199999  16.749851226800001 -26.195854186999998 -22.3052196503  16.946228504174996 -26.421311855300001 -22.354614734675  16.6907787323 -26.184562683100001 -22.46138477325  17.006223678600001 -26.5354804993 -22.566192627  16.618011474599999 -26.198116302499997 -22.691911697400002  16.913030624400001 -25.4677028656 -21.151878356899999  16.879772186299999 -25.561698913600001 -21.166685104399999  15.967278480499999 -25.326916694650002 -22.043928146349998  18.002298355100002 -25.190520286549997 -21.135054588300001  18.428686142 -25.178461074849999 -21.140104293850001  16.480022430399998 -25.1902942657 -24.734865188600001  3 2 0 1  3 3 5 4  3 8 6 7  3 11 9 10  3 12 13 14  3 15 16 17  3 20 18 19  3 23 21 22  3 25 26 24  3 27 29 28  3 30 31 32  3 33 34 35  3 38 36 37  3 39 40 10  3 25 41 42  3 43 44 45  3 46 48 47  3 49 50 51  3 17 16 43  3 45 21 23  3 54 52 53  3 41 56 55  3 55 56 30  3 30 56 31  3 31 56 57  3 12 59 58  3 61 60 62  3 62 60 26  3 20 63 64  3 67 66 65  3 62 26 68  3 69 71 70  3 72 73 74  3 74 75 72  3 76 40 39  3 77 78 79  3 80 82 81  3 83 72 75  3 78 84 85  3 79 78 85  3 74 73 86  3 65 87 67  3 88 89 69  3 90 84 53  3 53 52 90  3 91 92 20  3 13 93 14  3 94 53 84  3 84 78 94  3 96 95 97  3 98 66 67  3 99 80 81  3 53 100 101  3 85 84 90  3 33 102 97  3 103 88 69  3 35 34 104  3 105 106 107  3 70 103 69  3 49 51 108  3 110 109 111  3 21 44 22  3 39 112 76  3 19 113 20  3 108 51 114  3 115 100 116  3 117 59 61  3 59 117 62  3 62 117 61  3 119 120 118  3 120 105 118  3 7 6 56  3 56 6 121  3 94 78 77  3 69 38 122  3 38 37 122  3 38 69 89  3 69 122 71  3 100 115 101  3 17 56 121  3 12 61 59  3 123 124 120  3 125 123 120  3 127 126 98  3 128 92 91  3 120 119 125  3 129 1 130  3 9 114 10  3 47 131 46  3 132 34 133  3 91 20 134  3 126 135 98  3 135 66 98  3 93 136 137  3 129 130 138  3 49 139 50  3 15 17 121  3 31 57 32  3 140 141 13  3 142 143 144  3 145 46 146  3 141 93 13  3 125 147 123  3 99 81 104  3 147 124 123  3 150 149 148  3 140 13 150  3 152 26 151  3 100 53 94  3 56 41 7  3 25 42 32  3 32 26 25  3 103 70 86  3 28 153 96  3 154 20 64  3 95 133 97  3 0 130 1  3 32 42 30  3 156 155 157  3 45 44 21  3 159 146 158  3 113 18 46  3 4 156 157  3 45 17 43  3 162 161 160  3 129 159 158  3 86 73 103  3 26 152 24  3 49 99 139  3 71 163 70  3 164 90 165  3 165 90 52  3 154 18 20  3 128 91 134  3 134 166 128  3 133 34 97  3 34 33 97  3 19 18 113  3 9 108 114  3 10 167 11  3 167 10 40  3 166 76 112  3 128 166 112  3 148 168 140  3 168 148 149  3 105 169 170  3 144 14 93  3 93 124 136  3 106 105 170  3 144 93 171  3 93 172 171  3 93 137 172  3 104 81 35  3 81 82 35  3 105 120 169  3 168 173 140  3 175 174 176  3 177 175 176  3 163 86 70  3 49 80 99  3 177 176 178  3 107 162 160  3 124 147 137  3 150 179 149  3 124 137 136  3 35 102 33  3 163 127 180  3 68 26 181  3 83 176 174  3 127 163 182  3 163 183 182  3 4 157 184  3 184 22 44  3 184 23 22  3 185 184 44  3 4 184 185  3 174 72 83  3 178 155 177  3 71 183 163  3 87 186 187  3 157 155 178  3 87 187 188  3 165 186 164  3 186 90 164  3 186 189 90  3 186 191 190  3 191 186 87  3 189 186 192  3 190 192 186  3 87 193 67  3 127 98 180  3 188 194 87  3 193 87 194  3 96 27 28  3 133 95 96  3 96 153 133  3 20 92 63  3 94 29 100  3 29 94 28  3 165 52 54  3 29 116 100  3 195 181 26  3 195 26 32  3 145 113 46  3 138 159 129  3 160 105 107  3 159 145 146  3 1 162 2  3 1 196 162  3 162 196 161  3 58 179 150  3 168 149 179  3 140 173 141  3 59 179 58  3 199 198 197  3 200 201 202  3 203 204 205  3 207 208 206  3 209 210 211  3 212 213 214  3 217 215 216  3 218 219 220  3 221 222 223  3 225 226 224  3 227 228 229  3 231 215 230  3 232 233 234  3 217 235 215  3 236 238 237  3 230 208 231  3 230 215 235  3 235 239 230  3 239 235 240  3 224 240 235  3 241 217 216  3 235 217 242  3 199 197 243  3 245 243 244  3 248 246 247  3 219 204 220  3 249 213 250  3 253 252 251  3 254 239 240  3 239 254 220  3 198 255 251  3 256 257 258  3 259 260 261  3 262 204 203  3 231 216 215  3 263 265 264  3 227 229 266  3 267 268 206  3 269 233 232  3 270 269 232  3 271 227 272  3 275 273 274  3 276 210 277  3 275 278 273  3 272 279 271  3 280 281 221  3 222 282 223  3 283 201 284  3 285 201 283  3 221 281 283  3 282 286 223  3 287 282 222  3 288 223 286  3 284 221 283  3 273 289 290  3 212 250 213  3 237 291 236  3 211 274 273  3 258 257 292  3 274 293 275  3 211 276 274  3 294 295 296  3 297 299 298  3 202 301 300  3 227 266 272  3 302 304 303  3 305 303 306  3 305 307 303  3 308 310 309  3 252 254 311  3 294 296 250  3 211 210 276  3 310 312 244  3 312 313 244  3 306 303 304  3 285 283 281  3 284 201 314  3 315 316 317  3 318 270 319  3 261 260 320  3 291 316 315  3 321 323 322  3 259 320 260  3 201 285 324  3 325 279 272  3 224 308 309  3 281 280 288  3 289 248 247  3 288 280 221  3 264 326 263  3 327 329 328  3 331 330 320  3 197 310 244  3 207 206 268  3 265 292 264  3 325 272 266  3 289 273 278  3 221 223 288  3 331 320 332  3 282 333 295  3 295 286 282  3 299 214 334  3 214 297 212  3 333 335 295  3 299 297 214  3 299 334 336  3 222 221 337  3 338 339 253  3 296 295 335  3 303 341 340  3 213 334 214  3 301 343 342  3 300 301 342  3 304 302 344  3 344 345 328  3 274 276 293  3 293 276 277  3 304 344 306  3 245 244 313  3 346 347 219  3 348 255 199  3 255 198 199  3 349 348 199  3 343 200 350  3 320 319 261  3 259 261 227  3 351 332 352  3 332 351 322  3 322 331 332  3 353 320 259  3 259 354 353  3 320 353 332  3 354 332 353  3 352 332 354  3 254 240 311  3 239 220 355  3 204 355 220  3 204 262 355  3 355 262 206  3 326 206 262  3 326 262 203  3 205 204 219  3 205 326 203  3 355 230 239  3 208 230 355  3 355 206 208  3 219 218 346  3 254 218 220  3 252 218 254  3 206 264 267  3 264 292 267  3 264 206 326  3 339 252 253  3 218 252 339  3 339 346 218  3 347 346 339  3 219 356 205  3 242 224 235  3 224 242 225  3 242 357 225  3 358 360 359  3 361 359 360  3 358 357 360  3 360 357 241  3 242 241 357  3 241 242 217  3 362 241 216  3 360 241 362  3 224 309 240  3 307 363 364  3 311 309 365  3 259 227 271  3 251 365 198  3 197 365 309  3 200 366 350  3 367 343 350  3 243 197 244  3 197 198 365  3 310 197 309  3 318 269 270  3 339 338 347  3 233 227 234  3 228 227 233  3 269 368 233  3 233 368 228  3 252 311 365  3 309 311 240  3 251 252 365  
