ply
format ascii 1.0
comment bbox 24.718138  35.500969 -6.166194  4.148754 -25.774441  -4.934361 
element vertex 43
property double x
property double y
property double z
element face 34
property list uchar int vertex_index
end_header
24.718137741100001 1.2249987125399999 -25.774440765400001  26.617906570399999 -0.60672068595899997 -24.590211868299999  26.514175415 -0.37869960069699998 -24.644386291499998  24.898178100599999 4.1487541198700004 -25.113176345799999  24.953603744500001 3.9358081817600001 -25.0714244843  24.912310600250002 3.9385679960250002 -25.27624607085  26.373285293599999 -0.123016700149 -24.709581375100001  25.8121738434 0.91236597299599997 -24.9718856812  24.963418960599999 3.3456575870499998 -25.5032424927  25.465272903399999 2.01113581657 -24.948957443200001  24.873594284100001 3.9393045902299999 -25.480335235599998  27.515486477294139 -4.5061276870729996 -24.147544264800484  24.870435714700001 3.7534008026099999 -25.583364486699999  34.5139503479 -4.9554465611766672 -6.4547284444199997  34.73474502565 -5.2171349525449999 -6.2092018127399999  34.633649826050004 -5.006091117855 -6.1894528865799998  25.8121738434 0.91236597299599997 -24.9718856812  26.373285293599999 -0.123016700149 -24.709581375100001  26.126985549899999 0.55968302488300004 -24.6097106934  34.608309427900004 -5.1616280873599996 -6.4719831148766671  34.438861846899997 -4.5625548362700004 -5.9771580696099997  34.551208496100003 -4.7923436164900002 -6.0577311515800005  34.400566101099997 -4.5493869781500003 -6.08591032028  34.736068725599999 -5.0440287589999997 -5.92192602158  34.82702064515 -5.2550995349900003 -5.9981791973150003  34.8948554993 -5.4478917121899997 -6.06931781769  26.617906570399999 -0.60672068595899997 -24.590211868299999  27.515486477294139 -4.5061276870729996 -24.147544264800484  26.818276405349998 -1.1305738091499999 -24.472622871399999  34.411851882950003 -4.7346086502049998 -6.378177165985  34.698352813699998 -5.0312604904200002 -6.0294671058700002  35.430202484100001 -5.81198787689 -4.9343614578199997  34.883953094500001 -5.2745347023000004 -5.8378515243500004  35.490913391100001 -6.1661939621000004 -5.2916097641000004  35.384801864650001 -5.9635992050199995 -5.3226244449599998  35.446346282999997 -5.9865436554000002 -5.1668348312400001  35.500968933099998 -6.0044620037049992 -5.0097846984850003  34.968648274733333 -5.6365761756900001 -6.0844920476300004  34.304649353000002 -4.3226709365799998 -5.95011377335  25.939823150666669 1.2454824447633335 -24.241315841666665  26.625962273154769 -0.118297912984587 -24.21217710922992  25.540784835833335 1.9913824001933333 -24.676276524866665  25.465272903399999 2.01113581657 -24.948957443200001  3 0 2 1  3 3 4 5  3 0 7 6  3 8 7 0  3 9 8 10  3 6 2 0  3 1 11 0  3 8 12 10  3 14 13 15  3 16 18 17  3 19 13 14  3 20 21 22  3 23 21 20  3 14 24 25  3 28 26 27  3 13 29 15  3 29 22 15  3 14 15 24  3 15 30 24  3 25 19 14  3 31 24 32  3 35 33 34  3 30 23 32  3 32 24 30  3 21 23 30  3 36 35 31  3 22 21 15  3 24 31 35  3 19 25 37  3 34 24 35  3 20 22 38  3 21 30 15  3 40 41 39  3 40 42 41  
