ply
format ascii 1.0
comment bbox -24.095765  -23.700878 -6.361101  -3.550826 -0.927358  0.180956 
element vertex 5
property double x
property double y
property double z
element face 3
property list uchar int vertex_index
end_header
-23.879741668699999 -3.6989778280299999 -0.42117005586599998  -23.7313976288 -6.2669873237599996 -0.024336300790300001  -23.700877507533335 -3.8611282507566664 -0.92735834916300008  -24.095765431700002 -3.5508257548033337 0.1347623678546  -23.879003524800002 -6.3611011505099997 0.18095619976499999  3 0 2 1  3 1 3 0  3 1 4 3  
