ply
format ascii 1.0
comment bbox 32.621109  37.446548 -10.361698  -3.032796 -5.097955  1.355132 
element vertex 339
property double x
property double y
property double z
element face 348
property list uchar int vertex_index
end_header
36.904075622599997 -8.5057802200299992 0.030096000060399999  36.871616363500003 -8.6227531433099998 -0.078240796923600003  36.803945541399997 -8.6265115737899993 0.057066248729799998  36.810928344700002 -8.7072753906199996 -0.062788903713200006  35.607875823999997 -10.235260009799999 -0.19697269797299999  35.413154602100001 -10.242326736500001 -0.130627393723  35.359313964800002 -10.0731267929 0.012638200074400001  35.246557235699996 -5.6021459102649995 -0.32024505734449998  34.809972763049998 -5.3975021839149999 -0.48461925983449999  35.188537597699998 -5.7656736373899999 0.034584000706700001  36.843093872099999 -7.0672926902800004 -1.9782464504199999  36.931518554649998 -7.2531294822649999 -1.95909881592  37.165107727100001 -7.2892074585 0.0253740996122  35.546520233149998 -5.6933050155650005 -0.28049049898949996  35.438240051299999 -5.7972149848900001 0.11363369971499999  35.165830612199997 -5.2582795619949998 -1.736668527125  35.191499710049996 -5.19248819351 -2.0636744499199997  34.983963012700002 -5.1028823852550005 -1.8567051887549999  35.035285949699997 -5.2887823581699998 -1.1299455165849999  34.766590118400003 -5.0400905609100004 -1.4820280075100001  34.840023040799998 -5.1685276031500003 -1.08682227135  36.681491851799997 -6.7034974098199998 -1.00964641571  34.432939529449996 -8.83203125 -0.075400950386900006  34.3386116028 -8.9404726028399999 -0.213482096791  34.513088226299999 -9.1279602050800008 0.0493091009557  36.388378143300002 -6.3253679275500003 -0.66247218847300005  36.467067718500005 -6.406055688855 -0.86476111412050005  36.647548675499998 -6.5462989807099996 0.035321701317999998  36.210052490199999 -9.5896053314199996 -0.13696829974700001  36.212158203100003 -9.3285884857199992 -0.0074356999248300004  36.000898361250002 -9.3813757896399999 0.063102900981899995  33.273769378650002 -3.5139935016650004 -4.6378808021499998  33.035520553599994 -3.2951461076749999 -4.9850506782549999  33.1842460632 -3.4086589813199999 -4.8808097839400002  36.201328277599998 -6.1129565239000003 -1.04745364189  33.887271881099998 -5.0282454490699999 -0.75492078065900003  33.902786254900001 -4.8586335182199996 -0.88980031013500005  34.003292083700003 -4.92176628113 -0.82085478305799997  34.657707214399998 -9.6641511917099994 0.014843399636400001  34.539813995400003 -9.6619091033900002 -0.227198302746  34.6569252014 -9.57137966156 0.052881799638300003  35.135566711400003 -5.3398852348299997 -1.2372893094999999  34.551387786900001 -8.8504343032800001 0.104854099452  35.998432159399997 -5.9317426681500001 0.225868999958  35.246807098399998 -5.3620138168300002 -1.50973927975  36.604030609150001 -6.5950381755849996 -0.58024656772600003  36.667684555050002 -6.6713953018150001 -0.8333539664745  34.406703948999997 -9.1218614578199997 -0.134839996696  36.685077667199998 -8.8737964630100006 -0.030119499191600001  36.615577697799999 -9.0910415649399994 -0.132513195276  34.4198760986 -6.9126091003400001 -0.0080775003880300001  34.16963958745 -7.0221562385550005 -0.22898739576299998  34.526313781699997 -7.2956881523100003 0.0223386008292  36.4427566528 -6.2614636421199998 0.127346500754  34.378475189233335 -7.6570843060799989 -0.15804579854036668  34.152181625349996 -7.5362405777000001 -0.38330245017999998  34.700002670299995 -6.8414642810849999 0.18779389932749999  34.711551666299997 -7.2450919151299997 0.15512989461400001  34.662200927699999 -5.29670286179 -0.54017108678799997  34.608722686749999 -5.4126863479600003 -0.4272787123915  34.465091705299997 -5.3093013763399997 -0.52322071790699998  34.682258605999998 -6.1858158111600003 0.110746897757  34.681018829300001 -5.9377679824799996 -0.0024417999666199999  34.912025451700003 -5.9469394683800001 0.091170601546799998  36.308691024799998 -6.2138812541949999 -0.22630904614949998  34.663818359399997 -9.8979997634900005 -0.26972035318600002  36.637201309199995 -9.180489063265 -0.257606551051  34.528793335000003 -6.5200881957999997 0.069489203393499996  37.2440948486 -7.9846849441499996 -0.053409099578899999  37.266979217500001 -7.8879570961000001 -0.165729805827  37.224422454799999 -7.9569821357699997 0.066959902644200001  37.183662414600001 -8.0549058914200007 0.074389100074799999  34.709774017299999 -5.72683095932 -0.139070495963  37.160129547099999 -8.17848777771 -0.037523899227400001  37.104682922400002 -8.2660093307500002 -0.024092899635400001  37.131008148200003 -8.1444740295399995 0.086715899407900005  34.425762176500001 -9.3109960556000004 -0.16645079851200001  34.449619293200001 -9.3927783966099998 -0.168723806739  34.585502624500002 -9.3944454193099993 0.0638398006558  37.240589141800001 -7.47261428833 -0.014915600419000001  37.446548461900001 -8.2907190322899993 -1.4634541273099999  34.326825459766667 -5.9578153292366665 -0.21227373431133331  34.395223617550002 -6.2456681728349999 -0.077585496474049997  34.066011428799996 -4.99011659622 -0.764315843582  34.101454734800001 -4.8517807722100006 -0.9203521609305001  36.804191589399998 -6.8517198562599999 -0.49447509646400001  36.785272598250003 -6.8159821033500005 -0.31576220691200002  36.555812835700003 -9.1766862869299999 -0.11753460019799999  36.537651062000002 -9.0267534256000008 0.0111643997952  35.8630027771 -9.7451810836800004 -0.026715999469199999  35.7349319458 -9.7905092239399991 0.0148053001612  35.856899261499997 -9.4783353805499999 0.106893002987  36.3759765625 -9.3093147277800004 -0.063658699393300003  36.348886489850003 -9.0910801887499986 0.073434649035449995  34.085342407200002 -4.7423558235199996 -1.0794336795799999  34.2297115326 -4.8478786945349999 -0.98270761966599995  34.2583045959 -4.78254938126 -1.1264938116100001  34.322008132950003 -5.239634513855 -0.57666897773750003  34.085712432900003 -5.1591024398799998 -0.62045431137100004  35.1141624451 -5.0801038742099998 -2.28697967529  35.011293411249994 -5.0329897403700006 -2.1820631027250004  35.26400121053333 -5.2060890197733336 -2.2087751229600001  34.975591659550005 -4.9666299819950002 -2.3803281784049997  35.080501556400002 -5.0098938942000002 -2.4827795028700002  36.796777725200002 -6.7953314781199996 -0.09144340269265  36.6177444458 -8.9543848037699991 -0.0120313996449  34.25447654725 -6.597357749935 -0.1303382515907  36.983356475800001 -7.0699729919400003 -0.23227949440500001  36.810863494899998 -6.8711376190199998 -0.61101931333500004  37.276809692400001 -7.7541031837499999 -0.048320498317500002  37.269718170200001 -7.7350964546199998 0.067059099674199998  37.266960144000002 -7.6055574417100003 0.077625803649399999  35.171932220499997 -5.0872359275800001 -2.4215688705399998  34.376903533899998 -4.7905020713799997 -1.3918416500099999  34.222908019999998 -4.7133479118299997 -1.3221815824500001  34.256950378399999 -4.7633051872300003 -1.1734402179700001  37.269760131799998 -7.6215939521799996 -0.0361654981971  34.648118972799999 -5.1869759559599995 -0.70820775628100008  34.786466598499999 -5.2992103099799994 -0.61860907077799998  34.814751942966666 -5.2342027028400002 -0.76163627704000003  35.261245727499997 -5.1684699058500003 -2.3630623817399998  35.710575103799997 -5.8554997444200003 0.17546260356900001  33.242298126199998 -3.4176847934699999 -5.0211081504799999  33.341987609900002 -3.4915308952299999 -4.9504861831699998  34.159496307399998 -4.7173538207999997 -1.19432914257  32.621109008799998 -3.0327961444899998 -5.0979547500600004  32.763107299799998 -3.1757140159600001 -4.8171658515900004  32.884021758999999 -3.18549132347 -5.0926666259799998  37.269359588599997 -7.8758563995399999 -0.054515000432700002  37.255378723100002 -7.8520517349199999 0.063575796783000002  37.2069854736 -8.0850238799999996 -0.047457098960900002  36.5120429993 -6.46159791946 -1.0535992383999999  35.132705688500003 -5.0286164283800003 -2.62506341934  34.820163726799997 -9.9308662414600004 -0.080812200903899997  35.31485939025 -5.34130072594 -1.8098158836399998  33.987613678000002 -5.0917868614200001 -0.68641477823300001  33.995723724400001 -5.1806669235199996 -0.62575489282600005  36.254127502400003 -6.1672616004899998 -1.1821142435100001  36.608551025399997 -6.5321259498600002 -0.064370200037999994  37.232221603349998 -7.6294839382199999 -0.30210530757949999  37.217864990199999 -7.7604231834400004 -0.41742494702350003  37.264686584450004 -7.7662386894250002 -0.21182870119800001  37.255916595499997 -7.89385032654 -0.27333268523199999  36.534801483149998 -9.49940633774 -0.35496599972249998  36.532474517799997 -9.361150741574999 -0.23358820378799999  35.3017120361 -5.3746676444999997 -1.64704632759  37.069484710700003 -8.2279472351099994 0.102683797479  36.987438201900005 -7.0513682365449997 -0.063263051444739996  34.586481094349999 -8.3501939773549996 0.077502101659699993  34.362206776966666 -8.2700544993099996 -0.23196036616966667  34.570098877 -8.5764474868799994 0.106903202832  34.942806243899994 -10.19674777985 -0.30783389508749998  35.385047912600001 -10.361698150600001 -0.24192190170299999  34.4283733368 -8.5418219566350011 -0.120083503425  35.958274841300003 -9.9411811828599994 -0.18558140099000001  36.013011932399998 -10.110885620099999 -0.32768028974500002  35.8968315125 -10.1631669998 -0.29130810499199999  34.985870361300002 -4.9385933876000001 -2.54811668396  37.242095947300001 -7.4595818519600003 0.097361899912400005  34.8918075562 -9.6619262695299994 0.19683299958700001  36.838386535650002 -6.7968652248349999 0.12098919600229999  36.086059570300002 -9.6356315612800003 -0.0969163998961  37.261619567899999 -7.6297149658199999 -0.14535379409800001  36.934303283699997 -8.5397577285799997 -0.094510801136499997  36.969371795699999 -8.4245643615700008 0.012688299641  36.483261108400001 -9.25413513184 -0.097484000027199993  36.992197036749999 -7.0260078906999999 0.162794202566  35.071044921899997 -9.9282274246199993 0.092963002622099999  36.093715667700003 -9.11359500885 0.16222010552900001  35.9305915833 -10.3190097809 -0.42480680346499999  35.221279144299999 -5.11187648773 -2.5675044059799998  36.117515564000001 -10.051946640000001 -0.35960060358000001  36.066432952900001 -9.8843402862499996 -0.21912850439500001  36.658487319949998 -8.7801651954649991 0.097826901823250004  35.309562683099998 -5.1952896118199998 -2.5102274417900001  37.0035552979 -8.3085269927999992 0.120452098548  36.863166809100001 -6.7932662963899997 0.282962203026  34.765504201266666 -7.9645786285400009 0.25095923244966667  37.230579376199998 -7.4794564247100004 -0.123606897891  34.712322235099997 -8.2874069213899997 0.22318629920499999  35.61988449095 -10.04413175585 -0.075527099892500005  35.616527557399998 -9.8424682617200006 0.052496999502199999  35.8347473145 -9.9890680313099995 -0.146107703447  35.973812103299998 -9.6896829605099999 -0.061515700072099999  36.329936981199999 -9.5415954589799998 -0.175449296832  36.4283638 -9.4803886413599994 -0.205536201596  35.482654571499999 -9.8855390548699997 0.096198298037100005  35.765159606899999 -10.206604003900001 -0.24902839958699999  36.174369812000002 -9.8278827667200002 -0.25262698531200001  36.277591705299997 -9.7689638137799992 -0.28432661294900002  36.306892394999998 -10.0584554672 -0.53578001260800001  36.333681106550003 -9.8783979415900003 -0.42217725515350002  36.215065002400003 -9.98916149139 -0.38887751102399998  36.229717254599997 -10.1334486008 -0.51443701982500001  33.332532882700001 -3.5215587615950001 -4.7768139839200003  34.814647674550002 -8.2409133911150008 0.35376800596699998  34.765504201266666 -7.9645786285400009 0.25095923244966667  34.989686965900006 -8.0488200187649994 0.54171100258799998  35.025428771999998 -8.5950722694399992 0.77637466788300002  35.1745262146 -8.5178184509299992 0.93354207277300005  35.123695373549999 -8.2790117263749998 0.79285532236099998  35.9619598389 -7.0934910774200004 1.2256767749799999  36.205604553199997 -7.1161937713599999 1.31180608273  35.982837676999999 -6.8719224929799996 1.0922286510500001  36.537651062000002 -9.0267534256000008 0.0111643997952  36.130056297841335 -9.1911032518745301 0.48914050563059286  36.348886489850003 -9.0910801887499986 0.073434649035449995  34.976226806600003 -7.7954812049899997 0.45802861452100002  35.711370468150001 -9.5754046440099998 0.15121199935649998  35.7349319458 -9.7905092239399991 0.0148053001612  35.616527557399998 -9.8424682617200006 0.052496999502199999  36.931068420400003 -8.0905227661100003 0.499270111322  36.865940094000003 -8.1724338531500003 0.51690709590899997  37.0319709778 -8.18821716309 0.23082180321199999  34.727920532200002 -8.5681810379000005 0.32829891145250001  34.931878407799992 -8.3622121810899994 0.57045795520133336  36.873500823999997 -8.0366029739399991 0.63729470968199997  36.876632690400001 -7.8971638679499998 0.76001548767100002  36.937633514399998 -7.9538755416900004 0.62000727653499998  35.370544433600003 -5.9608535766599999 0.28133571147899999  35.128051757800002 -5.9379506111099998 0.19655010104199999  35.438240051299999 -5.7972149848900001 0.11363369971499999  35.701162338299994 -6.4456455707549996 0.6666054427625  35.589541117366664 -6.6927328109733333 0.73268425464633324  35.361682891800001 -6.44169855118 0.51931369304700004  35.577377319299998 -6.1858429908800003 0.50954258441900002  35.998432159399997 -5.9317426681500001 0.225868999958  35.817924499500002 -6.2059183120699997 0.59644520282699998  37.2490005493 -7.7062664031999999 0.18831080198299999  37.247604370099999 -7.5775251388499996 0.19848479330499999  37.266960144000002 -7.6055574417100003 0.077625803649399999  35.225839614850003 -6.1666321754450006 0.372314453125  35.856899261499997 -9.4783353805499999 0.106893002987  36.658487319949998 -8.7801651954649991 0.097826901823250004  34.710315704300001 -8.8512468337999994 0.32545140385600002  34.863853454599997 -8.8523111343400007 0.54868447780600005  34.8826293945 -8.6558365821849996 0.57664909958850008  35.096286773700001 -6.7757635116550006 0.4299821406605  35.136859893800001 -6.4408559799200003 0.41998839378399999  34.9888839722 -7.1693959236149993 0.35388524830349999  34.700002670299995 -6.8414642810849999 0.18779389932749999  34.711551666299997 -7.2450919151299997 0.15512989461400001  37.228084564200003 -7.8187017440800002 0.18745230138300001  37.102882385299999 -7.9704246521000002 0.33333098888399998  37.046424865699997 -8.05780410767 0.34729608893399999  37.093406677200001 -8.1044607162499993 0.21483260393100001  36.726203918499998 -8.0480175018299995 0.80420577526100001  36.8082923889 -7.9772658348099998 0.77916777133899995  36.804042816200003 -8.1158075332599999 0.65683650970499996  36.991237640400001 -8.0053157806400002 0.48371559381500001  37.072650909450005 -7.8715298175799999 0.46410059928899999  36.820461273200003 -8.4218120575000004 0.28997960686699997  36.844429016100001 -8.2981433868399996 0.402778595686  36.929407119749996 -8.3069896698000001 0.25909435749100002  36.647548675499998 -6.5462989807099996 0.035321701317999998  36.691375732399997 -6.5640730857799996 0.132907003164  36.838386535650002 -6.7968652248349999 0.12098919600229999  34.712322235099997 -8.2874069213899997 0.22318629920499999  34.586481094349999 -8.3501939773549996 0.077502101659699993  36.093715667700003 -9.11359500885 0.16222010552900001  37.193004608199999 -7.9208984375 0.19249990582500001  37.269718170200001 -7.7350964546199998 0.067059099674199998  37.255378723100002 -7.8520517349199999 0.063575796783000002  37.224422454799999 -7.9569821357699997 0.066959902644200001  36.7952232361 -8.5442819595300001 0.177992999554  36.803945541399997 -8.6265115737899993 0.057066248729799998  36.677488326999999 -8.6538071632399998 0.212263703346  35.140609741200002 -8.0007972717300007 0.7344901561735  37.183662414600001 -8.0549058914200007 0.074389100074799999  37.147163391100001 -8.0154409408599996 0.202023595572  37.131008148200003 -8.1444740295399995 0.086715899407900005  37.069484710700003 -8.2279472351099994 0.102683797479  36.992197036749999 -7.0260078906999999 0.162794202566  36.863166809100001 -6.7932662963899997 0.282962203026  37.165107727100001 -7.2892074585 0.0253740996122  34.912025451700003 -5.9469394683800001 0.091170601546799998  34.8944854736 -6.17176628113 0.21949450671699999  36.000898361250002 -9.3813757896399999 0.063102900981899995  35.483167648299997 -9.6851611137399995 0.22369730472549998  35.482654571499999 -9.8855390548699997 0.096198298037100005  35.334739685049996 -7.0406277179700005 0.63588938116999993  34.528793335000003 -6.5200881957999997 0.069489203393499996  34.8132705688 -6.4563229084000007 0.26027910411349997  34.570098877 -8.5764474868799994 0.106903202832  34.5998153687 -8.6891660690299997 0.14706440269900001  34.551387786900001 -8.8504343032800001 0.104854099452  37.0035552979 -8.3085269927999992 0.120452098548  34.551784515400001 -9.1232395172099991 0.092950001359000001  34.513088226299999 -9.1279602050800008 0.0493091009557  36.308372497599997 -7.5853595733599999 1.34264314175  36.1328125 -7.8678197860700001 1.2708206176800001  36.455432891800001 -7.5585284233100003 1.28866744041  36.540786743200002 -7.7622685432400003 1.1246985197099999  36.479938507100002 -7.9918284416200001 1.01477754116  36.6061439514 -7.9507360458400003 0.97057431936299998  36.665023803700002 -7.7203373909000002 1.08100652695  36.582340240500002 -7.5182576179499998 1.2435171604199999  37.152214050300003 -7.8781046867400004 0.32234519720100002  36.716129303000002 -6.5676956176800001 0.23815590143199999  35.188537597699998 -5.7656736373899999 0.034584000706700001  34.645801544199998 -9.0043869018600002 0.22783890366599999  34.772850036599998 -8.8746662139900003 0.40978199243500002  35.605060577399996 -7.2068651517233322 0.95466381311266668  35.463527679400002 -7.5585312843299999 0.90792608261100005  37.242095947300001 -7.4595818519600003 0.097361899912400005  35.710575103799997 -5.8554997444200003 0.17546260356900001  34.682258605999998 -6.1858158111600003 0.110746897757  36.938877105700001 -7.8129615783700004 0.74347001314200001  36.787906646700002 -8.2456207275400004 0.53997099399600001  36.648370742799997 -8.340618133545 0.58399254083649998  36.720062255899997 -8.1852006912200004 0.68253678083400005  34.6569252014 -9.57137966156 0.052881799638300003  34.585502624500002 -9.3944454193099993 0.0638398006558  34.779632568399997 -9.4332866668699999 0.24024310707999999  35.7567634583 -7.3652482032800002 1.22845983505  35.822643280000001 -7.4699048996000004 1.33137309551  35.946758270300002 -7.3224749565099998 1.35513174534  36.868522644000002 -7.7492222785899996 0.88808339834200001  36.930839538599997 -7.6648788452099996 0.87144660949700004  36.844825744600001 -7.5895242691 1.02353775501  36.993000030499999 -7.7231421470599999 0.73040902614600001  35.071044921899997 -9.9282274246199993 0.092963002622099999  35.027221679699998 -9.3907470703100007 0.44149020314199999  34.8918075562 -9.6619262695299994 0.19683299958700001  34.915679931600003 -9.31338024139 0.41607278585399998  34.784420013400002 -9.3934993743900002 0.26378220319700002  34.657707214399998 -9.6641511917099994 0.014843399636400001  35.038528442400001 -8.8523750305199993 0.76106101274500004  34.912307739299997 -9.1228666305499999 0.512036919594  35.041633605999998 -9.1816844940200006 0.59873467683799997  35.140060424799998 -9.1205844879200004 0.69756108522399995  34.724147796600001 -9.12340259552 0.30653360485999998  36.4427566528 -6.2614636421199998 0.127346500754  36.935771942099997 -8.3880290985099997 0.138967305422  36.969371795699999 -8.4245643615700008 0.012688299641  36.995433807399998 -7.8668541908299998 0.60540527105300002  36.7121925354 -6.5499873161300002 0.35526880621899998  36.461280822799999 -6.2603244781500003 0.236152902246  36.864402771000002 -8.4652872085599995 0.15893830359  3 0 2 1  3 1 2 3  3 6 5 4  3 9 7 8  3 12 10 11  3 14 13 9  3 9 13 7  3 15 16 17  3 18 19 20  3 10 21 12  3 23 24 22  3 27 26 25  3 30 28 29  3 32 31 33  3 34 25 26  3 35 37 36  3 39 38 40  3 18 13 41  3 42 22 24  3 41 13 43  3 43 44 41  3 41 44 18  3 26 45 46  3 24 23 47  3 2 48 49  3 52 50 51  3 34 53 25  3 51 54 52  3 55 54 51  3 57 56 50  3 59 9 58  3 58 60 59  3 61 63 62  3 43 53 64  3 53 34 64  3 64 34 43  3 65 38 39  3 66 3 2  3 67 50 56  3 68 69 70  3 70 71 68  3 9 72 63  3 75 74 73  3 76 77 78  3 80 79 12  3 61 62 81  3 82 61 81  3 83 84 37  3 45 86 85  3 87 49 88  3 82 67 61  3 89 91 90  3 86 45 27  3 29 92 93  3 94 95 96  3 97 83 98  3 99 100 101  3 102 100 103  3 104 86 27  3 49 105 88  3 77 40 78  3 106 50 67  3 85 107 108  3 2 49 66  3 109 111 110  3 17 16 100  3 101 112 99  3 113 114 115  3 111 109 116  3 84 95 94  3 117 118 119  3 112 100 99  3 120 112 101  3 37 84 36  3 121 13 14  3 122 32 123  3 123 32 33  3 96 124 94  3 59 72 9  3 125 126 32  3 32 127 125  3 110 128 109  3 103 100 112  3 70 69 128  3 128 110 129  3 71 130 68  3 76 24 47  3 18 44 15  3 96 115 124  3 129 70 128  3 131 46 21  3 13 121 43  3 103 112 132  3 106 67 82  3 65 133 38  3 101 100 16  3 15 134 16  3 18 17 19  3 15 17 18  3 98 135 136  3 97 60 58  3 34 26 137  3 138 27 25  3 53 138 25  3 141 140 139  3 69 142 141  3 142 140 141  3 144 143 66  3 34 145 43  3 74 75 146  3 80 11 12  3 107 147 12  3 148 54 149  3 150 22 42  3 43 145 44  3 151 152 5  3 153 22 150  3 9 8 58  3 154 156 155  3 103 157 102  3 27 45 26  3 130 71 75  3 73 130 75  3 79 158 116  3 116 158 111  3 133 159 38  3 160 85 104  3 30 161 28  3 141 162 109  3 163 164 0  3 1 163 0  3 165 88 93  3 87 88 165  3 12 147 166  3 58 118 117  3 167 151 6  3 6 151 5  3 160 104 27  3 164 163 74  3 168 30 29  3 72 62 63  3 78 24 76  3 131 137 26  3 155 156 169  3 120 170 132  3 104 85 86  3 27 138 53  3 26 46 131  3 155 171 172  3 105 48 173  3 120 132 112  3 174 170 120  3 77 39 40  3 74 146 175  3 175 164 74  3 2 173 48  3 160 107 85  3 147 107 160  3 57 50 52  3 147 176 166  3 160 176 147  3 37 35 135  3 158 79 12  3 52 54 177  3 30 91 161  3 12 21 107  3 167 133 151  3 178 79 116  3 54 148 179  3 180 90 181  3 154 155 172  3 179 177 54  3 154 182 156  3 153 150 148  3 148 149 153  3 183 161 91  3 91 89 183  3 184 185 92  3 93 92 165  3 93 168 29  3 182 89 90  3 180 181 186  3 182 180 187  3 4 187 180  3 167 159 133  3 173 88 105  3 161 183 172  3 188 28 161  3 188 161 172  3 189 28 188  3 172 183 154  3 154 183 89  3 87 165 144  3 190 191 192  3 190 192 193  3 156 182 187  3 154 89 182  3 90 180 182  3 186 6 180  3 6 4 180  3 162 116 109  3 162 141 139  3 162 178 116  3 33 31 194  3 123 33 194  3 197 196 195  3 200 198 199  3 203 201 202  3 204 205 206  3 207 196 197  3 208 210 209  3 213 211 212  3 195 214 215  3 216 218 217  3 219 221 220  3 222 224 223  3 225 227 226  3 228 230 229  3 231 219 220  3 232 205 208  3 200 215 198  3 205 204 233  3 234 235 236  3 214 234 236  3 224 238 237  3 240 241 239  3 228 242 230  3 243 244 245  3 247 246 248  3 249 243 250  3 252 251 253  3 254 255 256  3 257 258 214  3 214 195 257  3 206 205 259  3 260 261 242  3 260 263 262  3 264 233 265  3 233 264 266  3 267 215 200  3 268 269 270  3 269 245 270  3 271 270 213  3 270 245 213  3 247 216 217  3 272 273 274  3 220 275 276  3 242 261 230  3 259 205 277  3 210 208 278  3 278 279 210  3 280 237 239  3 233 266 205  3 281 240 282  3 262 261 260  3 243 249 244  3 283 285 284  3 213 286 271  3 287 285 288  3 290 291 289  3 290 292 291  3 292 290 293  3 293 294 292  3 294 295 292  3 296 292 295  3 292 296 291  3 235 198 236  3 243 297 250  3 273 256 298  3 220 299 275  3 245 269 243  3 208 209 232  3 300 285 287  3 300 301 234  3 255 298 256  3 285 300 234  3 282 238 276  3 234 214 284  3 280 303 302  3 216 212 211  3 236 215 214  3 304 229 230  3 219 305 221  3 237 282 240  3 275 306 276  3 297 243 269  3 222 225 224  3 281 282 306  3 276 306 282  3 221 299 220  3 238 231 276  3 217 218 307  3 308 310 309  3 311 313 312  3 225 222 227  3 236 198 215  3 237 238 282  3 220 276 231  3 238 224 231  3 301 235 234  3 314 315 316  3 202 201 316  3 317 318 319  3 307 318 317  3 320 318 307  3 321 322 323  3 322 324 323  3 323 324 313  3 324 325 313  3 312 313 325  3 326 313 311  3 326 323 313  3 327 328 329  3 324 329 328  3 329 324 322  3 327 329 330  3 325 324 328  3 214 258 283  3 327 198 235  3 328 327 235  3 325 328 331  3 331 328 235  3 287 331 300  3 312 331 287  3 312 325 331  3 288 312 287  3 254 332 255  3 253 333 286  3 333 334 286  3 253 213 212  3 218 335 307  3 244 211 213  3 213 253 286  3 269 268 260  3 260 268 263  3 297 269 260  3 244 213 245  3 218 216 211  3 307 317 217  3 248 216 247  3 248 212 216  3 253 212 252  3 237 240 239  3 336 298 337  3 205 232 277  3 338 333 251  3 333 253 251  3 257 195 196  
