ply
format ascii 1.0
comment bbox -17.817083  -5.648428 25.005335  28.703875 -24.996338  -22.549253 
element vertex 535
property double x
property double y
property double z
element face 868
property list uchar int vertex_index
end_header
-13.986195564300001 25.798039436300002 -22.666297912600001  -13.977074146250001 25.504390716549999 -22.648367881749998  -14.2846107483 25.682853698700001 -22.603979110699999  -17.023277282700001 25.364622116100001 -22.6591663361  -17.227935791 25.339393615700001 -22.729890823400002  -17.2389087677 25.294286727900001 -22.703176498400001  -16.519482612600001 25.9842745463 -23.533761024466667  -16.401445388799999 26.080670166040001 -23.280488586419999  -16.596766789766665 25.933204650866671 -23.241197586066672  -15.580308437300001 25.93344306945 -22.559567451500001  -15.87323999405 26.053305625900002 -22.603982925399997  -15.635174751299999 26.117706298800002 -22.549253463700001  -14.01862192155 27.962078094500001 -24.686400413549997  -14.289575894666667 27.738666534433332 -24.580687205  -14.3946108818 27.64607810975 -24.6481590271  -14.118547439566667 27.887210845933328 -24.535719553633331  -16.570217768366664 25.921210924783335 -24.299983660366664  -16.59716796875 25.893376350399997 -24.492010116599999  -16.721689224266665 25.802651723233328 -24.388402938866665  -16.792490005499999 25.744509696999998 -24.4753551483  -15.555079936999999 25.387825965849999 -22.596788406400002  -15.567167282100002 25.666881561299999 -22.589993476899998  -15.272769927999999 25.567756652850001 -22.584202766400001  -15.26356601715 25.277213096600001 -22.569634437600001  -14.327793121299999 27.686870575 -22.7342681885  -14.6269693375 27.5019512177 -22.851509094200001  -14.33288002015 27.739291191100001 -22.877252578749999  -14.1482744217 27.8899250031 -22.8446083069  -14.13009929655 27.921906471250001 -22.9980239868  -14.0501012802 27.982904434200002 -22.905845642100001  -14.006430864325001 28.053486824025001 -23.480948448199999  -14.41368852342857 27.66951206751429 -23.95266042437143  -14.299682480957143 27.783560071671435 -23.67880521501429  -13.0560584068 28.297882080100003 -22.81562805175  -13.143519401600001 28.6940116882 -23.4720535278  -12.7928667068 28.277919769299999 -22.805837631199999  -9.5638513565099998 25.684644699050001 -22.66549777985  -9.268997510276666 25.643374125133334 -22.667425155666667  -9.3467779159499997 25.804609298700001 -22.6664485931  -16.041540145900001 25.628802299500002 -22.658635139499999  -15.844563007350001 25.39491939545 -22.652438163799999  -16.25666236875 25.44477176665 -22.65570259095  -15.336906433099999 25.757246017500002 -22.580478668200001  -16.306514740000001 26.112344741800001 -22.890941619900001  -16.188793182349997 25.934233665450002 -22.6568822861  -15.9275965691 26.2983722687 -22.709714889499999  -16.522439956700001 25.9698562622 -22.8795223236  -13.2331695557 28.642095565799998 -24.5321788788  -13.2062091827 28.6675376892 -24.678680419900001  -13.221449851999999 28.6685619354 -23.7176551819  -13.275720596300001 28.620273590099998 -23.905742645250001  -12.712686538666667 26.941820144666668 -22.71806716916667  -12.4178390503 26.688425064099999 -22.712480544999998  -12.4302310944 26.936208725 -22.7164115906  -14.7416229248 27.43101644515 -23.067172527299999  -14.719319071085716 27.433443886914286 -23.39595522201429  -14.616243124024999 27.537933349599999 -23.226105213175003  -15.267677879339999 26.955179595940002 -23.902785873399999  -15.343624472612499 26.901930332187501 -23.633536577224998  -15.093936800950001 27.103629827500001 -23.74657940865  -16.265900611900001 25.72087192535 -22.643707275400001  -16.549003601100001 25.5248336792 -22.62679767605  -14.559557914699999 25.819345474199999 -22.59425354  -14.566572189350001 25.540348052950002 -22.579195976299999  -10.535678863499999 26.8934841156 -22.754625320399999  -10.843610763499999 26.934619903600002 -22.7343883514  -10.7748451233 26.818214416499998 -22.7196331024  -10.915142059300001 27.359899520900001 -22.9160499573  -12.732103824599999 27.284180641150002 -22.721126556400002  -12.745035807299999 27.658740997333329 -22.730564753199999  -12.9966583252 27.468694686900001 -22.723236084  -16.148667971316666 26.269206364949998 -23.46815427145  -15.883351189757144 26.469745908457146 -23.670928682614285  -16.076744079600001 26.312875429783332 -23.798852602666667  -15.850312233 26.501953125 -22.8877067566  -15.845129013099999 26.529584884599998 -22.9912471771  -15.768349647499999 26.573049545300002 -22.8473320007  -16.0258216858 26.366653442400001 -22.971120834400001  -14.261861801133334 27.812260945633337 -22.969223658233332  -16.743465968542857 25.800406319728573 -24.012418746957142  -8.6839828491199995 25.7924957275 -22.719161987299998  -8.4473867416400008 25.6315822601 -22.7072982788  -8.4098365783700011 25.947381973259997 -22.859890365599998  -8.6813020706199993 25.959516525250002 -22.758645057700001  -13.62604379655 27.7376079559 -22.717591285700003  -13.673789024366668 27.355319976800001 -22.723351160700002  -13.834180831899999 27.618425369299999 -22.677671432499999  -16.641211373471428 25.885088239385713 -23.778256552557146  -16.536084175116667 25.953799565633332 -24.068137168899995  -16.699674606350001 25.85408592225 -23.015753746000001  -16.798067092899998 25.7781143188 -23.007844924899999  -16.8821306229 25.726363182100002 -23.100721359249999  -16.087962150583333 26.282578786233334 -24.417933146150002  -16.1088833809 26.256484031675001 -24.696002960200001  -16.245888137800002 26.155298995980001 -24.577039337159999  -15.0620746613 25.372379302999999 -22.570493698100002  -14.84259557725 25.226597785949998 -22.565009117100001  -17.353054809579998 25.339021301280003 -24.056861877439996  -17.064024789000001 25.550906317557143 -24.193557739257141  -17.304175376899998 25.364007314033334 -24.301074663783336  -17.549407323166665 25.172321955366666 -24.380648295066667  -17.418893814099999 25.267330169674999 -24.445332527174997  -17.504343509649999 25.219393253324995 -24.160826683074998  -16.7168540955 25.8157196045 -22.862998962399999  -16.811519622799999 25.7535552979 -22.9065532684  -13.853060313642857 28.148583820885715 -23.872406550814286  -13.659852822633333 28.284833590183336 -24.033810297633334  -13.67239379882 28.30740470888 -23.687124633780002  -17.559574127200001 25.2267341614 -23.147369384800001  -17.645048141499998 25.161231994600001 -23.188425064099999  -17.60474967955 25.187357902550001 -23.33398818965  -7.7256872653949999 25.4733657837 -22.784321784999999  -7.8366525173150006 25.33391571045 -22.697070121799999  -7.3955483436599998 25.2283325195 -22.6855010986  -7.6597048441566669 25.138254165633331 -22.657531102500002  -16.721724828083335 25.836553255716669 -23.518923759450001  -15.631398201 26.373943328900001 -22.581991195699999  -15.5534486771 26.308393478399999 -22.5563488007  -14.3384672801 26.768637339266665 -22.598472595199997  -14.4005947113 27.104825973499999 -22.5641021729  -14.288546562200001 27.099512100199998 -22.5788955688  -14.134782791099999 27.216976165799998 -22.581422805799999  -16.224451446539998 26.200479125980003 -23.723180770879999  -16.164885838833335 26.233327229816666 -24.129873911533334  -16.370749609814283 26.083400181357142 -23.900693076014285  -16.542677879350002 25.925039291399997 -24.681883811950001  -16.48543167115 25.97562503815 -24.5478334427  -16.646095275899999 25.8340778351 -24.9963378906  -12.158102035500001 25.424880981400001 -22.696645736699999  -12.080740928599999 25.303728103600001 -22.686878204300001  -12.348085403400001 25.2024288177 -22.682094574000001  -17.479043960599999 25.2618026733 -23.003356933599999  -17.5711174011 25.199962616000001 -23.0461997986  -16.868974049883331 25.69523239136667 -24.259437561050003  -16.948436737057143 25.649767466942855 -23.922282900142857  -14.61456251145 27.537827491750001 -23.006052970900001  -14.908522129050001 27.287733078000002 -22.928049087550001  -13.9997823715 28.005995559679995 -24.16972236634  -13.822745595657143 28.149639129628564 -24.18623815261429  -13.919050216680001 28.057659530640002 -24.499316024759999  -14.827755928 27.346591949499999 -22.835546493500001  -16.889151763919998 25.706575775120001 -23.57655410768  -14.28321790695 25.8662996292 -22.613684654250001  -14.2943868637 26.142747879000002 -22.6349315643  -14.586622715000001 26.121479034450001 -22.60422801975  -15.528092702249998 26.759299914016669 -23.465599060066666  -15.723693847628571 26.606512342171431 -23.453712190914285  -15.626071294166669 26.702168146766667 -23.1068763733  -14.50677986146 27.615259552019999 -23.471596527079999  -14.448427200299999 27.681260585799997 -23.145294189450002  -15.18915519716 27.036704254159996 -23.384267425520001  -14.934622383119997 27.253041076639999 -23.283533859259997  -15.071638822549998 27.130304813400002 -23.503465652475001  -12.5038976669 28.268215179399999 -22.885925293  -11.8326978683 27.791982650800001 -22.814905166599999  -14.117973600114285 27.9208341326 -23.920815604085714  -14.323086500175 27.723898887650002 -24.397889137300002  -14.086041768399999 27.924172719316662 -24.358393986999999  -14.070787270883335 27.979499816883333 -23.696420987433331  -17.303880691500002 25.3916492462 -22.919765472400002  -16.76943778995 25.809911727900001 -23.157263755800003  -16.800273259466664 25.787701924666667 -23.299488703433337  -16.966632843025 25.665709495550001 -23.359284400924999  -16.333007431059997 26.103340911859998 -24.186474609400001  -16.354726791379996 26.07980651854 -24.39077644348  -16.63711833955 25.77993869785 -22.726653099049997  -17.375483195000001 25.350449244166668 -23.061856587733331  -13.64555454255 28.361306190499999 -23.199732780449999  -13.745596885699999 28.2828197479 -23.1914291382  -13.341697216050001 28.073717117299999 -22.757880210850001  -15.799322319039998 26.560618591299999 -23.255892944320003  -15.226416905733332 26.015749613433332 -22.591323216733333  -14.870905876166667 26.296155929566666 -22.608790715533331  -15.2417739232 26.285655975333338 -22.593662897733328  -14.8714337349 25.93076229095 -22.598616600050001  -13.847157478333335 28.1919148763 -23.131202061966665  -13.901553153999998 28.145195960999999 -23.321461677549998  -14.5799560547 26.3088588715 -22.611200332599999  -14.60969781875 26.527748107900003 -22.60764789585  -17.096234321600001 25.552653312650001 -22.9849081039  -10.096152305615 26.862962722749998 -22.842727661150001  -9.3172225952099996 26.418792724599999 -22.861089706400001  -9.5890941619899994 26.4100322723 -22.748414993299999  -13.4446372986 28.469709396359995 -23.867709350580004  -13.46632766724 28.437141418459998 -24.074851608279999  -14.90649318695 26.610522270200001 -22.5835533142  -15.254465103166668 26.551301956166668 -22.587498982733337  -14.8753824234 27.187423706099999 -22.642669677699999  -15.05738449095 27.149353981049998 -22.837015151999999  -14.205972194683333 27.884362856550002 -23.412457148233333  -15.144863128700001 26.814569473300001 -22.586999893200002  -15.3026618958 26.960817337000002 -22.842294692999999  -14.131182670599999 27.733839034999999 -22.6372509003  -13.01665735245 26.972195625300003 -22.721716880750002  -12.982099533066666 26.6151587168 -22.711913426733332  -17.668251037600001 25.078792572000001 -24.4010639191  -17.723262786900001 25.029989242599999 -24.534675598100002  -17.639764785800001 25.094900131199999 -24.4955615997  -17.7035198212 25.113368988000001 -23.326398849499999  -17.817083358800001 25.031555175800001 -23.270683288600001  -13.471473693849999 28.424582481400002 -24.4326825142  -13.6343310674 28.282101313266669 -24.597996393833331  -13.31196689605 28.567823410000003 -24.570240974450002  -15.298471450840001 26.90690078738 -24.437639236460001  -15.770299434675001 26.525666713725002 -24.539404869075  -15.1532292366 27.021291732800002 -24.573722839349998  -15.55166769025 26.762453079250001 -23.016274452200001  -15.726922988849999 26.626291275 -23.099252700800001  -17.027143478399999 25.198041915899999 -22.634010314899999  -16.549692153900001 25.294179916400001 -22.612604141199999  -17.181030591316667 25.473665237433334 -23.953977266950002  -13.099169095366667 27.299312591533333 -22.731016159066666  -13.367756271359999 26.965793991099996 -22.730061721779997  -13.538885116566668 27.235115687033332 -22.737135569233331  -15.431126185828571 26.846814019342851 -23.266866411485715  -17.308047485339998 25.399455642720003 -23.554886627199998  -17.675790786699999 25.130287170399999 -23.423007965099998  -17.364001750949999 25.368345737475 -23.328777313224997  -14.655106544500001 27.002641677900002 -22.563133239700001  -14.62902927395 27.205638885500001 -22.584243774400001  -15.029901504525 27.126424312600001 -24.515614032724997  -15.108009202128573 27.071127482828576 -24.282850265499999  -14.897778272649999 27.241404533400004 -24.399427413950001  -13.373453140300001 25.043848037700002 -22.6809835434  -13.3951025009 25.407501856499994 -22.699062983166666  -13.655823389699998 25.153076807666668 -22.673721313466668  -14.0502414703 27.9559593201 -22.800622940099998  -13.999319076500001 27.7354450226 -22.6315593719  -13.855263709999999 27.856046676599998 -22.668178558299999  -12.483488400766666 26.164491653466666 -22.710340499866664  -12.407377719899999 26.4830083847 -22.7069196701  -12.692221005766667 26.504487991333331 -22.715368270900001  -12.900236447666666 26.265949885033333 -22.71159935  -13.3237695694 28.5912399292 -23.709591865549999  -13.350130399066666 26.478352864583332 -22.7153523763  -13.3661403656 28.559462547300001 -23.51156139375  -13.261507034299999 28.648612022400002 -23.570837974550003  -13.495897054675 28.451907634725 -23.572336196899997  -13.71283245085 26.416438102699999 -22.711910247799999  -13.853079605120001 26.778544998160005 -22.705598068260002  -14.296836853 27.4326877594 -22.584678649899999  -14.069570541400001 27.434982299799998 -22.6116476059  -17.613386154200001 25.127960205099999 -24.267072677600002  -17.697353363000001 25.063011169399999 -24.306537628200001  -17.727397918699999 25.047760009800001 -24.212055206300001  -17.752552032499999 25.014316558800001 -24.440448760999999  -13.801898956324999 28.221930026999999 -23.439218521150003  -13.678429126699999 28.317059516899999 -23.437055587749999  -11.54246234895 27.017929077150001 -22.721901893599998  -11.6145496368 27.263233184800001 -22.742788314799999  -11.334418296799999 27.116764068599998 -22.7372684479  -11.855312347449999 27.406776428200001 -22.728600501999999  -12.617537180566666 25.328793207833332 -22.696102778133334  -12.6072273254 25.107536315899999 -22.688077926599998  -12.4817943573 25.1668376923 -22.689641952500001  -8.1615736484550006 25.863054275500001 -22.990590572350001  -8.3074049949625 25.993962764725001 -23.105834960925002  -17.2100200653 25.4531726837 -22.8763484955  -8.9916687011699992 25.3388738632 -22.64506244655  -9.1797437667799997 25.5181713104 -22.6616764069  -9.2268282572433336 25.320924123133334 -22.646903355933333  -9.5845966339099995 25.42304801945 -22.6645183563  -9.8684005737299998 25.424093246449999 -22.66073322295  -9.8274736404399992 25.209140777599998 -22.652818679799999  -13.321303176899999 25.98138771056 -22.713624954220002  -12.8944797516 25.913542747500003 -22.712294578525  -11.290293693500001 25.853193283100001 -22.692869186399999  -11.079189777349999 25.966969490049998 -22.686024665849999  -11.34578323365 25.574801444999999 -22.684115409850001  -11.444422086066666 26.043632507366667 -22.689113616933337  -12.4768791199 27.9322814941 -22.736940383899999  -12.1228542328 27.804935455300001 -22.7412700653  -7.7570347785933338 25.671134312933333 -23.138521830266665  -8.2865543365450005 25.603968620300002 -22.71860408785  -13.0504350662 28.702898025500001 -23.660335540799998  -13.109126091 28.703874588000001 -23.5686950684  -8.0307970046999984 25.744951883933336 -22.927679061866666  -8.1164347330699993 25.487051010133332 -22.708875656133333  -12.888810793566668 25.356132507333331 -22.701556523633332  -12.661120414733332 25.684530258166671 -22.7073624929  -9.0538482666049998 25.137151718150001 -22.626904487600001  -9.6260690689100006 25.701190948499999 -22.664815902699999  -9.5300312042200002 25.459096908599999 -22.663812637300001  -13.633800029749999 28.03801250455 -22.74033260345  -9.9070215225249996 26.404161453249998 -22.703093528700002  -9.598202705384999 26.130029678349999 -22.678776741050001  -9.898379325865001 26.107554435699999 -22.686081886250001  -9.3507642745999995 26.0643348694 -22.681295394900001  -14.615350042085714 27.496660777499994 -24.048367909014285  -14.507032966619999 27.603084945659997 -23.691492462160003  -14.696998715399999 27.439300298687499 -23.7200388908375  -13.68771362305 25.713344573999997 -22.688990592949999  -8.0907859802199997 25.305887222300001 -22.6730651855  -8.4696416854849996 25.394285201999999 -22.664063453650002  -8.2405843734750004 25.18861103055 -22.642742157000001  -6.6283731460600004 25.3271007538 -23.115053176899998  -6.6704125404400001 25.402746200549998 -23.35134792325  -6.4731941223150002 25.344243049600003 -23.45585823055  -7.2175017992666666 25.439152399700003 -22.985459645599999  -7.6484654744466667 25.565775553400002 -22.945280075033335  -12.391335010500001 25.911291122449999 -22.706979751600002  -12.385187149050001 25.622368812600001 -22.7003202438  -12.094018459299999 25.808542251599999 -22.697954177850001  -9.576712131499999 25.13599967955 -22.662898063649997  -9.4805974960300006 25.268039703399999 -22.655323028600002  -9.375906944275 25.057582855250001 -22.644539833049997  -13.4242067337 28.5217971802 -23.264049530000001  -13.3979282379 28.535514831499999 -23.3625602722  -12.124194145166667 26.43273862203333 -22.698483784999997  -12.104360580449999 26.0933008194 -22.6963644028  -13.9601917267 28.0529003143 -22.863809585599999  -8.8979997634900005 25.762298584 -22.680192947399998  -8.6240272521999994 25.570425033599999 -22.670101165799998  -8.9826844533300001 25.944658915199998 -22.697249730466666  -12.861689567599999 25.057193756099998 -22.688004493699999  -14.112396240200001 27.9539833069 -23.151035308800001  -14.058601061499999 28.010577519733332 -23.305590311700001  -14.251246929200001 27.838345050824998 -23.162290096275001  -13.963451067599999 28.08831278486667 -23.151257832833334  -7.1038336753866673 25.463896433533336 -23.206632614166665  -6.9328904151950006 25.453895568850001 -23.332161903349999  -14.914563655849999 26.88335990905 -22.5617856979  -9.9112858772300001 25.59544086455 -22.660851478550001  -7.8857713937750002 25.707162380225 -23.026870727525001  -13.871608972524999 28.1546163559 -23.637029647799999  -6.8195300102249998 25.417124748200003 -23.207616805999997  -6.7628302574150005 25.329600334150001 -23.0083761215  -6.3862266540533339 25.344212849933331 -23.631100336700001  -6.2529020309399996 25.300731658899998 -23.693050384500001  -6.5899477005050002 25.4184064865 -23.586100578349999  -15.477760314900001 26.823242187466665 -22.925511042266667  -13.316309610999999 28.566119511933334 -24.090419769299999  -6.5653910636899999 25.278259277299998 -23.075613021900001  -6.7464056015000002 25.268686294599998 -22.909006118800001  -6.81414270401 25.458953221633333 -23.518763224266667  -15.070361137400001 25.6173419952 -22.582399368299999  -15.078219413799999 25.862974166899999 -22.595048904399999  -14.85709428785 25.635109901450001 -22.575976371749999  -5.8138365745499998 25.155317306499999 -24.556428909299999  -5.99606084824 25.242544174199999 -24.4426364899  -5.8984866142300003 25.1934432983 -24.5499992371  -8.7458453178400006 25.217778205849999 -22.635517120399999  -8.6135492324800005 25.234550476100001 -22.642503738399999  -5.8954966862999996 25.179136912000001 -24.313371658333335  -5.9276993274700001 25.1710100174 -24.08256721495  -5.6862607002300001 25.069171905499999 -24.465431213399999  -5.7427482605 25.067255020099999 -24.250221252399999  -5.64842844009 25.015787124599999 -24.3561439514  -17.483343760166665 25.209817886366665 -24.601196924833332  -16.116996765149999 25.198366165149999 -22.633116722099999  -17.001780509974999 25.617413997675001 -23.73335933685  -17.051183700599999 25.589468002299999 -23.564924240100002  -14.901607831299998 27.247756004349998 -24.167066891999998  -17.138875484474998 25.533941268924998 -23.441062927250002  -15.287230764128575 26.928950173514284 -24.151096616471428  -15.50640392305 26.747332811349999 -24.240898370737501  -16.2011489868 26.2321071625 -23.0543365479  -16.215564727775003 26.228934288024998 -23.224410533925003  -16.00221014025 26.3997926712 -23.122213363650001  -15.096652030950001 27.12761354445 -23.129223823549999  -14.895135243733334 27.295338948566666 -23.123989105233335  -14.621026992799999 25.031608581499999 -22.566829681400002  -14.544908841466667 25.201759338399999 -22.578207651766665  -15.919092496233333 26.417753855383335 -24.339187939966664  -16.393387476600001 26.076455434166665 -23.037035624166666  -16.494426727300002 26.0015974045 -23.029690742450001  -15.5839500427 26.7348194122 -22.8667144775  -15.825825691216666 26.504587809249998 -23.970692316699999  -15.9939285914 26.367779731733336 -24.050065994266671  -14.032046318100001 27.9241199493 -24.963258743299999  -14.071577072149999 27.903223037749999 -24.820070266750001  -15.50399303435 26.737698554975001 -24.46959877015  -14.806227684 25.473552703900001 -22.5784034729  -17.165992259974999 25.499077796924997 -23.673949718475001  -14.5930318832 25.844385147099999 -22.593538284299999  -17.457489013649997 25.2991771698 -23.154168128999999  -15.979863802583333 26.406498908983338 -23.387373924249999  -15.8645133972 25.781719207750001 -22.62551784515  -15.8254804611 26.549297332799998 -23.0911121368  -17.006359100299999 25.600507736200001 -22.8902988434  -14.84880055321111 27.303744210155557 -23.906331380211114  -14.903646628066666 27.271612485249999 -23.532052675883335  -15.3724889755 26.736118316700001 -22.6250114441  -17.127125740049998 25.545264244050003 -23.106865882849998  -17.164566421500002 25.521791076660001 -23.244423294059999  -14.2682323456 25.4694824219 -22.600204467800001  -14.271555900599999 25.4406604767 -22.600383758500001  -13.9774208069 25.319185257000001 -22.639484405499999  -12.44294548035 27.472894668599999 -22.718623161300002  -12.149966239899999 27.498945236200001 -22.71885299685  -12.150720278433333 27.151416778566666 -22.713138580333332  -12.43465948105 27.188287734999999 -22.7235851288  -15.830544471750001 25.08549022675 -22.60146427155  -15.552989006000001 25.187177658100001 -22.5831623077  -15.798048019399999 25.596578598000001 -22.6401405334  -13.358331680266666 28.525579452500001 -24.32554817196667  -13.67781209945 25.425685882549999 -22.682401657100002  -14.043954849249999 27.045822143549998 -22.643150329599997  -14.0327978134 28.015031814549999 -23.059241294850001  -13.9582462311 28.078762054399999 -22.9684352875  -11.062309265133335 25.654633839900001 -22.681542714433334  -17.28142356875 25.428151130700002 -23.070737838749999  -16.163166999799998 26.237857818599998 -22.930302619949998  -17.198127746600001 25.4792613983 -22.977977752699999  -17.666286468500001 25.133225441 -23.072520255999997  -16.295533180249997 26.15326309205 -23.045269012449999  -16.348341941833329 26.111601511633335 -23.562779744466667  -12.126726627349999 26.794583320600001 -22.706806182899999  -16.606958389300001 25.917463302599998 -22.97284793855  -14.016726811700002 26.428024927799999 -22.672069549566668  -13.280804634100001 27.860332489000001 -22.7346191406  -13.330109119399999 27.650884628299998 -22.735447883599999  -13.0736751556 27.628316879300002 -22.728590011600001  -13.2708883286 25.2429561615 -22.6929512024  -14.620500564549999 26.799671173100002 -22.5841379166  -13.7058986028 26.059467951433334 -22.696875890100003  -14.302904129 26.1750946045 -22.624063491800001  -14.3197612762 26.414440155000001 -22.621484756499999  -15.305674552900001 26.954551061 -23.101473490366669  -15.379086017600001 26.900850296050002 -22.933766365050001  -13.0059995651 27.718984603900001 -22.732353210399999  -15.5684185028 26.6876716614 -22.715051651  -14.4134683609 27.3484668732 -22.568122863799999  -11.1021561623 26.977023124700001 -22.730650901800001  -14.75846362115 27.353285312650002 -24.495478630074999  -14.709425735460002 27.40450134276 -24.28864707948  -14.494843165066664 27.586059570316667 -24.262787501000002  -15.282846450799999 26.979831695600001 -22.9425964355  -14.296647071800001 26.466600418100001 -22.626346588099999  -14.7297682762 27.425409317 -22.844039917  -9.9168650309233328 25.804009755466666 -22.67343330386667  -15.022229830433332 27.1888434092 -22.965255737299998  -15.652183373749999 26.651552518200003 -23.725241343183331  -12.4727487564 27.675991058299999 -22.719907760600002  -14.38824672698 27.726369476320002 -23.369253158579998  -10.974764823899999 25.20893383025 -22.670724868800001  -11.257637023899999 25.103376388499999 -22.675979614300001  -11.1195850372 25.005334854099999 -22.675247192400001  -13.998714923849999 26.086230278000002 -22.673407554649998  -15.067924499525001 27.115948200224999 -23.992914199850002  -11.495641708400001 27.3886737823 -22.775058746300001  -11.820778528833332 26.046833038333336 -22.698924382533335  -15.244575182566665 26.999794642133335 -23.219446818066668  -12.435364723199999 27.848611831700001 -22.7235736847  -13.185291608166667 25.669394175200001 -22.712794621800001  -13.785127639775 28.154402256000001 -24.685561180100002  -13.2463970184 28.613628387449999 -24.860494613649998  -13.908890247350001 28.046974182150002 -24.743437767050001  -13.5461950302 28.4402236938 -23.2082500458  -14.519869804399999 27.604350090049998 -22.962975501999999  -13.547179460524999 28.423773288749999 -23.375736236600002  -11.1941547394 27.358459472700002 -22.816423416100001  -13.500352541633333 28.437066396066669 -23.7394517263  -15.76244983674 26.542958068859996 -24.244728469840005  -11.00335741045 25.431447029099999 -22.677110671999998  -11.1952447891 25.342682838450003 -22.681677818299999  -15.655563672366668 26.619110107400001 -24.43244934083333  -15.462918281550001 26.795806566883332 -23.908314704899997  -15.630786895766668 26.657502174400005 -23.987730662033332  -15.89649009705 26.423906326249998 -24.598058700549998  -7.1716694831799996 25.2605705261 -22.769361495999998  -6.9669246673600007 25.2954950333 -22.847750663749999  -7.0309720039399997 25.0953063965 -22.6912822723  -13.722729492159999 28.219404983519997 -24.451689529420001  -14.1532840729 27.831761360150001 -24.858396530149999  -16.087150573700001 26.263692855799999 -24.952983856199999  -13.571430206280002 28.344473648059999 -24.27499198912  -13.092448711399999 25.364515304549997 -22.705611228949998  -12.199972152699999 27.7885074615 -22.7320365906  -6.999784231185 25.409151077250002 -23.042753219600002  -13.05247545245 27.965394973750001 -22.737872123700001  -12.3548707962 25.4537162781 -22.694711685200001  -13.717953681899999 28.2961902618 -23.289646148700001  -13.290094375600001 28.623424530000001 -23.421314239499999  -13.8656597137 28.147565841700001 -22.925884246799999  -12.75269317625 27.9986152649 -22.750037193299999  -8.8453321456899996 25.565655390433335 -22.663567225133335  -8.7810821533199999 25.387651443500001 -22.650014877299999  -7.4536452293400002 25.444558143625002 -22.875330925  -12.388882637 25.2125530243 -22.688982009899998  -11.859993616733334 27.034406026200003 -22.705370585133334  -9.0518169403099993 25.656812667800001 -22.6683654785  -6.4990880489350005 25.3187446594 -23.309945106500003  -11.69000673295 26.619541168200001 -22.69738864895  -11.8391780853 26.485431035366663 -22.7016029358  -11.586812973000001 26.246706008899999 -22.694849014300001  -11.590290069566668 25.740657170600002 -22.688794453933337  -9.6133699417099994 25.8436565399 -22.669406890899999  -11.1001601219 26.677851676899998 -22.709933280950001  -10.503621578200001 26.609126091 -22.716241836550001  -10.798817634599999 26.575946807850002 -22.703434944150001  -9.6335268020600004 25.957420349100001 -22.674713134800001  -8.0109174251550002 25.13169193265 -22.652714729300001  -11.4314317703 25.051017761200001 -22.6671867371  -11.323073387100001 25.156726837200001 -22.6745262146  -11.5359582901 25.254304885900002 -22.682973861699999  -9.2649178504949994 25.948934555050002 -22.680368423449998  -7.30244779587 25.051156997700001 -22.644212722799999  -10.204336166400001 26.502772331199999 -22.702280044550001  -10.2006511688 26.263399124100001 -22.695220947300001  -10.4830331802 26.414924621600001 -22.704513549800001  -11.727390289300001 25.2930164337 -22.677007675199999  -10.595255851699999 25.279582977299999 -22.668663024899999  -10.549350738499999 25.085372924800001 -22.6624469757  -10.763544559450001 25.285843849149998 -22.666644096349998  -7.9163603782700003 25.525550842299999 -22.7676010132  -6.6056394576999997 25.1554870605 -22.872819900500001  -6.5608701705900003 25.1995449066 -22.938844680799999  -11.793970584850001 25.494373321525 -22.68673944475  -12.0955848694 25.548660278300002 -22.686740875200002  -12.0776576996 25.489734649700001 -22.694110870399999  -6.0118808746350005 25.232391357400001 -24.18739032745  -8.3465318679799996 25.0659141541 -22.638698577900001  -10.511096954325 25.518540382400001 -22.67223882675  -10.464119911199999 25.184864997849999 -22.663029670699999  -7.8833589553800003 25.0393390656 -22.640466690099998  -5.79538631439 25.0262718201 -23.801643371600001  -5.88859367371 25.121799468999999 -23.930608749400001  -5.97950458527 25.177099227900001 -23.826297759999999  -6.1409330367999999 25.260793685900001 -23.811376571699999  -6.4307408332799998 25.2536754608 -23.210550308199998  -6.2159209251399998 25.247066497799999 -23.580785751299999  -5.9466466903699997 25.119752883899999 -23.711473465000001  -5.8125858306899998 25.014436721799999 -23.7078533173  -5.9694170951799999 25.181829452500001 -23.908050537099999  -6.0325760841399996 25.218572616599999 -23.927137374899999  -5.9147624969499999 25.0612926483 -23.595396041899999  -5.9212064743050004 25.01620674135 -23.450328826899998  -6.0578002929699997 25.159988403300002 -23.593164443999999  -5.8195621967299997 25.091264724749998 -24.088037490849999  -5.8340389728549997 25.155572891249999 -24.774600028950001  -6.0467171668999997 25.242231368999999 -24.719356536900001  -5.9866936206850001 25.2051963806 -24.867815971399999  -5.9677128791799996 25.221672058100001 -24.637945175199999  -5.8020577430699998 25.143842697099998 -24.656486511200001  3 0 2 1  3 5 3 4  3 7 6 8  3 11 10 9  3 12 14 13  3 15 12 13  3 17 18 16  3 18 17 19  3 20 22 21  3 22 20 23  3 25 24 26  3 27 29 28  3 32 30 31  3 34 33 35  3 27 26 24  3 36 37 38  3 39 41 40  3 21 22 42  3 9 21 42  3 44 45 43  3 43 46 44  3 47 49 48  3 49 47 50  3 51 52 53  3 55 54 56  3 58 59 57  3 60 61 41  3 62 63 2  3 66 64 65  3 64 67 65  3 69 70 68  3 73 71 72  3 76 75 74  3 74 75 77  3 78 26 27  3 18 79 16  3 81 82 80  3 82 83 80  3 85 84 86  3 79 87 88  3 91 90 89  3 92 93 94  3 95 23 96  3 99 97 98  3 101 100 102  3 103 46 104  3 46 89 104  3 107 106 105  3 108 110 109  3 111 112 113  3 112 114 113  3 6 87 115  3 11 117 116  3 118 120 119  3 119 120 121  3 73 123 122  3 123 124 122  3 127 125 126  3 128 130 129  3 131 108 132  3 134 133 98  3 135 54 136  3 139 137 138  3 135 136 140  3 141 115 87  3 142 143 144  3 144 62 142  3 145 146 147  3 149 148 56  3 152 150 151  3 153 154 67  3 157 156 155  3 155 156 158  3 131 159 108  3 89 160 91  3 162 161 141  3 141 161 115  3 163 164 16  3 46 103 165  3 166 108 159  3 168 169 167  3 147 146 170  3 172 173 171  3 171 174 172  3 144 172 174  3 175 168 176  3 172 177 178  3 90 91 179  3 9 42 171  3 182 181 180  3 155 137 157  3 137 155 158  3 183 184 106  3 185 186 172  3 172 186 173  3 140 188 187  3 189 30 32  3 188 191 190  3 24 192 27  3 173 186 117  3 188 140 136  3 51 193 194  3 196 195 197  3 198 199 109  3 200 202 201  3 204 203 205  3 147 207 206  3 208 209 61  3 210 98 97  3 70 211 68  3 68 211 193  3 213 212 211  3 148 55 56  3 147 214 145  3 215 216 110  3 110 217 215  3 119 219 218  3 41 39 60  3 222 220 221  3 225 223 224  3 227 228 226  3 226 192 227  3 230 231 229  3 231 232 229  3 49 50 233  3 234 194 212  3 235 236 233  3 233 237 235  3 234 239 238  3 240 121 241  3 242 243 244  3 196 245 195  3 246 247 107  3 139 15 157  3 248 250 249  3 251 248 249  3 252 253 254  3 82 255 256  3 4 3 257  3 258 259 260  3 51 68 193  3 263 261 262  3 265 232 264  3 266 268 267  3 268 266 269  3 247 237 107  3 153 270 271  3 77 45 74  3 34 35 153  3 256 255 272  3 82 81 273  3 275 34 274  3 277 276 273  3 279 278 252  3 280 258 260  3 281 282 36  3 283 228 169  3 182 284 285  3 284 286 285  3 287 182 285  3 229 232 265  3 289 288 290  3 183 233 50  3 0 1 291  3 262 261 281  3 281 261 282  3 294 292 293  3 295 297 296  3 298 272 299  3 302 300 301  3 263 303 261  3 305 304 303  3 306 33 307  3 273 276 82  3 276 255 82  3 230 229 308  3 229 309 308  3 241 85 86  3 228 283 310  3 305 260 304  3 311 312 80  3 80 313 311  3 293 273 81  3 80 312 81  3 314 253 278  3 316 317 315  3 315 318 316  3 272 319 320  3 185 321 190  3 186 185 190  3 262 322 263  3 255 323 272  3 30 168 324  3 97 216 215  3 255 276 323  3 325 326 295  3 157 137 139  3 329 327 328  3 206 207 330  3 47 331 50  3 326 333 332  3 256 320 334  3 320 325 334  3 335 337 336  3 338 340 339  3 312 341 342  3 343 344 345  3 344 346 345  3 347 345 346  3 329 296 297  3 102 242 244  3 97 99 102  3 348 196 197  3 209 349 41  3 124 87 6  3 141 350 351  3 222 221 352  3 351 353 162  3 354 203 355  3 358 357 356  3 360 151 359  3 141 87 350  3 361 362 96  3 123 363 92  3 92 163 123  3 125 127 17  3 17 126 125  3 102 99 101  3 274 34 153  3 46 364 365  3 8 6 161  3 366 75 76  3 210 134 98  3 100 348 197  3 73 367 368  3 93 126 94  3 126 16 164  3 12 369 370  3 195 243 100  3 371 355 203  3 95 96 337  3 96 372 337  3 42 336 171  3 165 44 46  3 336 174 171  3 174 336 337  3 350 373 351  3 351 373 353  3 174 337 374  3 79 133 134  3 104 89 90  3 375 217 108  3 215 373 210  3 210 97 215  3 72 376 146  3 21 9 377  3 75 378 358  3 126 17 16  3 87 124 88  3 379 3 165  3 380 381 290  3 289 290 148  3 16 79 88  3 195 100 197  3 19 133 18  3 133 19 98  3 79 18 133  3 134 210 373  3 134 373 350  3 87 134 350  3 134 87 79  3 191 382 190  3 162 141 351  3 384 383 91  3 108 217 110  3 330 207 378  3 108 166 375  3 54 55 360  3 243 242 100  3 242 102 100  3 385 386 1  3 386 387 1  3 165 104 379  3 389 388 390  3 390 388 391  3 164 163 92  3 170 146 376  3 392 393 40  3 394 20 21  3 337 335 95  3 184 331 395  3 387 396 1  3 120 118 397  3 399 318 398  3 318 315 398  3 6 115 161  3 400 267 268  3 217 375 384  3 375 401 384  3 53 390 391  3 20 40 393  3 402 43 45  3 54 135 149  3 257 179 403  3 108 404 132  3 402 405 43  3 43 405 46  3 405 402 356  3 89 365 160  3 6 7 406  3 257 379 179  3 379 104 179  3 165 61 44  3 61 60 44  3 60 39 377  3 40 349 392  3 161 384 160  3 145 214 58  3 41 61 209  3 160 365 8  3 336 42 335  3 71 7 357  3 53 407 390  3 408 46 365  3 40 41 349  3 20 394 40  3 238 239 409  3 403 91 383  3 411 412 410  3 75 358 77  3 358 356 77  3 223 413 224  3 20 393 23  3 403 159 257  3 3 208 61  3 321 185 414  3 44 10 45  3 136 54 360  3 166 159 401  3 376 71 357  3 403 179 91  3 21 377 394  3 90 179 104  3 39 40 394  3 257 3 379  3 60 10 44  3 10 60 377  3 22 95 335  3 335 42 22  3 46 408 89  3 0 291 415  3 186 190 382  3 174 374 144  3 23 95 22  3 221 203 354  3 63 337 372  3 372 96 63  3 144 416 417  3 185 178 414  3 377 9 10  3 160 384 91  3 375 166 401  3 170 378 207  3 7 8 365  3 308 407 52  3 418 330 419  3 206 330 418  3 362 63 96  3 68 391 388  3 144 374 62  3 142 62 2  3 62 374 337  3 337 63 62  3 420 410 412  3 76 116 421  3 240 24 25  3 25 422 240  3 89 408 365  3 61 165 3  3 165 103 104  3 39 394 377  3 160 8 161  3 423 250 248  3 27 226 29  3 226 310 29  3 7 365 357  3 357 365 364  3 424 425 426  3 427 418 419  3 206 418 214  3 428 178 417  3 10 11 116  3 219 429 140  3 140 187 219  3 124 6 406  3 384 161 162  3 430 322 281  3 356 402 77  3 191 431 427  3 188 190 321  3 357 405 356  3 376 357 358  3 405 357 364  3 405 364 46  3 71 406 7  3 366 76 421  3 376 72 71  3 92 94 164  3 122 71 73  3 432 72 146  3 221 220 205  3 411 213 211  3 388 389 433  3 189 32 434  3 11 9 171  3 382 117 186  3 117 382 116  3 11 171 117  3 116 76 45  3 436 437 435  3 378 75 330  3 363 123 368  3 55 148 290  3 118 178 428  3 419 191 427  3 55 151 360  3 213 85 239  3 170 376 358  3 170 358 378  3 0 142 2  3 0 438 142  3 438 143 142  3 57 439 354  3 432 145 58  3 251 440 154  3 123 163 124  3 2 385 1  3 149 189 434  3 13 14 156  3 156 15 13  3 149 56 54  3 51 391 68  3 188 136 431  3 300 279 301  3 53 391 51  3 170 207 147  3 45 76 74  3 75 366 330  3 230 308 52  3 398 315 28  3 441 309 302  3 177 417 178  3 409 428 417  3 409 143 438  3 143 409 416  3 416 409 417  3 172 178 185  3 116 382 421  3 417 177 144  3 143 416 144  3 144 177 172  3 428 409 118  3 118 414 178  3 321 414 218  3 431 191 188  3 117 171 173  3 10 116 45  3 77 402 45  3 135 140 429  3 421 382 191  3 321 218 187  3 187 188 321  3 418 359 442  3 149 78 317  3 316 30 189  3 149 316 189  3 443 69 433  3 264 444 265  3 444 264 291  3 316 318 176  3 136 360 431  3 152 151 381  3 418 442 214  3 418 427 359  3 359 431 360  3 191 419 330  3 330 366 191  3 366 421 191  3 187 218 219  3 359 151 150  3 431 359 427  3 239 85 397  3 118 409 239  3 397 121 120  3 175 176 318  3 84 228 86  3 48 446 445  3 446 447 445  3 422 25 219  3 219 25 429  3 119 218 414  3 118 119 414  3 448 306 307  3 226 27 192  3 240 192 24  3 241 192 240  3 119 422 219  3 241 227 192  3 149 317 316  3 148 32 289  3 32 148 434  3 397 241 121  3 429 449 135  3 449 429 25  3 31 289 32  3 247 450 237  3 168 283 169  3 175 283 168  3 440 451 154  3 150 442 359  3 107 237 452  3 452 237 233  3 78 27 28  3 449 25 26  3 26 78 449  3 78 315 317  3 28 315 78  3 168 30 176  3 203 221 205  3 399 398 29  3 204 363 453  3 399 29 310  3 28 29 398  3 78 135 449  3 211 70 412  3 411 211 412  3 148 149 434  3 149 135 78  3 410 228 84  3 84 411 410  3 380 439 59  3 59 439 57  3 147 206 214  3 381 151 55  3 268 455 454  3 324 246 107  3 176 30 316  3 456 371 204  3 214 442 150  3 58 214 150  3 126 164 94  3 152 58 150  3 290 381 55  3 406 122 124  3 145 432 146  3 58 57 457  3 457 432 58  3 453 363 368  3 368 367 453  3 457 354 355  3 355 458 457  3 371 456 355  3 222 288 425  3 458 453 367  3 221 354 439  3 367 73 72  3 456 204 453  3 204 459 363  3 380 59 381  3 352 221 439  3 123 73 368  3 71 122 406  3 288 31 426  3 426 31 30  3 461 460 462  3 139 463 445  3 93 92 459  3 163 88 124  3 453 355 456  3 354 457 57  3 380 352 439  3 458 355 453  3 12 370 464  3 465 126 93  3 105 138 137  3 16 88 163  3 367 432 458  3 458 432 457  3 367 72 432  3 203 204 371  3 211 212 193  3 381 59 152  3 152 59 58  3 455 436 435  3 459 92 363  3 290 288 380  3 84 85 411  3 158 30 324  3 222 424 220  3 424 222 425  3 156 30 158  3 466 138 106  3 467 413 278  3 278 444 467  3 31 288 289  3 154 271 389  3 271 468 389  3 380 288 352  3 352 288 222  3 425 288 426  3 156 157 15  3 50 331 183  3 183 331 184  3 452 233 183  3 469 298 461  3 236 34 49  3 200 466 395  3 395 47 200  3 420 470 410  3 471 128 301  3 247 167 450  3 450 167 448  3 237 450 235  3 450 307 235  3 236 49 233  3 307 450 448  3 167 247 472  3 291 1 396  3 48 201 202  3 466 106 184  3 184 395 466  3 138 466 463  3 47 395 331  3 12 445 447  3 105 137 158  3 324 105 158  3 473 235 307  3 466 201 463  3 201 466 200  3 15 139 12  3 445 201 48  3 451 440 250  3 181 182 287  3 287 313 181  3 47 202 200  3 445 463 201  3 12 139 445  3 463 139 138  3 235 473 236  3 48 202 47  3 448 167 169  3 213 239 212  3 138 105 106  3 167 472 168  3 472 246 168  3 324 168 246  3 474 399 310  3 474 175 399  3 246 472 247  3 475 443 270  3 324 107 105  3 399 175 318  3 262 281 322  3 396 224 291  3 477 476 258  3 52 231 230  3 80 83 313  3 440 251 249  3 113 478 111  3 325 295 296  3 67 154 451  3 212 239 234  3 106 452 183  3 312 293 81  3 254 479 252  3 452 106 107  3 433 468 443  3 68 388 69  3 325 320 319  3 250 440 249  3 474 310 283  3 448 169 33  3 473 34 236  3 86 227 241  3 388 433 69  3 270 443 468  3 34 473 33  3 423 451 250  3 67 451 423  3 480 248 251  3 65 67 423  3 407 53 52  3 153 475 270  3 475 153 35  3 154 389 251  3 302 309 300  3 33 473 307  3 35 470 475  3 470 35 33  3 481 37 259  3 328 297 482  3 389 468 433  3 468 271 270  3 33 306 448  3 228 227 86  3 474 283 175  3 470 169 410  3 226 228 310  3 470 33 169  3 70 69 420  3 420 412 70  3 410 169 228  3 443 475 69  3 390 407 480  3 475 470 69  3 69 470 420  3 390 480 251  3 251 389 390  3 301 252 471  3 213 411 85  3 193 212 194  3 241 397 85  3 239 397 118  3 232 231 194  3 265 279 300  3 265 300 229  3 194 234 232  3 232 234 264  3 308 484 483  3 423 66 65  3 282 37 36  3 441 485 309  3 269 486 268  3 273 293 277  3 487 281 36  3 38 487 36  3 0 415 438  3 66 423 488  3 309 229 300  3 423 248 488  3 488 248 480  3 480 407 483  3 490 489 66  3 489 64 66  3 293 342 294  3 301 279 252  3 407 308 483  3 469 319 298  3 319 272 298  3 281 487 430  3 491 487 285  3 83 82 256  3 256 181 83  3 492 114 292  3 114 112 292  3 342 293 312  3 494 495 493  3 282 259 37  3 313 496 311  3 496 481 311  3 496 313 287  3 496 37 481  3 37 496 38  3 258 476 481  3 481 476 311  3 113 497 460  3 430 491 286  3 286 491 285  3 430 487 491  3 500 499 498  3 291 264 415  3 194 231 51  3 224 396 225  3 224 467 444  3 51 231 52  3 286 284 499  3 438 415 238  3 438 238 409  3 415 264 238  3 264 234 238  3 500 498 489  3 279 265 444  3 83 181 313  3 278 413 314  3 454 400 268  3 308 309 484  3 309 485 484  3 180 284 182  3 256 180 181  3 498 499 284  3 284 180 498  3 64 498 180  3 498 64 489  3 38 496 287  3 276 299 323  3 325 319 469  3 493 495 501  3 278 279 444  3 224 444 291  3 256 272 320  3 297 295 482  3 502 504 503  3 332 295 326  3 253 252 278  3 113 460 478  3 478 460 298  3 460 461 298  3 277 505 276  3 298 299 478  3 304 261 303  3 323 299 272  3 282 304 259  3 259 304 260  3 282 261 304  3 276 505 111  3 111 299 276  3 111 478 299  3 396 387 225  3 507 333 506  3 292 294 492  3 111 505 112  3 280 260 305  3 509 508 302  3 301 509 302  3 509 510 508  3 510 509 128  3 301 128 509  3 128 479 130  3 338 511 343  3 481 259 258  3 505 277 292  3 512 294 342  3 342 341 512  3 505 292 112  3 277 293 292  3 413 467 224  3 513 502 514  3 114 492 515  3 252 479 471  3 507 332 333  3 516 517 518  3 180 329 67  3 519 328 518  3 520 521 328  3 328 327 297  3 522 516 518  3 523 516 522  3 518 524 525  3 518 517 524  3 527 526 528  3 518 525 519  3 329 256 334  3 295 520 482  3 296 334 325  3 328 482 520  3 329 334 296  3 256 329 180  3 524 517 344  3 529 346 344  3 524 511 525  3 531 530 532  3 533 339 340  3 533 340 534  3 531 533 534  3 511 344 343  3 344 511 524  3 534 530 531  3 340 338 534  
