ply
format ascii 1.0
comment bbox -32.284245  -25.053173 -22.824211  -2.639433 -25.622786  -25.001905 
element vertex 415
property double x
property double y
property double z
element face 490
property list uchar int vertex_index
end_header
-30.860656738300001 -6.5765905380199996 -25.302707672099999  -30.885017394999998 -6.4687180519099998 -25.320713043200001  -30.690522193900001 -6.5717334747299994 -25.46448516845  -30.899894714399998 -6.4377126693699998 -25.222558975199998  -29.849245707199998 -9.6602554321266663 -25.421197891233334  -30.012938499450001 -9.5702891349800012 -25.373503685000003  -30.004027684533337 -9.2539707819633339 -25.404971440599997  -31.2472000122 -5.3950128555300001 -25.002933502200001  -31.267496109 -5.3289213180499999 -25.122390747099999  -31.2359447479 -5.4315528869599996 -25.102941513099999  -31.2850265503 -5.29846334457 -25.023694992100001  -30.41370391845 -8.0390615463249997 -25.338006019550001  -30.361425399750001 -8.204249858859999 -25.35795593265  -30.302412986749999 -7.9829885959600002 -25.416401863099999  -30.152690887449999 -9.0278434753450014 -25.36752223965  -30.170845031749998 -8.7935009002700006 -25.397515296950001  -32.221847534200002 -2.92729878426 -25.1044578552  -32.253822326700003 -2.8226573467299998 -25.124038696300001  -32.250766754200001 -2.90542244911 -25.0071392059  -30.31819057465 -8.376654624935 -25.379518508899999  -28.291858673099998 -15.167548179600001 -25.289812088000001  -28.265965461699999 -14.985693454749999 -25.304801940899999  -28.427335739149999 -15.1654877663 -25.226089477550001  -28.434027353900003 -14.892188707999999 -25.259891509999999  -29.722556432100003 -10.306207021100001 -25.350351969399998  -29.604347228999998 -10.5417299271 -25.3603219986  -29.827869415266665 -10.011078198766667 -25.377242406200001  -31.8098487854 -3.66246175766 -25.33984375  -31.7257757187 -3.6930972337699997 -25.418787956199999  -31.7718582153 -3.5351943969700002 -25.447959899899999  -31.798696517900002 -3.4255714416499998 -25.466644287099999  -31.634962081899999 -3.5090605020550001 -25.516646385200001  -31.645284652699999 -3.2420200109449997 -25.545678138699998  -29.127570152250001 -12.43282222745 -25.325540542600002  -29.318222045900001 -12.0667262077 -25.316943168649999  -29.277070999149998 -12.388494968450001 -25.26990604405  -30.733726501466666 -7.1089831988033332 -25.211830774933333  -30.709665298499999 -7.2162747383100001 -25.194013595600001  -30.737373352100001 -7.1982116699200001 -25.098785400400001  -30.777832984900002 -6.9981439113599997 -25.183335304250001  -31.7951869965 -3.8193345069900002 -25.105052948000001  -31.881456375100001 -3.65252506733 -25.03934955595  -31.9039478302 -3.5905268192299999 -25.160165786749999  -30.414478301999999 -8.6528167724599996 -25.0669384003  -30.3840312958 -8.7523231506299997 -25.047948837300002  -30.400157928500001 -8.6807136535599998 -25.163805007899999  -31.141574859599999 -5.6529269218399998 -25.1596469879  -31.157787323000001 -5.6217303276099999 -25.0609092712  -31.112657547000001 -5.71086502075 -25.038619995099999  -28.022232055700002 -11.670128822300001 -25.3256797791  -31.387126818768778 -13.079882075124633 -25.622786189147796  -27.938613891599999 -11.490986824 -25.324491500899999  -28.263121604950001 -15.974137306199999 -25.186932563749998  -28.3003320694 -15.777234554300001 -25.219701766950003  -28.352720260600002 -15.836050033599999 -25.1282558441  -32.150699615500002 -3.1283028125799999 -25.0637569427  -32.157810211200001 -3.0500271320299999 -25.1813602448  -32.190338134800001 -3.0323638916000002 -25.084987640400001  -32.121913909900002 -3.1500282287600001 -25.160930633500001  -29.328372955300001 -11.779734293633334 -25.351767222099998  -29.4481697083 -11.833040237400001 -25.277139663700002  -29.463592529300001 -11.7262887955 -25.2931404114  -29.615663528399999 -10.9720010757 -25.3162631989  -29.728221893299999 -10.7821331024 -25.266090393100001  -29.616348266599999 -10.792307376850001 -25.336142540000001  -30.256474812866667 -9.0416418711366671 -25.257698059066666  -30.27359962465 -9.093213558195 -25.136583328250001  -30.311703999866666 -8.8956499099733328 -25.219737370800001  -30.149131774899999 -8.4610408147166662 -25.426717122400003  -30.4208526611 -7.8545227050799999 -25.3592319489  -29.762397766100001 -10.446339607200001 -25.311950683599999  -29.8726387024 -10.374837875400001 -25.2480449677  -29.850067138699998 -10.478358268699999 -25.230642318699999  -29.74326229095 -10.61288976665 -25.288601875299999  -28.1761302948 -15.8960018158 -25.272045135500001  -28.160588264449999 -16.050553321799999 -25.249656677250002  -29.479684829699998 -11.5606150627 -25.315845489499999  -29.473033269266669 -11.019312222800002 -25.373973846433334  -29.487185478200001 -11.328633308450001 -25.343563079799999  -29.613019943200001 -11.0897302628 -25.302637100199998  -30.348058700599999 -8.8015012741100005 -25.2399673462  -30.371362686200001 -8.7814683914200007 -25.145128250100001  -28.527755737300001 -15.4471521378 -25.022552490199999  -28.494039535500001 -15.4537725449 -25.111267089799998  -28.504730224599999 -15.543547630300001 -25.0054397583  -30.3709506989 -8.6958303451500001 -25.257505416899999  -30.3207092285 -8.56760597229 -25.360170364399998  -29.6008758545 -11.319132486999999 -25.274173736566667  -31.558235168500001 -4.3579030036899997 -25.196695327800001  -31.52069282535 -4.4803624153099992 -25.2272081375  -31.5456218719 -4.3949708938600001 -25.2966308594  -31.033695220950001 -5.9267146587349995 -25.20689201355  -30.984241485599998 -6.1234760284399998 -25.2788047791  -31.016740799000001 -5.9302310943599998 -25.0950508118  -31.081151008600003 -5.7935247421299998 -25.127761840799998  -28.444797515899999 -15.341346740700001 -25.2099132538  -28.5337715149 -15.133184909800001 -25.1095876694  -30.837697982800002 -6.6856241226200002 -25.284997940099998  -30.736116409300003 -6.7226259708399994 -25.409568786649999  -29.242542266800001 -12.5390348434 -25.243797302200001  -29.304770151766665 -12.617233276366667 -25.117949803633334  -29.204725265499999 -12.6869945526 -25.2170934677  -29.088599522900001 -12.696647644066667 -25.285372416200001  -30.926782608 -6.3319177627599998 -25.241048812900001  -31.434439659100001 -4.7129032611849997 -25.285799980150003  -31.454217910775 -4.5883433818799997 -25.357336997974997  -31.0160579681 -6.0220637321500003 -25.2983188629  -32.284244537399999 -2.8023526668500001 -25.027023315400001  -29.436080932599999 -11.9419994354 -25.261798858599999  -29.483139038099999 -12.0601825714 -25.160745620699998  -29.422876358 -12.049945831300001 -25.246267318699999  -29.504817962600001 -11.9583616257 -25.177835464499999  -31.840072631799998 -3.1924076080299999 -25.501600265499999  -31.848236084 -3.06172966957 -25.516616821300001  -31.624776840199999 -3.0099675655399998 -25.5620079041  -28.440471649199999 -15.4487924576 -25.196189880399999  -28.326227188099999 -15.5732355118 -25.250444412250001  -28.324639320350002 -15.352434635150001 -25.27621173855  -32.131971359250002 -2.8217962980250002 -25.356528282150002  -32.086097717299999 -2.9378752708400002 -25.385469436600001  -31.9938373566 -2.8890826702100001 -25.469610214199999  -31.881689071699999 -3.4632167816199999 -25.380781173700001  -32.0627555847 -3.16481471062 -25.303089141850002  -31.591438293500001 -4.2558460235600002 -25.216560363799999  -31.551202774049997 -4.2894032001499998 -25.362068176299999  -31.432271957400001 -4.2407674789399996 -25.491739273099999  -31.608697891199999 -3.68861532211 -25.491291046099999  -31.589687347400002 -3.8064036369299998 -25.474121093800001  -31.982454299899999 -3.01652908325 -25.454040527299998  -31.606008529699999 -4.2205157279999996 -25.116765976  -31.660345077500001 -4.08949708939 -25.037973403900001  -31.693682670599998 -4.0127172470100003 -25.109426498400001  -31.8507938385 -3.6545403003699999 -25.245534896900001  -31.890247344999999 -3.55872917175 -25.2667198181  -30.890392303500001 -6.1250557899500002 -25.4626140594  -30.701494216899999 -6.38557910919 -25.486789703399999  -30.883674621600001 -6.2502551078800002 -25.4479293823  -31.5933303833 -2.8350110054000002 -25.569494247400002  -31.847635269200001 -2.6396780014000001 -25.5569057465  -31.5438632965 -2.6394333839400002 -25.573541641199999  -31.853931426999999 -2.7875561714199999 -25.5446434021  -31.949539184549998 -3.4581881761549997 -25.2405834198  -32.0123214722 -3.3614072799699999 -25.215185165400001  -31.8216247559 -3.3115375041999999 -25.484560012799999  -31.574224472000001 -3.92772531509 -25.457679748499999  -31.846651077299999 -3.5638213157699998 -25.360490799000001  -29.312354405733334 -11.412412007633334 -25.388545989999997  -30.481480598449998 -7.3318808078750006 -25.430913925150001  -29.110502243033334 -12.1281719208 -25.355412801099998  -30.7112293243 -7.3035550117500003 -25.0805625916  -31.940307617199998 -3.2492394447300001 -25.419052124  -29.458536148099999 -12.159784317 -25.1430988312  -29.526683807400001 -12.0584640503 -25.071996688799999  -28.5069599152 -15.3513784409 -25.126516342199999  -27.350441932700001 -15.870577812200001 -25.267105102549998  -27.144774436950001 -15.534220218649999 -25.25747203825  -26.319753646900001 -15.863992691 -25.217765808100001  -29.994055748000001 -9.8007106780999997 -25.3435077667  -29.9762182236 -10.0734348297 -25.258095741249999  -30.018688837699997 -9.938357035316665 -25.267324447633332  -26.682229995699998 -21.4001255035 -25.182182311999998  -26.791854858400001 -21.5064849854 -25.006887435900001  -26.684473037699998 -21.498861312900001 -25.169801712000002  -31.706045150750001 -3.8531390428550001 -25.34370613095  -31.646919250500002 -3.9535839557600001 -25.369798660299999  -27.1759643555 -18.917181015000001 -25.2372932434  -27.4313163757 -18.393707275400001 -25.267990112300001  -26.789661407499999 -19.073699951199998 -25.2225837708  -28.980774879450003 -11.740973949450002 -25.36463928225  -28.593182563799999 -11.8561806679 -25.35101032255  -29.927276611300002 -10.381238937399999 -25.160388946499999  -29.9587898254 -10.3695230484 -25.068130493200002  -29.947143554700002 -10.2754583359 -25.177209218333331  -28.160241126999999 -15.72304058075 -25.288746833799998  -26.203889846800003 -21.89460659025 -25.196722030650001  -26.484697341899999 -21.9296627045 -25.161420822099998  -26.239181518599999 -22.053234100299999 -25.183496475199998  -28.545011520399999 -15.347247123700001 -25.038564682000001  -28.532423019399999 -15.242878437 -25.096536636350002  -26.012931823700001 -17.8735313416 -25.193758010900002  -25.817207336399999 -18.39562416075 -25.180737495400003  -27.355438232400001 -18.253423690799998 -25.267431259199999  -26.4434547424 -22.109151840199999 -25.128561019900001  -26.467489242599999 -22.020652771000002 -25.1455917358  -30.483499526999999 -7.9954085350000001 -25.258329391499998  -30.498180389449999 -8.1145739555350005 -25.198211669949998  -28.122879028300002 -15.537060737599999 -25.3016147614  -30.310022354099999 -8.9795303344700006 -25.107046127299999  -29.5797653198 -11.5410242081 -25.244079589799998  -29.565196991000001 -11.6486530304 -25.228298187299998  -28.146574974049997 -14.6906991005 -25.309495925900002  -27.438741683949999 -16.8164358139 -25.271656990049998  -27.562696456899999 -16.261085510266664 -25.271763483666664  -32.215885162399999 -2.8344433307600001 -25.219320297199999  -32.001136779799999 -2.7567694187199998 -25.4843864441  -29.897686004649998 -10.582178115849999 -25.079597473150002  -29.878479003900001 -10.68804216385 -25.062985420250001  -29.825425148050002 -10.8033208847 -25.137935638400002  -31.240589141850002 -5.0190312862399997 -25.411326408400001  -31.3614463806 -4.7120428085299997 -25.424263000500002  -31.356788635249998 -4.8181042671199998 -25.359078407249999  -30.160822868350003 -9.325454235075 -25.286731719999999  -30.2094573975 -9.4313983917200002 -25.134809493999999  -30.120531082199999 -9.4351034164400005 -25.315225601200002  -31.1689453125 -5.3502399921400006 -25.357251167299999  -31.173120498700001 -5.4643573760999997 -25.294023513799999  -31.016614913950001 -5.6047034263600004 -25.44624996185  -26.417736053500001 -16.0283069611 -25.2210178375  -30.095232009899998 -9.6607589721699991 -25.2841434479  -30.3109073639 -8.6846551895099999 -25.3450889587  -30.292697906499999 -8.7943239212000002 -25.328399658199999  -30.88788890835 -6.5349261760699999 -25.15643024445  -31.559600830099999 -4.0496749877899996 -25.4414310455  -29.9211883545 -10.170063018800001 -25.283555984500001  -30.016141891499998 -10.1715898514 -25.1052036285  -30.528396606400001 -8.2059335708599992 -25.041240692100001  -30.487221717849998 -8.2316870689399995 -25.183055877699999  -30.195758819566663 -9.2111282348633328 -25.257113774599997  -30.888354301450001 -6.3633561134349996 -25.385070800800001  -31.104646046966668 -5.65061457952 -25.326112111433332  -28.451233863799999 -15.551697731000001 -25.137869834900002  -30.043800353999998 -10.0716724396 -25.123550415  -30.028650283800001 -10.144602775599999 -25.008909225499998  -28.1106529236 -11.851644516 -25.327850341800001  -29.825858116150002 -10.640798091850002 -25.206459999050001  -29.495462417599999 -12.153370857200001 -25.0530815125  -29.451998710650003 -12.255805015549999 -25.080393791200002  -29.609739303600001 -11.765624046299999 -25.126695632899999  -29.660984039300001 -11.66823244095 -25.100857734649999  -29.652435302699999 -11.560597419700001 -25.160726547199999  -28.249750137349999 -16.117046356199999 -25.1177787781  -28.224649429300001 -16.211509704600001 -25.100237846349998  -28.404762268100001 -15.647362708999999 -25.163734435999999  -29.6938323975 -11.2350254059 -25.207471847499999  -31.077072143599999 -5.79311823845 -25.286087989799999  -31.1629495621 -5.5641646385200003 -25.22796154025  -28.40065288545 -15.741422653200001 -25.102680206300001  -28.508375167800001 -15.020750999500001 -25.165334701500001  -28.524877548199999 -14.9196453094 -25.181358337399999  -28.576440811200001 -14.9234409332 -25.095586776699999  -26.758884429950001 -14.0291876793 -25.242841720599998  -26.384757995600001 -14.2444286346 -25.227577209500001  -26.906364440899999 -14.290895462 -25.2479038239  -29.545299530000001 -11.7522087097 -25.2115058899  -29.554183006300001 -11.8598008156 -25.151682853700002  -29.681428909299999 -11.344793319700001 -25.1921405792  -30.223653793299999 -9.31941413879 -25.1505146027  -30.167253494299999 -9.6434669494600005 -25.100683212300002  -30.1528752645 -9.5466677347799997 -25.209648768099999  -30.4428043365 -8.55140209198 -25.0855045319  -30.424005508400001 -8.5756120681799999 -25.181499481199999  -31.169597625750001 -5.1736226081850001 -25.428166389499999  -30.4968032837 -7.8798632621799998 -25.274049758899999  -30.51948738095 -7.7085015773799999 -25.298217773449998  -30.0996618271 -9.7682218551649989 -25.222659110999999  -30.120625178000001 -9.8229598999033332 -25.102945327766665  -30.779247283899998 -7.0634722709700002 -25.019109726  -30.541114807100001 -8.0901737213100002 -25.056613922099999  -30.545265197749998 -7.9874355792999996 -25.1204414368  -29.343671798700001 -12.244149208050001 -25.253679275549999  -29.405050277699999 -12.154404640199999 -25.229869842500001  -29.7110328674 -11.0090818405 -25.236728668200001  -28.860173225400001 -12.5132980347 -25.346406936649998  -28.884581565849999 -12.762908935550001 -25.324364662200001  -29.173664092999999 -12.8393526077 -25.191711425800001  -26.1133537292 -19.648324966400001 -25.185333252  -26.257802009599999 -19.862661361649998 -25.190651893599998  -26.460818290749998 -19.414786338799999 -25.19880580905  -26.615675608333333 -19.737349828066666 -25.193224589033335  -29.422919273350001 -12.35204601285 -25.061902999899999  -31.244579315199999 -5.3539099693300001 -25.2197608948  -31.210826873799999 -5.4542245864899996 -25.199836731000001  -28.297594070399999 -16.022649765000001 -25.092235565199999  -28.341688156099998 -15.926024913799999 -25.065932273850002  -28.390838623 -15.8321561813 -25.0405826569  -28.4495315552 -15.6472387314 -25.077260971099999  -31.62167549136667 -4.1505556106566663 -25.235759099299997  -31.042831420900001 -5.9156775474499996 -25.316831588700001  -28.324201583899999 -16.012336731000001 -25.002401351900001  -28.605839729300001 -14.816257 -25.06614875795  -29.2266807556 -12.8442935944 -25.105134964000001  -27.35390377045 -17.439565658599999 -25.271748542800001  -26.334645271299998 -16.731036186200001 -25.214244842500001  -30.0599422455 -10.047429084799999 -25.027967452999999  -29.270480155950001 -12.742899417849999 -25.07800388335  -29.358366648333334 -12.488938967400001 -25.1131629944  -29.253129959100001 -12.8310480118 -25.013328552200001  -30.0716266632 -9.9717893600499998 -25.141942977900001  -30.603288650500001 -7.5490460395800003 -25.234174728399999  -30.6187095642 -7.6486258506800002 -25.123811721799999  -30.640993118299999 -7.5403671264599996 -25.141244888300001  -30.561695098849999 -7.8745651245100001 -25.136667251550001  -30.580183029200001 -7.7633142471299994 -25.153326988250001  -30.482187271099999 -8.4187574386600001 -25.006261825599999  -30.47475337985 -8.3472347259550013 -25.167620658899999  -30.456509590149999 -8.4575543403650002 -25.151043891900002  -30.509563446000001 -8.3161354064899999 -25.024625778200001  -30.401968956000001 -8.4083385467499987 -25.296266555799999  -29.777662277250002 -11.24595212935 -25.07730102535  -29.7438640594 -11.3569488525 -25.106739044200001  -29.7672405243 -11.1361837387 -25.1369495392  -30.621587753299998 -7.7369556426999999 -25.0109081268  -31.417842865000001 -4.49853181839 -25.4621086121  -30.646921157850002 -7.2239580154449996 -25.332429885850001  -29.699625015300001 -11.1200647354 -25.221540450999999  -30.982803344699999 -6.0360436439500003 -25.392955780000001  -30.88329410555 -5.9200425148000004 -25.481384277350003  -31.001081466700001 -5.92152261734 -25.4098415375  -31.470334053050003 -4.3918190002450004 -25.4348487854  -31.546268463099999 -4.1727170944200003 -25.425464630099999  -29.667798995999998 -11.453436851499999 -25.1765918732  -29.757077217100001 -10.90661382675 -25.209704399099998  -29.921214103700002 -10.47951602935 -25.0970926285  -29.727554321300001 -11.463569641099999 -25.0907497406  -29.708581924400001 -11.568040847800001 -25.074247360200001  -29.57334709165 -11.958053112 -25.045256614700001  -29.8007879257 -11.0245094299 -25.10741901395  -30.583000183100001 -7.6590189933800001 -25.217082977299999  -31.2510948181 -5.2502682209050002 -25.285110473650001  -30.50675582885 -7.096498966215 -25.46261501315  -31.276126861599998 -5.1410377025600003 -25.30329322815  -31.320882797199999 -5.1135926246599999 -25.159294128399999  -31.854545593299999 -2.9286653995499998 -25.5312976837  -31.640707015949999 -4.058870792385 -25.304103851299999  -30.960792541499998 -6.1467752456699998 -25.375354766800001  -30.9378967285 -6.2564883232100001 -25.3575935364  -30.956081390400001 -6.2282967567399998 -25.260034561200001  -30.657737731933334 -6.9968736966466665 -25.411311467500003  -30.757844924899999 -7.1734566688500001 -25.0019054413  -31.351385116599999 -4.9233064651499996 -25.2937908173  -31.375862121600001 -4.8993277549699998 -25.1965789795  -31.33359622955 -5.0158796310399998 -25.225993156400001  -30.685905456499999 -7.3236746787999998 -25.176231384299999  -30.794413566599999 -6.7977004051200005 -25.313657760649999  -30.772405624400001 -6.9072592258449994 -25.296134948700001  -30.8637733459 -6.6654677391100003 -25.189214706400001  -31.478966712950001 -4.6165459156050002 -25.147851943950002  -31.437265396099999 -4.7280983924899997 -25.0170097351  -31.4225139618 -4.7623596191399997 -25.1167030334  -32.142547607399997 -2.9468655586199999 -25.2941646576  -31.767747879000002 -3.8416757583600001 -25.202304840099998  -31.824135780349998 -3.7381182909000001 -25.175542831400001  -31.7480583191 -3.9070301055900001 -25.082229614300001  -31.711550712600001 -3.9453132152599997 -25.22905158995  -32.051654815699997 -3.2653708457900001 -25.236345291100001  -31.963369369500001 -3.1351790428199999 -25.436939239499999  -31.3353939056 -5.0797476768500003 -25.0598831177  -31.408927917500002 -4.7976932525600002 -25.216392517100001  -32.189205169700003 -2.9449362754799999 -25.2008361816  -32.005523681600003 -3.2677795886999998 -25.3296451569  -31.771692276 -3.7596039771999998 -25.318923950199999  -32.083641052200001 -3.2473516464199998 -25.1399974823  -32.041584014900003 -3.3404846191400002 -25.118253707899999  -31.0101146698 -5.7977991104099997 -25.424932479900001  -25.073251724199999 -10.059963226300001 -25.303056716899999  -25.432905197099998 -22.493915557899999 -25.135339736900001  -25.793327331499999 -22.597269058199998 -25.1061306  -25.452306747400002 -22.597873687700002 -25.1255321503  -25.622690200800001 -13.768529891949999 -25.203906059250002  -25.136905670200001 -13.8143625259 -25.186716079699998  -25.053173065199999 -13.645860672 -25.187421798700001  -27.454086303699999 -11.49202489855 -25.3031902313  -26.1556110382 -17.268384933499998 -25.204324722300001  -26.053962707499998 -17.1089916229 -25.200428008999999  -26.53195095065 -20.380883216850002 -25.186324119550001  -26.5599060059 -21.0584869385 -25.199071884199999  -26.700697898850002 -20.648588180499999 -25.19029712675  -25.616285324099998 -18.089210510249998 -25.173589706400001  -26.0190982819 -19.505193710299999 -25.182285308800001  -25.677824020399999 -22.753562927200001 -25.0599079132  -25.4102630615 -22.681804657000001 -25.105100631700001  -25.595960617100001 -22.824211120600001 -25.032512664799999  -26.0583019257 -22.4766693115 -25.087228775  -25.828554153399999 -22.511871337900001 -25.125274658199999  -25.84688472745 -22.372199058549999 -25.147974014250003  -26.113275527999999 -22.3983078003 -25.109809875500002  -26.225090026899998 -22.1455421448 -25.168127059900002  -25.820562362699999 -22.217149734500001 -25.162940978999998  -25.9128303528 -17.718170166 -25.190130233800001  -26.173580169699999 -15.616082668300001 -25.213262558  -26.002908706700001 -22.554992675800001 -25.064561843900002  -26.468755722000001 -21.631496429399999 -25.197088241599999  -27.617304801949999 -17.124083519000003 -25.2773389816  -27.444448471099999 -17.644163131700001 -25.268209457400001  -27.530421257 -17.844896316549999 -25.26404857635  -26.517007827800001 -22.216327667200002 -25.0382289886  -26.409454345699999 -22.194135665899999 -25.1097583771  -26.7863521576 -21.128150939899999 -25.147827148400001  -26.859479904200001 -21.040893554699998 -25.0822963715  -26.786291122400002 -21.029489517199998 -25.160583496099999  -25.742416381799998 -22.677574157700001 -25.084230423000001  -26.161705017100001 -22.317832946799999 -25.1312198639  -26.768550872799999 -20.8246135712 -25.183042526200001  -27.253852844200001 -19.055320739700001 -25.238260269200001  -27.436052322399998 -19.117626190199999 -25.1785564423  -27.446155548099998 -19.019849777200001 -25.193199157700001  -26.776599883999999 -20.926872253399999 -25.171648025500001  -27.548789977999999 -19.128845214799998 -25.0142269135  -26.649368286150001 -21.240431785600002 -25.195583343499997  -27.449535369900001 -18.5061244965 -25.258275985699999  -27.455140113799999 -18.66392326355 -25.239872932449998  -27.4564266205 -18.819185257000001 -25.220754623400001  -27.453332901 -18.920557022099999 -25.2073345184  -26.807494163499999 -21.226344108599999 -25.093242645300002  -27.960841178900001 -16.181961059549998 -25.281696319550001  -26.257027943933334 -19.066633224466667 -25.196351369233337  -26.020814895649998 -18.699694633500002 -25.1888074875  -26.39406108855 -20.122755050649999 -25.188174247699997  -27.898937225299999 -15.984255790700001 -25.290178299000001  -26.1386537552 -16.409170150750001 -25.207732200599999  -27.725103378299998 -16.5661029816 -25.2745685577  -28.062802314799999 -15.336790084850001 -25.310490608199999  -26.530341148350001 -14.50301980975 -25.231900215149999  -26.931035995449999 -15.189397811900001 -25.246884346000002  -26.5504302979 -15.399396896400001 -25.229442596399998  3 0 1 2  3 3 1 0  3 6 4 5  3 8 9 7  3 7 10 8  3 11 13 12  3 14 15 6  3 16 18 17  3 12 13 19  3 20 22 21  3 21 22 23  3 25 24 26  3 28 27 29  3 31 30 32  3 35 34 33  3 37 38 36  3 38 39 36  3 40 41 42  3 44 43 45  3 46 48 47  3 51 49 50  3 54 53 52  3 55 57 56  3 58 55 56  3 59 60 61  3 63 64 62  3 66 67 65  3 19 13 68  3 69 13 11  3 70 72 71  3 72 70 73  3 75 52 74  3 52 53 74  3 61 76 59  3 50 78 77  3 62 77 79  3 77 64 50  3 80 67 81  3 83 84 82  3 85 81 45  3 81 85 80  3 86 19 68  3 87 79 78  3 88 90 89  3 92 93 91  3 93 94 91  3 22 95 96  3 2 98 97  3 100 99 101  3 101 99 102  3 15 50 6  3 1 3 103  3 104 89 105  3 92 91 106  3 18 107 17  3 59 34 108  3 60 59 108  3 111 110 109  3 112 113 32  3 113 114 32  3 115 117 116  3 118 120 119  3 121 30 29  3 58 56 122  3 90 123 124  3 123 90 88  3 125 127 126  3 119 120 128  3 130 131 129  3 132 42 133  3 136 134 135  3 139 137 138  3 137 140 138  3 141 42 142  3 68 50 15  3 125 32 50  3 143 32 30  3 141 133 42  3 127 125 144  3 145 121 29  3 59 76 146  3 117 115 95  3 147 13 69  3 148 33 34  3 149 38 37  3 30 121 150  3 152 109 151  3 148 34 59  3 153 115 83  3 115 153 95  3 155 156 154  3 157 26 158  3 158 159 157  3 162 161 160  3 144 164 163  3 4 50 26  3 167 165 166  3 26 50 25  3 168 50 169  3 146 50 168  3 172 170 171  3 173 74 53  3 176 175 174  3 177 153 83  3 153 177 178  3 179 180 181  3 26 157 4  3 182 183 176  3 11 185 184  3 186 117 20  3 187 81 67  3 61 188 76  3 188 61 189  3 21 23 190  3 6 50 4  3 4 157 5  3 192 154 191  3 118 193 194  3 197 196 195  3 198 200 199  3 105 89 90  3 202 201 203  3 203 201 6  3 204 206 205  3 154 156 207  3 25 50 64  3 76 78 146  3 107 138 17  3 159 208 157  3 15 210 209  3 210 15 14  3 3 0 211  3 50 32 114  3 2 1 135  3 125 212 144  3 144 163 127  3 127 163 28  3 158 213 214  3 65 67 210  3 210 67 80  3 215 185 216  3 201 217 14  3 14 217 65  3 86 68 209  3 68 15 209  3 218 135 1  3 14 6 201  3 206 219 205  3 115 220 83  3 222 221 214  3 214 221 158  3 146 78 50  3 50 223 169  3 64 63 73  3 78 79 77  3 73 224 72  3 224 195 72  3 226 225 151  3 110 108 34  3 228 229 227  3 168 148 59  3 59 146 168  3 229 189 227  3 83 220 84  3 75 231 230  3 117 186 116  3 116 186 173  3 115 232 220  3 87 233 79  3 219 234 235  3 234 46 235  3 236 232 54  3 232 53 54  3 53 232 116  3 116 232 115  3 82 177 83  3 116 173 53  3 99 33 102  3 237 239 238  3 240 241 242  3 244 243 60  3 188 245 87  3 213 158 26  3 117 95 22  3 20 117 22  3 22 237 23  3 214 213 172  3 208 5 157  3 5 208 203  3 35 33 99  3 70 71 213  3 26 24 70  3 70 213 26  3 203 6 5  3 246 217 201  3 11 12 185  3 248 247 202  3 43 249 250  3 206 204 251  3 69 252 253  3 252 69 11  3 65 210 14  3 254 255 247  3 39 38 256  3 185 257 258  3 44 45 81  3 66 217 246  3 259 151 260  3 64 77 62  3 61 60 243  3 188 87 76  3 76 87 78  3 259 226 151  3 62 79 261  3 63 62 261  3 262 102 33  3 64 73 25  3 195 224 197  3 73 70 25  3 264 102 263  3 34 35 259  3 34 260 110  3 101 102 264  3 265 266 267  3 266 268 267  3 269 259 35  3 205 271 270  3 271 205 235  3 96 237 22  3 170 71 72  3 238 23 237  3 54 52 272  3 272 52 230  3 230 52 75  3 111 108 110  3 54 273 274  3 220 232 275  3 259 269 226  3 236 275 232  3 123 129 276  3 178 96 153  3 96 95 153  3 106 91 277  3 277 91 94  3 274 236 54  3 208 254 247  3 272 273 54  3 272 278 273  3 279 190 23  3 279 238 239  3 279 23 238  3 264 280 101  3 281 191 282  3 222 283 221  3 202 203 248  3 284 101 280  3 67 66 187  3 152 111 109  3 65 217 66  3 285 35 99  3 284 280 286  3 219 235 205  3 158 221 287  3 287 159 158  3 288 289 290  3 252 291 292  3 43 250 45  3 294 295 293  3 293 296 294  3 297 216 12  3 12 216 185  3 300 299 298  3 292 301 289  3 296 215 216  3 206 251 302  3 303 37 36  3 46 234 94  3 199 302 251  3 94 234 277  3 304 300 261  3 134 305 306  3 193 16 17  3 145 29 27  3 307 306 305  3 50 135 306  3 125 308 309  3 188 310 245  3 260 34 259  3 197 224 63  3 311 197 63  3 63 261 311  3 213 71 172  3 224 73 63  3 299 233 245  3 71 170 172  3 170 72 312  3 72 195 312  3 152 151 225  3 151 109 260  3 260 109 110  3 229 313 310  3 229 314 313  3 299 300 233  3 60 108 111  3 315 244 111  3 244 60 111  3 304 233 300  3 316 311 300  3 300 311 261  3 201 202 246  3 248 208 247  3 203 208 248  3 296 216 294  3 134 306 135  3 292 253 252  3 288 317 289  3 253 292 317  3 318 204 205  3 68 13 319  3 106 277 305  3 320 270 321  3 234 307 277  3 302 308 125  3 137 114 322  3 124 323 309  3 276 323 124  3 134 324 305  3 305 324 92  3 106 305 92  3 325 326 324  3 324 326 92  3 324 134 136  3 309 323 212  3 306 125 50  3 13 147 319  3 327 2 319  3 136 135 218  3 124 123 276  3 256 38 328  3 329 331 330  3 30 31 29  3 37 332 149  3 333 97 98  3 327 303 36  3 334 333 327  3 333 98 327  3 36 39 327  3 211 0 335  3 39 334 327  3 200 198 329  3 338 337 336  3 339 193 118  3 319 135 50  3 46 94 48  3 340 40 341  3 302 125 306  3 97 0 2  3 343 342 340  3 340 342 40  3 137 322 140  3 118 119 339  3 143 150 112  3 344 58 122  3 112 150 345  3 145 133 141  3 125 309 212  3 346 338 330  3 132 340 341  3 200 329 347  3 329 330 347  3 336 347 338  3 343 131 342  3 321 346 331  3 320 321 331  3 129 131 276  3 276 131 343  3 193 348 16  3 121 145 142  3 142 349 121  3 346 330 331  3 338 347 330  3 198 320 329  3 320 331 329  3 129 123 88  3 126 29 31  3 276 343 323  3 200 104 105  3 200 347 104  3 164 323 163  3 163 323 343  3 27 28 350  3 350 28 163  3 164 212 323  3 126 31 125  3 127 28 126  3 126 28 29  3 139 50 137  3 194 113 120  3 344 352 351  3 322 114 113  3 343 350 163  3 343 340 350  3 340 132 350  3 142 145 141  3 142 352 344  3 118 194 120  3 164 144 212  3 194 140 322  3 31 32 125  3 32 143 112  3 194 322 113  3 194 138 140  3 193 138 194  3 138 193 17  3 50 114 137  3 319 50 68  3 306 206 302  3 353 219 206  3 234 219 353  3 234 353 307  3 353 306 307  3 353 206 306  3 327 98 2  3 2 135 319  3 50 354 51  3 355 357 356  3 358 360 359  3 361 51 354  3 362 281 282  3 49 223 50  3 362 282 363  3 364 365 366  3 180 179 367  3 265 368 174  3 174 266 265  3 370 369 357  3 369 370 371  3 372 374 373  3 374 372 375  3 176 377 376  3 281 378 179  3 155 379 156  3 373 380 372  3 381 162 160  3 191 281 382  3 181 384 383  3 181 383 281  3 385 182 386  3 266 174 365  3 389 387 388  3 182 176 376  3 390 356 357  3 381 365 174  3 391 374 375  3 391 377 374  3 365 392 366  3 183 175 176  3 355 377 174  3 176 174 377  3 182 376 386  3 393 394 395  3 365 396 392  3 397 395 394  3 398 387 365  3 365 387 389  3 166 165 399  3 165 401 400  3 395 402 393  3 398 403 387  3 404 231 75  3 406 405 167  3 407 266 365  3 365 364 407  3 267 167 405  3 365 381 398  3 381 160 398  3 165 400 399  3 179 181 281  3 74 173 408  3 282 191 409  3 191 410 192  3 75 408 404  3 408 75 74  3 20 411 186  3 241 412 242  3 414 155 413  3 414 379 155  3 166 181 167  3 406 167 181  3 393 402 165  
