ply
format ascii 1.0
comment bbox 34.526314  37.249001 -10.073127  -5.855500 0.012638  1.355132 
element vertex 181
property double x
property double y
property double z
element face 259
property list uchar int vertex_index
end_header
36.625820159900002 -6.4709100723299997 0.50705802440600001  36.7121925354 -6.5499873161300002 0.35526880621899998  36.846736907999997 -6.7518286705000001 0.51988041400899998  35.605060577399996 -7.2068651517233322 0.95466381311266668  35.675212860100004 -6.9074311256400005 0.919893950224  35.334739685049996 -7.0406277179700005 0.63588938116999993  34.9888839722 -7.1693959236149993 0.35388524830349999  35.184869766250003 -7.7343392372149999 0.65981599688549997  34.976226806600003 -7.7954812049899997 0.45802861452100002  34.711551666299997 -7.2450919151299997 0.15512989461400001  34.814647674550002 -8.2409133911150008 0.35376800596699998  34.931878407799992 -8.3622121810899994 0.57045795520133336  34.989686965900006 -8.0488200187649994 0.54171100258799998  35.409374237100003 -8.5269327163700002 1.0293735265699999  35.324175516733334 -8.1720841725666649 0.95605208476366677  35.533395767199998 -8.0854821205149996 1.120341777805  36.504188537600001 -8.2922773361199997 0.75420892238600001  36.4665184021 -8.40770244598 0.64575821161299995  36.648370742799997 -8.340618133545 0.58399254083649998  36.720062255899997 -8.1852006912200004 0.68253678083400005  36.205604553199997 -7.1161937713599999 1.31180608273  36.243778228799997 -6.9155893325799997 1.16511559486  35.982837676999999 -6.8719224929799996 1.0922286510500001  37.247604370099999 -7.5775251388499996 0.19848479330499999  37.213687896700002 -7.5389232635500001 0.325752288103  37.2490005493 -7.7062664031999999 0.18831080198299999  37.211597442600002 -7.6653976440399996 0.31686910986900002  35.822643280000001 -7.4699048996000004 1.33137309551  36.1328125 -7.8678197860700001 1.2708206176800001  36.308372497599997 -7.5853595733599999 1.34264314175  35.609161377 -5.9789285659800004 0.36929780244799998  35.577377319299998 -6.1858429908800003 0.50954258441900002  35.370544433600003 -5.9608535766599999 0.28133571147899999  35.710575103799997 -5.8554997444200003 0.17546260356900001  35.946758270300002 -7.3224749565099998 1.35513174534  35.9619598389 -7.0934910774200004 1.2256767749799999  36.844429016100001 -8.2981433868399996 0.402778595686  36.787906646700002 -8.2456207275400004 0.53997099399600001  36.865940094000003 -8.1724338531500003 0.51690709590899997  34.765504201266666 -7.9645786285400009 0.25095923244966667  34.526313781699997 -7.2956881523100003 0.0223386008292  36.6061439514 -7.9507360458400003 0.97057431936299998  36.479938507100002 -7.9918284416200001 1.01477754116  36.511257171600001 -8.1555891037000006 0.87596940994299999  36.991237640400001 -8.0053157806400002 0.48371559381500001  36.995433807399998 -7.8668541908299998 0.60540527105300002  36.937633514399998 -7.9538755416900004 0.62000727653499998  37.0342254639 -7.62418317795 0.72289818525299998  36.993000030499999 -7.7231421470599999 0.73040902614600001  37.045703887899997 -7.7746000289900001 0.59401047229799997  36.163932800300003 -8.03256988525 1.13049197197  36.3207092285 -8.0108833313000005 1.07320249081  36.359348297099999 -8.1797962188700009 0.93082308769199995  36.868522644000002 -7.7492222785899996 0.88808339834200001  36.763538360600002 -7.6608409881600004 1.04851853848  36.7948989868 -7.8257684707599999 0.90960949659300006  36.844825744600001 -7.5895242691 1.02353775501  36.461280822799999 -6.2603244781500003 0.236152902246  36.1867790222 -6.1338548660300001 0.46933621168099998  36.433685302699999 -6.40545701981 0.66928791999799997  36.726203918499998 -8.0480175018299995 0.80420577526100001  36.517589569099997 -6.97429561615 1.22879946232  36.285369873 -6.7194380760200003 1.01603770256  37.072650909450005 -7.8715298175799999 0.46410059928899999  37.149679183949999 -7.6708517074550002 0.451281502843  36.7347717285 -6.6542034149199996 0.68280732631700003  36.897537231400001 -7.4980258941700004 1.0110601186799999  36.977241516100001 -7.5692911148100004 0.86171561479600001  37.004341125499998 -7.4598207473800002 0.86037808656699999  36.984874725349997 -6.9916892051699993 0.3944374471905  36.866409301799997 -6.7810387611399996 0.39652618765800002  36.962829589800002 -6.9537019729600003 0.57563418149900003  35.299530029300001 -7.8857979774500002 0.877182483673  35.412124633800005 -7.7629795074449994 0.99017238616750003  35.589541117366664 -6.6927328109733333 0.73268425464633324  35.531898498499999 -7.7511367797900004 1.16316246986  36.703517913799999 -7.8901362419099996 0.93881040811500005  36.8082923889 -7.9772658348099998 0.77916777133899995  36.665023803700002 -7.7203373909000002 1.08100652695  37.085952758799998 -7.2891063690199998 0.61725848913199999  37.154840469349999 -7.3606507778200001 0.41717864572999996  37.089874267599996 -7.413908958435 0.66248160600700001  36.696313858050004 -8.5269470214799998 0.32710379362099995  36.764236450200002 -8.3698501586899994 0.42661300301600003  36.619749069249998 -8.4616050720199993 0.472412586212  36.130056297841335 -9.1911032518745301 0.48914050563059286  35.576332092299999 -8.7130241393999999 0.94988960027699998  35.71204185485 -8.6086773872400002 0.90800234675399993  36.803945541399997 -8.6265115737899993 0.057066248729799998  36.904075622599997 -8.5057802200299992 0.030096000060399999  36.864402771000002 -8.4652872085599995 0.15893830359  36.7952232361 -8.5442819595300001 0.177992999554  35.140060424799998 -9.1205844879200004 0.69756108522399995  35.491771698000001 -9.1202847162866671 0.64281882842400007  35.2829475403 -9.3455905914299997 0.54783779382700004  35.041633605999998 -9.1816844940200006 0.59873467683799997  34.645801544199998 -9.0043869018600002 0.22783890366599999  34.724147796600001 -9.12340259552 0.30653360485999998  34.772850036599998 -8.8746662139900003 0.40978199243500002  35.629167556799999 -8.9655804634099994 0.68114283680950005  35.698891957600004 -8.8059151967366684 0.78265156348533338  37.031539917000003 -7.1198120117199997 0.65076172351799999  37.067020416299997 -7.1601991653399999 0.52127337455699996  35.140609741200002 -8.0007972717300007 0.7344901561735  35.444824218800001 -8.8981790542599999 0.86845499277100002  35.1745262146 -8.5178184509299992 0.93354207277300005  35.025428771999998 -8.5950722694399992 0.77637466788300002  36.921333312999998 -7.2560439109799999 1.02192485332  36.7169799805 -7.2239470481900003 1.2165975570700001  36.735851287800003 -7.3678059577899999 1.19738566875  34.551387786900001 -8.8504343032800001 0.104854099452  34.5998153687 -8.6891660690299997 0.14706440269900001  34.710315704300001 -8.8512468337999994 0.32545140385600002  35.096286773700001 -6.7757635116550006 0.4299821406605  35.629371643100001 -7.4709167480499996 1.12686300278  35.7567634583 -7.3652482032800002 1.22845983505  35.997486114500006 -8.2629351615900006 1.0020141899569999  36.178195953399999 -8.1850185394300006 0.99812591075900003  36.011062622099999 -8.05784606934 1.1860179901100001  34.570098877 -8.5764474868799994 0.106903202832  34.727920532200002 -8.5681810379000005 0.32829891145250001  35.071044921899997 -9.9282274246199993 0.092963002622099999  35.359313964800002 -10.0731267929 0.012638200074400001  35.419033050549999 -9.5066552162200004 0.37311214208599996  35.589527130100002 -7.6855583190900001 1.20202243328  34.863853454599997 -8.8523111343400007 0.54868447780600005  35.123695373549999 -8.2790117263749998 0.79285532236099998  35.711370468150001 -9.5754046440099998 0.15121199935649998  35.483167648299997 -9.6851611137399995 0.22369730472549998  35.482654571499999 -9.8855390548699997 0.096198298037100005  35.600612640400001 -7.44981575012 1.07580709457  35.027221679699998 -9.3907470703100007 0.44149020314199999  35.038528442400001 -8.8523750305199993 0.76106101274500004  36.969371795699999 -8.4245643615700008 0.012688299641  36.935771942099997 -8.3880290985099997 0.138967305422  36.172302246100003 -8.3231725692699996 0.87491440772999995  36.677488326999999 -8.6538071632399998 0.212263703346  36.820461273200003 -8.4218120575000004 0.28997960686699997  35.361682891800001 -6.44169855118 0.51931369304700004  36.0421104431 -6.574096918105 0.87143224477750003  35.701162338299994 -6.4456455707549996 0.6666054427625  35.817924499500002 -6.2059183120699997 0.59644520282699998  36.1046981812 -6.2809324264499997 0.64846158027599998  35.298320770300002 -7.6334295272799997 0.76073729991899997  35.463527679400002 -7.5585312843299999 0.90792608261100005  37.193004608199999 -7.9208984375 0.19249990582500001  37.189968109100001 -7.7775650024400003 0.31621861457799999  37.228084564200003 -7.8187017440800002 0.18745230138300001  37.152214050300003 -7.8781046867400004 0.32234519720100002  37.098709106450002 -7.6202483177199998 0.58648326993  37.060863494899998 -7.5147051811200001 0.72168022394200004  36.918544769299999 -6.9065256118800002 0.70945847034499998  35.225839614850003 -6.1666321754450006 0.372314453125  36.863166809100001 -6.7932662963899997 0.282962203026  36.716129303000002 -6.5676956176800001 0.23815590143199999  37.242095947300001 -7.4595818519600003 0.097361899912400005  37.2223777771 -7.4310941696199997 0.21862800419299999  37.156711578399999 -7.2688064575200002 0.14218670129800001  37.012378692600002 -7.3363952636700001 0.86735159158700004  36.923610687299998 -7.3873910903900004 1.0102628469499999  36.985862731899999 -7.18747615814 0.88940298557300002  35.998432159399997 -5.9317426681500001 0.225868999958  37.0452957153 -7.2451686859100004 0.74901700019799999  36.985664367699997 -7.0717492103600001 0.78515338897700004  37.098697662399999 -7.1977500915499997 0.393795907497  37.135208129900001 -7.2387905120799996 0.26467850804300003  36.578090667700003 -6.8006319999700002 1.0653630495099999  36.868503570599998 -6.9713125228899999 0.95111727714500005  36.876632690400001 -7.8971638679499998 0.76001548767100002  37.165107727100001 -7.2892074585 0.0253740996122  36.691375732399997 -6.5640730857799996 0.132907003164  36.4427566528 -6.2614636421199998 0.127346500754  36.679485321000001 -7.4574422836299998 1.2114565372499999  36.342830657999997 -8.3103380203199997 0.81265437603000001  36.818370819099997 -7.0508122444200003 1.0778639316600001  36.930839538599997 -7.6648788452099996 0.87144660949700004  36.582340240500002 -7.5182576179499998 1.2435171604199999  36.938877105700001 -7.8129615783700004 0.74347001314200001  36.931068420400003 -8.0905227661100003 0.499270111322  36.804042816200003 -8.1158075332599999 0.65683650970499996  37.046424865699997 -8.05780410767 0.34729608893399999  3 0 2 1  3 3 4 5  3 6 8 7  3 8 6 9  3 11 12 10  3 13 15 14  3 16 17 18  3 18 19 16  3 20 21 22  3 23 24 25  3 24 26 25  3 28 29 27  3 31 30 32  3 32 30 33  3 34 35 4  3 37 36 38  3 39 8 40  3 42 43 41  3 44 45 46  3 47 48 49  3 50 52 51  3 54 55 53  3 53 56 54  3 58 59 57  3 59 0 57  3 41 43 60  3 62 21 61  3 63 64 49  3 0 59 65  3 67 68 66  3 69 70 71  3 72 14 73  3 74 5 4  3 75 14 15  3 14 75 73  3 77 76 60  3 60 76 41  3 78 76 55  3 63 45 44  3 81 80 79  3 83 84 82  3 84 85 82  3 13 86 87  3 88 89 90  3 90 91 88  3 17 84 18  3 84 17 85  3 93 92 94  3 94 92 95  3 96 97 98  3 99 85 100  3 101 102 71  3 103 12 11  3 105 106 104  3 108 109 107  3 110 112 111  3 74 113 5  3 3 114 115  3 117 118 116  3 119 111 120  3 100 86 104  3 123 121 122  3 124 75 118  3 125 98 97  3 4 3 115  3 72 126 14  3 103 126 72  3 123 127 85  3 128 127 123  3 128 123 129  3 122 129 123  3 85 99 93  3 118 117 50  3 123 85 93  3 99 104 93  3 104 99 100  3 92 93 104  3 94 123 93  3 130 114 3  3 94 95 131  3 121 94 131  3 121 123 94  3 104 106 132  3 118 15 116  3 15 13 116  3 86 13 105  3 104 86 105  3 133 134 89  3 135 87 85  3 85 87 100  3 100 87 86  3 116 87 135  3 117 116 135  3 82 136 91  3 91 137 82  3 124 114 130  3 92 104 132  3 103 8 12  3 113 74 138  3 140 139 141  3 141 139 142  3 72 143 7  3 72 7 103  3 15 118 75  3 50 28 118  3 87 116 13  3 105 13 14  3 14 126 105  3 50 117 52  3 130 3 144  3 73 143 72  3 144 5 143  3 28 50 51  3 124 118 28  3 146 145 147  3 145 146 148  3 34 27 29  3 149 81 150  3 1 2 70  3 71 2 151  3 1 57 0  3 31 32 152  3 146 63 148  3 4 35 22  3 115 34 4  3 1 70 153  3 153 154 1  3 81 149 80  3 138 31 152  3 143 73 144  3 114 124 28  3 27 115 114  3 114 28 27  3 82 85 136  3 139 74 22  3 74 139 140  3 22 74 4  3 23 155 156  3 156 155 157  3 144 73 75  3 75 124 144  3 144 124 130  3 158 107 159  3 107 158 160  3 142 58 141  3 141 58 161  3 137 83 82  3 101 163 162  3 7 143 6  3 164 80 165  3 165 80 156  3 158 81 162  3 9 40 8  3 103 7 8  3 65 59 166  3 139 62 142  3 102 69 71  3 69 164 165  3 163 151 167  3 143 5 6  3 158 68 81  3 30 31 161  3 76 77 55  3 55 77 168  3 163 101 151  3 101 71 151  3 169 157 155  3 171 57 170  3 170 57 154  3 161 33 30  3 24 156 80  3 24 23 156  3 161 58 171  3 68 150 81  3 58 57 171  3 18 84 83  3 54 172 78  3 65 151 2  3 64 63 146  3 146 26 64  3 167 160 163  3 157 165 156  3 107 109 159  3 58 166 59  3 69 165 157  3 157 70 69  3 158 159 68  3 159 66 68  3 139 22 62  3 26 24 64  3 64 24 80  3 101 162 79  3 81 79 162  3 80 164 102  3 83 137 36  3 173 85 17  3 162 160 158  3 153 157 169  3 157 153 70  3 2 71 70  3 54 78 55  3 108 107 174  3 69 102 164  3 80 149 64  3 102 79 80  3 48 47 175  3 47 67 175  3 149 150 47  3 102 101 79  3 62 22 21  3 163 160 162  3 42 51 52  3 107 160 174  3 65 2 0  3 61 108 174  3 174 166 61  3 166 58 142  3 174 160 167  3 142 62 61  3 166 174 167  3 151 65 167  3 65 166 167  3 172 176 78  3 26 147 25  3 109 172 56  3 168 53 55  3 64 149 49  3 109 56 66  3 66 159 109  3 56 175 67  3 67 66 56  3 54 56 172  3 45 63 49  3 49 177 45  3 43 16 19  3 177 49 48  3 149 47 49  3 47 150 67  3 150 68 67  3 147 26 146  3 83 37 18  3 78 41 76  3 42 28 51  3 83 36 37  3 42 52 43  3 135 85 173  3 44 46 178  3 60 43 19  3 17 16 173  3 135 173 52  3 117 135 52  3 16 43 52  3 52 173 16  3 19 179 60  3 38 179 37  3 179 19 37  3 180 44 178  3 91 90 137  3 89 134 90  
