ply
format ascii 1.0
comment bbox 15.345613  21.908741 -28.878380  -25.026871 -24.845293  -21.052045 
element vertex 574
property double x
property double y
property double z
element face 1013
property list uchar int vertex_index
end_header
15.8110837936 -25.192426681499999 -24.7077407837  15.819139480600001 -25.083433151200001 -24.722820282000001  16.431526184100001 -25.730903625500002 -24.706064224199999  18.494073867799997 -27.824975013699998 -21.853685379049999  18.357028961200001 -27.617847442599999 -21.669313430799999  18.653100013725002 -27.878475666050001 -21.641985893274999  19.99913406372 -26.473439407360001 -24.791182327279998  20.035292625449998 -26.714365005449999 -24.784403800950003  19.832837104799999 -26.61132526395 -24.781313896150003  19.928310394250001 -26.715383529649998 -24.779702186550001  18.497207641599999 -26.990756988499999 -24.7272491455  18.486904144299999 -27.095975875899999 -24.7186069489  18.595674514799999 -27.095043182400001 -24.719024658199999  21.6114940643 -25.433097839399998 -21.201772689799999  21.6730937958 -25.3279418945 -21.207096099899999  21.569795608500002 -25.316019058199998 -21.1157779694  21.665699005099999 -25.440132141100001 -21.3018302917  17.9788284302 -27.928182601900001 -23.270982742299999  17.782869339000001 -27.612650871249997 -22.904363632200003  17.710922241199999 -27.6491222382 -23.395570755000001  18.625442504900001 -28.5098133087 -23.123418808  18.15729844189098 -28.265238487351599 -23.214856206400942  18.311443328900001 -28.1857662201 -22.834272384599998  18.675624847400002 -28.484643936200001 -22.798116684  18.048685836799997 -26.632720947259998 -24.743666458140005  18.196999549849998 -26.7299413681 -24.7402162552  18.02776145935 -26.783986091599999 -24.736386299100001  18.241901397700001 -27.290189742999999 -21.303173065199999  18.4805622101 -27.272068023700001 -21.160673141499998  18.2137432098 -27.254421234100001 -21.282117843599998  18.434083302800001 -27.551143010466671 -21.432367324799998  18.414791107199999 -28.171728134199999 -22.5596542358  18.284852027900001 -27.931021690350001 -22.396837234499998  18.098230361900001 -27.883382797199999 -22.6391048431  21.544948577900001 -25.537881851200002 -21.197355270399999  21.447110176100001 -25.381241798400001 -21.0934667587  18.441454410550001 -25.655717372925 -21.1197156906  18.420007705700002 -25.4436359406 -21.125274658199999  18.60510540005 -25.543965339650001 -21.11826896665  19.389202117899998 -28.554834365800001 -21.893968582199999  19.140351295449999 -28.798977851850001 -22.565558433550002  19.341421127299999 -28.811275482199999 -22.527278900100001  17.456398010299999 -27.3729629517 -23.532331466700001  17.5710830688 -27.428115844699999 -24.017665863000001  17.2050304413 -27.097663879399999 -23.671663284299999  17.403034210199998 -26.660867691050001 -21.6325864792  17.407874425266666 -26.717623392733334 -21.747182846066668  17.228295644099997 -26.474919637033334 -21.602771759033335  17.439609527599998 -26.793006897000001 -24.6492195129  17.682976722749999 -26.998947143549998 -24.698781967199999  17.429679870600001 -27.1725978851 -24.264169692999999  16.89373493195 -26.467613220200001 -24.325974464399998  16.443439483599999 -26.041751861600002 -24.463428497300001  16.9670505524 -26.825090408299999 -23.823469161999999  18.9616765976 -28.694462776199998 -22.63162612915  18.540029525800001 -28.192037582400001 -22.3889751434  16.898000717199999 -26.147493362399999 -21.5823078156  17.145649909999999 -26.348677635199998 -21.4990005493  16.881795883199999 -26.105857849100001 -21.526372909500001  17.4798822403 -27.016243934599999 -22.430470466599999  17.388684749625 -27.061124324799998 -22.853509902950002  17.337163925199999 -26.852699279799999 -22.468767166100001  18.159908294699999 -27.098701477100001 -24.7186069489  18.060936609899997 -26.994239171333334 -24.726647694899999  17.940212249799998 -27.100086212200001 -24.725984573400002  18.1470479965 -27.881852149949999 -23.994939804099999  20.384410858199999 -27.232803344699999 -21.070596694900001  20.2982826233 -27.548641204799999 -21.107383727999999  20.153110504166666 -27.689353307100003 -21.103307088200001  17.775915145900001 -27.186929702800001 -24.676496505700001  17.727880477900001 -27.104028701800001 -24.690259933499998  18.651283264149999 -27.73413085935 -21.411862373350001  20.159578323400002 -26.555843353299998 -24.7999000549  17.043726444249998 -25.673708438875003 -24.739588260649999  16.91933345795 -25.243030548100002 -24.747961044299998  17.336403528866668 -25.8686682383 -24.746229807566667  18.080672582000002 -27.670413335166668 -22.267134984333335  17.925462086966665 -27.552575429266668 -22.371556599933331  18.182454299940002 -26.444693374640003 -24.753955459579998  17.501413345300001 -27.348453521700002 -23.201259613000001  17.2513008118 -27.073802948000001 -23.3413410187  18.001714706400001 -27.898502349899999 -22.9199562073  17.805112838700001 -27.130851745600001 -21.647871017500002  18.001510620099999 -27.302430152900001 -21.619633674649997  17.809551239000001 -27.105644226100001 -21.595079422000001  21.045677185100001 -26.603891372700001 -21.232601165799998  21.093285560600002 -26.6092271805 -21.389216423050001  21.028394699100001 -26.7139129639 -21.329423904399999  21.136259714766666 -26.501684188833334 -21.342835108399999  17.8534679413 -26.961114883400001 -21.3199748993  17.893907547000001 -27.116012573199999 -21.458944320699999  17.709465026899998 -26.956573486300002 -21.511470794699999  20.1916599274 -27.029613494900001 -21.076417923000001  20.340253830000002 -26.9983711243 -21.071369171099999  20.304004669200001 -27.107023239099998 -21.061180114700001  20.371823787724999 -26.828461170200001 -21.079316616050001  19.923849105799999 -27.6571311951 -21.079322814899999  19.904542923000001 -27.865482330300001 -21.097095489499999  19.668142954466667 -27.647003809599997 -21.092322667466664  19.662342071499999 -27.89104747775 -21.101494789099998  17.99486637115 -27.48205184935 -22.0085105896  17.923231124899999 -27.3029766083 -21.781335830700002  18.399574279799999 -26.886562347400002 -24.730148315400001  18.380568186433333 -26.710939407333331 -24.7430636088  18.548992792766668 -28.338184356699998 -24.181271235166665  18.703037261999999 -27.093711852999999 -24.726196289099999  18.269208908100001 -27.070878982499998 -21.1399040222  18.071634292599999 -26.865133285500001 -21.139806747400002  18.2899456024 -26.858182907100002 -21.087392807000001  18.0918674469 -26.973316192599999 -21.173774719200001  20.57800388335 -27.231813430800003 -21.1126241684  20.754190444900001 -27.244955062900001 -21.296426773099999  20.6709117889 -27.349849700899998 -21.295047759999999  17.824122428900001 -27.294651031499999 -21.981966972350001  17.7957687378 -27.327625274700001 -22.1501483917  18.295705795250001 -26.834667205800002 -24.733612060550001  20.142235755900003 -26.713359832750001 -24.7888679504  20.2536392212 -26.6596469879 -24.8024101257  20.2418403625 -26.764471054099999 -24.7958641052  20.8233013153 -27.028827667200002 -21.2066230774  20.7683887482 -27.135219574000001 -21.199985504200001  20.7209835052 -27.021671295200001 -21.1144638062  18.608201599099999 -26.547460937480004 -24.75303344728  18.621820449849999 -26.831885337849997 -24.739599227900001  18.807302474975 -26.619893074049997 -24.7513318062  18.811597824100001 -27.092767715499999 -24.726833343500001  18.9193763733 -27.091619491599999 -24.730962753299998  17.4955301285 -26.648417472849999 -21.409203529350002  17.694000244149997 -26.67629241945 -21.250902175899999  17.6468677521 -26.779039382899999 -21.370677948000001  17.551939010600002 -26.7952365875 -21.5606060028  17.6670055389 -27.164392471300001 -22.195135116599999  17.753741264349998 -27.316601753249998 -22.322890281699998  19.861938476599999 -28.288581848100002 -21.2307109833  19.907619476299999 -28.301321029699999 -21.283933639499999  19.924835205099999 -28.191984176599998 -21.185989379900001  19.921556472799999 -27.972019195600001 -21.108076095600001  20.042728424100002 -28.086675643900001 -21.181489944500001  19.8849487305 -28.074150085399999 -21.1223239899  20.027992248499999 -27.866323471099999 -21.105773925800001  18.970277786299999 -28.878379821799999 -23.8163948059  18.917682647700001 -28.795240402200001 -23.019142150899999  18.8139324188 -28.69690704345 -23.484354019149997  18.6811676025 -27.270839691199999 -21.126707076999999  18.487682342500001 -27.062871933 -21.074056625400001  18.7454366684 -27.097141265849999 -21.0880022049  16.680945396399999 -26.052183151249999 -24.686293601949998  16.6342220306 -25.9449291229 -24.698320388799999  16.412238438900001 -25.558368682833333 -21.466883341466666  16.643642425500001 -25.6266613007 -21.2863464355  16.440969467199999 -25.416000366199999 -21.286573409999999  16.591829299899999 -25.5420398712 -21.263118743900002  18.923825263966666 -25.578259785966669 -24.78475697835  18.745592117299999 -25.812470197674998 -24.775621175775001  19.159345354371428 -25.610587528771426 -24.790318352828567  18.020862579300001 -27.250570297199999 -21.470527648899999  16.913030624400001 -25.4677028656 -21.151878356899999  16.889545440700001 -25.404916763300001 -21.1507263184  17.089415550250003 -25.380438804649998 -21.138703346250001  17.091617584200002 -25.6145114899 -21.140691757199999  18.014692306499999 -26.700862884500001 -21.106254577600001  17.873645782499999 -26.6586112976 -21.136816024800002  18.0921936035 -26.6522598267 -21.090291976900001  18.068365097049998 -26.416457176199998 -21.079970359800001  18.1026630402 -26.279642105099999 -21.086233139000001  18.355018615749998 -26.457399368250002 -21.080695152300002  17.702718734699999 -26.965040206899999 -21.546432495099999  17.655702590899999 -26.968767166100001 -21.695840835599999  17.604042053200001 -26.903505325299999 -21.684753418  19.027885436999998 -27.090707778900001 -24.7310829163  19.134862899800002 -27.089380264300001 -24.738239288300001  17.667922019949998 -26.43201065065 -21.162165641750001  17.429923057549999 -26.4301433563 -21.293436050449998  18.78994750975 -26.003736495950001 -21.091032028200001  18.806877136250002 -25.769269943200001 -21.0995979309  19.100829124449998 -25.92304468155 -21.099838256825002  18.830286026 -25.4287338257 -21.113791465749998  18.826259613000001 -25.588642120399999 -21.1008987427  16.483924865733332 -26.124977111799996 -22.842860539733334  16.694749832199999 -26.337570190400001 -22.841964721699998  16.651286125199999 -26.491544723499999 -23.337187767050001  18.2695903778 -27.097984314000001 -24.715360641499998  16.732654571499999 -26.1605415344 -24.641784668  17.885883331300001 -26.573991139733334 -24.740546544400001  20.335373685513293 -27.486160604087541 -24.002862224803202  19.886560440099998 -27.081651687600001 -24.7622642517  19.993963241599999 -27.0806465149 -24.7640552521  18.725437402737501 -26.1182007789625 -24.768630027762498  18.428326924633332 -25.922076967033334 -24.768252266777779  19.029665841 -25.966028001577779 -24.778369267788886  16.731832504266666 -26.116161982233336 -22.143667856866667  16.603612899800002 -26.036231994600001 -22.352001190199999  16.502655029300001 -25.866642951949999 -22.2432575226  17.903034210200001 -27.260816574100001 -21.728010177600002  16.677700996399999 -25.81820201875 -21.4404001236  16.602889060949998 -25.8290128708 -21.6592159271  16.440093040450002 -25.672879219049999 -21.815622329699998  19.019887924199999 -25.182910919200001 -24.798217773400001  18.9535331726 -25.290488243150001 -24.792600631699997  18.711157798766667 -25.505643844616667 -24.781292279566667  21.603656768800001 -25.545146942100001 -21.2966442108  21.503692626949999 -25.645945549 -21.24336719515  19.193907737750003 -26.8008041382 -24.749783039075002  19.337698459624999 -26.7208752632 -24.756223201775001  19.3089542389 -26.9833278656 -24.7430095673  21.637628555300001 -25.211254119900001 -21.1200237274  21.26082229615 -26.291646003749999 -21.408288955700002  21.20591068265 -26.397522926299999 -21.401763916050001  21.010171890300001 -26.824968338000001 -21.536331176800001  21.171417236300002 -25.554634094200001 -21.071088790899999  21.39828681945 -25.538628578199997 -21.108633995049999  18.9132041931 -27.0408496857 -21.077731132549999  19.253446578949998 -27.283486843125001 -21.074622631049998  19.13359737395 -27.481049537650001 -21.078956603999998  21.6862039566 -25.445001602150001 -21.4629020691  21.629056930499999 -25.549377441400001 -21.401897430399998  21.7414169312 -25.3385295868 -21.414382934599999  18.854973263199998 -26.343876096922223 -24.764067967744445  19.212017774587501 -26.260611295712501 -24.7757494449625  18.17655277255 -26.9410915375 -24.72373104095  21.318191528300002 -26.1868133545 -21.469383239700001  18.389219284100001 -26.991928100599999 -24.722009658800001  18.279870986900001 -26.992717742899998 -24.723480224599999  18.3786754608 -27.0971012115 -24.714948654200001  20.479499816899999 -27.337928772000001 -21.1081180573  20.579377174400001 -27.451394081099998 -21.279687881500003  18.419336001083334 -25.667289098133338 -24.774067560833334  16.565952936800002 -25.8598016103 -22.032223383566663  19.348581314099999 -25.182027816800002 -24.802427291899999  19.522036234533335 -25.2529411316 -24.80580266316667  19.3242073059 -25.396310806299997 -24.796916961699996  18.584193229650001 -27.956551551800001 -21.931864738450003  18.685253143299999 -28.1564693451 -22.071023941  18.77255249025 -28.1386537552 -21.890717506400001  18.560323715199999 -28.166126251200001 -22.324657440199999  18.997097651166666 -26.857191721633331 -21.083602905266666  19.225796699516668 -26.945873578366662 -21.081447283416669  21.161300659199998 -26.392030715899999 -21.244724273700001  21.158254623400001 -26.280092239399998 -21.151514053300001  21.096479415899999 -26.38974666595 -21.145430564849999  18.427799436777782 -26.264353222322224 -24.759886423744447  21.578310966499998 -25.656295776349999 -21.449578285199998  21.4801445007 -25.869457244900001 -21.4893760681  21.524478912349998 -25.762015342750001 -21.442885398850002  20.819118499799998 -27.1392173767 -21.301174163799999  18.896328449249999 -28.480772018450001 -22.381932258625003  19.725999832150002 -26.612390518200002 -24.774799346949997  19.585609436024999 -26.6660909653 -24.767920494075  19.432343959812499 -26.470134258274999 -24.771977424637498  21.723653793299999 -25.334808349599999 -21.307775497400002  16.7461872101 -25.987335205099999 -21.630634307899999  16.786884307899999 -25.974533081099999 -21.448246002200001  20.838537216199999 -27.1426486969 -21.518102645900001  20.903263092 -27.0371341705 -21.522760391199999  20.834518432599999 -27.1412506104 -21.408645629900001  20.618078231799998 -27.457429885900002 -21.3985729218  20.524228096000002 -27.561574935899998 -21.343872070300002  18.6817111969 -25.346054712933334 -21.126640319833331  20.894378662100003 -25.730930328349999 -21.0643873215  21.140538215649997 -25.959742546050002 -21.093426704400002  21.099023818999999 -26.052692413300001 -21.084861755399999  20.813414891566666 -25.960163752233331 -21.067601521799997  20.855618476899998 -26.186732292150001 -21.05204486845  20.690603256199999 -26.188537597700002 -21.078468322799999  21.3107013702 -26.184619903600002 -21.3607234955  21.432782491066664 -25.899911880466664 -21.34597969053333  21.3447608948 -26.076314926149998 -21.316058158849998  20.5354328156 -27.563568115199999 -21.5076580048  20.703094482400001 -27.3536453247 -21.509880065899999  15.9075345993 -25.4097957611 -24.6755390167  15.814597129799999 -25.557264328000002 -24.044486999549999  16.009386062600001 -25.517663955700002 -24.676368713399999  18.378076553300001 -26.735286712600001 -21.0731582642  18.308614730799999 -26.647314071699999 -21.0701065063  20.0256919861 -27.692071914700001 -21.088682174700001  19.910039520260003 -26.926958847039998 -21.09043197634  19.967863082900003 -26.605036735524997 -21.093013763424999  20.7807655334 -26.9153289795 -21.120279312099999  20.845712661699999 -26.809377670300002 -21.125146865800001  20.633255004900001 -26.813617706300001 -21.077907562299998  19.701194339333334 -25.997528923877777 -24.792352252533338  19.520083188987499 -25.702181577687497 -24.795508146287499  20.1718769073 -26.450796127299999 -24.804153442400001  19.309796571724998 -25.875946521750002 -24.788044452674999  21.797742843599998 -25.233200073199999 -21.4205856323  19.835193633999999 -28.408884048499999 -21.391790390000001  19.651807784999999 -28.291114807100001 -21.193944931000001  19.506271362300001 -25.158012390100001 -21.112312316899999  19.440165837566667 -25.385892868033334 -21.117940902699999  19.460659980800003 -25.684870719899997 -21.099536895749999  17.107128143300002 -26.761123657199999 -22.882616043100001  17.201023101800001 -26.705958684266665 -22.472082773866664  20.125827789300001 -27.381093025200002 -21.068964958199999  19.960831960033332 -27.431537628166666 -21.0707162221  18.856337547300001 -27.283102035550002 -21.091692924500002  18.877553939799999 -27.474555969200001 -21.117111206099999  19.072500228900001 -27.678661346399998 -21.123678207400001  18.860568046600001 -27.630064964300001 -21.175521850599999  18.6061687469 -26.9898967743 -24.727008819600002  19.767168045049999 -27.489651680000001 -21.084474563600001  19.748739242599999 -27.246726989700001 -21.086919784500001  19.547589492779998 -27.278828811619995 -21.089480590819999  17.5778236389 -26.9905128479 -22.059192657499999  17.608840942400001 -26.980337142900002 -21.878744125400001  17.356229782100002 -26.727378845199997 -21.948623021433335  19.003741264349998 -27.870074272149999 -21.213359832750001  19.1133651733 -28.138254165599999 -21.361131668100001  19.0216789246 -28.1143817902 -21.414598465000001  19.190641021739999 -26.580807876599998 -21.081127929699999  19.74116039275 -26.362472295750003 -24.783977270137502  21.6341514587 -25.5517597198 -21.510843276999999  20.648597717299999 -27.127378463700001 -21.110910415599999  17.782078743 -26.521947860700003 -24.739472389200003  17.766632080099999 -26.680915832499998 -24.729568481400001  21.208486557000001 -25.3890161514 -21.068321228000002  21.046105384850001 -25.365374565099998 -21.07413196565  21.031570434599999 -25.487283706700001 -21.069261550899999  17.6953783035 -27.341219901999999 -22.5467634201  20.124713897700001 -28.0902767181 -21.277963638300001  20.021514892599999 -28.195829391499998 -21.280000686600001  19.673694610599998 -28.078575134299999 -21.1141986847  19.3501644135 -28.150697708100001 -21.209655761699999  19.436235427900002 -28.3018417358 -21.2717990875  20.8938922882 -27.035367965700001 -21.414360046399999  20.986840248149999 -26.821525573700001 -21.375482559200002  21.050031661999999 -26.7166900635 -21.435598373400001  19.4587535858 -27.086395263699998 -24.742906570399999  19.2972126007 -27.087978363049999 -24.739030837999998  19.456038066328571 -26.140105928685717 -24.783867699771427  16.322074890100001 -25.7317829132 -24.691690444900001  17.657969665540001 -26.236388015739998 -24.745357131940001  17.4355945587 -26.152649879449999 -24.745019912700002  17.73393917085 -27.14782524105 -21.922364234950003  18.062148729966669 -25.484514872233333 -24.770418484999997  18.152782440199999 -25.077566146900001 -24.7809715271  19.201772689799999 -28.256774902299998 -21.4467449188  19.15387916565 -28.301446914650001 -21.638392448449999  19.390895843500001 -28.453411102299999 -21.609243392900002  19.360288619999999 -25.074583053600001 -24.807592392  19.112057685850001 -25.343588828999998 -24.7926607132  17.86382007598333 -26.256214459733332 -24.750669479383333  18.010887145950001 -26.414169311499997 -24.752186775200002  21.236745834400001 -25.282064437900001 -21.065591812099999  21.353507995600001 -25.1812572479 -21.0611152649  16.347062110900001 -26.208612442050001 -23.422939300549999  19.272941589399998 -25.372434616100001 -21.122776031499999  18.793045997650001 -27.876565933249999 -21.402678489700001  18.9502773285 -28.098985672000001 -21.507436752299999  16.0490226746 -25.912311553999999 -23.3264636993  16.068099975599999 -25.945739746099999 -23.7196311951  16.749851226800001 -26.195854186999998 -22.3052196503  16.982710520433333 -26.364379882799998 -21.9983412425  17.276459693950002 -26.100454330449999 -24.739596366899999  19.1298961639 -25.182647705099999 -24.797872543299999  19.22705713906667 -25.289565404266664 -24.797909418733337  18.085276365262498 -25.8424036503 -24.764795064937498  17.857758839933332 -25.437393824233336 -24.767761230466665  18.11464691162222 -26.124763912611108 -24.759212070044448  17.543207168599999 -27.0018825531 -22.192733764650001  17.625907897899999 -27.1751079559 -22.375791549700001  17.8936786652 -26.445819854700002 -21.095582962000002  17.561174774160001 -25.69351768492 -21.13483810424  17.679640769999999 -25.85297966005 -21.132333755499999  17.76702928545 -25.490912914275 -21.134781837449999  16.618011474599999 -26.198116302499997 -22.691911697400002  17.748134613040001 -26.001696014419998 -24.751900482159996  17.868102209900002 -25.692748478499997 -24.761136463714287  16.5811004639 -25.837774276699999 -21.857164382899999  18.930740356400001 -26.986793518100001 -24.735574722300001  19.039031982400001 -26.985837936399999 -24.7370986938  19.062941869100001 -26.845902760833336 -24.745985031133333  19.087053026485712 -26.534813744685717 -24.76248168945714  18.920981089266665 -26.741875966399999 -24.746679306000001  18.725206375133336 -26.883628209433329 -24.736927032500002  17.962606430099999 -26.8899288177 -24.730058669999998  18.390494346600001 -27.77200222015 -21.929680824249999  18.497293472300001 -27.9757404327 -22.1253147125  17.006223678600001 -26.5354804993 -22.566192627  17.115950584399997 -26.444766044600001 -21.779541969299999  17.090203285199998 -26.507592201200001 -22.1179151535  16.297747611999998 -25.532860755950001 -21.760690689100002  16.292394638099999 -25.499540328999998 -21.598411560100001  16.923538208 -26.785100936900001 -23.406627655000001  20.4551372528 -27.6680164337 -21.395223617599999  16.6907787323 -26.184562683100001 -22.46138477325  16.857934474924999 -26.465060710925002 -22.765254497525  17.0157909393 -26.7702407837 -23.121353149400001  18.947933197000001 -28.139818191500002 -21.576820373499999  18.9799003601 -28.283969879200001 -21.831096649199999  17.051953315749998 -26.07606220245 -21.300855636599998  18.987251281699997 -28.3772131602 -22.045762379999999  19.856317520099999 -28.410074234 -21.4992427826  19.970577240000001 -28.3045215607 -21.494935989399998  16.8701877594 -25.619363784800001 -21.184143066400001  16.8463668823 -25.8362884521 -21.277181625400001  16.216117858899999 -25.733413696300001 -24.651838302600002  16.1138496399 -25.7535095215 -24.524940490700001  17.368833541899999 -25.868446350100001 -21.143615722700002  19.7677078247 -26.770496368433331 -24.772695541366669  18.1836007436 -27.613749186233331 -21.946580886833331  19.4846191406 -26.850647926324996 -24.755576610550001  20.774394989000001 -27.247158050500001 -21.403059005700001  20.215406417800001 -27.984523773199999 -21.2781658173  20.162977218649999 -27.8687095642 -21.15836048125  20.2770881653 -27.767753601100001 -21.189235687299998  20.138435363799999 -27.980873107899999 -21.1809310913  16.946228504174996 -26.421311855300001 -22.354614734675  17.3317480087 -26.750873565699997 -22.13291072845  19.823970794699999 -28.078298568699999 -21.108768463099999  16.1699199677 -25.327899932899999 -21.466175079300001  18.046312332199999 -27.082424163799999 -21.2667312622  20.226903915400001 -27.986530303999999 -21.497877120999998  20.139747619600001 -28.092285156199999 -21.497245788600001  18.630796432499999 -27.51940345765 -21.23808765415  18.828292846650001 -26.935323715199999 -24.735022544899998  20.06300354 -28.198570251500001 -21.494644165  17.6231422424 -26.9821548462 -21.8391456604  17.578689575199999 -27.3301849365 -22.901895523099999  20.417864799500002 -26.98619556425 -21.080032348650001  20.614166259800001 -27.021451950100001 -21.0784873962  20.959117889399998 -25.575218200649999 -21.06798267365  19.411939620950001 -26.397640228299998 -21.094135284450001  19.361882209800001 -26.556686401349999 -21.094501495399999  19.716253280620002 -26.599576187139995 -21.088956069940004  18.329587936399999 -27.842233657850002 -22.16300106045  16.827870368950002 -26.112860679599997 -21.696497917199999  19.5657920837 -28.453605651899998 -21.4009819031  18.845752716100002 -28.112575531000001 -21.6988239288  17.599269866933334 -26.211036046333334 -21.144118626866668  18.820293426500001 -28.148855209400001 -21.827096939099999  21.745946884199999 -25.340982437099999 -21.5233669281  18.583971977200001 -25.908568382299997 -21.104578971900001  18.401933669999998 -26.9986038208 -21.092037200899998  19.987947464000001 -27.203966140749998 -21.07873725895  20.204105377200001 -27.225286483749997 -21.060246467599999  18.177851676949999 -27.453605651849998 -21.631740570049999  18.233819007899999 -27.541771888749999 -21.718155860899998  19.6406796773 -27.049451827999999 -24.754577000933335  19.778837203999998 -27.082592010500001 -24.761558532700001  17.009561538700002 -26.297242164650001 -21.668659210200001  17.280079841599999 -25.83989906315 -21.1501646042  17.29448572796667 -25.534742991133331 -21.137158075966667  17.0092153549 -25.829577446000002 -21.203870773350001  19.246317863450003 -27.637442588799999 -21.08902931215  19.4989395142 -27.6679229736 -21.102186202999999  19.381378173800002 -27.839952468900002 -21.107463836699999  18.5616416931 -26.617495218933332 -21.079260508200001  18.600641250599999 -26.435254096999998 -21.090886116050001  18.749472300200001 -26.756502151500001 -21.087460835733335  18.908157984433334 -26.5279890696 -21.088991800966664  18.495907783549999 -26.811964988700002 -21.062126159649999  17.848737716700001 -26.875551223799999 -21.254550933800001  17.279865900666667 -26.138537089033335 -21.226399739599998  17.493343353299998 -26.031955718999999 -21.1272563934  20.114910125750004 -26.356250127166664 -21.089662551883336  19.648056507100002 -25.937614440925 -21.0982854366125  19.971488952642858 -25.961039406914288 -21.106675284257143  19.561009724933331 -26.266388575250001 -21.094283421833332  20.366772079460002 -26.172089386 -21.080983734120004  20.294384002699999 -25.882618904099999 -21.10557174685  16.857910156199999 -25.30078125 -21.149875640899999  16.6674766541 -25.4095058441 -21.194377899199999  17.950934410049999 -26.207000732449998 -21.089856147749998  18.139654159549998 -26.198225975050001 -21.0885362625  18.432359695433334 -26.224016825366665 -21.095453262333333  18.783730697639999 -26.290948867800001 -21.093863296519999  18.645090103099999 -25.169460296600001 -21.134460449199999  18.428686142 -25.178461074849999 -21.140104293850001  20.781375885000003 -25.611271858199999 -21.07879638675  20.68910121915 -25.78074550625 -21.085669517500001  16.879772186299999 -25.561698913600001 -21.166685104399999  18.979518890399998 -26.1108239492 -21.089169820133336  16.759772777550001 -26.075920581800002 -21.892293930074999  18.122994740799999 -25.691558837900004 -21.112407048533331  17.961335500066667 -25.920492172233335 -21.112181981400003  19.263278007499999 -27.8776445389 -21.130316734300003  19.2442951202 -28.096031189000001 -21.222011566199999  17.3290376663 -26.782077789300001 -22.271511077850001  18.174395561250002 -26.0362081528 -21.09893131255  20.393799591060002 -26.544258499160001 -21.072641754160003  20.651983896866668 -26.622077941899999 -21.079519271866666  18.36927509305 -25.818084716800001 -21.117179870599998  18.349313735966668 -25.973445892333331 -21.111371993999999  19.584580739350002 -26.933703740416664 -21.092847506199998  20.9589595795 -26.931165695200001 -21.529121398899999  21.274518966700001 -26.180225372300001 -21.257259368900002  21.08373355865 -26.171451568649999 -21.089220046999998  21.2168331146 -26.1741752625 -21.157472610500001  21.0053920746 -26.2671451569 -21.068500518800001  20.913303375200002 -26.703689575199999 -21.1295223236  20.990982055700002 -26.710111617999999 -21.225952148400001  20.905648231500003 -26.869328498850003 -21.216568946799999  17.58288478855 -25.382884979250001 -21.135039329550001  18.002298355100002 -25.190520286549997 -21.135054588300001  18.195039749100001 -25.3871746063 -21.136724472000001  17.709823608400001 -26.028797149700001 -21.132064819299998  19.219682216675 -25.658767938612502 -21.107954263662496  16.368422826133333 -25.687188466400002 -22.170637130733336  16.130264282199999 -25.896493911699999 -23.0318889618  16.277967453000002 -25.900403022749998 -22.800822258  16.255760192899999 -25.257865905799999 -21.317066192599999  17.1261844635 -25.188201904300001 -21.1329841614  16.522300720200001 -25.273689269999998 -21.201890945399999  16.464015960699999 -25.198995590199999 -21.205722808800001  16.0691699982 -25.255187988300001 -21.506690978999998  16.686513900800001 -25.194774627699999 -21.164657592800001  17.779170990000001 -25.180210113499999 -21.135425567599999  16.236843109100001 -25.205068588300001 -21.296983718900002  20.0123052597 -26.92402648925 -24.769886016800001  19.909934997600001 -26.872468948400002 -24.774255752599998  20.177602767949999 -26.86991214755 -24.7831077576  17.083115895566667 -25.83446184793333 -24.73696517943333  21.631969451900002 -25.131259918200001 -21.099802017199998  21.422021865800001 -25.132343292200002 -21.057388305700002  15.804810524000001 -25.301580429099999 -24.679439544699999  15.7025852203 -25.1932296753 -24.677898407000001  15.708262443500001 -25.083858490000001 -24.7106590271  15.3456125259 -25.132661819500001 -24.157011032100002  16.534015019733332 -25.838207880666669 -24.695326487233334  18.9420452118 -25.397768020649998 -24.7877483368  19.481413364425002 -25.449191570299998 -24.799884319299998  17.964778900150002 -25.293667793250002 -24.771982192999999  21.585342407199999 -25.659719467199999 -21.6130390167  21.485717773400001 -25.871690750100001 -21.598178863499999  20.9347782135 -26.927800178550001 -21.368389129649998  20.872310638399998 -27.032892227200001 -21.308082580600001  20.219066619900001 -26.973903656000001 -24.7794322968  20.312952041599999 -27.076946258500001 -24.7811794281  20.2069969177 -27.0782489777 -24.7742786407  19.898464202900001 -26.977184295699999 -24.767257690400001  19.749463081350001 -26.8741054535 -24.767079353349999  19.7920761108 -26.978450775100001 -24.760208129900001  21.2733078003 -26.068157196000001 -21.1638069153  21.3451894124 -25.968236287433331 -21.217707316066665  18.942911148099999 -26.882038116499999 -24.736288070699999  19.534040450999999 -27.734935760500001 -21.097360610999999  18.795591354399999 -27.039070129399999 -21.084508895900001  20.9096059799 -26.382824897749998 -21.064640998849999  21.002070426949999 -26.5444955826 -21.1383523941  20.863063812299998 -26.602293014499999 -21.088535308800001  20.818114280700001 -26.465157508849998 -21.062938690149998  19.523778915400001 -26.981126785299999 -24.75119781495  20.106468200649999 -27.027236938449999 -24.772010803200001  21.202602386500001 -25.839099883999999 -21.099409103399999  21.379988988266671 -25.788991292333336 -21.176117579133336  21.908740997300001 -25.0268707275 -21.652702331499999  21.7430801392 -25.3427257538 -21.633676528900001  21.732366561900001 -25.222637176500001 -21.212841033899998  18.827451705950001 -25.191672325150002 -21.135866165149999  20.481002426139998 -25.90865592958 -21.099597930879998  21.2192955017 -26.2862033844 -21.250740051299999  21.471630096399998 -25.754732132000001 -21.2877235413  19.6701278687 -28.1793632507 -21.1319179535  21.209018707299997 -25.748812675449997 -21.092984199549999  18.860584258999999 -25.1668491364 -21.136001586900001  21.696596145600001 -25.105709075899998 -21.125890731799998  19.975803375249999 -25.5973002116 -21.118847529099998  20.702152252200001 -27.352519989000001 -21.399723052999999  20.348548889149999 -27.658204078650002 -21.188858985899998  21.3369007111 -25.6283512115 -21.108318328900001  20.303215026899998 -27.880538940400001 -21.5005092621  21.429367065400001 -25.976321220399999 -21.537055015550003  19.300540924099998 -27.425398826600002 -21.075918197649997  20.292028427150001 -27.878841400150002 -21.3363456726  20.224761962900001 -27.985660552999999 -21.3874187469  20.364377975499998 -27.442173004200001 -21.102708816500002  20.146368026699999 -28.0917739868 -21.3850669861  20.430105209400001 -27.6659793854 -21.2890968323  19.9667987823 -28.303760528600002 -21.384475708  20.058446884199999 -28.197727203399999 -21.384445190400001  20.3711827596 -27.7734553019 -21.393918991099998  20.4417419434 -27.5562782288 -21.192760467500001  19.147251129200001 -26.984882354700002 -24.738578796399999  21.304170608500002 -25.4860744476 -24.845293044999998  3 0 1 2  3 3 5 4  3 6 7 8  3 7 9 8  3 10 12 11  3 13 14 15  3 16 14 13  3 17 18 19  3 20 22 21  3 22 20 23  3 25 26 24  3 27 28 29  3 28 27 30  3 31 32 33  3 13 35 34  3 36 38 37  3 40 41 39  3 43 42 44  3 47 46 45  3 50 48 49  3 51 53 52  3 55 23 54  3 57 58 56  3 60 59 61  3 62 64 63  3 19 42 43  3 17 19 65  3 21 17 65  3 66 68 67  3 70 69 50  3 30 5 71  3 72 7 6  3 73 74 75  3 76 77 33  3 24 78 25  3 80 42 79  3 53 51 50  3 22 81 21  3 83 84 82  3 87 86 85  3 85 86 88  3 89 91 90  3 94 93 92  3 92 93 95  3 96 98 97  3 97 98 99  3 83 101 100  3 10 102 103  3 104 12 105  3 65 12 104  3 107 106 108  3 106 107 109  3 110 112 111  3 114 100 113  3 42 80 44  3 115 103 102  3 116 117 118  3 121 120 119  3 124 123 122  3 125 126 104  3 128 127 129  3 129 127 130  3 114 131 132  3 81 17 21  3 133 134 135  3 138 137 136  3 136 137 139  3 140 141 142  3 28 143 144  3 143 145 144  3 49 146 147  3 18 17 81  3 100 114 77  3 148 149 150  3 149 151 150  3 152 154 153  3 50 43 44  3 90 84 83  3 83 155 90  3 156 158 157  3 158 156 159  3 160 162 161  3 163 165 164  3 166 168 167  3 104 169 170  3 106 28 144  3 172 128 171  3 174 173 175  3 64 70 49  3 176 38 177  3 178 180 179  3 181 65 62  3 48 50 182  3 24 26 183  3 186 184 185  3 187 188 189  3 188 153 189  3 190 192 191  3 193 101 83  3 148 195 194  3 148 196 195  3 198 199 197  3 201 200 34  3 204 202 203  3 14 205 15  3 208 206 207  3 103 25 78  3 209 210 35  3 213 212 211  3 214 16 215  3 16 214 216  3 187 218 217  3 219 63 25  3 63 26 25  3 78 122 103  3 206 208 220  3 221 223 222  3 224 225 112  3 153 199 152  3 199 153 226  3 190 227 192  3 230 228 229  3 232 233 231  3 55 232 234  3 235 211 236  3 237 238 239  3 240 187 217  3 243 242 241  3 244 119 120  3 232 55 245  3 246 247 248  3 16 216 249  3 250 194 195  3 194 250 251  3 252 253 254  3 225 255 112  3 255 225 256  3 257 38 176  3 259 258 260  3 260 258 261  3 263 262 261  3 18 79 19  3 264 242 265  3 265 266 264  3 267 184 268  3 269 271 270  3 108 272 273  3 66 274 68  3 275 92 95  3 95 276 275  3 215 16 200  3 278 279 277  3 282 280 281  3 33 22 31  3 187 189 283  3 249 216 284  3 207 206 264  3 189 153 283  3 134 133 285  3 133 286 285  3 289 287 288  3 221 102 10  3 61 291 290  3 292 293 274  3 143 295 294  3 274 96 97  3 296 213 295  3 295 297 296  3 12 298 105  3 293 300 299  3 299 300 301  3 304 302 303  3 305 307 306  3 235 236 308  3 282 309 280  3 310 215 241  3 22 33 81  3 311 110 111  3 183 313 312  3 55 31 23  3 314 315 316  3 317 77 132  3 319 318 137  3 320 321 322  3 99 321 320  3 100 77 76  3 64 26 63  3 323 325 324  3 326 327 204  3 207 86 325  3 309 218 328  3 2 329 0  3 312 331 330  3 104 21 65  3 49 48 146  3 219 115 222  3 65 19 43  3 12 10 298  3 221 222 102  3 47 127 57  3 127 172 57  3 91 166 84  3 82 167 332  3 332 302 131  3 226 333 334  3 336 337 335  3 338 229 228  3 197 339 198  3 340 341 330  3 219 62 63  3 343 342 35  3 312 330 341  3 22 23 31  3 113 100 101  3 23 20 141  3 341 78 24  3 180 344 53  3 177 345 287  3 347 307 346  3 331 312 313  3 348 349 344  3 187 240 188  3 188 240 78  3 351 190 350  3 352 75 331  3 197 353 339  3 339 353 354  3 333 355 356  3 357 226 188  3 355 226 357  3 240 122 78  3 53 344 349  3 219 25 115  3 359 358 59  3 171 161 360  3 363 361 362  3 64 331 313  3 219 222 62  3 222 181 62  3 178 179 364  3 333 226 355  3 365 331 366  3 0 329 271  3 42 19 79  3 54 23 141  3 69 43 50  3 183 341 24  3 312 341 183  3 196 367 195  3 52 146 182  3 61 290 60  3 103 122 123  3 115 25 103  3 368 370 369  3 371 248 203  3 124 372 123  3 372 373 123  3 102 222 115  3 21 140 142  3 10 223 221  3 11 223 10  3 50 44 53  3 12 65 11  3 103 123 10  3 373 105 123  3 374 64 313  3 183 374 313  3 26 64 374  3 374 183 26  3 31 55 32  3 11 65 223  3 4 375 3  3 232 231 376  3 222 223 181  3 290 291 377  3 303 46 304  3 69 64 62  3 43 69 65  3 65 69 62  3 351 379 378  3 196 148 380  3 148 381 380  3 84 167 82  3 167 84 166  3 53 44 382  3 255 256 383  3 385 377 384  3 386 382 80  3 33 77 18  3 146 48 182  3 49 70 50  3 386 180 382  3 335 387 336  3 336 387 388  3 223 65 181  3 123 298 10  3 182 50 51  3 311 111 120  3 140 104 184  3 251 58 389  3 377 385 290  3 248 371 218  3 33 18 81  3 206 220 264  3 40 39 390  3 392 391 41  3 305 346 307  3 230 354 228  3 393 151 149  3 394 393 149  3 395 396 271  3 362 361 397  3 8 398 246  3 246 398 247  3 340 330 365  3 4 399 375  3 76 399 100  3 32 76 33  3 400 203 247  3 252 254 401  3 355 340 365  3 78 357 188  3 357 78 341  3 13 15 35  3 402 404 403  3 405 402 403  3 406 377 291  3 304 379 407  3 388 39 337  3 309 248 218  3 44 80 382  3 180 385 179  3 359 131 358  3 364 385 384  3 180 53 382  3 130 168 166  3 135 408 133  3 409 381 148  3 410 90 155  3 80 79 60  3 178 344 180  3 114 132 77  3 41 411 412  3 51 52 182  3 413 28 30  3 372 414 373  3 412 415 41  3 127 47 45  3 416 332 167  3 317 60 417  3 418 94 66  3 419 418 66  3 106 410 29  3 258 314 420  3 143 28 413  3 314 258 209  3 421 308 422  3 423 421 422  3 113 82 332  3 424 76 32  3 30 4 5  3 56 58 425  3 29 28 106  3 72 6 282  3 376 234 232  3 32 55 234  3 376 32 234  3 424 32 376  3 426 286 322  3 346 427 347  3 375 399 424  3 34 35 210  3 428 171 360  3 424 399 76  3 429 427 5  3 233 429 5  3 214 310 430  3 174 431 173  3 376 375 424  3 3 375 376  3 376 231 3  3 144 432 106  3 292 434 433  3 113 101 193  3 27 155 30  3 418 279 95  3 100 435 83  3 39 391 337  3 391 426 337  3 30 71 413  3 155 27 29  3 435 30 155  3 4 436 399  3 437 438 326  3 399 436 100  3 193 82 113  3 83 435 155  3 5 3 231  3 435 4 30  3 90 410 89  3 57 56 439  3 416 168 303  3 168 46 303  3 4 435 436  3 435 100 436  3 20 142 141  3 105 298 123  3 441 159 440  3 159 442 440  3 445 444 443  3 446 448 447  3 447 448 449  3 450 448 446  3 451 89 410  3 451 410 109  3 161 162 163  3 428 453 452  3 452 171 428  3 455 454 456  3 454 455 457  3 82 193 83  3 57 389 58  3 179 385 364  3 167 168 416  3 46 168 130  3 132 131 359  3 332 303 302  3 332 416 303  3 459 456 458  3 161 451 107  3 451 109 107  3 157 460 461  3 463 462 164  3 164 165 464  3 84 90 91  3 360 163 164  3 106 109 410  3 465 447 449  3 280 283 281  3 446 165 273  3 29 410 155  3 163 162 273  3 164 462 360  3 466 467 257  3 467 37 257  3 58 250 425  3 125 104 105  3 459 469 468  3 172 389 57  3 107 160 161  3 461 470 157  3 128 161 171  3 328 283 280  3 175 471 455  3 250 367 472  3 122 217 124  3 108 160 107  3 362 474 473  3 363 362 473  3 463 164 464  3 394 389 442  3 305 476 475  3 172 452 389  3 452 172 171  3 379 477 407  3 406 379 351  3 473 474 478  3 474 462 478  3 428 360 462  3 302 407 477  3 477 358 302  3 128 172 127  3 479 279 480  3 95 279 479  3 231 233 5  3 163 360 161  3 104 126 169  3 481 478 482  3 462 463 478  3 422 308 236  3 483 422 236  3 335 337 322  3 322 337 426  3 432 108 106  3 484 208 325  3 447 165 446  3 266 485 264  3 486 488 487  3 450 446 272  3 446 273 272  3 491 490 489  3 363 473 492  3 128 129 451  3 272 108 450  3 104 170 327  3 108 432 450  3 450 432 144  3 273 165 163  3 273 162 108  3 160 108 162  3 474 362 462  3 379 406 291  3 452 453 442  3 453 440 442  3 149 194 394  3 250 472 425  3 351 378 439  3 350 406 351  3 129 89 451  3 91 129 130  3 166 91 130  3 451 161 128  3 89 129 91  3 130 127 45  3 45 46 130  3 393 470 461  3 461 151 393  3 478 463 464  3 304 407 302  3 358 477 61  3 61 59 358  3 61 477 291  3 174 38 431  3 431 38 36  3 473 494 493  3 493 494 37  3 57 439 47  3 149 148 194  3 428 495 453  3 495 428 462  3 361 441 397  3 345 496 289  3 289 288 345  3 453 495 362  3 425 439 56  3 47 439 378  3 477 379 291  3 378 46 47  3 378 304 46  3 379 304 378  3 191 350 190  3 497 227 196  3 409 148 150  3 439 425 351  3 351 425 472  3 462 362 495  3 351 472 190  3 52 396 329  3 250 195 367  3 344 498 348  3 178 498 344  3 498 178 499  3 251 250 58  3 358 131 302  3 150 500 409  3 393 394 442  3 251 394 194  3 227 367 196  3 367 227 472  3 227 190 472  3 421 471 308  3 441 440 397  3 449 235 308  3 453 397 440  3 124 217 371  3 473 478 481  3 361 363 492  3 72 282 117  3 452 442 389  3 36 473 481  3 481 431 36  3 38 174 177  3 431 482 464  3 482 478 464  3 481 482 431  3 173 465 471  3 362 397 453  3 251 389 394  3 156 157 470  3 159 393 442  3 470 393 159  3 441 501 159  3 461 502 151  3 502 150 151  3 157 158 460  3 150 502 503  3 150 503 500  3 500 504 409  3 502 461 505  3 460 505 461  3 503 502 505  3 492 501 441  3 37 494 36  3 36 494 473  3 492 473 506  3 441 361 492  3 507 504 500  3 508 509 7  3 510 508 7  3 257 37 38  3 352 511 75  3 331 365 330  3 64 147 2  3 512 513 35  3 35 15 512  3 269 514 0  3 0 271 269  3 52 329 2  3 52 53 349  3 396 395 329  3 515 516 0  3 515 514 270  3 270 517 515  3 270 514 269  3 64 2 1  3 64 49 147  3 52 2 518  3 271 329 395  3 514 515 0  3 271 396 270  3 52 349 396  3 349 270 396  3 52 518 147  3 147 146 52  3 147 518 2  3 356 366 331  3 356 355 366  3 73 75 511  3 357 341 355  3 355 341 340  3 519 152 199  3 520 229 281  3 283 328 218  3 366 355 365  3 281 154 520  3 354 338 228  3 338 354 353  3 333 521 334  3 353 197 338  3 314 342 315  3 188 226 153  3 40 54 141  3 229 520 230  3 154 339 354  3 282 281 229  3 310 214 215  3 339 519 198  3 430 310 522  3 522 310 523  3 154 230 520  3 218 187 283  3 226 197 199  3 217 218 371  3 230 154 354  3 519 339 154  3 519 154 152  3 72 116 7  3 154 283 153  3 433 275 300  3 122 240 217  3 519 199 198  3 524 525 323  3 526 118 527  3 283 154 281  3 184 186 528  3 387 307 347  3 530 529 531  3 529 530 509  3 293 292 433  3 485 533 532  3 177 174 496  3 40 390 245  3 173 431 465  3 328 280 309  3 104 326 184  3 5 427 346  3 465 464 447  3 464 165 447  3 370 534 372  3 99 98 535  3 423 422 483  3 388 387 427  3 301 236 212  3 236 301 483  3 398 9 509  3 145 536 450  3 450 144 145  3 538 537 539  3 539 537 540  3 464 465 431  3 16 13 200  3 126 368 369  3 369 169 126  3 203 248 247  3 6 309 282  3 116 510 7  3 510 116 118  3 541 400 530  3 542 528 186  3 529 185 531  3 216 430 284  3 533 544 543  3 543 532 533  3 430 216 214  3 278 539 480  3 539 278 489  3 545 430 546  3 266 533 485  3 430 522 546  3 205 14 547  3 513 343 35  3 13 34 200  3 466 257 548  3 321 475 476  3 445 475 321  3 316 420 314  3 469 459 549  3 16 547 14  3 538 239 537  3 550 88 264  3 88 207 264  3 551 243 200  3 243 551 265  3 524 491 525  3 491 524 87  3 286 552 322  3 322 552 320  3 543 553 259  3 259 553 258  3 548 176 554  3 257 176 548  3 93 418 95  3 205 547 555  3 455 556 289  3 345 288 287  3 487 532 486  3 540 262 479  3 551 200 201  3 262 263 479  3 538 490 85  3 458 263 549  3 278 491 489  3 456 459 556  3 458 456 454  3 434 92 433  3 209 258 553  3 469 258 468  3 175 496 174  3 265 551 533  3 260 488 486  3 465 449 471  3 35 342 314  3 35 314 209  3 112 255 557  3 260 486 532  3 278 480 279  3 479 263 458  3 121 119 277  3 423 483 275  3 488 260 262  3 260 261 262  3 210 544 201  3 201 34 210  3 261 258 469  3 459 458 549  3 556 455 456  3 300 275 483  3 67 404 558  3 458 454 479  3 308 471 449  3 207 325 208  3 471 175 173  3 434 94 92  3 289 175 455  3 471 421 457  3 457 455 471  3 388 232 390  3 233 232 388  3 175 289 496  3 261 469 549  3 549 263 261  3 345 177 496  3 239 488 537  3 237 88 550  3 324 524 323  3 324 87 524  3 468 556 459  3 87 324 86  3 544 210 559  3 323 484 325  3 242 243 265  3 243 241 200  3 200 241 215  3 532 543 259  3 559 209 553  3 209 559 210  3 454 423 276  3 276 479 454  3 260 532 259  3 241 242 523  3 310 241 523  3 266 265 533  3 551 544 533  3 544 551 201  3 559 553 544  3 543 544 553  3 207 88 86  3 85 237 239  3 139 405 403  3 98 96 299  3 85 88 237  3 85 239 538  3 87 85 490  3 525 254 323  3 254 525 244  3 121 311 120  3 294 145 143  3 54 245 55  3 139 97 136  3 235 449 448  3 491 87 490  3 525 491 119  3 419 224 110  3 427 387 347  3 538 489 490  3 491 277 119  3 278 277 491  3 119 244 525  3 419 279 418  3 427 429 388  3 104 140 21  3 560 411 184  3 423 457 421  3 454 457 423  3 480 539 540  3 479 480 540  3 388 337 336  3 476 305 306  3 213 296 443  3 41 391 39  3 561 208 523  3 285 426 391  3 509 530 398  3 479 276 95  3 143 413 295  3 133 552 286  3 489 538 539  3 9 398 8  3 318 405 137  3 444 98 562  3 562 98 301  3 444 445 535  3 299 301 98  3 211 294 213  3 300 293 433  3 402 563 404  3 327 326 104  3 145 211 536  3 142 20 21  3 211 145 294  3 39 388 390  3 236 211 212  3 319 135 134  3 41 184 140  3 126 414 368  3 40 140 41  3 235 448 211  3 448 536 211  3 536 448 450  3 297 295 413  3 301 300 483  3 443 444 562  3 96 274 293  3 276 423 275  3 275 433 92  3 560 564 411  3 66 565 224  3 224 419 66  3 564 402 566  3 402 405 318  3 94 418 93  3 121 277 419  3 277 279 419  3 567 383 256  3 224 565 225  3 565 66 67  3 387 335 307  3 68 139 403  3 139 68 274  3 408 552 133  3 568 569 319  3 319 569 318  3 346 305 297  3 305 296 297  3 443 562 213  3 97 408 136  3 139 274 97  3 408 97 99  3 136 408 138  3 408 135 138  3 408 99 320  3 444 535 98  3 562 301 212  3 293 299 96  3 99 445 321  3 135 319 137  3 535 445 99  3 294 295 213  3 71 346 297  3 413 71 297  3 443 475 445  3 475 443 296  3 68 403 404  3 40 245 54  3 412 411 566  3 415 412 566  3 570 383 567  3 567 563 570  3 141 140 40  3 267 560 184  3 267 268 255  3 567 571 558  3 558 404 567  3 68 404 67  3 565 571 225  3 296 305 475  3 411 564 566  3 224 112 110  3 383 560 267  3 558 571 67  3 335 322 321  3 248 309 246  3 567 404 563  3 402 564 563  3 571 565 67  3 225 571 256  3 567 256 571  3 534 414 372  3 392 41 415  3 564 570 563  3 383 267 255  3 208 561 220  3 111 112 557  3 560 570 564  3 570 560 383  3 572 202 204  3 255 268 557  3 86 324 325  3 5 346 71  3 116 72 117  3 335 476 306  3 335 321 476  3 126 125 414  3 414 534 368  3 306 307 335  3 509 508 529  3 41 184 411  3 232 245 390  3 426 285 286  3 233 388 429  3 317 359 59  3 18 417 79  3 317 132 359  3 169 369 572  3 105 414 125  3 414 105 373  3 169 572 170  3 327 170 572  3 526 527 542  3 542 186 508  3 124 371 370  3 8 309 6  3 124 370 372  3 368 534 370  3 327 572 204  3 437 326 541  3 572 370 202  3 370 572 369  3 246 309 8  3 529 508 186  3 370 371 202  3 371 203 202  3 541 326 204  3 204 400 541  3 203 400 204  3 118 117 527  3 247 398 400  3 185 529 186  3 437 541 530  3 400 398 530  3 118 526 510  3 437 530 531  3 184 528 527  3 117 573 527  3 184 573 527  3 9 7 509  3 528 542 527  3 526 542 510  3 510 542 508  3 185 438 531  3 531 438 437  3 438 185 184  3 438 184 326  3 317 18 77  3 60 317 59  3 18 317 417  3 79 417 60  3 386 290 385  3 385 180 386  3 131 113 332  3 131 114 113  3 290 386 80  3 290 80 60  
