ply
format ascii 1.0
comment bbox 25.014618  27.143194 0.014736  3.927940 -23.679500  -8.222119 
element vertex 208
property double x
property double y
property double z
element face 220
property list uchar int vertex_index
end_header
25.98122882845 2.3988341093050001 -21.8171930313  25.926042556799999 2.4770085811599998 -21.713685989399998  25.881517410299999 2.63771343231 -21.869014740000001  25.844879150400001 2.68506646156 -21.7487430573  25.383216857899999 1.08566761017 -21.4074401855  25.701906204233335 1.1531416972499999 -21.377805709833336  25.333305358849998 0.77042877674099997 -21.408274650549998  25.665489196799999 3.0429096221899998 -22.012874603299998  25.531686782800001 3.2045897245399999 -22.380629539499999  25.540494918833332 3.2034215927133332 -22.174617131566666  26.0879793167 0.26261244714249998 -9.2381796836850008  26.142314910900001 0.17930869758099999 -8.9171018600499998  26.309253692599999 0.13245350122499999 -8.8711738586400006  25.505069732700001 3.2434701919600002 -22.054899215700001  26.883006095900001 0.022050150670100001 -9.234375  26.838442802399999 0.085286200046549993 -9.4885640144349992  26.972499847400002 0.0147363501018905 -9.369071006775  25.200568199149998 3.7220247983950001 -23.227674484249999  25.094855308500001 3.8566330671299998 -23.363319396949997  25.017873764000001 3.9279396534000002 -23.208303451500001  25.4366588593 0.56889884173850003 -21.375017166150002  25.175230026200001 0.516308486462 -21.418483734100001  25.4508686066 0.19375079870199999 -21.3054580688  27.010330200199999 0.095979399979100002 -9.9090137481700005  26.941203117400001 0.097562450915699997 -9.7258329391499991  26.635969161999999 0.23022640248133333 -9.8216613133733333  26.543144226100001 0.53206938505199997 -21.234603881799998  26.878913879399999 0.58877062797500002 -21.482742309599999  26.923481623333334 0.39775120218633336 -21.452502568566668  26.122161865233334 0.30034163594233337 -9.4281956354799998  26.16713619235 0.32975800335399996 -9.5836596488950008  25.144313812299998 0.82534718513500005 -21.439271926899998  25.631181716900002 3.0639566183099998 -22.291129112250001  25.759860038749999 2.8532922267899998 -22.175096511850001  25.406928062399999 3.40988433361 -22.849802970900001  26.208318710349999 1.8020621240125001 -21.775438785525001  26.0970945358 1.9885856509199999 -21.6939163208  26.085840861033333 2.1622393131233331 -21.8877023061  25.715061187700002 2.95406866074 -22.099098205600001  25.3201828003 0.25520980358099998 -8.6610774993900002  25.4630851746 0.198953598738 -8.5528173446700002  25.32974942526667 0.192468802134 -8.5118878682466672  25.540270805349998 0.222774155438 -8.6600542068450004  25.190364837600001 0.2270296067 -21.374534606899999  25.665250778166666 0.55440673232066662 -21.325820287066666  25.935762405399998 2.44970870018 -21.7076816559  25.837774276699999 2.5439035892500002 -21.600582122799999  25.946095466599999 2.286398530005 -21.620190620399999  26.016985893250002 2.3342695236199997 -21.92108058925  25.88181495665 2.6289691925050001 -21.99944782255  25.2819728851 3.6222684383399999 -23.045055389400002  25.3114595413 3.5550282001499998 -22.74926948545  25.260709762600001 3.6531167030299998 -23.0046291351  25.391824722300001 3.4213910102799998 -22.691238403300002  25.991647720350002 2.373100638385 -22.111366271999998  25.9495973587 0.32281920313849999 -9.3571658134499991  26.804522832233335 0.12245526909836667 -9.60555108388  26.54236221315 0.2261886000635 -9.6295299529999987  25.822303772000001 2.7599518299099999 -21.929281234699999  25.618090947466666 1.8129001061133332 -21.408558527633335  25.52838230135 1.3284996151900001 -21.400218009950002  25.3505859375 1.39363849163 -21.426269531199999  25.318122863799999 1.70001912117 -21.445003509500001  25.529312769566669 3.0442326068866667 -21.67126846313333  25.550309181199999 2.78097808361 -21.512940406799999  25.740785598799999 2.78452014923 -21.642578125  25.149228096000002 3.5036543607699997 -22.001646041899999  25.258059501650003 3.4756404161450001 -22.2496509552  25.287080764799999 3.39505243301 -21.940582275400001  26.8242645264 0.048831298947299998 -10.807926178000001  26.685998916599999 0.093533199280700002 -10.866177558899999  26.765460967999999 0.12169670313600001 -10.6824178696  25.990037282333333 1.8109646240866668 -21.519808451333333  26.184728622400002 1.60563421249 -21.5695419312  25.949041366599999 1.9649424552899999 -21.5137195587  25.618885040249999 0.26379695534699998 -8.8366937637349992  25.6141026815 0.31639606753999999 -9.065677960713332  25.3508644104 0.35623711347600001 -9.0248317718499997  25.6142692566 3.1033291816699999 -21.912054061900001  26.485108375549999 0.22481910139299999 -9.5414752960199998  26.4333105087 0.19904179871049998 -9.3913793563850003  26.431689262399999 0.15499874949449999 -9.1723380088800006  26.537466049199999 0.30412346124650003 -10.085071563749999  26.8595809937 0.1654586941 -10.011508941700001  26.672768592849998 0.23424519598499999 -9.9629950523349997  25.443910598799999 0.079144403338400005 -8.2776527404800007  25.226189613350002 0.12223335355499999 -8.3318052291899996  25.403785705600001 0.0619419999421 -8.2221193313600001  25.6450519562 0.044425200670999997 -8.2283363342300007  25.480559349049997 0.1196912974115 -8.3647108078050003  25.593307495099999 0.060304101556499998 -8.2549953460700003  26.3285973867 1.60442606608 -21.937810897833334  25.020980835 1.7842872142799999 -21.4551734924  25.154528617849998 1.8365672826799999 -21.457760810849997  25.014617919900001 2.07333731651 -21.464670181300001  26.092084884599998 0.17715099453899999 -8.8429441452000006  25.394388198866665 3.3493855794266665 -22.179823557533336  25.3382377625 3.4396314620999999 -22.426908492999999  26.584848403899997 1.08816677332 -21.411451339750002  26.235549926800001 0.89112299680700002 -21.306840896600001  26.657626469933334 0.71362054347999992 -21.263031005866669  25.1175365448 0.73552018403999997 -10.183589935300001  25.4383831024 0.62713673710849993 -10.12747335435  26.098093032800001 0.41749230027200002 -9.8824720382700004  25.301601409900002 0.69493123888999997 -10.24857568745  25.7109193802 2.0812689065949996 -21.425447464000001  25.107189178500001 1.1412146091499999 -21.450717925999999  25.049718856799998 0.82329887151699999 -21.441446304300001  25.24859428405 2.0268049240099999 -21.451195716850002  25.7725563049 2.8490839004500002 -21.842664718599998  26.805486679099999 0.80199062824199996 -21.519268035900001  26.6824932098 1.05321109295 -21.566715240499999  25.0644283295 1.4630529880500001 -21.45362854  25.4516563416 3.2681112289400001 -21.935960769699999  25.4157896042 3.3676629066450001 -22.585189819299998  26.071413993825001 1.253025710585 -21.392207622549996  25.919694900500001 2.1513431072200002 -21.540933609  27.006754875150001 0.17041860520800001 -21.47577762605  26.441217422499999 1.33090859652 -22.079339981099999  26.29851150515 1.58121693134 -22.259263992299999  26.3960399628 1.33751475811 -22.277551651  25.912477493299999 0.51502329111099998 -10.3674888611  26.252660751299999 0.414196014404 -10.3460226059  26.28517150875 0.40324315428699997 -10.2448592186  26.512039184566664 0.24610927204266667 -10.718523343399999  26.333695411699999 0.28401765227349995 -10.867695331549999  26.492408752399999 0.191453292966 -10.8983898163  25.773399353000002 0.56241545081150002 -10.50384664535  26.8397731781 0.074591703712899998 -10.689519882200001  26.190454483 0.42563709616700002 -10.1752738953  25.850486755349998 0.52041351795199997 -10.2245235443  26.044580459599999 0.46929629643733334 -10.256157239266665  25.99182891845 0.47056879103149996 -10.1067194939  25.645244598399998 0.5735120773315 -10.17489433285  25.418800989800001 0.68208817640933328 -10.596481005366666  25.570534706099998 0.62766516208649992 -10.45935201645  26.624003410349999 1.0698681473749998 -21.766862869250001  26.492822647099999 1.3558657169299999 -21.628889083899999  25.115953445400002 0.57187268137949998 -11.474924564349999  25.340815861999999 0.42288699746166669 -11.551014582333332  25.3586406708 0.57201492786399999 -11.2203865051  25.47740046183333 0.4100345571836666 -11.458768844633333  25.720992088300001 0.42059744894500001 -11.2116446495  26.713407516499998 0.29622856279233339 -21.220012664799999  25.829469680800003 0.12179305031900001 -8.4474234581000012  25.2239818573 0.22127330303199999 -8.5437602996800006  25.121133804300001 0.17912079393899999 -8.4333868026700003  26.31358083086667 0.28264513611800002 -9.5530077616366658  25.163873672450002 0.75560486316700004 -10.365538120250001  25.1677970886 0.73775810003300002 -10.291384697  25.519073486300002 0.63407641649199997 -10.302103042600001  25.368005752549998 0.69674408435849999 -10.415775299050001  26.251537958766665 0.114449168245 -8.7252766291300006  25.27428627015 3.5447150468799999 -22.576317787200001  25.483470280933332 1.9246606032066669 -21.425253550200001  25.432225227349999 3.3436336517349998 -22.950687408450001  26.488673210150001 1.3316750526450001 -21.818020820649998  26.293870925900002 1.4446637630449999 -21.533806800850002  27.096256256099998 0.014952000230599999 -9.5415439605699994  27.0059776306 0.033270299434700001 -9.516456604  25.176609039300001 3.5899059772499999 -22.443555831899999  25.094558715799998 3.6031783819200003 -22.254776954650001  25.1258049011 3.7414560317999999 -22.7197151184  25.76278686525 0.26529635489000003 -8.9471149444600009  25.871725082400001 0.167555600405 -8.6230792999299997  25.722651799499999 0.56628227233866668 -10.3154513041  25.125364303600001 3.82025074959 -23.0853118896  25.231891632100002 3.69001674652 -22.950819015499999  25.169178008999999 3.74918198586 -23.5002555847  25.299486160249998 3.5712996721249999 -23.126110076899998  25.081466674799998 3.8748898506150002 -23.679499626149997  25.068363189700001 3.8941051959999999 -23.5948982239  25.191198349 3.72527444363 -22.86629772185  26.12689781185 2.0871247053149999 -22.037368774400001  25.961577415500003 0.80921494960750007 -21.3217926025  25.648040135700001 2.3619173367799999 -21.453553517700001  26.22912788395 1.8326969146750001 -22.044814109800001  26.2138690948 1.81649434566 -22.237648010299999  26.117320060699999 2.062062740325 -22.218491554300002  25.957890510550001 1.5677898526199998 -21.43439006805  26.1800956726 1.8235688209500001 -22.371618270900001  26.12985706325 1.6164782047299999 -22.927425384499998  26.456694925147154 0.60584269453562922 -23.379214082095434  26.008914947499999 2.308003544805 -22.211734771700002  26.949578285199998 0.06279095076025 -10.56319618225  25.931575775100001 0.14735460281400001 -8.5772209167500009  25.97543525695 0.23605435341600001 -11.3509144783  26.112157821650001 0.22194554656749999 -11.257769107850001  26.336227417 0.065515302121600005 -11.3287982941  26.199478149400001 0.079313099384300007 -11.4216508865  26.414438247700001 0.133706703782 -11.117476463299999  26.472694397000001 0.042098999023400002 -11.229282379200001  26.6093730927 0.021238900721100001 -11.1314535141  26.551090240499999 0.11087589711 -11.018170356800001  26.628879547099999 0.157680302858 -10.791232109099999  26.690719604450003 0.18824830651300001 -10.576468944549999  25.875987052950002 0.29849284887299998 -9.1874294280999997  25.837070465099998 0.27153883874399998 -9.040969848635001  25.918619791666668 0.218903635939 -8.8721577326466683  26.649799982699999 0.15248620013399999 -9.4852883021033332  27.1431941986 0.034160498529699997 -9.8056564331100002  26.510013580349998 0.29828424751749999 -10.5234489441  26.248785018950002 0.2037345543505 -11.161737918899998  25.770445346824999 0.25616825371974999 -11.4898221493  26.355930328399999 0.22050249576600001 -11.0021543503  25.8573144277 0.40669996539766667 -11.099893887833332  26.5758113861 0.212405696511 -21.2171001434  26.5800666809 0.21782229840799999 -21.216297149700001  3 0 2 1  3 1 2 3  3 4 6 5  3 7 8 9  3 12 10 11  3 9 13 7  3 15 14 16  3 19 17 18  3 21 22 20  3 24 23 25  3 27 26 28  3 12 30 29  3 6 31 21  3 34 32 33  3 35 37 36  3 21 20 6  3 32 7 38  3 40 39 41  3 39 40 42  3 22 21 43  3 20 22 44  3 6 20 44  3 47 45 46  3 0 48 2  3 48 49 2  3 51 34 50  3 52 51 50  3 51 53 34  3 49 48 54  3 30 55 29  3 56 25 57  3 2 49 58  3 60 59 61  3 61 59 62  3 65 63 64  3 66 68 67  3 69 70 71  3 3 46 1  3 72 73 36  3 74 72 36  3 58 3 2  3 75 76 77  3 78 7 13  3 81 79 80  3 82 84 83  3 83 84 23  3 87 85 86  3 88 89 90  3 73 91 35  3 92 93 94  3 10 55 95  3 13 9 96  3 96 9 97  3 100 98 99  3 23 84 25  3 103 102 101  3 101 102 104  3 74 105 59  3 6 44 5  3 37 45 36  3 45 47 36  3 31 4 106  3 106 107 31  3 94 93 108  3 6 4 31  3 3 65 46  3 3 58 109  3 111 98 110  3 62 112 61  3 96 67 113  3 8 114 9  3 114 8 53  3 98 115 99  3 36 116 74  3 27 28 117  3 116 105 74  3 119 118 120  3 121 123 122  3 125 124 126  3 1 46 45  3 122 127 121  3 128 69 71  3 130 129 131  3 129 130 132  3 130 133 132  3 127 134 135  3 132 133 103  3 136 137 111  3 137 98 111  3 113 13 96  3 138 140 139  3 140 142 141  3 86 89 41  3 89 86 85  3 26 143 28  3 42 40 144  3 129 132 103  3 55 10 29  3 145 146 86  3 86 41 145  3 81 80 147  3 10 95 11  3 104 148 149  3 101 104 149  3 103 133 102  3 135 151 150  3 133 150 104  3 104 102 133  3 150 148 104  3 148 150 151  3 95 152 12  3 114 53 153  3 154 93 62  3 93 154 108  3 67 96 97  3 153 53 51  3 155 34 33  3 156 91 157  3 91 156 118  3 158 24 159  3 0 37 48  3 37 0 45  3 162 161 160  3 160 161 67  3 136 111 110  3 110 120 136  3 154 62 59  3 34 8 32  3 32 8 7  3 163 75 164  3 121 165 130  3 17 166 52  3 67 97 160  3 97 153 160  3 97 9 114  3 51 52 167  3 34 53 8  3 18 17 168  3 68 113 67  3 153 97 114  3 50 169 17  3 171 168 170  3 162 160 153  3 17 169 168  3 167 172 51  3 51 162 153  3 162 51 172  3 1 45 0  3 54 48 173  3 100 110 98  3 59 72 74  3 136 120 118  3 156 136 118  3 99 115 174  3 116 47 46  3 46 175 116  3 176 177 178  3 179 72 59  3 180 177 119  3 116 36 47  3 180 119 120  3 176 178 173  3 35 91 176  3 181 120 182  3 120 181 180  3 137 157 98  3 179 115 157  3 157 73 179  3 48 37 173  3 118 119 91  3 115 179 59  3 178 183 173  3 176 91 119  3 119 177 176  3 116 175 105  3 91 73 157  3 157 115 98  3 36 73 35  3 115 59 5  3 173 183 54  3 72 179 73  3 35 176 37  3 37 176 173  3 26 27 100  3 165 121 127  3 156 137 136  3 5 174 115  3 156 157 137  3 100 27 110  3 71 184 128  3 29 10 12  3 163 164 185  3 142 187 186  3 188 189 187  3 191 190 192  3 192 190 193  3 123 121 131  3 123 131 129  3 95 12 11  3 25 56 24  3 194 124 71  3 124 195 71  3 197 196 163  3 198 196 197  3 195 184 71  3 199 79 14  3 14 15 199  3 200 23 24  3 201 184 195  3 187 202 188  3 142 186 141  3 141 186 203  3 193 204 126  3 193 190 204  3 187 142 205  3 194 70 193  3 194 193 126  3 206 117 143  3 117 28 143  3 207 206 143  
