ply
format ascii 1.0
comment bbox -27.130161  -25.061523 -10.329652  -5.790642 25.017668  26.039089 
element vertex 170
property double x
property double y
property double z
element face 176
property list uchar int vertex_index
end_header
-26.592884063700001 -8.1613569259599998 25.298871993999999  -26.62582588195 -8.2661309242249992 25.257099151649999  -26.520012378699999 -8.2181770801549998 25.437689304374999  -26.642948150599999 -8.1586122512799992 25.206687927200001  -26.6914997101 -8.1556034088100002 25.113252639799999  -26.695426940899999 -8.2612047195400002 25.114786148099999  -26.634437560999999 -8.7005357742299996 25.4494838715  -26.657243728600001 -8.5898723602300002 25.339767456099999  -26.683815002399999 -8.6980371475199991 25.357618331899999  -26.063493728600001 -8.2667007446300005 25.940065383899999  -26.195763270066667 -8.3084958394333324 25.863129933666666  -26.086006164600001 -8.3748970031700001 25.9537391663  -25.977519989000001 -8.3683614730800002 26.004737853999998  -26.520082473799999 -9.0236654281599993 25.743148803699999  -26.595268249499998 -9.1282949447600004 25.668830871600001  -26.528522491499999 -9.1281805038500003 25.747459411600001  -26.61472797395 -9.0230793952949995 25.6211414337  -26.646511077900001 -6.2698950767500001 25.364540100100001  -26.587680816700001 -6.2717671394299996 25.451091766400001  -26.6177558899 -6.1567168235800001 25.345167159999999  -26.502279281624997 -8.4350438117975006 25.54941129685  -26.403324127200001 -8.1685147285450004 25.610199928299998  -26.386576970433328 -8.2758305867499988 25.660200118999999  -26.363834381099998 -8.9167890548699997 25.886436462399999  -26.2604160309 -8.80780410767 25.941598892199998  -26.352508544900001 -8.8115167617800001 25.8802909851  -27.076313018800001 -9.6461563110400004 25.122869491599999  -27.011840820300002 -9.7490415573100009 25.201505660999999  -27.020782470699999 -9.6473588943500008 25.209388732899999  -26.5901813507 -7.5360355377200001 25.370115280150003  -26.681848526 -7.42902135849 25.2450447083  -26.600415229799999 -7.4325721263900002 25.379036903399999  -26.669523239099998 -7.5321617126499998 25.2346172333  -26.750747680700002 -9.5436830520600004 25.521467208899999  -26.676221847499999 -9.5426225662200004 25.594163894699999  -26.751264572099998 -9.4408378601099994 25.523345947300001  -25.615852356000001 -9.5860185623199996 25.8210334778  -26.418748855600001 -9.53541564941 25.788742065400001  -26.4066810608 -9.8356962203999991 25.649106979399999  -26.680679321300001 -6.1557364463799997 25.261352539099999  -26.2020759583 -5.79064178467 25.367050170900001  -26.3581428528 -5.9134135246300001 25.420003891  -26.331710815400001 -6.0302410125700003 25.5287284851  -26.602231979399999 -7.8479232788099997 25.3100910187  -26.57686805725 -7.7441661357899996 25.357455253600001  -26.6624584198 -7.7415685653699997 25.226613998400001  -26.607284545900001 -9.2331275939899999 25.6757926941  -26.660604476900001 -9.1282196044900008 25.589197158800001  -26.673778533899998 -9.2332134246800006 25.5970993042  -27.018623352100001 -9.5442914962799996 25.209058761600001  -26.9557743073 -9.6474370956400008 25.288850784299999  -26.957931518599999 -9.5449008941700004 25.291763305700002  -26.707795143150001 -8.4779186248800009 25.185564994850001  -26.640418052649999 -8.3731880187950001 25.266295433050001  -26.711038589499999 -8.3685436248799991 25.124910354600001  -26.680147171000002 -9.3371562957799998 25.600111007700001  -26.6089897156 -9.3364753723099998 25.6753864288  -26.605146408100001 -9.4390316009500008 25.671018600499998  -26.679159164400001 -9.4400510787999998 25.597837448100002  -26.7335694631 -8.985205968219999 25.432329813666666  -26.7314157486 -8.8041739463800006 25.326889991800002  -26.822851181033332 -8.9823188781733325 25.284863789899997  -26.735754013099999 -9.2327079772899996 25.515144348100002  -26.7461891174 -9.3371887207000004 25.5211811066  -25.994934082 -8.47566413879 26.014749526999999  -25.473955154399999 -8.7049674987800003 26.039089202900001  -26.9455547333 -9.7489700317400008 25.280002593999999  -27.069688797000001 -9.7481422424299993 25.116729736300002  -27.1301612854 -9.6447486877399999 25.0350017548  -26.746520996099999 -8.2586669921899993 25.023151397700001  -26.7607555389 -8.3658504486100007 25.032382965099998  -27.053768158 -9.8490400314300004 25.1036701202  -27.124269485500001 -9.7468614578199997 25.029441833500002  -27.110078811600001 -9.8479909896900004 25.017667770399999  -26.7129745483 -10.2385673523 25.102197647099999  -26.869602203399999 -10.144668579099999 25.091152191199999  -26.789911270099999 -10.1432714462 25.1601543427  -26.2703533173 -9.0166091918899998 25.944807052600002  -25.362857818599998 -9.0692806243900002 25.942041397099999  -25.556982040400001 -9.3837823867800001 25.923217773400001  -26.887620925899999 -9.6471452712999994 25.3660030365  -26.770050048800002 -10.045174598699999 25.274440765400001  -26.698406219500001 -10.140691757200001 25.220628738399999  -26.677156448400002 -10.0423612595 25.3338775635  -26.740491867100001 -9.6452960967999992 25.512548446699999  -26.655290603600001 -7.8455209732100002 25.2199573517  -26.650363922099999 -7.9498133659399999 25.214941024800002  -26.991445541400001 -9.8494148254400002 25.185142517100001  -26.608551025400001 -10.1382884979 25.2825164795  -26.613809585599999 -10.2353420258 25.157329559299999  -26.893447876 -9.5450477600100001 25.371652603099999  -26.886835098300001 -9.4413452148400001 25.368202209500001  -26.822134017900002 -9.5443687438999998 25.446561813399999  -26.9265022278 -10.0477695465 25.134538650500001  -26.9952411652 -10.0480823517 25.057685852100001  -26.411243438700001 -10.2285242081 25.265365600599999  -26.508853912399999 -10.134909629799999 25.337488174400001  -26.516166686999998 -10.232279777500001 25.213850021399999  -26.4267444611 -10.327079772899999 25.147329330400002  -26.752754211399999 -8.5842056274399994 25.152883529699999  -26.707691192599999 -8.5874547958399994 25.248374939000001  -26.398212432899999 -6.1525435447700003 25.574459075899998  -26.5173225403 -6.2710099220300002 25.529302597000001  -26.481910705600001 -6.1563563346899999 25.5055217743  -26.373859405499999 -8.706017494200001 25.834125518800001  -26.35584545135 -8.5993938445999998 25.823215484649999  -26.456884384199999 -9.7382612228400003 25.686468124400001  -26.493160247799999 -9.6394481658900002 25.7139263153  -26.816856384299999 -9.6465473174999996 25.441278457599999  -26.821006774899999 -9.4413337707499991 25.447187423700001  -26.9483966827 -9.4408235549900006 25.286077499400001  -26.7337722778 -9.9455194473299997 25.376510620099999  -26.8174667358 -9.9474458694500001 25.3105220795  -26.812170028699999 -9.8477435112000009 25.371588707000001  -26.6474723816 -9.94332313538 25.4407653809  -26.586971283 -10.039840698200001 25.395500183100001  -26.520467758199999 -10.3296518326 25.0876235962  -26.319149970999998 -8.4375159740450005 25.800070285775  -26.407323837300002 -8.3836050033599996 25.6732368469  -25.537235259999999 -9.8101673126200009 25.591775894200001  -25.413143158 -9.6843032836899994 25.623403549199999  -25.361171722400002 -9.8418254852300002 25.412899017299999  -25.484764099100001 -9.9679641723600003 25.381515502900001  -25.211309433 -9.8064432144199998 25.252038955700002  -25.104511260999999 -9.6339941024800009 25.295471191400001  -25.0897140503 -9.6973733901999992 25.110425949100001  -26.6954669952 -9.8457403183000007 25.4769821167  -26.596736908 -9.5409717559799994 25.6633872986  -26.368835449199999 -9.1244735717799994 25.886343002299999  -26.454086303699999 -9.2303342819199994 25.818920135500001  -26.362367630000001 -9.2269887924200003 25.8800010681  -26.544588089000001 -6.3834939003000004 25.547246933  -26.297636032100002 -6.1448683738699996 25.631572723400001  -26.233614921600001 -8.6479744911199994 25.925698280349998  -26.5267276764 -9.4374742507900002 25.7411384583  -26.533699035600002 -9.3352737426800001 25.747772216800001  -26.58350753785 -8.5937705040000001 25.477983474750001  -26.597983678199999 -8.4483966827399986 25.384076436366666  -26.8119907379 -9.3371896743799994 25.4420795441  -26.26711940765 -8.1679949760449997 25.7679338455  -26.5259084526311 -8.5584856326732002 25.057670261034236  -26.5909919739 -8.0561084747299994 25.2989711761  -26.643453598000001 -8.0537061691300007 25.208473205600001  -26.5963897705 -7.95200681686 25.304368972799999  -26.431961059599999 -8.4917402267500002 25.689029693599998  -26.776914596600001 -8.4731388092 25.043043136600001  -26.801647186299999 -8.5815267562899997 25.060045242299999  -26.694307327299999 -8.0510206222500003 25.116674423199999  -25.245737075800001 -9.6930227279699999 25.450397491499999  -25.1363334656 -9.5265808105499996 25.492649078399999  -25.118085861200001 -8.8496837615999997 25.865083694500001  -26.457111358599999 -5.7973370552099999 25.2331085205  -26.522743225100001 -5.9204945564300004 25.2792243958  -26.155052185050003 -8.4848837852449996 25.936796188350002  -26.4545688629 -9.1271076202400003 25.821002960200001  -26.450145721399998 -9.0231199264500006 25.819622039799999  -26.5360603333 -9.2324266433699993 25.7511310577  -26.446256637600001 -5.9183320999099998 25.353744506799998  -25.0615234375 -9.5609121322600004 25.303913116499999  -26.266643524199999 -8.9124460220300001 25.944078445399999  -26.497358322099998 -10.037391662599999 25.457738876299999  -26.116359710699999 -8.5883579254200004 25.970926284800001  -26.352037429799999 -9.3289661407499995 25.870948791499998  -26.542036692300002 -8.6685063044233335 25.595586776766666  -25.2967567444 -9.5369291305499999 25.6608886719  -25.0618591309 -9.14878082275 25.703216552699999  -26.450765609699999 -9.3331108093299999 25.8148365021  -26.464178085299999 -8.65271425247 25.709360122650001  -26.4629497528 -9.9376878738399999 25.561265945399999  -26.512025833100001 -9.8400287628199994 25.597972869900001  3 1 2 0  3 3 4 5  3 7 8 6  3 9 10 11  3 11 12 9  3 15 13 14  3 13 16 14  3 19 17 18  3 2 20 21  3 20 22 21  3 24 25 23  3 26 27 28  3 30 29 31  3 29 30 32  3 35 33 34  3 37 38 36  3 17 19 39  3 41 42 40  3 45 43 44  3 14 47 46  3 46 47 48  3 49 28 50  3 51 49 50  3 53 54 52  3 55 57 56  3 57 55 58  3 6 60 59  3 59 60 61  3 63 55 62  3 62 55 48  3 64 65 12  3 27 66 28  3 66 50 28  3 26 68 67  3 5 69 54  3 69 70 54  3 67 72 71  3 71 72 73  3 74 76 75  3 77 79 78  3 80 51 50  3 3 1 0  3 81 82 83  3 33 84 34  3 86 43 85  3 68 72 67  3 58 55 63  3 27 67 87  3 26 67 27  3 88 82 89  3 91 90 92  3 93 94 75  3 55 56 48  3 95 96 97  3 97 98 95  3 89 82 76  3 74 89 76  3 67 71 87  3 52 99 100  3 101 103 102  3 25 105 104  3 90 51 80  3 107 106 37  3 88 83 82  3 92 108 84  3 91 92 109  3 90 110 51  3 91 110 90  3 83 111 81  3 111 113 112  3 33 92 84  3 115 114 83  3 83 114 111  3 116 98 89  3 106 38 37  3 109 92 33  3 22 118 117  3 119 121 120  3 121 119 122  3 124 123 125  3 113 111 126  3 56 46 48  3 127 57 58  3 58 34 127  3 128 129 130  3 131 132 102  3 133 25 24  3 89 98 97  3 57 134 56  3 56 134 135  3 1 54 53  3 119 36 38  3 96 115 88  3 14 46 15  3 58 35 34  3 35 109 33  3 7 6 136  3 137 7 136  3 62 138 63  3 139 21 22  3 117 139 22  3 139 117 10  3 21 140 2  3 35 138 109  3 138 35 63  3 35 58 63  3 141 142 3  3 0 141 3  3 137 53 7  3 101 102 132  3 143 43 86  3 1 3 5  3 20 144 118  3 52 145 99  3 99 145 146  3 142 147 4  3 4 3 142  3 53 137 2  3 148 123 149  3 54 70 145  3 145 52 54  3 78 150 65  3 1 5 54  3 8 7 100  3 53 52 7  3 52 100 7  3 133 105 25  3 5 4 69  3 14 16 47  3 151 152 40  3 10 105 153  3 154 155 15  3 156 154 15  3 41 40 157  3 152 157 40  3 140 0 2  3 77 78 65  3 158 149 124  3 65 159 77  3 153 105 133  3 115 96 160  3 161 24 159  3 9 139 10  3 162 79 77  3 163 20 136  3 65 161 159  3 1 53 2  3 136 20 137  3 12 65 9  3 164 165 78  3 78 79 164  3 65 64 161  3 64 12 11  3 64 153 161  3 161 153 133  3 144 20 163  3 11 153 64  3 10 153 11  3 161 133 24  3 130 129 162  3 162 129 166  3 167 105 144  3 119 168 95  3 105 10 117  3 79 162 36  3 37 36 162  3 123 148 121  3 140 141 0  3 137 20 2  3 117 144 105  3 118 144 117  3 20 118 22  3 106 169 38  3 169 168 38  3 119 38 168  3 122 119 95  
