ply
format ascii 1.0
comment bbox -21.789573  -7.585519 0.014617  1.825523 0.024912  2.481864 
element vertex 256
property double x
property double y
property double z
element face 200
property list uchar int vertex_index
end_header
-21.533535003650002 0.1958943977955 0.55708655714999999  -21.437990188600001 0.19201759994000001 0.67899239063299999  -21.463876724199999 0.333387702703 0.43344679474800002  -21.348831176800001 0.25229269266100002 0.675092816353  -14.8975830078 1.5530102253 0.110385201871  -14.805872440350001 1.4718794226649998 0.20871654897899999  -14.877387046799999 1.5833909511599999 0.055992398410999997  -12.1403989792 0.61594581603999998 0.30925801396399999  -12.334633827200001 0.72961938381199998 0.20901585370300002  -12.110180854799999 0.64736661314949995 0.26001045852900001  -12.631548563633332 0.87377915779766668 0.1122426316144  -12.780605951933333 0.82156856854766669 0.26424883802733334  -19.110057830799999 1.36499869823 0.475341498852  -19.284479141199999 1.33941185474 0.37917450070399999  -19.090698242199998 1.40658426285 0.36726769804999998  -20.2077817917 0.50310884416099999 1.722132503985  -20.115073521933336 0.66310397783933339 1.3865981101966665  -20.359045982350001 0.5325662493704999 1.53785032034  -20.411472320600001 0.45361828803999998 1.7194180488599999  -20.8791599274 0.247814595699 1.8574335575100001  -20.586069107099998 0.41473460197399997 1.6152243614199999  -20.678949991866666 0.30507160226533331 1.8924878835666668  -16.489845275850001 0.1909537538885 2.3068470954900002  -16.318225860599998 0.13599540293199999 2.34166717529  -16.490264892599999 0.069636203348600004 2.4413392543799999  -18.766401290899999 0.42071385681599999 1.9595648050300001  -18.801681518599999 0.21961709857 2.17600440979  -18.452997207633334 0.37493982911133328 2.0098718404799998  -18.902254104600001 0.47264128923400001 1.9166162014000001  -18.508627891549999 0.8103817999359999 1.5617877244949998  -18.355090141299996 0.66496862471075002 1.72114470601  -18.167406082166668 0.78364928563433323 1.6136774619433334  -18.755394458775001 0.55295644700499991 1.8260034620775001  -19.072175979649998 0.54598784446749993 1.827832996845  -18.687486648566665 0.72128077348099995 1.6498220364233334  -21.265081405650001 0.14071904867899998 1.1514104008700001  -21.074868520100001 0.22618537147833337 1.3507179419199999  -21.247514724749998 0.107705850154 1.5471697449650001  -19.596847534199998 0.61334699392299996 1.7038474082899999  -19.422969182333336 0.66292591889716668 1.6536597609516666  -19.657629013099999 0.50850009918200001 1.8491178750999999  -19.045557022099999 0.87191215157499991 1.431608617305  -12.401878674833334 0.14344283193333332 0.96774901946433334  -12.201976140333334 0.29591070612266662 0.70777151981999997  -12.366352081300001 0.286284208298 0.79378065466900005  -12.191625118249998 0.1875131502745 0.80842158198399994  -19.375375111900002 0.5068891743816667 1.8633025884666667  -19.041000366200002 0.76577296853049992 1.5666530728349999  -14.381162643440002 0.77731111049660007 1.0122481465341999  -14.2767906189 0.996471405029 0.69691461324699999  -14.396588706959999 0.49071729183200008 1.4057248353959999  -11.88230895995 0.69519174098999992 0.1382280513645  -14.620186010999999 0.62134382128733334 1.3016273975383335  -14.54562034608 0.86130907535539991 0.95343658924239993  -16.236474513975001 1.3932988643650002 0.71030539274250004  -15.967722892766666 1.4642051060999999 0.54383187492666663  -15.78085899355 1.4444301128400001 0.53601258993150003  -21.379980087299998 0.044712301343700002 1.3764085769650001  -15.870420319700003 0.70063285316742863 1.5611943347114285  -15.74856395722 0.51074504852300007 1.7656629800819998  -15.480656146999999 0.44865635037416657 1.7768737077716665  -11.9216279984 0.59975802898399999 0.28495460748700002  -12.1656279564 0.53540149331050002 0.42729134857649997  -14.718302726699999 1.33350718021 0.38147169351600002  -14.936907291424999 1.3562378883375001 0.41744157671925003  -15.081187248199999 1.46309792995 0.31778788566600003  -12.6243810654 0.225231602788 0.99936610460300002  -12.5572543144 0.33128196001050003 0.83497142791750001  -21.789572715749998 0.21145565062749999 0.26505785435449997  -21.621573448150002 0.41371004283449997 0.19501440227049999  -21.755064010600002 0.39352580905000001 0.098432399332500004  -11.0307226181 0.52919238805799995 0.096340298652600007  -11.0983476639 0.49397629499399998 0.15600199997399999  -11.0126066208 0.58003157377199999 0.024912299588300001  -21.59103679655 0.34544505178950002 0.30368299782300001  -21.470415115400002 0.040706399828199999 0.967237174511  -21.343685150100001 0.18858240544800001 0.81533592939400001  -21.4099502563 0.139168694615 0.81606090068799997  -10.4481401443 0.26302230358099998 0.14864109456499999  -10.197145462 0.227234601974 0.12693050503700001  -10.2556505203 0.19352710246999999 0.18028870224999999  -10.337758064300001 0.17825649678700001 0.21357659995600001  -15.565981388099999 1.6352792382249999 0.19566830247650002  -15.7974596024 1.7440565824500001 0.066147901117800001  -15.800050735499999 1.6818486452100001 0.162922993302  -15.557824134800001 1.7262332439400001 0.047955501824599997  -11.91875219345 0.49794489145249998 0.41127604246150001  -12.239444732700001 0.44949969649299998 0.55526930093799998  -14.0412988663 1.3199908733400001 0.155283197761  -14.041637420700001 1.39060544968 0.047687698155599999  -14.067134221366667 1.2272495031333335 0.31144564350433335  -12.879365921 0.22246380150299999 1.14361846447  -13.115208625800001 0.16096614673749998 1.3307287097  -12.9370880127 0.14856714755299999 1.2658868432050001  -13.166040420533333 0.33145849903433328 1.1260266304000002  -12.5617227554 0.163808301091 1.0357055664099999  -20.0040302277 0.55329018831300003 1.7253762483599999  -20.083281517050001 0.45739455521100003 1.8806865215299999  -21.28765010835 0.393617749214 0.5042462944985  -21.289325714099999 0.068056702613799994 1.7964701652499999  -21.054831822699999 0.18490333358433333 1.7367960214633333  -20.553087234500001 0.59264400601349998 0.96036440134049994  -20.698621749899999 0.59412837028499998 0.70868760347399995  -20.818729400599999 0.42845439910900002 1.0323580503500001  -20.875708897900001 0.42670478423433328 0.91450786590600008  -21.25334262845 0.19465314596900002 0.96509653329849998  -19.205277442899998 0.93934360146500007 1.2971631288499998  -19.787453333533332 0.58249918619800001 1.7226781447733337  -19.679268836999999 0.77643847465499993 1.4124177098299999  -19.096294403066668 0.24775936206166663 2.15828673045  -19.386587142949999 0.26944822072975005 2.1503327488900004  -19.01938533785 0.369380652905 2.0201072096849999  -19.943731308 0.63840472698200001 1.56651473045  -14.495142221449999 0.32274492084975004 1.6596820056424999  -14.28108119965 0.19004819542199999 1.760992228985  -18.6663894653 1.551165282725 0.28222295641899997  -18.464752197300001 1.5536776781099999 0.400063186884  -18.577671050999999 1.61787438393 0.145921394229  -17.593640645366666 0.3745527962843333 2.0828507741299997  -17.677865982099998 0.18495109677300001 2.2644135952000002  -17.8202056885 0.21848905086500001 2.2110378742250001  -18.466008186349999 0.187399543822 2.2032256126399998  -18.6759166718 0.12550680339299999 2.2699103355400001  -19.605577468900002 0.31443819403599998 2.1098241806  -19.5452690125 0.36215808987600001 2.04325532913  -19.224108696000002 0.41145154833800002 1.9759755730649999  -18.2564325333 0.15335705131299998 2.24320316315  -18.501237869299999 0.082846097648099998 2.3187727928199999  -19.5920934677 0.26146149635299998 2.173972606655  -16.162402470900002 0.61323843399699995 1.7566032012333335  -16.012990951550002 0.46122641116375002 1.8955068588250001  -18.172941207899999 0.069485299289199998 2.3419966697699999  -20.034523646033335 0.32685486475633335 2.1005462805433335  -17.9403591156 0.39691844582550001 2.02197098732  -18.498175621050002 0.50375080108649994 1.8777250647549999  -18.866632461550001 0.051359249278899996 2.365148305895  -18.526134491000001 1.4685431718799999 0.56089109182399999  -18.700416564899999 1.47160494328 0.48546019196500001  -18.584884643599999 1.49534654617 0.47311180829999999  -14.4074983597 1.4528601169599999 0.093789398670200003  -14.589840889 1.51733565331 0.061881098896300002  -14.299832820900001 1.34399664402 0.22382830083400002  -20.27148151395 0.283861398697 2.1523643732050002  -20.342599868800001 0.34343960881199997 2.02647423744  -20.500199317949999 0.30938699841499995 2.035117149355  -20.297746658299999 0.38339421153100001 1.96539711952  -20.590816497799999 0.21415320038800001 2.2050898075099998  -16.912269592299999 0.168558895588 2.34744668007  -16.773061752299999 0.18102799355999999 2.3310587406200001  -16.851066589399998 0.29656350612600002 2.2159626483900001  -12.498931884799999 0.0227921996266 1.1647732257800001  -12.59569501875 0.046943001449100005 1.196601748465  -19.756076431259999 0.96425287723560005 0.89812698364279997  -20.1116542816 0.82551463444999984 0.88502665360800004  -19.730366230000001 1.0484673231842501 0.68986551463599999  -12.944802602099998 0.63089283307400013 0.62269473075866666  -12.571684360500001 0.48411052674025001 0.65426337718975003  -12.752755800899999 0.44592737158133328 0.78513399759933333  -12.66020851136 0.64224630594260002 0.47747318148619994  -8.4221267700200002 0.087509900331499996 0.37493398785600002  -8.5189847946199997 0.095939598977600002 0.34304040670399999  -8.3564109802199997 0.204329505563 0.225221604109  -8.1787152290349994 0.22402414679550001 0.27214744687100001  -7.9267570972449999 0.18526300042900001 0.37498711049549999  -7.5855193138099999 0.0146166998893 0.41836050152799997  -17.445336341850002 1.64505970478 0.4443881958725  -17.19340991975 1.71332281828 0.31016729772100005  -17.053607940700001 1.6848596334499999 0.37028101086600002  -18.935808181799999 1.37832474709 0.56258988380399999  -18.8746871948 1.4577349424399999 0.39775121211999998  -20.665321350100001 0.76820710301399997 0.35108704864950002  -20.6922645569 0.85612118244199997 0.153093695641  -20.341468810999999 0.91096019744900003 0.34823718666999998  -18.987007141100001 1.4768717289 0.25680631399199999  -18.813484191899999 1.53436326981 0.230589002371  -18.4031963348 1.62559902668 0.229329794645  -18.330209732099998 1.6905672550199999 0.11912330240000001  -18.228801727299999 1.6362178325700001 0.31482818722700001  -18.341598510699999 1.70381522179 0.062865197658500002  -8.1753279368099996 0.085135335723566671 0.45241410533600002  -15.8636665344 1.5977119207399999 0.32692301273300001  -15.827994346600001 1.6383327245699999 0.24687099456799999  -17.552557945250001 1.7790378928199999 0.18113914877199999  -17.700523376500001 1.7855557203300001 0.147890999913  -17.811149597149999 1.70130097866 0.3087593466045  -15.02290153505 1.565158307555 0.13916879892350001  -16.330476760900002 1.7782368660000001 0.111892603338  -16.379014015199999 1.7290298938749999 0.21117760241049999  -16.334787368800001 1.82552325726 0.0333212986588  -8.6319977442433338 0.20816416541733332 0.081913332144366677  -8.6076107025099997 0.097956702113199998 0.30052161216700002  -16.006846904749999 1.702036857605 0.17677130177600001  -16.0154709816 1.6314596533749999 0.294378995895  -16.156835556000001 1.7776557207100001 0.076408803462999997  -16.227893829350002 1.667650401595 0.27870674431300002  -14.465384801233332 1.1243133544933333 0.58466597398133335  -15.020291805299999 1.1957865357399999 0.66488766670200006  -14.336217562366665 1.1940115690233333 0.4531885385513334  -14.224896430999999 1.3900859355899999 0.12711550295400001  -13.81568193435 1.223418712615 0.20580774545649999  -15.192756970733333 1.3180319865533334 0.55536185701700003  -11.6603221893 0.61138734221449997 0.2127258479595  -12.362445831300001 0.62511879205700005 0.37160688638700001  -12.992449283599999 0.76539555191999997 0.46111139655099997  -12.937299728399999 0.85729831457133321 0.29580109318066666  -12.176943779 0.12884759903000001 0.86527377367000002  -11.9222211838 0.15818910300700001 0.73846101760899996  -12.726154645266666 0.16726709902266665 1.13282219569  -14.389842033400001 0.96701857447549999 0.76714810728999994  -14.83642339705 1.06773144007 0.77260369062449996  -14.7657896678 0.84528493881233324 1.0437605778366665  -14.897158861174999 0.98098829388525 0.91136354207999992  -13.8744363785 1.3142782449699999 0.085244797170200004  -12.845545768699999 0.97225609421899994 0.072015452198550003  -15.0903491974 1.10257875919 0.81240212917300003  -16.510967254650001 1.2856906652475 0.94001458585425013  -16.408584594699999 1.4188764095299999 0.713674902916  -16.336906433099998 1.5255643725399999 0.53171131014850004  -15.685726801566666 0.31853010257100006 1.9835237662000003  -11.9863710403 0.489709794521 0.43555751442899998  -11.7975482941 0.42066350579299999 0.46685579419099998  -13.360175132766665 0.24362853169466667 1.3350487550066665  -13.180139064799999 0.11121005192399999 1.4319503903349999  -14.205249547974999 0.36455780267725002 1.5017616450775  -16.005236625666665 0.27836953600266662 2.1058293978366667  -15.672797203049999 0.10945177264502499 2.2315176129325001  -16.2497444153 0.17078720033200001 2.28776931763  -16.207015991199999 0.16933320462699999 2.28517889977  -16.256420135500001 0.25198480486899999 2.2014479637100002  -14.95942249298 0.80340920686739992 1.1632391452799999  -14.917634963999999 0.66696149110799996 1.3333126306500001  -13.618952910099999 0.41835543016616666 1.20674431324  -13.61408424375 0.61069835722449994 0.954932406545  -13.782765865350001 0.33534315228450001 1.3888479471199999  -12.0959458351 0.3900890946385 0.57238060235999999  -14.093123054500001 0.48203258514399999 1.308252573014  -14.270201683 0.088565103709699999 1.8979938030200001  -15.3197827339 0.37581279873850004 1.8297691345199998  -14.7088476817 0.27089773615199997 1.7966603835433332  -14.618193626450001 0.062195148318999999 2.0420513153100002  -14.687789917 0.094667598605200007 2.0206549167599999  -16.3800258636 0.0200011990964 2.4818637371099999  -16.6739234924 0.24716019630399999 2.2605199813799999  -16.741622924800001 0.21660700440399999 2.29329895973  -16.735250473000001 0.121837101877 2.3940110206599998  -14.9039545059 0.101893298328 2.0695233344999999  -14.702432632400001 0.0434793010354 2.0940549373600001  -11.974657535550001 0.22875130176500003 0.68880209326749997  -11.825971603399999 0.23958610743300002 0.63106447458250003  -14.948832511899999 0.16918140649800001 1.99440181255  -15.404213905333334 0.183788701892 2.0828390121466667  -15.233333587600001 0.151705801487 2.08634591103  -15.296159744300001 0.045358899980799998 2.2343542575800002  -14.444334030166667 0.10118249803796668 1.9349577426933333  -14.562378883399999 0.16427989304099999 1.8894908428199999  -12.382480939266665 0.53081748882933333 0.51026873787233329  3 0 1 2  3 1 3 2  3 4 5 6  3 7 9 8  3 8 10 11  3 13 12 14  3 16 17 15  3 17 18 15  3 20 19 21  3 23 22 24  3 25 26 27  3 26 25 28  3 29 30 31  3 33 32 34  3 37 36 35  3 40 39 38  3 38 39 41  3 42 43 44  3 45 43 42  3 40 46 39  3 39 46 47  3 49 48 50  3 10 8 51  3 52 48 53  3 54 56 55  3 35 57 37  3 58 59 60  3 7 62 61  3 5 64 63  3 64 5 65  3 66 44 67  3 69 70 68  3 71 73 72  3 2 74 0  3 75 76 77  3 79 78 80  3 80 78 81  3 84 82 83  3 82 85 83  3 76 3 1  3 62 86 61  3 44 87 67  3 9 61 51  3 8 9 51  3 90 88 89  3 91 92 93  3 94 92 91  3 42 44 95  3 96 15 97  3 3 98 2  3 1 77 76  3 36 37 99  3 99 100 36  3 101 102 103  3 102 104 103  3 75 105 76  3 41 106 38  3 108 107 106  3 106 107 38  3 111 110 109  3 107 108 112  3 114 50 113  3 115 116 117  3 39 47 41  3 118 120 119  3 26 122 121  3 123 110 124  3 33 125 28  3 126 121 127  3 125 111 28  3 110 123 128  3 26 28 111  3 59 129 130  3 129 59 58  3 126 127 131  3 132 40 107  3 122 127 121  3 118 133 120  3 134 30 32  3 26 135 122  3 137 136 138  3 139 140 141  3 17 20 21  3 142 132 97  3 145 144 143  3 143 144 146  3 132 107 97  3 147 148 149  3 125 110 111  3 111 109 26  3 150 42 151  3 136 116 138  3 15 145 97  3 154 153 152  3 156 155 157  3 155 156 158  3 161 160 159  3 162 163 164  3 138 115 137  3 66 95 44  3 166 165 167  3 168 169 12  3 12 169 14  3 170 172 171  3 173 169 174  3 176 175 177  3 175 176 178  3 161 179 162  3 116 115 138  3 180 82 181  3 183 184 182  3 5 4 185  3 187 186 188  3 82 84 181  3 161 189 160  3 189 190 160  3 117 116 175  3 116 177 175  3 6 5 140  3 191 180 181  3 191 192 180  3 186 187 193  3 194 180 192  3 63 196 195  3 197 63 195  3 141 198 139  3 90 199 88  3 64 200 63  3 65 200 64  3 61 86 201  3 202 8 158  3 158 204 203  3 45 205 206  3 51 61 201  3 157 91 67  3 7 61 9  3 67 91 207  3 53 208 209  3 8 11 158  3 52 53 210  3 210 53 211  3 212 88 199  3 11 10 204  3 204 10 213  3 87 44 43  3 214 209 196  3 54 216 215  3 55 216 54  3 216 55 217  3 217 55 180  3 54 215 56  3 53 209 211  3 55 56 180  3 60 130 218  3 195 196 209  3 219 220 86  3 211 209 214  3 195 209 208  3 195 208 49  3 221 222 92  3 223 50 114  3 224 225 218  3 23 227 226  3 226 227 228  3 228 23 226  3 53 48 208  3 48 49 208  3 229 210 211  3 52 210 230  3 210 229 230  3 233 231 232  3 158 11 204  3 219 234 220  3 231 221 232  3 66 67 207  3 50 223 235  3 235 223 236  3 52 50 48  3 60 218 237  3 59 130 60  3 223 114 236  3 238 240 239  3 23 24 241  3 224 218 130  3 244 242 243  3 240 245 246  3 248 247 206  3 234 248 220  3 240 238 249  3 240 249 245  3 251 250 252  3 237 218 251  3 218 250 251  3 87 156 67  3 114 113 253  3 113 254 253  3 156 87 255  3 247 45 206  3 95 151 42  3 219 86 62  
