ply
format ascii 1.0
comment bbox -32.642258  -25.053507 6.623643  19.040575 -26.062549  -25.000504 
element vertex 438
property double x
property double y
property double z
element face 691
property list uchar int vertex_index
end_header
-32.320991516100001 13.384016037 -25.592765808100001  -32.251756668100001 13.4310359955 -25.660527229300001  -31.9228172302 13.684841155999999 -25.796575546300001  -29.5576305389 15.4809598923 -25.904548644999998  -29.673877716100002 15.426325798000001 -25.856790542599999  -29.609691619900001 15.407039642299999 -25.935720443699999  -29.580118179300001 15.515079975100001 -25.806020736699999  -30.3173713684 14.950476169550001 -25.5661458969  -30.3742594719 14.922440528875001 -25.437362670900001  -30.226530075100001 15.0428781509 -25.410903930700002  -25.467632293699999 18.74936389925 -25.580229759249999  -25.613903045699999 18.649488449100001 -25.546773910500001  -25.548746109 18.6354064941 -25.6283512115  -31.67619228365 13.16319561005 -26.000014305099999  -31.226312717718937 13.251566072925705 -25.88481068552138  -31.643411444139687 13.012843503565627 -25.369176688637445  -31.207239151 14.02482366565 -26.062548637399999  -30.069908142099997 14.9576654434 -25.978837013250001  -29.863798141499998 15.1049203873 -25.976835250899999  -26.791900634800001 17.717338561999998 -25.515302658100001  -26.6943178177 17.810714721700002 -25.463358879099999  -26.771633148199999 17.771741867100001 -25.394968032800001  -30.170634746574997 15.072156190874999 -25.540074348450002  -30.250764846799999 15.001838684100001 -25.6355361938  -25.671735763499999 18.577644348100002 -25.5796947479  -25.659502029399999 18.642824173000001 -25.460800170900001  -29.234682083100001 15.841437339800001 -25.619049072300001  -29.319037437424999 15.779756307574999 -25.505889892574999  -29.297410965000001 15.781598091099999 -25.653072357199999  -29.412100474033334 15.710439682000001 -25.222040812166664  -29.55243587495 15.601063251499999 -25.208305358849998  -29.417378425599999 15.701941490199999 -25.347984313950001  -29.4700050354 15.672036170950001 -25.1112823486  -29.3257160187 15.668147087099999 -25.8871746063  -29.234837532050001 15.761961936950001 -25.837170600900002  -29.3170318604 15.732355117799999 -25.7715911865  -31.220728874199999 14.263808727299999 -25.311615943900001  -31.386471748349997 14.136149406449999 -25.29543972015  -31.332133769999999 14.169904947275 -25.424729347224996  -29.255445480300001 15.7935762405 -25.7379436493  -29.195705413799999 15.857470512400001 -25.704748153699999  -26.754295349149999 17.587167739850003 -25.727690696700002  -26.892730077099998 17.403987248733333 -25.808352788266671  -26.950950622600001 17.549594879200001 -25.706457138099999  -32.147740373588285 12.552473390613631 -25.631893199885869  -32.460388183600003 13.291365623500001 -25.457374572799999  -32.421070098900003 13.309766769399999 -25.541986465499999  -29.82802867885 15.35978221895 -25.409328460650002  -29.865490913400002 15.340825080849999 -25.322958946250001  -29.716373443625002 15.461832523375 -25.296170711499997  -25.374240875200002 18.8747329712 -25.3163337708  -25.4142055511 18.838035583500002 -25.441965103099999  -25.3408679962 18.894155502299999 -25.405429840099998  -25.448913574199999 18.8199615479 -25.353277206400001  -31.054081916800001 12.6198835373 -25.991465568549998  -31.156311035150001 12.950249671950001 -26.001009941100001  -31.146397272766666 13.2963809967 -26.011793136600001  -30.935230255099999 13.9060554504 -26.060226440400001  -31.369714736950002 13.89382553105 -26.045167923000001  -29.381639480600001 15.6754703522 -25.805986404399999  -29.358972549400001 15.7203207016 -25.686771392800001  -29.421396255499999 15.660395622299999 -25.720674514799999  -29.574469566349997 15.550278663649999 -25.538650512700002  -29.479647159574998 15.638566970825002 -25.487246036549998  -29.458868026699999 15.6420707703 -25.634666442899999  -31.138383865350001 14.296490669250002 -25.689957618699999  -31.071661631233336 14.347627639766666 -25.7588189443  -31.228956222566666 14.209186871833333 -25.809403101599997  -30.365607261649998 14.9480161667 -25.273146629350002  -30.270111084 15.0332479477 -25.2211360931  -30.402668952950002 14.92783260345 -25.1866350174  -29.096274375949999 15.940282344850001 -25.652398109449997  -29.103427886999999 15.9537668228 -25.549425125100001  -28.897830327333327 16.106400171933334 -25.5826059977  -30.711981455499998 14.634788195299999 -25.671472549433332  -30.8120803833 14.558318138100001 -25.619997024500002  -30.740854263300001 14.6032953262 -25.791973114000001  -30.011354446399999 15.096456527699999 -25.937084198000001  -29.956457138099999 15.165823936500001 -25.905218124400001  -30.838871002199998 14.547290484100001 -25.493670781466665  -30.913526534999999 14.4840173721 -25.568895340000001  -28.541518211350002 16.396405220049999 -25.3085346222  -28.392119725533334 16.522576014200002 -25.282173156733332  -28.427320480333332 16.490948359200001 -25.405907313  -31.152666727699998 14.313443819699998 -25.380554835000002  -31.179900487266668 14.2808828354 -25.501232783033334  -29.224023818999999 15.597805023199999 -25.957208633400001  -28.740452766400001 16.02492666245 -25.909141540549999  -29.153079986599998 15.7194247246 -25.912116050750001  -31.001792907700001 14.393624305749999 -25.826759338400002  -31.093357086200001 14.306322097800001 -25.877040863000001  -31.873321533199999 13.4519395828 -26.006317138699998  -31.697158813450002 13.637627124800002 -26.011336326600002  -31.8553333282 13.5805425644 -25.984706878699999  -31.523025512699999 13.826909065200001 -26.016901016199999  -31.5372810364 13.693200111399999 -26.0377368927  -25.372844696000001 18.849096298199999 -25.5290317535  -25.304365158100001 18.9102516174 -25.493680953999998  -31.005761464433334 14.420580546066667 -25.477568944266665  -31.004929542550002 14.430432796449999 -25.353692054749999  -30.867569605499998 14.539076805133334 -25.367598215733334  -32.025718689000001 13.4656181335 -25.969964981099999  -32.053195953399999 13.352686882 -25.9941043854  -29.1007213593 15.9654893875 -25.126924514799999  -29.168991088849999 15.915817737600001 -25.0569009781  -29.119544029250001 15.948762893649999 -25.294971466050001  -29.033675193800001 16.016760349249999 -25.197214126600002  -31.316345214799998 14.0416097641 -26.005216598499999  -31.4332447052 13.9936599731 -25.958734512300001  -31.377517700199999 14.0595092773 -25.926700592  -31.263248443599998 14.111868858299999 -25.973903656000001  -31.012233734150001 14.33461761475 -25.941841125499998  -29.8482952118 15.3107261658 -25.633134841899999  -29.91136741635 15.25102806095 -25.771695137000002  -29.840826034500001 15.296415329 -25.839960098300001  -31.4831848145 13.9185190201 -25.9891853333  -29.706564426425 15.443496704099999 -25.503807544699999  -29.747995376566667 15.388110160833333 -25.684988021866662  -28.620576858500002 16.3025798798 -25.7195549011  -28.564443588300001 16.2957038879 -25.801181793200001  -28.684022903399999 16.242559433 -25.753658294699999  -26.995898246749999 17.589515686049999 -25.457780838000001  -26.907737731899999 17.654449462900001 -25.4657611847  -26.913185119600001 17.669739723200003 -25.361105918850001  -30.314601898199999 14.945810317999999 -25.669918060299999  -30.2793331146 14.9682226181 -25.756158828699999  -30.2157478333 15.024559974700001 -25.7219219208  -30.495470047000001 14.83884334565 -25.343157768250002  -31.599847793599999 13.8707532883 -25.942762374899999  -31.6533908844 13.8016901016 -25.9741897583  -31.711591720600001 13.8153076172 -25.895107269299999  -31.7663230896 13.7483682632 -25.926872253399999  -31.5442352295 13.936515808099999 -25.910757064799999  -31.610507965050001 13.922334671 -25.786128997799999  -31.652999877900001 13.8760080338 -25.862251281700001  -31.454411506650001 14.0250287056 -25.860948562650002  -31.272634506199999 14.1974496841 -25.656566619900001  -31.372657140099999 14.121761321999998 -25.605304718033334  -28.825791358949999 16.070832252499997 -25.834676742550002  -28.743324279799999 16.177232742299999 -25.7867145538  -28.853590011600001 16.112247467 -25.7370014191  -26.3219051361 18.119380950899998 -25.4814434052  -26.409465789800002 18.013830184900002 -25.53099250795  -26.3652706146 18.110111236600002 -25.395233154300001  -29.302652359 15.8054509163 -25.128106117249999  -29.3692760468 15.753460884100001 -25.057697296099999  -29.303222656199999 15.809556007399999 -25.022256851200002  -29.967712402350003 15.2656497955 -25.271411895749999  -30.1015625 15.1614723206 -25.237154007000001  -30.036916732800002 15.217509269700001 -25.2021961212  -27.239446640000001 17.199785232499998 -25.8701515198  -28.476222991966665 16.247017542533332 -25.875148773199999  -28.109471321100003 16.624206542949999 -25.77896595  -30.105718612700002 15.1687436104 -25.132799148549999  -29.871145248400001 15.3507223129 -25.219150543200001  -25.930952072149999 18.332173347450002 -25.611534118649999  -26.1687326431 18.131789207499999 -25.628694534299999  -25.785988807700001 18.365556716899999 -25.65518188475  -25.444620132400001 18.580186843900002 -25.701513290400001  -25.394646644550001 18.727218627950002 -25.6601905823  -25.590850830099999 18.546733856199999 -25.657773971600001  -26.527837753299998 17.875204086300002 -25.597396850599999  -26.644819259649999 17.8130979538 -25.547938346900001  -26.643667221099999 17.734025001500001 -25.663163185149998  -27.259010314899999 17.377752304099999 -25.644884109500001  -27.225290298499999 17.415079116800001 -25.5218353271  -27.32598495485 17.327203750599999 -25.574468612650001  -31.546920140566669 14.003665288266665 -25.382655461599999  -31.423749923700001 14.11518096925 -25.209386825549998  -31.348790645599998 14.126151800175 -25.750602245299998  -26.402894973750001 17.928579330449999 -25.645120620699998  -26.3240756989 18.0439090729 -25.597629547099999  -27.322666168200001 17.237960815400001 -25.793855667100001  -27.2762432098 17.3209972382 -25.763761520399999  -27.3217449188 17.314107894900001 -25.678833007800002  -30.073756535833336 15.169373194366665 -25.36413002016667  -30.231555302933334 15.051130930600001 -25.307195663466668  -29.65383815765 15.52404546735 -25.156287193300003  -29.471817016599999 15.677436828599999 -25.005796432499999  -29.553736686699999 15.554173469550001 -25.685901641850002  -30.716850280733336 14.641357103966667 -25.533543268866666  -29.944828033450001 15.2675871849 -25.4186420441  -28.936495780950001 16.044792175250002 -25.728232383749997  -28.997680664050002 15.982392787950001 -25.761783599849998  -30.045889536499999 15.177075703933333 -25.490804036466667  -29.983118057250003 15.2087469101 -25.599177360550001  -29.9135303497 15.2557439804 -25.6678619385  -27.395690918 17.279779434200002 -25.504659652699999  -27.423936843899998 17.210672378533332 -25.664660135900004  -26.804582595833335 17.654374440499996 -25.633656183866666  -29.116157531749998 15.890894413 -25.771067619349999  -29.054277420049999 15.875758171099999 -25.8509645462  -30.1592502594 15.01476049425 -25.9065990448  -28.552566528300002 16.3568172455 -25.6842918396  -28.662309646600001 16.290588378900001 -25.634328842199999  -28.593080520600001 16.343244552600002 -25.598672866800001  -31.459642887125003 14.062555789975001 -25.494017124174999  -31.4824810028 14.027040958400001 -25.717182159449997  -26.551021575899998 17.9111194611 -25.496932983400001  -30.89303684235 14.38044595715 -25.9879961014  -31.1431922913 14.155417442299999 -26.019687652599998  -25.317472457899999 18.845516204799999 -25.6129207611  -30.014256477349999 15.17786979675 -25.720663070649998  -29.77097797395 15.431182384500001 -25.165797233599999  -27.733436584450001 16.999869346600001 -25.575282096899997  -27.858378410349999 16.873563766450001 -25.643156051649999  -27.706470489499999 16.959615707400001 -25.674028396600001  -26.294434547450003 17.864812850950003 -25.716523170449999  -26.513324737550001 17.78090953825 -25.709649085999999  -26.2145423889 18.192840576199998 -25.533269882199999  -26.122151374799998 18.254427909850001 -25.540493965149999  -29.649618148799998 15.4680700302 -25.737356185900001  -29.7468509674 15.38436746595 -25.78910160065  -31.546668052649999 13.974852085149999 -25.751717567450001  -29.186754226650002 15.8942642212 -25.330460548399998  -29.302982330299997 15.79923295975 -25.339475631749998  -26.932302475 17.605390548700001 -25.5869159698  -26.231281280499999 17.998085022000001 -25.672523498499999  -25.749904632549999 18.578060150150002 -25.453010559100001  -25.823913574199999 18.484663963350002 -25.547676086399999  -26.1582164764 18.2867603302 -25.2882404327  -26.264339447000001 18.211450576800001 -25.235973358199999  -26.212149620049999 18.260537147499999 -25.155694007849998  -32.113544464100002 13.5251779556 -25.795984268200002  -32.183082580600001 13.478863716099999 -25.728412628200001  -28.470777511599998 16.38812446595 -25.7504310608  -29.8144054413 11.3909082413 -25.964014053300001  -29.323280334499998 11.071004867549998 -25.95572090145  -30.145910263049998 15.070979118349999 -25.79027366635  -30.239772796600001 14.9841957092 -25.841135025  -26.8625106812 17.661727905300001 -25.551221847499999  -29.4857349396 15.6033067703 -25.7550487518  -29.442367553699999 15.613384246800001 -25.8393764496  -28.354015350299999 16.527923584 -25.579710006700001  -28.3427619934 16.5078468323 -25.681924819949998  -28.247230529799999 16.5986785889 -25.630607605000002  -25.053506851200002 18.944505691500002 -25.706926345799999  -25.080152511600001 18.8397483826 -25.733169555700002  -25.216022491449998 18.8602809906 -25.676653861950001  -26.489219665499999 17.9774570465 -25.463077545200001  -27.590534210200001 17.097467422499999 -25.608367919900001  -27.649539947499999 17.029767990100002 -25.641454696699999  -29.572741985299999 15.570879220975 -25.352116584774997  -27.204517364499999 17.296665191700001 -25.8426437378  -28.425552368150001 16.4831132889 -25.510815620399999  -28.543569564849999 16.3886260986 -25.519947051999999  -26.269477844200001 18.118541717500001 -25.565492630000001  -27.120391845699999 17.4899806976 -25.573780059800001  -27.046710332233332 17.541276931766664 -25.537099202466667  -27.080373764000001 17.503335952800001 -25.660209655799999  -30.298995971699998 14.921624183700001 -25.874135971099999  -27.4974489212 17.224377632100001 -25.13387393955  -27.4296417236 17.274528503399999 -25.204591751100001  -27.498252868649999 17.209980010999999 -25.346405029300001  -27.9852333069 16.846839904799999 -25.280387878399999  -27.846221923800002 16.956199646000002 -25.2083320618  -27.931901931799999 16.889583587650002 -25.20002651215  -30.058086395299998 11.363481521600001 -25.9627246857  -30.2798175812 11.682941436749999 -25.969088554400003  -29.729921340899999 15.3582010269 -25.888969421399999  -29.777952194200001 15.27871418 -25.919109344500001  -30.643180847149999 14.682656765000001 -25.739967346150003  -30.562810897799999 14.750584125549999 -25.644684791549999  -30.5711936951 14.725639343299999 -25.807550430300001  -27.499412536600001 17.234439849899999 -25.027881622300001  -27.637111663799999 17.106462478600001 -25.312250137300001  -32.532230377200001 13.242362976100001 -25.285610199000001  -32.642257690400001 13.1718521118 -25.027614593500001  -32.390642632869756 12.385786275020067 -25.235691692630127  -27.637840271000002 17.0926551819 -25.523862838700001  -27.2930212021 17.365281105050002 -25.45143413545  -28.899103164700001 15.952285766599999 -25.880382537799999  -31.010557174699997 14.4043650627 -25.62100219725  -30.9237804413 14.46334695815 -25.732324600200002  -27.150613784800001 17.370908737200001 -25.810806274400001  -30.204250335699999 15.0871114731 -25.1857910156  -31.150127410900001 14.2416143417 -25.909378051800001  -31.092527389499999 14.2297687531 -25.989009857199999  -27.054534912099999 17.464478492750001 -25.7595233917  -32.006523132300003 13.1125488281 -25.997634887699999  -30.039707183849998 15.138944149050001 -25.840330123900003  -31.206480026200001 14.1763563156 -25.941591262799999  -31.8156356812 13.672494888299999 -25.957120895399999  -31.875856399500002 13.6897163391 -25.878704071000001  -31.931161880499999 13.623979568499999 -25.910634994500001  -26.357162475549998 17.662367820749999 -25.7704439163  -30.250151634200002 14.848674297300001 -25.9654579163  -30.633459091199999 14.5927619934 -25.953927993800001  -29.8204421997 15.1912431717 -25.9478569031  -30.375365257299997 14.8850913048 -25.807643890400001  -29.8983020782 15.2305755615 -25.872509002699999  -30.271570205650001 15.036151409149999 -25.116002082850002  -30.717874526949998 12.314678668999999 -25.983124732949999  -30.616825103750003 11.983722209949999 -25.974974632250003  -31.3178024292 14.1190776825 -25.8935661316  -31.587610244775 13.956854820275 -25.563344001750004  -31.859233856199999 13.7368917465 -25.762212753299998  -31.060543060299999 14.3991823196 -25.2244262695  -31.1243133545 14.344378471400001 -25.259227752699999  -31.2632522583 14.2491550446 -25.121809005700001  -29.380773544299998 15.598126411399999 -25.919115066500002  -29.501319885299999 15.548965454099999 -25.8723011017  -29.434438705449999 15.45273208615 -25.959871292149998  -30.926747322050002 14.500972270950001 -25.258199691750001  -30.798359870900001 14.6104941368 -25.188367843599998  -30.472850163766665 14.804622968066667 -25.790107091266666  -29.43349552155 11.414348602299999 -25.963142394999998  -31.982213974 13.551177024799999 -25.9413585663  -31.078886032100002 14.3555431366 -25.552389144900001  -31.174105644200001 14.273648262 -25.60402870175  -31.7256269455 13.834796905499999 -25.795422554049999  -31.819366455099999 13.753585815399999 -25.846427917500002  -32.040470123299997 13.565376281700001 -25.862504959100001  -32.292717391225473 12.466284557051649 -25.393338512585121  -32.494384765600003 13.263570785500001 -25.3709506989  -31.827315854980927 12.886286180764657 -25.126928719774568  -28.817363739000001 10.739979743999999 -25.9469051361  -29.077060699499999 10.722270011899999 -25.946851730300001  -31.716603279099999 13.8805398941 -25.262994766200002  -31.551655769349999 14.00821733475 -25.279200553899997  -31.981266021700002 13.6243925095 -25.829441070600001  -30.967319488499999 14.484287262 -25.067398071300001  -30.9298591614 14.5045747757 -25.153800964399998  -30.834233284 14.587941169700001 -25.101497650150002  -30.775163650499998 14.6143779755 -25.335363388049998  -31.257670402499997 14.24250555035 -25.225425720200001  -30.995332717899998 14.451963424700001 -25.189165115400002  -30.604273796099996 14.736866951 -25.455381393450001  -30.634580612200001 14.6699743271 -25.841693878200001  -30.737798690799998 14.6704902649 -25.048904418900001  -30.601406097400002 14.7699842453 -25.187707901  -29.840873718299999 15.3838500977 -25.096572876  -29.7745685577 15.4383630753 -25.061037063600001  -30.876476287799999 14.504505157500001 -25.654602050800001  -29.619871139499999 15.5022640228 -25.616201400800001  -30.116342544550001 15.103587150599999 -25.669434547400002  -30.483552932724997 14.8208220005 -25.549467563625001  -30.679122924800001 14.6972270012 -25.283196926125001  -26.837682724 17.710687637300001 -25.429891586299998  -30.757104873700001 14.552744865399999 -25.9087848663  -30.696140289300001 14.6117248535 -25.875328064000001  -30.351938247700001 14.8498353958 -25.905485153200001  -30.398765564000001 14.7689399719 -25.935239791899999  -28.016794204699998 16.719287872300001 -25.728435516400001  -28.1333332062 16.660531997700001 -25.679800033599999  -27.906257629400002 16.869481086699999 -25.55895233155  -27.809892654399999 16.960836410500001 -25.507314682000001  -27.9716498057 16.8424377441 -25.450061798099998  -28.0687246323 16.765144348150002 -25.482863426199998  -30.373429298400001 14.960525035850001 -25.0643777847  -28.662776311266668 16.297780354833332 -25.494356791166666  -28.781559944175001 16.208098411550001 -25.433636665325  -27.255937576299999 17.398677825949999 -25.327037811300002  -27.104336261774996 17.5269112587 -25.300524711600001  -27.173285484300003 17.461411476150001 -25.442196846000002  -27.193065643299999 17.4711360931 -25.1865711212  -27.5358362198 17.178074836699999 -25.470802307100001  -27.494202613799999 17.189771652200001 -25.556801795950001  -29.10366630555 15.957953453049999 -25.444421768200002  -28.975478172325001 16.052288055424999 -25.509010314925003  -28.648923873899999 16.191574096700002 -25.849649429300001  -26.578224182100001 17.6497764587 -25.753967285200002  -28.256533622749998 16.616458892849998 -25.527783393850001  -28.259100596099998 16.625685373966665 -25.423066457100003  -28.485284805300001 16.412231445300002 -25.649181366000001  -28.420385360699999 16.470930099499999 -25.6146430969  -28.7965078354 16.184970855700001 -25.5996685028  -28.76030158995 16.204349517799997 -25.686280250549999  -30.550143241900003 14.694057941400001 -25.90590953825  -29.220690727250002 15.864011287699999 -25.453541755700002  -29.168531417800001 15.8967857361 -25.584112167400001  -30.8160686493 14.490847587599999 -25.941690444900001  -30.928768158 14.434661865200001 -25.893806457499998  -30.83859062196667 14.524270375566667 -25.809279123933333  -30.396759033199999 14.87972307205 -25.661315917949999  -29.244750976599999 15.479894638099999 -25.980798721300001  -25.292930603049999 7.0798609256749998 -25.833054542500001  -25.63961092626667 7.5542914072666667 -25.850200017300001  -25.270732879600001 6.6236429214500001 -25.8202648163  -26.969775199899999 17.64559316635 -25.229804039000001  -28.005809783899998 16.782453536999999 -25.611331939700001  -25.725196838399999 18.5011825562 -25.611621856700001  -25.988128662099999 8.0307693481399998 -25.868893623350001  -28.0693817139 16.721172332799998 -25.645528793299999  -27.192157745399999 17.436664581300001 -25.6099319458  -28.182682037399999 16.658361434900002 -25.596153259299999  -27.2176895142 17.389595031700001 -25.730840683  -25.908342361500001 18.452875137300001 -25.480573654200001  -26.059612274149998 18.32055854795 -25.506488800050001  -27.3959341049 17.287978172300001 -25.398992538449999  -27.361318588250001 17.32400703435 -25.275102615350001  -25.870759964000001 18.512735366800001 -25.142417907700001  -25.905809402500001 18.494459152200001 -25.053501129200001  -25.975713729900001 18.435459136999999 -25.089611053500001  -25.943195342999999 18.456529617299999 -25.1790599823  -28.690551757833333 10.370263099666667 -25.937143325799997  -28.4307394028 10.003756046305 -25.92750167845  -26.676948547399999 9.3736553192100001 -25.917736053500001  -27.744400024400001 17.0204238892 -25.4725494385  -27.362863540599999 17.3338298798 -25.169263839700001  -27.397178649899999 17.313201904300001 -25.080749511699999  -26.047243118299999 18.3784332275 -25.126092910800001  -26.010200500500002 18.416442871099999 -25.00050354  -26.085977554300001 18.364009857199999 -25.0381450653  -25.28310489655 18.9396657944 -25.324007034300003  -25.257135391199999 18.915164947499999 -25.5794391632  -25.193426132199999 18.981430053699999 -25.545192718500001  -25.162485122700001 19.028036117599999 -25.421787261999999  -25.234552383400001 18.970209121700002 -25.458003997799999  -26.230844497700001 18.231670379600001 -25.324802398700001  -25.835992813099999 18.531242370600001 -25.231271743800001  -25.732378006000001 18.609849929799999 -25.284360885600002  -25.766042709400001 18.590290069600002 -25.195291519200001  -25.947013855000002 18.438657760600002 -25.393081665  -25.994803428650002 18.38434123995 -25.471937179599998  -26.050563812299998 18.360448837300002 -25.340164184599999  -26.123184204099999 18.3051605225 -25.376659393299999  -26.299161910999999 18.172027587900001 -25.360296249400001  -26.261320114099998 18.1874065399 -25.447874069200001  -25.208401680000001 18.994860649100001 -25.287036895749999  -25.122655868500001 19.040575027500001 -25.509349823000001  -25.9095172882 18.476255416899999 -25.268079757700001  -25.8046646118 18.5533638 -25.320806503299998  -25.8766155243 18.496742248499999 -25.3571434021  -27.604003906199999 17.128690719600002 -25.400581359899999  -27.810005188000002 16.974893569900001 -25.295961380000001  -27.812574386599998 16.971121788049999 -25.40241909025  -27.259431839000001 17.411020278900001 -25.221765518200002  -28.053785324099998 16.797756195049999 -25.2102098465  -27.296379089399998 17.393667221099999 -25.133987426800001  -27.709339141800001 17.054643631000001 -25.3488636017  -27.6739711761 17.074157714799998 -25.4365234375  -26.672826131200001 17.867126464833333 -25.307170867933333  -26.598711013799999 17.906654357899999 -25.411846160900001  -27.0816574097 9.3224782943749993 -25.913043975800001  -27.751147270200001 9.6435394287099996 -25.916617393499997  -27.4871616364 9.2796220779399992 -25.9095535278  -28.0156135559 10.0081186295 -25.9247322083  3 1 0 2  3 4 3 5  3 3 4 6  3 7 8 9  3 10 12 11  3 14 15 13  3 17 18 16  3 19 21 20  3 7 22 23  3 11 24 25  3 28 27 26  3 31 30 29  3 29 30 32  3 34 33 35  3 37 36 38  3 28 40 39  3 41 42 43  3 44 45 46  3 47 48 49  3 50 52 51  3 53 50 51  3 54 15 55  3 55 56 57  3 56 55 14  3 16 57 58  3 59 60 35  3 61 60 59  3 63 64 62  3 67 65 66  3 70 69 68  3 71 72 73  3 75 74 76  3 77 78 18  3 80 79 75  3 81 82 83  3 38 36 84  3 84 85 38  3 86 88 87  3 89 90 67  3 67 66 89  3 91 93 92  3 94 58 95  3 97 96 52  3 98 99 100  3 101 91 102  3 103 105 104  3 105 103 106  3 108 109 107  3 109 110 107  3 89 111 90  3 112 114 113  3 58 94 115  3 116 117 47  3 77 18 17  3 119 120 118  3 122 121 123  3 23 125 124  3 125 23 126  3 68 8 127  3 94 128 115  3 128 94 129  3 129 131 130  3 128 129 130  3 132 134 133  3 135 132 133  3 137 38 136  3 138 140 139  3 132 115 128  3 141 142 143  3 108 115 132  3 146 144 145  3 148 149 147  3 8 68 9  3 112 47 117  3 150 151 152  3 153 154 149  3 155 157 156  3 159 158 12  3 12 158 160  3 161 163 162  3 166 165 164  3 38 167 37  3 37 167 168  3 169 137 136  3 170 142 171  3 173 172 174  3 9 176 175  3 175 148 147  3 30 177 178  3 64 179 62  3 75 79 180  3 180 79 100  3 48 181 147  3 163 19 162  3 19 20 162  3 140 138 182  3 182 138 183  3 181 185 184  3 112 113 186  3 187 174 188  3 166 174 187  3 189 163 41  3 43 189 41  3 99 98 84  3 108 135 109  3 135 108 132  3 40 71 183  3 71 182 183  3 183 191 190  3 192 77 17  3 193 194 195  3 196 137 197  3 198 161 162  3 200 199 16  3 159 10 201  3 10 159 12  3 186 202 185  3 203 48 154  3 205 204 206  3 170 207 208  3 210 155 209  3 6 4 211  3 211 4 212  3 213 196 197  3 209 155 156  3 144 214 215  3 43 216 189  3 217 157 207  3 25 24 218  3 218 24 219  3 142 170 161  3 222 220 221  3 224 2 223  3 225 152 119  3 57 227 226  3 228 229 126  3 229 125 126  3 189 230 19  3 231 61 232  3 233 235 234  3 68 69 176  3 158 236 237  3 238 236 158  3 143 142 239  3 207 170 217  3 241 240 188  3 177 242 49  3 63 62 242  3 170 208 161  3 172 243 150  3 150 152 172  3 244 245 83  3 181 48 47  3 246 209 156  3 249 247 248  3 9 22 7  3 192 250 229  3 251 252 253  3 254 256 255  3 57 257 258  3 260 114 259  3 114 212 259  3 263 261 262  3 264 251 265  3 268 267 266  3 240 241 269  3 269 241 204  3 61 59 232  3 187 270 166  3 270 165 166  3 87 271 138  3 272 273 66  3 243 274 42  3 69 275 176  3 275 148 176  3 152 151 119  3 16 58 107  3 90 111 276  3 111 277 276  3 278 42 274  3 0 1 279  3 5 259 4  3 57 226 257  3 67 90 276  3 192 229 228  3 228 280 192  3 200 16 110  3 110 16 107  3 281 276 277  3 95 129 94  3 282 283 131  3 283 282 284  3 144 29 145  3 57 56 58  3 58 56 95  3 223 101 102  3 134 132 128  3 84 98 85  3 91 279 102  3 54 55 57  3 130 134 128  3 285 158 237  3 274 243 173  3 167 38 196  3 199 287 286  3 124 7 23  3 108 107 58  3 58 115 108  3 5 18 288  3 13 279 91  3 95 13 92  3 92 13 91  3 129 95 92  3 124 125 289  3 288 290 260  3 290 114 260  3 291 69 70  3 54 57 292  3 292 57 293  3 110 109 294  3 167 295 296  3 92 282 131  3 131 129 92  3 279 13 15  3 293 57 258  3 297 298 299  3 301 300 302  3 300 301 232  3 147 181 175  3 169 294 135  3 294 109 135  3 303 304 100  3 263 262 305  3 44 46 0  3 260 259 5  3 260 5 288  3 15 44 279  3 44 0 279  3 306 226 227  3 33 232 59  3 9 68 176  3 1 2 224  3 196 38 137  3 200 110 281  3 65 67 136  3 93 307 284  3 91 307 93  3 309 308 65  3 169 136 67  3 281 277 200  3 93 282 92  3 199 277 111  3 298 297 99  3 45 0 46  3 281 294 67  3 67 276 281  3 17 16 199  3 279 224 102  3 284 282 93  3 101 307 91  3 134 310 133  3 131 311 130  3 311 131 283  3 101 312 307  3 1 224 279  3 314 45 313  3 45 44 313  3 223 312 101  3 181 184 175  3 44 15 315  3 316 317 227  3 227 57 316  3 167 296 318  3 318 319 167  3 56 14 95  3 14 13 95  3 137 169 197  3 2 311 283  3 283 320 2  3 2 296 311  3 312 284 307  3 39 34 35  3 184 9 175  3 9 184 22  3 102 224 223  3 75 180 74  3 196 296 295  3 167 196 295  3 14 55 15  3 321 323 322  3 322 323 303  3 2 0 45  3 266 313 268  3 321 297 299  3 130 310 134  3 288 18 78  3 319 168 167  3 308 66 65  3 272 66 308  3 67 294 169  3 311 310 130  3 40 183 190  3 80 272 98  3 100 324 180  3 37 325 36  3 309 136 85  3 136 38 85  3 36 325 84  3 84 325 298  3 299 298 325  3 284 312 320  3 309 85 308  3 322 303 326  3 308 85 98  3 168 299 325  3 180 262 74  3 262 180 327  3 32 145 29  3 168 325 37  3 263 328 261  3 328 76 261  3 329 330 304  3 2 320 223  3 147 149 154  3 49 116 47  3 265 251 253  3 136 309 65  3 99 303 100  3 99 297 303  3 291 275 69  3 203 331 332  3 148 175 176  3 332 178 177  3 98 272 308  3 64 231 179  3 296 196 213  3 110 294 281  3 135 133 169  3 169 133 213  3 197 169 213  3 310 213 133  3 333 272 80  3 320 283 284  3 310 311 296  3 223 320 312  3 98 79 80  3 79 98 100  3 213 310 296  3 334 179 211  3 73 140 71  3 71 140 182  3 298 99 84  3 335 185 202  3 22 335 23  3 334 62 179  3 321 322 326  3 334 211 117  3 117 116 334  3 112 181 47  3 327 336 262  3 303 297 326  3 337 327 180  3 180 324 337  3 203 154 331  3 185 181 186  3 338 123 21  3 287 339 340  3 341 305 289  3 339 76 340  3 199 286 17  3 327 127 336  3 250 125 229  3 334 116 62  3 28 39 35  3 342 286 287  3 154 48 147  3 290 288 78  3 178 32 30  3 280 202 113  3 343 152 344  3 303 323 304  3 242 30 31  3 203 49 48  3 177 203 332  3 297 321 326  3 127 8 336  3 275 153 148  3 153 149 148  3 29 215 31  3 29 144 215  3 324 100 304  3 345 347 346  3 347 345 348  3 78 77 280  3 62 116 242  3 178 145 32  3 116 49 242  3 63 242 31  3 337 324 304  3 304 323 329  3 330 337 304  3 349 291 70  3 242 177 30  3 203 177 49  3 273 272 333  3 113 202 186  3 350 351 81  3 81 83 350  3 353 354 352  3 352 355 353  3 356 187 357  3 72 358 359  3 87 139 360  3 164 173 174  3 87 138 139  3 191 34 190  3 163 208 361  3 212 4 259  3 249 248 216  3 216 248 122  3 362 233 244  3 244 363 362  3 234 364 365  3 364 234 225  3 244 83 363  3 43 249 216  3 172 188 174  3 205 345 204  3 345 346 204  3 235 152 234  3 152 235 344  3 191 183 271  3 271 183 138  3 350 83 245  3 161 208 163  3 351 194 359  3 233 234 365  3 364 225 193  3 212 117 211  3 184 185 335  3 202 228 335  3 335 228 126  3 214 144 146  3 195 245 244  3 194 366 359  3 194 350 195  3 195 350 245  3 351 359 358  3 186 181 112  3 22 184 335  3 212 114 117  3 114 112 117  3 71 40 72  3 140 367 139  3 139 367 120  3 28 35 60  3 328 263 368  3 215 214 369  3 192 280 77  3 72 370 369  3 31 27 63  3 215 27 31  3 215 369 27  3 231 232 301  3 372 373 371  3 373 339 371  3 243 42 150  3 27 64 63  3 151 87 360  3 290 113 114  3 335 126 23  3 26 40 28  3 250 341 289  3 341 250 286  3 374 124 289  3 302 5 3  3 339 373 76  3 373 273 76  3 273 75 76  3 271 88 191  3 6 231 301  3 280 228 202  3 88 33 34  3 86 33 88  3 301 3 6  3 286 250 192  3 64 61 231  3 333 80 75  3 287 368 342  3 113 290 280  3 280 290 78  3 192 17 286  3 340 76 328  3 342 368 305  3 8 374 336  3 7 374 8  3 374 7 124  3 262 336 374  3 66 273 89  3 89 273 373  3 287 340 328  3 199 371 287  3 300 86 375  3 375 302 300  3 33 86 300  3 289 125 250  3 64 60 61  3 273 333 75  3 211 179 231  3 89 372 111  3 119 118 193  3 263 305 368  3 287 371 339  3 211 231 6  3 372 371 199  3 372 199 111  3 216 230 189  3 341 286 342  3 341 342 305  3 367 73 366  3 367 140 73  3 368 287 328  3 289 305 374  3 305 262 374  3 74 262 261  3 261 76 74  3 366 194 367  3 118 194 193  3 225 234 152  3 151 360 119  3 64 28 60  3 88 271 87  3 190 39 40  3 378 376 377  3 33 59 35  3 27 28 64  3 300 232 33  3 379 123 353  3 353 123 121  3 302 18 5  3 120 360 139  3 301 302 3  3 380 205 343  3 18 375 16  3 375 18 302  3 219 24 381  3 88 34 191  3 40 370 72  3 190 34 39  3 40 26 370  3 382 378 377  3 380 343 383  3 150 87 151  3 365 195 244  3 233 365 244  3 164 165 384  3 385 235 362  3 119 193 225  3 173 164 386  3 72 359 73  3 193 195 364  3 43 42 278  3 243 172 173  3 360 120 119  3 343 172 152  3 195 365 364  3 359 366 73  3 26 369 370  3 235 233 362  3 205 206 343  3 206 172 343  3 385 380 383  3 383 235 385  3 162 20 198  3 209 246 141  3 41 361 42  3 387 155 388  3 174 166 164  3 141 171 142  3 171 141 246  3 172 206 241  3 165 247 384  3 253 390 389  3 238 158 159  3 19 163 189  3 361 41 163  3 216 122 230  3 217 171 246  3 156 217 246  3 391 393 392  3 393 391 394  3 87 150 86  3 240 357 188  3 354 270 352  3 207 285 208  3 285 361 208  3 241 206 204  3 187 188 357  3 395 397 396  3 344 383 343  3 240 269 357  3 398 269 204  3 346 398 204  3 235 383 344  3 380 345 205  3 385 348 380  3 380 348 345  3 338 230 122  3 357 269 356  3 123 338 122  3 241 188 172  3 142 161 198  3 171 217 170  3 160 158 157  3 238 159 201  3 210 388 155  3 207 158 285  3 42 285 150  3 252 400 399  3 402 393 401  3 401 403 402  3 285 42 361  3 404 97 52  3 217 156 157  3 207 157 158  3 160 157 381  3 97 406 405  3 408 407 406  3 221 220 409  3 97 404 408  3 381 157 219  3 155 219 157  3 11 12 24  3 160 24 12  3 160 381 24  3 411 410 412  3 415 413 414  3 219 155 387  3 415 414 416  3 418 141 417  3 417 141 143  3 405 96 97  3 419 407 408  3 408 404 419  3 420 406 407  3 52 96 51  3 338 21 19  3 394 391 410  3 394 410 421  3 410 422 423  3 411 422 410  3 265 253 424  3 410 423 421  3 356 253 389  3 253 252 390  3 400 252 264  3 356 424 253  3 426 255 425  3 121 248 354  3 354 248 247  3 248 121 122  3 121 354 353  3 399 390 252  3 264 252 251  3 338 19 230  3 389 352 270  3 352 389 390  3 427 352 390  3 427 355 352  3 256 254 428  3 426 346 347  3 426 398 346  3 427 390 399  3 399 429 427  3 356 269 424  3 430 264 265  3 269 431 424  3 398 431 269  3 255 430 425  3 425 430 426  3 431 430 265  3 265 424 431  3 165 354 247  3 21 432 20  3 432 433 20  3 57 397 316  3 397 395 316  3 397 434 396  3 435 434 436  3 435 396 434  3 396 435 437  
