ply
format ascii 1.0
comment bbox -17.728338  -5.666669 25.000134  28.855310 -25.993828  -25.000734 
element vertex 98
property double x
property double y
property double z
element face 131
property list uchar int vertex_index
end_header
-14.084753990199999 27.610841751100001 -25.886610031099998  -16.727937088627812 25.224591510467423 -25.984493693481003  -12.545173645 28.6112327576 -25.9938278198  -12.996188163799999 28.436054229700002 -25.938154220600001  -17.061756133999999 25.504343032800001 -25.1882095337  -16.899345397899999 25.6379032135 -25.112277984599999  -16.835315068566668 25.681106567400004 -25.224478403733332  -17.645397186299999 25.067436218299999 -25.1379489899  -12.893488884 28.7161560059 -25.8461761475  -12.8230400085 28.793357849100001 -25.810377120999998  -12.9512329102 28.7172279358 -25.756349563600001  -17.088052749599999 25.487651825 -25.0943183899  -16.993628501899998 25.562677383400001 -25.103252410899998  -17.185618400599999 25.4145898819 -25.0859375  -13.171238422350001 28.326713562000002 -25.9035577774  -13.35462903975 28.27626895905 -25.857444763149999  -13.129473686200001 28.471250534100001 -25.8589897156  -12.874178886399999 28.791503906199999 -25.719549179099999  -12.9851503372 28.707721710200001 -25.6630134583  -13.6070137024 28.178150176999999 -25.736467361500001  -13.70322847365 28.05909824375 -25.788751602150001  -13.575748443633335 28.079893112166669 -25.8553848267  -13.723752021799999 28.097568511999999 -25.681053161600001  -17.5604629517 25.130863189700001 -25.099252700800001  -17.116897583 25.472421646099999 -25.0007343292  -14.910845756500001 27.1800546646 -25.525743484499998  -14.68918275835 27.359341621399999 -25.477936744700003  -15.021010398849999 27.097111701949999 -25.469716072049998  -15.044791221600001 27.040405273400001 -25.645332336399999  -15.3132677078 26.817276001 -25.663728714000001  -15.092370986900001 27.036670684800001 -25.554847717299999  -15.432103157 26.739356994600001 -25.609298706099999  -14.9741134644 27.115287780799999 -25.609508514400002  -14.0592660904 27.708663940400001 -25.857463836699999  -13.963719368 27.827599525449997 -25.8053398132  -14.532039960233334 27.474450429300003 -25.514244079600001  -14.4324860573 27.549387931799998 -25.522968292249999  -14.130819320666667 27.802537918066665 -25.367826461766668  -13.015619278000001 28.6374282837 -25.791288375899999  -13.4046411514 28.135419845600001 -25.903116226200002  -14.2389564514 27.70232200625 -25.541309356700001  -14.198721885699999 27.722904205300001 -25.6824455261  -14.123400370299999 27.797715504966664 -25.5064690908  -13.9926018715 27.929450988799999 -25.267294883749997  -7.8801283836399998 25.246126174899999 -25.902545928999999  -8.3857393264799995 25.205593109100001 -25.9161224365  -8.2351512908950006 25.599921226500001 -25.901594162000002  -12.987317085300001 28.540912628200001 -25.911052703900001  -12.947391509999999 28.6316699982 -25.8796024323  -12.788619995099999 28.6942520142 -25.9294090271  -12.636178016700001 28.844007492100001 -25.856172561600001  -11.769408225999999 27.933851242100001 -25.967540741000001  -12.5639410019 28.7282619476 -25.970287323000001  -16.587394714399998 25.843118667599999 -25.502151489300001  -16.538461685200001 25.846269607499998 -25.591777801500001  -14.2721347809 27.648538589499999 -25.7186794281  -14.152852058400001 27.727338790899999 -25.7734851837  -14.580085754400001 27.415105819699999 -25.6448345184  -14.764292399066667 27.286216100066667 -25.584161758433336  -14.6194171906 27.407306671099999 -25.552837371799999  -14.8525362015 27.192285537699998 -25.663690567  -5.9266023635899998 25.1264438629 -25.190748214700001  -5.8409595489499999 25.1113414764 -25.114597320600001  -5.9762983322150003 25.17084789275 -25.04975986485  -16.607814788799999 25.772478103600001 -25.6273269653  -15.3802947998 26.740894317599999 -25.698932647700001  -16.8726978302 25.553192138699998 -25.6457157135  -16.9399261475 25.478584289600001 -25.6808719635  -16.8046760559 25.6274261475 -25.6104106903  -5.6666688919099997 25.000133514400002 -25.313507080099999  -14.0759811401 27.800138473499999 -25.7367610931  -11.653796196 27.7692184448 -25.978921890300001  -17.728338241599999 25.002990722700002 -25.1762371063  -16.637600898750001 25.825028419500001 -25.363638877850001  -16.703868866000001 25.784648895299998 -25.129104614300001  -8.8276100158700004 25.60206604 -25.9270658493  -9.8469429016099994 26.3850803375 -25.984106063799999  -14.3864517212 27.5673694611 -25.663150787399999  -15.118250846900001 27.021696090700001 -25.460800170900001  -5.8413953781099996 25.069145202600001 -25.288854599  -13.076200485199999 28.555973052999999 -25.825666427600002  -14.2342567444 27.601795196499999 -25.82347679135  -12.7174968719 28.855310440099998 -25.769502639799999  -12.7367658615 28.779773712200001 -25.896236419699999  -12.766070365899999 28.852312088000001 -25.678163528399999  -12.9076843262 28.781862258899999 -25.626077651999999  -10.0850057602 26.614751815799998 -25.986120224  -10.272888183599999 26.8195781708 -25.982015609699999  -10.443806648300001 27.015211105300001 -25.976036071799999  -13.9243087769 28.009603500400001 -25.020429611200001  -13.85722875595 28.059202194200001 -25.096596717849998  -6.0722997188549996 25.156862258899999 -25.206829071050002  -5.7136490344999995 25.045923233049997 -25.174366951  -5.7588768005400004 25.0100460052 -25.3851737976  -8.8985309600800004 26.093044281000001 -25.940626144399999  -9.3474054336499997 26.030904769900001 -25.9490127563  -7.901136398316666 25.844263712566669 -25.442648569733336  -10.5264577866 27.169355392500002 -25.958757400500001  3 0 2 1  3 2 0 3  3 5 6 4  3 6 7 4  3 8 10 9  3 4 11 12  3 13 11 4  3 14 15 16  3 10 18 17  3 20 19 21  3 19 20 22  3 23 13 7  3 13 24 11  3 13 4 7  3 26 25 27  3 30 28 29  3 30 29 31  3 28 30 32  3 21 33 34  3 36 35 37  3 19 10 38  3 21 39 33  3 40 42 41  3 35 43 37  3 44 45 46  3 15 14 39  3 49 47 48  3 50 51 52  3 53 31 54  3 41 56 55  3 59 57 58  3 60 29 28  3 60 56 29  3 63 62 61  3 54 65 64  3 67 66 64  3 65 67 64  3 66 68 64  3 31 29 65  3 58 26 59  3 12 5 4  3 69 61 62  3 41 22 70  3 53 54 64  3 53 64 68  3 1 2 71  3 6 72 7  3 5 73 6  3 74 73 5  3 65 54 31  3 75 45 76  3 32 25 58  3 26 58 25  3 9 10 17  3 60 28 32  3 36 77 35  3 59 26 35  3 57 77 55  3 55 77 41  3 3 39 14  3 78 73 74  3 58 57 32  3 57 60 32  3 25 32 27  3 61 69 79  3 80 38 47  3 38 48 47  3 57 59 35  3 43 35 26  3 36 37 40  3 77 57 35  3 51 2 52  3 41 70 56  3 33 81 56  3 30 27 32  3 37 42 40  3 19 15 21  3 60 55 56  3 70 22 20  3 39 21 15  3 3 47 49  3 36 41 77  3 9 82 50  3 9 50 83  3 41 36 40  3 19 18 10  3 33 39 0  3 55 60 57  3 20 21 34  3 70 20 34  3 33 0 1  3 33 70 34  3 49 52 3  3 52 2 3  3 49 9 83  3 56 70 33  3 42 43 41  3 85 84 17  3 0 39 3  3 80 16 15  3 14 16 3  3 16 80 47  3 16 47 3  3 80 19 38  3 80 15 19  3 50 83 52  3 51 71 2  3 86 1 71  3 83 52 49  3 49 48 8  3 9 49 8  3 17 18 85  3 9 17 82  3 17 84 82  3 48 38 10  3 48 10 8  3 22 18 19  3 18 22 85  3 41 85 22  3 71 88 87  3 89 90 43  3 91 63 61  3 42 37 43  3 69 62 92  3 69 93 79  3 95 94 75  3 46 96 44  3 95 75 76  3 87 86 71  3 97 71 51  3 88 71 97  
